<?xml version="1.0" encoding="UTF-8" standalone="no"?>
<svg
   id="uuid-d562278b-f01c-4d25-bf53-539b2abbe55f"
   data-name="FIL et SILHOUETTES"
   width="500"
   height="500"
   viewBox="0 0 500 500"
   version="1.1"
   sodipodi:docname="CHATS INVERSÉ V2.svg"
   inkscape:version="1.1.2 (0a00cf5339, 2022-02-04)"
   xmlns:inkscape="http://www.inkscape.org/namespaces/inkscape"
   xmlns:sodipodi="http://sodipodi.sourceforge.net/DTD/sodipodi-0.dtd"
   xmlns:xlink="http://www.w3.org/1999/xlink"
   xmlns="http://www.w3.org/2000/svg"
   xmlns:svg="http://www.w3.org/2000/svg">
  <sodipodi:namedview
     id="namedview646"
     pagecolor="#ffffff"
     bordercolor="#666666"
     borderopacity="1.0"
     inkscape:pageshadow="2"
     inkscape:pageopacity="0.0"
     inkscape:pagecheckerboard="0"
     showgrid="false"
     inkscape:zoom="1.108"
     inkscape:cx="249.54874"
     inkscape:cy="250"
     inkscape:window-width="1600"
     inkscape:window-height="831"
     inkscape:window-x="0"
     inkscape:window-y="0"
     inkscape:window-maximized="1"
     inkscape:current-layer="uuid-d562278b-f01c-4d25-bf53-539b2abbe55f" />
  <defs
     id="defs595">
    <pattern
       inkscape:collect="always"
       xlink:href="#uuid-0f91d49a-8436-4850-a6d1-b09012161522"
       id="pattern1463"
       patternTransform="matrix(-2.3,0,0,2.31,-24568.35,6086.01)" />
    <style
       id="style2">
      .uuid-5f1fc9bb-3252-40f1-ba8d-3ad3aeecc704, .uuid-5bc0bb60-b24b-403a-abd4-5b2c0f43ed26, .uuid-dae445cc-64e7-4431-a082-fb1ae0cf47f4, .uuid-c942a9f8-6897-461f-9550-bbf057518400 {
        fill: none;
      }

      .uuid-a5616e0f-68df-4693-8210-1d04fbddb9c8 {
        fill: #fbb03b;
      }

      .uuid-0d1e7369-265a-4ce6-939e-d53112fd2199 {
        fill: #faf7f5;
      }

      .uuid-77c22d6c-41d6-4a50-973d-81060a78b629 {
        fill: #8f8c95;
      }

      .uuid-3608f80c-36e1-4471-990d-9ece5ef4bb5d {
        fill: #b6d6c1;
      }

      .uuid-5b3ec71c-26dd-468e-b1fc-861ad73e2b05 {
        fill: #1d1d1b;
      }

      .uuid-f170916b-a1d2-4059-9d6a-3908e39305a4 {
        fill: #262631;
      }

      .uuid-5bc0bb60-b24b-403a-abd4-5b2c0f43ed26 {
        stroke-width: .75px;
      }

      .uuid-5bc0bb60-b24b-403a-abd4-5b2c0f43ed26, .uuid-dae445cc-64e7-4431-a082-fb1ae0cf47f4, .uuid-c942a9f8-6897-461f-9550-bbf057518400 {
        stroke: #262631;
        stroke-miterlimit: 10;
      }

      .uuid-dae445cc-64e7-4431-a082-fb1ae0cf47f4 {
        stroke-width: 10px;
      }

      .uuid-783a4901-4c48-4f85-972b-b5785e5c11d4 {
        fill: url(#uuid-0f91d49a-8436-4850-a6d1-b09012161522);
        opacity: .25;
      }

      .uuid-c942a9f8-6897-461f-9550-bbf057518400 {
        stroke-width: 2px;
      }
    </style>
    <pattern
       id="uuid-0f91d49a-8436-4850-a6d1-b09012161522"
       data-name="Lac asséché sableux USGS 17"
       x="0"
       y="0"
       width="72"
       height="72"
       patternTransform="translate(-24568.18 6087.59) rotate(-180) scale(2.3 -2.31)"
       patternUnits="userSpaceOnUse"
       viewBox="0 0 72 72">
      <g
         id="g592">
        <rect
           class="uuid-5f1fc9bb-3252-40f1-ba8d-3ad3aeecc704"
           width="72"
           height="72"
           id="rect4" />
        <path
           class="uuid-5b3ec71c-26dd-468e-b1fc-861ad73e2b05"
           d="M21,3c-.06,0-.12-.02-.17-.07-.05-.05-.08-.11-.08-.18s.03-.13,.08-.18c.09-.09,.25-.09,.35,0,.05,.05,.07,.11,.07,.18,0,.06-.02,.12-.07,.17-.05,.06-.11,.08-.18,.08Z"
           id="path6" />
        <path
           class="uuid-5b3ec71c-26dd-468e-b1fc-861ad73e2b05"
           d="M20,8.25c-.06,0-.13-.03-.18-.07-.04-.05-.07-.11-.07-.18s.03-.13,.07-.18c.1-.09,.26-.09,.36,0,.04,.05,.07,.11,.07,.18s-.03,.13-.07,.18c-.05,.05-.11,.07-.18,.07Z"
           id="path8" />
        <path
           class="uuid-5b3ec71c-26dd-468e-b1fc-861ad73e2b05"
           d="M20.25,10.5c-.06,0-.13-.03-.17-.07-.05-.05-.08-.11-.08-.18s.03-.13,.07-.18c.1-.09,.27-.09,.36,0,.04,.05,.07,.11,.07,.18s-.03,.14-.08,.18c-.04,.04-.1,.07-.17,.07Z"
           id="path10" />
        <path
           class="uuid-5b3ec71c-26dd-468e-b1fc-861ad73e2b05"
           d="M18,12.75c-.06,0-.12-.03-.17-.07-.05-.05-.08-.11-.08-.18s.03-.13,.07-.18c.11-.09,.26-.09,.36,0,.05,.05,.07,.11,.07,.18s-.02,.13-.07,.18c-.05,.04-.11,.07-.18,.07Z"
           id="path12" />
        <path
           class="uuid-5b3ec71c-26dd-468e-b1fc-861ad73e2b05"
           d="M15.25,10.5c-.06,0-.12-.02-.17-.07-.05-.05-.08-.12-.08-.18,0-.07,.03-.13,.07-.18,.12-.1,.26-.09,.36,0,.05,.05,.07,.11,.07,.18,0,.06-.02,.13-.07,.17-.05,.06-.11,.08-.18,.08Z"
           id="path14" />
        <path
           class="uuid-5b3ec71c-26dd-468e-b1fc-861ad73e2b05"
           d="M22.75,20c-.06,0-.12-.02-.17-.07-.05-.05-.08-.11-.08-.18,0-.06,.03-.13,.07-.17,.11-.11,.27-.1,.36,0,.05,.06,.07,.12,.07,.18s-.02,.13-.07,.18c-.05,.04-.11,.07-.18,.07Z"
           id="path16" />
        <path
           class="uuid-5b3ec71c-26dd-468e-b1fc-861ad73e2b05"
           d="M15.25,23c-.06,0-.12-.02-.17-.07-.05-.05-.08-.11-.08-.18,0-.06,.03-.12,.07-.17,.12-.11,.26-.1,.36,0,.05,.05,.07,.12,.07,.18,0,.07-.02,.13-.07,.18-.05,.05-.11,.07-.18,.07Z"
           id="path18" />
        <path
           class="uuid-5b3ec71c-26dd-468e-b1fc-861ad73e2b05"
           d="M14,24c-.07,0-.13-.03-.18-.08-.04-.04-.07-.1-.07-.17s.03-.13,.07-.18c.11-.1,.26-.09,.36,0,.05,.05,.07,.12,.07,.18,0,.07-.02,.13-.07,.18-.05,.04-.11,.07-.18,.07Z"
           id="path20" />
        <path
           class="uuid-5b3ec71c-26dd-468e-b1fc-861ad73e2b05"
           d="M24,27c-.06,0-.12-.02-.17-.07-.05-.05-.08-.11-.08-.18s.03-.13,.07-.17c.11-.11,.26-.1,.36,0,.05,.06,.07,.12,.07,.18,0,.07-.02,.13-.07,.18-.05,.05-.11,.07-.18,.07Z"
           id="path22" />
        <path
           class="uuid-5b3ec71c-26dd-468e-b1fc-861ad73e2b05"
           d="M30.75,25.75c-.06,0-.12-.02-.17-.07-.05-.05-.08-.11-.08-.18s.03-.13,.08-.18c.1-.09,.25-.09,.35,0,.05,.05,.07,.12,.07,.18s-.02,.13-.07,.18c-.05,.05-.11,.07-.18,.07Z"
           id="path24" />
        <path
           class="uuid-5b3ec71c-26dd-468e-b1fc-861ad73e2b05"
           d="M31.25,23.25c-.06,0-.12-.03-.17-.07-.05-.05-.08-.11-.08-.18,0-.06,.03-.13,.07-.17,.11-.11,.26-.1,.36,0,.05,.06,.07,.12,.07,.18,0,.07-.02,.13-.07,.18-.05,.04-.11,.07-.18,.07Z"
           id="path26" />
        <path
           class="uuid-5b3ec71c-26dd-468e-b1fc-861ad73e2b05"
           d="M29.25,18.25c-.06,0-.12-.02-.17-.07-.05-.05-.08-.11-.08-.18s.03-.13,.08-.18c.1-.09,.25-.09,.35,0,.05,.05,.07,.11,.07,.18s-.03,.13-.07,.18c-.05,.05-.12,.07-.18,.07Z"
           id="path28" />
        <path
           class="uuid-5b3ec71c-26dd-468e-b1fc-861ad73e2b05"
           d="M32.25,18.25c-.06,0-.12-.02-.17-.07-.05-.05-.08-.11-.08-.18s.03-.13,.07-.18c.11-.09,.26-.09,.36,0,.04,.05,.07,.11,.07,.18s-.03,.13-.07,.18c-.05,.05-.11,.07-.18,.07Z"
           id="path30" />
        <path
           class="uuid-5b3ec71c-26dd-468e-b1fc-861ad73e2b05"
           d="M32.5,13.75c-.06,0-.13-.03-.17-.07-.05-.05-.08-.11-.08-.18s.03-.13,.08-.18c.09-.09,.26-.09,.35,0,.05,.05,.07,.12,.07,.18s-.02,.12-.07,.17c-.05,.05-.11,.08-.18,.08Z"
           id="path32" />
        <path
           class="uuid-5b3ec71c-26dd-468e-b1fc-861ad73e2b05"
           d="M31.75,11.75c-.06,0-.12-.02-.17-.07-.05-.05-.08-.11-.08-.18s.03-.13,.08-.18c.1-.09,.25-.09,.35,0,.05,.05,.07,.11,.07,.18s-.03,.13-.07,.18c-.05,.05-.11,.07-.18,.07Z"
           id="path34" />
        <path
           class="uuid-5b3ec71c-26dd-468e-b1fc-861ad73e2b05"
           d="M29.25,10.75c-.07,0-.13-.03-.18-.07-.04-.05-.07-.11-.07-.18s.03-.13,.08-.18c.1-.09,.25-.09,.35,0,.05,.05,.07,.11,.07,.18s-.02,.13-.07,.18c-.05,.04-.11,.07-.18,.07Z"
           id="path36" />
        <path
           class="uuid-5b3ec71c-26dd-468e-b1fc-861ad73e2b05"
           d="M32.25,7c-.06,0-.12-.02-.17-.07-.05-.05-.08-.11-.08-.18s.03-.13,.07-.18c.11-.09,.26-.09,.36,0,.05,.05,.07,.11,.07,.18s-.03,.13-.07,.18c-.05,.05-.11,.07-.18,.07Z"
           id="path38" />
        <path
           class="uuid-5b3ec71c-26dd-468e-b1fc-861ad73e2b05"
           d="M32,3c-.06,0-.12-.03-.17-.07-.05-.05-.08-.11-.08-.18s.03-.13,.08-.18c.1-.09,.25-.09,.35,0,.05,.05,.07,.12,.07,.18s-.02,.13-.07,.18c-.05,.04-.11,.07-.18,.07Z"
           id="path40" />
        <path
           class="uuid-5b3ec71c-26dd-468e-b1fc-861ad73e2b05"
           d="M29.25,3.25c-.06,0-.12-.02-.17-.07-.05-.05-.08-.11-.08-.18s.03-.13,.08-.18c.09-.09,.25-.09,.35,0,.05,.05,.07,.11,.07,.18,0,.06-.02,.13-.07,.17-.05,.06-.11,.08-.18,.08Z"
           id="path42" />
        <path
           class="uuid-5b3ec71c-26dd-468e-b1fc-861ad73e2b05"
           d="M34,1.25c-.06,0-.13-.03-.17-.07-.05-.05-.08-.11-.08-.18s.03-.14,.08-.18c.09-.09,.26-.09,.35,0,.05,.05,.07,.11,.07,.18,0,.06-.02,.12-.07,.17-.05,.05-.11,.08-.18,.08Z"
           id="path44" />
        <path
           class="uuid-5b3ec71c-26dd-468e-b1fc-861ad73e2b05"
           d="M41.5,7c-.06,0-.13-.03-.17-.07-.05-.05-.08-.11-.08-.18s.03-.13,.08-.18c.09-.09,.24-.09,.34,0,.06,.06,.08,.12,.08,.18s-.02,.12-.07,.17c-.05,.06-.11,.08-.18,.08Z"
           id="path46" />
        <path
           class="uuid-5b3ec71c-26dd-468e-b1fc-861ad73e2b05"
           d="M45.5,6.75c-.06,0-.12-.02-.17-.07-.05-.05-.08-.11-.08-.18s.03-.13,.08-.18c.09-.09,.25-.09,.35,0,.05,.05,.07,.12,.07,.18s-.02,.13-.07,.18c-.05,.05-.12,.07-.18,.07Z"
           id="path48" />
        <path
           class="uuid-5b3ec71c-26dd-468e-b1fc-861ad73e2b05"
           d="M40.25,10.25c-.06,0-.12-.02-.17-.07-.05-.05-.08-.12-.08-.18,0-.07,.03-.13,.07-.18,.11-.09,.26-.09,.36,0,.05,.05,.07,.11,.07,.18,0,.06-.02,.13-.07,.17-.05,.06-.11,.08-.18,.08Z"
           id="path50" />
        <path
           class="uuid-5b3ec71c-26dd-468e-b1fc-861ad73e2b05"
           d="M45,11.75c-.06,0-.12-.02-.17-.07-.05-.05-.08-.11-.08-.18s.03-.13,.08-.18c.1-.09,.25-.09,.35,0,.04,.05,.07,.11,.07,.18s-.02,.13-.07,.18c-.05,.05-.11,.07-.18,.07Z"
           id="path52" />
        <path
           class="uuid-5b3ec71c-26dd-468e-b1fc-861ad73e2b05"
           d="M45,13.5c-.06,0-.12-.02-.17-.07-.05-.05-.08-.11-.08-.18s.03-.13,.08-.18c.08-.09,.26-.09,.35,0,.05,.04,.07,.1,.07,.17s-.02,.13-.07,.18c-.05,.05-.11,.07-.18,.07Z"
           id="path54" />
        <path
           class="uuid-5b3ec71c-26dd-468e-b1fc-861ad73e2b05"
           d="M47,14.25c-.06,0-.12-.02-.17-.07-.05-.05-.08-.11-.08-.18s.03-.13,.08-.18c.09-.09,.25-.09,.35,0,.05,.05,.07,.12,.07,.18s-.02,.13-.07,.18c-.05,.05-.11,.07-.18,.07Z"
           id="path56" />
        <path
           class="uuid-5b3ec71c-26dd-468e-b1fc-861ad73e2b05"
           d="M47,16.25c-.06,0-.13-.03-.17-.07-.05-.05-.08-.11-.08-.18s.03-.13,.08-.18c.08-.08,.26-.09,.35,0,.05,.04,.07,.11,.07,.17s-.02,.13-.07,.18c-.05,.04-.11,.07-.18,.07Z"
           id="path58" />
        <path
           class="uuid-5b3ec71c-26dd-468e-b1fc-861ad73e2b05"
           d="M47.25,22.75c-.06,0-.13-.03-.17-.07-.05-.04-.08-.11-.08-.18s.03-.13,.08-.18c.08-.08,.25-.09,.35,0,.05,.05,.07,.11,.07,.18s-.03,.13-.07,.18c-.05,.05-.11,.07-.18,.07Z"
           id="path60" />
        <path
           class="uuid-5b3ec71c-26dd-468e-b1fc-861ad73e2b05"
           d="M39,20.75c-.06,0-.12-.02-.17-.07-.05-.05-.08-.11-.08-.18s.03-.13,.08-.18c.1-.09,.25-.09,.35,0,.04,.05,.07,.11,.07,.18s-.03,.13-.07,.18c-.05,.05-.11,.07-.18,.07Z"
           id="path62" />
        <path
           class="uuid-5b3ec71c-26dd-468e-b1fc-861ad73e2b05"
           d="M50.25,13.5c-.06,0-.13-.03-.17-.07-.05-.05-.08-.11-.08-.18s.03-.13,.08-.18c.1-.09,.26-.09,.35,0,.05,.05,.07,.12,.07,.18s-.02,.13-.07,.18c-.05,.04-.11,.07-.18,.07Z"
           id="path64" />
        <path
           class="uuid-5b3ec71c-26dd-468e-b1fc-861ad73e2b05"
           d="M52.25,12c-.06,0-.12-.02-.17-.07-.05-.05-.08-.11-.08-.18s.03-.13,.08-.18c.09-.09,.25-.09,.35,0,.05,.05,.07,.12,.07,.18s-.02,.13-.07,.18c-.05,.05-.11,.07-.18,.07Z"
           id="path66" />
        <path
           class="uuid-5b3ec71c-26dd-468e-b1fc-861ad73e2b05"
           d="M54.75,11c-.06,0-.13-.03-.17-.07-.05-.05-.08-.12-.08-.18,0-.07,.03-.13,.08-.18,.09-.09,.25-.09,.35,0,.05,.05,.07,.11,.07,.18,0,.06-.02,.13-.07,.18-.05,.04-.11,.07-.18,.07Z"
           id="path68" />
        <path
           class="uuid-5b3ec71c-26dd-468e-b1fc-861ad73e2b05"
           d="M54.75,6.75c-.07,0-.13-.03-.17-.07-.05-.06-.08-.12-.08-.18s.03-.12,.07-.17c.1-.1,.26-.1,.36,0,.05,.06,.07,.12,.07,.18s-.02,.12-.07,.17c-.05,.05-.11,.08-.18,.08Z"
           id="path70" />
        <path
           class="uuid-5b3ec71c-26dd-468e-b1fc-861ad73e2b05"
           d="M56.5,.75c-.06,0-.13-.03-.17-.07-.05-.05-.08-.12-.08-.18s.03-.13,.07-.18c.1-.09,.26-.09,.36,0,.05,.06,.07,.12,.07,.18s-.02,.12-.07,.17c-.05,.05-.11,.08-.18,.08Z"
           id="path72" />
        <path
           class="uuid-5b3ec71c-26dd-468e-b1fc-861ad73e2b05"
           d="M64,6.5c-.06,0-.13-.03-.17-.07-.05-.05-.08-.12-.08-.18s.03-.13,.07-.17c.1-.1,.26-.1,.36,0,.05,.06,.07,.12,.07,.18s-.02,.12-.07,.17c-.05,.05-.11,.08-.18,.08Z"
           id="path74" />
        <path
           class="uuid-5b3ec71c-26dd-468e-b1fc-861ad73e2b05"
           d="M65,2.5c-.06,0-.13-.03-.17-.07-.05-.05-.08-.11-.08-.18s.03-.13,.08-.18c.09-.09,.25-.09,.35,0,.05,.05,.07,.11,.07,.18s-.02,.13-.07,.17c-.05,.06-.11,.08-.18,.08Z"
           id="path76" />
        <path
           class="uuid-5b3ec71c-26dd-468e-b1fc-861ad73e2b05"
           d="M68,3c-.06,0-.13-.03-.17-.07-.05-.05-.08-.11-.08-.18s.03-.13,.07-.18c.1-.09,.27-.09,.36,0,.05,.05,.07,.12,.07,.18s-.02,.13-.07,.18c-.05,.04-.11,.07-.18,.07Z"
           id="path78" />
        <path
           class="uuid-5b3ec71c-26dd-468e-b1fc-861ad73e2b05"
           d="M68,10.25c-.06,0-.13-.03-.17-.07-.05-.05-.08-.11-.08-.18s.03-.13,.07-.18c.1-.09,.26-.09,.36,0,.05,.05,.07,.12,.07,.18s-.02,.13-.07,.18c-.05,.04-.11,.07-.18,.07Z"
           id="path80" />
        <path
           class="uuid-5b3ec71c-26dd-468e-b1fc-861ad73e2b05"
           d="M64.25,12.25c-.06,0-.13-.03-.17-.07-.05-.05-.08-.12-.08-.18s.03-.13,.07-.17c.09-.1,.25-.1,.35,0,.06,.05,.08,.12,.08,.18s-.02,.13-.07,.17c-.05,.06-.11,.08-.18,.08Z"
           id="path82" />
        <path
           class="uuid-5b3ec71c-26dd-468e-b1fc-861ad73e2b05"
           d="M65.25,15.75c-.07,0-.13-.03-.17-.07-.05-.05-.08-.11-.08-.18s.03-.13,.08-.18c.07-.08,.26-.09,.35,0,.05,.04,.07,.11,.07,.17s-.02,.12-.07,.17c-.04,.05-.11,.08-.18,.08Z"
           id="path84" />
        <path
           class="uuid-5b3ec71c-26dd-468e-b1fc-861ad73e2b05"
           d="M64,19.75c-.06,0-.13-.03-.17-.07-.05-.05-.08-.11-.08-.18s.03-.13,.08-.18c.08-.09,.25-.09,.35,0,.05,.05,.07,.12,.07,.18s-.02,.13-.07,.18c-.05,.04-.11,.07-.18,.07Z"
           id="path86" />
        <path
           class="uuid-5b3ec71c-26dd-468e-b1fc-861ad73e2b05"
           d="M66.25,19.75c-.07,0-.13-.03-.18-.08-.04-.04-.07-.1-.07-.17,0-.06,.03-.13,.07-.17,.09-.1,.26-.1,.36,0,.05,.05,.07,.12,.07,.18,0,.07-.02,.13-.07,.18-.05,.04-.11,.07-.18,.07Z"
           id="path88" />
        <path
           class="uuid-5b3ec71c-26dd-468e-b1fc-861ad73e2b05"
           d="M68,21.25c-.06,0-.13-.03-.17-.07-.05-.05-.08-.12-.08-.18s.03-.12,.07-.17c.1-.1,.27-.1,.36,0,.05,.06,.07,.12,.07,.18s-.02,.12-.07,.17c-.05,.05-.11,.08-.18,.08Z"
           id="path90" />
        <path
           class="uuid-5b3ec71c-26dd-468e-b1fc-861ad73e2b05"
           d="M69.25,20.25c-.06,0-.12-.02-.17-.07-.05-.05-.08-.11-.08-.18s.03-.13,.08-.18c.09-.09,.25-.09,.35,0,.05,.05,.07,.11,.07,.18s-.02,.13-.07,.18c-.05,.05-.11,.07-.18,.07Z"
           id="path92" />
        <path
           class="uuid-5b3ec71c-26dd-468e-b1fc-861ad73e2b05"
           d="M69.5,18c-.06,0-.12-.02-.17-.07-.05-.05-.08-.11-.08-.18s.03-.13,.08-.18c.09-.09,.25-.09,.35,0,.05,.05,.07,.11,.07,.18s-.02,.13-.07,.18c-.05,.05-.11,.07-.18,.07Z"
           id="path94" />
        <path
           class="uuid-5b3ec71c-26dd-468e-b1fc-861ad73e2b05"
           d="M71.25,17.5c-.06,0-.13-.03-.17-.07-.05-.05-.08-.12-.08-.18s.03-.12,.07-.17c.11-.1,.26-.1,.36,0,.05,.06,.07,.12,.07,.18s-.02,.12-.07,.17c-.05,.05-.11,.08-.18,.08Z"
           id="path96" />
        <path
           class="uuid-5b3ec71c-26dd-468e-b1fc-861ad73e2b05"
           d="M8,47c-.06,0-.13-.03-.18-.07-.04-.06-.07-.12-.07-.18,0-.07,.03-.13,.07-.18,.09-.09,.26-.09,.36,0,.05,.05,.07,.11,.07,.18,0,.06-.02,.13-.07,.17-.05,.06-.11,.08-.18,.08Z"
           id="path98" />
        <path
           class="uuid-5b3ec71c-26dd-468e-b1fc-861ad73e2b05"
           d="M7,52.25c-.06,0-.12-.02-.17-.07-.05-.05-.08-.11-.08-.18s.03-.13,.07-.18c.11-.09,.26-.09,.36,0,.05,.05,.07,.12,.07,.18,0,.07-.02,.13-.07,.18-.05,.05-.11,.07-.18,.07Z"
           id="path100" />
        <path
           class="uuid-5b3ec71c-26dd-468e-b1fc-861ad73e2b05"
           d="M7.25,54.5c-.06,0-.13-.03-.17-.07-.05-.05-.08-.11-.08-.18,0-.06,.03-.13,.07-.18,.1-.09,.26-.09,.36,0,.04,.05,.07,.11,.07,.18s-.03,.13-.07,.18c-.05,.04-.11,.07-.18,.07Z"
           id="path102" />
        <path
           class="uuid-5b3ec71c-26dd-468e-b1fc-861ad73e2b05"
           d="M5,56.75c-.06,0-.13-.03-.17-.07-.05-.05-.08-.11-.08-.18s.03-.13,.07-.17c.1-.1,.26-.1,.36,0,.05,.05,.07,.11,.07,.18s-.03,.13-.07,.18c-.05,.05-.12,.07-.18,.07Z"
           id="path104" />
        <path
           class="uuid-5b3ec71c-26dd-468e-b1fc-861ad73e2b05"
           d="M2.25,54.5c-.06,0-.12-.02-.17-.07-.05-.05-.08-.11-.08-.18,0-.06,.03-.13,.07-.17,.11-.11,.26-.1,.35,0,.06,.06,.08,.12,.08,.18s-.02,.13-.07,.18c-.06,.05-.12,.07-.18,.07Z"
           id="path106" />
        <path
           class="uuid-5b3ec71c-26dd-468e-b1fc-861ad73e2b05"
           d="M9.75,64c-.06,0-.12-.02-.17-.07-.05-.05-.08-.11-.08-.18s.03-.13,.07-.18c.11-.09,.26-.09,.36,0,.05,.05,.07,.11,.07,.18s-.02,.13-.07,.18-.11,.07-.18,.07Z"
           id="path108" />
        <path
           class="uuid-5b3ec71c-26dd-468e-b1fc-861ad73e2b05"
           d="M2.25,67c-.06,0-.12-.03-.17-.07-.05-.05-.08-.11-.08-.18s.03-.13,.07-.18c.1-.09,.26-.09,.36,0,.05,.05,.07,.11,.07,.18,0,.06-.02,.13-.07,.18-.06,.05-.12,.07-.18,.07Z"
           id="path110" />
        <path
           class="uuid-5b3ec71c-26dd-468e-b1fc-861ad73e2b05"
           d="M1,68c-.06,0-.13-.03-.18-.07-.04-.05-.07-.11-.07-.18,0-.06,.03-.13,.07-.18,.1-.09,.27-.09,.36,0,.05,.05,.07,.12,.07,.18s-.02,.13-.07,.18c-.05,.04-.11,.07-.18,.07Z"
           id="path112" />
        <path
           class="uuid-5b3ec71c-26dd-468e-b1fc-861ad73e2b05"
           d="M11,71c-.06,0-.12-.02-.17-.07-.05-.05-.08-.11-.08-.18s.03-.13,.07-.18c.11-.09,.26-.09,.36,0,.05,.05,.07,.12,.07,.18s-.02,.13-.07,.18c-.05,.05-.12,.07-.18,.07Z"
           id="path114" />
        <path
           class="uuid-5b3ec71c-26dd-468e-b1fc-861ad73e2b05"
           d="M17.75,69.75c-.06,0-.12-.02-.17-.07-.05-.05-.08-.11-.08-.18s.03-.13,.07-.18c.11-.09,.26-.09,.36,0,.05,.05,.07,.11,.07,.18s-.03,.13-.07,.18c-.05,.05-.12,.07-.18,.07Z"
           id="path116" />
        <path
           class="uuid-5b3ec71c-26dd-468e-b1fc-861ad73e2b05"
           d="M18.25,67.25c-.06,0-.12-.03-.17-.07-.05-.06-.08-.12-.08-.18,0-.07,.03-.13,.07-.18,.11-.09,.26-.09,.36,0,.05,.05,.07,.11,.07,.18,0,.06-.02,.13-.07,.17-.05,.05-.11,.08-.18,.08Z"
           id="path118" />
        <path
           class="uuid-5b3ec71c-26dd-468e-b1fc-861ad73e2b05"
           d="M16.25,62.25c-.07,0-.13-.03-.18-.08-.04-.04-.07-.1-.07-.17s.03-.13,.07-.18c.1-.09,.26-.09,.36,0,.05,.05,.07,.11,.07,.18s-.02,.13-.07,.18c-.05,.04-.11,.07-.18,.07Z"
           id="path120" />
        <path
           class="uuid-5b3ec71c-26dd-468e-b1fc-861ad73e2b05"
           d="M19.25,62.25c-.06,0-.13-.03-.17-.07-.05-.05-.08-.11-.08-.18s.03-.13,.07-.18c.1-.09,.27-.09,.36,0,.04,.04,.07,.11,.07,.18s-.03,.14-.08,.18c-.04,.04-.1,.07-.17,.07Z"
           id="path122" />
        <path
           class="uuid-5b3ec71c-26dd-468e-b1fc-861ad73e2b05"
           d="M19.5,57.75c-.06,0-.12-.02-.17-.07-.05-.05-.08-.11-.08-.18,0-.06,.03-.13,.07-.17,.11-.11,.26-.1,.36,0,.05,.06,.07,.12,.07,.18s-.02,.13-.07,.18c-.05,.05-.11,.07-.18,.07Z"
           id="path124" />
        <path
           class="uuid-5b3ec71c-26dd-468e-b1fc-861ad73e2b05"
           d="M18.75,55.75c-.06,0-.12-.02-.17-.07-.05-.05-.08-.11-.08-.18s.03-.13,.08-.18c.1-.09,.26-.09,.35,0,.05,.05,.07,.12,.07,.18s-.02,.12-.07,.17c-.05,.05-.11,.08-.18,.08Z"
           id="path126" />
        <path
           class="uuid-5b3ec71c-26dd-468e-b1fc-861ad73e2b05"
           d="M16.25,54.75c-.06,0-.13-.03-.18-.07-.04-.05-.07-.11-.07-.18,0-.06,.03-.12,.07-.17,.1-.1,.26-.1,.36,0,.05,.05,.07,.12,.07,.18,0,.07-.02,.13-.07,.18-.05,.05-.11,.07-.18,.07Z"
           id="path128" />
        <path
           class="uuid-5b3ec71c-26dd-468e-b1fc-861ad73e2b05"
           d="M19.25,51c-.06,0-.13-.03-.17-.07-.05-.05-.08-.12-.08-.18,0-.07,.03-.13,.07-.18,.1-.09,.27-.09,.36,0,.04,.04,.07,.11,.07,.18s-.02,.13-.07,.18c-.05,.04-.11,.07-.18,.07Z"
           id="path130" />
        <path
           class="uuid-5b3ec71c-26dd-468e-b1fc-861ad73e2b05"
           d="M19,47c-.06,0-.13-.03-.17-.07-.05-.05-.08-.12-.08-.18,0-.07,.03-.13,.07-.18,.1-.09,.26-.09,.36,0,.04,.05,.07,.11,.07,.18,0,.06-.02,.13-.07,.17-.05,.06-.11,.08-.18,.08Z"
           id="path132" />
        <path
           class="uuid-5b3ec71c-26dd-468e-b1fc-861ad73e2b05"
           d="M16.25,47.25c-.07,0-.13-.03-.18-.07-.04-.05-.07-.12-.07-.18,0-.07,.03-.13,.07-.18,.09-.09,.26-.09,.36,0,.05,.05,.07,.11,.07,.18,0,.06-.02,.13-.07,.18-.05,.05-.11,.07-.18,.07Z"
           id="path134" />
        <path
           class="uuid-5b3ec71c-26dd-468e-b1fc-861ad73e2b05"
           d="M21,45.25c-.06,0-.12-.02-.17-.07-.05-.05-.08-.11-.08-.18s.03-.13,.08-.18c.1-.09,.25-.09,.35,0,.05,.05,.07,.12,.07,.18s-.02,.12-.07,.17c-.05,.06-.11,.08-.18,.08Z"
           id="path136" />
        <path
           class="uuid-5b3ec71c-26dd-468e-b1fc-861ad73e2b05"
           d="M28.5,51c-.06,0-.13-.03-.17-.07-.05-.05-.08-.11-.08-.18s.03-.13,.08-.18c.09-.09,.26-.09,.35,0,.05,.06,.07,.12,.07,.18s-.02,.13-.07,.18c-.05,.04-.11,.07-.18,.07Z"
           id="path138" />
        <path
           class="uuid-5b3ec71c-26dd-468e-b1fc-861ad73e2b05"
           d="M32.5,50.75c-.06,0-.13-.03-.17-.07-.05-.05-.08-.11-.08-.18s.03-.13,.08-.18c.09-.09,.25-.09,.35,0,.05,.05,.07,.12,.07,.18s-.02,.13-.07,.18c-.05,.04-.11,.07-.18,.07Z"
           id="path140" />
        <path
           class="uuid-5b3ec71c-26dd-468e-b1fc-861ad73e2b05"
           d="M27.25,54.25c-.07,0-.13-.03-.18-.08-.04-.04-.07-.1-.07-.17s.03-.14,.08-.18c.09-.09,.26-.09,.35,0,.05,.05,.07,.11,.07,.18,0,.06-.02,.13-.07,.18-.04,.04-.11,.07-.18,.07Z"
           id="path142" />
        <path
           class="uuid-5b3ec71c-26dd-468e-b1fc-861ad73e2b05"
           d="M32,55.75c-.06,0-.12-.03-.17-.07-.05-.05-.08-.11-.08-.18,0-.06,.03-.13,.07-.17,.11-.11,.26-.1,.36,0,.05,.06,.07,.12,.07,.18,0,.07-.02,.13-.07,.18-.05,.04-.11,.07-.18,.07Z"
           id="path144" />
        <path
           class="uuid-5b3ec71c-26dd-468e-b1fc-861ad73e2b05"
           d="M32,57.5c-.06,0-.12-.02-.17-.07-.05-.05-.08-.11-.08-.18,0-.06,.03-.13,.07-.17,.11-.11,.26-.1,.36,0,.05,.06,.07,.12,.07,.18s-.02,.13-.07,.18c-.05,.05-.11,.07-.18,.07Z"
           id="path146" />
        <path
           class="uuid-5b3ec71c-26dd-468e-b1fc-861ad73e2b05"
           d="M34,58.25c-.07,0-.13-.03-.18-.08-.04-.04-.07-.1-.07-.17s.03-.14,.08-.18c.09-.09,.26-.09,.35,0,.05,.05,.07,.11,.07,.18,0,.06-.02,.13-.07,.18-.04,.04-.11,.07-.18,.07Z"
           id="path148" />
        <path
           class="uuid-5b3ec71c-26dd-468e-b1fc-861ad73e2b05"
           d="M34,60.25c-.06,0-.12-.02-.17-.07-.05-.05-.08-.11-.08-.18s.03-.13,.08-.18c.09-.09,.26-.09,.35,0,.05,.06,.07,.12,.07,.18s-.02,.13-.07,.18c-.05,.04-.11,.07-.18,.07Z"
           id="path150" />
        <path
           class="uuid-5b3ec71c-26dd-468e-b1fc-861ad73e2b05"
           d="M34.25,66.75c-.06,0-.13-.03-.17-.07-.05-.05-.08-.11-.08-.18s.03-.13,.08-.18c.09-.09,.25-.09,.35,0,.05,.05,.07,.12,.07,.18s-.02,.13-.07,.18c-.05,.04-.11,.07-.18,.07Z"
           id="path152" />
        <path
           class="uuid-5b3ec71c-26dd-468e-b1fc-861ad73e2b05"
           d="M26,64.75c-.06,0-.12-.02-.17-.07-.05-.05-.08-.11-.08-.18s.03-.13,.08-.18c.09-.09,.26-.09,.35,0,.05,.04,.07,.11,.07,.17,0,.07-.02,.13-.07,.18-.05,.05-.11,.07-.18,.07Z"
           id="path154" />
        <path
           class="uuid-5b3ec71c-26dd-468e-b1fc-861ad73e2b05"
           d="M37.25,57.5c-.06,0-.13-.03-.17-.07-.05-.05-.08-.11-.08-.18s.03-.13,.08-.18c.09-.09,.25-.09,.34,0,.06,.05,.08,.12,.08,.18s-.02,.12-.07,.17c-.05,.06-.11,.08-.18,.08Z"
           id="path156" />
        <path
           class="uuid-5b3ec71c-26dd-468e-b1fc-861ad73e2b05"
           d="M39.25,56c-.06,0-.13-.03-.17-.07-.05-.05-.08-.11-.08-.18s.03-.13,.08-.18c.09-.09,.25-.09,.35,0,.05,.05,.07,.12,.07,.18s-.02,.12-.07,.17c-.05,.06-.11,.08-.18,.08Z"
           id="path158" />
        <path
           class="uuid-5b3ec71c-26dd-468e-b1fc-861ad73e2b05"
           d="M41.75,55c-.06,0-.13-.03-.17-.07-.05-.05-.08-.11-.08-.18s.03-.14,.08-.18c.09-.09,.26-.09,.35,0,.05,.05,.07,.11,.07,.18,0,.06-.02,.12-.07,.17-.05,.05-.11,.08-.18,.08Z"
           id="path160" />
        <path
           class="uuid-5b3ec71c-26dd-468e-b1fc-861ad73e2b05"
           d="M41.75,50.75c-.06,0-.12-.02-.17-.07-.05-.05-.08-.11-.08-.18s.03-.13,.08-.18c.09-.09,.26-.09,.35,0,.05,.05,.07,.11,.07,.18,0,.06-.02,.13-.07,.18-.05,.04-.11,.07-.18,.07Z"
           id="path162" />
        <path
           class="uuid-5b3ec71c-26dd-468e-b1fc-861ad73e2b05"
           d="M43.5,44.75c-.06,0-.12-.03-.17-.07-.05-.05-.08-.11-.08-.18s.03-.13,.08-.18c.09-.09,.25-.09,.35,0,.05,.05,.07,.12,.07,.18s-.02,.13-.07,.18c-.05,.05-.12,.07-.18,.07Z"
           id="path164" />
        <path
           class="uuid-5b3ec71c-26dd-468e-b1fc-861ad73e2b05"
           d="M51,50.5c-.06,0-.12-.03-.17-.07-.05-.05-.08-.11-.08-.18s.03-.13,.08-.18c.09-.09,.25-.09,.35,0,.05,.05,.07,.11,.07,.18s-.02,.13-.07,.18c-.05,.05-.11,.07-.18,.07Z"
           id="path166" />
        <path
           class="uuid-5b3ec71c-26dd-468e-b1fc-861ad73e2b05"
           d="M52,46.5c-.06,0-.13-.03-.17-.07-.05-.05-.08-.11-.08-.18s.03-.13,.08-.18c.09-.09,.25-.09,.35,0,.05,.06,.07,.12,.07,.18s-.02,.12-.07,.17c-.05,.06-.11,.08-.18,.08Z"
           id="path168" />
        <path
           class="uuid-5b3ec71c-26dd-468e-b1fc-861ad73e2b05"
           d="M55,47c-.06,0-.12-.02-.17-.07-.05-.05-.08-.11-.08-.18s.03-.13,.08-.18c.09-.09,.25-.09,.35,0,.05,.05,.07,.12,.07,.18s-.02,.13-.07,.18c-.05,.05-.11,.07-.18,.07Z"
           id="path170" />
        <path
           class="uuid-5b3ec71c-26dd-468e-b1fc-861ad73e2b05"
           d="M55,54.25c-.06,0-.12-.03-.17-.07-.05-.05-.08-.11-.08-.18s.03-.13,.08-.18c.09-.09,.25-.09,.35,0,.05,.05,.07,.12,.07,.18s-.02,.13-.07,.18c-.05,.05-.11,.07-.18,.07Z"
           id="path172" />
        <path
           class="uuid-5b3ec71c-26dd-468e-b1fc-861ad73e2b05"
           d="M51.25,56.25c-.06,0-.13-.03-.17-.07-.05-.05-.08-.11-.08-.18s.03-.13,.08-.18c.09-.09,.25-.09,.35,0,.05,.05,.07,.11,.07,.18s-.02,.13-.07,.18c-.05,.04-.11,.07-.18,.07Z"
           id="path174" />
        <path
           class="uuid-5b3ec71c-26dd-468e-b1fc-861ad73e2b05"
           d="M52.25,59.75c-.06,0-.12-.02-.17-.07-.05-.05-.08-.11-.08-.18s.03-.13,.08-.18c.09-.09,.25-.09,.35,0,.05,.06,.07,.12,.07,.18s-.02,.12-.07,.17c-.05,.06-.11,.08-.18,.08Z"
           id="path176" />
        <path
           class="uuid-5b3ec71c-26dd-468e-b1fc-861ad73e2b05"
           d="M51,63.75c-.06,0-.13-.03-.17-.07-.05-.05-.08-.11-.08-.18s.03-.13,.08-.18c.09-.09,.25-.09,.35,0,.05,.05,.07,.12,.07,.18s-.02,.13-.07,.17c-.05,.06-.11,.08-.18,.08Z"
           id="path178" />
        <path
           class="uuid-5b3ec71c-26dd-468e-b1fc-861ad73e2b05"
           d="M53.25,63.75c-.06,0-.13-.03-.17-.07-.05-.05-.08-.12-.08-.18s.03-.13,.07-.17c.1-.1,.26-.1,.36,0,.05,.06,.07,.12,.07,.18s-.02,.12-.07,.17c-.05,.05-.11,.08-.18,.08Z"
           id="path180" />
        <path
           class="uuid-5b3ec71c-26dd-468e-b1fc-861ad73e2b05"
           d="M55,65.25c-.06,0-.12-.03-.17-.07-.05-.05-.08-.11-.08-.18s.03-.13,.08-.18c.09-.09,.25-.09,.35,0,.05,.05,.07,.12,.07,.18s-.02,.13-.07,.18c-.05,.05-.11,.07-.18,.07Z"
           id="path182" />
        <path
           class="uuid-5b3ec71c-26dd-468e-b1fc-861ad73e2b05"
           d="M56.25,64.25c-.06,0-.12-.03-.17-.07-.05-.05-.08-.11-.08-.18s.03-.13,.08-.18c.09-.09,.25-.09,.35,0,.05,.05,.07,.12,.07,.18,0,.07-.02,.13-.07,.18-.05,.05-.11,.07-.18,.07Z"
           id="path184" />
        <path
           class="uuid-5b3ec71c-26dd-468e-b1fc-861ad73e2b05"
           d="M56.5,62c-.06,0-.13-.03-.17-.07-.05-.06-.08-.12-.08-.18,0-.07,.03-.13,.08-.18,.07-.08,.26-.09,.35,0,.05,.04,.07,.11,.07,.17s-.02,.12-.07,.17c-.05,.05-.11,.08-.18,.08Z"
           id="path186" />
        <path
           class="uuid-5b3ec71c-26dd-468e-b1fc-861ad73e2b05"
           d="M58.25,61.5c-.06,0-.13-.03-.17-.07-.05-.05-.08-.12-.08-.18s.03-.13,.07-.17c.1-.1,.27-.1,.36,0,.05,.06,.07,.12,.07,.18s-.02,.12-.07,.17c-.04,.05-.11,.08-.18,.08Z"
           id="path188" />
        <path
           class="uuid-5b3ec71c-26dd-468e-b1fc-861ad73e2b05"
           d="M21,27c-.06,0-.12-.02-.17-.07-.05-.05-.08-.11-.08-.18s.03-.13,.08-.18c.1-.09,.25-.09,.35,0,.05,.05,.07,.12,.07,.18s-.02,.13-.07,.18c-.05,.05-.12,.07-.18,.07Z"
           id="path190" />
        <path
           class="uuid-5b3ec71c-26dd-468e-b1fc-861ad73e2b05"
           d="M22.75,24c-.07,0-.13-.03-.18-.07-.04-.05-.07-.11-.07-.18s.03-.13,.08-.18c.1-.09,.26-.09,.35,0,.05,.05,.07,.12,.07,.18s-.02,.13-.07,.18c-.04,.04-.11,.07-.18,.07Z"
           id="path192" />
        <path
           class="uuid-5b3ec71c-26dd-468e-b1fc-861ad73e2b05"
           d="M25.25,24.5c-.06,0-.12-.03-.17-.07-.05-.05-.08-.11-.08-.18s.03-.13,.08-.18c.1-.09,.25-.09,.35,0,.05,.05,.07,.12,.07,.18s-.02,.13-.07,.18c-.05,.04-.11,.07-.18,.07Z"
           id="path194" />
        <path
           class="uuid-5b3ec71c-26dd-468e-b1fc-861ad73e2b05"
           d="M35.25,23.25c-.06,0-.12-.02-.17-.07-.05-.05-.08-.11-.08-.18s.03-.13,.08-.18c.1-.09,.25-.09,.35,0,.05,.05,.07,.11,.07,.18s-.03,.13-.07,.18c-.05,.05-.11,.07-.18,.07Z"
           id="path196" />
        <path
           class="uuid-5b3ec71c-26dd-468e-b1fc-861ad73e2b05"
           d="M39,24.75c-.06,0-.12-.02-.17-.07-.05-.05-.08-.11-.08-.18s.03-.13,.08-.18c.1-.09,.25-.09,.35,0,.05,.05,.07,.11,.07,.18s-.03,.13-.07,.18c-.05,.05-.12,.07-.18,.07Z"
           id="path198" />
        <path
           class="uuid-5b3ec71c-26dd-468e-b1fc-861ad73e2b05"
           d="M45,29.5c-.06,0-.12-.02-.17-.07-.05-.05-.08-.11-.08-.18s.03-.13,.08-.18c.1-.09,.25-.09,.35,0,.05,.05,.07,.11,.07,.18s-.02,.13-.07,.18c-.05,.05-.12,.07-.18,.07Z"
           id="path200" />
        <path
           class="uuid-5b3ec71c-26dd-468e-b1fc-861ad73e2b05"
           d="M46.25,29c-.06,0-.13-.03-.17-.07-.05-.05-.08-.11-.08-.18s.03-.13,.08-.18c.09-.09,.25-.09,.34,0,.06,.06,.08,.12,.08,.18s-.02,.12-.07,.17c-.05,.06-.11,.08-.18,.08Z"
           id="path202" />
        <path
           class="uuid-5b3ec71c-26dd-468e-b1fc-861ad73e2b05"
           d="M55.25,28c-.06,0-.13-.03-.17-.07-.05-.05-.08-.11-.08-.18s.03-.13,.08-.18c.09-.09,.25-.09,.35,0,.05,.05,.07,.12,.07,.18s-.02,.13-.07,.18c-.05,.04-.11,.07-.18,.07Z"
           id="path204" />
        <path
           class="uuid-5b3ec71c-26dd-468e-b1fc-861ad73e2b05"
           d="M51.25,25.25c-.06,0-.12-.02-.17-.07-.05-.05-.08-.11-.08-.18s.03-.13,.08-.18c.09-.09,.25-.09,.35,0,.05,.05,.07,.11,.07,.18s-.03,.13-.07,.18c-.05,.05-.11,.07-.18,.07Z"
           id="path206" />
        <path
           class="uuid-5b3ec71c-26dd-468e-b1fc-861ad73e2b05"
           d="M52,29.5c-.06,0-.13-.03-.17-.07-.05-.05-.08-.11-.08-.18s.03-.13,.08-.18c.09-.09,.25-.09,.35,0,.05,.06,.07,.12,.07,.18s-.02,.12-.07,.17c-.05,.06-.11,.08-.18,.08Z"
           id="path208" />
        <path
           class="uuid-5b3ec71c-26dd-468e-b1fc-861ad73e2b05"
           d="M62.5,35.5c-.06,0-.13-.03-.17-.07-.05-.05-.08-.11-.08-.18s.03-.13,.08-.18c.08-.08,.24-.09,.34,0,.06,.05,.08,.12,.08,.18s-.02,.13-.07,.18c-.05,.05-.12,.07-.18,.07Z"
           id="path210" />
        <path
           class="uuid-5b3ec71c-26dd-468e-b1fc-861ad73e2b05"
           d="M58.25,38.25c-.07,0-.13-.03-.17-.07-.05-.05-.08-.12-.08-.18s.03-.13,.07-.17c.1-.1,.27-.1,.36,0,.05,.06,.07,.12,.07,.18s-.02,.12-.07,.17c-.04,.05-.11,.08-.18,.08Z"
           id="path212" />
        <path
           class="uuid-5b3ec71c-26dd-468e-b1fc-861ad73e2b05"
           d="M49,39c-.07,0-.13-.03-.17-.07-.05-.05-.08-.12-.08-.18s.03-.13,.07-.17c.1-.1,.26-.1,.36,0,.05,.06,.07,.12,.07,.18s-.02,.12-.07,.17c-.05,.05-.11,.08-.18,.08Z"
           id="path214" />
        <path
           class="uuid-5b3ec71c-26dd-468e-b1fc-861ad73e2b05"
           d="M48,41.25c-.06,0-.12-.02-.17-.07-.05-.05-.08-.11-.08-.18s.03-.13,.08-.18c.09-.09,.24-.09,.34,0,.06,.05,.08,.12,.08,.18s-.02,.12-.07,.17c-.06,.06-.11,.08-.18,.08Z"
           id="path216" />
        <path
           class="uuid-5b3ec71c-26dd-468e-b1fc-861ad73e2b05"
           d="M52,43c-.07,0-.13-.03-.18-.08-.04-.04-.07-.1-.07-.17s.03-.13,.08-.18c.09-.09,.25-.09,.35,0,.05,.05,.07,.12,.07,.18s-.02,.13-.07,.18c-.05,.04-.11,.07-.18,.07Z"
           id="path218" />
        <path
           class="uuid-5b3ec71c-26dd-468e-b1fc-861ad73e2b05"
           d="M53.5,45c-.06,0-.13-.03-.17-.07-.05-.05-.08-.11-.08-.18s.03-.13,.08-.18c.08-.09,.25-.09,.35,0,.05,.05,.07,.12,.07,.18s-.02,.13-.07,.18c-.05,.04-.11,.07-.18,.07Z"
           id="path220" />
        <path
           class="uuid-5b3ec71c-26dd-468e-b1fc-861ad73e2b05"
           d="M62.25,48c-.06,0-.13-.03-.17-.07-.05-.05-.08-.12-.08-.18s.03-.13,.07-.17c.1-.1,.26-.1,.36,0,.05,.06,.07,.12,.07,.18s-.02,.12-.07,.17c-.05,.05-.11,.08-.18,.08Z"
           id="path222" />
        <path
           class="uuid-5b3ec71c-26dd-468e-b1fc-861ad73e2b05"
           d="M65,51.75c-.06,0-.12-.03-.17-.07-.05-.05-.08-.11-.08-.18s.03-.14,.08-.18c.09-.08,.25-.09,.35,0,.04,.05,.07,.11,.07,.18s-.02,.13-.07,.18c-.05,.05-.11,.07-.18,.07Z"
           id="path224" />
        <path
           class="uuid-5b3ec71c-26dd-468e-b1fc-861ad73e2b05"
           d="M67,51.75c-.06,0-.13-.03-.17-.07-.05-.05-.08-.11-.08-.18s.03-.13,.08-.18c.08-.08,.25-.09,.35,0,.05,.05,.07,.11,.07,.18s-.02,.13-.07,.18c-.05,.05-.11,.07-.18,.07Z"
           id="path226" />
        <path
           class="uuid-5b3ec71c-26dd-468e-b1fc-861ad73e2b05"
           d="M69.5,45c-.06,0-.12-.03-.17-.07-.05-.05-.08-.11-.08-.18s.03-.13,.08-.18c.09-.09,.25-.09,.35,0,.05,.05,.07,.11,.07,.18s-.02,.13-.07,.18c-.05,.05-.11,.07-.18,.07Z"
           id="path228" />
        <path
           class="uuid-5b3ec71c-26dd-468e-b1fc-861ad73e2b05"
           d="M60,39c-.06,0-.12-.02-.17-.07-.05-.05-.08-.11-.08-.18s.03-.13,.08-.18c.09-.09,.25-.09,.35,0,.04,.05,.07,.11,.07,.18s-.03,.13-.07,.18c-.05,.05-.11,.07-.18,.07Z"
           id="path230" />
        <path
           class="uuid-5b3ec71c-26dd-468e-b1fc-861ad73e2b05"
           d="M47.25,47.75c-.06,0-.13-.03-.17-.07-.05-.05-.08-.11-.08-.18s.03-.14,.08-.18c.08-.08,.25-.09,.35,0,.04,.05,.07,.11,.07,.18s-.02,.13-.07,.18c-.05,.05-.11,.07-.18,.07Z"
           id="path232" />
        <path
           class="uuid-5b3ec71c-26dd-468e-b1fc-861ad73e2b05"
           d="M32.5,47c-.06,0-.12-.03-.17-.07-.05-.05-.08-.11-.08-.18s.03-.13,.08-.18c.09-.09,.26-.09,.35,0,.05,.05,.07,.12,.07,.18s-.02,.13-.07,.18c-.05,.04-.11,.07-.18,.07Z"
           id="path234" />
        <path
           class="uuid-5b3ec71c-26dd-468e-b1fc-861ad73e2b05"
           d="M37,44.5c-.06,0-.12-.03-.17-.07-.05-.05-.08-.12-.08-.18,0-.07,.03-.13,.07-.17,.11-.11,.26-.1,.36,0,.05,.05,.07,.12,.07,.18s-.02,.13-.07,.17c-.05,.05-.11,.08-.18,.08Z"
           id="path236" />
        <path
           class="uuid-5b3ec71c-26dd-468e-b1fc-861ad73e2b05"
           d="M26.25,37.75c-.06,0-.12-.03-.17-.07-.05-.05-.08-.11-.08-.18s.03-.13,.08-.18c.1-.09,.25-.09,.35,0,.05,.05,.07,.12,.07,.18s-.02,.13-.07,.18c-.05,.04-.11,.07-.18,.07Z"
           id="path238" />
        <path
           class="uuid-5b3ec71c-26dd-468e-b1fc-861ad73e2b05"
           d="M29.75,35.5c-.06,0-.12-.02-.17-.07-.05-.05-.08-.11-.08-.18s.03-.13,.08-.18c.1-.09,.25-.09,.35,0,.05,.05,.07,.12,.07,.18s-.02,.12-.07,.17c-.05,.06-.11,.08-.18,.08Z"
           id="path240" />
        <path
           class="uuid-5b3ec71c-26dd-468e-b1fc-861ad73e2b05"
           d="M17,28.5c-.06,0-.12-.02-.17-.07-.05-.05-.08-.11-.08-.18,0-.06,.03-.12,.07-.17,.11-.11,.26-.1,.36,0,.05,.05,.07,.12,.07,.18,0,.07-.02,.13-.07,.18-.05,.05-.11,.07-.18,.07Z"
           id="path242" />
        <path
           class="uuid-5b3ec71c-26dd-468e-b1fc-861ad73e2b05"
           d="M10.5,29.5c-.06,0-.12-.02-.17-.07-.05-.05-.08-.11-.08-.18,0-.06,.03-.12,.07-.17,.11-.11,.26-.1,.36,0,.05,.06,.07,.12,.07,.18s-.02,.13-.07,.18c-.05,.05-.11,.07-.18,.07Z"
           id="path244" />
        <path
           class="uuid-5b3ec71c-26dd-468e-b1fc-861ad73e2b05"
           d="M6,31.5c-.06,0-.12-.02-.17-.07-.05-.05-.08-.11-.08-.18,0-.06,.03-.12,.07-.17,.12-.11,.26-.1,.36,0,.05,.06,.07,.12,.07,.18,0,.07-.02,.13-.07,.18-.05,.05-.11,.07-.18,.07Z"
           id="path246" />
        <path
           class="uuid-5b3ec71c-26dd-468e-b1fc-861ad73e2b05"
           d="M2.5,35.25c-.07,0-.13-.03-.17-.07-.05-.05-.08-.12-.08-.18,0-.07,.03-.13,.08-.18,.08-.09,.24-.09,.34,0,.06,.05,.08,.11,.08,.18,0,.06-.02,.13-.07,.17-.05,.06-.11,.08-.18,.08Z"
           id="path248" />
        <path
           class="uuid-5b3ec71c-26dd-468e-b1fc-861ad73e2b05"
           d="M11.25,36.75c-.07,0-.13-.03-.18-.07-.04-.05-.07-.12-.07-.18,0-.07,.03-.13,.07-.18,.1-.09,.25-.09,.36,0,.05,.05,.07,.11,.07,.18s-.02,.13-.07,.18c-.05,.05-.11,.07-.18,.07Z"
           id="path250" />
        <path
           class="uuid-5b3ec71c-26dd-468e-b1fc-861ad73e2b05"
           d="M17,42c-.06,0-.12-.02-.17-.07-.05-.05-.08-.11-.08-.18,0-.06,.03-.13,.07-.18,.11-.09,.26-.09,.36,0,.05,.05,.07,.11,.07,.18s-.03,.13-.07,.18c-.05,.05-.11,.07-.18,.07Z"
           id="path252" />
        <path
           class="uuid-5b3ec71c-26dd-468e-b1fc-861ad73e2b05"
           d="M12.75,36c-.06,0-.13-.03-.17-.07-.05-.05-.08-.11-.08-.18,0-.06,.03-.13,.07-.17,.1-.1,.26-.1,.36,0,.05,.05,.07,.11,.07,.18s-.02,.13-.07,.18c-.05,.05-.12,.07-.18,.07Z"
           id="path254" />
        <path
           class="uuid-5b3ec71c-26dd-468e-b1fc-861ad73e2b05"
           d="M26.5,30.25c-.06,0-.12-.02-.17-.07-.05-.05-.08-.11-.08-.18s.03-.13,.08-.18c.1-.09,.25-.09,.35,0,.05,.05,.07,.12,.07,.18s-.02,.13-.07,.18c-.05,.05-.11,.07-.18,.07Z"
           id="path256" />
        <path
           class="uuid-5b3ec71c-26dd-468e-b1fc-861ad73e2b05"
           d="M37.75,31c-.06,0-.12-.02-.17-.07-.05-.05-.08-.11-.08-.18s.03-.13,.08-.18c.1-.09,.25-.09,.35,0,.05,.05,.07,.11,.07,.18s-.02,.13-.07,.18c-.05,.05-.12,.07-.18,.07Z"
           id="path258" />
        <path
           class="uuid-5b3ec71c-26dd-468e-b1fc-861ad73e2b05"
           d="M39.5,32.5c-.06,0-.12-.02-.17-.07-.05-.05-.08-.11-.08-.18s.03-.13,.08-.18c.08-.09,.26-.09,.35,0,.05,.04,.07,.11,.07,.17s-.02,.13-.07,.18c-.05,.04-.11,.07-.18,.07Z"
           id="path260" />
        <path
           class="uuid-5b3ec71c-26dd-468e-b1fc-861ad73e2b05"
           d="M28,42c-.06,0-.12-.03-.17-.07-.05-.05-.08-.12-.08-.18s.03-.12,.07-.17c.11-.1,.26-.1,.35,0,.06,.06,.08,.12,.08,.18s-.02,.13-.07,.17c-.05,.06-.11,.08-.18,.08Z"
           id="path262" />
        <path
           class="uuid-5b3ec71c-26dd-468e-b1fc-861ad73e2b05"
           d="M6.5,20.5c-.06,0-.13-.03-.17-.07-.05-.05-.08-.12-.08-.18,0-.07,.03-.13,.07-.18,.1-.09,.26-.09,.36,0,.05,.05,.07,.11,.07,.18,0,.06-.02,.13-.07,.17-.05,.06-.11,.08-.18,.08Z"
           id="path264" />
        <path
           class="uuid-5b3ec71c-26dd-468e-b1fc-861ad73e2b05"
           d="M10.25,20.25c-.06,0-.13-.03-.17-.07-.05-.05-.08-.11-.08-.18s.03-.13,.07-.18c.1-.09,.26-.09,.36,0,.05,.05,.07,.11,.07,.18s-.02,.13-.07,.18c-.05,.05-.11,.07-.18,.07Z"
           id="path266" />
        <path
           class="uuid-5b3ec71c-26dd-468e-b1fc-861ad73e2b05"
           d="M11.75,23.5c-.06,0-.12-.02-.17-.07-.05-.05-.08-.11-.08-.18,0-.06,.03-.12,.07-.17,.11-.11,.26-.1,.36,0,.05,.06,.07,.12,.07,.18s-.02,.13-.07,.18c-.05,.05-.12,.07-.18,.07Z"
           id="path268" />
        <path
           class="uuid-5b3ec71c-26dd-468e-b1fc-861ad73e2b05"
           d="M3,25.75c-.06,0-.13-.03-.17-.07-.05-.05-.08-.11-.08-.18s.03-.13,.07-.18c.1-.09,.26-.09,.36,0,.05,.05,.07,.11,.07,.18s-.02,.13-.07,.18c-.05,.05-.12,.07-.18,.07Z"
           id="path270" />
        <path
           class="uuid-5b3ec71c-26dd-468e-b1fc-861ad73e2b05"
           d="M64.25,29.5c-.06,0-.13-.03-.17-.07-.05-.05-.08-.12-.08-.18s.03-.13,.07-.17c.1-.1,.25-.1,.35,0,.06,.05,.08,.12,.08,.18s-.02,.13-.07,.17c-.05,.06-.11,.08-.18,.08Z"
           id="path272" />
        <path
           class="uuid-5b3ec71c-26dd-468e-b1fc-861ad73e2b05"
           d="M67.5,30.75c-.06,0-.13-.03-.17-.07-.05-.05-.08-.11-.08-.18,0-.06,.03-.13,.07-.17,.1-.1,.26-.1,.36,0,.05,.06,.07,.12,.07,.18s-.02,.13-.07,.18c-.05,.04-.11,.07-.18,.07Z"
           id="path274" />
        <path
           class="uuid-5b3ec71c-26dd-468e-b1fc-861ad73e2b05"
           d="M69.5,29.75c-.06,0-.13-.03-.17-.07-.05-.05-.08-.11-.08-.18s.03-.13,.08-.18c.09-.09,.25-.09,.35,0,.05,.05,.07,.11,.07,.18s-.02,.13-.07,.18c-.05,.04-.11,.07-.18,.07Z"
           id="path276" />
        <path
           class="uuid-5b3ec71c-26dd-468e-b1fc-861ad73e2b05"
           d="M7.25,15.75c-.07,0-.13-.03-.18-.08-.04-.04-.07-.1-.07-.17s.03-.13,.07-.18c.1-.09,.26-.09,.36,0,.04,.05,.07,.11,.07,.18s-.03,.13-.07,.18c-.05,.04-.11,.07-.18,.07Z"
           id="path278" />
        <path
           class="uuid-5b3ec71c-26dd-468e-b1fc-861ad73e2b05"
           d="M1.5,9c-.06,0-.13-.03-.18-.07-.04-.05-.07-.11-.07-.18s.03-.13,.07-.18c.09-.09,.26-.09,.36,0,.05,.05,.07,.12,.07,.18s-.02,.13-.07,.18c-.05,.04-.11,.07-.18,.07Z"
           id="path280" />
        <path
           class="uuid-5b3ec71c-26dd-468e-b1fc-861ad73e2b05"
           d="M14.5,6.5c-.06,0-.12-.02-.17-.07-.05-.05-.08-.11-.08-.18,0-.06,.03-.13,.07-.17,.11-.11,.26-.1,.36,0,.05,.05,.07,.11,.07,.18s-.02,.13-.07,.18c-.05,.05-.11,.07-.18,.07Z"
           id="path282" />
        <path
           class="uuid-5b3ec71c-26dd-468e-b1fc-861ad73e2b05"
           d="M8.5,5.25c-.06,0-.12-.02-.17-.07-.05-.05-.08-.11-.08-.18s.03-.13,.07-.18c.1-.09,.27-.09,.36,0,.05,.04,.07,.1,.07,.17,0,.06-.02,.13-.07,.18-.05,.05-.11,.07-.18,.07Z"
           id="path284" />
        <path
           class="uuid-5b3ec71c-26dd-468e-b1fc-861ad73e2b05"
           d="M3.5,2.5c-.07,0-.13-.03-.18-.08-.04-.04-.07-.1-.07-.17s.03-.13,.08-.18c.08-.09,.25-.09,.35,0,.04,.05,.07,.11,.07,.18s-.03,.13-.07,.18c-.05,.04-.11,.07-.18,.07Z"
           id="path286" />
        <path
           class="uuid-5b3ec71c-26dd-468e-b1fc-861ad73e2b05"
           d="M3.75,6c-.06,0-.13-.03-.17-.07-.05-.05-.08-.11-.08-.18,0-.06,.03-.13,.07-.18,.09-.09,.26-.09,.36,0,.05,.05,.07,.11,.07,.18s-.02,.13-.07,.18c-.05,.05-.12,.07-.18,.07Z"
           id="path288" />
        <path
           class="uuid-5b3ec71c-26dd-468e-b1fc-861ad73e2b05"
           d="M12.75,14.25c-.06,0-.13-.03-.17-.07-.05-.05-.08-.12-.08-.18,0-.07,.03-.13,.07-.18,.1-.09,.26-.09,.36,0,.05,.05,.07,.11,.07,.18,0,.06-.02,.13-.07,.17-.05,.06-.11,.08-.18,.08Z"
           id="path290" />
        <path
           class="uuid-5b3ec71c-26dd-468e-b1fc-861ad73e2b05"
           d="M18.5,19.25c-.06,0-.12-.02-.17-.07-.05-.05-.08-.11-.08-.18,0-.06,.03-.13,.07-.17,.11-.11,.27-.1,.36,0,.05,.06,.07,.12,.07,.18,0,.07-.02,.13-.07,.18-.05,.04-.11,.07-.18,.07Z"
           id="path292" />
        <path
           class="uuid-5b3ec71c-26dd-468e-b1fc-861ad73e2b05"
           d="M21.25,37c-.06,0-.12-.02-.17-.07-.05-.05-.08-.12-.08-.18,0-.07,.03-.13,.07-.18,.11-.09,.26-.09,.36,0,.05,.05,.07,.11,.07,.18,0,.06-.02,.13-.07,.17-.05,.06-.11,.08-.18,.08Z"
           id="path294" />
        <path
           class="uuid-5b3ec71c-26dd-468e-b1fc-861ad73e2b05"
           d="M.75,44.25c-.06,0-.13-.03-.17-.07-.05-.05-.08-.11-.08-.18s.03-.13,.08-.18c.07-.08,.25-.09,.35,0,.04,.04,.07,.1,.07,.17s-.03,.13-.07,.18c-.05,.04-.11,.07-.18,.07Z"
           id="path296" />
        <path
           class="uuid-5b3ec71c-26dd-468e-b1fc-861ad73e2b05"
           d="M66.5,37.25c-.06,0-.13-.03-.17-.07-.05-.05-.08-.11-.08-.18s.03-.13,.08-.18c.09-.09,.25-.09,.35,0,.05,.05,.07,.12,.07,.18s-.02,.13-.07,.18c-.05,.04-.11,.07-.18,.07Z"
           id="path298" />
        <path
           class="uuid-5b3ec71c-26dd-468e-b1fc-861ad73e2b05"
           d="M68,66c-.06,0-.13-.03-.17-.07-.05-.05-.08-.12-.08-.18,0-.07,.03-.13,.07-.18,.1-.09,.26-.09,.36,0,.05,.05,.07,.12,.07,.18s-.02,.12-.07,.17c-.05,.05-.11,.08-.18,.08Z"
           id="path300" />
        <path
           class="uuid-5b3ec71c-26dd-468e-b1fc-861ad73e2b05"
           d="M59.75,69.75c-.07,0-.13-.03-.18-.08-.04-.04-.07-.1-.07-.17s.03-.13,.08-.18c.09-.09,.25-.09,.35,0,.05,.05,.07,.12,.07,.18,0,.07-.02,.13-.07,.18-.05,.04-.11,.07-.18,.07Z"
           id="path302" />
        <path
           class="uuid-5b3ec71c-26dd-468e-b1fc-861ad73e2b05"
           d="M40.5,68c-.06,0-.12-.02-.17-.07-.05-.05-.08-.11-.08-.18s.03-.13,.08-.18c.09-.09,.25-.09,.35,0,.05,.05,.07,.12,.07,.18s-.02,.13-.07,.18c-.05,.05-.12,.07-.18,.07Z"
           id="path304" />
        <path
           class="uuid-5b3ec71c-26dd-468e-b1fc-861ad73e2b05"
           d="M44,63c-.06,0-.12-.02-.17-.07-.05-.04-.08-.11-.08-.18s.03-.13,.08-.18c.09-.09,.25-.09,.35,0,.05,.05,.07,.12,.07,.18,0,.07-.02,.13-.07,.18-.05,.05-.11,.07-.18,.07Z"
           id="path306" />
        <path
           class="uuid-5b3ec71c-26dd-468e-b1fc-861ad73e2b05"
           d="M25.75,70c-.06,0-.12-.02-.17-.07-.05-.05-.08-.11-.08-.18s.03-.13,.08-.18c.09-.09,.25-.09,.35,0,.05,.05,.07,.11,.07,.18,0,.06-.02,.12-.07,.17-.05,.06-.11,.08-.18,.08Z"
           id="path308" />
        <path
           class="uuid-5b3ec71c-26dd-468e-b1fc-861ad73e2b05"
           d="M4.5,60c-.06,0-.12-.02-.17-.07-.05-.05-.08-.11-.08-.18,0-.06,.03-.13,.07-.17,.11-.11,.26-.1,.36,0,.05,.06,.07,.12,.07,.18s-.02,.13-.07,.18c-.05,.05-.12,.07-.18,.07Z"
           id="path310" />
        <path
           class="uuid-5b3ec71c-26dd-468e-b1fc-861ad73e2b05"
           d="M26.5,59.5c-.06,0-.12-.02-.17-.07-.05-.05-.08-.11-.08-.18s.03-.13,.08-.18c.1-.09,.25-.09,.35,0,.05,.05,.07,.11,.07,.18,0,.06-.02,.13-.07,.18-.05,.05-.11,.07-.18,.07Z"
           id="path312" />
        <path
           class="uuid-5b3ec71c-26dd-468e-b1fc-861ad73e2b05"
           d="M37.25,48.5c-.06,0-.12-.03-.17-.07-.05-.05-.08-.11-.08-.18s.03-.13,.08-.18c.09-.09,.24-.09,.34,0,.06,.05,.08,.12,.08,.18s-.02,.13-.07,.18c-.06,.05-.12,.07-.18,.07Z"
           id="path314" />
        <path
           class="uuid-5b3ec71c-26dd-468e-b1fc-861ad73e2b05"
           d="M22,41.75c-.06,0-.12-.02-.17-.07-.05-.05-.08-.11-.08-.18s.03-.13,.08-.18c.1-.09,.25-.09,.35,0,.05,.05,.07,.12,.07,.18s-.02,.13-.07,.18c-.05,.05-.12,.07-.18,.07Z"
           id="path316" />
        <path
           class="uuid-5b3ec71c-26dd-468e-b1fc-861ad73e2b05"
           d="M8.75,40.25c-.06,0-.13-.03-.17-.07-.05-.05-.08-.12-.08-.18,0-.07,.03-.13,.08-.18,.09-.09,.25-.09,.35,0,.04,.05,.07,.11,.07,.18s-.02,.13-.07,.18c-.05,.05-.11,.07-.18,.07Z"
           id="path318" />
        <path
           class="uuid-5b3ec71c-26dd-468e-b1fc-861ad73e2b05"
           d="M24,29c-.06,0-.12-.02-.17-.07-.05-.05-.08-.11-.08-.18s.03-.13,.08-.18c.1-.09,.25-.09,.35,0,.05,.05,.07,.12,.07,.18s-.02,.12-.07,.17c-.05,.06-.11,.08-.18,.08Z"
           id="path320" />
        <path
           class="uuid-5b3ec71c-26dd-468e-b1fc-861ad73e2b05"
           d="M41.5,34.5c-.06,0-.13-.03-.17-.07-.05-.05-.08-.11-.08-.18s.03-.13,.08-.18c.09-.09,.25-.09,.34,0,.06,.06,.08,.12,.08,.18s-.02,.12-.07,.17c-.05,.06-.11,.08-.18,.08Z"
           id="path322" />
        <path
           class="uuid-5b3ec71c-26dd-468e-b1fc-861ad73e2b05"
           d="M51.5,37.5c-.06,0-.13-.03-.17-.07-.05-.05-.08-.11-.08-.18s.03-.13,.08-.18c.09-.09,.25-.09,.35,0,.05,.05,.07,.12,.07,.18s-.02,.13-.07,.17c-.05,.06-.11,.08-.18,.08Z"
           id="path324" />
        <path
           class="uuid-5b3ec71c-26dd-468e-b1fc-861ad73e2b05"
           d="M60.75,46c-.06,0-.12-.03-.17-.07-.05-.05-.08-.11-.08-.18s.03-.14,.08-.18c.09-.09,.25-.09,.35,0,.05,.05,.07,.11,.07,.18s-.02,.13-.07,.18c-.05,.04-.11,.07-.18,.07Z"
           id="path326" />
        <path
           class="uuid-5b3ec71c-26dd-468e-b1fc-861ad73e2b05"
           d="M67.5,43.75c-.06,0-.13-.03-.17-.07-.05-.05-.08-.11-.08-.18s.03-.13,.08-.18c.08-.08,.25-.09,.35,0,.05,.05,.07,.12,.07,.18s-.02,.13-.07,.18c-.05,.04-.11,.07-.18,.07Z"
           id="path328" />
        <path
           class="uuid-5b3ec71c-26dd-468e-b1fc-861ad73e2b05"
           d="M51.25,66.25c-.06,0-.12-.02-.17-.07-.05-.05-.08-.11-.08-.18s.03-.13,.08-.18c.09-.09,.25-.09,.35,0,.05,.05,.07,.11,.07,.18s-.03,.13-.07,.18c-.05,.05-.11,.07-.18,.07Z"
           id="path330" />
        <path
           class="uuid-5b3ec71c-26dd-468e-b1fc-861ad73e2b05"
           d="M40,37.75c-.06,0-.13-.03-.17-.07-.05-.05-.08-.11-.08-.18s.03-.13,.08-.18c.09-.09,.26-.09,.35,0,.05,.05,.07,.12,.07,.18s-.02,.12-.07,.17c-.05,.05-.11,.08-.18,.08Z"
           id="path332" />
        <path
           class="uuid-5b3ec71c-26dd-468e-b1fc-861ad73e2b05"
           d="M53.25,15c-.06,0-.13-.03-.17-.07-.05-.05-.08-.11-.08-.18s.03-.13,.08-.18c.07-.08,.26-.09,.35,0,.05,.04,.07,.11,.07,.17s-.02,.13-.07,.18c-.05,.04-.11,.07-.18,.07Z"
           id="path334" />
        <path
           class="uuid-5b3ec71c-26dd-468e-b1fc-861ad73e2b05"
           d="M34,16c-.07,0-.13-.03-.18-.08-.04-.04-.07-.1-.07-.17s.03-.14,.08-.18c.09-.09,.26-.09,.35,0,.05,.05,.07,.11,.07,.18,0,.06-.02,.13-.07,.18-.05,.04-.11,.07-.18,.07Z"
           id="path336" />
        <path
           class="uuid-5b3ec71c-26dd-468e-b1fc-861ad73e2b05"
           d="M27.5,13.5c-.06,0-.12-.02-.17-.07-.05-.05-.08-.11-.08-.18s.03-.13,.07-.17c.11-.11,.26-.1,.36,0,.05,.05,.07,.12,.07,.18,0,.07-.02,.13-.07,.18-.05,.05-.11,.07-.18,.07Z"
           id="path338" />
        <path
           class="uuid-5b3ec71c-26dd-468e-b1fc-861ad73e2b05"
           d="M12.75,19.25c-.06,0-.13-.03-.17-.07-.05-.05-.08-.11-.08-.18,0-.06,.03-.12,.07-.17,.1-.1,.26-.1,.36,0,.05,.05,.07,.12,.07,.18,0,.07-.02,.13-.07,.18-.05,.05-.11,.07-.18,.07Z"
           id="path340" />
        <path
           class="uuid-5b3ec71c-26dd-468e-b1fc-861ad73e2b05"
           d="M19.75,26.5c-.06,0-.12-.02-.17-.07-.05-.05-.08-.11-.08-.18,0-.06,.03-.12,.07-.17,.11-.11,.26-.1,.36,0,.05,.05,.07,.12,.07,.18,0,.07-.02,.13-.07,.18-.05,.05-.12,.07-.18,.07Z"
           id="path342" />
        <path
           class="uuid-5b3ec71c-26dd-468e-b1fc-861ad73e2b05"
           d="M49.5,4.5c-.06,0-.13-.03-.17-.07-.05-.04-.08-.11-.08-.18s.03-.14,.08-.18c.08-.08,.25-.09,.35,0,.05,.05,.07,.12,.07,.18s-.02,.13-.07,.18c-.05,.04-.11,.07-.18,.07Z"
           id="path344" />
        <path
           class="uuid-5b3ec71c-26dd-468e-b1fc-861ad73e2b05"
           d="M11.75,1.75c-.06,0-.12-.02-.17-.07-.05-.05-.08-.11-.08-.18,0-.06,.03-.13,.07-.18,.1-.09,.27-.09,.36,0,.05,.05,.07,.12,.07,.18s-.02,.13-.07,.18c-.05,.05-.11,.07-.18,.07Z"
           id="path346" />
        <path
           class="uuid-5b3ec71c-26dd-468e-b1fc-861ad73e2b05"
           d="M55.25,3.75c-.06,0-.13-.03-.17-.07-.05-.05-.08-.11-.08-.18s.03-.13,.08-.18c.08-.09,.25-.09,.35,0,.05,.05,.07,.12,.07,.18s-.02,.13-.07,.18c-.05,.04-.11,.07-.18,.07Z"
           id="path348" />
        <path
           class="uuid-5b3ec71c-26dd-468e-b1fc-861ad73e2b05"
           d="M59,20.75c-.06,0-.13-.03-.17-.07-.05-.05-.08-.11-.08-.18s.03-.13,.08-.18c.08-.09,.25-.09,.35,0,.05,.06,.07,.12,.07,.18s-.02,.12-.07,.17c-.05,.06-.11,.08-.18,.08Z"
           id="path350" />
        <path
           class="uuid-5b3ec71c-26dd-468e-b1fc-861ad73e2b05"
           d="M67.5,57.25c-.06,0-.13-.03-.17-.07-.05-.05-.08-.12-.08-.18,0-.07,.03-.13,.08-.18,.09-.09,.25-.09,.35,0,.05,.05,.07,.12,.07,.18s-.02,.12-.07,.17c-.05,.05-.11,.08-.18,.08Z"
           id="path352" />
        <path
           class="uuid-5b3ec71c-26dd-468e-b1fc-861ad73e2b05"
           d="M47.25,69.75c-.06,0-.13-.03-.17-.07-.05-.04-.08-.11-.08-.18s.03-.14,.08-.18c.08-.08,.25-.09,.35,0,.04,.05,.07,.11,.07,.18s-.03,.13-.07,.18c-.05,.05-.11,.07-.18,.07Z"
           id="path354" />
        <path
           class="uuid-5b3ec71c-26dd-468e-b1fc-861ad73e2b05"
           d="M5.25,69.75c-.06,0-.13-.03-.17-.07-.05-.05-.08-.11-.08-.18,0-.06,.03-.12,.07-.17,.1-.1,.26-.1,.36,0,.05,.05,.07,.12,.07,.18,0,.07-.02,.13-.07,.18s-.12,.07-.18,.07Z"
           id="path356" />
        <path
           class="uuid-5b3ec71c-26dd-468e-b1fc-861ad73e2b05"
           d="M4.75,40.25c-.06,0-.13-.03-.18-.07-.04-.05-.07-.11-.07-.18s.03-.13,.07-.18c.09-.09,.26-.09,.36,0,.05,.05,.07,.12,.07,.18s-.02,.13-.07,.18c-.05,.04-.11,.07-.18,.07Z"
           id="path358" />
        <path
           class="uuid-5b3ec71c-26dd-468e-b1fc-861ad73e2b05"
           d="M69.75,12.75c-.07,0-.13-.03-.17-.07-.05-.05-.08-.11-.08-.18s.03-.13,.08-.18c.09-.09,.25-.09,.35,0,.05,.05,.07,.12,.07,.18s-.02,.13-.07,.18c-.05,.04-.11,.07-.18,.07Z"
           id="path360" />
        <path
           class="uuid-5b3ec71c-26dd-468e-b1fc-861ad73e2b05"
           d="M23.25,14c-.06,0-.12-.02-.17-.07-.05-.05-.08-.11-.08-.18s.03-.13,.07-.17c.11-.11,.26-.1,.36,0,.05,.06,.07,.12,.07,.18s-.02,.13-.07,.18c-.05,.05-.11,.07-.18,.07Z"
           id="path362" />
        <path
           class="uuid-5b3ec71c-26dd-468e-b1fc-861ad73e2b05"
           d="M20.5,17.25c-.06,0-.13-.03-.17-.07-.05-.04-.08-.11-.08-.18s.03-.14,.08-.18c.07-.08,.26-.09,.35,0,.05,.04,.07,.11,.07,.17s-.02,.13-.07,.18c-.05,.04-.11,.07-.18,.07Z"
           id="path364" />
        <path
           class="uuid-5b3ec71c-26dd-468e-b1fc-861ad73e2b05"
           d="M14.75,17.25c-.06,0-.12-.02-.17-.07-.05-.05-.08-.11-.08-.18,0-.06,.03-.13,.07-.18,.11-.09,.26-.09,.36,0,.05,.05,.07,.12,.07,.18s-.02,.13-.07,.18c-.05,.05-.11,.07-.18,.07Z"
           id="path366" />
        <path
           class="uuid-5b3ec71c-26dd-468e-b1fc-861ad73e2b05"
           d="M2.75,13.25c-.07,0-.13-.03-.17-.07-.05-.05-.08-.12-.08-.18,0-.07,.03-.13,.08-.18,.09-.09,.25-.09,.35,0,.04,.05,.07,.11,.07,.18s-.02,.13-.07,.18c-.05,.04-.11,.07-.18,.07Z"
           id="path368" />
        <path
           class="uuid-5b3ec71c-26dd-468e-b1fc-861ad73e2b05"
           d="M6,11.75c-.06,0-.12-.02-.17-.07-.05-.05-.08-.12-.08-.18,0-.07,.03-.13,.07-.18,.12-.1,.26-.09,.36,0,.05,.05,.07,.11,.07,.18,0,.06-.02,.12-.07,.17-.05,.06-.11,.08-.18,.08Z"
           id="path370" />
        <path
           class="uuid-5b3ec71c-26dd-468e-b1fc-861ad73e2b05"
           d="M7,2.75c-.06,0-.12-.02-.17-.07-.05-.05-.08-.12-.08-.18,0-.07,.03-.13,.07-.18,.11-.09,.26-.09,.36,0,.05,.05,.07,.12,.07,.18s-.02,.12-.07,.17c-.05,.06-.11,.08-.18,.08Z"
           id="path372" />
        <path
           class="uuid-5b3ec71c-26dd-468e-b1fc-861ad73e2b05"
           d="M10,8.25c-.07,0-.13-.03-.18-.07-.04-.05-.07-.12-.07-.18,0-.07,.03-.13,.07-.18,.09-.09,.26-.09,.36,0,.05,.05,.07,.11,.07,.18,0,.06-.02,.13-.07,.17-.05,.06-.11,.08-.18,.08Z"
           id="path374" />
        <path
           class="uuid-5b3ec71c-26dd-468e-b1fc-861ad73e2b05"
           d="M16,8.25c-.06,0-.13-.03-.18-.07-.04-.05-.07-.11-.07-.18s.03-.13,.08-.18c.1-.09,.25-.09,.35,0,.05,.05,.07,.12,.07,.18s-.02,.13-.07,.18c-.05,.04-.11,.07-.18,.07Z"
           id="path376" />
        <path
           class="uuid-5b3ec71c-26dd-468e-b1fc-861ad73e2b05"
           d="M16.5,3.25c-.06,0-.12-.02-.17-.07-.05-.05-.08-.11-.08-.18s.03-.13,.07-.18c.11-.1,.26-.09,.36,0,.05,.05,.07,.11,.07,.18s-.02,.13-.07,.18c-.05,.05-.12,.07-.18,.07Z"
           id="path378" />
        <path
           class="uuid-5b3ec71c-26dd-468e-b1fc-861ad73e2b05"
           d="M25.75,7c-.06,0-.12-.02-.17-.07-.05-.05-.08-.11-.08-.18s.03-.13,.08-.18c.1-.09,.25-.09,.35,0,.05,.05,.07,.12,.07,.18s-.02,.13-.07,.18c-.05,.05-.11,.07-.18,.07Z"
           id="path380" />
        <path
           class="uuid-5b3ec71c-26dd-468e-b1fc-861ad73e2b05"
           d="M37,7.5c-.06,0-.12-.02-.17-.07-.05-.05-.08-.11-.08-.18s.03-.13,.08-.18c.09-.09,.26-.09,.35,0,.05,.05,.07,.11,.07,.18s-.02,.13-.07,.18c-.05,.05-.12,.07-.18,.07Z"
           id="path382" />
        <path
           class="uuid-5b3ec71c-26dd-468e-b1fc-861ad73e2b05"
           d="M40.5,4.5c-.06,0-.13-.03-.17-.07-.05-.04-.08-.11-.08-.18s.03-.13,.08-.18c.09-.09,.25-.09,.35,0,.05,.06,.07,.12,.07,.18,0,.07-.02,.13-.07,.18-.05,.04-.11,.07-.18,.07Z"
           id="path384" />
        <path
           class="uuid-5b3ec71c-26dd-468e-b1fc-861ad73e2b05"
           d="M37.5,4.25c-.06,0-.13-.03-.17-.07-.05-.04-.08-.11-.08-.18s.03-.13,.08-.18c.08-.09,.25-.09,.35,0,.05,.06,.07,.12,.07,.18s-.02,.13-.07,.18c-.05,.05-.11,.07-.18,.07Z"
           id="path386" />
        <path
           class="uuid-5b3ec71c-26dd-468e-b1fc-861ad73e2b05"
           d="M43.25,2.25c-.07,0-.13-.03-.18-.08-.04-.04-.07-.1-.07-.17s.03-.13,.08-.18c.09-.09,.25-.09,.35,0,.05,.05,.07,.12,.07,.18s-.02,.13-.07,.18c-.05,.04-.11,.07-.18,.07Z"
           id="path388" />
        <path
           class="uuid-5b3ec71c-26dd-468e-b1fc-861ad73e2b05"
           d="M49.5,8.25c-.06,0-.13-.03-.17-.07-.05-.04-.08-.11-.08-.18s.03-.14,.08-.18c.08-.09,.25-.09,.35,0,.05,.05,.07,.12,.07,.18s-.02,.13-.07,.18c-.05,.04-.11,.07-.18,.07Z"
           id="path390" />
        <path
           class="uuid-5b3ec71c-26dd-468e-b1fc-861ad73e2b05"
           d="M46,9.25c-.06,0-.13-.03-.17-.07-.05-.05-.08-.11-.08-.18s.03-.13,.08-.18c.08-.08,.25-.09,.35,0,.05,.05,.07,.12,.07,.18s-.02,.13-.07,.18c-.05,.04-.11,.07-.18,.07Z"
           id="path392" />
        <path
           class="uuid-5b3ec71c-26dd-468e-b1fc-861ad73e2b05"
           d="M35.75,11c-.06,0-.13-.03-.17-.07-.05-.05-.08-.11-.08-.18s.03-.13,.08-.18c.09-.09,.25-.09,.35,0,.05,.05,.07,.12,.07,.18s-.02,.13-.07,.18c-.05,.04-.11,.07-.18,.07Z"
           id="path394" />
        <path
           class="uuid-5b3ec71c-26dd-468e-b1fc-861ad73e2b05"
           d="M39.25,15c-.06,0-.12-.02-.17-.07-.05-.05-.08-.11-.08-.18s.03-.13,.08-.18c.09-.09,.25-.09,.35,0,.05,.06,.07,.12,.07,.18s-.02,.13-.07,.18c-.05,.05-.11,.07-.18,.07Z"
           id="path396" />
        <path
           class="uuid-5b3ec71c-26dd-468e-b1fc-861ad73e2b05"
           d="M24.75,18c-.06,0-.12-.02-.17-.07-.05-.05-.08-.11-.08-.18s.03-.13,.07-.18c.1-.09,.27-.09,.36,0,.05,.05,.07,.11,.07,.18s-.02,.13-.07,.18c-.05,.05-.11,.07-.18,.07Z"
           id="path398" />
        <path
           class="uuid-5b3ec71c-26dd-468e-b1fc-861ad73e2b05"
           d="M8.25,27.25c-.06,0-.12-.02-.17-.07-.05-.05-.08-.11-.08-.18s.03-.13,.07-.18c.12-.1,.26-.09,.36,0,.05,.05,.07,.12,.07,.18,0,.07-.02,.13-.07,.18-.05,.04-.11,.07-.18,.07Z"
           id="path400" />
        <path
           class="uuid-5b3ec71c-26dd-468e-b1fc-861ad73e2b05"
           d="M16,31.75c-.06,0-.13-.03-.18-.07-.04-.05-.07-.11-.07-.18s.03-.13,.08-.18c.1-.09,.25-.09,.35,0,.05,.05,.07,.12,.07,.18s-.02,.13-.07,.18c-.05,.04-.11,.07-.18,.07Z"
           id="path402" />
        <path
           class="uuid-5b3ec71c-26dd-468e-b1fc-861ad73e2b05"
           d="M10.5,33.5c-.06,0-.12-.02-.17-.07-.05-.05-.08-.12-.08-.18,0-.07,.03-.13,.07-.18,.11-.1,.26-.09,.36,0,.05,.05,.07,.12,.07,.18s-.02,.12-.07,.17c-.05,.06-.11,.08-.18,.08Z"
           id="path404" />
        <path
           class="uuid-5b3ec71c-26dd-468e-b1fc-861ad73e2b05"
           d="M5.25,37c-.06,0-.13-.03-.17-.07-.05-.05-.08-.11-.08-.18,0-.06,.03-.12,.07-.17,.1-.1,.26-.1,.36,0,.05,.05,.07,.12,.07,.18,0,.07-.02,.13-.07,.18-.05,.05-.12,.07-.18,.07Z"
           id="path406" />
        <path
           class="uuid-5b3ec71c-26dd-468e-b1fc-861ad73e2b05"
           d="M2.75,32c-.06,0-.13-.03-.17-.07-.05-.05-.08-.12-.08-.18,0-.07,.03-.13,.08-.18,.09-.09,.25-.09,.35,0,.04,.05,.07,.11,.07,.18s-.02,.13-.07,.18c-.05,.04-.11,.07-.18,.07Z"
           id="path408" />
        <path
           class="uuid-5b3ec71c-26dd-468e-b1fc-861ad73e2b05"
           d="M7.5,25c-.07,0-.13-.03-.18-.07-.04-.05-.07-.11-.07-.18s.03-.13,.07-.18c.11-.09,.25-.09,.35,0,.06,.05,.08,.12,.08,.18s-.02,.13-.07,.18c-.05,.04-.11,.07-.18,.07Z"
           id="path410" />
        <path
           class="uuid-5b3ec71c-26dd-468e-b1fc-861ad73e2b05"
           d="M3.25,20.5c-.06,0-.13-.03-.17-.07-.05-.05-.08-.11-.08-.18,0-.06,.03-.13,.07-.17,.1-.1,.26-.1,.36,0,.05,.05,.07,.12,.07,.18,0,.07-.02,.13-.07,.18-.05,.05-.12,.07-.18,.07Z"
           id="path412" />
        <path
           class="uuid-5b3ec71c-26dd-468e-b1fc-861ad73e2b05"
           d="M20.5,30.75c-.06,0-.13-.03-.17-.07-.05-.05-.08-.11-.08-.18s.03-.13,.08-.18c.09-.09,.25-.09,.35,0,.05,.06,.07,.12,.07,.18s-.02,.12-.07,.17c-.05,.05-.11,.08-.18,.08Z"
           id="path414" />
        <path
           class="uuid-5b3ec71c-26dd-468e-b1fc-861ad73e2b05"
           d="M17.5,35.5c-.06,0-.12-.03-.17-.07-.05-.06-.08-.12-.08-.18,0-.07,.03-.13,.07-.18,.11-.09,.26-.09,.36,0,.05,.05,.07,.11,.07,.18,0,.06-.02,.13-.07,.17-.05,.05-.11,.08-.18,.08Z"
           id="path416" />
        <path
           class="uuid-5b3ec71c-26dd-468e-b1fc-861ad73e2b05"
           d="M16,39c-.06,0-.12-.02-.17-.07-.05-.05-.08-.11-.08-.18s.03-.13,.08-.18c.09-.09,.25-.09,.35,0,.05,.05,.07,.12,.07,.18s-.02,.13-.07,.18c-.05,.05-.12,.07-.18,.07Z"
           id="path418" />
        <path
           class="uuid-5b3ec71c-26dd-468e-b1fc-861ad73e2b05"
           d="M12.75,41.25c-.06,0-.13-.03-.17-.07-.05-.05-.08-.11-.08-.18,0-.06,.03-.13,.07-.18,.1-.09,.26-.09,.36,0,.05,.05,.07,.11,.07,.18s-.02,.13-.07,.18c-.05,.04-.11,.07-.18,.07Z"
           id="path420" />
        <path
           class="uuid-5b3ec71c-26dd-468e-b1fc-861ad73e2b05"
           d="M12.75,46.5c-.07,0-.13-.03-.17-.07-.05-.05-.08-.12-.08-.18,0-.07,.03-.13,.07-.18,.1-.09,.26-.09,.36,0,.05,.05,.07,.11,.07,.18s-.02,.13-.07,.18c-.05,.05-.11,.07-.18,.07Z"
           id="path422" />
        <path
           class="uuid-5b3ec71c-26dd-468e-b1fc-861ad73e2b05"
           d="M4,46.75c-.06,0-.13-.03-.17-.07-.05-.05-.08-.11-.08-.18,0-.06,.03-.13,.07-.18,.1-.09,.26-.09,.35,0,.06,.05,.08,.12,.08,.18,0,.07-.02,.13-.07,.18-.05,.05-.12,.07-.18,.07Z"
           id="path424" />
        <path
           class="uuid-5b3ec71c-26dd-468e-b1fc-861ad73e2b05"
           d="M5.75,48.5c-.07,0-.13-.03-.18-.08-.04-.04-.07-.1-.07-.17s.03-.13,.07-.18c.1-.09,.26-.09,.36,0,.05,.05,.07,.11,.07,.18s-.02,.13-.07,.18c-.05,.04-.11,.07-.18,.07Z"
           id="path426" />
        <path
           class="uuid-5b3ec71c-26dd-468e-b1fc-861ad73e2b05"
           d="M11,50.5c-.06,0-.12-.02-.17-.07-.05-.05-.08-.11-.08-.18,0-.06,.03-.13,.07-.17,.11-.11,.26-.1,.36,0,.05,.06,.07,.12,.07,.18s-.02,.13-.07,.18c-.05,.05-.12,.07-.18,.07Z"
           id="path428" />
        <path
           class="uuid-5b3ec71c-26dd-468e-b1fc-861ad73e2b05"
           d="M11,54.5c-.06,0-.13-.03-.18-.07-.04-.05-.07-.11-.07-.18s.03-.13,.07-.18c.11-.09,.26-.09,.36,0,.05,.05,.07,.12,.07,.18s-.02,.13-.07,.18c-.05,.04-.11,.07-.18,.07Z"
           id="path430" />
        <path
           class="uuid-5b3ec71c-26dd-468e-b1fc-861ad73e2b05"
           d="M15.5,58.5c-.06,0-.12-.03-.17-.07-.05-.05-.08-.11-.08-.18s.03-.13,.07-.18c.11-.09,.26-.09,.36,0,.05,.05,.07,.12,.07,.18s-.02,.13-.07,.18c-.05,.04-.11,.07-.18,.07Z"
           id="path432" />
        <path
           class="uuid-5b3ec71c-26dd-468e-b1fc-861ad73e2b05"
           d="M10,59.75c-.07,0-.13-.03-.18-.07-.04-.05-.07-.12-.07-.18,0-.07,.03-.13,.07-.18,.1-.09,.25-.09,.36,0,.05,.05,.07,.11,.07,.18,0,.06-.02,.13-.07,.18-.05,.05-.11,.07-.18,.07Z"
           id="path434" />
        <path
           class="uuid-5b3ec71c-26dd-468e-b1fc-861ad73e2b05"
           d="M6,63.5c-.06,0-.12-.02-.17-.07-.05-.05-.08-.12-.08-.18,0-.07,.03-.13,.07-.18,.12-.1,.26-.09,.36,0,.05,.05,.07,.11,.07,.18,0,.06-.02,.12-.07,.17-.05,.06-.11,.08-.18,.08Z"
           id="path436" />
        <path
           class="uuid-5b3ec71c-26dd-468e-b1fc-861ad73e2b05"
           d="M2.25,62c-.06,0-.12-.02-.17-.07-.05-.05-.08-.11-.08-.18s.03-.13,.07-.18c.11-.09,.25-.09,.35,0,.06,.05,.08,.12,.08,.18s-.02,.13-.07,.18c-.06,.05-.12,.07-.18,.07Z"
           id="path438" />
        <path
           class="uuid-5b3ec71c-26dd-468e-b1fc-861ad73e2b05"
           d="M7.25,67.75c-.06,0-.13-.03-.17-.07-.05-.05-.08-.12-.08-.18,0-.07,.03-.13,.07-.18,.1-.09,.26-.09,.36,0,.04,.05,.07,.11,.07,.18s-.02,.13-.07,.17c-.05,.06-.11,.08-.18,.08Z"
           id="path440" />
        <path
           class="uuid-5b3ec71c-26dd-468e-b1fc-861ad73e2b05"
           d="M13.5,69.5c-.06,0-.12-.02-.17-.07-.05-.05-.08-.12-.08-.18,0-.07,.03-.13,.07-.18,.11-.09,.26-.09,.36,0,.05,.05,.07,.12,.07,.18s-.02,.12-.07,.17c-.05,.06-.11,.08-.18,.08Z"
           id="path442" />
        <path
           class="uuid-5b3ec71c-26dd-468e-b1fc-861ad73e2b05"
           d="M13.5,65.75c-.06,0-.12-.02-.17-.07-.05-.05-.08-.11-.08-.18,0-.06,.03-.13,.07-.17,.11-.11,.26-.1,.36,0,.05,.06,.07,.12,.07,.18s-.02,.13-.07,.18c-.05,.05-.11,.07-.18,.07Z"
           id="path444" />
        <path
           class="uuid-5b3ec71c-26dd-468e-b1fc-861ad73e2b05"
           d="M21.5,68.5c-.06,0-.12-.02-.17-.07-.05-.05-.08-.11-.08-.18s.03-.13,.08-.18c.09-.09,.25-.09,.35,0,.05,.05,.07,.12,.07,.18s-.02,.12-.07,.17c-.05,.06-.11,.08-.18,.08Z"
           id="path446" />
        <path
           class="uuid-5b3ec71c-26dd-468e-b1fc-861ad73e2b05"
           d="M23,65.75c-.06,0-.12-.02-.17-.07-.05-.05-.08-.11-.08-.18,0-.06,.03-.12,.07-.17,.11-.11,.26-.1,.36,0,.05,.05,.07,.12,.07,.18,0,.07-.02,.13-.07,.18-.05,.05-.11,.07-.18,.07Z"
           id="path448" />
        <path
           class="uuid-5b3ec71c-26dd-468e-b1fc-861ad73e2b05"
           d="M22.25,60c-.06,0-.12-.02-.17-.07-.05-.05-.08-.11-.08-.18,0-.06,.03-.12,.07-.17,.11-.11,.26-.1,.36,0,.05,.05,.07,.12,.07,.18,0,.07-.02,.13-.07,.18-.05,.05-.12,.07-.18,.07Z"
           id="path450" />
        <path
           class="uuid-5b3ec71c-26dd-468e-b1fc-861ad73e2b05"
           d="M24.25,57.5c-.06,0-.12-.02-.17-.07-.05-.05-.08-.11-.08-.18s.03-.13,.08-.18c.1-.09,.25-.09,.35,0,.05,.05,.07,.12,.07,.18s-.02,.13-.07,.18c-.05,.05-.11,.07-.18,.07Z"
           id="path452" />
        <path
           class="uuid-5b3ec71c-26dd-468e-b1fc-861ad73e2b05"
           d="M22,53.25c-.06,0-.12-.02-.17-.07-.05-.05-.08-.11-.08-.18s.03-.13,.07-.17c.11-.11,.26-.1,.36,0,.05,.06,.07,.12,.07,.18s-.02,.13-.07,.18c-.05,.05-.11,.07-.18,.07Z"
           id="path454" />
        <path
           class="uuid-5b3ec71c-26dd-468e-b1fc-861ad73e2b05"
           d="M26.25,47.75c-.06,0-.12-.02-.17-.07-.05-.05-.08-.11-.08-.18s.03-.13,.08-.18c.09-.09,.25-.09,.35,0,.05,.05,.07,.12,.07,.18s-.02,.13-.07,.18c-.05,.05-.11,.07-.18,.07Z"
           id="path456" />
        <path
           class="uuid-5b3ec71c-26dd-468e-b1fc-861ad73e2b05"
           d="M25.75,43.5c-.06,0-.12-.02-.17-.07-.05-.05-.08-.11-.08-.18s.03-.13,.07-.18c.11-.09,.26-.09,.36,0,.05,.06,.07,.12,.07,.18,0,.07-.02,.13-.07,.18-.05,.05-.11,.07-.18,.07Z"
           id="path458" />
        <path
           class="uuid-5b3ec71c-26dd-468e-b1fc-861ad73e2b05"
           d="M31.25,37.5c-.06,0-.12-.03-.17-.07-.05-.05-.08-.12-.08-.18s.03-.13,.07-.17c.11-.11,.26-.1,.36,0,.05,.06,.07,.12,.07,.18s-.02,.12-.07,.17c-.05,.05-.11,.08-.18,.08Z"
           id="path460" />
        <path
           class="uuid-5b3ec71c-26dd-468e-b1fc-861ad73e2b05"
           d="M32.25,31c-.06,0-.12-.02-.17-.07-.05-.05-.08-.11-.08-.18,0-.06,.03-.12,.07-.17,.11-.11,.26-.1,.36,0,.05,.05,.07,.12,.07,.18,0,.07-.03,.13-.07,.18-.05,.05-.11,.07-.18,.07Z"
           id="path462" />
        <path
           class="uuid-5b3ec71c-26dd-468e-b1fc-861ad73e2b05"
           d="M26,34c-.06,0-.12-.02-.17-.07-.05-.05-.08-.11-.08-.18s.03-.13,.08-.18c.1-.09,.25-.09,.35,0,.05,.05,.07,.12,.07,.18s-.02,.13-.07,.18c-.05,.05-.11,.07-.18,.07Z"
           id="path464" />
        <path
           class="uuid-5b3ec71c-26dd-468e-b1fc-861ad73e2b05"
           d="M34.25,27.75c-.06,0-.13-.03-.17-.07-.05-.05-.08-.11-.08-.18s.03-.13,.08-.18c.09-.09,.25-.09,.35,0,.05,.06,.07,.12,.07,.18s-.02,.13-.07,.18c-.05,.04-.11,.07-.18,.07Z"
           id="path466" />
        <path
           class="uuid-5b3ec71c-26dd-468e-b1fc-861ad73e2b05"
           d="M37.25,28.5c-.06,0-.13-.03-.17-.07-.05-.05-.08-.11-.08-.18s.03-.13,.08-.18c.09-.09,.25-.09,.34,0,.06,.05,.08,.12,.08,.18s-.02,.12-.07,.17c-.05,.06-.11,.08-.18,.08Z"
           id="path468" />
        <path
           class="uuid-5b3ec71c-26dd-468e-b1fc-861ad73e2b05"
           d="M41.75,25.75c-.06,0-.12-.03-.17-.07-.05-.05-.08-.11-.08-.18s.03-.13,.08-.18c.09-.09,.26-.09,.35,0,.05,.06,.07,.12,.07,.18s-.02,.12-.07,.17c-.05,.05-.11,.08-.18,.08Z"
           id="path470" />
        <path
           class="uuid-5b3ec71c-26dd-468e-b1fc-861ad73e2b05"
           d="M43,20.75c-.06,0-.12-.02-.17-.07-.05-.05-.08-.11-.08-.18s.03-.13,.08-.18c.09-.09,.25-.09,.35,0,.05,.05,.07,.12,.07,.18s-.02,.13-.07,.18c-.05,.05-.12,.07-.18,.07Z"
           id="path472" />
        <path
           class="uuid-5b3ec71c-26dd-468e-b1fc-861ad73e2b05"
           d="M36.5,19.25c-.06,0-.13-.03-.17-.07-.05-.04-.08-.11-.08-.18s.03-.14,.08-.18c.08-.08,.25-.09,.35,0,.05,.05,.07,.12,.07,.18s-.02,.13-.07,.18c-.05,.05-.11,.07-.18,.07Z"
           id="path474" />
        <path
           class="uuid-5b3ec71c-26dd-468e-b1fc-861ad73e2b05"
           d="M27.75,22.25c-.06,0-.12-.03-.17-.07-.05-.05-.08-.12-.08-.18s.03-.13,.07-.17c.11-.11,.26-.1,.36,0,.05,.05,.07,.11,.07,.18s-.02,.13-.07,.18c-.05,.04-.11,.07-.18,.07Z"
           id="path476" />
        <path
           class="uuid-5b3ec71c-26dd-468e-b1fc-861ad73e2b05"
           d="M52,22c-.06,0-.13-.03-.17-.07-.05-.05-.08-.11-.08-.18s.03-.13,.08-.18c.09-.09,.25-.09,.35,0,.05,.06,.07,.12,.07,.18s-.02,.12-.07,.17c-.05,.05-.11,.08-.18,.08Z"
           id="path478" />
        <path
           class="uuid-5b3ec71c-26dd-468e-b1fc-861ad73e2b05"
           d="M43.25,17.75c-.06,0-.13-.03-.17-.07-.05-.05-.08-.11-.08-.18,0-.06,.03-.13,.07-.18,.11-.09,.26-.09,.36,0,.05,.06,.07,.12,.07,.18s-.02,.12-.07,.17c-.05,.06-.11,.08-.18,.08Z"
           id="path480" />
        <path
           class="uuid-5b3ec71c-26dd-468e-b1fc-861ad73e2b05"
           d="M50.5,18c-.06,0-.13-.03-.17-.07-.05-.05-.08-.11-.08-.18s.03-.13,.08-.18c.08-.09,.25-.09,.35,0,.05,.06,.07,.12,.07,.18s-.02,.12-.07,.17c-.05,.05-.11,.08-.18,.08Z"
           id="path482" />
        <path
           class="uuid-5b3ec71c-26dd-468e-b1fc-861ad73e2b05"
           d="M59.5,17.25c-.06,0-.13-.03-.17-.07-.05-.05-.08-.11-.08-.18s.03-.13,.08-.18c.08-.09,.25-.09,.35,0,.05,.05,.07,.12,.07,.18s-.02,.13-.07,.18c-.05,.04-.11,.07-.18,.07Z"
           id="path484" />
        <path
           class="uuid-5b3ec71c-26dd-468e-b1fc-861ad73e2b05"
           d="M58.25,14c-.06,0-.13-.03-.17-.07-.05-.05-.08-.11-.08-.18s.03-.13,.08-.18c.08-.09,.26-.09,.35,0,.05,.05,.07,.11,.07,.18,0,.06-.02,.13-.07,.18-.05,.04-.11,.07-.18,.07Z"
           id="path486" />
        <path
           class="uuid-5b3ec71c-26dd-468e-b1fc-861ad73e2b05"
           d="M61.5,11c-.06,0-.12-.02-.17-.07-.05-.05-.08-.11-.08-.18s.03-.14,.08-.18c.09-.09,.25-.09,.35,0,.04,.05,.07,.11,.07,.18s-.03,.13-.07,.18c-.05,.05-.11,.07-.18,.07Z"
           id="path488" />
        <path
           class="uuid-5b3ec71c-26dd-468e-b1fc-861ad73e2b05"
           d="M58.75,7.5c-.06,0-.12-.02-.17-.07-.05-.05-.08-.11-.08-.18s.03-.13,.08-.18c.09-.09,.25-.09,.35,0,.05,.05,.07,.11,.07,.18s-.02,.13-.07,.18c-.05,.05-.11,.07-.18,.07Z"
           id="path490" />
        <path
           class="uuid-5b3ec71c-26dd-468e-b1fc-861ad73e2b05"
           d="M60,4.75c-.06,0-.13-.03-.17-.07-.05-.05-.08-.11-.08-.18s.03-.13,.07-.18c.11-.09,.26-.09,.36,0,.05,.05,.07,.11,.07,.18s-.02,.13-.07,.17c-.05,.06-.11,.08-.18,.08Z"
           id="path492" />
        <path
           class="uuid-5b3ec71c-26dd-468e-b1fc-861ad73e2b05"
           d="M67.5,6c-.06,0-.13-.03-.17-.07-.05-.05-.08-.12-.08-.18s.03-.13,.07-.17c.1-.1,.26-.1,.36,0,.05,.06,.07,.12,.07,.18s-.02,.12-.07,.17c-.05,.05-.11,.08-.18,.08Z"
           id="path494" />
        <path
           class="uuid-5b3ec71c-26dd-468e-b1fc-861ad73e2b05"
           d="M69.5,8c-.06,0-.12-.03-.17-.07-.05-.05-.08-.11-.08-.18,0-.06,.03-.13,.07-.18,.11-.09,.26-.09,.36,0,.05,.05,.07,.12,.07,.18,0,.07-.02,.13-.07,.18-.05,.05-.11,.07-.18,.07Z"
           id="path496" />
        <path
           class="uuid-5b3ec71c-26dd-468e-b1fc-861ad73e2b05"
           d="M65.75,9.75c-.06,0-.13-.03-.17-.07-.05-.05-.08-.11-.08-.18s.03-.13,.08-.18c.08-.09,.26-.09,.35,0,.05,.05,.07,.12,.07,.18s-.02,.13-.07,.18c-.05,.04-.11,.07-.18,.07Z"
           id="path498" />
        <path
           class="uuid-5b3ec71c-26dd-468e-b1fc-861ad73e2b05"
           d="M61.75,16.5c-.06,0-.13-.03-.17-.07-.05-.05-.08-.11-.08-.18s.03-.13,.08-.18c.09-.09,.25-.09,.35,0,.05,.05,.07,.12,.07,.18s-.02,.13-.07,.17c-.05,.06-.11,.08-.18,.08Z"
           id="path500" />
        <path
           class="uuid-5b3ec71c-26dd-468e-b1fc-861ad73e2b05"
           d="M60.25,23.75c-.06,0-.12-.03-.17-.07-.05-.05-.08-.11-.08-.18s.03-.13,.08-.18c.09-.09,.25-.09,.35,0,.04,.05,.07,.11,.07,.18s-.02,.13-.07,.18c-.05,.05-.11,.07-.18,.07Z"
           id="path502" />
        <path
           class="uuid-5b3ec71c-26dd-468e-b1fc-861ad73e2b05"
           d="M55.5,23.75c-.06,0-.13-.03-.17-.07-.05-.05-.08-.12-.08-.18s.03-.13,.08-.18c.09-.09,.25-.09,.35,0,.05,.05,.07,.12,.07,.18s-.02,.13-.07,.18c-.05,.04-.11,.07-.18,.07Z"
           id="path504" />
        <path
           class="uuid-5b3ec71c-26dd-468e-b1fc-861ad73e2b05"
           d="M55.5,18.75c-.06,0-.13-.03-.17-.07-.05-.05-.08-.12-.08-.18s.03-.13,.08-.18c.09-.09,.25-.09,.35,0,.05,.05,.07,.12,.07,.18s-.02,.13-.07,.18c-.05,.04-.11,.07-.18,.07Z"
           id="path506" />
        <path
           class="uuid-5b3ec71c-26dd-468e-b1fc-861ad73e2b05"
           d="M65,25.75c-.06,0-.12-.03-.17-.07-.05-.05-.08-.11-.08-.18s.03-.13,.08-.18c.09-.09,.25-.09,.35,0,.05,.05,.07,.12,.07,.18,0,.07-.02,.13-.07,.18-.05,.05-.11,.07-.18,.07Z"
           id="path508" />
        <path
           class="uuid-5b3ec71c-26dd-468e-b1fc-861ad73e2b05"
           d="M61.25,27c-.06,0-.13-.03-.17-.07-.05-.05-.08-.11-.08-.18s.03-.13,.08-.18c.09-.09,.25-.09,.35,0,.05,.05,.07,.11,.07,.18s-.03,.13-.07,.18c-.05,.04-.11,.07-.18,.07Z"
           id="path510" />
        <path
           class="uuid-5b3ec71c-26dd-468e-b1fc-861ad73e2b05"
           d="M57.75,30.75c-.06,0-.12-.02-.17-.07-.05-.05-.08-.11-.08-.18s.03-.13,.08-.18c.09-.09,.25-.09,.35,0,.05,.05,.07,.11,.07,.18s-.02,.13-.07,.17c-.05,.06-.11,.08-.18,.08Z"
           id="path512" />
        <path
           class="uuid-5b3ec71c-26dd-468e-b1fc-861ad73e2b05"
           d="M52.75,32.75c-.06,0-.13-.03-.17-.07-.05-.05-.08-.11-.08-.18s.03-.13,.08-.18c.09-.09,.25-.09,.35,0,.05,.05,.07,.12,.07,.18s-.02,.13-.07,.17c-.05,.06-.11,.08-.18,.08Z"
           id="path514" />
        <path
           class="uuid-5b3ec71c-26dd-468e-b1fc-861ad73e2b05"
           d="M47.5,33.75c-.06,0-.12-.03-.17-.07-.05-.05-.08-.11-.08-.18s.03-.13,.08-.18c.09-.09,.25-.09,.34,0,.06,.06,.08,.12,.08,.18s-.02,.12-.07,.17c-.06,.06-.11,.08-.18,.08Z"
           id="path516" />
        <path
           class="uuid-5b3ec71c-26dd-468e-b1fc-861ad73e2b05"
           d="M44.25,39.25c-.06,0-.12-.03-.17-.07-.05-.05-.08-.11-.08-.18s.03-.13,.08-.18c.09-.09,.25-.09,.35,0,.05,.05,.07,.11,.07,.18s-.02,.13-.07,.18c-.05,.05-.12,.07-.18,.07Z"
           id="path518" />
        <path
           class="uuid-5b3ec71c-26dd-468e-b1fc-861ad73e2b05"
           d="M34,41.5c-.06,0-.12-.02-.17-.07-.05-.05-.08-.11-.08-.18s.03-.13,.08-.18c.09-.09,.25-.09,.35,0,.05,.05,.07,.12,.07,.18s-.02,.13-.07,.18c-.05,.04-.11,.07-.18,.07Z"
           id="path520" />
        <path
           class="uuid-5b3ec71c-26dd-468e-b1fc-861ad73e2b05"
           d="M40.75,48c-.06,0-.12-.02-.17-.07-.05-.05-.08-.11-.08-.18s.03-.13,.08-.18c.1-.09,.25-.09,.35,0,.04,.05,.07,.11,.07,.18s-.03,.13-.07,.18c-.05,.05-.11,.07-.18,.07Z"
           id="path522" />
        <path
           class="uuid-5b3ec71c-26dd-468e-b1fc-861ad73e2b05"
           d="M45.75,52.25c-.06,0-.12-.02-.17-.07-.05-.05-.08-.11-.08-.18s.03-.13,.08-.18c.09-.09,.25-.09,.35,0,.05,.05,.07,.11,.07,.18s-.03,.13-.07,.18c-.05,.05-.11,.07-.18,.07Z"
           id="path524" />
        <path
           class="uuid-5b3ec71c-26dd-468e-b1fc-861ad73e2b05"
           d="M46.5,56.75c-.06,0-.12-.03-.17-.07-.05-.05-.08-.11-.08-.18s.03-.13,.08-.18c.09-.09,.25-.09,.35,0,.05,.05,.07,.12,.07,.18s-.02,.13-.07,.17c-.05,.06-.11,.08-.18,.08Z"
           id="path526" />
        <path
           class="uuid-5b3ec71c-26dd-468e-b1fc-861ad73e2b05"
           d="M42,59.5c-.06,0-.12-.02-.17-.07-.05-.05-.08-.11-.08-.18s.03-.13,.08-.18c.1-.09,.25-.09,.35,0,.04,.05,.07,.11,.07,.18s-.02,.13-.07,.18c-.05,.05-.12,.07-.18,.07Z"
           id="path528" />
        <path
           class="uuid-5b3ec71c-26dd-468e-b1fc-861ad73e2b05"
           d="M40,62.75c-.06,0-.12-.03-.17-.07-.05-.05-.08-.11-.08-.18s.03-.14,.08-.18c.09-.09,.26-.09,.35,0,.05,.05,.07,.11,.07,.18,0,.06-.02,.13-.07,.18-.05,.04-.11,.07-.18,.07Z"
           id="path530" />
        <path
           class="uuid-5b3ec71c-26dd-468e-b1fc-861ad73e2b05"
           d="M36,62.75c-.06,0-.12-.02-.17-.07-.05-.05-.08-.11-.08-.18s.03-.13,.08-.18c.1-.09,.26-.09,.35,0,.05,.06,.07,.12,.07,.18s-.02,.13-.07,.18c-.05,.04-.11,.07-.18,.07Z"
           id="path532" />
        <path
           class="uuid-5b3ec71c-26dd-468e-b1fc-861ad73e2b05"
           d="M36.5,52.75c-.07,0-.13-.03-.17-.07-.05-.05-.08-.11-.08-.18s.03-.13,.08-.18c.09-.09,.25-.09,.35,0,.05,.06,.07,.12,.07,.18s-.02,.12-.07,.17c-.05,.05-.11,.08-.18,.08Z"
           id="path534" />
        <path
           class="uuid-5b3ec71c-26dd-468e-b1fc-861ad73e2b05"
           d="M30,63.5c-.06,0-.13-.03-.17-.07-.05-.05-.08-.11-.08-.18s.03-.13,.08-.18c.09-.09,.25-.09,.35,0,.05,.05,.07,.12,.07,.18s-.02,.13-.07,.17c-.05,.05-.11,.08-.18,.08Z"
           id="path536" />
        <path
           class="uuid-5b3ec71c-26dd-468e-b1fc-861ad73e2b05"
           d="M31.5,68.5c-.07,0-.13-.03-.18-.08-.04-.04-.07-.1-.07-.17s.03-.14,.08-.18c.09-.08,.25-.09,.34,0,.06,.05,.08,.11,.08,.18,0,.06-.02,.13-.07,.18-.05,.04-.11,.07-.18,.07Z"
           id="path538" />
        <path
           class="uuid-5b3ec71c-26dd-468e-b1fc-861ad73e2b05"
           d="M37,71c-.06,0-.12-.02-.17-.07-.05-.05-.08-.11-.08-.18s.03-.13,.08-.18c.1-.09,.25-.09,.35,0,.05,.05,.07,.11,.07,.18s-.02,.13-.07,.18c-.05,.05-.11,.07-.18,.07Z"
           id="path540" />
        <path
           class="uuid-5b3ec71c-26dd-468e-b1fc-861ad73e2b05"
           d="M58.75,57c-.06,0-.12-.02-.17-.07-.05-.05-.08-.11-.08-.18s.03-.13,.08-.18c.09-.09,.25-.09,.35,0,.05,.05,.07,.11,.07,.18s-.02,.13-.07,.18c-.05,.05-.11,.07-.18,.07Z"
           id="path542" />
        <path
           class="uuid-5b3ec71c-26dd-468e-b1fc-861ad73e2b05"
           d="M63,57c-.06,0-.12-.03-.17-.07-.05-.05-.08-.11-.08-.18s.03-.13,.08-.18c.09-.09,.25-.09,.35,0,.05,.05,.07,.11,.07,.18s-.02,.13-.07,.17c-.05,.06-.11,.08-.18,.08Z"
           id="path544" />
        <path
           class="uuid-5b3ec71c-26dd-468e-b1fc-861ad73e2b05"
           d="M60,50.75c-.06,0-.12-.03-.17-.07-.05-.05-.08-.11-.08-.18s.03-.14,.08-.18c.09-.09,.25-.09,.35,0,.04,.05,.07,.11,.07,.18s-.02,.13-.07,.18c-.05,.04-.11,.07-.18,.07Z"
           id="path546" />
        <path
           class="uuid-5b3ec71c-26dd-468e-b1fc-861ad73e2b05"
           d="M54.5,50.5c-.07,0-.13-.03-.17-.07-.05-.05-.08-.12-.08-.18s.03-.13,.07-.17c.1-.1,.26-.1,.36,0,.05,.06,.07,.12,.07,.18s-.02,.12-.07,.17c-.05,.05-.11,.08-.18,.08Z"
           id="path548" />
        <path
           class="uuid-5b3ec71c-26dd-468e-b1fc-861ad73e2b05"
           d="M59.25,44.25c-.06,0-.13-.03-.17-.07-.05-.05-.08-.12-.08-.18s.03-.13,.07-.17c.1-.1,.27-.1,.36,0,.05,.06,.07,.12,.07,.18s-.02,.12-.07,.17c-.04,.05-.11,.08-.18,.08Z"
           id="path550" />
        <path
           class="uuid-5b3ec71c-26dd-468e-b1fc-861ad73e2b05"
           d="M54.75,41.75c-.06,0-.13-.03-.17-.07-.05-.05-.08-.12-.08-.18s.03-.13,.08-.18c.08-.09,.25-.09,.35,0,.05,.05,.07,.12,.07,.18s-.02,.13-.07,.18c-.05,.04-.11,.07-.18,.07Z"
           id="path552" />
        <path
           class="uuid-5b3ec71c-26dd-468e-b1fc-861ad73e2b05"
           d="M55.75,35.5c-.06,0-.12-.02-.17-.07-.05-.05-.08-.11-.08-.18s.03-.13,.08-.18c.09-.09,.25-.09,.35,0,.05,.05,.07,.11,.07,.18s-.02,.13-.07,.18c-.05,.05-.11,.07-.18,.07Z"
           id="path554" />
        <path
           class="uuid-5b3ec71c-26dd-468e-b1fc-861ad73e2b05"
           d="M62.5,42.25c-.06,0-.13-.03-.17-.07-.05-.05-.08-.11-.08-.18s.03-.13,.08-.18c.08-.08,.24-.09,.34,0,.06,.05,.08,.12,.08,.18s-.02,.13-.07,.18c-.05,.05-.12,.07-.18,.07Z"
           id="path556" />
        <path
           class="uuid-5b3ec71c-26dd-468e-b1fc-861ad73e2b05"
           d="M67,47.5c-.06,0-.13-.03-.17-.07-.05-.05-.08-.11-.08-.18s.03-.13,.08-.18c.08-.08,.25-.09,.35,0,.05,.05,.07,.11,.07,.18s-.03,.13-.07,.18c-.05,.05-.11,.07-.18,.07Z"
           id="path558" />
        <path
           class="uuid-5b3ec71c-26dd-468e-b1fc-861ad73e2b05"
           d="M69.5,54.25c-.06,0-.13-.03-.17-.07-.05-.05-.08-.11-.08-.18s.03-.13,.08-.18c.09-.09,.25-.09,.35,0,.05,.05,.07,.11,.07,.18s-.02,.13-.07,.18c-.05,.04-.11,.07-.18,.07Z"
           id="path560" />
        <path
           class="uuid-5b3ec71c-26dd-468e-b1fc-861ad73e2b05"
           d="M63.5,61.75c-.06,0-.13-.03-.17-.07-.05-.05-.08-.12-.08-.18,0-.07,.03-.13,.08-.18,.07-.08,.25-.1,.35,0,.05,.05,.07,.12,.07,.18s-.02,.12-.07,.17c-.05,.06-.11,.08-.18,.08Z"
           id="path562" />
        <path
           class="uuid-5b3ec71c-26dd-468e-b1fc-861ad73e2b05"
           d="M69.25,63.5c-.06,0-.12-.02-.17-.07-.05-.05-.08-.11-.08-.18s.03-.13,.08-.18c.09-.09,.25-.09,.35,0,.05,.05,.07,.12,.07,.18s-.02,.13-.07,.17c-.05,.06-.11,.08-.18,.08Z"
           id="path564" />
        <path
           class="uuid-5b3ec71c-26dd-468e-b1fc-861ad73e2b05"
           d="M64.75,65.5c-.07,0-.13-.03-.17-.07-.05-.05-.08-.12-.08-.18s.03-.12,.07-.17c.1-.1,.27-.1,.36,0,.05,.06,.07,.12,.07,.18s-.02,.12-.07,.17c-.04,.05-.11,.08-.18,.08Z"
           id="path566" />
        <path
           class="uuid-5b3ec71c-26dd-468e-b1fc-861ad73e2b05"
           d="M65.75,68.25c-.06,0-.13-.03-.17-.07-.05-.05-.08-.11-.08-.18s.03-.13,.08-.18c.08-.09,.26-.09,.35,0,.05,.05,.07,.12,.07,.18,0,.07-.02,.13-.07,.18-.05,.04-.11,.07-.18,.07Z"
           id="path568" />
        <path
           class="uuid-5b3ec71c-26dd-468e-b1fc-861ad73e2b05"
           d="M69.25,70.5c-.06,0-.13-.03-.17-.07-.05-.05-.08-.12-.08-.18,0-.07,.03-.13,.08-.18,.09-.09,.25-.09,.35,0,.05,.05,.07,.11,.07,.18,0,.06-.02,.13-.07,.17-.05,.06-.11,.08-.18,.08Z"
           id="path570" />
        <path
           class="uuid-5b3ec71c-26dd-468e-b1fc-861ad73e2b05"
           d="M62.5,70.25c-.06,0-.13-.03-.17-.07-.05-.05-.08-.11-.08-.18s.03-.13,.08-.18c.08-.08,.24-.1,.34,0,.06,.05,.08,.12,.08,.18s-.02,.13-.07,.18c-.06,.05-.12,.07-.18,.07Z"
           id="path572" />
        <path
           class="uuid-5b3ec71c-26dd-468e-b1fc-861ad73e2b05"
           d="M60.75,65.75c-.06,0-.13-.03-.17-.07-.05-.05-.08-.11-.08-.18s.03-.13,.08-.18c.09-.09,.25-.09,.35,0,.05,.05,.07,.12,.07,.18s-.02,.13-.07,.17c-.05,.06-.11,.08-.18,.08Z"
           id="path574" />
        <path
           class="uuid-5b3ec71c-26dd-468e-b1fc-861ad73e2b05"
           d="M52.75,69.75c-.06,0-.13-.03-.17-.07-.05-.05-.08-.11-.08-.18s.03-.13,.08-.18c.09-.09,.25-.09,.35,0,.05,.05,.07,.12,.07,.18s-.02,.13-.07,.17c-.05,.06-.11,.08-.18,.08Z"
           id="path576" />
        <path
           class="uuid-5b3ec71c-26dd-468e-b1fc-861ad73e2b05"
           d="M44.75,66.5c-.07,0-.13-.03-.17-.07-.05-.05-.08-.11-.08-.18s.03-.13,.08-.18c.09-.09,.25-.09,.35,0,.05,.05,.07,.11,.07,.18,0,.06-.02,.13-.07,.17-.05,.05-.11,.08-.18,.08Z"
           id="path578" />
        <path
           class="uuid-5b3ec71c-26dd-468e-b1fc-861ad73e2b05"
           d="M44.5,71.25c-.06,0-.12-.03-.17-.07-.05-.05-.08-.11-.08-.18s.03-.13,.08-.18c.09-.09,.25-.09,.35,0,.05,.05,.07,.11,.07,.18s-.02,.13-.07,.18c-.05,.05-.12,.07-.18,.07Z"
           id="path580" />
        <path
           class="uuid-5b3ec71c-26dd-468e-b1fc-861ad73e2b05"
           d="M28.5,71.25c-.07,0-.13-.03-.18-.08-.04-.04-.07-.1-.07-.17s.03-.13,.08-.18c.09-.09,.25-.09,.35,0,.05,.05,.07,.12,.07,.18s-.02,.13-.07,.18c-.04,.04-.11,.07-.18,.07Z"
           id="path582" />
        <path
           class="uuid-5b3ec71c-26dd-468e-b1fc-861ad73e2b05"
           d="M.75,29.5c-.06,0-.13-.03-.17-.07-.05-.05-.08-.12-.08-.18,0-.07,.03-.13,.08-.18,.08-.09,.24-.09,.35,0,.04,.05,.07,.11,.07,.18s-.02,.13-.07,.18c-.05,.05-.11,.07-.18,.07Z"
           id="path584" />
        <path
           class="uuid-5b3ec71c-26dd-468e-b1fc-861ad73e2b05"
           d="M24.5,1c-.06,0-.12-.02-.17-.07-.05-.05-.08-.12-.08-.18,0-.07,.03-.13,.07-.18,.11-.09,.26-.09,.36,0,.04,.05,.07,.11,.07,.18s-.02,.13-.07,.17c-.05,.06-.11,.08-.18,.08Z"
           id="path586" />
        <path
           class="uuid-5b3ec71c-26dd-468e-b1fc-861ad73e2b05"
           d="M13.25,5c-.07,0-.13-.03-.18-.07-.04-.05-.07-.12-.07-.18,0-.07,.03-.13,.07-.18,.09-.09,.26-.09,.36,0,.05,.05,.07,.11,.07,.18,0,.06-.02,.13-.07,.17-.05,.06-.11,.08-.18,.08Z"
           id="path588" />
        <path
           class="uuid-5b3ec71c-26dd-468e-b1fc-861ad73e2b05"
           d="M71,35.25c-.06,0-.13-.03-.17-.07-.05-.05-.08-.11-.08-.18s.03-.13,.08-.18c.08-.08,.25-.09,.35,0,.05,.05,.07,.11,.07,.18s-.02,.13-.07,.18c-.05,.05-.11,.07-.18,.07Z"
           id="path590" />
      </g>
    </pattern>
  </defs>
  <path
     class="uuid-3608f80c-36e1-4471-990d-9ece5ef4bb5d"
     d="m 198.51,217.21 c -0.52,-4 -1.24,-8.18 -4.49,-10.92 -3.68,-3.12 -8.14,-1.66 -12.05,-3.72 -1.75,-0.92 -3.16,-2.2 -4.63,-3.39 -10.13,9.33 -23.96,15.41 -36.63,19.49 -7.14,2.3 -14.96,3.91 -21.27,8.15 -6.91,4.65 -7.09,11.56 -7.52,19.17 -0.38,6.86 -1.57,15.27 -7.33,19.85 -4.76,3.79 -9.38,1.05 -14.69,1.21 -13.17,0.39 -6.36,21.39 -1.5,27.43 3.94,4.9 10.36,9.43 10.25,16.39 -0.03,1.68 -0.3,4.04 -0.97,6.24 2.05,1.15 5.05,1.91 6.68,2.94 3.8,2.39 6.14,6.07 6.03,10.64 -0.26,11.04 -11.46,17.32 -20.08,21.77 -3.99,2.06 -8.75,4.59 -13.39,4.57 -4.84,-0.02 -9.11,-3.2 -13.56,-4.67 -1.42,-0.47 -3.39,-1.34 -4.68,-0.25 -1.76,1.49 -0.43,2.58 0.85,4.64 3.01,4.83 7.29,9.43 8.24,15.24 0.53,3.26 -1.31,6.2 -4.82,6.33 -3.36,0.13 -5.67,-1.05 -8.35,-2.9 -0.38,-0.27 -2.2,-1.29 -2.25,-1.74 -0.43,0.13 -0.86,0.3 -1.19,0.38 -3.96,1 -8.46,1.66 -11.85,4.07 -4.65,3.31 -6.64,9.2 -1.61,13.19 3.26,2.59 6.8,4.11 8.38,8.29 4.77,12.59 -9.45,25.26 -17.14,33.17 -4.21,4.33 -8.28,7.89 -13.2,11.38 -2.76,1.96 -7.24,4.74 -9.54,8.14 -0.11,4.04 0.07,8.39 2.8,11.13 4.4,4.42 13.63,3.26 19.36,3.7 7.21,0.55 14.42,1.09 21.64,1.59 15.09,1.05 30.18,1.95 45.3,2.49 29.44,1.05 60.06,1.78 89.27,-2.66 5.59,-0.85 10.72,-3.33 12.86,-8.95 2.05,-5.39 0.8,-11.39 0.11,-16.92 -0.16,-1.3 -0.34,-2.6 -0.51,-3.9 0.81,-25.15 1.62,-50.29 2.43,-75.44 0.39,-12.1 0.95,-24.21 0.65,-36.31 -0.3,-12.5 -2.7,-24.46 -4.06,-36.83 -1.37,-12.44 3.1,-23.82 4.28,-36.05 1.19,-12.29 -0.22,-24.72 -1.79,-36.91 z"
     id="path597" />
  <path
     class="uuid-783a4901-4c48-4f85-972b-b5785e5c11d4"
     d="m 193.68,367.9 c 1.41,-25.85 1.32,-51.75 -0.16,-77.6 -0.75,-13.15 -1.74,-26.32 -1.26,-39.5 0.23,-6.52 0.96,-12.99 1.52,-19.49 0.45,-5.25 1.37,-11.13 -0.09,-16.31 -3,-10.66 -4.41,-10.58 -13.33,-11.65 L 169.02,202 c -1.47,-0.18 -3.07,-0.56 -4.62,-0.64 -3.38,3.73 -5.8,9.6 -9.33,12.27 -3.32,2.51 -7.53,3.82 -11.43,5.13 -4.03,1.36 -7.95,2.99 -11.96,4.37 -3.97,1.36 -8.28,1.99 -12.05,3.9 -4.59,2.33 -5.01,6.05 -4.88,10.81 0.12,4.44 0.45,8.99 -1.17,13.23 -1.24,3.23 -3.4,5.96 -5.55,8.62 -3.61,4.49 -8.07,10.21 -13.33,12.87 -5.11,2.58 -11,-0.04 -16.36,0.4 -0.46,0.04 -1.23,0.22 -1.62,0.32 0.08,0.23 0.17,0.46 0.3,0.65 1.75,2.69 3.35,5.51 5.08,8.22 1.52,2.37 3.02,4.73 3.76,7.47 1.05,3.89 1.14,7.99 2.35,11.86 1.13,3.63 3.31,6.65 7,7.86 2.85,0.94 5.85,1.32 8.47,2.92 5.76,3.53 7.82,11.6 5.93,17.86 -3.61,11.97 -19.94,16.04 -30.8,17.25 -5.77,0.64 -16.06,-0.37 -19.25,5.63 -3.72,6.98 -3.17,14.34 -10.85,18.84 -4.15,2.43 -13.77,4.37 -13.72,10.43 0.06,6.77 7.86,6.15 10.85,11.21 7.85,13.3 -6.91,27.18 -13.99,36.87 -1.63,2.23 -2,4.65 -3.32,7.01 -1.7,3.03 -4.99,5.44 -8.11,6.81 -1.9,0.84 -4.47,0.86 -6.2,1.97 -1.49,0.96 -1.87,2.45 -2.34,4.15 -0.08,0.29 -0.15,0.59 -0.22,0.89 -0.02,1.29 -0.04,2.58 -0.06,3.87 -0.04,2.01 1.57,4.49 3.66,4.82 0.24,0.04 0.47,0.06 0.71,0.09 1.31,2.19 3.24,3.84 6.09,4.54 5.25,1.27 11.2,1.19 16.56,1.52 5.23,0.32 10.48,0.51 15.72,0.6 44.97,0.81 90.19,-4.03 135.03,-6.99 2.06,-0.14 4.77,-1.39 4.81,-3.67 0.47,-25.36 -2.11,-58.5 -0.51,-88.03 z"
     id="path599"
     style="fill:url(#pattern1463)" />
  <g
     id="g605"
     transform="translate(-0.17,-1.5799999)">
    <line
       class="uuid-dae445cc-64e7-4431-a082-fb1ae0cf47f4"
       x1="199.64"
       y1="465.57999"
       x2="1"
       y2="465.57999"
       id="line601" />
    <line
       class="uuid-c942a9f8-6897-461f-9550-bbf057518400"
       x1="199.64"
       y1="493.60001"
       x2="1"
       y2="493.60001"
       id="line603" />
  </g>
  <g
     id="g637"
     transform="translate(-0.17,-1.5799999)">
    <path
       class="uuid-0d1e7369-265a-4ce6-939e-d53112fd2199"
       d="m 199.17,16.28 c 0.33,-5.99 2.16,-10.89 5.95,-11.79 2.2,-0.52 4.49,-0.2 6.7,-0.17 2.41,0.03 4.82,0.05 7.22,0.08 9.51,0.1 19.02,0.21 28.54,0.31 38.11,0.42 76.22,0.82 114.34,1.28 38.17,0.46 76.35,1 114.52,1.76 4.71,0.09 9.42,0.19 14.13,0.29 0.57,0.01 1.02,0.34 1.36,0.83 0,-0.75 0.01,-1.51 0.02,-2.26 0.04,-4.67 4.4,-4.69 4.36,0 -0.53,62.81 -0.8,125.62 -0.79,188.44 0,62.81 0.28,125.63 0.83,188.44 0.05,5.66 0.11,11.31 0.17,16.97 -0.24,10.98 -0.54,21.96 -0.86,32.93 -0.37,12.89 -0.83,25.8 -0.88,38.71 -0.03,7.04 0.36,14.23 0.19,21.31 -37.58,0.21 -75.15,0.41 -112.73,0.62 -37.58,0.21 -75.16,0.41 -112.74,0.62 L 205.85,495 c -1.16,0 -2.21,-1.67 -2.18,-3.63 0.87,-63.54 1.14,-127.11 0.81,-190.67 -0.33,-63.56 -1.26,-127.11 -2.79,-190.61 -0.39,-16.08 -0.81,-32.15 -1.28,-48.23 -0.23,-8.04 -0.47,-16.07 -0.73,-24.11 -0.22,-7.02 -0.91,-14.44 -0.52,-21.45 z"
       id="path607" />
    <path
       class="uuid-783a4901-4c48-4f85-972b-b5785e5c11d4"
       d="m 199.79,300.71 c 1.58,61.45 2.29,122.96 2.11,184.48 0,3.28 0.63,5.87 1.65,7.77 6.11,0.41 12.36,-1.02 18.41,-1.88 0.86,-0.3 1.73,-0.44 2.66,-0.34 0.88,0.1 1.55,0.65 2.03,1.44 77.63,-2.23 155.28,-0.82 232.85,4.26 0.66,-0.03 1.32,-0.06 1.98,-0.1 8.02,-0.53 16.03,-1.26 24.05,-1.83 2.09,-0.15 5.05,-0.54 8,-0.3 0.43,-0.98 0.75,-2.08 0.98,-3.25 0.3,0.08 0.61,0.13 0.92,0.15 1.69,-49.26 -0.15,-98.71 2.56,-147.9 0.06,-1.18 0.33,-2.14 0.71,-2.88 -0.16,-35.82 -0.06,-71.47 -2.17,-107.24 -1.32,-22.31 -2.6,-44.63 0.22,-66.79 0.14,-1.07 0.5,-1.89 0.99,-2.49 0.09,-22.48 0.46,-44.95 1,-67.41 0.08,-3.25 0.17,-6.49 0.26,-9.74 -0.24,-14.27 -0.43,-28.54 -0.53,-42.82 -0.11,-7.07 -0.18,-14.14 -0.2,-21.21 -1.28,-4.71 -2.66,-9.35 -3.87,-14.12 -0.22,-0.86 -0.45,-1.76 -0.68,-2.68 -4.15,1.94 -8.58,2.13 -12.86,2.09 -5.28,-0.05 -10.55,-0.32 -15.83,-0.48 -12.2,-0.37 -24.3,0.49 -36.48,1.04 -20.89,0.94 -41.74,-1.6 -62.59,-3.38 -1.49,0.27 -2.99,0.43 -4.52,0.53 -5.01,0.33 -10.01,0.76 -15.03,0.74 -6.59,-0.03 -13.33,-0.35 -20,-1.42 -17.22,3.52 -34.88,0.91 -52.21,0.04 -0.32,0 -0.63,0 -0.95,0 0,-0.01 -0.01,-0.03 -0.02,-0.04 -1.64,-0.07 -3.27,-0.13 -4.9,-0.17 -12.24,-0.26 -24.48,0.06 -36.72,-0.4 -4.86,-0.18 -9.72,-0.43 -14.57,-0.51 -2,0.17 -4,0.32 -6,0.5 -0.12,-0.18 -0.24,-0.33 -0.36,-0.49 -0.1,0 -0.2,0 -0.3,0 -0.33,0.02 -0.66,0.03 -0.99,0.03 -3.16,0.1 -6.32,0.32 -9.47,0.73 -0.3,0.61 -0.56,1.28 -0.76,2.04 1.12,16.32 1.48,32.73 0.84,49.15 0.01,5.36 -0.02,10.71 -0.08,16.07 0.62,13.01 0.91,26.09 0.72,39.14 0.86,5.19 0.76,10.86 0.71,16.19 -0.1,10.32 0.53,20.75 0.74,31.08 0.44,21.37 0.02,42.54 -1.04,63.85 -0.07,1.45 -0.44,2.56 -0.97,3.36 0.14,19.91 0.33,39.82 0.4,59.74 0.04,3.94 0.05,7.89 0.03,11.84 0,1.23 -0.23,2.22 -0.59,2.99 -0.03,0.22 -0.08,0.43 -0.13,0.63 z m 88.64,-161.9 c -0.71,-4.92 -4.09,-13.35 -1.18,-17.96 2.74,-4.33 9.5,-3.34 13.8,-3.03 6.6,0.48 13.05,0.53 19.68,0.36 22.5,-0.57 45.01,-0.48 67.51,-0.48 1.09,0 1.98,0.29 2.7,0.77 3.12,-1.77 7.85,-0.46 7.38,4.01 -1.39,13.13 -2.76,26.28 -2.89,39.5 -0.12,13.16 1.33,26.19 0.89,39.36 -0.43,12.67 -0.74,25.3 -0.6,37.98 0.15,12.95 1.6,25.86 1.49,38.79 -0.02,2.92 -2.28,4.7 -4.99,5 -3.58,0.39 -6.8,-0.65 -10.28,-1.26 -4.37,-0.76 -8.91,-0.54 -13.33,-0.52 -8.24,0.04 -16.49,0 -24.73,0 -8.24,0 -16.5,-0.04 -24.75,-0.05 -8.61,-0.01 -17.78,-0.68 -26.25,0.98 -2.99,0.59 -6.51,-1.36 -6.32,-4.82 0.22,-3.91 1.39,-7.42 2.4,-11.18 1.22,-4.57 -0.25,-8.33 -1.01,-12.83 -1.61,-9.51 -1.21,-19.11 -1.17,-28.71 0.09,-19.33 1.71,-38.45 2.65,-57.73 0.46,-9.41 0.33,-18.86 -1.01,-28.2 z"
       id="path609" />
    <path
       class="uuid-77c22d6c-41d6-4a50-973d-81060a78b629"
       d="m 284.71,238.08 c 0.89,12.64 3.87,25.58 1.27,38.18 -0.6,2.93 1.37,6.6 4.81,6.33 19.99,-1.59 39.99,-0.53 59.98,0.32 8.53,0.36 17.06,0.68 25.6,0.69 5.96,0.01 15.47,1.89 17.58,-5.53 2.25,-7.89 1.5,-17.56 1.17,-25.67 -0.35,-8.5 -1.09,-16.98 -1.34,-25.48 -1.03,-35.25 1.12,-70.76 1.99,-106 0.07,-2.78 -1.75,-4.35 -3.85,-4.73 -0.79,-0.71 -1.86,-1.17 -3.23,-1.17 -32.75,0.08 -65.49,1.1 -98.18,3.04 -2.49,0.15 -5.25,2.2 -4.99,5 2.34,25.56 0.07,51.13 -0.98,76.69 -0.53,12.76 -0.73,25.57 0.17,38.32 z"
       id="path611" />
    <line
       class="uuid-5bc0bb60-b24b-403a-abd4-5b2c0f43ed26"
       x1="397.32999"
       y1="103.16"
       x2="397.32999"
       y2="289.81"
       id="line613" />
    <line
       class="uuid-5bc0bb60-b24b-403a-abd4-5b2c0f43ed26"
       x1="285.82001"
       y1="120.6"
       x2="285.82001"
       y2="280.67001"
       id="line615" />
    <line
       class="uuid-5bc0bb60-b24b-403a-abd4-5b2c0f43ed26"
       x1="409.26999"
       y1="116.84"
       x2="277.85001"
       y2="116.84"
       id="line617" />
    <line
       class="uuid-5bc0bb60-b24b-403a-abd4-5b2c0f43ed26"
       x1="394.32999"
       y1="110.16"
       x2="274.85999"
       y2="110.16"
       id="line619" />
    <line
       class="uuid-5bc0bb60-b24b-403a-abd4-5b2c0f43ed26"
       x1="199.64"
       y1="497.42001"
       x2="491.84"
       y2="497.42001"
       id="line621" />
    <line
       class="uuid-5bc0bb60-b24b-403a-abd4-5b2c0f43ed26"
       x1="205.97"
       y1="2.5799999"
       x2="497.47"
       y2="2.5799999"
       id="line623" />
    <line
       class="uuid-5bc0bb60-b24b-403a-abd4-5b2c0f43ed26"
       x1="497.89001"
       y1="16.549999"
       x2="497.89001"
       y2="497.42001"
       id="line625" />
    <line
       class="uuid-5bc0bb60-b24b-403a-abd4-5b2c0f43ed26"
       x1="199.64"
       y1="483.45001"
       x2="199.64"
       y2="2.5799999"
       id="line627" />
    <line
       class="uuid-5bc0bb60-b24b-403a-abd4-5b2c0f43ed26"
       x1="416.88"
       y1="282.28"
       x2="274.32001"
       y2="282.28"
       id="line629" />
    <line
       class="uuid-5bc0bb60-b24b-403a-abd4-5b2c0f43ed26"
       x1="411.89999"
       y1="294.60001"
       x2="265.37"
       y2="294.60001"
       id="line631" />
    <line
       class="uuid-5bc0bb60-b24b-403a-abd4-5b2c0f43ed26"
       x1="414.39001"
       y1="285.07001"
       x2="414.39001"
       y2="297.59"
       id="line633" />
    <line
       class="uuid-5bc0bb60-b24b-403a-abd4-5b2c0f43ed26"
       x1="272.35001"
       y1="277.31"
       x2="272.35001"
       y2="292.73999"
       id="line635" />
  </g>
  <path
     class="uuid-f170916b-a1d2-4059-9d6a-3908e39305a4"
     d="m 143.73,459.9 c -1,0.37 -1.68,0.82 -2.37,0.84 -7.77,0.29 -15.54,0.71 -23.29,-0.36 -0.63,-0.09 -1.28,-0.09 -1.98,0.13 1,0.26 2,0.5 3,0.78 1.1,0.31 2.24,0.56 3.29,1.01 0.97,0.41 1.84,1.05 2.76,1.59 -0.06,0.22 -0.13,0.45 -0.19,0.67 -1.22,-0.08 -2.45,-0.07 -3.65,-0.25 -4.63,-0.71 -9.25,-1.49 -13.88,-2.22 -1.4,-0.22 -2.84,-0.28 -4.22,-0.59 -1.02,-0.23 -2.13,-0.64 -2.25,-1.93 -0.12,-1.26 0.79,-1.97 1.78,-2.37 1.61,-0.65 3.26,-1.29 4.95,-1.63 2.06,-0.41 3.28,-1.49 3.8,-3.48 1.94,-7.41 6.58,-12.84 12.62,-17.26 2.23,-1.63 4.51,-3.21 6.53,-5.08 1.31,-1.22 2.34,-2.83 3.23,-4.41 1.1,-1.97 1.23,-4.11 0.28,-6.25 -0.8,-1.8 -1.57,-3.6 -2.35,-5.41 -0.25,-0.57 -0.48,-1.15 -0.87,-2.12 1.19,0.23 2.04,0.39 2.95,0.56 -0.03,-0.55 -0.05,-1.03 -0.09,-1.85 0.94,0.72 1.67,1.28 2.29,1.75 1.27,-0.69 2.42,-1.5 3.7,-1.94 0.98,-0.33 2.12,-0.16 3.18,-0.29 0.7,-0.09 1.39,-0.31 2.09,-0.48 0.34,-0.08 0.71,-0.34 1,-0.26 0.92,0.23 2.13,3.47 1.5,4.22 -2.98,3.53 -1.62,6.89 0.35,10.18 1.54,2.57 2.62,5.25 2.87,8.26 0.19,2.32 -0.15,4.53 -1.29,6.54 -1.29,2.28 -2.68,4.51 -4.09,6.72 -2.46,3.86 -0.58,10.27 3.58,12.11 1.02,0.45 1.81,1.9 1.46,2.96 -0.12,0.35 -0.7,0.74 -1.09,0.76 -2.01,0.14 -4.08,0.44 -5.55,-0.92 z m -2.87,-3.19 c -0.81,-1.96 -1.48,-3.59 -2.08,-5.04 -1.32,1.37 -2.43,2.51 -3.63,3.74 1.47,1.31 3.51,1.02 5.7,1.3 z"
     id="path639" />
  <path
     class="uuid-a5616e0f-68df-4693-8210-1d04fbddb9c8"
     d="m 274.5,247.65 c 0.13,0.05 0.4,0.17 0.78,0.32 -0.12,0.39 -0.3,0.81 -0.37,1.25 -0.07,0.4 -0.01,0.82 -0.01,1.47 0.42,0.36 0.96,0.83 1.62,1.4 h 3.46 c 1.1,0.8 2.31,1.68 3.58,2.6 0,2.27 0.18,4.44 -0.05,6.57 -0.26,2.49 -1.25,4.83 -2.46,7.02 -0.87,1.58 -2.08,2.98 -2.91,4.58 -1.05,2.02 -2.7,3.21 -4.81,4.25 -0.46,1.03 -1.89,2.18 0.07,3.47 2.73,0.32 5.04,-0.39 7,-2.58 2.2,-2.46 4.54,-4.81 7,-6.99 2.17,-1.92 4.23,-4.06 7.14,-5.07 4.08,3.89 6.74,8.37 5.09,14.15 1.08,2.17 2.81,0.48 4.13,1.02 1.56,-1.13 2.18,-2.72 2.1,-4.71 -0.09,-2.47 0.03,-4.95 -0.02,-7.43 -0.03,-1.38 -0.22,-2.76 -0.35,-4.3 2.89,-0.29 5.86,-1.13 8.73,-1.4 1.52,2.98 2.88,5.64 4.39,8.61 -0.42,0.92 -0.99,2.16 -1.55,3.4 -0.72,1.59 -2.87,0.35 -3.73,2.04 v 2.33 c 0.58,0.74 -0.29,1.32 6.1,0.27 0.91,-1.14 2.02,-2.46 3.04,-3.85 0.95,-1.29 1.81,-2.64 2.59,-3.79 v -8.37 c 3.45,2.49 6.87,4.59 10.56,6.22 1.73,0.77 2.17,2.53 2.98,4.02 0.86,1.58 0.75,3.06 -0.16,4.61 0.39,0.46 0.71,0.84 1.04,1.22 1.28,0 2.5,0 3.82,0 1.31,-1.37 1.7,-2.71 1.08,-4.84 -0.66,-2.28 -0.72,-4.77 -2.03,-6.84 -2.3,-3.64 -4.11,-7.49 -5.57,-11.54 -1.01,-2.81 -2.37,-5.51 -3.72,-8.19 -0.86,-1.72 -0.72,-3.25 0.13,-4.88 1.64,-3.11 3.25,-6.23 4.8,-9.39 1.53,-3.12 1.77,-6.37 0.67,-9.7 0.27,-1.77 1.34,-2.83 2.99,-3.42 1.58,-0.56 2.83,-1.57 3.78,-2.95 -0.31,-1.38 -0.3,-1.39 -1.61,-2.64 -3.96,0.05 -7.2,1.88 -9.74,4.95 -0.64,0.78 -0.76,2.03 -1.02,3.08 -0.12,0.49 -0.07,1.03 -0.02,1.54 0.29,3.02 -0.39,5.8 -1.84,8.46 -0.62,1.13 -0.96,2.41 -1.51,3.58 -0.98,2.07 -2.02,4.11 -3.09,6.29 -1.7,-0.27 -3.38,-0.45 -5.02,-0.81 -2.79,-0.62 -6.07,-0.64 -9.3,0.06 -0.49,0.11 -1.02,0.05 -1.53,0.08 -3.41,0.19 -6.72,0.96 -10.05,1.65 -2.45,0.5 -4.96,0.72 -7.05,1.01 -4.01,-3.07 -7.63,-5.83 -11.47,-8.77 -1.34,0.49 -1.99,1.7 -1.75,3.12 -1.36,1.31 -2.68,2.3 -3.63,3.56 -0.95,1.27 -1.54,2.81 -2.3,4.25 z"
     id="path641" />
  <path
     class="uuid-5bc0bb60-b24b-403a-abd4-5b2c0f43ed26"
     d="m 197.28,207.71 c -1.64,-1.84 -3.47,-1.79 -5.49,-3.15 -2.63,-1.76 -5.14,-5.65 -7.78,-7.03 -7.57,-3.96 -8.52,4.43 -13.84,8.19 -6,4.24 -12.38,8.38 -19.27,11.13 -6.89,2.75 -14.39,1.58 -20.1,4.81 -5.71,3.23 -11.15,9.97 -14.49,15.29 -3.65,5.83 -4.14,10.97 -5.48,18.03 -0.46,2.44 -0.3,7.45 -2.25,9.4 -4.15,4.15 -7.53,0.31 -12.4,0.51 -3.86,0.15 -7.94,1.78 -10.67,4.63 -5.12,5.35 -2.37,4.52 0.73,9.51 4.66,7.5 2.63,12.53 1.82,20.95 -0.24,2.52 -1.46,9.06 0.12,11.35 2.86,4.17 3.07,1.17 7.48,1.28 13.51,0.36 16.09,20.81 7.9,29.93 -4.42,4.93 -17.09,18.03 -24.03,18.85 -6.94,0.82 -9.41,-11.14 -17.94,-8.77 -10.28,2.85 4.98,11.8 3.29,19.29 -2.6,11.54 -10.83,4.67 -17.91,5.29 -10.91,0.96 -17.42,10.96 -10.5,19.54 6.06,7.51 15.1,12.36 7.07,22.45 -6.28,7.89 -14.83,14.94 -21.7,22.43 -2.96,3.23 -18.56,18.23 -18.77,18.14"
     id="path643" />
</svg>
