<?xml version="1.0" encoding="UTF-8"?>
<svg id="uuid-687b02f1-ad67-4a86-8655-915ac4825dcb" data-name="FIL et SILHOUETTES" xmlns="http://www.w3.org/2000/svg" xmlns:xlink="http://www.w3.org/1999/xlink" viewBox="0 0 500 500">
  <defs>
    <pattern id="uuid-08d5987e-046c-4220-a83b-604bc5b01965" data-name="Lac asséché sableux USGS 17" x="0" y="0" width="72" height="72" patternTransform="translate(-23290.93 6750.53) rotate(-180) scale(2.31 -2.31)" patternUnits="userSpaceOnUse" viewBox="0 0 72 72">
      <g>
        <rect width="72" height="72" style="fill: none;"/>
        <path d="M21,3c-.06,0-.12-.02-.17-.07-.05-.05-.08-.11-.08-.18s.03-.13,.08-.18c.09-.09,.25-.09,.35,0,.05,.05,.07,.11,.07,.18,0,.06-.02,.12-.07,.17-.05,.06-.11,.08-.18,.08Z" style="fill: #1d1d1b;"/>
        <path d="M20,8.25c-.06,0-.13-.03-.18-.07-.04-.05-.07-.11-.07-.18s.03-.13,.07-.18c.1-.09,.26-.09,.36,0,.04,.05,.07,.11,.07,.18s-.03,.13-.07,.18c-.05,.05-.11,.07-.18,.07Z" style="fill: #1d1d1b;"/>
        <path d="M20.25,10.5c-.06,0-.13-.03-.17-.07-.05-.05-.08-.11-.08-.18s.03-.13,.07-.18c.1-.09,.27-.09,.36,0,.04,.05,.07,.11,.07,.18s-.03,.14-.08,.18c-.04,.04-.1,.07-.17,.07Z" style="fill: #1d1d1b;"/>
        <path d="M18,12.75c-.06,0-.12-.03-.17-.07-.05-.05-.08-.11-.08-.18s.03-.13,.07-.18c.11-.09,.26-.09,.36,0,.05,.05,.07,.11,.07,.18s-.02,.13-.07,.18c-.05,.04-.11,.07-.18,.07Z" style="fill: #1d1d1b;"/>
        <path d="M15.25,10.5c-.06,0-.12-.02-.17-.07-.05-.05-.08-.12-.08-.18,0-.07,.03-.13,.07-.18,.12-.1,.26-.09,.36,0,.05,.05,.07,.11,.07,.18,0,.06-.02,.13-.07,.17-.05,.06-.11,.08-.18,.08Z" style="fill: #1d1d1b;"/>
        <path d="M22.75,20c-.06,0-.12-.02-.17-.07-.05-.05-.08-.11-.08-.18,0-.06,.03-.13,.07-.17,.11-.11,.27-.1,.36,0,.05,.06,.07,.12,.07,.18s-.02,.13-.07,.18c-.05,.04-.11,.07-.18,.07Z" style="fill: #1d1d1b;"/>
        <path d="M15.25,23c-.06,0-.12-.02-.17-.07-.05-.05-.08-.11-.08-.18,0-.06,.03-.12,.07-.17,.12-.11,.26-.1,.36,0,.05,.05,.07,.12,.07,.18,0,.07-.02,.13-.07,.18-.05,.05-.11,.07-.18,.07Z" style="fill: #1d1d1b;"/>
        <path d="M14,24c-.07,0-.13-.03-.18-.08-.04-.04-.07-.1-.07-.17s.03-.13,.07-.18c.11-.1,.26-.09,.36,0,.05,.05,.07,.12,.07,.18,0,.07-.02,.13-.07,.18-.05,.04-.11,.07-.18,.07Z" style="fill: #1d1d1b;"/>
        <path d="M24,27c-.06,0-.12-.02-.17-.07-.05-.05-.08-.11-.08-.18s.03-.13,.07-.17c.11-.11,.26-.1,.36,0,.05,.06,.07,.12,.07,.18,0,.07-.02,.13-.07,.18-.05,.05-.11,.07-.18,.07Z" style="fill: #1d1d1b;"/>
        <path d="M30.75,25.75c-.06,0-.12-.02-.17-.07-.05-.05-.08-.11-.08-.18s.03-.13,.08-.18c.1-.09,.25-.09,.35,0,.05,.05,.07,.12,.07,.18s-.02,.13-.07,.18c-.05,.05-.11,.07-.18,.07Z" style="fill: #1d1d1b;"/>
        <path d="M31.25,23.25c-.06,0-.12-.03-.17-.07-.05-.05-.08-.11-.08-.18,0-.06,.03-.13,.07-.17,.11-.11,.26-.1,.36,0,.05,.06,.07,.12,.07,.18,0,.07-.02,.13-.07,.18-.05,.04-.11,.07-.18,.07Z" style="fill: #1d1d1b;"/>
        <path d="M29.25,18.25c-.06,0-.12-.02-.17-.07-.05-.05-.08-.11-.08-.18s.03-.13,.08-.18c.1-.09,.25-.09,.35,0,.05,.05,.07,.11,.07,.18s-.03,.13-.07,.18c-.05,.05-.12,.07-.18,.07Z" style="fill: #1d1d1b;"/>
        <path d="M32.25,18.25c-.06,0-.12-.02-.17-.07-.05-.05-.08-.11-.08-.18s.03-.13,.07-.18c.11-.09,.26-.09,.36,0,.04,.05,.07,.11,.07,.18s-.03,.13-.07,.18c-.05,.05-.11,.07-.18,.07Z" style="fill: #1d1d1b;"/>
        <path d="M32.5,13.75c-.06,0-.13-.03-.17-.07-.05-.05-.08-.11-.08-.18s.03-.13,.08-.18c.09-.09,.26-.09,.35,0,.05,.05,.07,.12,.07,.18s-.02,.12-.07,.17c-.05,.05-.11,.08-.18,.08Z" style="fill: #1d1d1b;"/>
        <path d="M31.75,11.75c-.06,0-.12-.02-.17-.07-.05-.05-.08-.11-.08-.18s.03-.13,.08-.18c.1-.09,.25-.09,.35,0,.05,.05,.07,.11,.07,.18s-.03,.13-.07,.18c-.05,.05-.11,.07-.18,.07Z" style="fill: #1d1d1b;"/>
        <path d="M29.25,10.75c-.07,0-.13-.03-.18-.07-.04-.05-.07-.11-.07-.18s.03-.13,.08-.18c.1-.09,.25-.09,.35,0,.05,.05,.07,.11,.07,.18s-.02,.13-.07,.18c-.05,.04-.11,.07-.18,.07Z" style="fill: #1d1d1b;"/>
        <path d="M32.25,7c-.06,0-.12-.02-.17-.07-.05-.05-.08-.11-.08-.18s.03-.13,.07-.18c.11-.09,.26-.09,.36,0,.05,.05,.07,.11,.07,.18s-.03,.13-.07,.18c-.05,.05-.11,.07-.18,.07Z" style="fill: #1d1d1b;"/>
        <path d="M32,3c-.06,0-.12-.03-.17-.07-.05-.05-.08-.11-.08-.18s.03-.13,.08-.18c.1-.09,.25-.09,.35,0,.05,.05,.07,.12,.07,.18s-.02,.13-.07,.18c-.05,.04-.11,.07-.18,.07Z" style="fill: #1d1d1b;"/>
        <path d="M29.25,3.25c-.06,0-.12-.02-.17-.07-.05-.05-.08-.11-.08-.18s.03-.13,.08-.18c.09-.09,.25-.09,.35,0,.05,.05,.07,.11,.07,.18,0,.06-.02,.13-.07,.17-.05,.06-.11,.08-.18,.08Z" style="fill: #1d1d1b;"/>
        <path d="M34,1.25c-.06,0-.13-.03-.17-.07-.05-.05-.08-.11-.08-.18s.03-.14,.08-.18c.09-.09,.26-.09,.35,0,.05,.05,.07,.11,.07,.18,0,.06-.02,.12-.07,.17-.05,.05-.11,.08-.18,.08Z" style="fill: #1d1d1b;"/>
        <path d="M41.5,7c-.06,0-.13-.03-.17-.07-.05-.05-.08-.11-.08-.18s.03-.13,.08-.18c.09-.09,.24-.09,.34,0,.06,.06,.08,.12,.08,.18s-.02,.12-.07,.17c-.05,.06-.11,.08-.18,.08Z" style="fill: #1d1d1b;"/>
        <path d="M45.5,6.75c-.06,0-.12-.02-.17-.07-.05-.05-.08-.11-.08-.18s.03-.13,.08-.18c.09-.09,.25-.09,.35,0,.05,.05,.07,.12,.07,.18s-.02,.13-.07,.18c-.05,.05-.12,.07-.18,.07Z" style="fill: #1d1d1b;"/>
        <path d="M40.25,10.25c-.06,0-.12-.02-.17-.07-.05-.05-.08-.12-.08-.18,0-.07,.03-.13,.07-.18,.11-.09,.26-.09,.36,0,.05,.05,.07,.11,.07,.18,0,.06-.02,.13-.07,.17-.05,.06-.11,.08-.18,.08Z" style="fill: #1d1d1b;"/>
        <path d="M45,11.75c-.06,0-.12-.02-.17-.07-.05-.05-.08-.11-.08-.18s.03-.13,.08-.18c.1-.09,.25-.09,.35,0,.04,.05,.07,.11,.07,.18s-.02,.13-.07,.18c-.05,.05-.11,.07-.18,.07Z" style="fill: #1d1d1b;"/>
        <path d="M45,13.5c-.06,0-.12-.02-.17-.07-.05-.05-.08-.11-.08-.18s.03-.13,.08-.18c.08-.09,.26-.09,.35,0,.05,.04,.07,.1,.07,.17s-.02,.13-.07,.18c-.05,.05-.11,.07-.18,.07Z" style="fill: #1d1d1b;"/>
        <path d="M47,14.25c-.06,0-.12-.02-.17-.07-.05-.05-.08-.11-.08-.18s.03-.13,.08-.18c.09-.09,.25-.09,.35,0,.05,.05,.07,.12,.07,.18s-.02,.13-.07,.18c-.05,.05-.11,.07-.18,.07Z" style="fill: #1d1d1b;"/>
        <path d="M47,16.25c-.06,0-.13-.03-.17-.07-.05-.05-.08-.11-.08-.18s.03-.13,.08-.18c.08-.08,.26-.09,.35,0,.05,.04,.07,.11,.07,.17s-.02,.13-.07,.18c-.05,.04-.11,.07-.18,.07Z" style="fill: #1d1d1b;"/>
        <path d="M47.25,22.75c-.06,0-.13-.03-.17-.07-.05-.04-.08-.11-.08-.18s.03-.13,.08-.18c.08-.08,.25-.09,.35,0,.05,.05,.07,.11,.07,.18s-.03,.13-.07,.18c-.05,.05-.11,.07-.18,.07Z" style="fill: #1d1d1b;"/>
        <path d="M39,20.75c-.06,0-.12-.02-.17-.07-.05-.05-.08-.11-.08-.18s.03-.13,.08-.18c.1-.09,.25-.09,.35,0,.04,.05,.07,.11,.07,.18s-.03,.13-.07,.18c-.05,.05-.11,.07-.18,.07Z" style="fill: #1d1d1b;"/>
        <path d="M50.25,13.5c-.06,0-.13-.03-.17-.07-.05-.05-.08-.11-.08-.18s.03-.13,.08-.18c.1-.09,.26-.09,.35,0,.05,.05,.07,.12,.07,.18s-.02,.13-.07,.18c-.05,.04-.11,.07-.18,.07Z" style="fill: #1d1d1b;"/>
        <path d="M52.25,12c-.06,0-.12-.02-.17-.07-.05-.05-.08-.11-.08-.18s.03-.13,.08-.18c.09-.09,.25-.09,.35,0,.05,.05,.07,.12,.07,.18s-.02,.13-.07,.18c-.05,.05-.11,.07-.18,.07Z" style="fill: #1d1d1b;"/>
        <path d="M54.75,11c-.06,0-.13-.03-.17-.07-.05-.05-.08-.12-.08-.18,0-.07,.03-.13,.08-.18,.09-.09,.25-.09,.35,0,.05,.05,.07,.11,.07,.18,0,.06-.02,.13-.07,.18-.05,.04-.11,.07-.18,.07Z" style="fill: #1d1d1b;"/>
        <path d="M54.75,6.75c-.07,0-.13-.03-.17-.07-.05-.06-.08-.12-.08-.18s.03-.12,.07-.17c.1-.1,.26-.1,.36,0,.05,.06,.07,.12,.07,.18s-.02,.12-.07,.17c-.05,.05-.11,.08-.18,.08Z" style="fill: #1d1d1b;"/>
        <path d="M56.5,.75c-.06,0-.13-.03-.17-.07-.05-.05-.08-.12-.08-.18s.03-.13,.07-.18c.1-.09,.26-.09,.36,0,.05,.06,.07,.12,.07,.18s-.02,.12-.07,.17c-.05,.05-.11,.08-.18,.08Z" style="fill: #1d1d1b;"/>
        <path d="M64,6.5c-.06,0-.13-.03-.17-.07-.05-.05-.08-.12-.08-.18s.03-.13,.07-.17c.1-.1,.26-.1,.36,0,.05,.06,.07,.12,.07,.18s-.02,.12-.07,.17c-.05,.05-.11,.08-.18,.08Z" style="fill: #1d1d1b;"/>
        <path d="M65,2.5c-.06,0-.13-.03-.17-.07-.05-.05-.08-.11-.08-.18s.03-.13,.08-.18c.09-.09,.25-.09,.35,0,.05,.05,.07,.11,.07,.18s-.02,.13-.07,.17c-.05,.06-.11,.08-.18,.08Z" style="fill: #1d1d1b;"/>
        <path d="M68,3c-.06,0-.13-.03-.17-.07-.05-.05-.08-.11-.08-.18s.03-.13,.07-.18c.1-.09,.27-.09,.36,0,.05,.05,.07,.12,.07,.18s-.02,.13-.07,.18c-.05,.04-.11,.07-.18,.07Z" style="fill: #1d1d1b;"/>
        <path d="M68,10.25c-.06,0-.13-.03-.17-.07-.05-.05-.08-.11-.08-.18s.03-.13,.07-.18c.1-.09,.26-.09,.36,0,.05,.05,.07,.12,.07,.18s-.02,.13-.07,.18c-.05,.04-.11,.07-.18,.07Z" style="fill: #1d1d1b;"/>
        <path d="M64.25,12.25c-.06,0-.13-.03-.17-.07-.05-.05-.08-.12-.08-.18s.03-.13,.07-.17c.09-.1,.25-.1,.35,0,.06,.05,.08,.12,.08,.18s-.02,.13-.07,.17c-.05,.06-.11,.08-.18,.08Z" style="fill: #1d1d1b;"/>
        <path d="M65.25,15.75c-.07,0-.13-.03-.17-.07-.05-.05-.08-.11-.08-.18s.03-.13,.08-.18c.07-.08,.26-.09,.35,0,.05,.04,.07,.11,.07,.17s-.02,.12-.07,.17c-.04,.05-.11,.08-.18,.08Z" style="fill: #1d1d1b;"/>
        <path d="M64,19.75c-.06,0-.13-.03-.17-.07-.05-.05-.08-.11-.08-.18s.03-.13,.08-.18c.08-.09,.25-.09,.35,0,.05,.05,.07,.12,.07,.18s-.02,.13-.07,.18c-.05,.04-.11,.07-.18,.07Z" style="fill: #1d1d1b;"/>
        <path d="M66.25,19.75c-.07,0-.13-.03-.18-.08-.04-.04-.07-.1-.07-.17,0-.06,.03-.13,.07-.17,.09-.1,.26-.1,.36,0,.05,.05,.07,.12,.07,.18,0,.07-.02,.13-.07,.18-.05,.04-.11,.07-.18,.07Z" style="fill: #1d1d1b;"/>
        <path d="M68,21.25c-.06,0-.13-.03-.17-.07-.05-.05-.08-.12-.08-.18s.03-.12,.07-.17c.1-.1,.27-.1,.36,0,.05,.06,.07,.12,.07,.18s-.02,.12-.07,.17c-.05,.05-.11,.08-.18,.08Z" style="fill: #1d1d1b;"/>
        <path d="M69.25,20.25c-.06,0-.12-.02-.17-.07-.05-.05-.08-.11-.08-.18s.03-.13,.08-.18c.09-.09,.25-.09,.35,0,.05,.05,.07,.11,.07,.18s-.02,.13-.07,.18c-.05,.05-.11,.07-.18,.07Z" style="fill: #1d1d1b;"/>
        <path d="M69.5,18c-.06,0-.12-.02-.17-.07-.05-.05-.08-.11-.08-.18s.03-.13,.08-.18c.09-.09,.25-.09,.35,0,.05,.05,.07,.11,.07,.18s-.02,.13-.07,.18c-.05,.05-.11,.07-.18,.07Z" style="fill: #1d1d1b;"/>
        <path d="M71.25,17.5c-.06,0-.13-.03-.17-.07-.05-.05-.08-.12-.08-.18s.03-.12,.07-.17c.11-.1,.26-.1,.36,0,.05,.06,.07,.12,.07,.18s-.02,.12-.07,.17c-.05,.05-.11,.08-.18,.08Z" style="fill: #1d1d1b;"/>
        <path d="M8,47c-.06,0-.13-.03-.18-.07-.04-.06-.07-.12-.07-.18,0-.07,.03-.13,.07-.18,.09-.09,.26-.09,.36,0,.05,.05,.07,.11,.07,.18,0,.06-.02,.13-.07,.17-.05,.06-.11,.08-.18,.08Z" style="fill: #1d1d1b;"/>
        <path d="M7,52.25c-.06,0-.12-.02-.17-.07-.05-.05-.08-.11-.08-.18s.03-.13,.07-.18c.11-.09,.26-.09,.36,0,.05,.05,.07,.12,.07,.18,0,.07-.02,.13-.07,.18-.05,.05-.11,.07-.18,.07Z" style="fill: #1d1d1b;"/>
        <path d="M7.25,54.5c-.06,0-.13-.03-.17-.07-.05-.05-.08-.11-.08-.18,0-.06,.03-.13,.07-.18,.1-.09,.26-.09,.36,0,.04,.05,.07,.11,.07,.18s-.03,.13-.07,.18c-.05,.04-.11,.07-.18,.07Z" style="fill: #1d1d1b;"/>
        <path d="M5,56.75c-.06,0-.13-.03-.17-.07-.05-.05-.08-.11-.08-.18s.03-.13,.07-.17c.1-.1,.26-.1,.36,0,.05,.05,.07,.11,.07,.18s-.03,.13-.07,.18c-.05,.05-.12,.07-.18,.07Z" style="fill: #1d1d1b;"/>
        <path d="M2.25,54.5c-.06,0-.12-.02-.17-.07-.05-.05-.08-.11-.08-.18,0-.06,.03-.13,.07-.17,.11-.11,.26-.1,.35,0,.06,.06,.08,.12,.08,.18s-.02,.13-.07,.18c-.06,.05-.12,.07-.18,.07Z" style="fill: #1d1d1b;"/>
        <path d="M9.75,64c-.06,0-.12-.02-.17-.07-.05-.05-.08-.11-.08-.18s.03-.13,.07-.18c.11-.09,.26-.09,.36,0,.05,.05,.07,.11,.07,.18s-.02,.13-.07,.18-.11,.07-.18,.07Z" style="fill: #1d1d1b;"/>
        <path d="M2.25,67c-.06,0-.12-.03-.17-.07-.05-.05-.08-.11-.08-.18s.03-.13,.07-.18c.1-.09,.26-.09,.36,0,.05,.05,.07,.11,.07,.18,0,.06-.02,.13-.07,.18-.06,.05-.12,.07-.18,.07Z" style="fill: #1d1d1b;"/>
        <path d="M1,68c-.06,0-.13-.03-.18-.07-.04-.05-.07-.11-.07-.18,0-.06,.03-.13,.07-.18,.1-.09,.27-.09,.36,0,.05,.05,.07,.12,.07,.18s-.02,.13-.07,.18c-.05,.04-.11,.07-.18,.07Z" style="fill: #1d1d1b;"/>
        <path d="M11,71c-.06,0-.12-.02-.17-.07-.05-.05-.08-.11-.08-.18s.03-.13,.07-.18c.11-.09,.26-.09,.36,0,.05,.05,.07,.12,.07,.18s-.02,.13-.07,.18c-.05,.05-.12,.07-.18,.07Z" style="fill: #1d1d1b;"/>
        <path d="M17.75,69.75c-.06,0-.12-.02-.17-.07-.05-.05-.08-.11-.08-.18s.03-.13,.07-.18c.11-.09,.26-.09,.36,0,.05,.05,.07,.11,.07,.18s-.03,.13-.07,.18c-.05,.05-.12,.07-.18,.07Z" style="fill: #1d1d1b;"/>
        <path d="M18.25,67.25c-.06,0-.12-.03-.17-.07-.05-.06-.08-.12-.08-.18,0-.07,.03-.13,.07-.18,.11-.09,.26-.09,.36,0,.05,.05,.07,.11,.07,.18,0,.06-.02,.13-.07,.17-.05,.05-.11,.08-.18,.08Z" style="fill: #1d1d1b;"/>
        <path d="M16.25,62.25c-.07,0-.13-.03-.18-.08-.04-.04-.07-.1-.07-.17s.03-.13,.07-.18c.1-.09,.26-.09,.36,0,.05,.05,.07,.11,.07,.18s-.02,.13-.07,.18c-.05,.04-.11,.07-.18,.07Z" style="fill: #1d1d1b;"/>
        <path d="M19.25,62.25c-.06,0-.13-.03-.17-.07-.05-.05-.08-.11-.08-.18s.03-.13,.07-.18c.1-.09,.27-.09,.36,0,.04,.04,.07,.11,.07,.18s-.03,.14-.08,.18c-.04,.04-.1,.07-.17,.07Z" style="fill: #1d1d1b;"/>
        <path d="M19.5,57.75c-.06,0-.12-.02-.17-.07-.05-.05-.08-.11-.08-.18,0-.06,.03-.13,.07-.17,.11-.11,.26-.1,.36,0,.05,.06,.07,.12,.07,.18s-.02,.13-.07,.18c-.05,.05-.11,.07-.18,.07Z" style="fill: #1d1d1b;"/>
        <path d="M18.75,55.75c-.06,0-.12-.02-.17-.07-.05-.05-.08-.11-.08-.18s.03-.13,.08-.18c.1-.09,.26-.09,.35,0,.05,.05,.07,.12,.07,.18s-.02,.12-.07,.17c-.05,.05-.11,.08-.18,.08Z" style="fill: #1d1d1b;"/>
        <path d="M16.25,54.75c-.06,0-.13-.03-.18-.07-.04-.05-.07-.11-.07-.18,0-.06,.03-.12,.07-.17,.1-.1,.26-.1,.36,0,.05,.05,.07,.12,.07,.18,0,.07-.02,.13-.07,.18-.05,.05-.11,.07-.18,.07Z" style="fill: #1d1d1b;"/>
        <path d="M19.25,51c-.06,0-.13-.03-.17-.07-.05-.05-.08-.12-.08-.18,0-.07,.03-.13,.07-.18,.1-.09,.27-.09,.36,0,.04,.04,.07,.11,.07,.18s-.02,.13-.07,.18c-.05,.04-.11,.07-.18,.07Z" style="fill: #1d1d1b;"/>
        <path d="M19,47c-.06,0-.13-.03-.17-.07-.05-.05-.08-.12-.08-.18,0-.07,.03-.13,.07-.18,.1-.09,.26-.09,.36,0,.04,.05,.07,.11,.07,.18,0,.06-.02,.13-.07,.17-.05,.06-.11,.08-.18,.08Z" style="fill: #1d1d1b;"/>
        <path d="M16.25,47.25c-.07,0-.13-.03-.18-.07-.04-.05-.07-.12-.07-.18,0-.07,.03-.13,.07-.18,.09-.09,.26-.09,.36,0,.05,.05,.07,.11,.07,.18,0,.06-.02,.13-.07,.18-.05,.05-.11,.07-.18,.07Z" style="fill: #1d1d1b;"/>
        <path d="M21,45.25c-.06,0-.12-.02-.17-.07-.05-.05-.08-.11-.08-.18s.03-.13,.08-.18c.1-.09,.25-.09,.35,0,.05,.05,.07,.12,.07,.18s-.02,.12-.07,.17c-.05,.06-.11,.08-.18,.08Z" style="fill: #1d1d1b;"/>
        <path d="M28.5,51c-.06,0-.13-.03-.17-.07-.05-.05-.08-.11-.08-.18s.03-.13,.08-.18c.09-.09,.26-.09,.35,0,.05,.06,.07,.12,.07,.18s-.02,.13-.07,.18c-.05,.04-.11,.07-.18,.07Z" style="fill: #1d1d1b;"/>
        <path d="M32.5,50.75c-.06,0-.13-.03-.17-.07-.05-.05-.08-.11-.08-.18s.03-.13,.08-.18c.09-.09,.25-.09,.35,0,.05,.05,.07,.12,.07,.18s-.02,.13-.07,.18c-.05,.04-.11,.07-.18,.07Z" style="fill: #1d1d1b;"/>
        <path d="M27.25,54.25c-.07,0-.13-.03-.18-.08-.04-.04-.07-.1-.07-.17s.03-.14,.08-.18c.09-.09,.26-.09,.35,0,.05,.05,.07,.11,.07,.18,0,.06-.02,.13-.07,.18-.04,.04-.11,.07-.18,.07Z" style="fill: #1d1d1b;"/>
        <path d="M32,55.75c-.06,0-.12-.03-.17-.07-.05-.05-.08-.11-.08-.18,0-.06,.03-.13,.07-.17,.11-.11,.26-.1,.36,0,.05,.06,.07,.12,.07,.18,0,.07-.02,.13-.07,.18-.05,.04-.11,.07-.18,.07Z" style="fill: #1d1d1b;"/>
        <path d="M32,57.5c-.06,0-.12-.02-.17-.07-.05-.05-.08-.11-.08-.18,0-.06,.03-.13,.07-.17,.11-.11,.26-.1,.36,0,.05,.06,.07,.12,.07,.18s-.02,.13-.07,.18c-.05,.05-.11,.07-.18,.07Z" style="fill: #1d1d1b;"/>
        <path d="M34,58.25c-.07,0-.13-.03-.18-.08-.04-.04-.07-.1-.07-.17s.03-.14,.08-.18c.09-.09,.26-.09,.35,0,.05,.05,.07,.11,.07,.18,0,.06-.02,.13-.07,.18-.04,.04-.11,.07-.18,.07Z" style="fill: #1d1d1b;"/>
        <path d="M34,60.25c-.06,0-.12-.02-.17-.07-.05-.05-.08-.11-.08-.18s.03-.13,.08-.18c.09-.09,.26-.09,.35,0,.05,.06,.07,.12,.07,.18s-.02,.13-.07,.18c-.05,.04-.11,.07-.18,.07Z" style="fill: #1d1d1b;"/>
        <path d="M34.25,66.75c-.06,0-.13-.03-.17-.07-.05-.05-.08-.11-.08-.18s.03-.13,.08-.18c.09-.09,.25-.09,.35,0,.05,.05,.07,.12,.07,.18s-.02,.13-.07,.18c-.05,.04-.11,.07-.18,.07Z" style="fill: #1d1d1b;"/>
        <path d="M26,64.75c-.06,0-.12-.02-.17-.07-.05-.05-.08-.11-.08-.18s.03-.13,.08-.18c.09-.09,.26-.09,.35,0,.05,.04,.07,.11,.07,.17,0,.07-.02,.13-.07,.18-.05,.05-.11,.07-.18,.07Z" style="fill: #1d1d1b;"/>
        <path d="M37.25,57.5c-.06,0-.13-.03-.17-.07-.05-.05-.08-.11-.08-.18s.03-.13,.08-.18c.09-.09,.25-.09,.34,0,.06,.05,.08,.12,.08,.18s-.02,.12-.07,.17c-.05,.06-.11,.08-.18,.08Z" style="fill: #1d1d1b;"/>
        <path d="M39.25,56c-.06,0-.13-.03-.17-.07-.05-.05-.08-.11-.08-.18s.03-.13,.08-.18c.09-.09,.25-.09,.35,0,.05,.05,.07,.12,.07,.18s-.02,.12-.07,.17c-.05,.06-.11,.08-.18,.08Z" style="fill: #1d1d1b;"/>
        <path d="M41.75,55c-.06,0-.13-.03-.17-.07-.05-.05-.08-.11-.08-.18s.03-.14,.08-.18c.09-.09,.26-.09,.35,0,.05,.05,.07,.11,.07,.18,0,.06-.02,.12-.07,.17-.05,.05-.11,.08-.18,.08Z" style="fill: #1d1d1b;"/>
        <path d="M41.75,50.75c-.06,0-.12-.02-.17-.07-.05-.05-.08-.11-.08-.18s.03-.13,.08-.18c.09-.09,.26-.09,.35,0,.05,.05,.07,.11,.07,.18,0,.06-.02,.13-.07,.18-.05,.04-.11,.07-.18,.07Z" style="fill: #1d1d1b;"/>
        <path d="M43.5,44.75c-.06,0-.12-.03-.17-.07-.05-.05-.08-.11-.08-.18s.03-.13,.08-.18c.09-.09,.25-.09,.35,0,.05,.05,.07,.12,.07,.18s-.02,.13-.07,.18c-.05,.05-.12,.07-.18,.07Z" style="fill: #1d1d1b;"/>
        <path d="M51,50.5c-.06,0-.12-.03-.17-.07-.05-.05-.08-.11-.08-.18s.03-.13,.08-.18c.09-.09,.25-.09,.35,0,.05,.05,.07,.11,.07,.18s-.02,.13-.07,.18c-.05,.05-.11,.07-.18,.07Z" style="fill: #1d1d1b;"/>
        <path d="M52,46.5c-.06,0-.13-.03-.17-.07-.05-.05-.08-.11-.08-.18s.03-.13,.08-.18c.09-.09,.25-.09,.35,0,.05,.06,.07,.12,.07,.18s-.02,.12-.07,.17c-.05,.06-.11,.08-.18,.08Z" style="fill: #1d1d1b;"/>
        <path d="M55,47c-.06,0-.12-.02-.17-.07-.05-.05-.08-.11-.08-.18s.03-.13,.08-.18c.09-.09,.25-.09,.35,0,.05,.05,.07,.12,.07,.18s-.02,.13-.07,.18c-.05,.05-.11,.07-.18,.07Z" style="fill: #1d1d1b;"/>
        <path d="M55,54.25c-.06,0-.12-.03-.17-.07-.05-.05-.08-.11-.08-.18s.03-.13,.08-.18c.09-.09,.25-.09,.35,0,.05,.05,.07,.12,.07,.18s-.02,.13-.07,.18c-.05,.05-.11,.07-.18,.07Z" style="fill: #1d1d1b;"/>
        <path d="M51.25,56.25c-.06,0-.13-.03-.17-.07-.05-.05-.08-.11-.08-.18s.03-.13,.08-.18c.09-.09,.25-.09,.35,0,.05,.05,.07,.11,.07,.18s-.02,.13-.07,.18c-.05,.04-.11,.07-.18,.07Z" style="fill: #1d1d1b;"/>
        <path d="M52.25,59.75c-.06,0-.12-.02-.17-.07-.05-.05-.08-.11-.08-.18s.03-.13,.08-.18c.09-.09,.25-.09,.35,0,.05,.06,.07,.12,.07,.18s-.02,.12-.07,.17c-.05,.06-.11,.08-.18,.08Z" style="fill: #1d1d1b;"/>
        <path d="M51,63.75c-.06,0-.13-.03-.17-.07-.05-.05-.08-.11-.08-.18s.03-.13,.08-.18c.09-.09,.25-.09,.35,0,.05,.05,.07,.12,.07,.18s-.02,.13-.07,.17c-.05,.06-.11,.08-.18,.08Z" style="fill: #1d1d1b;"/>
        <path d="M53.25,63.75c-.06,0-.13-.03-.17-.07-.05-.05-.08-.12-.08-.18s.03-.13,.07-.17c.1-.1,.26-.1,.36,0,.05,.06,.07,.12,.07,.18s-.02,.12-.07,.17c-.05,.05-.11,.08-.18,.08Z" style="fill: #1d1d1b;"/>
        <path d="M55,65.25c-.06,0-.12-.03-.17-.07-.05-.05-.08-.11-.08-.18s.03-.13,.08-.18c.09-.09,.25-.09,.35,0,.05,.05,.07,.12,.07,.18s-.02,.13-.07,.18c-.05,.05-.11,.07-.18,.07Z" style="fill: #1d1d1b;"/>
        <path d="M56.25,64.25c-.06,0-.12-.03-.17-.07-.05-.05-.08-.11-.08-.18s.03-.13,.08-.18c.09-.09,.25-.09,.35,0,.05,.05,.07,.12,.07,.18,0,.07-.02,.13-.07,.18-.05,.05-.11,.07-.18,.07Z" style="fill: #1d1d1b;"/>
        <path d="M56.5,62c-.06,0-.13-.03-.17-.07-.05-.06-.08-.12-.08-.18,0-.07,.03-.13,.08-.18,.07-.08,.26-.09,.35,0,.05,.04,.07,.11,.07,.17s-.02,.12-.07,.17c-.05,.05-.11,.08-.18,.08Z" style="fill: #1d1d1b;"/>
        <path d="M58.25,61.5c-.06,0-.13-.03-.17-.07-.05-.05-.08-.12-.08-.18s.03-.13,.07-.17c.1-.1,.27-.1,.36,0,.05,.06,.07,.12,.07,.18s-.02,.12-.07,.17c-.04,.05-.11,.08-.18,.08Z" style="fill: #1d1d1b;"/>
        <path d="M21,27c-.06,0-.12-.02-.17-.07-.05-.05-.08-.11-.08-.18s.03-.13,.08-.18c.1-.09,.25-.09,.35,0,.05,.05,.07,.12,.07,.18s-.02,.13-.07,.18c-.05,.05-.12,.07-.18,.07Z" style="fill: #1d1d1b;"/>
        <path d="M22.75,24c-.07,0-.13-.03-.18-.07-.04-.05-.07-.11-.07-.18s.03-.13,.08-.18c.1-.09,.26-.09,.35,0,.05,.05,.07,.12,.07,.18s-.02,.13-.07,.18c-.04,.04-.11,.07-.18,.07Z" style="fill: #1d1d1b;"/>
        <path d="M25.25,24.5c-.06,0-.12-.03-.17-.07-.05-.05-.08-.11-.08-.18s.03-.13,.08-.18c.1-.09,.25-.09,.35,0,.05,.05,.07,.12,.07,.18s-.02,.13-.07,.18c-.05,.04-.11,.07-.18,.07Z" style="fill: #1d1d1b;"/>
        <path d="M35.25,23.25c-.06,0-.12-.02-.17-.07-.05-.05-.08-.11-.08-.18s.03-.13,.08-.18c.1-.09,.25-.09,.35,0,.05,.05,.07,.11,.07,.18s-.03,.13-.07,.18c-.05,.05-.11,.07-.18,.07Z" style="fill: #1d1d1b;"/>
        <path d="M39,24.75c-.06,0-.12-.02-.17-.07-.05-.05-.08-.11-.08-.18s.03-.13,.08-.18c.1-.09,.25-.09,.35,0,.05,.05,.07,.11,.07,.18s-.03,.13-.07,.18c-.05,.05-.12,.07-.18,.07Z" style="fill: #1d1d1b;"/>
        <path d="M45,29.5c-.06,0-.12-.02-.17-.07-.05-.05-.08-.11-.08-.18s.03-.13,.08-.18c.1-.09,.25-.09,.35,0,.05,.05,.07,.11,.07,.18s-.02,.13-.07,.18c-.05,.05-.12,.07-.18,.07Z" style="fill: #1d1d1b;"/>
        <path d="M46.25,29c-.06,0-.13-.03-.17-.07-.05-.05-.08-.11-.08-.18s.03-.13,.08-.18c.09-.09,.25-.09,.34,0,.06,.06,.08,.12,.08,.18s-.02,.12-.07,.17c-.05,.06-.11,.08-.18,.08Z" style="fill: #1d1d1b;"/>
        <path d="M55.25,28c-.06,0-.13-.03-.17-.07-.05-.05-.08-.11-.08-.18s.03-.13,.08-.18c.09-.09,.25-.09,.35,0,.05,.05,.07,.12,.07,.18s-.02,.13-.07,.18c-.05,.04-.11,.07-.18,.07Z" style="fill: #1d1d1b;"/>
        <path d="M51.25,25.25c-.06,0-.12-.02-.17-.07-.05-.05-.08-.11-.08-.18s.03-.13,.08-.18c.09-.09,.25-.09,.35,0,.05,.05,.07,.11,.07,.18s-.03,.13-.07,.18c-.05,.05-.11,.07-.18,.07Z" style="fill: #1d1d1b;"/>
        <path d="M52,29.5c-.06,0-.13-.03-.17-.07-.05-.05-.08-.11-.08-.18s.03-.13,.08-.18c.09-.09,.25-.09,.35,0,.05,.06,.07,.12,.07,.18s-.02,.12-.07,.17c-.05,.06-.11,.08-.18,.08Z" style="fill: #1d1d1b;"/>
        <path d="M62.5,35.5c-.06,0-.13-.03-.17-.07-.05-.05-.08-.11-.08-.18s.03-.13,.08-.18c.08-.08,.24-.09,.34,0,.06,.05,.08,.12,.08,.18s-.02,.13-.07,.18c-.05,.05-.12,.07-.18,.07Z" style="fill: #1d1d1b;"/>
        <path d="M58.25,38.25c-.07,0-.13-.03-.17-.07-.05-.05-.08-.12-.08-.18s.03-.13,.07-.17c.1-.1,.27-.1,.36,0,.05,.06,.07,.12,.07,.18s-.02,.12-.07,.17c-.04,.05-.11,.08-.18,.08Z" style="fill: #1d1d1b;"/>
        <path d="M49,39c-.07,0-.13-.03-.17-.07-.05-.05-.08-.12-.08-.18s.03-.13,.07-.17c.1-.1,.26-.1,.36,0,.05,.06,.07,.12,.07,.18s-.02,.12-.07,.17c-.05,.05-.11,.08-.18,.08Z" style="fill: #1d1d1b;"/>
        <path d="M48,41.25c-.06,0-.12-.02-.17-.07-.05-.05-.08-.11-.08-.18s.03-.13,.08-.18c.09-.09,.24-.09,.34,0,.06,.05,.08,.12,.08,.18s-.02,.12-.07,.17c-.06,.06-.11,.08-.18,.08Z" style="fill: #1d1d1b;"/>
        <path d="M52,43c-.07,0-.13-.03-.18-.08-.04-.04-.07-.1-.07-.17s.03-.13,.08-.18c.09-.09,.25-.09,.35,0,.05,.05,.07,.12,.07,.18s-.02,.13-.07,.18c-.05,.04-.11,.07-.18,.07Z" style="fill: #1d1d1b;"/>
        <path d="M53.5,45c-.06,0-.13-.03-.17-.07-.05-.05-.08-.11-.08-.18s.03-.13,.08-.18c.08-.09,.25-.09,.35,0,.05,.05,.07,.12,.07,.18s-.02,.13-.07,.18c-.05,.04-.11,.07-.18,.07Z" style="fill: #1d1d1b;"/>
        <path d="M62.25,48c-.06,0-.13-.03-.17-.07-.05-.05-.08-.12-.08-.18s.03-.13,.07-.17c.1-.1,.26-.1,.36,0,.05,.06,.07,.12,.07,.18s-.02,.12-.07,.17c-.05,.05-.11,.08-.18,.08Z" style="fill: #1d1d1b;"/>
        <path d="M65,51.75c-.06,0-.12-.03-.17-.07-.05-.05-.08-.11-.08-.18s.03-.14,.08-.18c.09-.08,.25-.09,.35,0,.04,.05,.07,.11,.07,.18s-.02,.13-.07,.18c-.05,.05-.11,.07-.18,.07Z" style="fill: #1d1d1b;"/>
        <path d="M67,51.75c-.06,0-.13-.03-.17-.07-.05-.05-.08-.11-.08-.18s.03-.13,.08-.18c.08-.08,.25-.09,.35,0,.05,.05,.07,.11,.07,.18s-.02,.13-.07,.18c-.05,.05-.11,.07-.18,.07Z" style="fill: #1d1d1b;"/>
        <path d="M69.5,45c-.06,0-.12-.03-.17-.07-.05-.05-.08-.11-.08-.18s.03-.13,.08-.18c.09-.09,.25-.09,.35,0,.05,.05,.07,.11,.07,.18s-.02,.13-.07,.18c-.05,.05-.11,.07-.18,.07Z" style="fill: #1d1d1b;"/>
        <path d="M60,39c-.06,0-.12-.02-.17-.07-.05-.05-.08-.11-.08-.18s.03-.13,.08-.18c.09-.09,.25-.09,.35,0,.04,.05,.07,.11,.07,.18s-.03,.13-.07,.18c-.05,.05-.11,.07-.18,.07Z" style="fill: #1d1d1b;"/>
        <path d="M47.25,47.75c-.06,0-.13-.03-.17-.07-.05-.05-.08-.11-.08-.18s.03-.14,.08-.18c.08-.08,.25-.09,.35,0,.04,.05,.07,.11,.07,.18s-.02,.13-.07,.18c-.05,.05-.11,.07-.18,.07Z" style="fill: #1d1d1b;"/>
        <path d="M32.5,47c-.06,0-.12-.03-.17-.07-.05-.05-.08-.11-.08-.18s.03-.13,.08-.18c.09-.09,.26-.09,.35,0,.05,.05,.07,.12,.07,.18s-.02,.13-.07,.18c-.05,.04-.11,.07-.18,.07Z" style="fill: #1d1d1b;"/>
        <path d="M37,44.5c-.06,0-.12-.03-.17-.07-.05-.05-.08-.12-.08-.18,0-.07,.03-.13,.07-.17,.11-.11,.26-.1,.36,0,.05,.05,.07,.12,.07,.18s-.02,.13-.07,.17c-.05,.05-.11,.08-.18,.08Z" style="fill: #1d1d1b;"/>
        <path d="M26.25,37.75c-.06,0-.12-.03-.17-.07-.05-.05-.08-.11-.08-.18s.03-.13,.08-.18c.1-.09,.25-.09,.35,0,.05,.05,.07,.12,.07,.18s-.02,.13-.07,.18c-.05,.04-.11,.07-.18,.07Z" style="fill: #1d1d1b;"/>
        <path d="M29.75,35.5c-.06,0-.12-.02-.17-.07-.05-.05-.08-.11-.08-.18s.03-.13,.08-.18c.1-.09,.25-.09,.35,0,.05,.05,.07,.12,.07,.18s-.02,.12-.07,.17c-.05,.06-.11,.08-.18,.08Z" style="fill: #1d1d1b;"/>
        <path d="M17,28.5c-.06,0-.12-.02-.17-.07-.05-.05-.08-.11-.08-.18,0-.06,.03-.12,.07-.17,.11-.11,.26-.1,.36,0,.05,.05,.07,.12,.07,.18,0,.07-.02,.13-.07,.18-.05,.05-.11,.07-.18,.07Z" style="fill: #1d1d1b;"/>
        <path d="M10.5,29.5c-.06,0-.12-.02-.17-.07-.05-.05-.08-.11-.08-.18,0-.06,.03-.12,.07-.17,.11-.11,.26-.1,.36,0,.05,.06,.07,.12,.07,.18s-.02,.13-.07,.18c-.05,.05-.11,.07-.18,.07Z" style="fill: #1d1d1b;"/>
        <path d="M6,31.5c-.06,0-.12-.02-.17-.07-.05-.05-.08-.11-.08-.18,0-.06,.03-.12,.07-.17,.12-.11,.26-.1,.36,0,.05,.06,.07,.12,.07,.18,0,.07-.02,.13-.07,.18-.05,.05-.11,.07-.18,.07Z" style="fill: #1d1d1b;"/>
        <path d="M2.5,35.25c-.07,0-.13-.03-.17-.07-.05-.05-.08-.12-.08-.18,0-.07,.03-.13,.08-.18,.08-.09,.24-.09,.34,0,.06,.05,.08,.11,.08,.18,0,.06-.02,.13-.07,.17-.05,.06-.11,.08-.18,.08Z" style="fill: #1d1d1b;"/>
        <path d="M11.25,36.75c-.07,0-.13-.03-.18-.07-.04-.05-.07-.12-.07-.18,0-.07,.03-.13,.07-.18,.1-.09,.25-.09,.36,0,.05,.05,.07,.11,.07,.18s-.02,.13-.07,.18c-.05,.05-.11,.07-.18,.07Z" style="fill: #1d1d1b;"/>
        <path d="M17,42c-.06,0-.12-.02-.17-.07-.05-.05-.08-.11-.08-.18,0-.06,.03-.13,.07-.18,.11-.09,.26-.09,.36,0,.05,.05,.07,.11,.07,.18s-.03,.13-.07,.18c-.05,.05-.11,.07-.18,.07Z" style="fill: #1d1d1b;"/>
        <path d="M12.75,36c-.06,0-.13-.03-.17-.07-.05-.05-.08-.11-.08-.18,0-.06,.03-.13,.07-.17,.1-.1,.26-.1,.36,0,.05,.05,.07,.11,.07,.18s-.02,.13-.07,.18c-.05,.05-.12,.07-.18,.07Z" style="fill: #1d1d1b;"/>
        <path d="M26.5,30.25c-.06,0-.12-.02-.17-.07-.05-.05-.08-.11-.08-.18s.03-.13,.08-.18c.1-.09,.25-.09,.35,0,.05,.05,.07,.12,.07,.18s-.02,.13-.07,.18c-.05,.05-.11,.07-.18,.07Z" style="fill: #1d1d1b;"/>
        <path d="M37.75,31c-.06,0-.12-.02-.17-.07-.05-.05-.08-.11-.08-.18s.03-.13,.08-.18c.1-.09,.25-.09,.35,0,.05,.05,.07,.11,.07,.18s-.02,.13-.07,.18c-.05,.05-.12,.07-.18,.07Z" style="fill: #1d1d1b;"/>
        <path d="M39.5,32.5c-.06,0-.12-.02-.17-.07-.05-.05-.08-.11-.08-.18s.03-.13,.08-.18c.08-.09,.26-.09,.35,0,.05,.04,.07,.11,.07,.17s-.02,.13-.07,.18c-.05,.04-.11,.07-.18,.07Z" style="fill: #1d1d1b;"/>
        <path d="M28,42c-.06,0-.12-.03-.17-.07-.05-.05-.08-.12-.08-.18s.03-.12,.07-.17c.11-.1,.26-.1,.35,0,.06,.06,.08,.12,.08,.18s-.02,.13-.07,.17c-.05,.06-.11,.08-.18,.08Z" style="fill: #1d1d1b;"/>
        <path d="M6.5,20.5c-.06,0-.13-.03-.17-.07-.05-.05-.08-.12-.08-.18,0-.07,.03-.13,.07-.18,.1-.09,.26-.09,.36,0,.05,.05,.07,.11,.07,.18,0,.06-.02,.13-.07,.17-.05,.06-.11,.08-.18,.08Z" style="fill: #1d1d1b;"/>
        <path d="M10.25,20.25c-.06,0-.13-.03-.17-.07-.05-.05-.08-.11-.08-.18s.03-.13,.07-.18c.1-.09,.26-.09,.36,0,.05,.05,.07,.11,.07,.18s-.02,.13-.07,.18c-.05,.05-.11,.07-.18,.07Z" style="fill: #1d1d1b;"/>
        <path d="M11.75,23.5c-.06,0-.12-.02-.17-.07-.05-.05-.08-.11-.08-.18,0-.06,.03-.12,.07-.17,.11-.11,.26-.1,.36,0,.05,.06,.07,.12,.07,.18s-.02,.13-.07,.18c-.05,.05-.12,.07-.18,.07Z" style="fill: #1d1d1b;"/>
        <path d="M3,25.75c-.06,0-.13-.03-.17-.07-.05-.05-.08-.11-.08-.18s.03-.13,.07-.18c.1-.09,.26-.09,.36,0,.05,.05,.07,.11,.07,.18s-.02,.13-.07,.18c-.05,.05-.12,.07-.18,.07Z" style="fill: #1d1d1b;"/>
        <path d="M64.25,29.5c-.06,0-.13-.03-.17-.07-.05-.05-.08-.12-.08-.18s.03-.13,.07-.17c.1-.1,.25-.1,.35,0,.06,.05,.08,.12,.08,.18s-.02,.13-.07,.17c-.05,.06-.11,.08-.18,.08Z" style="fill: #1d1d1b;"/>
        <path d="M67.5,30.75c-.06,0-.13-.03-.17-.07-.05-.05-.08-.11-.08-.18,0-.06,.03-.13,.07-.17,.1-.1,.26-.1,.36,0,.05,.06,.07,.12,.07,.18s-.02,.13-.07,.18c-.05,.04-.11,.07-.18,.07Z" style="fill: #1d1d1b;"/>
        <path d="M69.5,29.75c-.06,0-.13-.03-.17-.07-.05-.05-.08-.11-.08-.18s.03-.13,.08-.18c.09-.09,.25-.09,.35,0,.05,.05,.07,.11,.07,.18s-.02,.13-.07,.18c-.05,.04-.11,.07-.18,.07Z" style="fill: #1d1d1b;"/>
        <path d="M7.25,15.75c-.07,0-.13-.03-.18-.08-.04-.04-.07-.1-.07-.17s.03-.13,.07-.18c.1-.09,.26-.09,.36,0,.04,.05,.07,.11,.07,.18s-.03,.13-.07,.18c-.05,.04-.11,.07-.18,.07Z" style="fill: #1d1d1b;"/>
        <path d="M1.5,9c-.06,0-.13-.03-.18-.07-.04-.05-.07-.11-.07-.18s.03-.13,.07-.18c.09-.09,.26-.09,.36,0,.05,.05,.07,.12,.07,.18s-.02,.13-.07,.18c-.05,.04-.11,.07-.18,.07Z" style="fill: #1d1d1b;"/>
        <path d="M14.5,6.5c-.06,0-.12-.02-.17-.07-.05-.05-.08-.11-.08-.18,0-.06,.03-.13,.07-.17,.11-.11,.26-.1,.36,0,.05,.05,.07,.11,.07,.18s-.02,.13-.07,.18c-.05,.05-.11,.07-.18,.07Z" style="fill: #1d1d1b;"/>
        <path d="M8.5,5.25c-.06,0-.12-.02-.17-.07-.05-.05-.08-.11-.08-.18s.03-.13,.07-.18c.1-.09,.27-.09,.36,0,.05,.04,.07,.1,.07,.17,0,.06-.02,.13-.07,.18-.05,.05-.11,.07-.18,.07Z" style="fill: #1d1d1b;"/>
        <path d="M3.5,2.5c-.07,0-.13-.03-.18-.08-.04-.04-.07-.1-.07-.17s.03-.13,.08-.18c.08-.09,.25-.09,.35,0,.04,.05,.07,.11,.07,.18s-.03,.13-.07,.18c-.05,.04-.11,.07-.18,.07Z" style="fill: #1d1d1b;"/>
        <path d="M3.75,6c-.06,0-.13-.03-.17-.07-.05-.05-.08-.11-.08-.18,0-.06,.03-.13,.07-.18,.09-.09,.26-.09,.36,0,.05,.05,.07,.11,.07,.18s-.02,.13-.07,.18c-.05,.05-.12,.07-.18,.07Z" style="fill: #1d1d1b;"/>
        <path d="M12.75,14.25c-.06,0-.13-.03-.17-.07-.05-.05-.08-.12-.08-.18,0-.07,.03-.13,.07-.18,.1-.09,.26-.09,.36,0,.05,.05,.07,.11,.07,.18,0,.06-.02,.13-.07,.17-.05,.06-.11,.08-.18,.08Z" style="fill: #1d1d1b;"/>
        <path d="M18.5,19.25c-.06,0-.12-.02-.17-.07-.05-.05-.08-.11-.08-.18,0-.06,.03-.13,.07-.17,.11-.11,.27-.1,.36,0,.05,.06,.07,.12,.07,.18,0,.07-.02,.13-.07,.18-.05,.04-.11,.07-.18,.07Z" style="fill: #1d1d1b;"/>
        <path d="M21.25,37c-.06,0-.12-.02-.17-.07-.05-.05-.08-.12-.08-.18,0-.07,.03-.13,.07-.18,.11-.09,.26-.09,.36,0,.05,.05,.07,.11,.07,.18,0,.06-.02,.13-.07,.17-.05,.06-.11,.08-.18,.08Z" style="fill: #1d1d1b;"/>
        <path d="M.75,44.25c-.06,0-.13-.03-.17-.07-.05-.05-.08-.11-.08-.18s.03-.13,.08-.18c.07-.08,.25-.09,.35,0,.04,.04,.07,.1,.07,.17s-.03,.13-.07,.18c-.05,.04-.11,.07-.18,.07Z" style="fill: #1d1d1b;"/>
        <path d="M66.5,37.25c-.06,0-.13-.03-.17-.07-.05-.05-.08-.11-.08-.18s.03-.13,.08-.18c.09-.09,.25-.09,.35,0,.05,.05,.07,.12,.07,.18s-.02,.13-.07,.18c-.05,.04-.11,.07-.18,.07Z" style="fill: #1d1d1b;"/>
        <path d="M68,66c-.06,0-.13-.03-.17-.07-.05-.05-.08-.12-.08-.18,0-.07,.03-.13,.07-.18,.1-.09,.26-.09,.36,0,.05,.05,.07,.12,.07,.18s-.02,.12-.07,.17c-.05,.05-.11,.08-.18,.08Z" style="fill: #1d1d1b;"/>
        <path d="M59.75,69.75c-.07,0-.13-.03-.18-.08-.04-.04-.07-.1-.07-.17s.03-.13,.08-.18c.09-.09,.25-.09,.35,0,.05,.05,.07,.12,.07,.18,0,.07-.02,.13-.07,.18-.05,.04-.11,.07-.18,.07Z" style="fill: #1d1d1b;"/>
        <path d="M40.5,68c-.06,0-.12-.02-.17-.07-.05-.05-.08-.11-.08-.18s.03-.13,.08-.18c.09-.09,.25-.09,.35,0,.05,.05,.07,.12,.07,.18s-.02,.13-.07,.18c-.05,.05-.12,.07-.18,.07Z" style="fill: #1d1d1b;"/>
        <path d="M44,63c-.06,0-.12-.02-.17-.07-.05-.04-.08-.11-.08-.18s.03-.13,.08-.18c.09-.09,.25-.09,.35,0,.05,.05,.07,.12,.07,.18,0,.07-.02,.13-.07,.18-.05,.05-.11,.07-.18,.07Z" style="fill: #1d1d1b;"/>
        <path d="M25.75,70c-.06,0-.12-.02-.17-.07-.05-.05-.08-.11-.08-.18s.03-.13,.08-.18c.09-.09,.25-.09,.35,0,.05,.05,.07,.11,.07,.18,0,.06-.02,.12-.07,.17-.05,.06-.11,.08-.18,.08Z" style="fill: #1d1d1b;"/>
        <path d="M4.5,60c-.06,0-.12-.02-.17-.07-.05-.05-.08-.11-.08-.18,0-.06,.03-.13,.07-.17,.11-.11,.26-.1,.36,0,.05,.06,.07,.12,.07,.18s-.02,.13-.07,.18c-.05,.05-.12,.07-.18,.07Z" style="fill: #1d1d1b;"/>
        <path d="M26.5,59.5c-.06,0-.12-.02-.17-.07-.05-.05-.08-.11-.08-.18s.03-.13,.08-.18c.1-.09,.25-.09,.35,0,.05,.05,.07,.11,.07,.18,0,.06-.02,.13-.07,.18-.05,.05-.11,.07-.18,.07Z" style="fill: #1d1d1b;"/>
        <path d="M37.25,48.5c-.06,0-.12-.03-.17-.07-.05-.05-.08-.11-.08-.18s.03-.13,.08-.18c.09-.09,.24-.09,.34,0,.06,.05,.08,.12,.08,.18s-.02,.13-.07,.18c-.06,.05-.12,.07-.18,.07Z" style="fill: #1d1d1b;"/>
        <path d="M22,41.75c-.06,0-.12-.02-.17-.07-.05-.05-.08-.11-.08-.18s.03-.13,.08-.18c.1-.09,.25-.09,.35,0,.05,.05,.07,.12,.07,.18s-.02,.13-.07,.18c-.05,.05-.12,.07-.18,.07Z" style="fill: #1d1d1b;"/>
        <path d="M8.75,40.25c-.06,0-.13-.03-.17-.07-.05-.05-.08-.12-.08-.18,0-.07,.03-.13,.08-.18,.09-.09,.25-.09,.35,0,.04,.05,.07,.11,.07,.18s-.02,.13-.07,.18c-.05,.05-.11,.07-.18,.07Z" style="fill: #1d1d1b;"/>
        <path d="M24,29c-.06,0-.12-.02-.17-.07-.05-.05-.08-.11-.08-.18s.03-.13,.08-.18c.1-.09,.25-.09,.35,0,.05,.05,.07,.12,.07,.18s-.02,.12-.07,.17c-.05,.06-.11,.08-.18,.08Z" style="fill: #1d1d1b;"/>
        <path d="M41.5,34.5c-.06,0-.13-.03-.17-.07-.05-.05-.08-.11-.08-.18s.03-.13,.08-.18c.09-.09,.25-.09,.34,0,.06,.06,.08,.12,.08,.18s-.02,.12-.07,.17c-.05,.06-.11,.08-.18,.08Z" style="fill: #1d1d1b;"/>
        <path d="M51.5,37.5c-.06,0-.13-.03-.17-.07-.05-.05-.08-.11-.08-.18s.03-.13,.08-.18c.09-.09,.25-.09,.35,0,.05,.05,.07,.12,.07,.18s-.02,.13-.07,.17c-.05,.06-.11,.08-.18,.08Z" style="fill: #1d1d1b;"/>
        <path d="M60.75,46c-.06,0-.12-.03-.17-.07-.05-.05-.08-.11-.08-.18s.03-.14,.08-.18c.09-.09,.25-.09,.35,0,.05,.05,.07,.11,.07,.18s-.02,.13-.07,.18c-.05,.04-.11,.07-.18,.07Z" style="fill: #1d1d1b;"/>
        <path d="M67.5,43.75c-.06,0-.13-.03-.17-.07-.05-.05-.08-.11-.08-.18s.03-.13,.08-.18c.08-.08,.25-.09,.35,0,.05,.05,.07,.12,.07,.18s-.02,.13-.07,.18c-.05,.04-.11,.07-.18,.07Z" style="fill: #1d1d1b;"/>
        <path d="M51.25,66.25c-.06,0-.12-.02-.17-.07-.05-.05-.08-.11-.08-.18s.03-.13,.08-.18c.09-.09,.25-.09,.35,0,.05,.05,.07,.11,.07,.18s-.03,.13-.07,.18c-.05,.05-.11,.07-.18,.07Z" style="fill: #1d1d1b;"/>
        <path d="M40,37.75c-.06,0-.13-.03-.17-.07-.05-.05-.08-.11-.08-.18s.03-.13,.08-.18c.09-.09,.26-.09,.35,0,.05,.05,.07,.12,.07,.18s-.02,.12-.07,.17c-.05,.05-.11,.08-.18,.08Z" style="fill: #1d1d1b;"/>
        <path d="M53.25,15c-.06,0-.13-.03-.17-.07-.05-.05-.08-.11-.08-.18s.03-.13,.08-.18c.07-.08,.26-.09,.35,0,.05,.04,.07,.11,.07,.17s-.02,.13-.07,.18c-.05,.04-.11,.07-.18,.07Z" style="fill: #1d1d1b;"/>
        <path d="M34,16c-.07,0-.13-.03-.18-.08-.04-.04-.07-.1-.07-.17s.03-.14,.08-.18c.09-.09,.26-.09,.35,0,.05,.05,.07,.11,.07,.18,0,.06-.02,.13-.07,.18-.05,.04-.11,.07-.18,.07Z" style="fill: #1d1d1b;"/>
        <path d="M27.5,13.5c-.06,0-.12-.02-.17-.07-.05-.05-.08-.11-.08-.18s.03-.13,.07-.17c.11-.11,.26-.1,.36,0,.05,.05,.07,.12,.07,.18,0,.07-.02,.13-.07,.18-.05,.05-.11,.07-.18,.07Z" style="fill: #1d1d1b;"/>
        <path d="M12.75,19.25c-.06,0-.13-.03-.17-.07-.05-.05-.08-.11-.08-.18,0-.06,.03-.12,.07-.17,.1-.1,.26-.1,.36,0,.05,.05,.07,.12,.07,.18,0,.07-.02,.13-.07,.18-.05,.05-.11,.07-.18,.07Z" style="fill: #1d1d1b;"/>
        <path d="M19.75,26.5c-.06,0-.12-.02-.17-.07-.05-.05-.08-.11-.08-.18,0-.06,.03-.12,.07-.17,.11-.11,.26-.1,.36,0,.05,.05,.07,.12,.07,.18,0,.07-.02,.13-.07,.18-.05,.05-.12,.07-.18,.07Z" style="fill: #1d1d1b;"/>
        <path d="M49.5,4.5c-.06,0-.13-.03-.17-.07-.05-.04-.08-.11-.08-.18s.03-.14,.08-.18c.08-.08,.25-.09,.35,0,.05,.05,.07,.12,.07,.18s-.02,.13-.07,.18c-.05,.04-.11,.07-.18,.07Z" style="fill: #1d1d1b;"/>
        <path d="M11.75,1.75c-.06,0-.12-.02-.17-.07-.05-.05-.08-.11-.08-.18,0-.06,.03-.13,.07-.18,.1-.09,.27-.09,.36,0,.05,.05,.07,.12,.07,.18s-.02,.13-.07,.18c-.05,.05-.11,.07-.18,.07Z" style="fill: #1d1d1b;"/>
        <path d="M55.25,3.75c-.06,0-.13-.03-.17-.07-.05-.05-.08-.11-.08-.18s.03-.13,.08-.18c.08-.09,.25-.09,.35,0,.05,.05,.07,.12,.07,.18s-.02,.13-.07,.18c-.05,.04-.11,.07-.18,.07Z" style="fill: #1d1d1b;"/>
        <path d="M59,20.75c-.06,0-.13-.03-.17-.07-.05-.05-.08-.11-.08-.18s.03-.13,.08-.18c.08-.09,.25-.09,.35,0,.05,.06,.07,.12,.07,.18s-.02,.12-.07,.17c-.05,.06-.11,.08-.18,.08Z" style="fill: #1d1d1b;"/>
        <path d="M67.5,57.25c-.06,0-.13-.03-.17-.07-.05-.05-.08-.12-.08-.18,0-.07,.03-.13,.08-.18,.09-.09,.25-.09,.35,0,.05,.05,.07,.12,.07,.18s-.02,.12-.07,.17c-.05,.05-.11,.08-.18,.08Z" style="fill: #1d1d1b;"/>
        <path d="M47.25,69.75c-.06,0-.13-.03-.17-.07-.05-.04-.08-.11-.08-.18s.03-.14,.08-.18c.08-.08,.25-.09,.35,0,.04,.05,.07,.11,.07,.18s-.03,.13-.07,.18c-.05,.05-.11,.07-.18,.07Z" style="fill: #1d1d1b;"/>
        <path d="M5.25,69.75c-.06,0-.13-.03-.17-.07-.05-.05-.08-.11-.08-.18,0-.06,.03-.12,.07-.17,.1-.1,.26-.1,.36,0,.05,.05,.07,.12,.07,.18,0,.07-.02,.13-.07,.18s-.12,.07-.18,.07Z" style="fill: #1d1d1b;"/>
        <path d="M4.75,40.25c-.06,0-.13-.03-.18-.07-.04-.05-.07-.11-.07-.18s.03-.13,.07-.18c.09-.09,.26-.09,.36,0,.05,.05,.07,.12,.07,.18s-.02,.13-.07,.18c-.05,.04-.11,.07-.18,.07Z" style="fill: #1d1d1b;"/>
        <path d="M69.75,12.75c-.07,0-.13-.03-.17-.07-.05-.05-.08-.11-.08-.18s.03-.13,.08-.18c.09-.09,.25-.09,.35,0,.05,.05,.07,.12,.07,.18s-.02,.13-.07,.18c-.05,.04-.11,.07-.18,.07Z" style="fill: #1d1d1b;"/>
        <path d="M23.25,14c-.06,0-.12-.02-.17-.07-.05-.05-.08-.11-.08-.18s.03-.13,.07-.17c.11-.11,.26-.1,.36,0,.05,.06,.07,.12,.07,.18s-.02,.13-.07,.18c-.05,.05-.11,.07-.18,.07Z" style="fill: #1d1d1b;"/>
        <path d="M20.5,17.25c-.06,0-.13-.03-.17-.07-.05-.04-.08-.11-.08-.18s.03-.14,.08-.18c.07-.08,.26-.09,.35,0,.05,.04,.07,.11,.07,.17s-.02,.13-.07,.18c-.05,.04-.11,.07-.18,.07Z" style="fill: #1d1d1b;"/>
        <path d="M14.75,17.25c-.06,0-.12-.02-.17-.07-.05-.05-.08-.11-.08-.18,0-.06,.03-.13,.07-.18,.11-.09,.26-.09,.36,0,.05,.05,.07,.12,.07,.18s-.02,.13-.07,.18c-.05,.05-.11,.07-.18,.07Z" style="fill: #1d1d1b;"/>
        <path d="M2.75,13.25c-.07,0-.13-.03-.17-.07-.05-.05-.08-.12-.08-.18,0-.07,.03-.13,.08-.18,.09-.09,.25-.09,.35,0,.04,.05,.07,.11,.07,.18s-.02,.13-.07,.18c-.05,.04-.11,.07-.18,.07Z" style="fill: #1d1d1b;"/>
        <path d="M6,11.75c-.06,0-.12-.02-.17-.07-.05-.05-.08-.12-.08-.18,0-.07,.03-.13,.07-.18,.12-.1,.26-.09,.36,0,.05,.05,.07,.11,.07,.18,0,.06-.02,.12-.07,.17-.05,.06-.11,.08-.18,.08Z" style="fill: #1d1d1b;"/>
        <path d="M7,2.75c-.06,0-.12-.02-.17-.07-.05-.05-.08-.12-.08-.18,0-.07,.03-.13,.07-.18,.11-.09,.26-.09,.36,0,.05,.05,.07,.12,.07,.18s-.02,.12-.07,.17c-.05,.06-.11,.08-.18,.08Z" style="fill: #1d1d1b;"/>
        <path d="M10,8.25c-.07,0-.13-.03-.18-.07-.04-.05-.07-.12-.07-.18,0-.07,.03-.13,.07-.18,.09-.09,.26-.09,.36,0,.05,.05,.07,.11,.07,.18,0,.06-.02,.13-.07,.17-.05,.06-.11,.08-.18,.08Z" style="fill: #1d1d1b;"/>
        <path d="M16,8.25c-.06,0-.13-.03-.18-.07-.04-.05-.07-.11-.07-.18s.03-.13,.08-.18c.1-.09,.25-.09,.35,0,.05,.05,.07,.12,.07,.18s-.02,.13-.07,.18c-.05,.04-.11,.07-.18,.07Z" style="fill: #1d1d1b;"/>
        <path d="M16.5,3.25c-.06,0-.12-.02-.17-.07-.05-.05-.08-.11-.08-.18s.03-.13,.07-.18c.11-.1,.26-.09,.36,0,.05,.05,.07,.11,.07,.18s-.02,.13-.07,.18c-.05,.05-.12,.07-.18,.07Z" style="fill: #1d1d1b;"/>
        <path d="M25.75,7c-.06,0-.12-.02-.17-.07-.05-.05-.08-.11-.08-.18s.03-.13,.08-.18c.1-.09,.25-.09,.35,0,.05,.05,.07,.12,.07,.18s-.02,.13-.07,.18c-.05,.05-.11,.07-.18,.07Z" style="fill: #1d1d1b;"/>
        <path d="M37,7.5c-.06,0-.12-.02-.17-.07-.05-.05-.08-.11-.08-.18s.03-.13,.08-.18c.09-.09,.26-.09,.35,0,.05,.05,.07,.11,.07,.18s-.02,.13-.07,.18c-.05,.05-.12,.07-.18,.07Z" style="fill: #1d1d1b;"/>
        <path d="M40.5,4.5c-.06,0-.13-.03-.17-.07-.05-.04-.08-.11-.08-.18s.03-.13,.08-.18c.09-.09,.25-.09,.35,0,.05,.06,.07,.12,.07,.18,0,.07-.02,.13-.07,.18-.05,.04-.11,.07-.18,.07Z" style="fill: #1d1d1b;"/>
        <path d="M37.5,4.25c-.06,0-.13-.03-.17-.07-.05-.04-.08-.11-.08-.18s.03-.13,.08-.18c.08-.09,.25-.09,.35,0,.05,.06,.07,.12,.07,.18s-.02,.13-.07,.18c-.05,.05-.11,.07-.18,.07Z" style="fill: #1d1d1b;"/>
        <path d="M43.25,2.25c-.07,0-.13-.03-.18-.08-.04-.04-.07-.1-.07-.17s.03-.13,.08-.18c.09-.09,.25-.09,.35,0,.05,.05,.07,.12,.07,.18s-.02,.13-.07,.18c-.05,.04-.11,.07-.18,.07Z" style="fill: #1d1d1b;"/>
        <path d="M49.5,8.25c-.06,0-.13-.03-.17-.07-.05-.04-.08-.11-.08-.18s.03-.14,.08-.18c.08-.09,.25-.09,.35,0,.05,.05,.07,.12,.07,.18s-.02,.13-.07,.18c-.05,.04-.11,.07-.18,.07Z" style="fill: #1d1d1b;"/>
        <path d="M46,9.25c-.06,0-.13-.03-.17-.07-.05-.05-.08-.11-.08-.18s.03-.13,.08-.18c.08-.08,.25-.09,.35,0,.05,.05,.07,.12,.07,.18s-.02,.13-.07,.18c-.05,.04-.11,.07-.18,.07Z" style="fill: #1d1d1b;"/>
        <path d="M35.75,11c-.06,0-.13-.03-.17-.07-.05-.05-.08-.11-.08-.18s.03-.13,.08-.18c.09-.09,.25-.09,.35,0,.05,.05,.07,.12,.07,.18s-.02,.13-.07,.18c-.05,.04-.11,.07-.18,.07Z" style="fill: #1d1d1b;"/>
        <path d="M39.25,15c-.06,0-.12-.02-.17-.07-.05-.05-.08-.11-.08-.18s.03-.13,.08-.18c.09-.09,.25-.09,.35,0,.05,.06,.07,.12,.07,.18s-.02,.13-.07,.18c-.05,.05-.11,.07-.18,.07Z" style="fill: #1d1d1b;"/>
        <path d="M24.75,18c-.06,0-.12-.02-.17-.07-.05-.05-.08-.11-.08-.18s.03-.13,.07-.18c.1-.09,.27-.09,.36,0,.05,.05,.07,.11,.07,.18s-.02,.13-.07,.18c-.05,.05-.11,.07-.18,.07Z" style="fill: #1d1d1b;"/>
        <path d="M8.25,27.25c-.06,0-.12-.02-.17-.07-.05-.05-.08-.11-.08-.18s.03-.13,.07-.18c.12-.1,.26-.09,.36,0,.05,.05,.07,.12,.07,.18,0,.07-.02,.13-.07,.18-.05,.04-.11,.07-.18,.07Z" style="fill: #1d1d1b;"/>
        <path d="M16,31.75c-.06,0-.13-.03-.18-.07-.04-.05-.07-.11-.07-.18s.03-.13,.08-.18c.1-.09,.25-.09,.35,0,.05,.05,.07,.12,.07,.18s-.02,.13-.07,.18c-.05,.04-.11,.07-.18,.07Z" style="fill: #1d1d1b;"/>
        <path d="M10.5,33.5c-.06,0-.12-.02-.17-.07-.05-.05-.08-.12-.08-.18,0-.07,.03-.13,.07-.18,.11-.1,.26-.09,.36,0,.05,.05,.07,.12,.07,.18s-.02,.12-.07,.17c-.05,.06-.11,.08-.18,.08Z" style="fill: #1d1d1b;"/>
        <path d="M5.25,37c-.06,0-.13-.03-.17-.07-.05-.05-.08-.11-.08-.18,0-.06,.03-.12,.07-.17,.1-.1,.26-.1,.36,0,.05,.05,.07,.12,.07,.18,0,.07-.02,.13-.07,.18-.05,.05-.12,.07-.18,.07Z" style="fill: #1d1d1b;"/>
        <path d="M2.75,32c-.06,0-.13-.03-.17-.07-.05-.05-.08-.12-.08-.18,0-.07,.03-.13,.08-.18,.09-.09,.25-.09,.35,0,.04,.05,.07,.11,.07,.18s-.02,.13-.07,.18c-.05,.04-.11,.07-.18,.07Z" style="fill: #1d1d1b;"/>
        <path d="M7.5,25c-.07,0-.13-.03-.18-.07-.04-.05-.07-.11-.07-.18s.03-.13,.07-.18c.11-.09,.25-.09,.35,0,.06,.05,.08,.12,.08,.18s-.02,.13-.07,.18c-.05,.04-.11,.07-.18,.07Z" style="fill: #1d1d1b;"/>
        <path d="M3.25,20.5c-.06,0-.13-.03-.17-.07-.05-.05-.08-.11-.08-.18,0-.06,.03-.13,.07-.17,.1-.1,.26-.1,.36,0,.05,.05,.07,.12,.07,.18,0,.07-.02,.13-.07,.18-.05,.05-.12,.07-.18,.07Z" style="fill: #1d1d1b;"/>
        <path d="M20.5,30.75c-.06,0-.13-.03-.17-.07-.05-.05-.08-.11-.08-.18s.03-.13,.08-.18c.09-.09,.25-.09,.35,0,.05,.06,.07,.12,.07,.18s-.02,.12-.07,.17c-.05,.05-.11,.08-.18,.08Z" style="fill: #1d1d1b;"/>
        <path d="M17.5,35.5c-.06,0-.12-.03-.17-.07-.05-.06-.08-.12-.08-.18,0-.07,.03-.13,.07-.18,.11-.09,.26-.09,.36,0,.05,.05,.07,.11,.07,.18,0,.06-.02,.13-.07,.17-.05,.05-.11,.08-.18,.08Z" style="fill: #1d1d1b;"/>
        <path d="M16,39c-.06,0-.12-.02-.17-.07-.05-.05-.08-.11-.08-.18s.03-.13,.08-.18c.09-.09,.25-.09,.35,0,.05,.05,.07,.12,.07,.18s-.02,.13-.07,.18c-.05,.05-.12,.07-.18,.07Z" style="fill: #1d1d1b;"/>
        <path d="M12.75,41.25c-.06,0-.13-.03-.17-.07-.05-.05-.08-.11-.08-.18,0-.06,.03-.13,.07-.18,.1-.09,.26-.09,.36,0,.05,.05,.07,.11,.07,.18s-.02,.13-.07,.18c-.05,.04-.11,.07-.18,.07Z" style="fill: #1d1d1b;"/>
        <path d="M12.75,46.5c-.07,0-.13-.03-.17-.07-.05-.05-.08-.12-.08-.18,0-.07,.03-.13,.07-.18,.1-.09,.26-.09,.36,0,.05,.05,.07,.11,.07,.18s-.02,.13-.07,.18c-.05,.05-.11,.07-.18,.07Z" style="fill: #1d1d1b;"/>
        <path d="M4,46.75c-.06,0-.13-.03-.17-.07-.05-.05-.08-.11-.08-.18,0-.06,.03-.13,.07-.18,.1-.09,.26-.09,.35,0,.06,.05,.08,.12,.08,.18,0,.07-.02,.13-.07,.18-.05,.05-.12,.07-.18,.07Z" style="fill: #1d1d1b;"/>
        <path d="M5.75,48.5c-.07,0-.13-.03-.18-.08-.04-.04-.07-.1-.07-.17s.03-.13,.07-.18c.1-.09,.26-.09,.36,0,.05,.05,.07,.11,.07,.18s-.02,.13-.07,.18c-.05,.04-.11,.07-.18,.07Z" style="fill: #1d1d1b;"/>
        <path d="M11,50.5c-.06,0-.12-.02-.17-.07-.05-.05-.08-.11-.08-.18,0-.06,.03-.13,.07-.17,.11-.11,.26-.1,.36,0,.05,.06,.07,.12,.07,.18s-.02,.13-.07,.18c-.05,.05-.12,.07-.18,.07Z" style="fill: #1d1d1b;"/>
        <path d="M11,54.5c-.06,0-.13-.03-.18-.07-.04-.05-.07-.11-.07-.18s.03-.13,.07-.18c.11-.09,.26-.09,.36,0,.05,.05,.07,.12,.07,.18s-.02,.13-.07,.18c-.05,.04-.11,.07-.18,.07Z" style="fill: #1d1d1b;"/>
        <path d="M15.5,58.5c-.06,0-.12-.03-.17-.07-.05-.05-.08-.11-.08-.18s.03-.13,.07-.18c.11-.09,.26-.09,.36,0,.05,.05,.07,.12,.07,.18s-.02,.13-.07,.18c-.05,.04-.11,.07-.18,.07Z" style="fill: #1d1d1b;"/>
        <path d="M10,59.75c-.07,0-.13-.03-.18-.07-.04-.05-.07-.12-.07-.18,0-.07,.03-.13,.07-.18,.1-.09,.25-.09,.36,0,.05,.05,.07,.11,.07,.18,0,.06-.02,.13-.07,.18-.05,.05-.11,.07-.18,.07Z" style="fill: #1d1d1b;"/>
        <path d="M6,63.5c-.06,0-.12-.02-.17-.07-.05-.05-.08-.12-.08-.18,0-.07,.03-.13,.07-.18,.12-.1,.26-.09,.36,0,.05,.05,.07,.11,.07,.18,0,.06-.02,.12-.07,.17-.05,.06-.11,.08-.18,.08Z" style="fill: #1d1d1b;"/>
        <path d="M2.25,62c-.06,0-.12-.02-.17-.07-.05-.05-.08-.11-.08-.18s.03-.13,.07-.18c.11-.09,.25-.09,.35,0,.06,.05,.08,.12,.08,.18s-.02,.13-.07,.18c-.06,.05-.12,.07-.18,.07Z" style="fill: #1d1d1b;"/>
        <path d="M7.25,67.75c-.06,0-.13-.03-.17-.07-.05-.05-.08-.12-.08-.18,0-.07,.03-.13,.07-.18,.1-.09,.26-.09,.36,0,.04,.05,.07,.11,.07,.18s-.02,.13-.07,.17c-.05,.06-.11,.08-.18,.08Z" style="fill: #1d1d1b;"/>
        <path d="M13.5,69.5c-.06,0-.12-.02-.17-.07-.05-.05-.08-.12-.08-.18,0-.07,.03-.13,.07-.18,.11-.09,.26-.09,.36,0,.05,.05,.07,.12,.07,.18s-.02,.12-.07,.17c-.05,.06-.11,.08-.18,.08Z" style="fill: #1d1d1b;"/>
        <path d="M13.5,65.75c-.06,0-.12-.02-.17-.07-.05-.05-.08-.11-.08-.18,0-.06,.03-.13,.07-.17,.11-.11,.26-.1,.36,0,.05,.06,.07,.12,.07,.18s-.02,.13-.07,.18c-.05,.05-.11,.07-.18,.07Z" style="fill: #1d1d1b;"/>
        <path d="M21.5,68.5c-.06,0-.12-.02-.17-.07-.05-.05-.08-.11-.08-.18s.03-.13,.08-.18c.09-.09,.25-.09,.35,0,.05,.05,.07,.12,.07,.18s-.02,.12-.07,.17c-.05,.06-.11,.08-.18,.08Z" style="fill: #1d1d1b;"/>
        <path d="M23,65.75c-.06,0-.12-.02-.17-.07-.05-.05-.08-.11-.08-.18,0-.06,.03-.12,.07-.17,.11-.11,.26-.1,.36,0,.05,.05,.07,.12,.07,.18,0,.07-.02,.13-.07,.18-.05,.05-.11,.07-.18,.07Z" style="fill: #1d1d1b;"/>
        <path d="M22.25,60c-.06,0-.12-.02-.17-.07-.05-.05-.08-.11-.08-.18,0-.06,.03-.12,.07-.17,.11-.11,.26-.1,.36,0,.05,.05,.07,.12,.07,.18,0,.07-.02,.13-.07,.18-.05,.05-.12,.07-.18,.07Z" style="fill: #1d1d1b;"/>
        <path d="M24.25,57.5c-.06,0-.12-.02-.17-.07-.05-.05-.08-.11-.08-.18s.03-.13,.08-.18c.1-.09,.25-.09,.35,0,.05,.05,.07,.12,.07,.18s-.02,.13-.07,.18c-.05,.05-.11,.07-.18,.07Z" style="fill: #1d1d1b;"/>
        <path d="M22,53.25c-.06,0-.12-.02-.17-.07-.05-.05-.08-.11-.08-.18s.03-.13,.07-.17c.11-.11,.26-.1,.36,0,.05,.06,.07,.12,.07,.18s-.02,.13-.07,.18c-.05,.05-.11,.07-.18,.07Z" style="fill: #1d1d1b;"/>
        <path d="M26.25,47.75c-.06,0-.12-.02-.17-.07-.05-.05-.08-.11-.08-.18s.03-.13,.08-.18c.09-.09,.25-.09,.35,0,.05,.05,.07,.12,.07,.18s-.02,.13-.07,.18c-.05,.05-.11,.07-.18,.07Z" style="fill: #1d1d1b;"/>
        <path d="M25.75,43.5c-.06,0-.12-.02-.17-.07-.05-.05-.08-.11-.08-.18s.03-.13,.07-.18c.11-.09,.26-.09,.36,0,.05,.06,.07,.12,.07,.18,0,.07-.02,.13-.07,.18-.05,.05-.11,.07-.18,.07Z" style="fill: #1d1d1b;"/>
        <path d="M31.25,37.5c-.06,0-.12-.03-.17-.07-.05-.05-.08-.12-.08-.18s.03-.13,.07-.17c.11-.11,.26-.1,.36,0,.05,.06,.07,.12,.07,.18s-.02,.12-.07,.17c-.05,.05-.11,.08-.18,.08Z" style="fill: #1d1d1b;"/>
        <path d="M32.25,31c-.06,0-.12-.02-.17-.07-.05-.05-.08-.11-.08-.18,0-.06,.03-.12,.07-.17,.11-.11,.26-.1,.36,0,.05,.05,.07,.12,.07,.18,0,.07-.03,.13-.07,.18-.05,.05-.11,.07-.18,.07Z" style="fill: #1d1d1b;"/>
        <path d="M26,34c-.06,0-.12-.02-.17-.07-.05-.05-.08-.11-.08-.18s.03-.13,.08-.18c.1-.09,.25-.09,.35,0,.05,.05,.07,.12,.07,.18s-.02,.13-.07,.18c-.05,.05-.11,.07-.18,.07Z" style="fill: #1d1d1b;"/>
        <path d="M34.25,27.75c-.06,0-.13-.03-.17-.07-.05-.05-.08-.11-.08-.18s.03-.13,.08-.18c.09-.09,.25-.09,.35,0,.05,.06,.07,.12,.07,.18s-.02,.13-.07,.18c-.05,.04-.11,.07-.18,.07Z" style="fill: #1d1d1b;"/>
        <path d="M37.25,28.5c-.06,0-.13-.03-.17-.07-.05-.05-.08-.11-.08-.18s.03-.13,.08-.18c.09-.09,.25-.09,.34,0,.06,.05,.08,.12,.08,.18s-.02,.12-.07,.17c-.05,.06-.11,.08-.18,.08Z" style="fill: #1d1d1b;"/>
        <path d="M41.75,25.75c-.06,0-.12-.03-.17-.07-.05-.05-.08-.11-.08-.18s.03-.13,.08-.18c.09-.09,.26-.09,.35,0,.05,.06,.07,.12,.07,.18s-.02,.12-.07,.17c-.05,.05-.11,.08-.18,.08Z" style="fill: #1d1d1b;"/>
        <path d="M43,20.75c-.06,0-.12-.02-.17-.07-.05-.05-.08-.11-.08-.18s.03-.13,.08-.18c.09-.09,.25-.09,.35,0,.05,.05,.07,.12,.07,.18s-.02,.13-.07,.18c-.05,.05-.12,.07-.18,.07Z" style="fill: #1d1d1b;"/>
        <path d="M36.5,19.25c-.06,0-.13-.03-.17-.07-.05-.04-.08-.11-.08-.18s.03-.14,.08-.18c.08-.08,.25-.09,.35,0,.05,.05,.07,.12,.07,.18s-.02,.13-.07,.18c-.05,.05-.11,.07-.18,.07Z" style="fill: #1d1d1b;"/>
        <path d="M27.75,22.25c-.06,0-.12-.03-.17-.07-.05-.05-.08-.12-.08-.18s.03-.13,.07-.17c.11-.11,.26-.1,.36,0,.05,.05,.07,.11,.07,.18s-.02,.13-.07,.18c-.05,.04-.11,.07-.18,.07Z" style="fill: #1d1d1b;"/>
        <path d="M52,22c-.06,0-.13-.03-.17-.07-.05-.05-.08-.11-.08-.18s.03-.13,.08-.18c.09-.09,.25-.09,.35,0,.05,.06,.07,.12,.07,.18s-.02,.12-.07,.17c-.05,.05-.11,.08-.18,.08Z" style="fill: #1d1d1b;"/>
        <path d="M43.25,17.75c-.06,0-.13-.03-.17-.07-.05-.05-.08-.11-.08-.18,0-.06,.03-.13,.07-.18,.11-.09,.26-.09,.36,0,.05,.06,.07,.12,.07,.18s-.02,.12-.07,.17c-.05,.06-.11,.08-.18,.08Z" style="fill: #1d1d1b;"/>
        <path d="M50.5,18c-.06,0-.13-.03-.17-.07-.05-.05-.08-.11-.08-.18s.03-.13,.08-.18c.08-.09,.25-.09,.35,0,.05,.06,.07,.12,.07,.18s-.02,.12-.07,.17c-.05,.05-.11,.08-.18,.08Z" style="fill: #1d1d1b;"/>
        <path d="M59.5,17.25c-.06,0-.13-.03-.17-.07-.05-.05-.08-.11-.08-.18s.03-.13,.08-.18c.08-.09,.25-.09,.35,0,.05,.05,.07,.12,.07,.18s-.02,.13-.07,.18c-.05,.04-.11,.07-.18,.07Z" style="fill: #1d1d1b;"/>
        <path d="M58.25,14c-.06,0-.13-.03-.17-.07-.05-.05-.08-.11-.08-.18s.03-.13,.08-.18c.08-.09,.26-.09,.35,0,.05,.05,.07,.11,.07,.18,0,.06-.02,.13-.07,.18-.05,.04-.11,.07-.18,.07Z" style="fill: #1d1d1b;"/>
        <path d="M61.5,11c-.06,0-.12-.02-.17-.07-.05-.05-.08-.11-.08-.18s.03-.14,.08-.18c.09-.09,.25-.09,.35,0,.04,.05,.07,.11,.07,.18s-.03,.13-.07,.18c-.05,.05-.11,.07-.18,.07Z" style="fill: #1d1d1b;"/>
        <path d="M58.75,7.5c-.06,0-.12-.02-.17-.07-.05-.05-.08-.11-.08-.18s.03-.13,.08-.18c.09-.09,.25-.09,.35,0,.05,.05,.07,.11,.07,.18s-.02,.13-.07,.18c-.05,.05-.11,.07-.18,.07Z" style="fill: #1d1d1b;"/>
        <path d="M60,4.75c-.06,0-.13-.03-.17-.07-.05-.05-.08-.11-.08-.18s.03-.13,.07-.18c.11-.09,.26-.09,.36,0,.05,.05,.07,.11,.07,.18s-.02,.13-.07,.17c-.05,.06-.11,.08-.18,.08Z" style="fill: #1d1d1b;"/>
        <path d="M67.5,6c-.06,0-.13-.03-.17-.07-.05-.05-.08-.12-.08-.18s.03-.13,.07-.17c.1-.1,.26-.1,.36,0,.05,.06,.07,.12,.07,.18s-.02,.12-.07,.17c-.05,.05-.11,.08-.18,.08Z" style="fill: #1d1d1b;"/>
        <path d="M69.5,8c-.06,0-.12-.03-.17-.07-.05-.05-.08-.11-.08-.18,0-.06,.03-.13,.07-.18,.11-.09,.26-.09,.36,0,.05,.05,.07,.12,.07,.18,0,.07-.02,.13-.07,.18-.05,.05-.11,.07-.18,.07Z" style="fill: #1d1d1b;"/>
        <path d="M65.75,9.75c-.06,0-.13-.03-.17-.07-.05-.05-.08-.11-.08-.18s.03-.13,.08-.18c.08-.09,.26-.09,.35,0,.05,.05,.07,.12,.07,.18s-.02,.13-.07,.18c-.05,.04-.11,.07-.18,.07Z" style="fill: #1d1d1b;"/>
        <path d="M61.75,16.5c-.06,0-.13-.03-.17-.07-.05-.05-.08-.11-.08-.18s.03-.13,.08-.18c.09-.09,.25-.09,.35,0,.05,.05,.07,.12,.07,.18s-.02,.13-.07,.17c-.05,.06-.11,.08-.18,.08Z" style="fill: #1d1d1b;"/>
        <path d="M60.25,23.75c-.06,0-.12-.03-.17-.07-.05-.05-.08-.11-.08-.18s.03-.13,.08-.18c.09-.09,.25-.09,.35,0,.04,.05,.07,.11,.07,.18s-.02,.13-.07,.18c-.05,.05-.11,.07-.18,.07Z" style="fill: #1d1d1b;"/>
        <path d="M55.5,23.75c-.06,0-.13-.03-.17-.07-.05-.05-.08-.12-.08-.18s.03-.13,.08-.18c.09-.09,.25-.09,.35,0,.05,.05,.07,.12,.07,.18s-.02,.13-.07,.18c-.05,.04-.11,.07-.18,.07Z" style="fill: #1d1d1b;"/>
        <path d="M55.5,18.75c-.06,0-.13-.03-.17-.07-.05-.05-.08-.12-.08-.18s.03-.13,.08-.18c.09-.09,.25-.09,.35,0,.05,.05,.07,.12,.07,.18s-.02,.13-.07,.18c-.05,.04-.11,.07-.18,.07Z" style="fill: #1d1d1b;"/>
        <path d="M65,25.75c-.06,0-.12-.03-.17-.07-.05-.05-.08-.11-.08-.18s.03-.13,.08-.18c.09-.09,.25-.09,.35,0,.05,.05,.07,.12,.07,.18,0,.07-.02,.13-.07,.18-.05,.05-.11,.07-.18,.07Z" style="fill: #1d1d1b;"/>
        <path d="M61.25,27c-.06,0-.13-.03-.17-.07-.05-.05-.08-.11-.08-.18s.03-.13,.08-.18c.09-.09,.25-.09,.35,0,.05,.05,.07,.11,.07,.18s-.03,.13-.07,.18c-.05,.04-.11,.07-.18,.07Z" style="fill: #1d1d1b;"/>
        <path d="M57.75,30.75c-.06,0-.12-.02-.17-.07-.05-.05-.08-.11-.08-.18s.03-.13,.08-.18c.09-.09,.25-.09,.35,0,.05,.05,.07,.11,.07,.18s-.02,.13-.07,.17c-.05,.06-.11,.08-.18,.08Z" style="fill: #1d1d1b;"/>
        <path d="M52.75,32.75c-.06,0-.13-.03-.17-.07-.05-.05-.08-.11-.08-.18s.03-.13,.08-.18c.09-.09,.25-.09,.35,0,.05,.05,.07,.12,.07,.18s-.02,.13-.07,.17c-.05,.06-.11,.08-.18,.08Z" style="fill: #1d1d1b;"/>
        <path d="M47.5,33.75c-.06,0-.12-.03-.17-.07-.05-.05-.08-.11-.08-.18s.03-.13,.08-.18c.09-.09,.25-.09,.34,0,.06,.06,.08,.12,.08,.18s-.02,.12-.07,.17c-.06,.06-.11,.08-.18,.08Z" style="fill: #1d1d1b;"/>
        <path d="M44.25,39.25c-.06,0-.12-.03-.17-.07-.05-.05-.08-.11-.08-.18s.03-.13,.08-.18c.09-.09,.25-.09,.35,0,.05,.05,.07,.11,.07,.18s-.02,.13-.07,.18c-.05,.05-.12,.07-.18,.07Z" style="fill: #1d1d1b;"/>
        <path d="M34,41.5c-.06,0-.12-.02-.17-.07-.05-.05-.08-.11-.08-.18s.03-.13,.08-.18c.09-.09,.25-.09,.35,0,.05,.05,.07,.12,.07,.18s-.02,.13-.07,.18c-.05,.04-.11,.07-.18,.07Z" style="fill: #1d1d1b;"/>
        <path d="M40.75,48c-.06,0-.12-.02-.17-.07-.05-.05-.08-.11-.08-.18s.03-.13,.08-.18c.1-.09,.25-.09,.35,0,.04,.05,.07,.11,.07,.18s-.03,.13-.07,.18c-.05,.05-.11,.07-.18,.07Z" style="fill: #1d1d1b;"/>
        <path d="M45.75,52.25c-.06,0-.12-.02-.17-.07-.05-.05-.08-.11-.08-.18s.03-.13,.08-.18c.09-.09,.25-.09,.35,0,.05,.05,.07,.11,.07,.18s-.03,.13-.07,.18c-.05,.05-.11,.07-.18,.07Z" style="fill: #1d1d1b;"/>
        <path d="M46.5,56.75c-.06,0-.12-.03-.17-.07-.05-.05-.08-.11-.08-.18s.03-.13,.08-.18c.09-.09,.25-.09,.35,0,.05,.05,.07,.12,.07,.18s-.02,.13-.07,.17c-.05,.06-.11,.08-.18,.08Z" style="fill: #1d1d1b;"/>
        <path d="M42,59.5c-.06,0-.12-.02-.17-.07-.05-.05-.08-.11-.08-.18s.03-.13,.08-.18c.1-.09,.25-.09,.35,0,.04,.05,.07,.11,.07,.18s-.02,.13-.07,.18c-.05,.05-.12,.07-.18,.07Z" style="fill: #1d1d1b;"/>
        <path d="M40,62.75c-.06,0-.12-.03-.17-.07-.05-.05-.08-.11-.08-.18s.03-.14,.08-.18c.09-.09,.26-.09,.35,0,.05,.05,.07,.11,.07,.18,0,.06-.02,.13-.07,.18-.05,.04-.11,.07-.18,.07Z" style="fill: #1d1d1b;"/>
        <path d="M36,62.75c-.06,0-.12-.02-.17-.07-.05-.05-.08-.11-.08-.18s.03-.13,.08-.18c.1-.09,.26-.09,.35,0,.05,.06,.07,.12,.07,.18s-.02,.13-.07,.18c-.05,.04-.11,.07-.18,.07Z" style="fill: #1d1d1b;"/>
        <path d="M36.5,52.75c-.07,0-.13-.03-.17-.07-.05-.05-.08-.11-.08-.18s.03-.13,.08-.18c.09-.09,.25-.09,.35,0,.05,.06,.07,.12,.07,.18s-.02,.12-.07,.17c-.05,.05-.11,.08-.18,.08Z" style="fill: #1d1d1b;"/>
        <path d="M30,63.5c-.06,0-.13-.03-.17-.07-.05-.05-.08-.11-.08-.18s.03-.13,.08-.18c.09-.09,.25-.09,.35,0,.05,.05,.07,.12,.07,.18s-.02,.13-.07,.17c-.05,.05-.11,.08-.18,.08Z" style="fill: #1d1d1b;"/>
        <path d="M31.5,68.5c-.07,0-.13-.03-.18-.08-.04-.04-.07-.1-.07-.17s.03-.14,.08-.18c.09-.08,.25-.09,.34,0,.06,.05,.08,.11,.08,.18,0,.06-.02,.13-.07,.18-.05,.04-.11,.07-.18,.07Z" style="fill: #1d1d1b;"/>
        <path d="M37,71c-.06,0-.12-.02-.17-.07-.05-.05-.08-.11-.08-.18s.03-.13,.08-.18c.1-.09,.25-.09,.35,0,.05,.05,.07,.11,.07,.18s-.02,.13-.07,.18c-.05,.05-.11,.07-.18,.07Z" style="fill: #1d1d1b;"/>
        <path d="M58.75,57c-.06,0-.12-.02-.17-.07-.05-.05-.08-.11-.08-.18s.03-.13,.08-.18c.09-.09,.25-.09,.35,0,.05,.05,.07,.11,.07,.18s-.02,.13-.07,.18c-.05,.05-.11,.07-.18,.07Z" style="fill: #1d1d1b;"/>
        <path d="M63,57c-.06,0-.12-.03-.17-.07-.05-.05-.08-.11-.08-.18s.03-.13,.08-.18c.09-.09,.25-.09,.35,0,.05,.05,.07,.11,.07,.18s-.02,.13-.07,.17c-.05,.06-.11,.08-.18,.08Z" style="fill: #1d1d1b;"/>
        <path d="M60,50.75c-.06,0-.12-.03-.17-.07-.05-.05-.08-.11-.08-.18s.03-.14,.08-.18c.09-.09,.25-.09,.35,0,.04,.05,.07,.11,.07,.18s-.02,.13-.07,.18c-.05,.04-.11,.07-.18,.07Z" style="fill: #1d1d1b;"/>
        <path d="M54.5,50.5c-.07,0-.13-.03-.17-.07-.05-.05-.08-.12-.08-.18s.03-.13,.07-.17c.1-.1,.26-.1,.36,0,.05,.06,.07,.12,.07,.18s-.02,.12-.07,.17c-.05,.05-.11,.08-.18,.08Z" style="fill: #1d1d1b;"/>
        <path d="M59.25,44.25c-.06,0-.13-.03-.17-.07-.05-.05-.08-.12-.08-.18s.03-.13,.07-.17c.1-.1,.27-.1,.36,0,.05,.06,.07,.12,.07,.18s-.02,.12-.07,.17c-.04,.05-.11,.08-.18,.08Z" style="fill: #1d1d1b;"/>
        <path d="M54.75,41.75c-.06,0-.13-.03-.17-.07-.05-.05-.08-.12-.08-.18s.03-.13,.08-.18c.08-.09,.25-.09,.35,0,.05,.05,.07,.12,.07,.18s-.02,.13-.07,.18c-.05,.04-.11,.07-.18,.07Z" style="fill: #1d1d1b;"/>
        <path d="M55.75,35.5c-.06,0-.12-.02-.17-.07-.05-.05-.08-.11-.08-.18s.03-.13,.08-.18c.09-.09,.25-.09,.35,0,.05,.05,.07,.11,.07,.18s-.02,.13-.07,.18c-.05,.05-.11,.07-.18,.07Z" style="fill: #1d1d1b;"/>
        <path d="M62.5,42.25c-.06,0-.13-.03-.17-.07-.05-.05-.08-.11-.08-.18s.03-.13,.08-.18c.08-.08,.24-.09,.34,0,.06,.05,.08,.12,.08,.18s-.02,.13-.07,.18c-.05,.05-.12,.07-.18,.07Z" style="fill: #1d1d1b;"/>
        <path d="M67,47.5c-.06,0-.13-.03-.17-.07-.05-.05-.08-.11-.08-.18s.03-.13,.08-.18c.08-.08,.25-.09,.35,0,.05,.05,.07,.11,.07,.18s-.03,.13-.07,.18c-.05,.05-.11,.07-.18,.07Z" style="fill: #1d1d1b;"/>
        <path d="M69.5,54.25c-.06,0-.13-.03-.17-.07-.05-.05-.08-.11-.08-.18s.03-.13,.08-.18c.09-.09,.25-.09,.35,0,.05,.05,.07,.11,.07,.18s-.02,.13-.07,.18c-.05,.04-.11,.07-.18,.07Z" style="fill: #1d1d1b;"/>
        <path d="M63.5,61.75c-.06,0-.13-.03-.17-.07-.05-.05-.08-.12-.08-.18,0-.07,.03-.13,.08-.18,.07-.08,.25-.1,.35,0,.05,.05,.07,.12,.07,.18s-.02,.12-.07,.17c-.05,.06-.11,.08-.18,.08Z" style="fill: #1d1d1b;"/>
        <path d="M69.25,63.5c-.06,0-.12-.02-.17-.07-.05-.05-.08-.11-.08-.18s.03-.13,.08-.18c.09-.09,.25-.09,.35,0,.05,.05,.07,.12,.07,.18s-.02,.13-.07,.17c-.05,.06-.11,.08-.18,.08Z" style="fill: #1d1d1b;"/>
        <path d="M64.75,65.5c-.07,0-.13-.03-.17-.07-.05-.05-.08-.12-.08-.18s.03-.12,.07-.17c.1-.1,.27-.1,.36,0,.05,.06,.07,.12,.07,.18s-.02,.12-.07,.17c-.04,.05-.11,.08-.18,.08Z" style="fill: #1d1d1b;"/>
        <path d="M65.75,68.25c-.06,0-.13-.03-.17-.07-.05-.05-.08-.11-.08-.18s.03-.13,.08-.18c.08-.09,.26-.09,.35,0,.05,.05,.07,.12,.07,.18,0,.07-.02,.13-.07,.18-.05,.04-.11,.07-.18,.07Z" style="fill: #1d1d1b;"/>
        <path d="M69.25,70.5c-.06,0-.13-.03-.17-.07-.05-.05-.08-.12-.08-.18,0-.07,.03-.13,.08-.18,.09-.09,.25-.09,.35,0,.05,.05,.07,.11,.07,.18,0,.06-.02,.13-.07,.17-.05,.06-.11,.08-.18,.08Z" style="fill: #1d1d1b;"/>
        <path d="M62.5,70.25c-.06,0-.13-.03-.17-.07-.05-.05-.08-.11-.08-.18s.03-.13,.08-.18c.08-.08,.24-.1,.34,0,.06,.05,.08,.12,.08,.18s-.02,.13-.07,.18c-.06,.05-.12,.07-.18,.07Z" style="fill: #1d1d1b;"/>
        <path d="M60.75,65.75c-.06,0-.13-.03-.17-.07-.05-.05-.08-.11-.08-.18s.03-.13,.08-.18c.09-.09,.25-.09,.35,0,.05,.05,.07,.12,.07,.18s-.02,.13-.07,.17c-.05,.06-.11,.08-.18,.08Z" style="fill: #1d1d1b;"/>
        <path d="M52.75,69.75c-.06,0-.13-.03-.17-.07-.05-.05-.08-.11-.08-.18s.03-.13,.08-.18c.09-.09,.25-.09,.35,0,.05,.05,.07,.12,.07,.18s-.02,.13-.07,.17c-.05,.06-.11,.08-.18,.08Z" style="fill: #1d1d1b;"/>
        <path d="M44.75,66.5c-.07,0-.13-.03-.17-.07-.05-.05-.08-.11-.08-.18s.03-.13,.08-.18c.09-.09,.25-.09,.35,0,.05,.05,.07,.11,.07,.18,0,.06-.02,.13-.07,.17-.05,.05-.11,.08-.18,.08Z" style="fill: #1d1d1b;"/>
        <path d="M44.5,71.25c-.06,0-.12-.03-.17-.07-.05-.05-.08-.11-.08-.18s.03-.13,.08-.18c.09-.09,.25-.09,.35,0,.05,.05,.07,.11,.07,.18s-.02,.13-.07,.18c-.05,.05-.12,.07-.18,.07Z" style="fill: #1d1d1b;"/>
        <path d="M28.5,71.25c-.07,0-.13-.03-.18-.08-.04-.04-.07-.1-.07-.17s.03-.13,.08-.18c.09-.09,.25-.09,.35,0,.05,.05,.07,.12,.07,.18s-.02,.13-.07,.18c-.04,.04-.11,.07-.18,.07Z" style="fill: #1d1d1b;"/>
        <path d="M.75,29.5c-.06,0-.13-.03-.17-.07-.05-.05-.08-.12-.08-.18,0-.07,.03-.13,.08-.18,.08-.09,.24-.09,.35,0,.04,.05,.07,.11,.07,.18s-.02,.13-.07,.18c-.05,.05-.11,.07-.18,.07Z" style="fill: #1d1d1b;"/>
        <path d="M24.5,1c-.06,0-.12-.02-.17-.07-.05-.05-.08-.12-.08-.18,0-.07,.03-.13,.07-.18,.11-.09,.26-.09,.36,0,.04,.05,.07,.11,.07,.18s-.02,.13-.07,.17c-.05,.06-.11,.08-.18,.08Z" style="fill: #1d1d1b;"/>
        <path d="M13.25,5c-.07,0-.13-.03-.18-.07-.04-.05-.07-.12-.07-.18,0-.07,.03-.13,.07-.18,.09-.09,.26-.09,.36,0,.05,.05,.07,.11,.07,.18,0,.06-.02,.13-.07,.17-.05,.06-.11,.08-.18,.08Z" style="fill: #1d1d1b;"/>
        <path d="M71,35.25c-.06,0-.13-.03-.17-.07-.05-.05-.08-.11-.08-.18s.03-.13,.08-.18c.08-.08,.25-.09,.35,0,.05,.05,.07,.11,.07,.18s-.02,.13-.07,.18c-.05,.05-.11,.07-.18,.07Z" style="fill: #1d1d1b;"/>
      </g>
    </pattern>
  </defs>
  <g>
    <path d="M160.19,461.2c58.37-6.1,116.84,2.35,175.25,3.37,29.68,.52,59.37-.15,89.03-1.24,14.46-.53,28.91-1.17,43.36-1.82,9.92-.44,20.33-.38,27.27-8.54,5.13-6.02,2.85-13.51-1.85-17.44-3.43-50.5-1.86-101.25,5.3-151.37,1.01-7.07-3.72-12.16-9.09-13.86-.36-.38-.75-.76-1.16-1.14-3.24-2.9-6.94-3.54-10.27-2.75-.22-.26-.41-.54-.56-.83-1.34-2.59-1.69-5.6-1.16-8.44,1.45-7.74-3.23-14.01-11.12-14.6-2.98-.22-.71-19.41-.96-21.9-.76-7.53-3.06-14.3-6.06-21.18-4.8-11-21.41-4.77-21.5,5.82-.04,4.47,.67,11.84-2.87,15.33-3.44,3.39-13.73,3.4-18.42,4.27-10.64,1.99-22.2,3.09-31.57,9.02-16.07,10.17-14.67,32.11,2.9,39.57,9.79,4.16,18.3,.98,28.29,1.45,15.83,.74-2.92,15.53-8.2,18.66-5.16,3.06-11.08,7.19-17,4.48-3.78-1.73-7.16-6.35-10.42-8.92-7.09-5.6-13.75-7.39-22.65-6.17-10.23,1.4-10.58,16.61-2.76,21.08,9.02,5.15,13.49,13.49,13.13,23.85-.33,9.38,9.88,13.51,17.36,9.96,4.91-2.33,10.44-5.39,14.33-.39,2.55,3.28,2.99,9.47,3.34,13.38,.69,7.68-.53,5.91-8,4.22-5.72-1.29-11.02-3.43-16.45-5.59-5.07-2.01-9.01-3.31-14.52-2.09-4.81,1.07-7.73,4.88-12.04,6.53-14.1,5.39-16.41-16.73-16.1-25.42,.42-11.91-15.62-15.07-21.5-5.82-2.48,3.9-3.64,8.12-3.6,12.76,.02,2.31,.29,4.88,.84,7.11,.09,.36,.11,.73,.11,1.08-1.25,.27-2.86,.87-3.38,1.03-1.57,.49-3.59,1.25-4.98,2.1-3.85,2.34-7.16,6.56-8.1,11.03-2.1,9.98,4.73,17.14,11.41,23.34,5.6,5.2,14.3,17.65,2.3,21.05-8.8,2.49-22.63-1.98-28.22-9.09-5.22-6.64-6.12-15.37-15.14-18.59-10.83-3.87-17.74,4.08-23.46,12.05-5.53,7.7-10.99,15.45-16.46,23.19-24.83-3.77-39.47,25.77-64.64,28.38-14.64,1.53-14.76,24.6,0,23.07Z" style="fill: #b6d6c1;"/>
    <path d="M152.82,447.4c3.77,3.66,6.58,7.33,8.42,12.31,2.65,7.18,9.31,11.58,17.03,9.67,40.53-10.05,82.23-4.07,123.25-.9,20.2,1.56,40.35,2.31,60.58,.92,21.06-1.45,42.02-4.51,63.16-4.68,18.7-.15,40.46,6.61,58.74,2.11,19.08-4.7,14.55-27.32,14.48-42.03-.19-43.88-.38-87.77-.57-131.65-.02-4.7-1.97-8.15-4.81-10.37,.14-2.71-.43-5.48-1.73-7.87-2.4-4.43-5.29-8.18-8.94-11.65-1.71-1.63-3.76-2.71-5.92-3.3-2.09-2.83-4.38-5.56-6.92-8.15-1.19-1.22-2.58-2.11-4.05-2.76-2.46-12.08-3.96-24.3-4.46-36.8-.72-17.78-28.4-17.82-27.68,0,.22,5.35,.6,10.68,1.12,15.99-.08,.02-.16,.02-.25,.04-2.75,.7-5.28,1.84-7.54,3.32-4.56-2.23-9.37-3.93-14.54-4.71-22.38-3.4-47.72,16.21-35.17,39.8,3.08,5.79,9.69,7.31,15.63,6.36,9.79-1.56,18.56,1.42,26.59,6.84,2.64,1.78,5.28,2.38,7.76,2.16,1.07,7.25-10.5,19.24-16.77,22.51-3.93,2.05-8.01,2.12-12.03,1.1-7.5-4.78-15.22-9.01-21.79-12.94-15.68-9.39-27.9,13.55-13.97,23.91,5.91,4.4,12.12,8.21,18.45,11.07,6.18,3.95,12.12,8.23,17.07,13.1,.96,.76,1.78,1.65,2.44,2.68,.12,.17,.21,.3,.31,.44-.8,1.17-3.79,2.49-4.88,3.12-4.13,2.37-8.66,3.94-13.32,4.88-18.2,3.66-39.2-3.06-50.32-18.31-.73-1-1.49-1.99-2.28-2.95-9.99-12.15-30.86,4.14-21.74,16.77,.71,.98,1.44,1.94,2.19,2.89,.08,.26,.16,.49,.25,.71-13.16,2.33-12.36,22.12-.03,26.98,5.37,2.12,6.23,9.22,1.68,12.66-4.59,3.46-13.22,1.03-18.23,.08-11.13-2.09-25.59-4.28-32.42-14.43-8.01-11.91-24.43-6.63-25.79,6.99-1.31,13.07-12.24,24.36-24.72,27.63-10.46,2.74-25.26-1.41-31,9.01-7.11,1.1-14.17,2.5-21.17,4.32-10.01,2.61-13.53,15.93-6.11,23.14Z" style="fill: url(#uuid-08d5987e-046c-4220-a83b-604bc5b01965); opacity: .25;"/>
    <path d="M489.4,270.86c-16.76-6.2-4.49-26.63-24.44-28.82,2.45-16.16,6.44-36.11-10.09-47.93-18.76-13.41-16.25,15.57-21.35,24.53-5.21,9.16-6.15,9.87-16.36,8.35-14.05-2.1-23.99-1.96-35.18,9.11-10.64,10.53-20.34,32.67-1,39.29,9.6,3.29,33.49-7.36,39.94,2.8,4.2,6.6-5.59,18.33-11.31,20.84-9.27,4.06-20.18-1.59-26.61-8.46-9.82,11-17.15-5.93-26.51-6.9-3.62-.38-14.5,3.28-16.11,6.31-4.69,8.87,8.98,8.79,15.47,12.06,16.58,8.35-.89,34.47,10.73,39.74,4.68,2.12,11.51-4.75,15.9-5.9,8.69-2.27,16.33-.11,20.02,9.13,11.18,27.98-27.09-2.32-34-2.5-10.7-.27-20.03,6.42-31.13,1.31-10.99-5.07-8.74-13.86-11.12-23.83-1.48-6.2-3.25-14.27-10.85-10.41-9.57,4.87-1.53,18.14-1.89,25.06-.76,14.65-40.12,16.16-22.7,38.31,6.62,8.42,22.48,6.07,25.42,18.85,2.89,12.54-6.75,10.37-15.12,11.2-11.21,1.12-17.45,2.77-27.44-6.3-7.79-7.08-13.21-17.62-18.43-26.68-6.51,2.33-10.93,10.32-17.02,14.21-7.31,4.68-10.68,4.7-14.69,12.4-3.75,7.2-3.34,12.37-13.02,16.01-5.89,2.22-13.67-.71-18.85,2.56-5.13,3.24-7.89,13.34-13.02,17.82-6.38,5.58-7.65,4.18-15.31,5.35-6.34,.97-11.81,2.32-16.07,9.02-3.11,4.89-2,11.17-8.94,12.43-1.37,1.64,.85,.25,1.22,1.28" style="fill: none; stroke: #262631; stroke-miterlimit: 10; stroke-width: .75px;"/>
  </g>
  <g>
    <line id="pavement-svg-top" x1="500" y1="464" x2="0" y2="464" style="fill: none; stroke: #262631; stroke-miterlimit: 10; stroke-width: 10px;"/>
    <line id="pavement-svg-bottom" x1="500" y1="492.02" x2="0" y2="492.02" style="fill: none; stroke: #262631; stroke-miterlimit: 10; stroke-width: 2px;"/>
  </g>
  <g>
    <path d="M271.46,321.85c-2.74-5.74-8.32-8.91-12-13.73-4.93-6.47-9.5-13.23-14.11-19.94-4.57-6.64-9.01-13.37-13.79-20.47,.97-1.22,4.72-4.17,5.5-2.53,.79,1.64,.73,6.37,5.85,12.34,5.11,5.97,11.35,10.96,14.04,17.13,2.69,6.17,8.4,12.78,10.37,15.51,1.84,2.56,5.59,9.91,7.83,11.17l-.12,1.77c-.5-.49-.82-.94-.82-.94,0,0,.32,.45,.82,.94l-.05,.72c-1.15-.74-3.06-.99-3.53-1.98Z" style="fill: #fbda6e;"/>
    <path d="M271.46,321.85c-2.74-5.74-8.32-8.91-12-13.73-4.93-6.47-9.5-13.23-14.11-19.94-4.57-6.64-9.01-13.37-13.79-20.47,.97-1.22,4.72-4.17,5.5-2.53,.79,1.64,.73,6.37,5.85,12.34,5.11,5.97,11.35,10.96,14.04,17.13,2.69,6.17,8.4,12.78,10.37,15.51,1.84,2.56,5.59,9.91,7.83,11.17l-.12,1.77c-.5-.49-.82-.94-.82-.94,0,0,.32,.45,.82,.94l-.05,.72c-1.15-.74-3.06-.99-3.53-1.98Z" style="fill: #c40000; opacity: .19;"/>
    <path d="M191.64,297.81c11.36,1.9,12.67-.13,18.29-.54,10.41,4.63,20.76,9.01,30.88,13.88,2.79,1.34,3.73,4.76,4.55,7.8,.35,1.3,.94,2.54,1.48,3.95-.17,.17-.96,.6-.95,1.01,.18,6.75-4.45,11.25-7.57,16.46-2.09,3.49-3.97,7.12-6.81,12.26,0,0-1.92,7.87-.15,7.08-2,6.58-6.39,12.37-7.22,19.45-1.35,.25-3.07,.45-4.53,.25-1.25-.17-1.99-.46-2.86-1.07-.03-1.02-.03-1.76-.03-1.76,0,0,0,.74,.03,1.76-1.15-.81-2.54-2.19-5.67-4.76-1.93-1.58-3.83-2.69-5.5-3.48,.32-1.14,.51-1.97,.51-1.97,0,0-.19,.84-.51,1.97-3.11-1.48-5.4-1.84-5.4-1.84,0,0,.65-2.68,4.11-7.39l.79,2.58-.79-2.58c.06-.08,.1-.14,.16-.22,3.61-4.86,5.45-11.55,7.75-16.48,.99-2.12,2.73-5.33,4.51-8.47,.43,3.64,.94,8.27,.94,8.27,0,0-.51-4.63-.94-8.27,2.35-4.14,4.75-8.14,5.54-9.26,1.38-1.97,1.84-1.31,.72-2.1-.55-.39-6.06-2.16-12.43-3.92-1-1.6-1.93-2.9-2.6-3.5,.67,.59,1.6,1.9,2.6,3.5-3.62-1-7.5-1.98-10.93-2.71,2.01-.58,3.47-1.18,3.47-1.18,0,0-1.47,.6-3.47,1.18-2.72-.58-5.15-1-6.9-1.12-7.81-.53-20.48-5.12-25.29-9.26-5.47-4.19,.55-9.9-2.1-14.29,2.67,3.56,14.99,2.88,26.34,4.78Z" style="fill: #457989;"/>
    <path d="M216.19,331.62c.09,.58,.29,2.2,.5,4.07-1.78,3.13-3.52,6.35-4.51,8.47-2.3,4.92-4.14,11.62-7.75,16.48-.06,.08-.1,.14-.16,.22l-10.32-33.66,.7-2.19s-1.75-1.75-.96-2.45-2.36-3.33-2.36-3.33c0,0-1.31-.18,2.89-.48,1.86-.14,3.78-.59,5.37-1.05,3.43,.73,7.31,1.71,10.93,2.71,2.53,4.04,5.48,9.98,5.67,11.21Z" style="fill: #457989;"/>
    <path d="M216.19,331.62c.09,.58,.29,2.2,.5,4.07-1.78,3.13-3.52,6.35-4.51,8.47-2.3,4.92-4.14,11.62-7.75,16.48-.06,.08-.1,.14-.16,.22l-10.32-33.66,.7-2.19s-1.75-1.75-.96-2.45-2.36-3.33-2.36-3.33c0,0-1.31-.18,2.89-.48,1.86-.14,3.78-.59,5.37-1.05,3.43,.73,7.31,1.71,10.93,2.71,2.53,4.04,5.48,9.98,5.67,11.21Z" style="fill: #c40000; opacity: .19;"/>
    <path d="M216.74,378.33c.04,1.75,.17,4.32,.5,5.39,.52,1.69,6.83,5.53,6.83,5.53l3.15,.53c3.15,.53,1.44,4.07,1.44,4.07l-2.23,.26c-2.23,.26-10.63-1.84-14.84-3.02-4.2-1.18-11.42-11.6-11.42-11.6,0,0,0-1.13,2.23-2.91,1.45-1.16,2.56-4.37,3.17-6.49,1.67,.8,3.57,1.9,5.5,3.48,3.14,2.57,4.52,3.96,5.67,4.76Z" style="fill: #d34f1d;"/>
    <path d="M275.6,321.51s1.19-.37,2.88-.92h0c.96,1.39,1.55,2.09,2.42,2.29-1.01,.63-2.51,1.45-3.52,1.45-.89,0-1.74-.64-2.33-1.22l.12-1.77c.15,.09,.3,.14,.44,.17Z" style="fill: #8b4324;"/>
    <path d="M136.45,300.15c-.23-.59-1.88-3.74-3.11-5.39,.54-.99,.98-2.16,1.52-3.18,1.85,3.08,7.72,12.48,11.79,15.1-.52,.51-1.1,.99-1.76,1.46-.21-.06-.4-.13-.65-.19-1.62-.44-7.48-7-7.79-7.79Z" style="fill: #262631;"/>
    <path d="M240.27,234.21c.34,.47,.66,.94,.95,1.38,1.41,2.15,4.85,4.92,7.01,6.29-3.73-1.8-12.53-5.85-15.7-5.64-4.07,.26-16.35,2.49-17.72,3.41s-4.14,4.86-4.14,4.86c0,0-6.37,8.01-11.36,10.83-4.99,2.82-11.03,3.74-13.98,11.09-2.95,7.35-4.33,15.1-8.01,15.36-3.68,.26-3.64,1.38-6.22-.92l-2.53-2.95c-.77-.89-1.27-1.99-1.48-3.15-.81-4.41-1.82-8.36-1.79-12.31,.03-3.1,.62-6.2,1.23-9.24,.64-3.21,2.88-5.94,5.99-6.97,4.25-1.4,8.61-1.92,12.57-3.83,5.44-2.62,9.68-7.79,16.16-8.16,1.62,1.39,3.12,2.68,4.21,3.62,0,0,13.94-5.21,18.53-6.59,4.59-1.38,10.17,1.44,16.27,2.9Z" style="fill: #e85158;"/>
    <path d="M136.58,289.65c-.75,.35-1.27,1.08-1.72,1.93-.37-.62-.6-1.01-.6-1.01,0,0,.23,.39,.6,1.01-.54,1.02-.98,2.2-1.52,3.18-.42-.56-.79-.94-1.04-1,.25,.06,.63,.44,1.04,1-.54,.98-1.18,1.75-2.18,1.89-2.84,.39-3.75,.79-5.05,.85l-2.28-1.65c-.9-.65-1.43-1.69-1.43-2.8v-4.91c0-2.61,.98-5.13,2.75-7.05l4.23-4.59c.66-.71,1.55-1.11,3.28-1.11h8.14c2.2,0,4.34,.74,6.06,2.11l6.01,4.77c1.86,1.48,1.71,4.36-.3,5.63l-1.68,1.06-1.49,.46s-10.29-.96-12.82,.22Z" style="fill: #4fbbd1;"/>
    <path d="M149.54,320.42c6.74-.65,14.43,2.16,12.68,3.4,.53,2.49,.92,4.31,1.59,7.49-1.09,.63-2.48,1.42-4.95,2.85-3.3,.31-8.84-9.36-9.32-13.73Z" style="fill: #6e9e75;"/>
    <path d="M126.11,297.5c1.3-.07,2.2-.46,5.05-.85,1-.14,1.64-.91,2.18-1.89,1.24,1.65,2.88,4.8,3.11,5.39,.31,.79,6.17,7.35,7.79,7.79,.25,.07,.44,.13,.65,.19-.59,.41-1.21,.82-1.92,1.19-5.96-5.99-17.42-10.71-17.42-10.71,.19-.37,.37-.74,.56-1.12Z" style="fill: #fbb099;"/>
    <path d="M126.11,297.5c1.3-.07,2.2-.46,5.05-.85,1-.14,1.64-.91,2.18-1.89,1.24,1.65,2.88,4.8,3.11,5.39,.31,.79,6.17,7.35,7.79,7.79,.25,.07,.44,.13,.65,.19-.59,.41-1.21,.82-1.92,1.19-5.96-5.99-17.42-10.71-17.42-10.71,.19-.37,.37-.74,.56-1.12Z" style="fill: #c40000; opacity: .19;"/>
    <path d="M134.86,291.58c.45-.85,.97-1.58,1.72-1.93,2.54-1.18,12.82-.22,12.82-.22l1.49-.46c-.17,5.93,.85,12.76-4.24,17.71-4.07-2.62-9.93-12.02-11.79-15.1Z" style="fill: #fbb099;"/>
    <path d="M284.79,322.16c-1.95,.62-3.05,.91-3.9,.72,.63-.39,1.07-.72,1.07-.72,0,0-.44,.32-1.07,.72-.86-.2-1.46-.9-2.42-2.29h0c3.86-1.26,10.36-3.49,11.3-4.53,.46-.5,.89-1.07,1.27-1.61,1.06,1.05,2.4,1.8,3.9,2.07,2.51,.45,4.89,1.59,7.17,2.59,1.1,.48,1.65,1.58,1.81,2.78,.1,.78-.63,2.11-.2,2.91l-2.66-1.13s-12.34-2.76-16.28-1.51Z" style="fill: #8b4324;"/>
    <path d="M278.48,320.59c-1.89-2.76-2.58-5.91-2.58-5.91,0,0,.68,3.15,2.58,5.91-1.69,.55-2.88,.92-2.88,.92-.14-.03-.28-.08-.44-.17l.18-2.59-.18,2.59c-2.25-1.25-5.99-8.6-7.83-11.17-1.97-2.74-7.68-9.34-10.37-15.51-2.69-6.17-8.93-11.16-14.04-17.13-5.11-5.97-5.06-10.7-5.85-12.34-.79-1.64-4.53,1.31-5.5,2.53-1.99,1.47-3.63,3.62-5.59,3.96-6.78,1.2-8.1,7.19-10.74,11.78-1.58,2.75-1.66,6.38-2.39,9.48-1.07,.27-1.88,.47-2.91,.73v3.6c-5.62,.41-6.93,2.44-18.29,.54-11.36-1.9-23.67-1.23-26.34-4.78,1.96-4.11,3.86-8.07,5.81-12.15,2.58,2.3,2.54,1.18,6.22,.92,3.68-.26,5.05-8.01,8.01-15.36,2.95-7.35,8.99-8.27,13.98-11.09,4.99-2.82,11.36-10.83,11.36-10.83,0,0,2.76-3.94,4.14-4.86s13.65-3.15,17.72-3.41c3.17-.2,11.97,3.85,15.7,5.64,.81,.51,1.46,.85,1.72,.85,4.07,4.15,5.15,9.3,6.58,14.38,1.11,3.95,2.41,7.97,4.43,11.51,5.25,9.24,13.14,16.69,17.71,26.52,2.93,6.29,7.64,11.72,11.14,17.77,.33,.58,.76,1.08,1.22,1.55-.38,.54-.82,1.11-1.27,1.61-.95,1.04-7.44,3.27-11.3,4.53Z" style="fill: #fbda6e;"/>
    <path d="M249.96,242.72c-.27,0-.91-.33-1.72-.85,1.05,.51,1.72,.85,1.72,.85Z" style="fill: #c1272d;"/>
    <path d="M112.35,300.11c.58,1.48,1.46,3.79,2.5,6.02,2.66,5.73,5.59,11.34,8.11,17.13,1.66,3.83,3.42,7.7,3.01,12.13-.64,6.85,.46,13.58,2.03,21.03,.32,1.53,1.13,2.9,2.3,3.93l2.84,2.49c1.2,1.05,2.92,1.71,4.68,1.71h13.03c-4.12,1.97-6.38,2.97-8.58,4.1-12.67,6.51-21.19,16.18-25.56,30.11-1.59,5.06-.75,9.72-1.44,14.51-1.4,9.81,2.05,18.79,7.36,26.27,6.76,9.54,15.55,16.74,27.97,19.69,12.16,2.89,23.01,1.07,33.47-4.3,9.64-4.94,16.93-12.62,22.08-25.13,1.44,3.06,2.08,4.42,3.11,6.61,.06-.1,.09-.14,0,.01h0c-.13,.19-.47,.78-.76,1.43-.34,.74-.49,1.56-.72,2.29,.67,.39,1.19,.94,1.63,.89,1.95-.24,4.01-.33,5.77-1.08,3.27-1.4,6.06-.79,9.78,1.84,.94-1.08,2.01-2.31,3.48-4.01-2.38-2.51-4.3-4.53-6.25-6.59,4.15-2.41,8.84-3.35,10.92-8.7,1.13-2.89,1.78-5.11,.84-7.99-.69-2.09-.97-4.32-1.37-6.17,8.63-8.27,15.87-16.9,22.53-26.03,.17-.24,.42-.42,.62-.63,7.31-7.98,14.62-15.96,22.04-24.05,5.56,2.69,7.22,8.25,10.25,13.65-10.91,4.97-18.74,13.64-22.89,24.92-2.28,6.21-5.24,13-3.6,19.78,1.92,7.98,3.01,16.33,7.89,23.44,6.61,9.64,15.55,16.6,26.61,19.26,19.61,4.72,24.71,1.62,38.99-5.2,5.21-2.49,12.22-10.04,15.42-15.53,4.29-7.34,5.56-15.63,7.04-23.79,.78-4.32-2.5-14.62-5.21-20.94-9.85-22.98-36.05-31.06-54.13-25.49-2.56-3.42-5.13-6.85-7.83-10.47h-3.15c-3.16-7.39-6.29-14.71-9.7-22.67l12.27,1.81s2.03,3.79,3.38,3.36c1.09-.35,2.26-9.86,4.79-9.24,.82,.52,3.99,.96,4.11,1.75,.12,.79,2.08,.27,1.66-.91-.42-1.19-.59-2.52-.32-2.92,.27-.4,.88,.24,1.24-1.86,.27-1.58-.57-1.31-.85-1.83l-2.66-1.13s-12.34-2.76-16.28-1.51c-1.95,.62-3.05,.91-3.9,.72-1.01,.63-2.51,1.45-3.52,1.45-.89,0-1.74-.64-2.33-1.22l-.05,.72c.38,.24,.43,.98,.91,2.16-1.7,1.26-3.55,2.63-4.99,3.69,1.01,4.42,3.97,8.18,2.64,12.94-13.52,3.22-26.89,6.41-42.05,10.02,0,0-1.92,7.87-.15,7.08,6.86-1.53,11.66-2.44,17.81-4.4,3.29-1.05,6.66-1.77,10.08-2.23,4.77-.65,9.25-4.33,14.55-2.24-7.51,8.42-13.82,17.38-23.44,23.36,1.15-1.77,2.3-3.55,3.65-5.62v-7.26c-3.41,.12-7.8,1.31-9.32,3.01-5.21,5.8-10.28,11.72-15.35,17.65-.48,.56-.56,1.46-.66,1.75h-4.59c-.19-1.6-.12-3.1,.05-4.57-1.35,.25-3.07,.45-4.53,.25-1.25-.17-1.99-.46-2.86-1.07,.04,1.75,.17,4.32,.5,5.39,.52,1.69,6.83,5.53,6.83,5.53l3.15,.53c3.15,.53,1.44,4.07,1.44,4.07l-2.23,.26c-2.23,.26-10.63-1.84-14.84-3.02-4.2-1.18-11.42-11.6-11.42-11.6,0,0,0-1.13,2.23-2.91,1.45-1.16,2.56-4.37,3.17-6.49-3.11-1.48-5.4-1.84-5.4-1.84,0,0,.65-2.68,4.11-7.39l-10.32-33.66,.7-2.19s-1.75-1.75-.96-2.45-2.36-3.33-2.36-3.33c0,0-1.31-.18,2.89-.48,1.86-.14,3.78-.59,5.37-1.05-2.72-.58-5.15-1-6.9-1.12-7.81-.53-20.48-5.12-25.29-9.26-.87,1.21-1.49,2.08-2.12,2.95,7.43,3.96,16,6.2,21.5,15.63,3.64,10.75,7.87,23.26,12.35,36.51-3.02-.52-5.8-1.2-8.62-1.44-2.91-.24-5.85-.05-9.04-.05v-5.96c-1.89-1.89-3.89-3.9-6.09-6.1,2.71-3.11,2.29-6.57,2.24-10.14-.02-1.25-.54-2.44-1.51-3.23l-.04-.03c-1.05-.85-2.38-1.32-3.73-1.32h-13.47c-3.3,.31-8.84-9.36-9.32-13.73-.21-1.77-.37-3.13-.6-5.1-1.63-1.63-3.64-3.65-5.96-5.99-5.96-5.99-17.42-10.71-17.42-10.71-3.02-1-6.04-2-9.59-3.17-1.01-.33-2.13,.12-2.6,1.07l-.93,1.88c-.27,.54-.3,1.15-.08,1.71Zm176.24,80.01c6.79,6.73,6.05,16.51,10.37,23.85-3.86,5.12-1.09,9.88-.3,14.83,.97,6.05,6.62,5.41,9.69,7.64,6.17-1.52,10.95-4.56,11.84-11.31-1.65-7.88-7.93-10.92-14.74-12.85-2.68-9.27-3.49-12.03-6.17-21.3l1.04-1.17c-.64-1.29-1.23-2.48-1.89-3.8,4.02-.95,7.53-2.43,11.05-2.43,3.86,0,7.72,1.36,10.06,1.82,10.41,3.25,17.23,9.26,23.71,16.94,6.83,12.46,8.45,26.07,1.13,39.56-7.48,13.78-19.99,20.19-34.08,21l-11.33-1.38c-16.01-6.01-26.22-16.03-28.54-31.95-2.4-16.5,3.98-29.65,18.16-39.45Zm-96.67,34.53l-21.26-2.65v-6.25c4.52-3.97,9.07-7.96,14.2-12.46v-6.71l3.98-3.67c3.69,5.9,6.91,11.04,10.01,15.98,.95,6.77-1.11,11.96-6.93,15.76Zm-40.72-17.35v6.65c1.03-.87,1.6-1.39,2.21-1.84,.09-.07,.4,.17,1.37,.61-2.69,4.05-5.37,8.09-8.35,12.57,2.4,3.61,4.55,6.85,6,9.03,4.96,1.62,9.1-.32,12.84,1.56-.99,4.55-4.86,5.66-8.26,7.98,1.56,1.57,2.5,2.64,3.59,3.52,.37,.3,1.12,.12,2.33,.21,.2-3.03,.94-5.93,3.73-8,1.14-.85,1.82-2.87,1.93-4.42,.12-1.7-.66-3.47-1.05-5.21,19.18-.68,21.43-.04,29.68,8.48-.59,4.21-4.69,3.16-7.41,4.53,1.62,.9,2.92,1.62,4.3,2.39-5.52,8.27-13.01,12.73-22.45,16.42-4.27,0-9.9,.07-15.53-.04-1.94-.04-3.82-.57-5.73-1.05-10.03-2.5-16.93-8.82-22.05-17.15-5.35-8.7-8.07-18.86-5.62-28.54,3.04-11.96,8.97-23.01,22.72-28.45,.51,6.28-1.79,11.6-3.46,17.03,1.42,2.72,3.79,3.27,6.61,3,.76-.07,1.57,.4,2.6,.68Z" style="fill: #262631;"/>
    <path d="M209.27,436.45h0c.06-.12,.09-.15,0,0Z" style="fill: #c1272d;"/>
    <path d="M241.23,235.59c-.29-.44-.61-.91-.95-1.38h0c6.1,1.46,3.15,.91,3.15,.91,0,0,2.95,.54-3.15-.91h0c-1.92-2.69-4.47-5.66-6.07-6.51h-.02c.25-.1,.5-.19,.73-.32,.75-.44,1.35-1.12,1.69-1.94l.57-1.35c.37-.89,.37-1.91,.02-2.81-.28-.72-.56-1.4-.83-2.1,2.15-.35,4.86-.93,7.36-1.53,.34,1.28,.9,3.36,1.29,4.4,.59,1.58,8.25,19.05,8.25,19.05-1.24,.61-1.96,.96-3.3,1.62,0,0-.67-.34-1.72-.85-2.16-1.37-5.6-4.13-7.01-6.29Z" style="fill: #8b4324;"/>
    <path d="M241.23,235.59c-.29-.44-.61-.91-.95-1.38h0c6.1,1.46,3.15,.91,3.15,.91,0,0,2.95,.54-3.15-.91h0c-1.92-2.69-4.47-5.66-6.07-6.51h-.02c.25-.1,.5-.19,.73-.32,.75-.44,1.35-1.12,1.69-1.94l.57-1.35c.37-.89,.37-1.91,.02-2.81-.28-.72-.56-1.4-.83-2.1,2.15-.35,4.86-.93,7.36-1.53,.34,1.28,.9,3.36,1.29,4.4,.59,1.58,8.25,19.05,8.25,19.05-1.24,.61-1.96,.96-3.3,1.62,0,0-.67-.34-1.72-.85-2.16-1.37-5.6-4.13-7.01-6.29Z" style="fill: #c40000; opacity: .19;"/>
    <path d="M253.94,215.98l-4.21,9.49s-2.43-4.14-2.63-6.89c-.06-.8-.1-1.35-.12-1.75,1.33-.36,2.45-.69,3.14-.94,.81-.29,2.17-.21,3.82,.1Z" style="fill: #8b4324;"/>
    <path d="M243.72,217.65c1.16-.28,2.27-.56,3.27-.83,.03,.4,.07,.95,.12,1.75,.2,2.76,2.63,6.89,2.63,6.89l4.21-9.49c1.45,.27,3.11,.71,4.81,1.22l-8.29,10.96,5.12,11.94c.77,1.87,1.33,3.22,1.99,4.82h-2.67c-.54-1.27-1.05-2.44-1.64-3.81,0,0-7.66-17.48-8.25-19.05-.39-1.05-.95-3.12-1.29-4.4Z" style="fill: #262631;"/>
    <path d="M240.27,234.21c-6.1-1.45-11.68-4.27-16.27-2.9-4.6,1.38-18.53,6.59-18.53,6.59,5.34-2.22,10.07-4.44,14.99-6.15,4.53-1.57,9.19-2.77,13.52-3.98,.07-.02,.13-.06,.2-.09h.02c1.6,.87,4.14,3.83,6.07,6.52Z" style="fill: #fbda6e;"/>
    <path d="M240.27,234.21c-6.1-1.45-11.68-4.27-16.27-2.9-4.6,1.38-18.53,6.59-18.53,6.59,5.34-2.22,10.07-4.44,14.99-6.15,4.53-1.57,9.19-2.77,13.52-3.98,.07-.02,.13-.06,.2-.09h.02c1.6,.87,4.14,3.83,6.07,6.52Z" style="fill: #c40000; opacity: .19;"/>
    <path d="M258.75,217.2c3.86,1.18,7.86,2.76,9.75,3.62v7.17c0,.86-.26,1.71-.74,2.43-1.06,1.58-1.98,2.91-2.81,4.3-.99,1.64-1.84,3.36-2.94,5.38h-6.43l-5.12-11.94,8.29-10.96Z" style="fill: #8b4324;"/>
    <path d="M234.1,207.42l2.65-3.85c.59-.85,1.41-1.56,2.39-1.9,5.1-1.77,10.44-1.21,15.95-1.08,4.18,.1,8.19,1.65,11.32,4.41l3.67,3.24c1.11,.97,4.34,5.77,4.34,7.24,0,0,.33,5.45-5.91,5.33-1.89-.85-5.89-2.44-9.75-3.62-1.69-.52-3.36-.96-4.81-1.22-1.64-.3-3.01-.38-3.82-.1-.69,.25-1.81,.58-3.14,.94-.99,.27-2.1,.55-3.27,.83-2.5,.6-5.21,1.18-7.36,1.53-.96-2.42-1.89-4.77-2.79-7.01-.63-1.59-.41-3.38,.52-4.74Z" style="fill: #fbd4c1;"/>
    <g style="opacity: .19;">
      <path d="M165.3,293.03c1.96-4.11,3.86-8.07,5.81-12.15,2.58,2.3,2.54,1.18,6.22,.92,3.68-.26,5.05-8.01,8.01-15.36,2.95-7.35,8.99-8.27,13.98-11.09,4.99-2.82,11.36-10.83,11.36-10.83,0,0,2.76-3.94,4.14-4.86-1.12,1.12-15.6,22.95-21.47,28.64-5.86,5.69-13.13,23.28-14.97,25.97-1.84,2.69,.88,2.74,.88,4.4s.44,6.65,6.91,8.75c6.48,2.1,3.76,4.11,11.99,4.04s17.77,7.95,23.72,9.52c5.95,1.58,12.17,2.19,12.17,2.19,0,0-4.99,1.05-6.48,1.63-1.49,.58-3.06,8.78-6.92,13.95-3.85,5.16-8.93,22.41-11.03,25.47-2.1,3.06,0,8.25,0,8.25,0,0-.61,4.18-2.63,7.68-1.54,2.68-2.17,2.65-3.8,3.35-1.77-2.2-3.03-4.02-3.03-4.02,0,0,0-1.13,2.23-2.91,1.45-1.16,2.56-4.37,3.17-6.49-3.11-1.48-5.4-1.84-5.4-1.84,0,0,.65-2.68,4.11-7.39,.06-.08,.1-.14,.16-.22,3.61-4.86,5.45-11.55,7.75-16.48,.99-2.12,2.73-5.33,4.51-8.47,2.35-4.14,4.75-8.14,5.54-9.26,1.38-1.97,1.84-1.31,.72-2.1-.55-.39-6.06-2.16-12.43-3.92-3.62-1-7.5-1.98-10.93-2.71-2.72-.58-5.15-1-6.9-1.12-7.81-.53-20.48-5.12-25.29-9.26-5.47-4.19,.55-9.9-2.1-14.29Z" style="fill: #c40000;"/>
    </g>
    <g style="opacity: .19;">
      <path d="M166.54,253.23c.64-3.21,2.88-5.94,5.99-6.97,4.25-1.4,8.61-1.92,12.57-3.83,5.44-2.62,9.68-7.79,16.16-8.16,1.62,1.39,3.12,2.68,4.21,3.62,0,0,13.94-5.21,18.53-6.59,1.08-.32,2.22-.4,3.4-.33,1.35,1.74,3.23,4.23,3.94,5.37-4.86,.52-15.27,2.46-16.53,3.3-.85,.57-2.23,2.29-3.16,3.53l-19.53,4.64-5.69,1.4c-5.69,1.4-11.03,7.44-12.08,15.93-1.05,8.49-.54,17.15-.54,17.15-.77,.03-1.41-.27-2.7-1.42l-2.53-2.95c-.77-.89-1.27-1.99-1.48-3.15-.81-4.41-1.82-8.36-1.79-12.31,.03-3.1,.62-6.2,1.23-9.24Z" style="fill: #c40000;"/>
    </g>
    <path d="M234.1,207.42l2.65-3.85c.59-.85,1.41-1.56,2.39-1.9,2.59-.9,5.24-1.19,7.94-1.25-2.07,.75-4.56,1.81-5.06,3.18-.61,1.64,3.05,8.86,5.34,13.11-.13,.04-.23,.07-.36,.1-.99,.27-2.1,.55-3.27,.83-2.5,.6-5.21,1.18-7.36,1.53-.96-2.42-1.89-4.77-2.79-7.01-.63-1.59-.41-3.38,.52-4.74Z" style="fill: #c40000; opacity: .19;"/>
    <path d="M125.15,281.09l4.23-4.59c.39-.42,.89-.72,1.57-.9-.65,1.01-1.28,2.38-1.24,3.81,.08,2.47,3.42,11.61,4.3,13.96-.22,.48-.43,.96-.67,1.39-.42-.56-.79-.94-1.04-1,.25,.06,.63,.44,1.04,1-.54,.98-1.18,1.75-2.18,1.89-2.84,.39-3.75,.79-5.05,.85l-2.28-1.65c-.9-.65-1.43-1.69-1.43-2.8v-4.91c0-2.61,.98-5.13,2.75-7.05Z" style="fill: #c40000; opacity: .19;"/>
  </g>
</svg>