<?xml version="1.0" encoding="UTF-8" standalone="no"?>
<svg
   xmlns:dc="http://purl.org/dc/elements/1.1/"
   xmlns:cc="http://creativecommons.org/ns#"
   xmlns:rdf="http://www.w3.org/1999/02/22-rdf-syntax-ns#"
   xmlns:svg="http://www.w3.org/2000/svg"
   xmlns="http://www.w3.org/2000/svg"
   xmlns:sodipodi="http://sodipodi.sourceforge.net/DTD/sodipodi-0.dtd"
   xmlns:inkscape="http://www.inkscape.org/namespaces/inkscape"
   id="afdfd1e9-9b52-4ce3-aad9-0a68bb11f588"
   data-name="Layer 1"
   width="1137"
   height="950"
   viewBox="0 0 1137 950.00002"
   version="1.1"
   sodipodi:docname="building.svg"
   inkscape:version="0.92.3 (2405546, 2018-03-11)">
  <metadata
     id="metadata109">
    <rdf:RDF>
      <cc:Work
         rdf:about="">
        <dc:format>image/svg+xml</dc:format>
        <dc:type
           rdf:resource="http://purl.org/dc/dcmitype/StillImage" />
        <dc:title>coming home</dc:title>
      </cc:Work>
    </rdf:RDF>
  </metadata>
  <defs
     id="defs107">
    <filter
       inkscape:collect="always"
       style="color-interpolation-filters:sRGB"
       id="filter111"
       x="-0.011525115"
       width="1.0230502"
       y="-0.0052353074"
       height="1.0104706">
      <feGaussianBlur
         inkscape:collect="always"
         stdDeviation="1.372209"
         id="feGaussianBlur113" />
    </filter>
  </defs>
  <sodipodi:namedview
     pagecolor="#ffffff"
     bordercolor="#666666"
     borderopacity="1"
     objecttolerance="10"
     gridtolerance="10"
     guidetolerance="10"
     inkscape:pageopacity="0"
     inkscape:pageshadow="2"
     inkscape:window-width="1920"
     inkscape:window-height="1051"
     id="namedview105"
     showgrid="false"
     inkscape:zoom="0.3404934"
     inkscape:cx="531.78857"
     inkscape:cy="346.55591"
     inkscape:window-x="1920"
     inkscape:window-y="0"
     inkscape:window-maximized="1"
     inkscape:current-layer="afdfd1e9-9b52-4ce3-aad9-0a68bb11f588" />
  <title
     id="title2">coming home</title>
  <path
     d="m 137.39819,950 -1.95117,-0.43945 c 21.75586,-96.751 76.43018,-184.60937 153.95117,-247.3916 A 444.114,444.114 0 0 1 1001.553,948.37989 l -1.9492,0.44336 C 953.55005,746.61426 776.32935,605.38868 568.634,605.38868 363.6604,605.38868 182.29956,750.31836 137.39819,950 Z"
     id="path4"
     inkscape:connector-curvature="0"
     style="fill:#3f3d56" />
  <path
     d="m 183.13058,937.66109 c 1.694,6.26185 7.4961,10.14 7.4961,10.14 0,0 3.05572,-6.27434 1.36177,-12.53619 -1.69395,-6.26185 -7.49609,-10.14 -7.49609,-10.14 0,0 -3.05572,6.27437 -1.36178,12.53619 z"
     id="path8"
     inkscape:connector-curvature="0"
     style="fill:#3f3d56" />
  <path
     d="m 185.61972,936.31538 c 4.64821,4.52485 5.216,11.48059 5.216,11.48059 0,0 -6.9685,-0.38048 -11.61672,-4.90533 -4.64822,-4.52485 -5.216,-11.4806 -5.216,-11.4806 0,0 6.9685,0.38049 11.61672,4.90534 z"
     id="path10"
     inkscape:connector-curvature="0"
     style="fill:#e85048" />
  <path
     d="m 312.13058,937.66109 c 1.69395,6.26185 7.4961,10.14 7.4961,10.14 0,0 3.05572,-6.27434 1.36177,-12.53619 -1.69395,-6.26185 -7.49609,-10.14 -7.49609,-10.14 0,0 -3.05572,6.27437 -1.36178,12.53619 z"
     id="path12"
     inkscape:connector-curvature="0"
     style="fill:#3f3d56" />
  <path
     d="m 314.61972,936.31538 c 4.64821,4.52485 5.216,11.48059 5.216,11.48059 0,0 -6.9685,-0.38048 -11.61672,-4.90533 -4.64822,-4.52485 -5.216,-11.4806 -5.216,-11.4806 0,0 6.9685,0.38049 11.61672,4.90534 z"
     id="path14"
     inkscape:connector-curvature="0"
     style="fill:#e85048" />
  <polygon
     points="721.679,153.394 533.779,280.022 337.71,181.988 317.286,165.648 431.66,63.529 721.679,63.529 "
     id="polygon16"
     style="fill:#3f3d56"
     transform="translate(0,256.88844)" />
  <polygon
     points="736.05,65.569 736.05,79.098 721.679,63.529 627.729,165.648 590.966,190.157 533.964,606.62 619.93,692.585 819.714,692.585 819.714,169.733 774.556,120.812 774.556,65.569 "
     id="polygon18"
     style="fill:#cccccc;filter:url(#filter111)"
     transform="translate(0,256.88844)" />
  <rect
     x="317.28616"
     y="422.53662"
     width="310.44315"
     height="526.9364"
     id="rect20"
     style="fill:#f2f2f2" />
  <rect
     x="437.78711"
     y="820.80249"
     width="57.186901"
     height="128.67052"
     id="rect22"
     style="fill:#cccccc" />
  <polygon
     points="376.515,580.253 352.007,580.253 352.007,600.677 374.473,600.677 376.515,600.677 "
     id="polygon24"
     style="fill:#3f3d56"
     transform="translate(0,256.88844)" />
  <polygon
     points="352.007,617.016 352.007,637.44 376.515,637.44 376.515,617.016 374.473,617.016 "
     id="polygon26"
     style="fill:#3f3d56"
     transform="translate(0,256.88844)" />
  <rect
     x="392.85455"
     y="837.1416"
     width="24.508671"
     height="20.423889"
     id="rect28"
     style="fill:#3f3d56" />
  <rect
     x="392.85455"
     y="873.9046"
     width="24.508671"
     height="20.423889"
     id="rect30"
     style="fill:#3f3d56" />
  <polygon
     points="543.991,580.253 519.483,580.253 519.483,600.677 541.949,600.677 543.991,600.677 "
     id="polygon32"
     style="fill:#3f3d56"
     transform="translate(0,256.88844)" />
  <polygon
     points="519.483,617.016 519.483,637.44 543.991,637.44 543.991,617.016 541.949,617.016 "
     id="polygon34"
     style="fill:#3f3d56"
     transform="translate(0,256.88844)" />
  <rect
     x="560.33044"
     y="837.1416"
     width="24.508671"
     height="20.423889"
     id="rect36"
     style="fill:#3f3d56" />
  <rect
     x="560.33044"
     y="873.9046"
     width="24.508671"
     height="20.423889"
     id="rect38"
     style="fill:#3f3d56" />
  <polygon
     points="715.552,171.776 691.043,171.776 691.043,192.199 713.51,192.199 715.552,192.199 "
     id="polygon40"
     style="fill:#3f3d56"
     transform="translate(0,256.88844)" />
  <polygon
     points="691.043,208.539 691.043,228.962 715.552,228.962 715.552,208.539 713.51,208.539 "
     id="polygon42"
     style="fill:#3f3d56"
     transform="translate(0,256.88844)" />
  <rect
     x="731.89117"
     y="428.66376"
     width="24.508671"
     height="20.423889"
     id="rect44"
     style="fill:#3f3d56" />
  <rect
     x="731.89117"
     y="465.42679"
     width="24.508671"
     height="20.423889"
     id="rect46"
     style="fill:#3f3d56" />
  <polygon
     points="715.552,286.149 691.043,286.149 691.043,306.573 713.51,306.573 715.552,306.573 "
     id="polygon48"
     style="fill:#3f3d56"
     transform="translate(0,256.88844)" />
  <polygon
     points="691.043,322.912 691.043,343.336 715.552,343.336 715.552,322.912 713.51,322.912 "
     id="polygon50"
     style="fill:#3f3d56"
     transform="translate(0,256.88844)" />
  <rect
     x="731.89117"
     y="543.0376"
     width="24.508671"
     height="20.423889"
     id="rect52"
     style="fill:#3f3d56" />
  <rect
     x="731.89117"
     y="579.80054"
     width="24.508671"
     height="20.423889"
     id="rect54"
     style="fill:#3f3d56" />
  <polygon
     points="715.552,400.523 691.043,400.523 691.043,420.947 713.51,420.947 715.552,420.947 "
     id="polygon56"
     style="fill:#3f3d56"
     transform="translate(0,256.88844)" />
  <polygon
     points="691.043,437.286 691.043,457.71 715.552,457.71 715.552,437.286 713.51,437.286 "
     id="polygon58"
     style="fill:#3f3d56"
     transform="translate(0,256.88844)" />
  <rect
     x="731.89117"
     y="657.41138"
     width="24.508671"
     height="20.423889"
     id="rect60"
     style="fill:#3f3d56" />
  <rect
     x="731.89117"
     y="694.17438"
     width="24.508671"
     height="20.423889"
     id="rect62"
     style="fill:#3f3d56" />
  <polygon
     points="715.552,514.897 691.043,514.897 691.043,535.321 713.51,535.321 715.552,535.321 "
     id="polygon64"
     style="fill:#3f3d56"
     transform="translate(0,256.88844)" />
  <polygon
     points="691.043,551.66 691.043,572.084 715.552,572.084 715.552,551.66 713.51,551.66 "
     id="polygon66"
     style="fill:#3f3d56"
     transform="translate(0,256.88844)" />
  <rect
     x="731.89117"
     y="771.78516"
     width="24.508671"
     height="20.423889"
     id="rect68"
     style="fill:#3f3d56" />
  <rect
     x="731.89117"
     y="808.54816"
     width="24.508671"
     height="20.423889"
     id="rect70"
     style="fill:#3f3d56" />
  <rect
     x="352.00677"
     y="449.08765"
     width="236.91714"
     height="49.017342"
     id="rect72"
     style="fill:#3f3d56" />
  <rect
     x="352.00677"
     y="547.12231"
     width="236.91714"
     height="49.017342"
     id="rect74"
     style="fill:#3f3d56" />
  <rect
     x="352.00677"
     y="645.15698"
     width="236.91714"
     height="49.017342"
     id="rect76"
     style="fill:#3f3d56" />
  <rect
     x="352.00677"
     y="743.19171"
     width="236.91714"
     height="49.017342"
     id="rect78"
     style="fill:#3f3d56" />
  <rect
     y="947.41699"
     width="1137"
     height="2"
     id="rect80"
     x="0"
     style="fill:#3f3d56" />
  <rect
     x="190.40491"
     y="716.50293"
     width="5.8747702"
     height="232.0535"
     id="rect82"
     style="fill:#3f3d56" />
  <path
     d="m 250.49715,746.07547 c 0.374,81.14332 -56.71464,147.18749 -56.71464,147.18749 0,0 -57.695,-65.51515 -58.06894,-146.65847 -0.37394,-81.14332 56.71464,-147.18749 56.71464,-147.18749 0,0 57.69496,65.51515 58.06894,146.65847 z"
     id="path84"
     inkscape:connector-curvature="0"
     style="fill:#e85048" />
  <path
     d="m 250.49715,746.07547 c 0.374,81.14332 -56.71464,147.18749 -56.71464,147.18749 0,0 -57.695,-65.51515 -58.06894,-146.65847 -0.37394,-81.14332 56.71464,-147.18749 56.71464,-147.18749 0,0 57.69496,65.51515 58.06894,146.65847 z"
     id="path86"
     inkscape:connector-curvature="0"
     style="opacity:0.1" />
  <rect
     x="114.03286"
     y="716.50293"
     width="5.8747702"
     height="232.0535"
     id="rect88"
     style="fill:#3f3d56" />
  <path
     d="m 174.12511,746.07547 c 0.374,81.14332 -56.71464,147.18749 -56.71464,147.18749 0,0 -57.695,-65.51515 -58.06894,-146.65847 -0.37394,-81.14332 56.71465,-147.18749 56.71465,-147.18749 0,0 57.69496,65.51515 58.06893,146.65847 z"
     id="path90"
     inkscape:connector-curvature="0"
     style="fill:#e85048" />
  <rect
     x="1035.0328"
     y="716.50293"
     width="5.8747702"
     height="232.0535"
     id="rect98"
     style="fill:#3f3d56" />
  <path
     d="m 1095.1251,746.07547 c 0.374,81.14332 -56.7146,147.18749 -56.7146,147.18749 0,0 -57.695,-65.51515 -58.069,-146.65847 -0.3739,-81.14332 56.7147,-147.18749 56.7147,-147.18749 0,0 57.6949,65.51515 58.0689,146.65847 z"
     id="path100"
     inkscape:connector-curvature="0"
     style="fill:#e85048" />
  <path
     inkscape:connector-curvature="0"
     style="fill:#3f3d56"
     d="M 180.92435,217.14148 H 22.924349 a 0.99974,0.99974 0 0 1 -1,-1 V 59.141482 a 1,1 0 0 1 2,0 V 215.14148 H 180.92435 a 1,1 0 0 1 0,2 z"
     id="path54" />
  <polyline
     transform="matrix(0.30335797,0,0,0.29072925,-49.8946,80.66871)"
     style="fill:none;stroke:#3f3d56;stroke-width:7;stroke-linecap:round;stroke-miterlimit:10"
     points="318.5 385.41 448.5 240.41 578.5 313.41 708.5 89.41 838.5 196.41"
     stroke-miterlimit="10"
     id="polyline95" />
  <ellipse
     style="fill:#e85048;stroke-width:0.29425219"
     cx="46.567371"
     cy="192.72946"
     id="circle97"
     rx="8.3368158"
     ry="8.1424532" />
  <ellipse
     style="fill:#e85048;stroke-width:0.29425219"
     cx="85.274033"
     cy="150.5632"
     id="circle99"
     rx="8.3368158"
     ry="8.1424532" />
  <ellipse
     style="fill:#e85048;stroke-width:0.29425219"
     cx="123.98067"
     cy="171.79172"
     id="circle101"
     rx="8.3368158"
     ry="8.1424532" />
  <ellipse
     style="fill:#e85048;stroke-width:0.29425219"
     cx="162.6873"
     cy="106.65211"
     id="circle103"
     rx="8.3368158"
     ry="8.1424532" />
  <path
     inkscape:connector-curvature="0"
     style="fill:#3f3d56"
     d="m 1079.7355,184.4162 h -133 a 0.99974,0.99974 0 0 1 -1,-1 V 48.416197 a 1,1 0 0 1 2,0 V 182.4162 h 132 a 1,1 0 0 1 0,2 z"
     id="path52" />
  <path
     inkscape:connector-curvature="0"
     style="fill:#3f3d56"
     d="m 992.63394,171.88349 h -25.38672 a 4.17807,4.17807 0 0 1 -4.17383,-4.17334 v -36.49317 a 4.17806,4.17806 0 0 1 4.17383,-4.17334 h 25.38672 a 4.17786,4.17786 0 0 1 4.17285,4.17334 v 36.49322 a 4.17786,4.17786 0 0 1 -4.17285,4.17329 z m -25.38672,-42.83985 a 2.17641,2.17641 0 0 0 -2.17383,2.17334 v 36.49322 a 2.17641,2.17641 0 0 0 2.17383,2.17334 h 25.38672 a 2.17557,2.17557 0 0 0 2.17285,-2.17334 v -36.49322 a 2.17557,2.17557 0 0 0 -2.17285,-2.17334 z"
     id="path56" />
  <path
     inkscape:connector-curvature="0"
     style="fill:#3f3d56"
     d="m 1044.6232,171.88349 h -23.3662 a 5.18969,5.18969 0 0 1 -5.1836,-5.18409 v -66.09961 a 5.18927,5.18927 0 0 1 5.1836,-5.183589 h 23.3662 a 5.18927,5.18927 0 0 1 5.1836,5.183589 v 66.09961 a 5.18969,5.18969 0 0 1 -5.1836,5.18409 z M 1021.257,97.416201 a 3.187,3.187 0 0 0 -3.1836,3.183589 v 66.09961 a 3.18709,3.18709 0 0 0 3.1836,3.18409 h 23.3662 a 3.18708,3.18708 0 0 0 3.1836,-3.18409 v -66.09961 a 3.187,3.187 0 0 0 -3.1836,-3.183589 z"
     id="path58" />
  <rect
     style="fill:#e85048"
     x="969.96356"
     y="134.3399"
     width="19.040001"
     height="30.940001"
     id="rect60-6" />
  <rect
     style="fill:#e85048"
     x="1023.4202"
     y="103.71796"
     width="19.040001"
     height="59.863701"
     id="rect62-7" />
  <circle
     style="fill:#e85048"
     cx="979.73553"
     cy="107.41619"
     r="9"
     id="circle64" />
  <circle
     style="fill:#e85048"
     cx="1032.7355"
     cy="73.416191"
     r="9"
     id="circle66" />
</svg>
