<?xml version="1.0" encoding="UTF-8" standalone="no"?>
<svg
   xmlns:dc="http://purl.org/dc/elements/1.1/"
   xmlns:cc="http://creativecommons.org/ns#"
   xmlns:rdf="http://www.w3.org/1999/02/22-rdf-syntax-ns#"
   xmlns:svg="http://www.w3.org/2000/svg"
   xmlns="http://www.w3.org/2000/svg"
   xmlns:sodipodi="http://sodipodi.sourceforge.net/DTD/sodipodi-0.dtd"
   xmlns:inkscape="http://www.inkscape.org/namespaces/inkscape"
   id="afdfd1e9-9b52-4ce3-aad9-0a68bb11f588"
   data-name="Layer 1"
   width="600"
   height="650"
   viewBox="0 0 600 650.00002"
   version="1.1"
   sodipodi:docname="building_detail.svg"
   inkscape:version="0.92.3 (2405546, 2018-03-11)">
  <metadata
     id="metadata109">
    <rdf:RDF>
      <cc:Work
         rdf:about="">
        <dc:format>image/svg+xml</dc:format>
        <dc:type
           rdf:resource="http://purl.org/dc/dcmitype/StillImage" />
        <dc:title>coming home</dc:title>
      </cc:Work>
    </rdf:RDF>
  </metadata>
  <defs
     id="defs107">
    <filter
       inkscape:collect="always"
       style="color-interpolation-filters:sRGB"
       id="filter111"
       x="-0.011525115"
       width="1.0230502"
       y="-0.0052353074"
       height="1.0104706">
      <feGaussianBlur
         inkscape:collect="always"
         stdDeviation="1.372209"
         id="feGaussianBlur113" />
    </filter>
  </defs>
  <sodipodi:namedview
     pagecolor="#ffffff"
     bordercolor="#666666"
     borderopacity="1"
     objecttolerance="10"
     gridtolerance="10"
     guidetolerance="10"
     inkscape:pageopacity="0"
     inkscape:pageshadow="2"
     inkscape:window-width="1920"
     inkscape:window-height="1051"
     id="namedview105"
     showgrid="false"
     inkscape:zoom="0.24076519"
     inkscape:cx="1901.3668"
     inkscape:cy="73.917014"
     inkscape:window-x="1920"
     inkscape:window-y="0"
     inkscape:window-maximized="1"
     inkscape:current-layer="afdfd1e9-9b52-4ce3-aad9-0a68bb11f588" />
  <title
     id="title2">coming home</title>
  <polygon
     points="533.779,280.022 337.71,181.988 317.286,165.648 431.66,63.529 721.679,63.529 721.679,153.394 "
     id="polygon16"
     style="fill:#3f3d56"
     transform="translate(-274.126,-47.265)" />
  <polygon
     points="736.05,65.569 736.05,79.098 721.679,63.529 627.729,165.648 590.966,190.157 533.964,606.62 619.93,692.585 819.714,692.585 819.714,169.733 774.556,120.812 774.556,65.569 "
     id="polygon18"
     style="fill:#cccccc;filter:url(#filter111)"
     transform="translate(-274.126,-47.265)" />
  <rect
     x="43.16016"
     y="118.3833"
     width="310.44315"
     height="526.9364"
     id="rect20"
     style="fill:#f2f2f2" />
  <rect
     x="163.6611"
     y="516.64893"
     width="57.186901"
     height="128.67052"
     id="rect22"
     style="fill:#cccccc" />
  <polygon
     points="352.007,580.253 352.007,600.677 374.473,600.677 376.515,600.677 376.515,580.253 "
     id="polygon24"
     style="fill:#3f3d56"
     transform="translate(-274.126,-47.265)" />
  <polygon
     points="352.007,637.44 376.515,637.44 376.515,617.016 374.473,617.016 352.007,617.016 "
     id="polygon26"
     style="fill:#3f3d56"
     transform="translate(-274.126,-47.265)" />
  <rect
     x="118.72855"
     y="532.98828"
     width="24.508671"
     height="20.423889"
     id="rect28"
     style="fill:#3f3d56" />
  <rect
     x="118.72855"
     y="569.75098"
     width="24.508671"
     height="20.423889"
     id="rect30"
     style="fill:#3f3d56" />
  <polygon
     points="519.483,580.253 519.483,600.677 541.949,600.677 543.991,600.677 543.991,580.253 "
     id="polygon32"
     style="fill:#3f3d56"
     transform="translate(-274.126,-47.265)" />
  <polygon
     points="519.483,637.44 543.991,637.44 543.991,617.016 541.949,617.016 519.483,617.016 "
     id="polygon34"
     style="fill:#3f3d56"
     transform="translate(-274.126,-47.265)" />
  <rect
     x="286.20444"
     y="532.98828"
     width="24.508671"
     height="20.423889"
     id="rect36"
     style="fill:#3f3d56" />
  <rect
     x="286.20444"
     y="569.75098"
     width="24.508671"
     height="20.423889"
     id="rect38"
     style="fill:#3f3d56" />
  <polygon
     points="691.043,171.776 691.043,192.199 713.51,192.199 715.552,192.199 715.552,171.776 "
     id="polygon40"
     style="fill:#3f3d56"
     transform="translate(-274.126,-47.265)" />
  <polygon
     points="691.043,228.962 715.552,228.962 715.552,208.539 713.51,208.539 691.043,208.539 "
     id="polygon42"
     style="fill:#3f3d56"
     transform="translate(-274.126,-47.265)" />
  <rect
     x="457.76517"
     y="124.51025"
     width="24.508671"
     height="20.423889"
     id="rect44"
     style="fill:#3f3d56" />
  <rect
     x="457.76517"
     y="161.27344"
     width="24.508671"
     height="20.423889"
     id="rect46"
     style="fill:#3f3d56" />
  <polygon
     points="691.043,286.149 691.043,306.573 713.51,306.573 715.552,306.573 715.552,286.149 "
     id="polygon48"
     style="fill:#3f3d56"
     transform="translate(-274.126,-47.265)" />
  <polygon
     points="691.043,343.336 715.552,343.336 715.552,322.912 713.51,322.912 691.043,322.912 "
     id="polygon50"
     style="fill:#3f3d56"
     transform="translate(-274.126,-47.265)" />
  <rect
     x="457.76517"
     y="238.88428"
     width="24.508671"
     height="20.423889"
     id="rect52"
     style="fill:#3f3d56" />
  <rect
     x="457.76517"
     y="275.64697"
     width="24.508671"
     height="20.423889"
     id="rect54"
     style="fill:#3f3d56" />
  <polygon
     points="691.043,400.523 691.043,420.947 713.51,420.947 715.552,420.947 715.552,400.523 "
     id="polygon56"
     style="fill:#3f3d56"
     transform="translate(-274.126,-47.265)" />
  <polygon
     points="691.043,457.71 715.552,457.71 715.552,437.286 713.51,437.286 691.043,437.286 "
     id="polygon58"
     style="fill:#3f3d56"
     transform="translate(-274.126,-47.265)" />
  <rect
     x="457.76517"
     y="353.25781"
     width="24.508671"
     height="20.423889"
     id="rect60"
     style="fill:#3f3d56" />
  <rect
     x="457.76517"
     y="390.021"
     width="24.508671"
     height="20.423889"
     id="rect62"
     style="fill:#3f3d56" />
  <polygon
     points="691.043,514.897 691.043,535.321 713.51,535.321 715.552,535.321 715.552,514.897 "
     id="polygon64"
     style="fill:#3f3d56"
     transform="translate(-274.126,-47.265)" />
  <polygon
     points="691.043,572.084 715.552,572.084 715.552,551.66 713.51,551.66 691.043,551.66 "
     id="polygon66"
     style="fill:#3f3d56"
     transform="translate(-274.126,-47.265)" />
  <rect
     x="457.76517"
     y="467.63184"
     width="24.508671"
     height="20.423889"
     id="rect68"
     style="fill:#3f3d56" />
  <rect
     x="457.76517"
     y="504.39453"
     width="24.508671"
     height="20.423889"
     id="rect70"
     style="fill:#3f3d56" />
  <rect
     x="77.880768"
     y="144.93408"
     width="236.91714"
     height="49.017342"
     id="rect72"
     style="fill:#3f3d56" />
  <rect
     x="77.880768"
     y="242.96875"
     width="236.91714"
     height="49.017342"
     id="rect74"
     style="fill:#3f3d56" />
  <rect
     x="77.880768"
     y="341.00342"
     width="236.91714"
     height="49.017342"
     id="rect76"
     style="fill:#3f3d56" />
  <rect
     x="77.880768"
     y="439.03809"
     width="236.91714"
     height="49.017342"
     id="rect78"
     style="fill:#3f3d56" />
  <rect
     y="647.41699"
     width="580.44116"
     height="2"
     id="rect80"
     x="0"
     style="fill:#3f3d56;stroke-width:0.71449447" />
</svg>
