<?xml version="1.0" encoding="UTF-8" standalone="no"?>
<svg
   xmlns:dc="http://purl.org/dc/elements/1.1/"
   xmlns:cc="http://creativecommons.org/ns#"
   xmlns:rdf="http://www.w3.org/1999/02/22-rdf-syntax-ns#"
   xmlns:svg="http://www.w3.org/2000/svg"
   xmlns="http://www.w3.org/2000/svg"
   xmlns:sodipodi="http://sodipodi.sourceforge.net/DTD/sodipodi-0.dtd"
   xmlns:inkscape="http://www.inkscape.org/namespaces/inkscape"
   id="a3a13504-18ee-4099-a22c-5e563c906cad"
   data-name="Layer 1"
   width="980"
   height="541"
   viewBox="0 0 980.00012 541.00002"
   version="1.1"
   sodipodi:docname="charity_illustration.svg"
   inkscape:version="0.92.3 (2405546, 2018-03-11)">
  <metadata
     id="metadata165">
    <rdf:RDF>
      <cc:Work
         rdf:about="">
        <dc:format>image/svg+xml</dc:format>
        <dc:type
           rdf:resource="http://purl.org/dc/dcmitype/StillImage" />
        <dc:title>collab</dc:title>
      </cc:Work>
    </rdf:RDF>
  </metadata>
  <defs
     id="defs163" />
  <sodipodi:namedview
     pagecolor="#ffffff"
     bordercolor="#666666"
     borderopacity="1"
     objecttolerance="10"
     gridtolerance="10"
     guidetolerance="10"
     inkscape:pageopacity="0"
     inkscape:pageshadow="2"
     inkscape:window-width="1920"
     inkscape:window-height="1011"
     id="namedview161"
     showgrid="false"
     inkscape:zoom="0.30881351"
     inkscape:cx="-115.02325"
     inkscape:cy="382.10764"
     inkscape:window-x="0"
     inkscape:window-y="0"
     inkscape:window-maximized="1"
     inkscape:current-layer="a3a13504-18ee-4099-a22c-5e563c906cad" />
  <title
     id="title2">collab</title>
  <path
     d="m 459.37966,449.06402 c 0,25.6646 -94.5706,84 -219.25,84 -124.6794,0 -232.7499999,-58.3354 -232.7499999,-84 0,-6.41927 10.5858999,1.55248 21.9999999,-4 33.22955,-16.19272 112.46437,-4.25692 202.39516,-4.92275 q 4.16162,-0.0376 8.35484,-0.0376 c 124.6794,0 219.25,-16.7042 219.25,8.9604 z"
     id="path6"
     inkscape:connector-curvature="0"
     style="fill:#3f3d56" />
  <path
     d="m 459.37966,449.06402 c 0,25.6646 -94.5706,84 -219.25,84 -124.6794,0 -232.7499999,-58.3354 -232.7499999,-84 0,-6.41927 10.5858999,1.55248 21.9999999,-4 33.22955,-16.19272 112.46437,-4.25692 202.39516,-4.92275 q 4.16162,-0.0376 8.35484,-0.0376 c 124.6794,0 219.25,-16.7042 219.25,8.9604 z"
     id="path8"
     inkscape:connector-curvature="0"
     style="opacity:0.1" />
  <path
     d="m 458.87966,448.58382 c 0,25.6646 -101.0706,46.4802 -225.75,46.4802 -124.6794,0 -225.7499999,-20.8156 -225.7499999,-46.4802 0,-6.41927 6.3083199,-12.52457 17.7224199,-18.07705 33.22955,-16.19271 109.742,-27.69967 199.67274,-28.3655 q 4.16162,-0.0376 8.35484,-0.0376 c 124.6794,0 225.75,20.81558 225.75,46.4802 z"
     id="path10"
     inkscape:connector-curvature="0"
     style="fill:#3f3d56" />
  <path
     d="m 227.45968,403.09399 a 121.49607,121.49607 0 0 1 -189.28,22.58 c 31.49997,-12.89 104.03,-22.04997 189.28,-22.58 z"
     id="path12"
     inkscape:connector-curvature="0"
     style="opacity:0.1" />
  <ellipse
     cx="126.37967"
     cy="321.06403"
     rx="112"
     ry="120"
     id="ellipse14"
     style="fill:#3f3d56" />
  <path
     d="m 248.2278,135.1343 v 28.13067 l -14.44548,16.72635 c 0,0 -6.08231,-2.28087 -6.08231,-17.48663 l -2.28086,-22.04837 z"
     id="path16"
     inkscape:connector-curvature="0"
     style="fill:#ffb9b9" />
  <path
     d="m 233.78232,163.26497 c 0,0 23.56894,-15.966 24.32923,-21.28807 0.76029,-5.32207 34.213,-29.65125 28.891,-14.44548 -5.322,15.20577 -22.04836,22.04836 -22.04836,22.04836 0,0 -12.92491,34.97327 -24.32923,34.213 -11.40432,-0.76027 -11.40437,-15.20579 -6.84264,-20.52781 z"
     id="path18"
     inkscape:connector-curvature="0"
     style="fill:#ffb9b9" />
  <polygon
     points="246.96,347.795 259.125,344.753 259.125,334.109 249.241,334.109 "
     id="polygon20"
     transform="translate(-29.1438,0.22055)"
     style="fill:#ffb9b9" />
  <path
     d="m 222.37799,341.93275 c 0,0 14.05973,-8.32964 14.63275,-4.545 0.57302,3.78464 6.65533,18.23015 9.69648,19.75073 3.04115,1.52058 6.8426,18.24692 0,17.48663 -5.29966,-0.58885 -24.73757,-10.75521 -33.23417,-15.31008 a 4.64255,4.64255 0 0 1 -1.99622,-6.067 9.57877,9.57877 0 0 0 1.01742,-2.95218 c 0,-1.5205 9.88374,-8.3631 9.88374,-8.3631 z"
     id="path22"
     inkscape:connector-curvature="0"
     style="fill:#2f2e41" />
  <path
     d="m 215.5354,187.5942 c 0,0 55.501,25.84981 50.179,45.61731 -5.322,19.7675 -25.08947,103.39922 -25.08947,103.39922 0,0 -22.04837,5.322 -23.56894,0 -1.52057,-5.322 14.44548,-88.19345 12.9249,-91.23461 -1.52058,-3.04116 -29.65125,-22.80865 -29.65125,-22.80865 l -57.78193,-24.32927 24.32922,-22.80861 z"
     id="path24"
     inkscape:connector-curvature="0"
     style="fill:#2f2e41" />
  <polygon
     points="293.338,356.158 281.173,361.48 273.57,347.795 286.495,338.671 "
     id="polygon26"
     transform="translate(-29.1438,0.22055)"
     style="fill:#ffb9b9" />
  <path
     d="m 216.29569,62.9069 c 0,0 -6.8426,9.12346 -1.52058,13.6852 5.32202,4.56174 1.52058,21.28807 1.52058,21.28807 l -6.8426,19.00721 -27.37038,-5.322 V 80.39354 l 1.52058,-15.20577 c 0,0 13.68519,-12.9249 15.20576,-22.80865 1.52057,-9.88375 17.48664,20.52778 17.48664,20.52778 z"
     id="path28"
     inkscape:connector-curvature="0"
     style="fill:#ffb9b9" />
  <path
     d="m 216.29569,62.9069 c 0,0 -6.8426,9.12346 -1.52058,13.6852 5.32202,4.56174 1.52058,21.28807 1.52058,21.28807 l -6.8426,19.00721 -27.37038,-5.322 V 80.39354 l 1.52058,-15.20577 c 0,0 13.68519,-12.9249 15.20576,-22.80865 1.52057,-9.88375 17.48664,20.52778 17.48664,20.52778 z"
     id="path30"
     inkscape:connector-curvature="0"
     style="opacity:0.1" />
  <path
     d="m 170.67838,181.5119 c 0,0 35.73356,39.535 35.73356,41.05557 0,1.52057 19.00721,32.6924 19.00721,32.6924 l 37.25413,82.87144 c 0,0 -14.44548,19.7675 -20.52779,18.24692 -6.08231,-1.52058 -49.41874,-89.714 -49.41874,-89.714 0,0 -7.60289,-19.7675 -28.13067,-24.32923 -20.52778,-4.56173 -36.49385,-20.52779 -28.891,-38.77471 7.60285,-18.24692 34.9733,-22.04839 34.9733,-22.04839 z"
     id="path32"
     inkscape:connector-curvature="0"
     style="fill:#2f2e41" />
  <circle
     cx="216.29568"
     cy="43.899689"
     r="24.329229"
     id="circle34"
     style="fill:#ffb9b9" />
  <path
     d="m 215.5354,83.43469 c 0,0 -3.04115,17.48663 -6.08231,19.00721 -3.04116,1.52058 -5.322,6.8426 -12.16461,-0.76029 -6.84261,-7.60289 -12.92491,-22.80865 -12.92491,-22.80865 l -23.56894,28.891 -2.28086,79.83024 c 0,0 26.61009,-6.84259 34.97326,0 8.36317,6.84259 26.6101,6.08231 26.6101,6.08231 l -3.80144,-15.20577 3.04115,-25.8498 -0.76029,-23.56894 -0.76029,-16.72635 z"
     id="path36"
     inkscape:connector-curvature="0"
     style="fill:#f2f2f2" />
  <path
     d="m 212.85703,70.63753 c 0,0 10.28125,5.19428 11.04154,8.23543 0.76029,3.04115 14.44548,9.12346 14.44548,9.12346 0,0 5.322,5.322 5.322,8.36317 0,3.04117 -18.24692,38.01442 -18.24692,38.01442 0,0 -3.80144,23.569 -2.28087,28.13068 1.52057,4.56168 -3.04115,22.04836 -3.04115,22.04836 l 9.12346,10.644 h -8.36317 c 0,0 -9.12346,-4.56173 -9.12346,-6.8426 0,-2.28087 1.52057,-18.24692 2.28086,-25.08952 0.76029,-6.8426 0.76029,-31.17182 -0.76029,-39.535 -1.52058,-8.36318 -0.76028,-30.41154 -0.76028,-35.73356 0,-5.32202 0.3628,-17.35884 0.3628,-17.35884 z"
     id="path38"
     inkscape:connector-curvature="0"
     style="fill:#3f3d56" />
  <path
     d="m 189.30545,59.09295 c 0,0 -3.4213,0.7728 -13.305,3.81395 -9.8837,3.04115 -25.08952,7.60289 -30.41154,13.6852 a 94.24783,94.24783 0 0 0 -9.88374,14.44547 l 3.04115,54.74077 c 0,0 -6.08231,11.40433 -5.322,17.48663 0.76031,6.0823 6.8426,6.8426 2.28087,19.7675 -4.56173,12.9249 -13.6852,24.32923 -5.322,25.84981 8.3632,1.52058 30.41153,-3.80144 40.29528,-0.76029 9.88375,3.04115 21.28808,-11.40433 21.28808,-11.40433 0,0 -15.20577,1.52058 -12.92491,-4.56173 2.28086,-6.08231 27.37039,-74.50826 22.04837,-89.714 -5.32202,-15.20574 -11.78456,-43.34898 -11.78456,-43.34898 z"
     id="path40"
     inkscape:connector-curvature="0"
     style="fill:#3f3d56" />
  <path
     d="m 239.86463,92.5582 3.80144,3.04116 c 0,0 10.644,38.01442 7.60288,41.81586 -3.04112,3.80144 -27.37038,12.16461 -28.891,6.84259 -1.52062,-5.32202 17.48668,-51.69961 17.48668,-51.69961 z"
     id="path42"
     inkscape:connector-curvature="0"
     style="fill:#3f3d56" />
  <path
     d="m 127.34193,119.16825 c 0,0 -11.40432,32.6924 -11.40432,41.81586 0,9.12346 1.52057,62.34365 1.52057,62.34365 0,0 0.76029,22.80865 16.72635,13.68519 15.96606,-9.12346 0,-15.20577 0,-15.20577 0,0 0.76029,-60.06278 6.84259,-68.42595 6.0823,-8.36317 8.36318,-20.52779 8.36318,-20.52779 z"
     id="path44"
     inkscape:connector-curvature="0"
     style="fill:#ffb9b9" />
  <path
     d="m 252.02924,355.61794 c 0,0 11.40433,-6.0823 13.68519,-1.52057 2.28086,4.56173 14.44548,29.65125 12.92491,32.6924 -1.52057,3.04115 -9.88375,15.20577 -19.7675,12.16461 -9.88375,-3.04116 -10.644,-19.00721 -10.644,-19.00721 l -0.76029,-18.24692 z"
     id="path46"
     inkscape:connector-curvature="0"
     style="fill:#2f2e41" />
  <path
     d="m 221.05972,38.02292 c -1.6759,0.78887 -3.66405,1.26021 -4.71714,2.784 -0.78033,1.1291 -0.8579,2.59638 -1.42727,3.84522 a 5.43744,5.43744 0 0 1 -6.99527,2.55818 6.03223,6.03223 0 0 0 -2.45993,-3.73583 3.583,3.583 0 0 0 -4.25368,0.23352 c -1.56706,1.494 -1.01244,4.09923 -1.74364,6.1371 a 12.95307,12.95307 0 0 1 -2.78616,3.82048 c -1.66408,1.92 -2.9898,4.17181 -4.99378,5.73377 -2.00398,1.56196 -5.043,2.23889 -7.03394,0.66032 -1.6741,-1.32737 -2.0211,-3.77624 -1.61458,-5.87368 0.40652,-2.09744 1.41475,-4.02891 1.98335,-6.08833 1.84762,-6.69179 -1.098,-13.83609 -0.18661,-20.71818 1.16775,-8.81839 8.66294,-15.784 17.02888,-18.80695 a 19.922,19.922 0 0 1 10.99398,-1.16482 c 3.82594,0.85429 7.09438,3.29007 10.75865,4.68315 3.91854,1.48974 8.17957,1.74987 12.28027,2.62079 4.1007,0.87092 8.32063,2.55482 10.70026,6.00614 1.65973,2.40721 2.23022,5.39673 3.60571,7.97693 a 14.311,14.311 0 0 0 7.24879,6.49424 L 253.1128,34.9419 a 12.777,12.777 0 0 0 3.45385,5.04091 9.26938,9.26938 0 0 1 -6.00092,-0.79324 6.52319,6.52319 0 0 0 2.23734,4.67626 c -3.33564,-0.10048 -6.8532,-0.25422 -9.67173,-2.041 -1.38059,-0.87519 -2.50643,-2.09416 -3.80559,-3.08621 -2.7692,-2.11458 -6.20478,-3.11829 -9.55388,-4.07948 -1.7586,-0.50471 -3.87536,-1.20653 -5.46579,-0.0755 -1.32449,0.9419 -1.53359,2.63306 -3.24636,3.43928 z"
     id="path48"
     inkscape:connector-curvature="0"
     style="fill:#2f2e41" />
  <path
     d="m 147.10944,81.91411 -11.40432,9.12346 -15.20577,34.97327 c 0,0 21.28807,16.72635 26.61009,14.44548 5.32202,-2.28087 14.44549,-42.57612 14.44549,-42.57612 z"
     id="path50"
     inkscape:connector-curvature="0"
     style="fill:#3f3d56" />
  <path
     d="m 318.15642,123.64536 -47.98714,26.35868 a 2.28534,2.28534 0 0 1 -3.36012,-0.9912 l -11.75542,-24.5717 a 3.06719,3.06719 0 0 1 1.57216,-3.6833 l 39.84138,-20.536 a 2.32618,2.32618 0 0 1 3.04849,0.58278 l 19.90118,18.749 a 2.95539,2.95539 0 0 1 -1.26053,4.09174 z"
     id="path52"
     inkscape:connector-curvature="0"
     style="fill:#2f2e41" />
  <polygon
     points="299.111,145.508 287.139,123.932 325.732,102.945 344.098,119.795 "
     id="polygon54"
     transform="translate(-29.1438,0.22055)"
     style="fill:#6c63ff" />
  <ellipse
     cx="91.154556"
     cy="284.40952"
     rx="0.66226"
     ry="0.56465"
     transform="rotate(-50.15848)"
     id="ellipse56"
     style="fill:#f2f2f2" />
  <ellipse
     cx="84.906387"
     cy="311.37698"
     rx="0.44150001"
     ry="0.37643"
     transform="rotate(-50.15848)"
     id="ellipse58"
     style="fill:#f2f2f2" />
  <path
     d="m 67.89467,439.90145 c 0,17.41683 -10.35262,23.49772 -23.12524,23.49772 -0.29586,0 -0.5917,-0.004 -0.88542,-0.0107 -0.5917,-0.0128 -1.17915,-0.0404 -1.75807,-0.0809 -11.5275,-0.81519 -20.48174,-7.209 -20.48174,-23.4062 0,-16.75915 21.41612,-37.90922 23.02945,-39.47786 l 0.002,-0.002 c 0.0617,-0.0617 0.0936,-0.0915 0.0936,-0.0915 0,0 23.12524,22.15681 23.12524,39.57151 z"
     id="path60"
     inkscape:connector-curvature="0"
     style="fill:#6c63ff" />
  <path
     d="m 43.92658,460.73438 8.45833,-11.817 -8.47962,13.1153 -0.0213,1.3558 c -0.5917,-0.0128 -1.17915,-0.0404 -1.75807,-0.0809 l 0.91095,-17.42323 -0.006,-0.13621 0.0149,-0.0234 0.0873,-1.64739 -8.50089,-13.14717 8.52643,11.91275 0.0213,0.34906 0.68747,-13.16426 -7.27705,-13.5857 7.36644,11.27635 0.71728,-27.29481 0.002,-0.0937 v 0.0915 l -0.11919,21.52254 7.24513,-8.53282 -7.27493,10.38668 -0.19155,11.78717 6.76623,-11.31254 -6.7939,13.04719 -0.10643,6.5534 9.81839,-15.746 -9.8567,18.03192 z"
     id="path62"
     inkscape:connector-curvature="0"
     style="fill:#3f3d56" />
  <path
     d="m 390.89467,403.90145 c 0,17.41683 -10.35262,23.49772 -23.12524,23.49772 -0.29586,0 -0.5917,-0.004 -0.88542,-0.0107 -0.5917,-0.0128 -1.17915,-0.0404 -1.75807,-0.0809 -11.5275,-0.81519 -20.48174,-7.209 -20.48174,-23.4062 0,-16.75915 21.41612,-37.90922 23.02945,-39.47786 l 0.002,-0.002 c 0.0617,-0.0617 0.0936,-0.0915 0.0936,-0.0915 0,0 23.12524,22.15681 23.12524,39.57151 z"
     id="path64"
     inkscape:connector-curvature="0"
     style="fill:#6c63ff" />
  <path
     d="m 366.92658,424.73438 8.45833,-11.817 -8.47962,13.1153 -0.0213,1.3558 c -0.5917,-0.0128 -1.17915,-0.0404 -1.75807,-0.0809 l 0.911,-17.42323 -0.006,-0.13621 0.0149,-0.0234 0.0873,-1.64739 -8.50094,-13.14717 8.52643,11.91275 0.0213,0.34906 0.68747,-13.16426 -7.27705,-13.5857 7.36644,11.27635 0.71728,-27.29481 0.002,-0.0937 v 0.0915 l -0.11919,21.52254 7.24513,-8.53282 -7.27493,10.38668 -0.19155,11.78717 6.76623,-11.31254 -6.7939,13.04719 -0.10643,6.5534 9.81839,-15.746 -9.8567,18.03195 z"
     id="path66"
     inkscape:connector-curvature="0"
     style="fill:#3f3d56" />
  <rect
     x="301.05222"
     y="38.256378"
     width="384.45102"
     height="211.68286"
     id="rect68"
     style="fill:#f2f2f2" />
  <circle
     cx="365.47946"
     cy="114.74765"
     r="31.68552"
     id="circle70"
     style="opacity:0.3;fill:#6c63ff" />
  <circle
     cx="493.27774"
     cy="114.74765"
     r="31.68552"
     id="circle72"
     style="opacity:0.3;fill:#6c63ff" />
  <circle
     cx="621.07605"
     cy="114.74765"
     r="31.68552"
     id="circle74"
     style="opacity:0.3;fill:#6c63ff" />
  <rect
     x="321.64786"
     y="170.19733"
     width="86.607101"
     height="8.4494696"
     id="rect76"
     style="opacity:0.3;fill:#6c63ff" />
  <rect
     x="450.50229"
     y="170.19733"
     width="86.607101"
     height="8.4494696"
     id="rect78"
     style="opacity:0.3;fill:#6c63ff" />
  <rect
     x="579.35681"
     y="170.19733"
     width="86.607101"
     height="8.4494696"
     id="rect80"
     style="fill:#6c63ff" />
  <path
     d="m 977.80218,452.28056 c 0,27.10654 -99.884,88.71947 -231.56832,88.71947 -131.68438,0 -245.82686,-61.61293 -245.82686,-88.71947 0,-6.77994 11.18066,1.6397 23.236,-4.22474 35.09653,-17.10249 118.78309,-4.49608 213.76656,-5.19933 q 4.39544,-0.0397 8.82425,-0.0398 c 131.68447,0 231.56837,-17.64271 231.56837,9.46383 z"
     id="path82"
     inkscape:connector-curvature="0"
     style="fill:#3f3d56" />
  <path
     d="m 977.80218,452.28056 c 0,27.10654 -99.884,88.71947 -231.56832,88.71947 -131.68438,0 -245.82686,-61.61293 -245.82686,-88.71947 0,-6.77994 11.18066,1.6397 23.236,-4.22474 35.09653,-17.10249 118.78309,-4.49608 213.76656,-5.19933 q 4.39544,-0.0397 8.82425,-0.0398 c 131.68447,0 231.56837,-17.64271 231.56837,9.46383 z"
     id="path84"
     inkscape:connector-curvature="0"
     style="opacity:0.1" />
  <path
     d="m 977.27408,451.77338 c 0,27.10654 -106.7491,49.09165 -238.43351,49.09165 -131.68442,0 -238.43357,-21.98511 -238.43357,-49.09165 0,-6.77993 6.66275,-13.22825 18.71813,-19.09269 35.09654,-17.10249 115.90772,-29.25595 210.89119,-29.9592 q 4.39544,-0.0397 8.82425,-0.0398 c 131.68441,0 238.43351,21.98511 238.43351,49.09165 z"
     id="path86"
     inkscape:connector-curvature="0"
     style="fill:#3f3d56" />
  <ellipse
     cx="751.19214"
     cy="343.44867"
     rx="57.076691"
     ry="64.730652"
     id="ellipse88"
     style="fill:#36334a" />
  <path
     d="m 776.2663,226.32597 -85.78,2.63939 c 0,0 -88,82.58781 -25.31457,105.02257 0,0 89.31964,3.852 107.79534,-10.66458 0,3e-5 23.09461,-91.05876 3.29923,-96.99738 z m -3.95908,24.41431 -91.71861,5.93862 c 0,0 6.59846,-22.43477 32.9923,-22.43477 26.39384,0 56.08692,-5.93862 58.72631,7.91815 2.63939,13.85677 0,8.578 0,8.578 z"
     id="path90"
     inkscape:connector-curvature="0"
     style="fill:#3f3d56" />
  <path
     d="m 864.02578,278.45382 -112.83364,-3.95908 26.39385,-111.514 c 0,0 105.57539,-7.91816 102.93599,19.13553 -2.6394,27.05369 -16.4962,96.33755 -16.4962,96.33755 z"
     id="path92"
     inkscape:connector-curvature="0"
     style="fill:#36334a" />
  <path
     d="m 755.09781,331.76022 c 0,0 -67.91074,12.01836 -92.32505,-23.61333 -24.41431,-35.63169 92.37846,-16.49615 92.37846,-16.49615 l 9.89769,27.05369 z"
     id="path94"
     inkscape:connector-curvature="0"
     style="fill:#36334a" />
  <circle
     cx="734.69604"
     cy="451.99335"
     r="31.01277"
     id="circle96"
     style="fill:#36334a" />
  <ellipse
     cx="737.66534"
     cy="451.99335"
     rx="19.46546"
     ry="22.434771"
     id="ellipse98"
     style="fill:#3f3d56" />
  <path
     d="m 904.27638,159.68152 c 0,0 -25.734,-14.51662 -27.0537,19.79538 l -21.7749,159.68276 h 9.2379 l 25.0741,-170.90014 c 0,0 12.5371,1.97953 14.5166,1.97953 1.9796,0 0,-10.55753 0,-10.55753 z"
     id="path100"
     inkscape:connector-curvature="0"
     style="fill:#3f3d56" />
  <path
     d="m 929.91848,177.30047 v 0 a 6.17144,6.17144 0 0 1 -8.3724,4.02281 l -29.8524,-12.7631 5.4154,-11.92818 29.4212,13.40039 a 6.17143,6.17143 0 0 1 3.3882,7.26808 z"
     id="path102"
     inkscape:connector-curvature="0"
     style="fill:#36334a" />
  <path
     d="m 748.55276,327.94228 c 0,0 -47.50892,-5.27877 -60.70584,40.25061 -13.19692,45.52938 -11.87724,80.50123 -23.09462,77.86184 -11.21738,-2.63939 -34.97179,-11.87723 -34.97179,-11.87723 l 1.97953,13.85677 c 0,0 41.57031,21.11508 48.16877,-1.31969 6.59846,-22.43477 10.55754,-104.91553 48.16877,-102.936 37.61123,1.97953 44.20969,-1.97953 44.20969,-1.97953 z"
     id="path104"
     inkscape:connector-curvature="0"
     style="fill:#3f3d56" />
  <path
     d="m 658.15384,306.16738 c 0,0 -36.95138,4.61892 -51.468,31.67261 -14.51662,27.05369 -21.77492,75.8823 -21.77492,75.8823 h 13.85677 c 0,0 7.91815,-96.99738 49.48846,-91.71861 z"
     id="path106"
     inkscape:connector-curvature="0"
     style="fill:#3f3d56" />
  <path
     d="m 633.07969,457.27212 -58.72631,-36.29154 c 0,0 -3.29923,-13.19692 34.312,-18.47569 0,0 71.1096,24.86931 64.25811,34.20958 -6.85149,9.34027 -29.94611,23.85691 -39.8438,20.55765 z"
     id="path108"
     inkscape:connector-curvature="0"
     style="fill:#36334a" />
  <path
     d="m 742.10933,248.68598 c 1.80879,1.9697 35.0858,33.63025 35.0858,33.63025 0,0 -3.30685,22.098 -38.91119,24.8404 l -59.34056,4.57058 c 0,0 -11.21613,41.16111 -24.5518,54.31508 -13.33567,13.15397 -7.21573,13.88776 -12.22042,20.299 -5.00469,6.41124 2.01964,8.12985 -5.57756,8.75267 -7.5972,0.62282 -23.29375,-8.56261 -23.46437,-15.66739 -0.17062,-7.10478 4.2612,-11.17456 6.23089,-12.98335 1.96969,-1.80879 6.96466,-19.10328 9.95943,-22.7611 2.99477,-3.65782 14.33158,-47.65278 14.33158,-47.65278 0,0 11.316,-21.28383 27.00285,-22.98167 15.68685,-1.69784 33.13975,-9.32786 33.13975,-9.32786"
     id="path110"
     inkscape:connector-curvature="0"
     style="fill:#2f2e41" />
  <path
     d="m 742.10933,248.68598 c 1.80879,1.9697 35.0858,33.63025 35.0858,33.63025 0,0 -3.30685,22.098 -38.91119,24.8404 l -59.34056,4.57058 c 0,0 -11.21613,41.16111 -24.5518,54.31508 -13.33567,13.15397 -7.21573,13.88776 -12.22042,20.299 -5.00469,6.41124 2.01964,8.12985 -5.57756,8.75267 -7.5972,0.62282 -23.29375,-8.56261 -23.46437,-15.66739 -0.17062,-7.10478 4.2612,-11.17456 6.23089,-12.98335 1.96969,-1.80879 6.96466,-19.10328 9.95943,-22.7611 2.99477,-3.65782 14.33158,-47.65278 14.33158,-47.65278 0,0 11.316,-21.28383 27.00285,-22.98167 15.68685,-1.69784 33.13975,-9.32786 33.13975,-9.32786"
     id="path112"
     inkscape:connector-curvature="0"
     style="opacity:0.1" />
  <path
     d="m 684.54826,143.01707 c 0,0 -12.48807,-33.93256 -21.0357,-23.12063 -8.54763,10.81193 13.75366,28.56676 13.75366,28.56676 z"
     id="path114"
     inkscape:connector-curvature="0"
     style="fill:#a0616a" />
  <path
     d="m 750.3321,160.73038 -7.11013,-3.0085 c 0,0 -13.05135,8.82007 -13.91075,11.68376 -0.8594,2.86369 1.00214,1.86155 -4.12424,4.38118 -5.12638,2.51963 -19.13079,8.61816 -20.99234,9.62031 -1.86155,1.00215 -22.94,-36.28994 -17.89923,-41.64472 0,0 -9.43486,3.40146 -13.73039,2.11237 0,0 10.72294,51.9878 12.35463,59.03282 1.63169,7.04502 5.44042,7.87588 12.54255,8.13428 7.10213,0.2584 50.23169,-12.39543 50.23169,-12.39543 z"
     id="path116"
     inkscape:connector-curvature="0"
     style="fill:#575a89" />
  <path
     d="m 639.08651,384.16548 c 0,0 -0.35965,7.37566 0.87161,8.2235 1.23126,0.84784 8.84021,18.79285 -2.8794,20.52417 -11.71961,1.73132 -18.15455,-0.52165 -20.9886,0.431 -2.83405,0.95265 -49.55049,-2.901 -49.19084,-10.27664 0.35965,-7.37564 23.71788,-5.44886 23.71788,-5.44886 0,0 23.1368,-10.93119 27.46888,-17.74954 4.33208,-6.81835 21.00047,4.29637 21.00047,4.29637 z"
     id="path118"
     inkscape:connector-curvature="0"
     style="fill:#2f2e41" />
  <path
     d="m 639.08651,384.16548 c 0,0 -0.35965,7.37566 0.87161,8.2235 1.23126,0.84784 8.84021,18.79285 -2.8794,20.52417 -11.71961,1.73132 -18.15455,-0.52165 -20.9886,0.431 -2.83405,0.95265 -49.55049,-2.901 -49.19084,-10.27664 0.35965,-7.37564 23.71788,-5.44886 23.71788,-5.44886 0,0 23.1368,-10.93119 27.46888,-17.74954 4.33208,-6.81835 21.00047,4.29637 21.00047,4.29637 z"
     id="path120"
     inkscape:connector-curvature="0"
     style="opacity:0.1" />
  <path
     d="m 663.19169,423.01497 c 0,0 -7.10505,30.95669 -12.31708,30.64119 -5.21203,-0.3155 -42.00694,-18.22232 -46.53423,-21.769 -5.813,-4.55393 -5.58317,-12.60111 1.08925,-10.91086 6.67242,1.69025 25.54482,0.17422 28.75256,-3.23337 l 8.24848,-8.76237 z"
     id="path122"
     inkscape:connector-curvature="0"
     style="fill:#2f2e41" />
  <path
     d="m 736.03345,251.02373 c 1.94719,1.833 61.16523,52.06907 61.16523,52.06907 0,0 -1.6917,22.28 -37.00246,27.60328 l -58.85131,8.87219 c 0,0 -8.1943,41.86755 -20.53846,55.95615 -12.34416,14.0886 -6.18709,14.37555 -10.71248,21.13362 -4.52539,6.75807 2.60529,7.96153 -4.92654,9.135 -7.53183,1.17347 -23.85457,-6.84664 -24.54121,-13.92022 -0.68664,-7.07358 3.4376,-11.45476 5.27059,-13.402 1.83299,-1.94724 5.55754,-19.559 8.27849,-23.42487 2.72095,-3.86587 10.82959,-48.56853 10.82959,-48.56853 0,0 9.73888,-22.05012 25.26078,-24.8838 15.5219,-2.83368 32.374,-11.71224 32.374,-11.71224"
     id="path124"
     inkscape:connector-curvature="0"
     style="fill:#2f2e41" />
  <circle
     cx="790.54382"
     cy="114.11197"
     r="28.07926"
     id="circle126"
     style="fill:#a0616a" />
  <path
     d="m 805.26188,131.63962 c 0,0 -4.2113,17.15359 2.2027,25.946 6.414,8.79241 -42.89967,4.60666 -42.89967,4.60666 0,0 13.34777,-27.8346 8.42269,-34.30719 -4.92508,-6.47259 32.27428,3.75453 32.27428,3.75453 z"
     id="path128"
     inkscape:connector-curvature="0"
     style="fill:#a0616a" />
  <path
     d="m 742.22783,158.61044 c -5.95723,6.32838 -3.92731,42.21161 -3.92731,42.21161 l 3.80582,32.046 c 0,0 -4.55394,5.813 -3.065,8.13282 1.48894,2.31982 3.92294,4.611 -0.77375,5.69883 -4.69669,1.08783 -15.5219,2.83368 -12.05721,7.93152 a 49.14714,49.14714 0 0 0 3.62943,4.13271 c 1.10422,1.168 2.41733,2.52349 3.90558,4.03463 3.48311,3.51757 7.913,7.8437 12.82765,12.40587 q 2.088,1.95179 4.28093,3.93808 c 18.74955,16.96131 42.06471,34.915 46.88861,26.29868 8.0772,-14.43265 13.6904,-16.494 13.3192,-28.77965 -0.3711,-12.28565 10.0273,-43.81475 10.0273,-43.81475 0,0 12.0902,-53.80911 -4.9478,-69.84782 l -2.6637,-4.26128 a 11.13039,11.13039 0 0 0 -12.0437,-4.92847 c -8.316,1.987 -21.06436,4.73209 -26.58766,4.28885 -8.534,-0.68811 -6.66306,-4.19722 -6.66306,-4.19722 0,0 -19.99809,-1.61878 -25.95533,4.70959 z"
     id="path130"
     inkscape:connector-curvature="0"
     style="fill:#575a89" />
  <path
     d="m 715.89905,273.3879 c 0,0 -34.73834,8.6167 -29.642,20.75956 5.09634,12.14286 35.168,-10.04855 35.168,-10.04855 z"
     id="path132"
     inkscape:connector-curvature="0"
     style="fill:#a0616a" />
  <path
     d="m 806.08378,124.38486 c -0.6914,-0.83768 -0.01,-2.06137 0.5944,-2.96549 3.2237,-4.84167 3.8393,-11.731 0.2925,-16.34128 a 15.55822,15.55822 0 0 0 -5.1285,-4.10315 24.84,24.84 0 0 0 -8.9504,-2.74714 13.85589,13.85589 0 0 1 -4.8633,-0.958 c -0.9793,-0.49689 -5.59997,-2.11512 -6.59177,-2.58657 -2.18055,-1.03652 -5.21411,-0.58858 -6.61108,-2.55775 -1.3365,-1.88391 -0.0884,-4.46441 1.21,-6.37475 2.95814,-4.35212 10.43855,-7.95912 15.57535,-9.10145 3.8981,-0.86688 7.9663,0.352 11.5787,2.0541 a 70.69127,70.69127 0 0 1 11.7943,7.37879 c 5.0532,3.74391 10.0316,7.89284 13.0666,13.40117 3.0349,5.50833 3.7663,12.68266 0.3377,17.955 -0.7142,1.09827 -1.5875,2.08968 -2.2563,3.21622 -1.6313,2.74819 -1.9257,6.07191 -3.0783,9.05273 a 16.75588,16.75588 0 0 1 -9.6829,9.54035 c -3.5118,1.29842 -7.8309,1.65711 -9.9056,4.77387 l -0.9682,-6.49837 a 3.747,3.747 0 0 1 1.7521,-4.37365 l 4.974,-4.18966 a 5.6839,5.6839 0 0 0 2.1503,-2.77249 c 1.0759,-4.48827 -4.1367,-0.40582 -5.2896,-1.80248 z"
     id="path134"
     inkscape:connector-curvature="0"
     style="fill:#2f2e41" />
  <path
     d="m 756.28058,248.04731 -22.53519,14.7512 c 4.46876,4.51889 10.50525,10.36662 17.10858,16.344 6.25485,-3.36717 12.63365,-7.01246 18.34031,-10.67527 20.8781,-13.40049 38.7798,-47.04812 46.7999,-63.37086 8.0201,-16.32274 1.4919,-28.8953 1.4919,-28.8953 a 60.969,60.969 0 0 0 -16.6954,-4.69814 c -10.4526,-1.57611 -44.5101,76.54437 -44.5101,76.54437 z"
     id="path136"
     inkscape:connector-curvature="0"
     style="opacity:0.1" />
  <path
     d="m 753.3027,243.40772 -23.46289,15.35616 c 1.10422,1.168 2.41733,2.52349 3.90558,4.03463 3.48311,3.51757 7.913,7.8437 12.82765,12.40587 6.6651,-3.55937 13.54237,-7.46082 19.64335,-11.37677 20.87809,-13.40049 38.77979,-47.04812 46.79989,-63.37086 8.0201,-16.32274 -13.559,-10.46835 -13.559,-10.46835 0,0 11.1978,-5.06783 0.7452,-6.64388 -10.4526,-1.57605 -46.89978,60.0632 -46.89978,60.0632 z"
     id="path138"
     inkscape:connector-curvature="0"
     style="opacity:0.1" />
  <path
     d="m 816.45538,173.39444 c 0,0 6.5282,12.57256 -1.4919,28.8953 -8.0201,16.32274 -25.9218,49.97037 -46.7999,63.37086 -20.87814,13.40049 -50.74849,26.59969 -50.74849,26.59969 0,0 -2.83369,-15.5219 -7.616,-17.26925 l 45.45082,-29.75033 c 0,0 34.05747,-78.12047 44.51007,-76.54442 a 60.96919,60.96919 0 0 1 16.6954,4.69815 z"
     id="path140"
     inkscape:connector-curvature="0"
     style="fill:#575a89" />
  <polygon
     points="946.438,561.055 937.86,562.375 937.86,639.577 946.438,639.577 "
     id="polygon142"
     style="fill:#3f3d56"
     transform="translate(-213.72122,-223.21527)" />
  <path
     d="m 736.67551,386.66858 c 0,0 16.49615,64.66492 5.93861,73.90277 0,0 -13.85677,-40.91046 -24.4143,-35.63169 l 3.29923,-38.27108 z"
     id="path144"
     inkscape:connector-curvature="0"
     style="fill:#36334a" />
  <path
     d="m 864.68568,246.12138 -85.78,2.63938 c 0,0 -75.8823,73.90277 -13.19692,96.33754 0,0 77.20202,12.53707 95.67762,-1.97954 0,-2e-5 23.0947,-91.05879 3.2993,-96.99738 z m -3.9591,24.4143 -91.71859,5.93862 c 0,0 6.59846,-22.43477 32.99229,-22.43477 26.3938,0 56.0869,-5.93861 58.7263,7.91815 2.6394,13.85676 0,8.57798 0,8.57798 z"
     id="path146"
     inkscape:connector-curvature="0"
     style="fill:#3f3d56" />
  <ellipse
     cx="845.22021"
     cy="385.34888"
     rx="86.109917"
     ry="97.657227"
     id="ellipse148"
     style="fill:#36334a" />
  <ellipse
     cx="849.17932"
     cy="385.34888"
     rx="64.994843"
     ry="72.583069"
     id="ellipse150"
     style="fill:#3f3d56" />
  <path
     d="m 866.00538,384.35912 a 19.32852,19.32852 0 0 0 -0.3768,-3.77072 l 48.5455,-24.27274 -3.2992,-7.25831 -49.0387,23.89067 a 10.24043,10.24043 0 0 0 -1.6291,-1.36126 l 0.037,0.008 14.3388,-71.36592 -12.6837,-0.28836 -8.4314,70.232 0.8084,0.16967 a 7.91615,7.91615 0 0 0 -1.891,0.6462 l -42.4117,-43.53406 -5.9942,8.40619 43.5748,40.08875 a 17.52762,17.52762 0 0 0 -1.9294,6.75658 l -61.44067,25.0779 -1.3197,10.55754 64.04467,-26.93469 a 13.99772,13.99772 0 0 0 2.5031,4.04551 l -19.6988,67.09887 h 7.2583 l 16.5349,-64.368 a 7.53418,7.53418 0 0 0 2.2708,0.36295 7.864,7.864 0 0 0 4.1938,-1.257 l 34.4072,45.46667 10.5575,-7.2583 -40.3143,-44.03567 a 18.45161,18.45161 0 0 0 1.3834,-7.10237 z"
     id="path152"
     inkscape:connector-curvature="0"
     style="fill:#36334a" />
  <circle
     cx="639.82336"
     cy="114.30164"
     r="31.68552"
     id="circle154"
     style="fill:#6c63ff" />
  <path
     d="m 960.31718,439.46563 c 0,17.41683 -10.3526,23.49772 -23.1252,23.49772 -0.2959,0 -0.5917,-0.004 -0.8854,-0.0107 -0.5917,-0.0128 -1.1792,-0.0404 -1.7581,-0.0809 -11.5275,-0.81519 -20.4817,-7.209 -20.4817,-23.4062 0,-16.75915 21.4161,-37.90922 23.0294,-39.47786 v -0.002 c 0.062,-0.0617 0.094,-0.0915 0.094,-0.0915 0,0 23.1252,22.15681 23.1252,39.57151 z"
     id="path156"
     inkscape:connector-curvature="0"
     style="fill:#6c63ff" />
  <path
     d="m 936.34918,460.29856 8.4583,-11.817 -8.4796,13.1153 -0.021,1.3558 c -0.5917,-0.0128 -1.1792,-0.0404 -1.7581,-0.0809 l 0.911,-17.42323 -0.01,-0.13621 0.015,-0.0234 0.087,-1.64739 -8.5008,-13.14723 8.5264,11.91275 0.021,0.34906 0.6874,-13.16426 -7.277,-13.58567 7.3665,11.27635 0.7173,-27.29481 v -0.0937 0.0915 l -0.1192,21.52254 7.2451,-8.53282 -7.2749,10.38668 -0.1915,11.78717 6.7662,-11.31254 -6.7939,13.04719 -0.1064,6.5534 9.8183,-15.746 -9.8567,18.03195 z"
     id="path158"
     inkscape:connector-curvature="0"
     style="fill:#3f3d56" />
</svg>
