<?xml version="1.0" standalone="no"?>
<!DOCTYPE svg PUBLIC "-//W3C//DTD SVG 20010904//EN"
 "http://www.w3.org/TR/2001/REC-SVG-20010904/DTD/svg10.dtd">
<svg version="1.0" xmlns="http://www.w3.org/2000/svg"
 width="5000.000000pt" height="5000.000000pt" viewBox="0 0 5000.000000 5000.000000"
 preserveAspectRatio="xMidYMid meet">
<metadata>
Created by potrace 1.16, written by Peter Selinger 2001-2019
</metadata>
<g transform="translate(0.000000,5000.000000) scale(0.100000,-0.100000)"
fill="#e85048" stroke="none">
<path d="M24390 43304 c-446 -20 -594 -28 -830 -45 -2917 -208 -5749 -1062
-8305 -2504 -919 -518 -1811 -1122 -2640 -1786 -598 -479 -1021 -857 -1573
-1404 -1133 -1121 -2075 -2297 -2901 -3623 -2318 -3719 -3332 -8081 -2901
-12482 264 -2696 1080 -5301 2408 -7689 1667 -3000 4133 -5557 7075 -7339
2124 -1287 4465 -2163 6900 -2582 2511 -432 5144 -376 7622 161 4095 888 7800
3053 10611 6199 2328 2606 3934 5800 4634 9215 172 842 295 1739 354 2600 37
528 41 668 41 1415 0 746 -4 882 -41 1410 -264 3822 -1640 7495 -3957 10560
-564 745 -1112 1375 -1792 2056 -593 595 -1057 1011 -1689 1517 -2856 2284
-6317 3740 -9941 4181 -448 55 -917 95 -1470 127 -178 10 -1439 20 -1605 13z
m1380 -214 c605 -25 1144 -69 1715 -141 5071 -636 9705 -3246 12921 -7279
1764 -2212 3034 -4789 3709 -7525 525 -2129 689 -4349 485 -6545 -383 -4113
-2058 -7993 -4798 -11117 -391 -445 -1070 -1141 -1477 -1513 -1761 -1610
-3691 -2840 -5850 -3730 -2678 -1104 -5630 -1602 -8535 -1440 -3075 172 -6007
1039 -8670 2563 -2644 1514 -4928 3649 -6627 6197 -682 1023 -1282 2140 -1760
3275 -1385 3287 -1841 6902 -1322 10465 545 3740 2183 7265 4704 10125 539
612 1190 1260 1810 1805 2239 1964 4898 3396 7760 4179 1476 404 2901 620
4520 684 195 8 1201 6 1415 -3z"/>
<path d="M38375 32934 c-638 -52 -1212 -359 -1593 -852 -540 -700 -599 -1672
-148 -2412 32 -52 59 -99 59 -105 0 -8 -296 -444 -1018 -1500 -191 -279 -2916
-4270 -3087 -4523 -81 -117 -116 -161 -127 -158 -122 36 -516 51 -701 27 -434
-57 -840 -237 -1162 -513 -37 -32 -70 -58 -74 -58 -4 0 -843 372 -1866 827
l-1858 827 0 87 c0 202 -43 458 -111 662 -215 646 -736 1163 -1387 1377 -249
82 -429 110 -702 110 -97 0 -214 -5 -260 -10 -911 -111 -1653 -759 -1875
-1639 -97 -386 -80 -816 46 -1194 44 -132 131 -323 196 -428 l41 -65 -1755
-2475 c-965 -1361 -1760 -2481 -1767 -2490 -10 -14 -20 -14 -116 3 -137 25
-476 35 -621 19 -247 -29 -507 -105 -724 -211 -121 -60 -304 -173 -383 -237
-33 -27 -48 -33 -61 -27 -10 5 -969 510 -2132 1122 l-2114 1114 0 211 c0 156
-5 241 -18 322 -78 478 -277 867 -616 1206 -198 198 -408 345 -646 452 -686
308 -1490 249 -2113 -156 -146 -94 -218 -152 -345 -277 -666 -648 -844 -1645
-442 -2475 282 -581 811 -1012 1440 -1170 333 -84 722 -88 1054 -9 292 68 570
199 824 386 l67 50 2133 -1123 2132 -1122 -3 -174 c-8 -363 59 -666 218 -988
319 -649 920 -1086 1655 -1202 154 -24 487 -24 645 1 570 89 1077 385 1422
829 215 279 358 603 424 962 25 138 30 488 10 640 -41 290 -145 592 -285 819
l-42 68 36 52 c20 28 813 1147 1763 2486 1652 2329 1729 2435 1757 2434 17 0
82 -9 145 -19 156 -26 468 -26 630 -2 427 66 815 242 1128 515 l63 54 1863
-828 1863 -829 6 -160 c28 -791 495 -1500 1222 -1856 215 -105 417 -168 660
-205 153 -23 460 -23 620 0 642 93 1203 451 1550 990 444 691 453 1576 23
2282 l-49 82 334 488 c597 875 2164 3171 3026 4434 464 679 848 1240 855 1247
8 9 30 8 91 -3 145 -26 348 -35 503 -24 405 30 738 142 1069 359 554 363 908
948 972 1605 63 648 -179 1297 -654 1754 -336 324 -753 529 -1218 597 -108 16
-378 26 -472 19z m465 -229 c354 -59 677 -203 951 -423 87 -71 256 -242 320
-327 356 -466 487 -1044 363 -1604 -168 -756 -777 -1352 -1539 -1506 -274 -55
-527 -55 -804 1 -68 13 -128 23 -133 22 -4 -2 -993 -1445 -2196 -3208 l-2188
-3204 74 -111 c396 -588 448 -1315 138 -1942 -492 -996 -1703 -1397 -2697
-892 -553 281 -943 803 -1055 1414 -14 77 -19 150 -19 316 l0 217 -1993 886
-1993 887 -114 -102 c-239 -214 -455 -340 -740 -432 -354 -114 -713 -126
-1094 -36 -47 11 -88 16 -93 11 -4 -4 -838 -1178 -1852 -2607 l-1843 -2600 58
-87 c337 -500 424 -1115 238 -1683 -205 -630 -728 -1124 -1370 -1294 -201 -54
-293 -65 -524 -65 -231 0 -323 11 -525 65 -684 182 -1231 734 -1405 1417 -54
215 -71 482 -44 703 7 55 10 101 8 104 -9 8 -4494 2368 -4509 2372 -8 2 -53
-28 -100 -68 -121 -101 -245 -181 -395 -254 -294 -144 -561 -207 -885 -207
-322 0 -581 59 -870 198 -974 469 -1391 1622 -934 2583 104 218 198 354 369
530 177 182 326 292 543 401 558 279 1227 279 1783 1 205 -103 363 -217 529
-383 419 -418 629 -1018 556 -1588 -10 -78 -11 -108 -2 -116 10 -11 4465
-2356 4499 -2370 11 -4 43 17 99 64 463 390 1087 548 1678 425 69 -14 137 -28
151 -30 24 -4 139 155 1864 2589 1011 1426 1843 2599 1848 2605 6 9 -13 46
-63 123 -541 831 -378 1918 385 2558 283 238 622 389 1005 448 143 22 420 22
565 0 511 -79 958 -334 1274 -726 289 -359 438 -797 429 -1258 l-3 -163 1955
-870 c1075 -479 1972 -877 1992 -886 l37 -15 112 101 c350 315 744 485 1211
523 178 14 348 2 548 -38 72 -14 133 -25 134 -23 2 2 286 418 631 924 346 506
661 967 700 1025 40 58 485 710 990 1450 505 740 1175 1720 1488 2179 508 744
568 836 558 855 -6 11 -41 64 -77 116 -166 242 -279 556 -313 872 -53 479 93
984 398 1383 109 143 314 333 478 443 226 152 563 278 828 311 50 6 104 13
120 15 63 9 374 -4 465 -19z"/>
</g>
</svg>
