<?xml version="1.0" encoding="UTF-8" standalone="no"?>
<!-- Created with Inkscape (http://www.inkscape.org/) -->

<svg
   xmlns:dc="http://purl.org/dc/elements/1.1/"
   xmlns:cc="http://creativecommons.org/ns#"
   xmlns:rdf="http://www.w3.org/1999/02/22-rdf-syntax-ns#"
   xmlns:svg="http://www.w3.org/2000/svg"
   xmlns="http://www.w3.org/2000/svg"
   xmlns:sodipodi="http://sodipodi.sourceforge.net/DTD/sodipodi-0.dtd"
   xmlns:inkscape="http://www.inkscape.org/namespaces/inkscape"
   width="181mm"
   height="82mm"
   viewBox="0 0 181 82"
   version="1.1"
   id="svg862"
   inkscape:version="0.92.5 (2060ec1f9f, 2020-04-08)"
   sodipodi:docname="foot_home.svg">
  <defs
     id="defs856" />
  <sodipodi:namedview
     id="base"
     pagecolor="#ffffff"
     bordercolor="#666666"
     borderopacity="1.0"
     inkscape:pageopacity="0.0"
     inkscape:pageshadow="2"
     inkscape:zoom="0.35"
     inkscape:cx="-188.57143"
     inkscape:cy="560"
     inkscape:document-units="mm"
     inkscape:current-layer="layer1"
     showgrid="false"
     inkscape:window-width="1920"
     inkscape:window-height="1031"
     inkscape:window-x="0"
     inkscape:window-y="25"
     inkscape:window-maximized="1" />
  <metadata
     id="metadata859">
    <rdf:RDF>
      <cc:Work
         rdf:about="">
        <dc:format>image/svg+xml</dc:format>
        <dc:type
           rdf:resource="http://purl.org/dc/dcmitype/StillImage" />
        <dc:title></dc:title>
      </cc:Work>
    </rdf:RDF>
  </metadata>
  <g
     inkscape:label="Calque 1"
     inkscape:groupmode="layer"
     id="layer1"
     transform="translate(0,-215)">
    <rect
       x="1.2642853"
       y="216.05887"
       width="178.14404"
       height="78.933044"
       id="rect20"
       style="fill:#f2f2f2;stroke-width:0.29318714" />
    <rect
       x="70.412277"
       y="221.15572"
       width="32.81601"
       height="73.836014"
       id="rect22"
       style="fill:#cccccc;stroke-width:0.57383782" />
    <polygon
       points="376.515,600.677 376.515,580.253 352.007,580.253 352.007,600.677 374.473,600.677 "
       id="polygon24"
       style="fill:#3f3d56"
       transform="matrix(0.57383785,0,0,0.57383785,-180.80651,-102.43944)" />
    <polygon
       points="374.473,617.016 352.007,617.016 352.007,637.44 376.515,637.44 376.515,617.016 "
       id="polygon26"
       style="fill:#3f3d56"
       transform="matrix(0.57383785,0,0,0.57383785,-180.80651,-102.43944)" />
    <rect
       x="44.628288"
       y="230.53185"
       width="14.064003"
       height="11.72"
       id="rect28"
       style="fill:#3f3d56;stroke-width:0.57383782" />
    <rect
       x="44.628288"
       y="251.6277"
       width="14.064003"
       height="11.72"
       id="rect30"
       style="fill:#3f3d56;stroke-width:0.57383782" />
    <polygon
       points="543.991,600.677 543.991,580.253 519.483,580.253 519.483,600.677 541.949,600.677 "
       id="polygon32"
       style="fill:#3f3d56"
       transform="matrix(0.57383785,0,0,0.57383785,-180.80651,-102.43944)" />
    <polygon
       points="541.949,617.016 519.483,617.016 519.483,637.44 543.991,637.44 543.991,617.016 "
       id="polygon34"
       style="fill:#3f3d56"
       transform="matrix(0.57383785,0,0,0.57383785,-180.80651,-102.43944)" />
    <rect
       x="140.73235"
       y="230.53185"
       width="14.064003"
       height="11.72"
       id="rect36"
       style="fill:#3f3d56;stroke-width:0.57383782" />
    <rect
       x="140.73235"
       y="251.6277"
       width="14.064003"
       height="11.72"
       id="rect38"
       style="fill:#3f3d56;stroke-width:0.57383782" />
  </g>
</svg>
