<?xml version="1.0" encoding="UTF-8"?>
<svg id="uuid-f32aabcb-7e46-4ff2-8605-cd07eaf84ddd" data-name="Calque 2" xmlns="http://www.w3.org/2000/svg" width="527.1" height="218.91" viewBox="0 0 527.1 218.91">
  <defs>
    <style>
      .uuid-bc3f5cee-4b20-471e-abcc-6f8d70a25691, .uuid-1299cee8-9380-4cfd-9b1a-1c67769032fa {
        fill: #e85048;
      }

      .uuid-bc3f5cee-4b20-471e-abcc-6f8d70a25691, .uuid-1299cee8-9380-4cfd-9b1a-1c67769032fa, .uuid-ec00b0e0-5d1f-45ea-8e38-b8dc1b078f19, .uuid-a167531f-07c3-4051-bd67-4b77104b9e12, .uuid-2d017497-d8a0-447b-aaa4-47805101a187, .uuid-39f04276-9973-49d4-a13f-64144c45d886 {
        stroke-linecap: round;
      }

      .uuid-bc3f5cee-4b20-471e-abcc-6f8d70a25691, .uuid-1299cee8-9380-4cfd-9b1a-1c67769032fa, .uuid-a167531f-07c3-4051-bd67-4b77104b9e12 {
        stroke-linejoin: round;
      }

      .uuid-bc3f5cee-4b20-471e-abcc-6f8d70a25691, .uuid-1299cee8-9380-4cfd-9b1a-1c67769032fa, .uuid-2d017497-d8a0-447b-aaa4-47805101a187 {
        stroke: #e85048;
      }

      .uuid-cb10eef0-2bf6-4a5a-851b-57c5cd1dbebd {
        fill: #fad876;
      }

      .uuid-aaa5ca59-b6aa-4d13-b4fd-93aae749da46 {
        fill: #fbb099;
      }

      .uuid-60ca3a4d-7203-4626-a8ec-ffe8486e16bd {
        fill: #7e97a7;
      }

      .uuid-0842a7f5-288a-4d5f-b21c-88af54077caa {
        fill: #442f34;
      }

      .uuid-d54367ec-059c-4a6b-baa2-1a50e666d918 {
        fill: #719d76;
      }

      .uuid-1299cee8-9380-4cfd-9b1a-1c67769032fa, .uuid-a167531f-07c3-4051-bd67-4b77104b9e12, .uuid-2d017497-d8a0-447b-aaa4-47805101a187, .uuid-39f04276-9973-49d4-a13f-64144c45d886 {
        stroke-width: 2px;
      }

      .uuid-ec00b0e0-5d1f-45ea-8e38-b8dc1b078f19, .uuid-a167531f-07c3-4051-bd67-4b77104b9e12, .uuid-2d017497-d8a0-447b-aaa4-47805101a187, .uuid-39f04276-9973-49d4-a13f-64144c45d886 {
        fill: none;
      }

      .uuid-ec00b0e0-5d1f-45ea-8e38-b8dc1b078f19, .uuid-a167531f-07c3-4051-bd67-4b77104b9e12, .uuid-39f04276-9973-49d4-a13f-64144c45d886 {
        stroke: #413f4b;
      }

      .uuid-ec00b0e0-5d1f-45ea-8e38-b8dc1b078f19, .uuid-2d017497-d8a0-447b-aaa4-47805101a187, .uuid-39f04276-9973-49d4-a13f-64144c45d886 {
        stroke-miterlimit: 10;
      }
    </style>
  </defs>
  <g id="uuid-c6c2df53-dad1-4a25-bce6-87ca856d87c4" data-name="Calque 1">
    <g>
      <path class="uuid-cb10eef0-2bf6-4a5a-851b-57c5cd1dbebd" d="M493.42,3.44c-9.05-3.2-19.12-2.47-28.09,.6-8.69,2.97-18.42,7.93-24.69,14.81-14.97,16.44,1.17,37.21,9.54,52.24,2.91,5.23,5.59,10.61,7.34,16.35,1.33,4.4,.96,11.22,5.18,14.04,1.03,.68,2.29,1.12,3.68,1.38,.48,.17,1.01,.25,1.59,.22,3.76,.37,8.06-.2,11-.44,5.08-.41,10.08-1.27,15-2.53,2.1,2.45,6.26,3.12,8-.52,.15-.3,.29-.61,.43-.91-.19,.7-.15,.05,.95-.11,1.08-.16,2.29-.71,3.27-1.18,2-.96,3.73-2.24,4.65-4.34,1.23-2.81,.21-6.49-2.77-7.34,2.53-5.07,5.34-9.97,8.98-14.35,6.37-7.67,8.05-17.02,8.89-26.75,1.71-19.75-15.55-35.01-32.94-41.16Z"/>
      <path class="uuid-60ca3a4d-7203-4626-a8ec-ffe8486e16bd" d="M503.3,103.99c-2.98-4.3-10.43-2.71-14.91-2.69-6.25,.03-12.5,.06-18.74,.1-5.66,.03-6.35,7.77-2.05,9.61-1.39,9.72,2.5,18.82,9.86,25.29,3.18,2.8,7.71,5.49,11.57,2.12,1.65-1.44,2.09-3.69,3.55-5.28,1.64-1.77,4.12-2.35,5.74-4.11,3.1-3.36,2.32-8.85,3.48-12.99,1.08-3.87,4.2-8.15,1.5-12.05Z"/>
      <path class="uuid-2d017497-d8a0-447b-aaa4-47805101a187" d="M252.71,140.72c2.08,.99,3.64,1.72,3.96,1.86,18.79,7.74,42.63,12.77,64.68,6.63,100.06-27.84,101.7,76.93,136.46,68.19,30.2-7.6,25.5-51.03,25.5-74.7"/>
      <path class="uuid-2d017497-d8a0-447b-aaa4-47805101a187" d="M244.21,136.66c-2.83-1.36-5.12-2.46-5.5-2.65-23.62-11.46-42.55-30.78-52.95-45.19-15.06-20.88,60.29,2.68-184.76,2.68"/>
      <g>
        <rect class="uuid-bc3f5cee-4b20-471e-abcc-6f8d70a25691" x="234.85" y="132.79" width="10.15" height="2.74" transform="translate(82.11 -90.91) rotate(25.75)"/>
        <polygon class="uuid-bc3f5cee-4b20-471e-abcc-6f8d70a25691" points="240.01 135.88 241.85 140.45 246.05 131.74 241.33 133.15 240.01 135.88"/>
        <rect class="uuid-bc3f5cee-4b20-471e-abcc-6f8d70a25691" x="243.85" y="131.71" width="2.09" height="9.67" transform="translate(83.64 -92.83) rotate(25.75)"/>
      </g>
      <g>
        <rect class="uuid-bc3f5cee-4b20-471e-abcc-6f8d70a25691" x="252.3" y="141.36" width="10.22" height="2.74" transform="translate(427.26 383.12) rotate(-154.25)"/>
        <polygon class="uuid-bc3f5cee-4b20-471e-abcc-6f8d70a25691" points="257.3 140.99 255.46 136.42 251.25 145.13 255.98 143.72 257.3 140.99"/>
        <rect class="uuid-bc3f5cee-4b20-471e-abcc-6f8d70a25691" x="251.37" y="135.48" width="2.09" height="9.67" transform="translate(418.81 376.37) rotate(-154.25)"/>
        <line class="uuid-1299cee8-9380-4cfd-9b1a-1c67769032fa" x1="249.3" y1="136.42" x2="252.41" y2="137.92"/>
        <line class="uuid-1299cee8-9380-4cfd-9b1a-1c67769032fa" x1="247.43" y1="140.31" x2="250.54" y2="141.81"/>
      </g>
      <path class="uuid-aaa5ca59-b6aa-4d13-b4fd-93aae749da46" d="M276.41,152.08s-.85-2.37-1.96-4.5c-1.11-2.13-2.49-6.3-2.83-6.94s-2.98-3.42-4.03-3.41c-2.41,.02-8.1,2.14-8.71,2.44s-.39,1.55,.29,2.63,.67,3.73,.34,3.48c-.46-.35-2.57-1.27-2.53-1.25,0,0-.39,.32,.15,1.93,.21,.63,4.24,3.41,5.36,3.73,1.12,.32,3.64,.51,4.66,1.18s1.86,2.48,1.86,2.48l7.4-1.76Z"/>
      <path class="uuid-aaa5ca59-b6aa-4d13-b4fd-93aae749da46" d="M222.14,122.11s2.5-.36,4.9-.36c2.4,0,6.73-.74,7.46-.74s4.42,1.04,4.9,1.97c1.11,2.14,1.88,8.16,1.91,8.84s-1.19,1.07-2.47,.97c-1.27-.1-3.35,1.32-2.97,1.46s2.18,1.08,2.18,1.08c0,0-.27,.93-1.95,1.2-.66,.11-5-2.16-5.8-3s-2.15-2.98-3.22-3.57c-1.07-.59-3.06-.49-3.06-.49l-1.89-7.37Z"/>
      <path class="uuid-d54367ec-059c-4a6b-baa2-1a50e666d918" d="M194.88,131.45c-.08,2.47-.47,4.07-.54,7.53-.3,1.91-1.11,13.69-1.45,18.83-.1,1.45-.5,7.46-.15,8.63,.32,3.1,.92,6.15,1.79,9.17,2.03,7.11,6.26,12.69,11.7,17.49,.8,.79,1.73,1.39,2.78,1.8,1.92,.42,3.49,1.42,4.84,2.81,.95,.53,1.79,1.46,3.06,.85-.08-.14-.16-.29-.23-.43,.11,.07,.21,.14,.32,.2,.72,.47,1.44,.95,2.16,1.42,1.65-.08,2.72,1.13,3.85,1.98,4.62,3.5,9.96,5.28,15.41,6.84-.02,.06-.04,.11-.05,.17,1.97,2.09,4.92,2.06,7.25,3.35,1.85,.36,3.7,.71,5.54,1.07,2.38-1.01,9.14-2.75,10.39-3.14,3.82-1.19,7.36-3.06,10.98-4.75,4.53-1.29,9.15-2.22,13.78-2.95,4.64-.73,8.51-2.59,11.96-5.75,3.08-2.82,3.62-4.87,1.97-8.72-2.27-5.29-5.26-10.21-7.83-15.35-3.8-5.94-7.35-12.02-10.82-18.15-1.21-2.14-2.78-2.99-5.17-2.28-.66,.2-1.36,.27-2.05,.42-1.35,.41-2.83,.16-4.11,.87-3.89,1.95-4.11,2.86-2.19,6.89,1.02,2.14,2.14,4.14,3.94,5.74,.86,.76,1.38,1.77,1.67,2.89,.88,3.45,1.7,6.92,3.11,10.2,.38,.89,.37,1.68-.38,2.38-.59,.62-1.25,1.18-1.64,1.97-1.61-.99-3.5-.09-5.16-.7-1.12-.21-2.21-.55-3.29-.92-1.24-.15-2.17-1.8-3.66-.74v.03h0c-.1-.64-.52-1.04-1-1.4-2.25-1.06-4.37-2.29-6.18-4.06-.61-.6-1.36-1.46-2.43-.61,.15,.56-.19,.98-.37,1.46-1.42,3.95-4.73,6.54-7.05,9.84-3,4.26-7.46,4.47-12.03,3.92-3.61-.44-6.68-2.26-9.57-4.38-.01,0-.03-.01-.04-.01,.01,0,.03-.02,.04-.03,.38-1.2-.66-1.69-1.24-2.38-2.81-3.4-4.8-7.02-3.84-11.69,.3-1.45,.89-2.89,.82-4.35-.12-2.58,.92-4.52,2.7-6.25,.74-.72,1.43-1.57,1.09-2.76-1.33-1.35-3.22-1.14-4.83-1.6-2.31-.66-4.18-2.41-6.65-2.58,.52-.68-.11-1.29-.25-1.93-.55-3.79-1.08-7.62-3.09-11.07-.4-.9-.04-1.91-.4-2.82-.26-1.14,.51-1.76,1.21-2.43,1.83-1.74,4.55-1.1,6.94-1.34,3.32-.34,6.81-1.46,9.97-.78,2.6,.56,2.74,1.04,2.81-1.6,.05-1.63-.59-3.07-1.28-4.5-1.01-1.72-1.58-3.71-3.2-5.04-1.25-.6-2.1-1.51-3.46-1.3-3.75,.27-7.43,.59-11.02,.75-2.48,.16-5.96-.28-8.3,.36-5.45,1.48-6.94,3.55-7.11,8.95Z"/>
      <path class="uuid-0842a7f5-288a-4d5f-b21c-88af54077caa" d="M223.42,158.67c1.71-2.94,3.41-5.87,5.12-8.81,1.16-2.13,2.52-3.78,5.33-3.89,1.78-.07,2.5,.04,1.82,1.96-.25,.71-.33,1.49-.37,2.64,4.18-6.07,9.03-5.26,14.14-1.84,3.65,4.49,7.18,8.97,7.4,15.2,.06,1.57-.55,2.84-.7,4.27-.02,2.58-1.48,4.67-2.34,6.96-1.73,5.73-5.81,9.82-9.89,13.83-2.24,2.2-5.52,2.22-8.39,2.24-4.07,.03-7.82-1.48-10.96-4.21-.33-.29-.54-.68-.55-1.14-1.17-1.49-2.37-2.96-3.56-4.42-3.1-3.84-2.31-7.96-1.84-12.33,.44-4.16,1.93-7.55,4.8-10.45Z"/>
      <path class="uuid-ec00b0e0-5d1f-45ea-8e38-b8dc1b078f19" d="M449.4,13.73c17.64-17.64,46.33-17.64,63.97,0,17.64,17.64,17.64,46.34,0,63.97-7.03,7.03-10.91,16.38-10.91,26.33v6.81m-47.41-91.45c-15.54,13.42-14.52,38.14,0,52.66,7.59,7.59,12.16,17.41,13.08,27.99"/>
      <path class="uuid-a167531f-07c3-4051-bd67-4b77104b9e12" d="M495.08,104.03h-30.77c0-10.55-4.03-21.11-12.08-29.16-16.1-16.1-16.1-42.21,0-58.32s42.21-16.1,58.32,0c16.1,16.1,16.1,42.21,0,58.32h0c-8.05,8.05-12.08,18.6-12.08,29.16v24.93h-30.33v-21.34"/>
      <line class="uuid-ec00b0e0-5d1f-45ea-8e38-b8dc1b078f19" x1="473.14" y1="86.4" x2="466.15" y2="66.61"/>
      <line class="uuid-ec00b0e0-5d1f-45ea-8e38-b8dc1b078f19" x1="479.43" y1="84.52" x2="480.18" y2="63.55"/>
      <line class="uuid-ec00b0e0-5d1f-45ea-8e38-b8dc1b078f19" x1="485.77" y1="86.12" x2="494.15" y2="66.88"/>
      <polyline class="uuid-ec00b0e0-5d1f-45ea-8e38-b8dc1b078f19" points="493.94 131.54 488.67 138.69 477.94 138.69 472.67 131.54"/>
      <line class="uuid-ec00b0e0-5d1f-45ea-8e38-b8dc1b078f19" x1="464.31" y1="107.13" x2="464.31" y2="129.79"/>
      <line class="uuid-39f04276-9973-49d4-a13f-64144c45d886" x1="471.06" y1="108.26" x2="478.06" y2="106.53"/>
      <line class="uuid-39f04276-9973-49d4-a13f-64144c45d886" x1="471.06" y1="113.41" x2="495.25" y2="107.43"/>
      <line class="uuid-39f04276-9973-49d4-a13f-64144c45d886" x1="471.06" y1="118.57" x2="495.25" y2="112.58"/>
      <line class="uuid-39f04276-9973-49d4-a13f-64144c45d886" x1="471.06" y1="123.72" x2="495.25" y2="117.74"/>
      <line class="uuid-39f04276-9973-49d4-a13f-64144c45d886" x1="485.46" y1="125.31" x2="495.25" y2="122.89"/>
    </g>
  </g>
</svg>