<svg xmlns="http://www.w3.org/2000/svg" xmlns:xlink="http://www.w3.org/1999/xlink" viewBox="0 0 1611.63 76.8"><defs><style>.cls-1,.cls-3{fill:none;}.cls-2{clip-path:url(#clip-path);}.cls-3{stroke:#e85048;stroke-miterlimit:10;stroke-width:2px;}</style><clipPath id="clip-path" transform="translate(13.22 -15.53)"><rect class="cls-1" width="1562.28" height="115.74"/></clipPath></defs><g id="Calque_2" data-name="Calque 2"><g id="Calque_1-2" data-name="Calque 1"><g class="cls-2"><path class="cls-3" d="M-12.94,88.93c65.59-18.76,131.6-37.59,199.47-44.5,76.49-7.79,154.55-.32,229.88-15.76,19.61-4,39-9.59,58.93-11.43,32.6-3,65.2,4.06,97.19,11.08L696,55.44C752.37,67.83,809.34,80.28,867.1,80c47.87-.2,95.61-9.13,143.39-6,51.36,3.33,101.84,20.51,153.18,16.8,60.09-4.34,116-37,176.23-37.6,32.47-.31,64.19,8.77,96.22,14.09a419.69,419.69,0,0,0,162.07-4.93" transform="translate(13.22 -15.53)"/></g></g></g></svg>