<?xml version="1.0" encoding="UTF-8" standalone="no"?>
<svg
   xmlns:dc="http://purl.org/dc/elements/1.1/"
   xmlns:cc="http://creativecommons.org/ns#"
   xmlns:rdf="http://www.w3.org/1999/02/22-rdf-syntax-ns#"
   xmlns:svg="http://www.w3.org/2000/svg"
   xmlns="http://www.w3.org/2000/svg"
   xmlns:sodipodi="http://sodipodi.sourceforge.net/DTD/sodipodi-0.dtd"
   xmlns:inkscape="http://www.inkscape.org/namespaces/inkscape"
   id="e5378a26-042d-4a36-80f1-957b4ecc48ee"
   data-name="Layer 1"
   width="834.5"
   height="520.83118"
   viewBox="0 0 834.5 520.83115"
   version="1.1"
   sodipodi:docname="location_home.svg"
   inkscape:version="0.92.3 (2405546, 2018-03-11)">
  <metadata
     id="metadata49">
    <rdf:RDF>
      <cc:Work
         rdf:about="">
        <dc:format>image/svg+xml</dc:format>
        <dc:type
           rdf:resource="http://purl.org/dc/dcmitype/StillImage" />
        <dc:title></dc:title>
      </cc:Work>
    </rdf:RDF>
  </metadata>
  <defs
     id="defs47" />
  <sodipodi:namedview
     pagecolor="#ffffff"
     bordercolor="#666666"
     borderopacity="1"
     objecttolerance="10"
     gridtolerance="10"
     guidetolerance="10"
     inkscape:pageopacity="0"
     inkscape:pageshadow="2"
     inkscape:window-width="1920"
     inkscape:window-height="1051"
     id="namedview45"
     showgrid="false"
     inkscape:zoom="0.31141501"
     inkscape:cx="420.25"
     inkscape:cy="378.91559"
     inkscape:window-x="1920"
     inkscape:window-y="0"
     inkscape:window-maximized="1"
     inkscape:current-layer="e5378a26-042d-4a36-80f1-957b4ecc48ee" />
  <polygon
     points="44.156,440.325 47.01,442.159 45.991,442.159 45.991,728.324 533.937,728.324 533.937,442.159 534.25,438.618 418.25,300.618 185.404,302.746 "
     id="polygon2"
     style="fill:#3f3d56"
     transform="translate(0,-236.99969)" />
  <polygon
     points="273.455,470.811 273.455,728.324 533.937,728.324 533.937,438.491 418.371,300.912 "
     id="polygon4"
     style="fill:#181718"
     transform="translate(0,-236.99969)" />
  <rect
     x="378.01459"
     y="348.91534"
     width="53.197231"
     height="47.020191"
     id="rect6"
     style="fill:#ffffff" />
  <rect
     x="378.01459"
     y="267.52856"
     width="53.197231"
     height="46.274529"
     id="rect8"
     style="fill:#ffffff" />
  <rect
     x="141.60242"
     y="336.43884"
     width="53.197231"
     height="47.020191"
     id="rect10"
     style="fill:#ffffff" />
  <rect
     x="141.60242"
     y="255.05206"
     width="53.197231"
     height="46.274529"
     id="rect12"
     style="fill:#ffffff" />
  <rect
     y="490.43054"
     width="840.5"
     height="2"
     id="rect14"
     x="0"
     style="fill:#3f3d56" />
  <polygon
     points="713.92,695.831 717.92,715.831 697.92,719.831 700.92,694.831 "
     id="polygon16"
     style="fill:#a0616a"
     transform="translate(0,-236.99969)" />
  <polygon
     points="776.92,691.831 771.92,716.831 747.92,716.831 757.92,686.831 "
     id="polygon18"
     style="fill:#a0616a"
     transform="translate(0,-236.99969)" />
  <path
     d="m 798.91929,280.83115 4,27 -5,59 -4,22 -17,72 c 0,0 -19,0 -22,-8 l 5,-41 c 0,0 4,-33 3,-37 -1,-4 -16,-68 -16,-68 0,0 -22,101 -25,110 -3,9 -7,48 -7,48 0,0 -17,3 -18,0 -1,-3 -2,-74 -2,-85 0,-11 2,-17 2,-19 0,-2 -7.8786,-97.47192 -7.8786,-97.47192 z"
     id="path20"
     inkscape:connector-curvature="0"
     style="fill:#2f2e41" />
  <path
     d="m 757.91929,474.83115 c 0,0 5,1 8,0 3,-1 0,-7 0,-7 h 11 c 0,0 12,27 17,29 5,2 21,24 2,24 a 62.08559,62.08559 0 0 1 -33,-10 c 0,0 -2,-9 -11,-10 -9,-1 -15,-12 -15,-12 l 13,-24 c 0,0 3,11 8,10 z"
     id="path22"
     inkscape:connector-curvature="0"
     style="fill:#2f2e41" />
  <path
     d="m 710.91929,473.83115 c 0,0 -2,4 -4,2 -2,-2 -4,-7 -4,-7 0,0 -6,-3 -7,0 -1,3 -5,19 -7,21 -2,2 -23,23 -2,27 21,4 25,-5 25,-5 0,0 -3,-5 3,-7 6,-2 7,-9 7,-9 l -4,-30 c 0,0 -4,10 -7,8 z"
     id="path24"
     inkscape:connector-curvature="0"
     style="fill:#2f2e41" />
  <path
     d="m 821.9193,210.83115 3,52 c 0,0 14,33 -5.00001,32 -19,-1 -7,-33 -7,-33 l -18.60235,-46.40942 z"
     id="path26"
     inkscape:connector-curvature="0"
     style="fill:#a0616a" />
  <path
     d="m 667.91929,195.83115 -3,52 c 0,0 -14,33 5,32 19,-1 7,-33 7,-33 l 18.60236,-46.40942 z"
     id="path28"
     inkscape:connector-curvature="0"
     style="fill:#a0616a" />
  <circle
     cx="747.91925"
     cy="56.831177"
     r="26"
     id="circle30"
     style="fill:#a0616a" />
  <path
     d="m 768.41929,67.331249 c 0,0 -7,27.999916 7,34.999901 14,7 -44,17 -48,0 l 2,-7.999982 c 0,0 8,-9.99997 6,-18.999943 z"
     id="path32"
     inkscape:connector-curvature="0"
     style="fill:#a0616a" />
  <path
     d="m 752.91929,102.83115 c 0,0 -17.25519,1.61145 -22.62756,-9.694249 0,0 -40.37244,2.694264 -49.37244,39.694249 l 15,96 c 0,0 -16,28 -14,31 0,0 -10,28 82,29 l 40,-2 a 55.64622,55.64622 0 0 0 -1,-17 c -2,-9 -13,-72 -13,-72 0,0 30,-47 27,-54 -3,-7 -7.80438,-34.60076 -46.40222,-45.800374 0,0 -0.59778,5.800374 -17.59778,4.800374 z"
     id="path34"
     inkscape:connector-curvature="0"
     style="fill:#e6e6e6" />
  <path
     d="m 803.91929,126.83115 13,17 c 0,0 13.00001,71 9.00001,72 -4,1 -28.00001,9 -32.00001,6 -4,-3 -22,-62 -22,-62 z"
     id="path36"
     inkscape:connector-curvature="0"
     style="fill:#e6e6e6" />
  <path
     d="m 697.91929,121.83115 -17,11 c 0,0 -25,70 -18,73 7,3 46,1 46,1 z"
     id="path38"
     inkscape:connector-curvature="0"
     style="fill:#e6e6e6" />
  <path
     d="m 776.339,33.563351 c 0,0 -9.00568,-19.512213 -26.26654,-15.009385 -17.26086,4.502825 -27.017,11.257047 -27.76746,18.011266 -0.75046,6.754219 0.37525,16.885569 0.37525,16.885569 0,0 1.87616,-13.883688 13.88373,-10.881797 6.38656,1.596634 14.68386,1.707134 21.05261,1.460704 a 9.19307,9.19307 0 0 1 9.57007,9.308423 l -0.31464,21.493097 c 0,0 25.00003,-15.999952 9.46698,-41.267877 z"
     id="path40"
     inkscape:connector-curvature="0"
     style="fill:#2f2e41" />
  <ellipse
     cx="768.87207"
     cy="56.831177"
     rx="4"
     ry="5"
     id="ellipse42"
     style="fill:#a0616a" />
</svg>
