<?xml version="1.0" encoding="UTF-8" standalone="no"?>
<svg
   xmlns:dc="http://purl.org/dc/elements/1.1/"
   xmlns:cc="http://creativecommons.org/ns#"
   xmlns:rdf="http://www.w3.org/1999/02/22-rdf-syntax-ns#"
   xmlns:svg="http://www.w3.org/2000/svg"
   xmlns="http://www.w3.org/2000/svg"
   xmlns:sodipodi="http://sodipodi.sourceforge.net/DTD/sodipodi-0.dtd"
   xmlns:inkscape="http://www.inkscape.org/namespaces/inkscape"
   id="f785626e-4813-441a-9323-8af1423a66c9"
   data-name="Layer 1"
   width="1021.5"
   height="782.9541"
   viewBox="0 0 1021.5 782.9541"
   version="1.1"
   sodipodi:docname="undraw_travel_plans_li01.svg"
   inkscape:version="0.92.3 (2405546, 2018-03-11)">
  <metadata
     id="metadata109">
    <rdf:RDF>
      <cc:Work
         rdf:about="">
        <dc:format>image/svg+xml</dc:format>
        <dc:type
           rdf:resource="http://purl.org/dc/dcmitype/StillImage" />
      </cc:Work>
    </rdf:RDF>
  </metadata>
  <defs
     id="defs107">
    <linearGradient
       gradientTransform="matrix(0.45957935,0,0,0.4365322,-49.8958,401.53787)"
       id="e4ea693e-ea82-4def-9867-aa54d168612a"
       x1="564.84003"
       y1="845.92999"
       x2="564.84003"
       y2="176.85001"
       gradientUnits="userSpaceOnUse">
      <stop
         offset="0"
         stop-color="gray"
         stop-opacity="0.25"
         id="stop2" />
      <stop
         offset="0.54"
         stop-color="gray"
         stop-opacity="0.12"
         id="stop4" />
      <stop
         offset="1"
         stop-color="gray"
         stop-opacity="0.1"
         id="stop6" />
    </linearGradient>
  </defs>
  <sodipodi:namedview
     pagecolor="#ffffff"
     bordercolor="#666666"
     borderopacity="1"
     objecttolerance="10"
     gridtolerance="10"
     guidetolerance="10"
     inkscape:pageopacity="0"
     inkscape:pageshadow="2"
     inkscape:window-width="1920"
     inkscape:window-height="1011"
     id="namedview105"
     showgrid="false"
     inkscape:zoom="0.30142252"
     inkscape:cx="510.75"
     inkscape:cy="391.47705"
     inkscape:window-x="0"
     inkscape:window-y="0"
     inkscape:window-maximized="1"
     inkscape:current-layer="f785626e-4813-441a-9323-8af1423a66c9" />
  <title
     id="title2">travel_plans</title>
  <ellipse
     cx="867"
     cy="757.4541"
     rx="154.5"
     ry="25.5"
     fill="#3f3d56"
     id="ellipse4" />
  <path
     d="M1086.92726,722.09273c-.30332,54.7845-32.9781,73.73034-73.15013,73.50793q-1.39969-.00775-2.78571-.04668-2.79235-.07572-5.52576-.28509c-36.2424-2.76785-64.30238-23.03216-64.0203-73.98162.29192-52.72638,68.0483-118.893,73.12939-123.78493.00441,0,.00441,0,.00891-.00442.193-.18644.29182-.27964.29182-.27964S1087.23055,667.31267,1086.92726,722.09273Z"
     transform="translate(-89.25 -58.52295)"
     fill="#6c63ff"
     id="path6" />
  <path
     d="M1011.176,787.206l26.81-37.02458-26.89962,41.10481-.095,4.26772q-2.79235-.07572-5.52576-.28509l3.1697-54.791-.01994-.42423.04949-.08012.30106-5.17736L982.45672,693.293l26.61106,37.62393.0609,1.09866,2.39456-41.39673L988.8701,647.75744l22.9747,35.58578,2.73-85.84088.01046-.28566-.00155.28124-.74981,67.70287L1036.765,638.486,1013.70331,671.031l-.808,37.07476,21.47949-35.46462-21.59447,40.91538-.449,20.61545,31.16-49.35875L1012.171,741.36364Z"
     transform="translate(-89.25 -58.52295)"
     fill="#3f3d56"
     id="path8" />
  <circle
     cx="852.45395"
     cy="198.3205"
     r="48.69502"
     fill="#2f2e41"
     id="circle10" />
  <circle
     cx="845.20616"
     cy="215.33198"
     r="33.0677"
     fill="#ffb8b8"
     id="circle12" />
  <path
     d="M914.79429,291.72936s14.29954,33.0677,7.14977,36.64259-10.72466,19.66187-10.72466,19.66187l18.76815,39.32376,25.91793,16.087h15.19327s15.19327-67.92285,9.83094-75.96634-25.02421-12.51211-25.02421-12.51211-4.46861-10.72466-2.68116-20.55559S914.79429,291.72936,914.79429,291.72936Z"
     transform="translate(-89.25 -58.52295)"
     fill="#ffb8b8"
     id="path14" />
  <path
     d="M893.345,385.57013,870.10821,366.802s-42.00492-29.49281-36.64259-8.0435,29.49281,23.23677,29.49281,23.23677l40.21748,32.174Z"
     transform="translate(-89.25 -58.52295)"
     fill="#ffb8b8"
     id="path16" />
  <path
     d="M891.55752,483.87951s-10.72466,44.68608,0,105.45916l4.46861,24.13048s0,18.76815,4.46861,25.91793c0,0,11.61838,106.35287,17.87443,106.35287s25.91793-3.57489,27.70537-6.25605-34.85514-260.073-34.85514-260.073Z"
     transform="translate(-89.25 -58.52295)"
     fill="#2f2e41"
     id="path18" />
  <path
     d="M891.55752,483.87951s-10.72466,44.68608,0,105.45916l4.46861,24.13048s0,18.76815,4.46861,25.91793c0,0,11.61838,106.35287,17.87443,106.35287s25.91793-3.57489,27.70537-6.25605-34.85514-260.073-34.85514-260.073Z"
     transform="translate(-89.25 -58.52295)"
     opacity="0.1"
     id="path20" />
  <path
     d="M920.90816,738.60224l-13.84444,51.30584s-27.68887,16.28757-10.58692,19.54508,34.2039-3.25751,34.2039-3.25751l8.14378-23.617,8.14379-4.88627v25.24574h2.44313l5.70065-33.38952s-.81438-17.10195-5.70065-18.7307S942.082,740.231,942.082,740.231Z"
     transform="translate(-89.25 -58.52295)"
     fill="#2f2e41"
     id="path22" />
  <path
     d="M920.90816,738.60224l-13.84444,51.30584s-27.68887,16.28757-10.58692,19.54508,34.2039-3.25751,34.2039-3.25751l8.14378-23.617,8.14379-4.88627v25.24574h2.44313l5.70065-33.38952s-.81438-17.10195-5.70065-18.7307S942.082,740.231,942.082,740.231Z"
     transform="translate(-89.25 -58.52295)"
     opacity="0.1"
     id="path24" />
  <path
     d="M887.98264,482.09207s7.14977,26.81165,9.83094,31.28026c0,0,3.57488,75.96634,15.19326,101.88426l12.51211,33.0677S946.07454,745.74,940.71221,756.46461c0,0,27.70537,6.256,29.49282,0,0,0-.89372-51.83585,1.78744-58.98563s7.14977-46.47352-14.29955-75.07261v-86.691s33.96143-28.59909,14.29955-65.24168S887.98264,482.09207,887.98264,482.09207Z"
     transform="translate(-89.25 -58.52295)"
     fill="#2f2e41"
     id="path26" />
  <path
     d="M943.39338,751.10228l-15.19327,56.30446s-30.38653,17.87444-11.61838,21.44932,37.53631-3.57488,37.53631-3.57488l8.93721-25.91793,8.93722-5.36233v27.70537h2.68117l6.25605-36.64259s-.89372-18.76815-6.25605-20.55559-8.0435-11.61839-8.0435-11.61839Z"
     transform="translate(-89.25 -58.52295)"
     fill="#2f2e41"
     id="path28" />
  <path
     d="M923.88821,321.6974s-22.49975,12.9306-22.49975,13.82432,2.68117,15.19327,2.68117,15.19327-27.70537,27.70537-8.93722,51.83585c0,0,6.256,4.46861,6.256,18.76816v14.29954s-52.72957,33.06771-39.32375,43.79236,27.70537,8.93722,32.174,15.19327,30.38653-5.36233,35.74886-7.14977,6.25606-3.57489,10.72466,2.68116S970.205,485.667,970.205,485.667s16.087-4.46861,19.66187-4.46861a12.364,12.364,0,0,0,6.25606-1.78745l-38.43-39.32375,19.215-48.70783s-56.75132-35.302-56.75132-45.13294S923.88821,321.6974,923.88821,321.6974Z"
     transform="translate(-89.25 -58.52295)"
     fill="#3f3d56"
     id="path30" />
  <path
     d="M958.58665,323.90334s-11.61838,16.087-2.68117,38.43,23.23676,48.261,23.23676,48.261l-22.343,7.14977H936.24361s-42.89864-7.14977-38.43,8.93722,34.85514,8.93721,34.85514,8.93721h17.87443s40.21748,4.46861,45.57981-2.68116c0,0,14.29954-.89372,8.04349-29.49281s-24.52189-77.55431-24.52189-77.55431Z"
     transform="translate(-89.25 -58.52295)"
     fill="#ffb8b8"
     id="path32" />
  <ellipse
     cx="838.77557"
     cy="184.64213"
     rx="31.1867"
     ry="15.86692"
     fill="#2f2e41"
     id="ellipse34" />
  <ellipse
     cx="877.827"
     cy="213.09768"
     rx="4.46861"
     ry="9.83094"
     fill="#ffb8b8"
     id="ellipse36" />
  <circle
     cx="874.25212"
     cy="155.00577"
     r="26.81165"
     fill="#2f2e41"
     id="circle38" />
  <circle
     cx="303"
     cy="166.9541"
     r="110"
     fill="#6c63ff"
     opacity="0.3"
     id="circle40" />
  <circle
     cx="90"
     cy="472.9541"
     r="65"
     fill="#6c63ff"
     opacity="0.3"
     id="circle42" />
  <circle
     cx="507"
     cy="472.9541"
     r="133"
     fill="#6c63ff"
     opacity="0.3"
     id="circle44" />
  <path
     d="M155.37988,316.55957l-1.95605-.417q.62841-2.94728,1.31006-5.875l1.94824.45361Q156.00464,313.6311,155.37988,316.55957Z"
     transform="translate(-89.25 -58.52295)"
     fill="#6c63ff"
     id="path46" />
  <path
     d="M785.13672,300.03613c-1.02539-3.81054-2.13867-7.65869-3.30664-11.437l1.91015-.59082c1.17579,3.80176,2.2959,7.67383,3.32813,11.5083Zm-625.53711-.874-1.92969-.52539c1.04688-3.8457,2.18164-7.72852,3.37305-11.54053l1.90918.59668C161.76758,291.48145,160.64014,295.33984,159.59961,299.16211ZM778.1084,277.31152c-1.30957-3.73437-2.70117-7.48486-4.13867-11.14648l1.86132-.73047c1.44629,3.68408,2.84766,7.458,4.16407,11.21582Zm-611.38086-.95214-1.88574-.667c1.332-3.76269,2.75146-7.54834,4.21924-11.25244l1.85937.73633C169.46143,268.85791,168.05078,272.62061,166.72754,276.35938Zm602.69238-21.18311c-1.57422-3.61475-3.24023-7.25391-4.95117-10.81641l1.80273-.86621c1.72168,3.585,3.39844,7.24658,4.98243,10.88379Zm-593.896-1.01709-1.83106-.80566c1.60547-3.64942,3.30029-7.31788,5.03858-10.90332l1.7998.87207C178.80371,246.88574,177.11914,250.53174,175.52393,254.15918ZM759.11816,233.73c-1.84375-3.50049-3.77441-7.00879-5.73828-10.42725l1.73438-.99609c1.97558,3.43945,3.91894,6.96924,5.77344,10.4917ZM185.936,232.68115l-1.76661-.93847c1.87159-3.522,3.83252-7.0542,5.82862-10.49756l1.73047,1.00293C189.74463,225.67041,187.79541,229.18066,185.936,232.68115Zm561.3247-19.58984c-2.09082-3.3501-4.27539-6.7085-6.49023-9.98242l1.65625-1.1211c2.22949,3.29444,4.42676,6.67383,6.53125,10.044Zm-549.36133-1.0542-1.69238-1.06543c2.12158-3.36865,4.33594-6.74561,6.582-10.03662l1.65235,1.12695C202.209,205.3335,200.00781,208.68945,197.89941,212.03711Zm536.01465-18.667c-2.32129-3.17578-4.74609-6.3667-7.207-9.4834l1.57031-1.23926c2.47559,3.13623,4.915,6.34668,7.252,9.542Zm-522.56933-1.03418-1.60938-1.1875c2.3667-3.2085,4.82227-6.4126,7.29883-9.52344l1.56445,1.24512C216.1377,185.9624,213.69727,189.147,211.34473,192.33594ZM719.1543,174.67188c-2.56055-3.01124-5.21289-6.01709-7.88379-8.93409l1.47461-1.35058c2.6875,2.93457,5.35644,5.959,7.93261,8.98877Zm-492.96045-.99415-1.51856-1.30175c2.58887-3.019,5.27149-6.03418,7.97364-8.96143l1.46972,1.35645C231.43311,167.68066,228.7666,170.67725,226.19385,173.67773ZM703.0625,157.09668c-2.78027-2.82178-5.64648-5.62647-8.51953-8.33643l1.37305-1.45507c2.88964,2.727,5.77343,5.54882,8.57031,8.38818Zm-460.69971-.93506-1.41894-1.40918c2.80859-2.82812,5.70361-5.63818,8.60449-8.35205l1.36621,1.46045C248.03125,150.55811,245.1543,153.35107,242.36279,156.16162Zm443.35889-15.42187c-2.97559-2.60889-6.04-5.19776-9.10742-7.69434l1.26172-1.55078c3.08691,2.51172,6.16992,5.11621,9.16406,7.74121Zm-425.9585-.86133-1.3125-1.50928c3.00537-2.61279,6.09668-5.20312,9.18946-7.69922l1.25586,1.55664C265.82275,134.707,262.75,137.28174,259.76318,139.87842ZM667.22754,125.689c-3.15234-2.37988-6.39941-4.73779-9.64941-7.0083l1.14453-1.63964c3.27148,2.28466,6.53808,4.65722,9.71,7.05127ZM278.30127,124.915l-1.19824-1.60156c3.18945-2.38672,6.46142-4.74317,9.72461-7.00391l1.13867,1.64453C284.72314,120.2002,281.47119,122.54248,278.30127,124.915Zm369.37451-12.88477c-3.32617-2.146-6.73926-4.26025-10.14258-6.28271l1.02149-1.71973c3.4248,2.03565,6.8584,4.1626,10.20508,6.32178Zm-349.79785-.67675L296.7998,109.669c3.35108-2.144,6.78565-4.25342,10.208-6.27l1.01563,1.72363C304.62158,107.12646,301.208,109.22314,297.87793,111.35352ZM627.16309,99.8418c-3.46778-1.89258-7.02832-3.75-10.58106-5.52051l.89258-1.79c3.57422,1.78174,7.15723,3.65039,10.64648,5.55469Zm-308.77442-.57227-.95117-1.75976c3.49609-1.88965,7.0752-3.74024,10.63672-5.49952l.88574,1.793C325.41992,95.55176,321.86328,97.39111,318.38867,99.26953ZM605.80078,89.19385c-3.60058-1.63184-7.28906-3.22071-10.96387-4.72364l.75684-1.85156c3.69775,1.51221,7.41016,3.11182,11.0332,4.75391Zm-266.07715-.46143-.81884-1.82422c3.61914-1.624,7.32275-3.20507,11.00781-4.69824l.751,1.85352C347.001,85.54785,343.32031,87.11865,339.72363,88.73242Zm243.97754-8.57763c-3.72656-1.36475-7.52539-2.67676-11.2915-3.89991l.61816-1.90234c3.78906,1.231,7.61133,2.55127,11.36084,3.92432Zm-221.93554-.35254-.68165-1.87989c3.73438-1.355,7.54248-2.65673,11.31788-3.87011l.61181,1.90429C369.26172,77.16211,365.47754,78.45605,361.76563,79.80225Zm199.21289-7.02588c-3.80811-1.082-7.68506-2.106-11.523-3.04444l.47461-1.94238c3.86181.94385,7.76318,1.97461,11.59521,3.063ZM384.42676,72.521l-.541-1.92579c3.82715-1.0747,7.731-2.09375,11.60352-3.0288l.46924,1.94433C392.10986,70.43994,388.23,71.45264,384.42676,72.521Zm153.40088-5.4043c-3.873-.7959-7.81494-1.53027-11.71631-2.18311l.33008-1.97265c3.92529.65674,7.8916,1.396,11.78857,2.19677Zm-130.23438-.188-.39648-1.96c3.90429-.79053,7.87256-1.51807,11.79492-2.1626l.32422,1.97364C415.418,65.41992,411.47363,66.14307,407.59326,66.92871Zm106.729-3.7456c-3.92969-.50928-7.915-.95118-11.84522-1.31495l.18408-1.99121c3.95459.36573,7.96436.81055,11.918,1.32276Zm-83.21192-.11866-.25146-1.98437c3.94091-.49951,7.95215-.93311,11.92138-1.28906l.17871,1.99218C439.01367,62.13672,435.02734,62.56787,431.11035,63.06445Zm59.48047-2.07715c-3.94141-.22021-7.94824-.3706-11.90967-.44726l.03906-2c3.98487.07764,8.01661.229,11.98194.45019ZM454.84766,60.936l-.10547-1.99708c3.97119-.21044,8.0039-.35009,11.98535-.416l.0332,2C462.80322,60.58789,458.79541,60.72705,454.84766,60.936Z"
     transform="translate(-89.25 -58.52295)"
     fill="#6c63ff"
     id="path48" />
  <path
     d="M789.35449,317.668q-.61523-2.93115-1.28125-5.84229l1.94922-.44726q.67236,2.92968,1.28906,5.87939Z"
     transform="translate(-89.25 -58.52295)"
     fill="#6c63ff"
     id="path50" />
  <path
     d="M792.05176,448.06885l-1.96289-.3877q.57861-2.92968,1.10547-5.87842l1.96875.35059Q792.63428,445.1211,792.05176,448.06885Z"
     transform="translate(-89.25 -58.52295)"
     fill="#6c63ff"
     id="path52" />
  <path
     d="M472.25049,710.47705q-3.26075,0-6.50586-.06348l.03906-2c3.95361.07715,7.93457.082,11.89258.01856l.03223,2Q474.98462,710.47608,472.25049,710.47705ZM489.666,710.021l-.10547-1.998c3.95556-.208,7.9458-.49121,11.85986-.84082l.17773,1.99219C497.66016,709.52588,493.64551,709.811,489.666,710.021Zm-35.875-.05762c-3.96973-.22168-7.9834-.51856-11.9292-.88281l.18359-1.99219c3.92236.3623,7.91162.6582,11.85693.87891Zm59.70117-2.06934-.251-1.98437c3.93652-.49805,7.89551-1.07227,11.7666-1.707l.32324,1.97461C521.436,706.81494,517.45313,707.39209,513.49219,707.894Zm-83.521-.13281c-3.95166-.51269-7.9331-1.10254-11.834-1.75488l.33008-1.97266c3.87646.64746,7.83349,1.23438,11.76074,1.74317Zm107.12842-3.7334-.39551-1.96094c3.88086-.7832,7.78662-1.64746,11.60889-2.56738l.46777,1.94531C544.93506,702.36963,541.00488,703.23877,537.09961,704.02783Zm-130.72363-.21c-3.90137-.80078-7.8291-1.68262-11.67285-2.62109l.4746-1.94336c3.81983.93262,7.72315,1.80957,11.60059,2.60547Zm153.9834-5.38672-.53907-1.92578c3.79346-1.0625,7.625-2.21191,11.3877-3.418l.61035,1.9043C568.03223,696.20557,564.17676,697.36279,560.35938,698.43115Zm-177.2251-.28418c-3.82276-1.084-7.68457-2.25683-11.478-3.48633l.61621-1.90234c3.77051,1.22168,7.6084,2.3877,11.40772,3.46484Zm199.978-7.0039-.68066-1.88086c3.6958-1.33692,7.42334-2.7627,11.07861-4.23926l.749,1.85449C590.58105,688.36279,586.83057,689.79834,583.1123,691.14307Zm-222.79345-.38965c-3.73828-1.36621-7.50049-2.82129-11.18262-4.3252l.75586-1.85156c3.65918,1.49414,7.39844,2.94043,11.11328,4.29785Zm244.92431-8.54883-.8164-1.82617c3.59961-1.61035,7.21387-3.30762,10.74316-5.0459l.88281,1.79492C612.502,678.87549,608.86523,680.5835,605.24316,682.20459Zm-267.11865-.50977c-3.624-1.63867-7.2666-3.36621-10.82666-5.13574l.89063-1.791c3.53759,1.75879,7.1582,3.47656,10.76025,5.10449Zm288.54737-10.041-.94922-1.75977c3.47656-1.873,6.958-3.832,10.34765-5.82324l1.01367,1.72461C633.67188,667.79834,630.169,669.77,626.67188,671.65381Zm-310.002-.62695c-3.49414-1.9004-6.998-3.89161-10.415-5.917l1.02-1.7207c3.396,2.01367,6.87842,3.99219,10.35108,5.88086Zm330.60742-11.47168-1.07519-1.68555c3.31152-2.11133,6.64062-4.32129,9.89648-6.56934l1.13672,1.64649C653.959,655.20752,650.6084,657.43115,647.27734,659.55518Zm-351.21-.74024c-3.33984-2.14941-6.687-4.39062-9.94873-6.66308l1.14307-1.64063c3.24219,2.25781,6.56885,4.48535,9.88769,6.62207Zm370.87989-12.83887-1.19532-1.60351c3.15528-2.35254,6.31641-4.80078,9.39453-7.27637l1.25391,1.5586C673.30273,641.146,670.12207,643.60889,666.94727,645.97607Zm-390.52442-.8457c-3.16748-2.38281-6.34082-4.8623-9.43115-7.37012l1.25976-1.55273c3.07178,2.49219,6.22559,4.95605,9.37354,7.32519Zm409.15723-14.13965-1.3086-1.51172c2.98047-2.582,5.95508-5.25488,8.8418-7.94531l1.36328,1.46289C691.57324,625.70361,688.58008,628.39307,685.58008,630.99072Zm-427.74317-.9414c-2.99414-2.61621-5.977-5.32032-8.86523-8.03614l1.37012-1.457c2.8706,2.69922,5.835,5.38672,8.81152,7.98731ZM703.0791,614.68213l-1.416-1.41211c2.79492-2.80273,5.56738-5.68652,8.24121-8.57031l1.46679,1.35937C708.68066,608.96143,705.89063,611.86279,703.0791,614.68213Zm-462.67236-1.02246c-2.78662-2.81836-5.56348-5.73145-8.25391-8.65821l1.47266-1.35351c2.67383,2.90918,5.43359,5.80371,8.20361,8.60547Zm478.938-16.52344-1.51563-1.30469c2.58008-2.99609,5.13672-6.07519,7.59766-9.15332l1.5625,1.25C724.5127,591.02393,721.94043,594.12256,719.34473,597.13623Zm-495.12256-1.08789c-2.57471-3.0166-5.13086-6.12305-7.59766-9.23438l1.56738-1.24218c2.45166,3.09179,4.99219,6.17968,7.55176,9.17773Zm510.07275-17.60449-1.60742-1.19141c2.36035-3.18457,4.68555-6.44336,6.91016-9.68555l1.64843,1.13086C739.00879,571.96045,736.66992,575.23877,734.29492,578.44385Zm-524.92431-1.13477c-2.3501-3.19726-4.67188-6.48144-6.90137-9.75976l1.6543-1.125c2.21533,3.25879,4.52294,6.52246,6.85839,9.70117Zm538.46826-18.6084-1.68946-1.07031c2.11036-3.3291,4.19043-6.751,6.1836-10.16894l1.72851,1.00781C752.05566,551.90869,749.96191,555.35107,747.83887,558.70068Zm-551.90723-1.15625c-2.10742-3.35742-4.18213-6.80078-6.16553-10.23437l1.73145-1c1.97168,3.41211,4.03369,6.834,6.12842,10.17187ZM759.9043,538.01221l-1.76367-.94336c1.87011-3.49707,3.69335-7.06348,5.42089-10.60059l1.79688.87695C763.62109,530.90479,761.78613,534.49365,759.9043,538.01221ZM183.981,536.85693c-1.856-3.5039-3.67139-7.08886-5.39551-10.65429l1.80078-.8711c1.71338,3.54395,3.51758,7.10645,5.36231,10.58985Zm586.436-20.373-1.82812-.81055c1.59961-3.6084,3.15625-7.30273,4.626-10.97852l1.85743.74219C773.59277,509.13623,772.02734,512.853,770.417,516.48389Zm-596.83056-1.127c-1.59424-3.63183-3.14014-7.33886-4.59522-11.0166l1.85986-.73633c1.44581,3.65625,2.98243,7.33985,4.56641,10.94922Zm605.729-21.13281-1.88281-.67383c1.333-3.72949,2.6123-7.53027,3.80371-11.2959l1.90625.60352C781.94531,486.646,780.65723,490.47021,779.31543,494.22412Zm-614.50781-1.06055c-1.32324-3.74316-2.59473-7.5625-3.77832-11.35253l1.90918-.59571c1.17627,3.76563,2.43945,7.56153,3.75488,11.28223ZM786.54492,471.355l-1.92773-.5332c1.04687-3.791,2.03906-7.666,2.94922-11.51758l1.94726.46094C788.59668,463.64014,787.59863,467.53955,786.54492,471.355Zm-628.87158-1.02637c-1.041-3.82519-2.02539-7.72265-2.92578-11.58593l1.94824-.45313c.89453,3.83887,1.87256,7.71289,2.90723,11.51367Z"
     transform="translate(-89.25 -58.52295)"
     fill="#6c63ff"
     id="path54" />
  <path
     d="M152.20654,446.82959q-.57129-2.9502-1.08984-5.91943l1.9707-.34375q.51417,2.95019,1.083,5.88232Z"
     transform="translate(-89.25 -58.52295)"
     fill="#6c63ff"
     id="path56" />
  <path
     d="M635.51465,448.9834l-1.85938-.73535c.72559-1.835,1.43067-3.71338,2.09668-5.58448l1.88477.6709C636.96289,445.22705,636.249,447.12744,635.51465,448.9834Z"
     transform="translate(-89.25 -58.52295)"
     fill="#6c63ff"
     id="path58" />
  <path
     d="M472.25,559.97705c-2.39551,0-4.813-.04883-7.18555-.14453l.08106-1.99805c3.936.15918,7.959.18653,11.90771.07715l.05469,2Q474.68652,559.97755,472.25,559.97705Zm16.87793-.80176-.18945-1.99023c3.93847-.375,7.91064-.89258,11.80713-1.53613l.32617,1.97265C497.13037,558.27393,493.11182,558.79639,489.12793,559.17529ZM453.0542,558.939c-3.978-.43261-7.98877-1.00878-11.9209-1.71289l.35254-1.96875c3.88721.69532,7.85205,1.26563,11.78516,1.69336Zm59.82617-3.68945-.46191-1.94531c3.85058-.91406,7.71386-1.97168,11.48242-3.14551l.59473,1.91016C520.68311,553.25537,516.77539,554.32568,512.88037,555.24951Zm-83.52344-.55273c-3.88379-.97559-7.7788-2.09864-11.57714-3.33692l.62011-1.90234c3.75489,1.22461,7.605,2.335,11.44434,3.2998Zm106.5083-6.60547-.72558-1.86328c3.68066-1.43262,7.36181-3.01367,10.94043-4.69824l.85254,1.80859C543.312,545.04346,539.58838,546.64307,535.86523,548.09131ZM406.46191,547.229c-3.71045-1.501-7.41308-3.15039-11.00537-4.90234l.877-1.79687c3.55078,1.73144,7.21093,3.36132,10.87841,4.8457ZM557.646,537.83545l-.97461-1.74609c3.45507-1.92969,6.88427-4.001,10.19287-6.15723l1.09179,1.67578C564.60986,533.78857,561.14111,535.88428,557.646,537.83545Zm-172.83106-1.15527c-3.46631-1.9961-6.90723-4.1377-10.227-6.36524l1.11426-1.66015c3.28223,2.20214,6.68359,4.31933,10.11084,6.293ZM577.81738,524.689l-1.20508-1.5957c3.16114-2.38574,6.27588-4.90625,9.25782-7.49219l1.31054,1.51172C584.16455,519.728,581.01416,522.27686,577.81738,524.689Zm-212.99707-1.4248c-3.1665-2.4541-6.2832-5.0459-9.26269-7.70215l1.33105-1.49219c2.94531,2.625,6.02637,5.18653,9.15723,7.61426Zm231.18457-14.34863-1.41015-1.418c2.80468-2.79,5.54736-5.71094,8.15234-8.68164l1.50391,1.31836C601.61621,503.13916,598.8418,506.09326,596.00488,508.91553Zm-249.16259-1.666c-2.79688-2.85644-5.53174-5.84668-8.12842-8.88867l1.52148-1.29883c2.5669,3.00781,5.271,5.96485,8.03565,8.78906ZM611.87891,490.812l-1.58985-1.21289c2.39649-3.1416,4.71582-6.4082,6.89453-9.71094l1.66993,1.10157C616.64941,484.33057,614.30371,487.63525,611.87891,490.812Zm-280.668-1.874c-2.38477-3.21387-4.68653-6.54981-6.84131-9.91406l1.68457-1.07813c2.12988,3.3252,4.40527,6.623,6.76318,9.80078Zm293.9248-18.22461-1.74023-.98438c1.94433-3.44043,3.79492-6.99414,5.5-10.5625l1.80469.86231C628.97559,463.63818,627.10352,467.23291,625.13574,470.71338ZM318.2251,468.6665c-1.92334-3.51171-3.74658-7.13086-5.41895-10.75586l1.81641-.83789c1.65283,3.584,3.45557,7.16114,5.35644,10.63282Z"
     transform="translate(-89.25 -58.52295)"
     fill="#6c63ff"
     id="path60" />
  <path
     d="M308.11475,446.73877c-.70752-1.86475-1.395-3.7749-2.04346-5.67822l1.89355-.64453c.64063,1.88134,1.32032,3.77,2.02,5.61279Z"
     transform="translate(-89.25 -58.52295)"
     fill="#6c63ff"
     id="path62" />
  <path
     d="M311.20508,319.80225l-1.85547-.7461c.749-1.86377,1.53857-3.73437,2.34668-5.55908l1.8291.80957C312.72656,316.11084,311.9458,317.95947,311.20508,319.80225Z"
     transform="translate(-89.25 -58.52295)"
     fill="#6c63ff"
     id="path64" />
  <path
     d="M318.78076,303.47217l-1.76758-.93457c1.88916-3.57276,3.92969-7.12647,6.065-10.56153l1.69824,1.05567C322.666,296.42773,320.64893,299.94043,318.78076,303.47217Zm305.35987-2.91309c-1.93262-3.49316-4.01661-6.96631-6.19239-10.32373l1.67774-1.08789c2.20117,3.396,4.30957,6.90967,6.26465,10.44287ZM331.48145,283.03223l-1.62159-1.1709c2.3667-3.27832,4.87842-6.51514,7.46534-9.62158l1.5371,1.28027C336.30469,276.59082,333.82129,279.791,331.48145,283.03223Zm279.57128-2.667c-2.39843-3.19287-4.94238-6.3457-7.55859-9.37011l1.51172-1.3086c2.64746,3.05909,5.21973,6.24756,7.64648,9.47754ZM346.88135,264.53955l-1.44531-1.38281c2.79492-2.92041,5.728-5.78125,8.71777-8.50293l1.34668,1.47949C352.54443,258.82373,349.64453,261.65186,346.88135,264.53955Zm248.42578-2.3706c-2.81836-2.835-5.77149-5.60791-8.77783-8.2417l1.31836-1.50391c3.04052,2.66357,6.02734,5.46826,8.87793,8.33545ZM364.67822,248.34082l-1.24121-1.56836c3.17285-2.51025,6.47168-4.93994,9.80469-7.22168l1.12988,1.65039C371.07617,243.457,367.81494,245.85889,364.67822,248.34082ZM577.20557,246.311c-3.17969-2.41895-6.48633-4.75879-9.82813-6.95411l1.09766-1.67187c3.38086,2.2207,6.72558,4.5874,9.9414,7.03418ZM384.53516,234.75049l-1.0127-1.72461c3.48584-2.04639,7.08887-3.99658,10.7085-5.79639l.89062,1.791C391.543,230.79932,387.98145,232.72754,384.53516,234.75049Zm172.55615-1.6499c-3.48926-1.96-7.08789-3.81934-10.69531-5.52735l.85546-1.80761c3.64942,1.72753,7.28956,3.60888,10.81934,5.59082Zm-151.00977-9.06006-.76367-1.84864c3.73633-1.543,7.57568-2.97314,11.41065-4.251l.63183,1.89746C413.56982,221.10156,409.7749,222.51514,406.08154,224.04053Zm129.26026-1.23535c-3.72608-1.45557-7.54785-2.7959-11.35938-3.98487l.59571-1.90918c3.85546,1.20264,7.72167,2.5586,11.49121,4.03076Zm-106.43555-6.37012-.498-1.937c3.91309-1.00635,7.91455-1.8877,11.89258-2.61914l.36133,1.96679C436.73,214.56885,432.7749,215.43994,428.90625,216.43506Zm83.46631-.7959c-3.88818-.92041-7.85938-1.71533-11.80371-2.36279l.32422-1.97364c3.98974.65479,8.00683,1.459,11.94043,2.39014Zm-59.80176-3.55811-.22461-1.9873c4.0044-.45215,8.08838-.771,12.13965-.94824l.0874,1.998C460.56738,211.31885,456.5293,211.63428,452.5708,212.08105Zm36.05859-.34082c-3.97021-.37207-8.01367-.61084-12.01709-.70947l.04883-1.999c4.04981.09961,8.13916.34082,12.15479.71728Z"
     transform="translate(-89.25 -58.52295)"
     fill="#6c63ff"
     id="path66" />
  <path
     d="M632.05469,316.7998c-.77442-1.82714-1.58985-3.66113-2.42285-5.45117l1.8125-.84375c.84277,1.81055,1.668,3.666,2.45214,5.51367Z"
     transform="translate(-89.25 -58.52295)"
     fill="#6c63ff"
     id="path68" />
  <path
     d="M657.87115,384.24048A11.34613,11.34613,0,1,0,665.85,387.5636,11.18271,11.18271,0,0,0,657.87115,384.24048Z"
     transform="translate(-89.25 -58.52295)"
     fill="#3f3d56"
     id="path70" />
  <path
     d="M612.62885,384.24048a11.34613,11.34613,0,1,0,7.97882,3.32312A11.24231,11.24231,0,0,0,612.62885,384.24048Z"
     transform="translate(-89.25 -58.52295)"
     fill="#3f3d56"
     id="path72" />
  <path
     d="M635.25,321.47705a57,57,0,1,0,57,57A57,57,0,0,0,635.25,321.47705Zm11.0769,23.76923a5.45208,5.45208,0,0,1,5.50385,5.50384,5.53856,5.53856,0,1,1-5.50385-5.50384Zm-33.698,66.46154a16.15674,16.15674,0,1,1,16.14807-16.14807A16.20256,16.20256,0,0,1,612.62885,411.70782Zm25.39038-32.19232v15.57691a2.76923,2.76923,0,0,1-5.53846,0V383.68665c0-2.26728-2.76922-2.76923-10.64422-7.30384-1.02118-.60577-3.20191-1.67883-3.20191-4.69037a5.63583,5.63583,0,0,1,1.60956-3.87695l12.40967-11.95959a5.41486,5.41486,0,0,1,8.56726,1.14227l5.10577,10.40192h8.30774a2.76926,2.76926,0,0,1,0,5.53851H644.7c-1.85193,0-3.34039-3.98078-6.5769-8.91351l-8.4635,8.91351C632.75769,375.36163,638.01923,377.2309,638.01923,379.5155Zm19.85192,32.175a16.14807,16.14807,0,1,1,16.14808-16.14807A16.19891,16.19891,0,0,1,657.87115,411.69049Z"
     transform="translate(-89.25 -58.52295)"
     fill="#3f3d56"
     id="path74" />
  <path
     d="M797.25,321.47705a57,57,0,1,0,57,57A57,57,0,0,0,797.25,321.47705Zm-15.10962,40.748a8.86392,8.86392,0,1,1-9.06921,8.86157A8.958,8.958,0,0,1,782.14038,362.2251Zm48.34039,38.40576h-6.0404v-8.86151H770.05963v8.86151h-6.0404V356.32318h6.0404v26.5846h24.1615V362.2251H818.4a11.94985,11.94985,0,0,1,12.08075,11.82116Z"
     transform="translate(-89.25 -58.52295)"
     fill="#3f3d56"
     id="path76" />
  <path
     d="M166.3269,363.24628H149.36536a.69431.69431,0,0,0-.69226.69232v24.23077a.6943.6943,0,0,0,.69226.69226H166.3269a2.77736,2.77736,0,0,0,2.76923-2.76922V366.0155A2.77736,2.77736,0,0,0,166.3269,363.24628Z"
     transform="translate(-89.25 -58.52295)"
     fill="#3f3d56"
     id="path78" />
  <path
     d="M162.51923,394.054a4.15892,4.15892,0,1,0,4.48266,4.48266A4.16669,4.16669,0,0,0,162.51923,394.054Z"
     transform="translate(-89.25 -58.52295)"
     fill="#3f3d56"
     id="path80" />
  <path
     d="M129.30579,394.054a4.15892,4.15892,0,1,0,4.48266,4.48266A4.16669,4.16669,0,0,0,129.30579,394.054Z"
     transform="translate(-89.25 -58.52295)"
     fill="#3f3d56"
     id="path82" />
  <path
     d="M143.13464,363.24628H126.2077a2.81428,2.81428,0,0,0-2.80383,2.80383V386.0578a2.81428,2.81428,0,0,0,2.80383,2.80383h16.92694a.6943.6943,0,0,0,.69226-.69226V363.9386A.69431.69431,0,0,0,143.13464,363.24628Z"
     transform="translate(-89.25 -58.52295)"
     fill="#3f3d56"
     id="path84" />
  <path
     d="M146.25,321.47705a57,57,0,1,0,57,57A57,57,0,0,0,146.25,321.47705Zm27.69232,80.19232a6.94343,6.94343,0,0,1-6.92309,6.923H125.48077a6.94343,6.94343,0,0,1-6.92309-6.923V353.90009a5.55474,5.55474,0,0,1,5.53845-5.53846h44.30774a5.55474,5.55474,0,0,1,5.53845,5.53846Z"
     transform="translate(-89.25 -58.52295)"
     fill="#3f3d56"
     id="path86" />
  <path
     d="M166.5,353.20782H126a2.42884,2.42884,0,1,0,0,4.84614h40.5a2.42884,2.42884,0,1,0,0-4.84614Z"
     transform="translate(-89.25 -58.52295)"
     fill="#3f3d56"
     id="path88" />
  <path
     d="M316.86536,380.03473c-1.14228,0-2.07691,1.69617-2.07691,3.80768s.93463,3.80768,2.07691,3.80768,2.077-1.69611,2.077-3.80768S318.00769,380.03473,316.86536,380.03473Z"
     transform="translate(-89.25 -58.52295)"
     fill="#3f3d56"
     id="path90" />
  <path
     d="M301.63464,380.03473c-1.14233,0-2.077,1.69617-2.077,3.80768s.93463,3.80768,2.077,3.80768,2.07691-1.69611,2.07691-3.80768S302.77692,380.03473,301.63464,380.03473Z"
     transform="translate(-89.25 -58.52295)"
     fill="#3f3d56"
     id="path92" />
  <path
     d="M309.25,321.47705a57,57,0,1,0,57,57A57,57,0,0,0,309.25,321.47705Zm-26.65387,55.06152,3.15-16.75384c.81348-4.55194,2.925-8.13464,6.88849-8.13464h5.9538l.34619-1.36731A5.535,5.535,0,0,1,304.3,346.11163h9.86542a5.5388,5.5388,0,0,1,5.36535,4.15387l.34613,1.38459h5.98847c3.87695,0,5.93658,3.51348,6.90582,8.11731v.01733l3.1673,16.77118a.69052.69052,0,0,1-.96924.76153l-4.39618-2.025a.65883.65883,0,0,1-.39807-.50189l-2.80384-14.81543c-.51922-1.90381-1.24615-2.76923-2.78656-2.76923H293.93268c-1.52307,0-2.35382.9173-2.7865,2.76923l-2.80389,14.81537a.69619.69619,0,0,1-.39808.50195l-4.37884,2.00769A.6948.6948,0,0,1,282.59613,376.53857Zm61.04425,10.78272-9.46728,23.52112c-4.75965,0-9.81348-3.80768-9.81348-3.80768-3.11542,1.575-9.19037,2.95959-13.725,3.21924-.48462.01727-.952.0346-1.38464.0346s-.9,0-1.38464-.0346c-4.53461-.25965-10.60956-1.66156-13.725-3.21924,0,0-5.05383,3.80768-9.81348,3.80768l-9.46728-23.52112a3.21588,3.21588,0,0,1-.225-1.15967,3.1269,3.1269,0,0,1,1.81726-2.83844l32.20966-14.79809a1.36006,1.36006,0,0,1,1.15961,0l32.22693,14.79809a3.1269,3.1269,0,0,1,1.81726,2.83844A3.21588,3.21588,0,0,1,343.64038,387.32129Z"
     transform="translate(-89.25 -58.52295)"
     fill="#3f3d56"
     id="path94" />
  <path
     d="M472.25,321.47705a57,57,0,1,0,57,57A57,57,0,0,0,472.25,321.47705Zm26.258,62.55573c-.58851,0-2.54425-.01728-3.11542-.05188l-11.23267-.29425a.34012.34012,0,0,0-.29425.15576l-16.85766,25.2a2.75955,2.75955,0,0,1-2.33655,1.28076h-4.10193c-.96924,0-1.2981-.96924-.95191-1.8692l8.67115-24.73273a.34326.34326,0,0,0-.31153-.46728l-21.06347-.46735a1.41769,1.41769,0,0,0-1.14234.53656l-6.525,7.90961a2.79918,2.79918,0,0,1-2.18079,1.05578h-2.89038a.68934.68934,0,0,1-.65771-.91729l3.44427-11.89038a2.821,2.821,0,0,0,0-2.05964l-3.44427-11.89038a.68934.68934,0,0,1,.65771-.91729H437.083a2.74676,2.74676,0,0,1,2.18072,1.05578l6.40387,7.78845a1.39423,1.39423,0,0,0,1.14228.5365l21.18463-.31152a.33862.33862,0,0,0,.31158-.46728l-8.6712-24.7154c-.34613-.9-.01728-1.86926.952-1.86926h4.10193a2.78161,2.78161,0,0,1,2.33649,1.28076L483.86566,373.129a.32071.32071,0,0,0,.29425.15576l11.23267-.29425c.55389-.03461,2.52691-.05188,3.11542-.05188,7.68463,0,12.51342,2.49231,12.51342,5.55572S506.17529,384.03278,498.508,384.03278Z"
     transform="translate(-89.25 -58.52295)"
     fill="#3f3d56"
     id="path96" />
  <path
     d="M154.92236,570.61278a12,12,0,1,1,12-12A12.01375,12.01375,0,0,1,154.92236,570.61278Zm0-22a10,10,0,1,0,10,10A10.01114,10.01114,0,0,0,154.92236,548.61278Z"
     transform="translate(-89.25 -58.52295)"
     fill="#f0f0f0"
     id="path98" />
  <path
     d="M407.92236,301.61278a12,12,0,1,1,12-12A12.01375,12.01375,0,0,1,407.92236,301.61278Zm0-22a10,10,0,1,0,10,10A10.01114,10.01114,0,0,0,407.92236,279.61278Z"
     transform="translate(-89.25 -58.52295)"
     fill="#f0f0f0"
     id="path100" />
  <path
     d="M631.39387,630.98272l-13.4651-14.43621L632.365,603.08142l13.46509,14.43621ZM620.075,616.62121l11.39354,12.21526,12.21525-11.39354-11.39354-12.21526Z"
     transform="translate(-89.25 -58.52295)"
     fill="#f0f0f0"
     id="path102" />
  <ellipse
     style="opacity:0.1;fill:#6c63ff;stroke-width:0.44790757"
     cx="236.03607"
     cy="768.89722"
     rx="160.31506"
     ry="8.2417278"
     id="ellipse13" />
  <path
     inkscape:connector-curvature="0"
     style="fill:#ffc1c7;stroke-width:0.44790757"
     d="m 326.84438,736.58508 -1.37874,1.92074 -8.5252,12.04829 -7.23837,2.07353 -5.40006,-5.02012 0.26196,-3.31328 1.34657,-17.20375 c 0,0 -33.41142,-18.67048 -36.39869,-22.16274 -2.98726,-3.49225 -14.47675,-6.65712 -14.47675,-6.65712 0,0 -17.5789,-7.74844 -24.12791,-21.28094 -6.54901,-13.5325 10.91501,-15.60603 10.91501,-15.60603 l 65.60495,59.59538 z"
     id="path15" />
  <path
     inkscape:connector-curvature="0"
     style="fill:#575988;stroke-width:0.44790757"
     d="m 334.88701,743.5696 -20.79596,18.44348 c 0,0 -11.94907,2.18266 -22.63428,0.6548 -6.82935,-0.97784 -5.51495,-4.53557 -3.718,-6.98451 l 0.0321,-0.0437 a 7.5554845,7.1765894 0 0 1 4.43035,-2.76761 c 8.84231,-2.02551 11.89392,-8.10641 11.89392,-8.10641 l 6.4341,5.23839 11.14481,-12.3364 8.24025,3.6756 z"
     id="path17" />
  <line
     style="fill:#ffffff;stroke-width:0.44790757"
     x1="309.15057"
     y1="758.73468"
     x2="329.91437"
     y2="741.56592"
     id="line19" />
  <path
     inkscape:connector-curvature="0"
     style="opacity:0.1;stroke-width:0.44790757"
     d="m 329.91437,741.35201 -4.89452,-2.18266 0.45958,-0.66353 1.37874,-1.92074 -19.43102,-15.60604 -65.60495,-59.58664 c 0,0 -17.46402,2.06479 -10.91501,15.59729 6.54901,13.5325 24.12791,21.28094 24.12791,21.28094 0,0 11.48949,3.16487 14.47675,6.65712 2.98727,3.49226 36.42166,22.15401 36.42166,22.15401 l -1.34656,17.20375 -0.0643,0.82068 -0.42741,-0.34486 c 0,0 -3.0516,6.08089 -11.89391,8.1064 a 7.5554845,7.1765894 0 0 0 -4.43035,2.76761 l -0.0321,0.0437 c -1.83832,2.44457 -3.11135,6.00232 3.71799,6.98451 10.68522,1.52787 22.63429,-0.6548 22.63429,-0.6548 l 20.79596,-18.44348 z"
     id="path21" />
  <path
     inkscape:connector-curvature="0"
     style="opacity:0.1;fill:#6c63ff;stroke-width:0.44790757"
     d="m 171.83286,456.13496 c 0,0 -10.95177,-0.62424 -9.65117,6.66584 a 1.870488,1.776686 0 0 0 0.97431,1.87272 c 0,0 0,-0.54129 1.12137,-0.35795 a 4.8945201,4.6490679 0 0 0 1.19032,0.0567 2.4863243,2.3616392 0 0 0 1.45686,-0.57186 v 0 c 0,0 3.07918,-1.20919 4.27409,-5.98922 0,0 0.88699,-1.04331 0.85022,-1.30959 l -1.83832,0.75083 c 0,0 0.62963,1.26594 0.13328,2.31799 0,0 -0.0597,-2.27434 -0.41362,-2.22196 -0.0735,0 -0.96052,0.43654 -0.96052,0.43654 0,0 1.08921,2.20885 0.26656,3.81092 0,0 0.31251,-2.71959 -0.60665,-3.6494 l -1.30061,0.72027 c 0,0 1.26844,2.2787 0.40902,4.13833 0,0 0.2206,-2.85056 -0.68017,-3.96372 l -1.18112,0.87307 c 0,0 1.1949,2.24814 0.45958,3.7891 0,0 -0.0919,-3.32201 -0.72154,-3.57083 a 7.1970126,6.8360943 0 0 0 -1.18572,1.21792 c 0,0 0.81346,1.63263 0.30793,2.4926 0,0 -0.30793,-2.21322 -0.56529,-2.22195 0,0 -1.02945,1.46675 -1.13516,2.47078 a 5.6160596,5.3344235 0 0 1 0.88699,-2.6192 3.1113522,2.955323 0 0 0 -1.57636,0.77266 c 0,0 0.16085,-1.03458 1.83832,-1.12625 0,0 0.85022,-1.11315 1.07542,-1.17864 0,0 -1.65908,-0.13532 -2.66097,0.29248 0,0 0.88239,-0.97784 2.96428,-0.53694 l 1.16734,-0.89925 c 0,0 -2.18301,-0.28374 -3.11136,0.0262 0,0 1.06623,-0.87306 3.42387,-0.23136 l 1.26844,-0.72028 a 11.374589,10.804172 0 0 0 -2.97347,-0.24446 c 0,0 1.17192,-0.59805 3.34573,0.048 l 0.91916,-0.38415 c 0,0 -1.37874,-0.25319 -1.76479,-0.29684 -0.38604,-0.0437 -0.41822,-0.14406 -0.41822,-0.14406 a 4.7244757,4.4875511 0 0 1 2.55987,0.27065 c 0,0 1.88886,-0.6679 1.8521,-0.78576 z"
     id="path81" />
  <path
     inkscape:connector-curvature="0"
     style="opacity:0.1;fill:#6c63ff;stroke-width:0.44790757"
     d="m 143.07238,491.61193 c 0,0 -3.74098,9.80015 3.98455,10.69503 a 1.8750838,1.7810514 0 0 0 2.16922,-0.35795 c 0,0 -0.5423,-0.17025 -0.0414,-1.12189 a 4.917499,4.6708946 0 0 0 0.37686,-1.0695 2.4863243,2.3616392 0 0 0 -0.16085,-1.48857 v 0 c 0,0 -0.34469,-3.1474 -4.83018,-5.59199 0,0 -0.80426,-1.10442 -1.08461,-1.14807 l 0.23438,1.89454 c 0,0 1.45688,-0.21389 2.38063,0.53694 0,0 -2.2979,-0.58932 -2.36224,-0.25319 0,0.0698 0.17005,0.99966 0.17005,0.99966 0,0 2.53687,-0.36232 3.92481,0.83814 0,0 -2.65637,-1.05204 -3.85587,-0.48455 l 0.35846,1.39254 c 0,0 2.66097,-0.51075 4.29248,0.80322 0,0 -2.81723,-1.01276 -4.19596,-0.50638 l 0.5469,1.3096 c 0,0 2.60581,-0.43654 3.95697,0.65043 0,0 -3.3779,-0.87306 -3.80991,-0.35359 a 7.0913094,6.7356918 0 0 0 0.89618,1.42746 c 0,0 1.87509,-0.27938 2.60122,0.43653 0,0 -2.32087,-0.34486 -2.4036,-0.1135 0,0 1.18571,1.35325 2.16921,1.74613 a 5.5930807,5.3125969 0 0 1 -2.38062,-1.54532 3.0975648,2.942227 0 0 0 0.3355,1.63263 c 0,0 -0.99729,-0.43653 -0.61584,-1.98186 0,0 -0.88239,-1.09133 -0.88698,-1.30959 0,0 -0.60205,1.47548 -0.45959,2.51005 0,0 -0.73532,-1.08259 0.30333,-2.85492 l -0.57907,-1.30959 c 0,0 -0.91917,1.90764 -0.85483,2.83746 0,0 -0.56987,-1.21356 0.73533,-3.18232 l -0.36766,-1.35762 a 11.572208,10.991881 0 0 0 -1.08921,2.61919 c 0,0 -0.27115,-1.23975 1.00189,-3.02953 l -0.13328,-0.93854 c 0,0 -0.64341,1.1699 -0.79967,1.52349 -0.15625,0.3536 -0.26655,0.3405 -0.26655,0.3405 a 4.7566463,4.5181083 0 0 1 1.00188,-2.25687 c 0,0 -0.13328,-1.93384 -0.26196,-1.9382 z"
     id="path83" />
  <path
     inkscape:connector-curvature="0"
     style="opacity:0.1;fill:#6c63ff;stroke-width:0.44790757"
     d="m 215.70431,483.3571 c 0,0 -3.74558,9.79579 3.98455,10.69068 a 1.870488,1.776686 0 0 0 2.16461,-0.3536 c 0,0 -0.5377,-0.17024 -0.0413,-1.12625 a 4.9496696,4.7014518 0 0 0 0.39524,-1.0695 2.4403663,2.317986 0 0 0 -0.16546,-1.48421 v 0 c 0,0 -0.34468,-3.1474 -4.83017,-5.59635 0,0 -0.79967,-1.10442 -1.08002,-1.14807 l 0.2298,1.89891 c 0,0 1.46146,-0.21826 2.38062,0.53257 0,0 -2.2979,-0.58932 -2.35765,-0.24882 0,0.0655 0.17005,0.99966 0.17005,0.99966 0,0 2.53688,-0.36669 3.92021,0.83814 0,0 -2.65177,-1.05641 -3.85587,-0.48455 l 0.35847,1.38817 c 0,0 2.66096,-0.51074 4.29707,0.80321 0,0 -2.81722,-1.01275 -4.19596,-0.502 l 0.5469,1.3096 c 0,0 2.60582,-0.43654 3.95697,0.65043 0,0 -3.3779,-0.87307 -3.80991,-0.35796 a 7.233779,6.8710169 0 0 0 0.89159,1.42746 c 0,0 1.87968,-0.27938 2.60581,0.43653 0,0 -2.32547,-0.34486 -2.4036,-0.11786 0,0 1.18572,1.35325 2.16921,1.74613 a 5.6252512,5.3431542 0 0 1 -2.38521,-1.54969 3.0883732,2.9334964 0 0 0 0.33549,1.65445 c 0,0 -1.00188,-0.43653 -0.62043,-1.98622 0,0 -0.87779,-1.08697 -0.88239,-1.30959 0,0 -0.60665,1.47111 -0.45958,2.51006 0,0 -0.73533,-1.08697 0.30792,-2.85492 l -0.58367,-1.3096 c 0,0 -0.91915,1.90764 -0.85022,2.84183 0,0 -0.56988,-1.21793 0.73533,-3.18669 l -0.36767,-1.35762 a 11.457313,10.882748 0 0 0 -1.0892,2.6192 c 0,0 -0.27574,-1.23539 0.99728,-3.02953 l -0.13327,-0.93419 c 0,0 -0.64341,1.16991 -0.79508,1.51913 -0.15165,0.34923 -0.26655,0.34487 -0.26655,0.34487 a 4.7060926,4.4700897 0 0 1 1.00188,-2.25688 c 0,0 -0.15165,-1.94693 -0.27574,-1.94693 z"
     id="path85" />
  <path
     inkscape:connector-curvature="0"
     style="opacity:0.1;fill:#6c63ff;stroke-width:0.44790757"
     d="m 97.02713,471.08181 c 0,0 -3.74557,9.80015 3.98455,10.69068 a 1.8612964,1.7679554 0 0 0 2.16462,-0.35359 c 0,0 -0.53771,-0.17025 -0.0414,-1.12189 a 5.1794592,4.9197179 0 0 0 0.39524,-1.06951 2.4863243,2.3616392 0 0 0 -0.16544,-1.48857 v 0 c 0,0 -0.34469,-3.1474 -4.83018,-5.59634 0,0 -0.79967,-1.10006 -1.08001,-1.14372 l 0.22978,1.89455 c 0,0 1.45687,-0.2139 2.38063,0.53694 0,0 -2.2979,-0.59369 -2.35765,-0.25319 0,0.0698 0.17004,0.99966 0.17004,0.99966 0,0 2.53688,-0.36232 3.92022,0.83814 0,0 -2.65637,-1.05641 -3.85588,-0.48455 l 0.35848,1.39254 c 0,0 2.66096,-0.51074 4.29248,0.80322 0,0 -2.81263,-1.01276 -4.19137,-0.50638 l 0.54689,1.3096 c 0,0 2.60582,-0.43653 3.95699,0.65043 0,0 -3.38251,-0.87306 -3.80992,-0.35796 a 7.2429706,6.8797475 0 0 0 0.89159,1.43183 c 0,0 1.87967,-0.28375 2.60122,0.43653 0,0 -2.32088,-0.34486 -2.4036,-0.1135 0,0 1.19031,1.34889 2.17381,1.74613 a 5.5792934,5.299501 0 0 1 -2.38522,-1.54968 3.0883732,2.9334964 0 0 0 0.33549,1.65445 c 0,0 -1.00188,-0.43653 -0.62043,-1.98186 0,0 -0.8824,-1.09132 -0.8824,-1.30959 0,0 -0.60663,1.47548 -0.45957,2.51006 0,0 -0.73533,-1.0826 0.30332,-2.85492 l -0.57907,-1.3096 c 0,0 -0.91916,1.91201 -0.85482,2.84183 0,0 -0.56987,-1.21356 0.73533,-3.18233 l -0.36307,-1.36198 a 11.457313,10.882748 0 0 0 -1.0892,2.6192 c 0,0 -0.27575,-1.23539 0.99729,-3.02953 l -0.13328,-0.93419 c 0,0 -0.64341,1.16991 -0.79507,1.5235 -0.15167,0.3536 -0.26656,0.3405 -0.26656,0.3405 a 4.7244757,4.4875511 0 0 1 0.99729,-2.25688 c 0,0 -0.12869,-1.95566 -0.27116,-1.96003 z"
     id="path87" />
  <path
     inkscape:connector-curvature="0"
     style="opacity:0.1;fill:#6c63ff;stroke-width:0.44790757"
     d="m 212.08741,537.55694 c 0,0 2.89075,10.04024 9.74768,6.54798 a 1.870488,1.776686 0 0 0 1.55338,-1.47548 c 0,0 -0.54231,0.15279 -0.71694,-0.89925 a 4.9588612,4.7101825 0 0 0 -0.3263,-1.08697 2.4955158,2.3703698 0 0 0 -1.03406,-1.12625 v 0 c 0,0 -2.19219,-2.3791 -7.35327,-1.9251 0,0 -1.32358,-0.46273 -1.58095,-0.34487 l 1.34197,1.42309 c 0,0 1.05703,-0.97346 2.26572,-0.87305 0,0 -2.24734,0.78139 -2.07729,1.08259 0.0321,0.0611 0.74451,0.72465 0.74451,0.72465 0,0 1.83833,-1.68502 3.71341,-1.46238 0,0 -2.80803,0.59368 -3.44685,1.71556 l 1.13976,0.94291 c 0,0 1.86589,-1.87708 3.99374,-1.6981 0,0 -2.91373,0.71591 -3.73178,1.88581 l 1.25005,0.7814 c 0,0 1.83832,-1.79415 3.62609,-1.637 0,0 -3.27681,1.15245 -3.32736,1.79415 a 7.2475663,6.8841128 0 0 0 1.59934,0.68099 c 0,0 1.37873,-1.25722 2.38062,-1.07824 0,0 -2.10487,0.98657 -2.03134,1.2223 0,0 1.78776,0.43653 2.82641,0.22699 a 5.5838891,5.3038663 0 0 1 -2.88615,0.0393 3.0975648,2.942227 0 0 0 1.27302,1.16991 c 0,0 -1.0846,0.18771 -1.70963,-1.2834 0,0 -1.37873,-0.40598 -1.52121,-0.58933 0,0 0.39984,1.53224 1.14896,2.30053 0,0 -1.25925,-0.48018 -1.48445,-2.49696 l -1.26384,-0.74647 c 0,0 0.41362,2.05607 1.02486,2.78944 0,0 -1.2041,-0.68099 -1.33278,-3.00335 l -1.12597,-0.90798 a 11.604379,11.022438 0 0 0 0.71235,2.75015 c 0,0 -0.97431,-0.87307 -1.02027,-3.02516 l -0.68018,-0.68973 c 0,0 0.18384,1.3096 0.27575,1.68065 0.0919,0.37106 0,0.43653 0,0.43653 a 4.7290715,4.4919164 0 0 1 -0.55609,-2.3922 c 0,0 -1.30521,-1.52349 -1.41091,-1.45364 z"
     id="path89" />
  <path
     inkscape:connector-curvature="0"
     style="fill:url(#e4ea693e-ea82-4def-9867-aa54d168612a);stroke-width:0.44790757"
     d="m 348.53193,594.19263 a 25.152778,23.891408 0 0 0 3.30438,3.0208 l 8.9526,7.24643 c 1.59474,1.28778 3.21706,2.6192 5.2392,3.22598 a 8.1988956,7.7877342 0 0 0 7.15106,-1.04331 l -0.15166,-0.048 0.15166,-0.096 c -1.51202,-0.46272 -3.0608,-0.94291 -4.30626,-1.87272 a 4.8393706,4.5966841 0 0 1 -1.89347,-3.05573 v 0 c 0,-0.0611 0,-0.11786 0,-0.17898 a 3.3641209,3.1954157 0 0 1 0.0505,-0.49328 11.392972,10.821633 0 0 0 5.39087,-1.80287 l -0.15625,-0.0524 0.15625,-0.0917 c -4.77043,-1.45365 -8.07481,-5.70548 -9.57304,-10.20612 -1.49822,-4.50065 -1.50282,-9.29377 -1.66368,-14.00395 -0.16085,-4.71019 -0.52851,-9.55133 -2.67015,-13.81188 -0.80427,-1.59771 -1.83832,-3.11684 -2.22896,-4.84551 a 7.9323396,7.5345458 0 0 1 -0.15166,-1.55842 c 0.0321,-1.68065 0.5469,-3.37003 1.02027,-5.0114 a 109.95895,104.44469 0 0 0 2.51849,-11.13593 27.51042,26.130818 0 0 0 0.40903,-4.03792 10.924201,10.37637 0 0 0 -0.65721,-3.88077 c -2.10487,-5.19474 -9.42137,-7.64368 -10.53815,-13.09597 a 12.068554,11.463335 0 0 1 -0.16545,-2.22195 c 0,-0.41034 0,-0.81631 0,-1.22229 0,-0.40597 0,-0.87307 -0.0368,-1.27467 -0.31711,-3.83712 -2.81723,-7.16786 -5.23001,-10.28034 -2.90455,-3.74544 -5.97454,-7.63931 -10.43706,-9.63426 -3.46523,-1.55842 -8.09778,-2.07353 -12.2294,-1.7243 a 31.816678,30.221124 0 0 0 -6.05726,-3.90697 c -3.1573,-1.66755 -6.43411,-3.30891 -9.93151,-3.6756 -4.43494,-0.46272 -8.81932,1.15245 -13.26805,1.4231 -6.04806,0.37105 -11.98583,-1.74613 -18.03389,-2.18267 -6.04807,-0.43653 -13.0107,1.49731 -15.71302,7.28136 a 14.619219,13.88609 0 0 0 -1.13976,4.42207 v 0 c -0.0276,0.29248 -0.046,0.58059 -0.0597,0.87307 v 0.0306 a 28.921328,27.470971 0 0 0 0.10571,3.54028 v 0.13532 c 0,0.23573 0.046,0.47146 0.0735,0.70718 0,0.0698 0,0.13533 0.023,0.20517 0,0.21827 0.0505,0.43653 0.0781,0.6548 l 0.0276,0.20517 c 0.0368,0.27502 0.0781,0.55003 0.11489,0.82505 a 9.2513327,8.7873934 0 0 0 0.38145,1.66755 3.2997798,3.1343012 0 0 0 0.48715,0.87307 c 0.6572,0.79448 1.6453,1.03021 2.66556,1.17863 l 0.80427,0.10913 c -0.0827,0.15715 -0.17005,0.3143 -0.24818,0.47582 a 28.572048,27.139207 0 0 0 -2.75747,11.68597 c 0,13.7333 10.7036,25.11806 24.6886,27.18722 l 0.84103,0.9953 c 5.15648,6.13764 11.62735,14.33135 14.70654,20.2289 -3.55715,4.19508 -7.72094,11.63358 -8.90665,24.10968 l -1.76019,3.90259 c -3.69042,5.04195 -4.64175,12.31458 -3.69042,19.08083 -1.03865,3.65813 -2.22437,8.25482 -3.04701,12.05702 -6.117,-1.28777 -26.9957,-4.47446 -31.93157,-7.56948 l -14.47676,-6.47813 c 0,0 -18.84275,-12.50228 -28.98107,-8.32903 -3.87425,-4.52248 -9.7201,-9.25885 -12.23859,-11.04864 -4.32005,-3.07755 -15.06502,-15.09964 -15.06502,-15.09964 l -16.83439,-21.2242 c -0.046,-2.45767 -0.3217,-4.55739 -1.02945,-5.46102 -1.98539,-2.52315 -12.49597,-8.12387 -14.59625,-6.91467 -2.10028,1.2092 -3.85587,-2.61919 -3.85587,-2.61919 l -0.16085,-0.0829 c -0.39524,-0.21826 -1.51661,-0.82067 -3.07459,-1.61516 a 40.847413,38.798982 0 0 1 0.13787,-5.3126 c 0.0322,-0.29684 0.0735,-0.59369 0.1195,-0.87306 a 25.621549,24.336671 0 0 0 23.97165,-18.57008 c 0.0736,-0.27502 0.12409,-0.55877 0.18384,-0.83814 a 4.517665,4.2911116 0 0 0 4.24192,-1.16991 c 1.47065,-1.50167 1.53499,-3.81093 1.06622,-5.80151 -0.46877,-1.99059 -1.37873,-3.89824 -1.60853,-5.93247 -0.28954,-2.77199 0.73993,-5.67493 -0.20681,-8.29412 -0.79507,-2.23505 -2.89075,-3.85895 -5.12431,-4.91972 -2.23355,-1.06077 -4.67852,-1.68065 -6.96262,-2.64538 -2.17842,-0.91672 -4.20516,-2.14774 -6.46629,-2.87238 -2.93211,-0.93855 -6.08483,-0.97347 -9.19158,-0.90362 -1.94862,-0.74647 -3.934,-1.45802 -6.02049,-1.68066 -2.2979,-0.24881 -4.82559,0.17462 -6.57659,1.62827 -1.37873,1.16118 -2.50011,3.02517 -4.37059,3.08628 -0.91916,0.0306 -1.74641,-0.4016 -2.56445,-0.77266 -2.32089,-1.05641 -5.25759,-1.65445 -7.35328,-0.25319 -1.68206,1.11753 -2.29789,3.17359 -2.58743,5.08997 -0.28954,1.91638 -0.34009,3.92879 -1.31439,5.64436 -0.60205,1.05641 -1.51661,1.91637 -2.27492,2.87675 a 13.015287,12.362592 0 0 0 -2.54148,8.49492 v 0.0873 c -0.11029,-0.43653 -0.216,-0.84251 -0.29412,-1.27031 0,0.32303 0,0.6417 0.046,0.96474 a 26.154661,24.843047 0 0 0 1.02486,4.41334 l 1.90266,6.32972 c 0.96511,3.21287 1.95322,6.47377 3.79153,9.33306 a 16.181789,15.370299 0 0 0 2.57824,3.07755 11.907701,11.31055 0 0 0 5.77691,3.18232 7.4038233,7.0325337 0 0 0 2.36224,0.13532 c 0,0.0917 -0.0229,0.17898 -0.0413,0.27065 -0.17005,-0.0306 -0.34468,-0.0655 -0.50554,-0.0873 a 4.9083075,4.6621639 0 0 0 -2.25653,0.0568 c -3.63068,1.22666 -4.73367,4.95901 -5.05538,6.42576 -0.0735,0.37542 -0.0965,0.60241 -0.0965,0.60241 0,0 0.0598,0.21827 0.12868,0.58932 l -0.0321,0.1266 c -0.0735,0.37105 -0.0965,0.60241 -0.0965,0.60241 0,0 0.0598,0.21826 0.12868,0.59805 l -0.94672,0.0218 -15.83251,1.9644 c -3.61689,-0.23573 -7.05915,-0.29248 -8.90206,0.12659 a 3.6766348,3.4922576 0 0 0 -0.45958,0.12659 c -2.2979,0.75521 -12.82686,7.65678 -22.27581,14.00833 0,-0.17462 0,-0.34487 -0.0276,-0.51075 l -2.68854,1.81598 c 0,0.17024 0,0.34922 0,0.5282 -0.67099,0.43653 -1.33737,0.89925 -1.98078,1.34016 -2.89075,1.96439 -5.51496,3.73671 -7.46817,5.09432 -2.38061,1.6239 -3.85586,2.64975 -3.85586,2.64975 0,0 -0.8732,0.27066 -1.45227,1.5497 -0.74452,1.63699 -1.00189,4.92844 1.68665,11.40658 4.78882,11.52881 5.83665,19.32528 5.83665,19.32528 a 14.623815,13.890455 0 0 0 -3.79152,0.87306 c -1.65908,0.62861 -3.39169,1.69375 -4.11324,3.49226 a 6.3284077,6.0110484 0 0 0 -0.0321,3.88514 c 2.21517,7.4647 38.885,49.85198 38.885,49.85198 l 0.45958,0.0393 a 32.216513,30.600907 0 0 0 5.65283,0 c 1.71423,-0.17025 3.31817,-0.55876 4.05349,-1.37944 0,0 8.12996,9.91365 20.06983,3.16049 -0.0827,8.99256 -0.3217,15.58856 1.18112,18.91058 2.33926,5.15981 2.33926,16.90689 2.33926,16.90689 l 2.22437,0.0742 c -0.11949,0.43654 -0.25277,0.87307 -0.39524,1.3096 -1.02487,3.21725 -2.53688,7.10675 -4.13622,8.03656 -2.69314,1.57152 -1.4155,28.58414 -1.3052,30.91522 v 0 c 0,0.0917 0,0.13969 0,0.13969 l -0.15626,10.91331 v 0.87306 a 11.131012,10.57281 0 0 1 -0.89618,-1.34451 c 0,0 -4.32924,3.92879 -4.40736,12.2229 -0.0781,8.29411 0.0781,8.57349 0.0781,8.57349 0,0 17.46402,-0.6417 20.74083,0.50201 3.27679,1.14372 30.68152,-0.99529 30.68152,-0.99529 0,0 1.01566,-2.5057 -1.90726,-4.4308 4.66013,-0.31867 9.74308,-1.16555 12.72115,-3.21725 6.54901,-4.49191 -13.2129,-7.9929 -14.59164,-8.70445 -1.37874,-0.71155 -8.20809,-6.43449 -11.02991,-8.57786 a 5.7355503,5.4479219 0 0 0 -2.91373,-1.03022 l 0.35388,-9.78269 c 4.20515,-4.50065 8.75958,-29.31751 8.75958,-29.31751 1.48904,-1.17863 2.13705,-4.04665 2.4036,-5.79715 a 2.7988382,2.6584811 0 0 0 1.91645,-2.4402 v 0 c 4.81179,0.15278 10.86445,0.11786 12.02719,-0.97784 1.98538,-1.86836 1.751,-8.23736 1.751,-8.23736 l -2.80344,-67.41803 -0.18383,-0.25756 a 35.38761,33.61298 0 0 0 0.0276,-9.30686 c 6.29624,1.70684 11.19535,2.86801 11.19535,2.86801 0,0 9.47653,1.65882 16.12665,3.05573 a 10.869051,10.323986 0 0 0 -2.4082,3.84148 c -5.97453,16.15169 27.91025,15.4838 27.91025,15.4838 l 15.99796,7.02817 37.65793,11.69033 c -12.10072,-3.39186 -25.92487,-7.38176 -35.33246,-10.11882 a 24.711582,23.472336 0 0 0 -2.82182,-0.65043 c -8.6309,-1.48421 -17.59729,1.50167 -23.09385,8.08894 -0.0643,0.0829 -0.1241,0.15715 -0.19304,0.23573 a 10.110745,9.6037083 0 0 0 -0.23897,11.39785 c 1.43848,1.93384 3.36411,4.50502 5.62066,7.49526 -4.77504,1.37071 -12.67521,5.19037 -7.8726,15.01235 6.65471,13.61543 24.51855,21.39007 24.51855,21.39007 0,0 11.67792,3.18669 14.70654,6.70077 0.85023,0.98656 4.13622,3.17359 8.43329,5.81025 2.75747,2.77197 4.9175,4.58358 6.19972,4.98519 5.11971,1.60207 15.088,9.28941 22.10117,15.05601 l -1.05243,13.77696 -0.0689,0.82941 -0.432,-0.34923 c 0,0 -3.10216,6.11145 -12.09154,8.15879 a 7.6979541,7.3119144 0 0 0 -4.49928,2.78508 l -0.0322,0.0393 -0.26656,0.36668 -0.20221,-0.14405 c -1.83832,2.45768 -2.69313,6.03724 4.24652,7.0238 10.85985,1.5366 22.97896,-0.65916 22.97896,-0.65916 l 10.82769,-9.50768 a 10.634666,10.101355 0 0 0 4.13621,2.03862 c 8.0932,1.74612 30.82399,10.10135 30.82399,10.10135 0,-2.34418 20.08821,-32.49982 20.08821,-32.49982 27.11519,-48.75193 -2.37142,-85.18491 -5.62984,-88.97838 l -0.28954,-0.33176 -0.25276,-4.05102 -0.0552,-0.92981 c 0,0 14.633,-6.14637 9.02613,-9.07114 -5.60687,-2.92477 -8.73201,-16.98547 -14.01257,-22.83937 -4.13621,-4.56613 -3.89723,-15.16513 -4.33383,-24.19698 a 15.308588,14.540888 0 0 0 2.97347,6.11145 c 0.0322,0.0393 0.0689,0.0698 0.10112,0.10913 l -0.39064,-0.32302 c 0.0965,0.13968 0.18842,0.26192 0.28952,0.37978 z m -180.30677,-3.74545 c 1.88428,1.92511 5.17486,4.38715 7.35327,5.94994 -2.61041,-1.2092 -4.64175,-2.23068 -6.20892,-3.05573 -0.36766,-0.9691 -0.75371,-1.9382 -1.14435,-2.89421 z m -55.74238,-45.68309 a 7.5968467,7.2158773 0 0 1 -2.36684,3.27836 l -0.91915,-3.76728 c 1.20409,0.18334 2.32547,0.35359 3.28599,0.48892 z m 183.68467,103.50615 c 0.36308,-0.74211 0.73993,-1.47112 1.12138,-2.18266 a 8.6171129,8.184979 0 0 0 4.08566,-2.69777 58.334407,55.409032 0 0 1 1.77397,8.05839 c 0,0.12659 0,0.19643 0,0.19643 a 12.941755,12.292747 0 0 1 -0.51932,3.24343 c -0.42282,1.27468 -1.19491,2.47514 -2.59662,2.6192 -0.58367,0.0568 -3.45604,-0.60242 -7.7531,-1.71557 -1.24547,-0.32304 -2.61501,-0.68536 -4.07647,-1.07824 2.29329,-0.14406 5.48278,-1.37071 7.9645,-6.44321 z m 35.96209,-92.10829 c -0.85941,-1.3096 -2.65177,-2.14774 -4.84396,-2.64102 -0.39984,-0.2532 -1.02027,-0.6548 -1.81075,-1.20047 -3.86046,-2.68467 -11.56761,-8.73064 -15.10177,-16.4529 a 19.463186,18.487139 0 0 0 2.87696,-0.99965 20.805157,19.761813 0 0 0 4.06268,-2.33545 c 0.42281,-0.31431 0.83644,-0.64171 1.23168,-0.9822 a 21.453164,20.377323 0 0 0 2.75747,-2.85929 c 0.32631,-0.43653 0.64341,-0.85123 0.91916,-1.3096 a 21.182012,20.119769 0 0 0 1.22248,-2.08662 27.381738,26.008588 0 0 0 1.92564,-5.23838 c 0.17924,-0.72465 0.33549,-1.46239 0.45957,-2.20449 0.1241,-0.74211 0.24359,-1.48858 0.3309,-2.23941 a 66.556282,63.218593 0 0 0 0.32631,-7.97545 c 0,-0.12659 0,-0.25755 0,-0.38414 0,-0.0481 0,-0.096 0,-0.13969 v 0 a 41.077202,39.017248 0 0 0 -0.91917,-8.02784 c 0.20682,0.0742 0.41363,0.14843 0.61125,0.23573 a 6.1859381,5.8757234 0 0 1 0.94673,0.54567 c -0.0735,-0.10041 -0.15626,-0.20081 -0.23439,-0.30121 1.33278,0.82069 2.32548,2.09972 3.21706,3.3744 a 50.723773,48.180059 0 0 1 5.44142,41.20427 c -0.67099,1.87272 -1.47525,3.73672 -1.65449,5.70548 -0.648,7.03253 6.43411,12.39751 9.06751,19.00661 1.31899,3.31328 1.5258,6.98452 1.70044,10.61646 -1.98539,-9.19773 -9.24214,-18.25141 -12.51894,-23.29336 z"
     id="path91" />
  <path
     inkscape:connector-curvature="0"
     style="fill:#ffc1c8;stroke-width:0.44790757"
     d="m 156.45533,695.22364 c 0,0 -0.34468,5.45665 -2.52768,7.20278 0,0 -4.4809,24.66407 -8.61711,29.13852 l -0.68937,2.51008 -17.23423,-1.85528 3.44684,-21.8266 3.21706,-20.08049 z"
     id="path93" />
  <path
     inkscape:connector-curvature="0"
     style="opacity:0.02999998;stroke-width:0.44790757"
     d="m 156.45533,695.22364 c 0,0 -0.34468,5.45665 -2.52768,7.20278 0,0 -4.4809,24.66407 -8.61711,29.13852 l -0.68937,2.51008 -17.23423,-1.85528 3.44684,-21.8266 3.21706,-20.08049 z"
     id="path95" />
  <polygon
     transform="matrix(0.45957935,0,0,0.4365322,-26.25044,418.81145)"
     style="fill:#ff748f"
     points="373.3,716.44 372.44,741.88 360.07,750.17 337.79,745.29 345.92,711.29 357.14,717.15 "
     id="polygon97" />
  <polygon
     transform="matrix(0.45957935,0,0,0.4365322,-26.25044,418.81145)"
     style="opacity:0.02999998"
     points="373.3,716.44 372.44,741.88 360.07,750.17 337.79,745.29 345.92,711.29 357.14,717.15 "
     id="polygon99" />
  <path
     inkscape:connector-curvature="0"
     style="fill:#5d618c;stroke-width:0.44790757"
     d="m 139.2303,741.81474 c 0,0 5.83206,-1.63264 8.59873,0.49764 2.76667,2.13028 9.49491,7.80956 10.84148,8.52111 1.34656,0.71155 20.76379,4.19071 14.35266,8.6608 -6.41114,4.47009 -22.87326,3.19541 -22.87326,3.19541 0,0 -10.76795,-2.98588 -11.06668,-3.12557 -0.29872,-0.13968 -6.89368,-3.19541 -7.1005,-3.40931 -0.20681,-0.2139 1.8659,-14.40557 1.8659,-14.40557 z"
     id="path101" />
  <path
     inkscape:connector-curvature="0"
     style="opacity:0.02999998;stroke-width:0.44790757"
     d="m 139.2303,741.81474 c 0,0 5.83206,-1.63264 8.59873,0.49764 2.76667,2.13028 9.49491,7.80956 10.84148,8.52111 1.34656,0.71155 20.76379,4.19071 14.35266,8.6608 -6.41114,4.47009 -22.87326,3.19541 -22.87326,3.19541 0,0 -10.76795,-2.98588 -11.06668,-3.12557 -0.29872,-0.13968 -6.89368,-3.19541 -7.1005,-3.40931 -0.20681,-0.2139 1.8659,-14.40557 1.8659,-14.40557 z"
     id="path103" />
  <path
     inkscape:connector-curvature="0"
     style="fill:#6c63ff;stroke-width:0.44790757"
     d="m 122.33157,594.27557 -0.34469,20.29001 -0.78128,43.28217 -0.45958,0.37979 c -13.67249,11.2407 -23.32366,-0.6548 -23.32366,-0.6548 -0.72613,0.81632 -2.29789,1.20483 -3.98915,1.37071 a 31.177863,29.614345 0 0 1 -5.56091,0 l -0.45958,-0.0393 c 0,0 -36.08616,-42.15592 -38.26916,-49.57697 a 6.3697698,6.0503364 0 0 1 0.0321,-3.85894 c 0.71235,-1.77232 2.41739,-2.82873 4.04889,-3.45297 a 14.283726,13.567421 0 0 1 3.73179,-0.87306 c 0,0 -1.03406,-7.74845 -5.74475,-19.20742 -2.64716,-6.43885 -2.3898,-9.70847 -1.65907,-11.34984 0.56987,-1.2703 1.42929,-1.54096 1.42929,-1.54096 0,0 1.45227,-1.01712 3.79153,-2.61919 1.94401,-1.34889 4.50387,-3.11247 7.35326,-5.06378 l 2.64258,-1.79851 c 9.74768,-6.64401 21.49453,-14.46667 23.89813,-15.27862 a 3.5111863,3.335106 0 0 1 0.45958,-0.1266 c 4.93129,-1.13062 21.48074,1.21792 21.48074,1.21792 z"
     id="path105" />
  <path
     inkscape:connector-curvature="0"
     style="fill:none;stroke-width:0.44790757"
     d="m 122.33157,594.27557 -0.34469,20.29001 c -16.34723,-4.57922 -31.54553,-34.92257 -33.54929,-37.31476 -1.71423,-2.0779 0.046,-25.21847 0.69396,-33.08478 4.93129,-1.13062 21.48074,1.21792 21.48074,1.21792 z"
     id="path107" />
  <path
     inkscape:connector-curvature="0"
     style="opacity:0.1;stroke-width:0.44790757"
     d="m 122.33157,594.27557 -0.34469,20.29001 c -16.34723,-4.57922 -31.54553,-34.92257 -33.54929,-37.31476 -1.71423,-2.0779 0.046,-25.21847 0.69396,-33.08478 4.93129,-1.13062 21.48074,1.21792 21.48074,1.21792 z"
     id="path109" />
  <path
     inkscape:connector-curvature="0"
     style="fill:#ffc1c7;stroke-width:0.44790757"
     d="m 309.95484,554.76067 c 0,0 -12.75333,6.22059 -14.36186,30.66639 0,0 -2.0681,12.44117 -3.21706,14.62383 -1.14895,2.18266 -6.6639,22.80881 -5.97453,25.31887 0,0 -1.14895,2.51006 -5.40005,1.41873 -4.25111,-1.09133 -27.23008,-4.47445 -32.40035,-7.74845 l -14.24696,-6.43885 c 0,0 -27.80455,-18.66175 -33.66419,-2.61919 -5.85963,16.04256 27.45987,15.39649 27.45987,15.39649 l 15.7406,6.98451 47.68135,14.9425 c 0,0 6.31922,2.72833 10.57032,-6.00232 a 107.85408,102.44538 0 0 1 9.65117,-15.71515 c 0,0 9.65117,-25.7554 9.53628,-30.12073 -0.1149,-4.36532 10.34053,-14.73296 10.34053,-14.73296 0,0 2.06811,-27.50152 -14.93633,-26.95586 z"
     id="path111" />
  <path
     inkscape:connector-curvature="0"
     style="opacity:0.02999998;stroke-width:0.44790757"
     d="m 309.95484,554.76067 c 0,0 -12.75333,6.22059 -14.36186,30.66639 0,0 -2.0681,12.44117 -3.21706,14.62383 -1.14895,2.18266 -6.6639,22.80881 -5.97453,25.31887 0,0 -1.14895,2.51006 -5.40005,1.41873 -4.25111,-1.09133 -27.23008,-4.47445 -32.40035,-7.74845 l -14.24696,-6.43885 c 0,0 -27.80455,-18.66175 -33.66419,-2.61919 -5.85963,16.04256 27.45987,15.39649 27.45987,15.39649 l 15.7406,6.98451 47.68135,14.9425 c 0,0 6.31922,2.72833 10.57032,-6.00232 a 107.85408,102.44538 0 0 1 9.65117,-15.71515 c 0,0 9.65117,-25.7554 9.53628,-30.12073 -0.1149,-4.36532 10.34053,-14.73296 10.34053,-14.73296 0,0 2.06811,-27.50152 -14.93633,-26.95586 z"
     id="path113" />
  <path
     inkscape:connector-curvature="0"
     style="fill:#ffc1c8;stroke-width:0.44790757"
     d="m 175.06829,575.9936 c 0.68938,0.76394 3.90643,2.33981 3.90643,2.33981 0,0 10.57033,11.94789 14.82144,15.00362 4.25111,3.05572 18.15338,14.73295 15.34075,19.15503 -2.81262,4.42207 -5.97453,3.4355 -5.97453,3.4355 l -24.87703,-16.36995 c 0,0 -8.73201,-5.94557 -10.51058,-8.78303 -1.77857,-2.83746 -3.96616,-8.77866 -3.96616,-8.77866 z"
     id="path115" />
  <path
     inkscape:connector-curvature="0"
     style="opacity:0.02999998;stroke-width:0.44790757"
     d="m 175.06829,575.9936 c 0.68938,0.76394 3.90643,2.33981 3.90643,2.33981 0,0 10.57033,11.94789 14.82144,15.00362 4.25111,3.05572 18.15338,14.73295 15.34075,19.15503 -2.81262,4.42207 -5.97453,3.4355 -5.97453,3.4355 l -24.87703,-16.36995 c 0,0 -8.73201,-5.94557 -10.51058,-8.78303 -1.77857,-2.83746 -3.96616,-8.77866 -3.96616,-8.77866 z"
     id="path117" />
  <polygon
     transform="matrix(0.45957935,0,0,0.4365322,-26.25044,418.81145)"
     style="fill:#dce6f2"
     points="397.05,335.44 407.68,313.32 446.55,365.44 411.55,379.07 "
     id="polygon119" />
  <polygon
     transform="matrix(0.45957935,0,0,0.4365322,-26.25044,418.81145)"
     style="opacity:0.02999998"
     points="397.05,335.44 407.68,313.32 446.55,365.44 411.55,379.07 "
     id="polygon121" />
  <path
     inkscape:connector-curvature="0"
     style="fill:#575988;stroke-width:0.44790757"
     d="m 165.76181,613.59212 3.21706,4.47446 2.75747,67.00769 c 0,0 0.2298,6.32971 -1.72342,8.18498 -1.95321,1.85526 -17.92359,0.6548 -17.92359,0.6548 0,0 0.57447,-68.3173 0.80427,-69.62689 0.22978,-1.3096 12.86821,-10.69504 12.86821,-10.69504 z"
     id="path123" />
  <path
     inkscape:connector-curvature="0"
     style="opacity:0.1;stroke-width:0.44790757"
     d="m 165.76181,613.59212 3.21706,4.47446 2.75747,67.00769 c 0,0 0.2298,6.32971 -1.72342,8.18498 -1.95321,1.85526 -17.92359,0.6548 -17.92359,0.6548 0,0 0.57447,-68.3173 0.80427,-69.62689 0.22978,-1.3096 12.86821,-10.69504 12.86821,-10.69504 z"
     id="path125" />
  <path
     inkscape:connector-curvature="0"
     style="fill:#ffc1c8;stroke-width:0.44790757"
     d="m 144.2489,698.29683 a 58.302236,55.378475 0 0 1 -3.67663,7.08928 c 0,0 -2.98726,16.19098 -4.2603,17.68392 -0.91916,1.09133 -1.34197,9.23702 -1.49363,13.48449 -0.0552,1.5366 -0.0781,2.56245 -0.0781,2.56245 l -17.56512,7.95361 -0.0781,-10.51169 c 0,0 0,-0.048 0,-0.13969 v 0 c -0.11031,-2.31799 -1.37874,-29.16473 1.28222,-30.72752 1.56257,-0.92108 3.05161,-4.80185 4.05809,-7.98417 0.7675,-2.45767 1.25006,-4.51374 1.25006,-4.51374 0,0 19.51373,-1.20483 21.14065,0.78139 0.59745,0.70718 0.18383,2.42712 -0.57908,4.32167 z"
     id="path127" />
  <path
     inkscape:connector-curvature="0"
     style="opacity:0.1;stroke-width:0.44790757"
     d="m 144.2489,698.29683 c -7.91395,-0.15716 -17.83168,-0.47583 -21.8392,-0.61114 0.76749,-2.45769 1.25005,-4.51375 1.25005,-4.51375 0,0 19.51374,-1.20483 21.14065,0.78139 0.62503,0.72901 0.21141,2.44895 -0.5515,4.3435 z"
     id="path129" />
  <path
     inkscape:connector-curvature="0"
     style="fill:#575988;stroke-width:0.44790757"
     d="m 121.18262,598.96829 c 0,0 -5.40006,27.28326 -4.366,44.85369 1.03405,17.57042 -0.80427,30.54852 1.49362,35.6865 2.29791,5.13798 2.29791,16.80649 2.29791,16.80649 0,0 31.25139,1.09133 34.46845,0.6548 3.21705,-0.43653 3.10215,-2.72833 3.10215,-2.72833 0,0 -2.183,-18.12481 -0.11489,-23.79973 2.06811,-5.67492 1.72342,-23.02707 1.72342,-23.02707 l 8.73201,-27.93807 c 0,0 2.64258,-12.5503 -2.87237,-17.67955 -5.51495,-5.12925 -44.4643,-2.82873 -44.4643,-2.82873 z"
     id="path131" />
  <path
     inkscape:connector-curvature="0"
     style="fill:#ffc1c7;stroke-width:0.44790757"
     d="m 306.62289,743.13307 -1.37874,1.92073 -8.5252,12.04829 -7.23837,2.07353 -5.40006,-5.02012 0.26196,-3.31328 1.34657,-17.20373 c 0,0 -33.41142,-18.6705 -36.39869,-22.16276 -2.98726,-3.49225 -14.47675,-6.65711 -14.47675,-6.65711 0,0 -17.5789,-7.74845 -24.12791,-21.28094 -6.54901,-13.53251 10.91501,-15.60604 10.91501,-15.60604 l 65.60495,59.59539 z"
     id="path133" />
  <polygon
     transform="matrix(0.45957935,0,0,0.4365322,-26.25044,418.81145)"
     style="opacity:0.1"
     points="721.35,747.34 702.8,774.94 687.05,779.69 675.3,768.19 675.87,760.6 688.8,771.69 713.05,743.44 "
     id="polygon135" />
  <path
     inkscape:connector-curvature="0"
     style="fill:#575988;stroke-width:0.44790757"
     d="m 314.66552,750.11758 -20.79596,18.44348 c 0,0 -11.94907,2.18267 -22.63428,0.6548 -6.82935,-0.97783 -5.51495,-4.53557 -3.718,-6.98451 l 0.0321,-0.0437 a 7.5554845,7.1765894 0 0 1 4.43035,-2.76761 c 8.84231,-2.02551 11.89392,-8.1064 11.89392,-8.1064 l 6.4341,5.23838 11.14481,-12.3364 8.24025,3.67561 z"
     id="path137" />
  <path
     inkscape:connector-curvature="0"
     style="fill:#ffffff;stroke-width:0.44790757"
     d="m 314.66552,750.32711 -20.79596,18.45222 c 0,0 -11.94907,2.18266 -22.63428,0.6548 -6.82935,-0.97783 -5.97453,-4.53557 -4.17758,-6.98452 a 14.24696,13.532499 0 0 0 7.16484,2.8331 c 5.85964,0.54566 14.70654,0 14.70654,0 l 20.7638,-17.16881 z"
     id="path139" />
  <path
     inkscape:connector-curvature="0"
     style="fill:#ffc1c8;stroke-width:0.44790757"
     d="m 142.97587,529.26719 c -1.69125,0.80323 -2.46794,3.28273 -2.78046,6.11145 -0.52851,4.82805 0.32631,10.64266 0.32631,10.64266 0,0 -22.97897,-5.96739 -20.52482,-7.13294 1.41091,-0.66789 2.16003,-5.53086 2.54148,-9.53386 0.28494,-2.95969 0.36766,-5.45229 0.36766,-5.45229 0,0 24.66563,3.18233 20.06983,5.36498 z"
     id="path141" />
  <path
     inkscape:connector-curvature="0"
     style="fill:#ffc1c7;stroke-width:0.44790757"
     d="m 325.88846,555.7516 c 0,0 -27.88268,25.02639 -26.96353,17.75377 0.12869,-1.01276 -0.23898,-2.41402 -0.96512,-4.06848 -2.57823,-5.90192 -9.70631,-15.06473 -15.28101,-21.7655 -4.09026,-4.91535 -7.35327,-8.50801 -7.35327,-8.50801 0,0 34.62931,-27.64558 31.87183,-11.93043 a 19.849232,18.853826 0 0 0 1.51202,10.55535 c 3.45144,7.71789 11.09884,13.79006 14.91795,16.47036 1.37873,0.96474 2.26113,1.49294 2.26113,1.49294 z"
     id="path143" />
  <path
     inkscape:connector-curvature="0"
     style="opacity:0.1;stroke-width:0.44790757"
     d="m 303.36906,532.03044 c -0.50093,0.58932 -2.35764,2.65848 -2.90913,3.20415 -5.23921,5.18164 -5.93777,12.65943 -14.0953,12.65943 a 28.650177,27.213417 0 0 1 -3.67663,-0.22263 c -4.09026,-4.91535 -7.35328,-8.50801 -7.35328,-8.50801 0,0 34.62012,-27.64558 31.86264,-11.93043 -0.6526,3.72799 -5.28516,1.53223 -3.8283,4.79749 z"
     id="path145" />
  <path
     inkscape:connector-curvature="0"
     style="fill:#ffc1c7;stroke-width:0.44790757"
     d="m 315.16187,519.66349 a 28.801838,27.357473 0 1 1 -28.79724,-27.35311 28.686943,27.24834 0 0 1 28.79724,27.35311 z"
     id="path147" />
  <path
     inkscape:connector-curvature="0"
     style="opacity:0.1;stroke-width:0.44790757"
     d="m 325.88846,555.7516 c 0,0 -27.88268,25.02639 -26.96353,17.75377 0.12869,-1.01276 -0.23898,-2.41402 -0.96512,-4.06848 l 4.03052,-9.02749 a 27.266843,25.899456 0 0 1 17.83627,-6.41702 25.94785,24.646608 0 0 1 3.57093,0.23136 l 0.2298,0.035 c 1.37873,0.96474 2.26113,1.49294 2.26113,1.49294 z"
     id="path149" />
  <path
     inkscape:connector-curvature="0"
     style="fill:#ff6584;stroke-width:0.44790757"
     d="m 358.67025,739.09514 c 0,0 -19.76191,29.9723 -19.76191,32.30339 0,0 -22.36773,-8.29412 -30.33224,-10.04025 -7.96452,-1.74612 -15.47404,-17.60534 -15.47404,-17.60534 0,0 -21.14065,-18.91932 -29.41308,-21.53852 -7.01777,-2.22194 -40.7417,-47.40739 -50.78811,-61.04029 a 10.110745,9.6037083 0 0 1 0.23898,-11.32801 l 0.18843,-0.23136 a 23.479909,22.30243 0 0 1 22.7216,-8.04093 23.723486,22.533792 0 0 1 2.75747,0.64607 c 14.46757,4.24746 39.52383,11.54628 52.16226,14.84209 4.22814,1.10443 7.05454,1.74614 7.62902,1.70685 1.37874,-0.13533 2.13705,-1.3096 2.55526,-2.59737 a 12.996904,12.345131 0 0 0 0.51014,-3.22161 c 0,0 0,-0.0698 0,-0.19643 a 58.297641,55.37411 0 0 0 -1.81994,-8.20681 c -1.47525,-4.80186 -4.03051,-10.43749 -8.27243,-13.13089 -3.52038,-2.23068 -6.31922,-7.1504 -7.78527,-12.86897 -1.9716,-7.72226 -1.51661,-16.91126 2.88156,-22.92667 l 4.25111,-9.52514 7.10969,-15.93342 3.96158,-8.87907 a 27.266843,25.899456 0 0 1 17.83627,-6.41702 25.94785,24.646608 0 0 1 3.57093,0.23136 c 3.04701,0.40161 5.68041,1.27031 6.7788,2.98152 3.36871,5.23839 11.0299,14.84209 12.5603,24.4458 1.5304,9.60371 -0.30332,25.31887 4.90372,31.14221 5.20702,5.82334 8.27242,19.788 13.78737,22.69967 5.51495,2.91167 -8.88366,9.01876 -8.88366,9.01876 l 0.0552,0.92108 0.24817,4.02919 c 0,0 0.10111,0.10914 0.28494,0.32741 3.20787,3.77164 32.19354,39.98198 5.53794,88.4327 z"
     id="path151" />
  <path
     inkscape:connector-curvature="0"
     style="fill:#575988;stroke-width:0.44790757"
     d="m 353.1553,650.66244 c -6.03888,1.20046 -19.24719,3.81529 -25.13899,4.96336 l -1.03406,0.20081 c -0.34469,0.0655 -0.73073,0.1266 -1.14895,0.18334 -5.91938,0.77267 -18.76003,0.39288 -24.63804,0.16588 a 12.996904,12.345131 0 0 0 0.51013,-3.2216 c 0,0 0,-0.0698 0,-0.19644 4.47171,-0.27502 15.0696,-1.07823 24.15089,-2.85056 0.73993,-0.14405 1.47066,-0.29684 2.183,-0.43653 1.02946,-0.22699 2.03135,-0.46709 2.98727,-0.72027 8.14375,-2.18267 16.74248,-2.47078 21.60023,-2.42713 l 0.24817,4.02919 c 0,0 0.0735,0.0917 0.28035,0.30995 z"
     id="path153" />
  <path
     inkscape:connector-curvature="0"
     style="fill:#ff6584;stroke-width:0.44790757"
     d="m 327.99333,649.45324 v 6.17256 l -1.03406,0.20081 c -0.34468,0.0655 -0.73073,0.1266 -1.14894,0.18334 v -6.08525 c 0.73992,-0.16152 1.47065,-0.31431 2.183,-0.47146 z"
     id="path155" />
  <path
     inkscape:connector-curvature="0"
     style="opacity:0.1;stroke-width:0.44790757"
     d="m 333.62317,661.27453 c 0,0 -12.29374,26.7376 -19.76191,29.35679 -7.46816,2.6192 -26.08113,11.89551 -26.08113,11.89551 0,0 10.68523,8.9489 21.83002,-0.87307 11.1448,-9.82197 27.23008,-36.01391 24.01302,-40.37923 z"
     id="path157" />
  <path
     inkscape:connector-curvature="0"
     style="opacity:0.1;stroke-width:0.44790757"
     d="m 347.06587,657.68187 c 0,0 1.14895,10.14937 -0.45958,12.00463 -1.60853,1.85527 0.45958,-12.00463 0.45958,-12.00463 z"
     id="path159" />
  <path
     inkscape:connector-curvature="0"
     style="opacity:0.1;stroke-width:0.44790757"
     d="m 353.72977,664.33026 c 0,0 6.20432,61.7693 -24.58749,62.09671 0,0.009 28.8386,-27.17414 24.58749,-62.09671 z"
     id="path161" />
  <path
     inkscape:connector-curvature="0"
     style="opacity:0.1;stroke-width:0.44790757"
     d="m 361.54262,679.17235 c 0,0 8.8469,32.41252 -2.75748,36.12304 0,0.009 6.08943,-16.79775 2.75748,-36.12304 z"
     id="path163" />
  <path
     inkscape:connector-curvature="0"
     style="opacity:0.1;stroke-width:0.44790757"
     d="m 306.50799,670.87824 c -0.57448,0 -23.89812,3.81966 -18.84275,6.87538 5.05537,3.05573 18.84275,-6.87538 18.84275,-6.87538 z"
     id="path165" />
  <path
     inkscape:connector-curvature="0"
     style="opacity:0.1;stroke-width:0.44790757"
     d="m 322.59327,627.12462 c 0,0 19.07254,16.04256 15.39591,17.78868"
     id="path167" />
  <path
     inkscape:connector-curvature="0"
     style="opacity:0.1;stroke-width:0.44790757"
     d="m 320.98474,632.25387 c 0,0 11.0299,12.8777 9.76606,13.64164"
     id="path169" />
  <path
     inkscape:connector-curvature="0"
     style="opacity:0.1;stroke-width:0.44790757"
     d="m 344.53818,630.28075 c 0,0 5.05537,6.00231 4.25111,7.31191"
     id="path171" />
  <path
     inkscape:connector-curvature="0"
     style="opacity:0.1;stroke-width:0.44790757"
     d="m 349.59355,627.12462 c 0,0 7.23838,5.33878 5.62986,7.42105"
     id="path173" />
  <path
     inkscape:connector-curvature="0"
     style="fill:#ffc1c7;stroke-width:0.44790757"
     d="m 309.38037,562.08132 c 0,0 23.55344,1.74613 22.51938,19.75308 -1.03405,18.00695 -18.61296,22.59054 -18.61296,22.59054 l -22.86407,-6.22058 c 0,0 10.22564,-34.92258 18.95765,-36.12304 z"
     id="path175" />
  <path
     inkscape:connector-curvature="0"
     style="opacity:0.1;stroke-width:0.44790757"
     d="m 238.82574,642.2199 c 14.46756,4.24746 39.52382,11.54628 52.16226,14.84209 a 6.6822838,6.3471782 0 0 1 -5.39087,0.28375 l -47.68135,-14.94249 -1.8659,-0.82942 a 23.723486,22.533792 0 0 1 2.77586,0.64607 z"
     id="path177" />
  <path
     inkscape:connector-curvature="0"
     style="opacity:0.1;stroke-width:0.44790757"
     d="m 319.51408,597.71108 c -2.23814,2.83745 -4.20974,5.89318 -4.13621,7.80519 0.0368,1.37508 -0.91916,4.88044 -2.19678,9.03185 a 158.95471,150.98339 0 0 1 -13.32781,29.9985 c -1.47525,-4.80186 -4.03051,-10.43749 -8.27243,-13.13089 -3.52037,-2.23068 -6.31921,-7.1504 -7.78527,-12.86897 1.11677,-4.13833 2.1784,-7.61749 2.61501,-8.4469 1.14895,-2.18266 3.21706,-14.62383 3.21706,-14.62383 a 68.826604,65.375063 0 0 1 1.3006,-9.38108 c 1.66828,-7.5651 4.50388,-12.65943 7.10969,-15.93342 3.14353,-3.98118 5.97453,-5.35188 5.97453,-5.35188 l 6.7788,-0.9822 c 7.81285,-0.24882 11.5814,5.39554 13.39674,11.5812 2.22437,7.68733 0.36307,15.9116 -4.67393,22.30243 z"
     id="path179" />
  <path
     inkscape:connector-curvature="0"
     style="fill:#ffc1c7;stroke-width:0.44790757"
     d="m 302.60157,563.05479 c 0,0 -12.75333,6.22058 -14.36186,30.66638 0,0 -2.06811,12.44117 -3.21705,14.62383 -1.14895,2.18267 -6.6639,22.80881 -5.97453,25.31887 0,0 -1.14895,2.51006 -5.40006,1.41873 -4.25111,-1.09133 -27.23008,-4.47446 -32.40034,-7.74845 l -14.24696,-6.43885 c 0,0 -27.80455,-18.66175 -33.66419,-2.61919 -5.85964,16.04256 27.45986,15.39649 27.45986,15.39649 l 15.74059,6.98451 47.68136,14.9425 c 0,0 6.31922,2.72833 10.57033,-6.00232 1.06163,-2.18265 2.19679,-4.25618 3.30437,-6.142 a 159.77276,151.76042 0 0 0 13.70006,-30.63583 c 1.30061,-4.15142 2.23356,-7.65678 2.19679,-9.03185 -0.0505,-1.91201 1.92564,-4.9721 4.13622,-7.8052 5.05537,-6.39083 6.89369,-14.61509 4.64175,-22.3068 -1.81534,-6.18566 -5.60227,-11.83002 -13.39674,-11.57683 z"
     id="path181" />
  <path
     inkscape:connector-curvature="0"
     style="opacity:0.1;stroke-width:0.44790757"
     d="m 142.97587,529.26719 c -1.69125,0.80323 -2.46794,3.28273 -2.78046,6.11145 -0.29872,0 -0.59745,0 -0.89617,0 a 25.138991,23.878312 0 0 1 -16.76086,-6.0416 c 0.28494,-2.95969 0.36766,-5.45229 0.36766,-5.45229 0,0 24.66563,3.19979 20.06983,5.38244 z"
     id="path183" />
  <path
     inkscape:connector-curvature="0"
     style="fill:#ffc1c8;stroke-width:0.44790757"
     d="m 164.5761,510.49631 a 25.276864,24.009271 0 1 1 -25.27686,-24.00927 25.332014,24.061655 0 0 1 25.27686,24.00927 z"
     id="path185" />
  <path
     inkscape:connector-curvature="0"
     style="opacity:0.1;stroke-width:0.44790757"
     d="m 173.11509,604.52535 c 0,0 -13.21291,5.02012 -17.34913,6.76624 -4.13621,1.74614 -27.80455,-2.29179 -27.80455,-2.29179 0,0 -12.29374,-5.89318 -11.25969,-11.78637 1.03405,-5.89318 -9.88096,-25.201 -9.88096,-25.201 0,0 -0.34468,-17.13389 4.4809,-20.40788 4.82558,-3.27399 2.98727,-10.14938 2.98727,-10.14938 0,0 0.0229,-0.22699 0.0965,-0.59805 0.29873,-1.45801 1.37874,-5.16854 4.95886,-6.38646 a 4.7520505,4.513743 0 0 1 2.21977,-0.0568 c 3.43306,0.49328 9.07209,2.9204 13.73683,5.15981 3.86046,1.85526 7.05454,3.57956 7.78527,3.98117 l 0.15626,0.083 c 0,0 1.72342,3.81965 3.79153,2.61919 2.06811,-1.20046 12.40864,4.36532 14.36185,6.87538 1.95321,2.51006 0.57447,14.29643 0.22979,17.24302 -0.34468,2.9466 1.95321,11.67723 4.4809,16.68863 2.52769,5.01139 7.00859,17.46129 7.00859,17.46129 z"
     id="path187" />
  <path
     inkscape:connector-curvature="0"
     style="fill:#dce6f2;stroke-width:0.44790757"
     d="m 173.11509,603.21575 c 0,0 -13.21291,5.02012 -17.34913,6.76625 -4.13621,1.74613 -27.80455,-2.29179 -27.80455,-2.29179 0,0 -12.29374,-5.89319 -11.25969,-11.78637 1.03405,-5.89319 -9.88096,-25.20101 -9.88096,-25.20101 0,0 -0.34468,-17.13389 4.4809,-20.40788 4.82558,-3.27399 2.98727,-10.14937 2.98727,-10.14937 0,0 0.0229,-0.227 0.0965,-0.59805 0.29873,-1.45802 1.37874,-5.16855 4.95886,-6.38647 a 4.7520505,4.513743 0 0 1 2.21977,-0.0568 c 3.43306,0.49328 9.07209,2.9204 13.73683,5.15981 3.86046,1.85526 7.05454,3.57956 7.78527,3.98118 l 0.15626,0.0829 c 0,0 1.72342,3.81965 3.79153,2.61919 2.06811,-1.20046 12.40864,4.36532 14.36185,6.87538 1.95321,2.51007 0.57447,14.29644 0.22979,17.24302 -0.34468,2.9466 1.95321,11.67724 4.4809,16.68863 2.52769,5.01139 7.00859,17.46129 7.00859,17.46129 z"
     id="path189" />
  <path
     inkscape:connector-curvature="0"
     style="fill:#575988;stroke-width:0.44790757"
     d="m 130.33744,586.45291 c 0,0 -11.33782,17.46129 -13.17614,18.40857 l 0.68937,6.11145 c 0,0 16.1634,-3.20415 17.16069,-7.49526 0.99729,-4.29112 0.45958,-17.24302 0.45958,-17.24302 z"
     id="path191" />
  <path
     inkscape:connector-curvature="0"
     style="opacity:0.2;stroke-width:0.44790757"
     d="m 130.33744,586.45291 c 0,0 -11.33782,17.46129 -13.17614,18.40857 l 0.68937,6.11145 c 0,0 16.1634,-3.20415 17.16069,-7.49526 0.99729,-4.29112 0.45958,-17.24302 0.45958,-17.24302 z"
     id="path193" />
  <path
     inkscape:connector-curvature="0"
     style="opacity:0.1;stroke-width:0.44790757"
     d="m 146.28944,564.20723 c 0,0 2.00836,7.36866 5.17026,9.87873 3.16191,2.51006 -5.17026,-9.87873 -5.17026,-9.87873 z"
     id="path195" />
  <path
     inkscape:connector-curvature="0"
     style="fill:#ffc1c8;stroke-width:0.44790757"
     d="m 126.58268,583.63291 c 0.28953,0.49328 9.99585,13.04358 20.22149,17.67956 10.22563,4.63597 33.03456,10.09699 33.03456,10.09699 0,0 18.49807,3.27399 21.65538,4.52684 3.15731,1.25284 7.18322,-4.36532 -12.63843,-12.38442 -19.82166,-8.0191 -23.66834,-11.56811 -23.66834,-11.56811 0,0 -17.23422,-7.97544 -19.9917,-11.90423 -2.75747,-3.92879 -18.61296,3.55337 -18.61296,3.55337 z"
     id="path197" />
  <path
     inkscape:connector-curvature="0"
     style="opacity:0.1;stroke-width:0.44790757"
     d="m 133.82105,644.68631 c 0.34468,-0.21827 8.61712,-8.62151 9.65117,-5.02012 1.03405,3.60139 -9.65117,5.02012 -9.65117,5.02012 z"
     id="path199" />
  <path
     inkscape:connector-curvature="0"
     style="opacity:0.1;stroke-width:0.44790757"
     d="m 138.64664,628.09809 c -0.1149,0.32739 -1.26385,9.6037 -4.5958,10.69504"
     id="path201" />
  <path
     inkscape:connector-curvature="0"
     style="opacity:0.1;stroke-width:0.44790757"
     d="m 142.09348,630.61688 c 0,0 -2.98727,9.93111 -6.7788,10.57717"
     id="path203" />
  <path
     inkscape:connector-curvature="0"
     style="opacity:0.1;stroke-width:0.44790757"
     d="m 126.92736,660.40147 c 0,0 5.05537,0.10913 5.74474,-2.9466"
     id="path205" />
  <path
     inkscape:connector-curvature="0"
     style="opacity:0.1;stroke-width:0.44790757"
     d="m 133.82105,680.27241 c 0.68937,0.10914 11.48949,6.65712 8.73201,7.96671 -2.75748,1.3096 -8.73201,-7.96671 -8.73201,-7.96671 z"
     id="path207" />
  <path
     inkscape:connector-curvature="0"
     style="opacity:0.1;stroke-width:0.44790757"
     d="m 134.79996,735.54613 v 1.00839 c -0.0552,1.5366 -0.0781,2.56245 -0.0781,2.56245 l -17.56512,7.95361 -0.0781,-10.51169 c 0,0 0,-0.048 0,-0.13969 v 0 -0.71155 l 7.03156,0.2139 z"
     id="path209" />
  <polygon
     transform="matrix(0.45957935,0,0,0.4365322,-26.25044,418.81145)"
     style="fill:#ff748f"
     points="350.43,744.97 357.58,760.58 325.7,772.78 311.39,764.32 311.54,752.74 311.87,727.88 327.17,728.37 350.43,727.56 "
     id="polygon211" />
  <path
     inkscape:connector-curvature="0"
     style="opacity:0.1;stroke-width:0.44790757"
     d="m 138.07216,750.83349 -14.65139,5.32569 -6.57658,-3.69306 0.0689,-5.05504 a 10.648454,10.114451 0 0 0 8.07941,3.97244 c 0,0 5.15647,-6.11145 8.2954,-7.88377 a 1.9164459,1.8203393 0 0 1 1.49824,-0.19207 v 0.71155 z"
     id="path213" />
  <path
     inkscape:connector-curvature="0"
     style="fill:#5d618c;stroke-width:0.44790757"
     d="m 125.00632,752.25222 c 0,0 -5.97454,0.0742 -8.97099,-5.32569 0,0 -4.2603,3.90696 -4.33843,12.14432 -0.0781,8.23737 0.0781,8.52111 0.0781,8.52111 0,0 17.19286,-0.63734 20.40992,0.49765 3.21705,1.13499 30.20355,-0.99529 30.20355,-0.99529 0,0 1.79236,-4.47446 -6.35599,-6.03724 -8.14833,-1.56279 -14.87658,-9.80015 -15.10177,-10.15374 -0.22519,-0.35359 -4.48549,-8.29411 -7.62442,-6.54799 -3.13893,1.74613 -8.3,7.89687 -8.3,7.89687 z"
     id="path215" />
  <path
     inkscape:connector-curvature="0"
     style="opacity:0.1;stroke-width:0.44790757"
     d="m 140.85262,483.97261 -1.71424,-0.22263 1.07082,-0.0262 z"
     id="path217" />
  <path
     inkscape:connector-curvature="0"
     style="opacity:0.1;stroke-width:0.44790757"
     d="m 164.5761,510.49631 a 25.332014,24.061655 0 0 1 -0.67558,5.53086 4.0442983,3.8414834 0 0 1 -1.0892,-0.43653 c -0.49175,-0.30121 -0.98351,-0.71591 -1.56257,-0.66789 a 1.8612964,1.7679554 0 0 0 -0.91916,0.4016 c -2.72071,1.89019 -4.74286,4.9983 -8.05183,5.60072 a 5.3127373,5.0463123 0 0 0 0.12868,-2.85492 6.2181086,5.9062807 0 0 1 -5.44601,1.65881 2.6241981,2.4925989 0 0 0 0.0781,-1.71557 52.745922,50.100801 0 0 1 -7.25676,3.19979 c -0.0873,-0.43654 -0.17004,-0.83814 -0.25737,-1.25722 -3.52037,1.63263 -3.24463,7.17223 -6.765,8.80486 -2.09568,0.97346 -5.05538,0.27501 -6.50305,2.02987 -0.0551,0.0698 -0.10571,0.13969 -0.15626,0.2139 a 25.276864,24.009271 0 1 1 38.46679,-20.48645 z"
     id="path219" />
  <path
     inkscape:connector-curvature="0"
     style="fill:#794f6a;stroke-width:0.44790757"
     d="m 140.85262,483.09518 c -2.12327,-0.83377 -4.27869,-1.67191 -6.5628,-1.92074 -2.28411,-0.24882 -4.74745,0.17461 -6.47088,1.61953 -1.37874,1.15245 -2.45875,3.00335 -4.29706,3.05573 -0.89619,0.0306 -1.72342,-0.39724 -2.52769,-0.76829 -2.29789,-1.04768 -5.17026,-1.64136 -7.24297,-0.25319 -1.65448,1.11315 -2.27492,3.15612 -2.54607,5.06377 -0.27115,1.90764 -0.33549,3.92879 -1.29141,5.60944 -0.59287,1.04767 -1.49364,1.90328 -2.23816,2.85928 a 13.006095,12.353861 0 0 0 -2.50011,8.44254 25.800785,24.506918 0 0 0 1.00188,4.38714 l 1.87509,6.29043 c 0.95132,3.19542 1.92104,6.43449 3.73178,9.27631 1.81074,2.84183 4.59579,5.28641 7.99668,6.01978 2.04972,0.43654 4.53145,0.0786 5.6804,-1.59334 0.29413,-0.43653 0.48256,-0.90362 0.80427,-1.3096 1.42469,-1.74612 4.40737,-1.05204 6.50304,-2.02551 3.52038,-1.63262 3.24463,-7.17222 6.76501,-8.80485 l 0.26196,1.25285 a 53.472057,50.790522 0 0 0 7.25216,-3.19542 2.6517728,2.5187908 0 0 1 -0.0735,1.71557 6.2364918,5.923742 0 0 0 5.44142,-1.65882 5.3127373,5.0463123 0 0 1 -0.12869,2.85492 c 3.30897,-0.60678 5.33113,-3.71489 8.05183,-5.60508 a 1.8980627,1.802878 0 0 1 0.91916,-0.39723 c 0.58367,-0.0481 1.07082,0.36668 1.56257,0.66352 a 4.4027702,4.1819785 0 0 0 5.44142,-0.65916 c 1.44768,-1.49294 1.51202,-3.7891 1.04784,-5.77096 -0.46417,-1.98186 -1.37873,-3.87203 -1.57635,-5.89318 -0.28954,-2.75452 0.72154,-5.63126 -0.20681,-8.25046 -0.78589,-2.22195 -2.84481,-3.83275 -5.05538,-4.88916 -2.21057,-1.05641 -4.59579,-1.67192 -6.85232,-2.6192 -2.14165,-0.91235 -4.13622,-2.13463 -6.36059,-2.85492 -3.21705,-1.04331 -6.71445,-0.96036 -10.11074,-0.87306"
     id="path221" />
  <path
     inkscape:connector-curvature="0"
     style="fill:#6c63ff;stroke-width:0.44790757"
     d="m 141.28921,564.40804 c 0,0 3.67664,-23.49853 -27.80454,-22.33735 l -15.8555,2.00368 c 0,0 15.12476,2.58426 18.76463,2.96405 l 0.38605,0.0524 c 3.36872,0.58496 15.01446,-0.14406 24.50936,17.31724 z"
     id="path223" />
  <path
     inkscape:connector-curvature="0"
     style="opacity:0.1;stroke-width:0.44790757"
     d="m 121.18262,658.1184 v -0.27065 c 12.90958,-10.60336 0,0.27065 0,0.27065 z"
     id="path225" />
  <path
     inkscape:connector-curvature="0"
     style="fill:#575988;stroke-width:0.44790757"
     d="m 93.41024,658.94345 a 31.177863,29.614345 0 0 1 -5.56091,0 L 49.17572,605.47698 c 0.71236,-1.77231 2.41739,-2.82873 4.04889,-3.45296 z"
     id="path227" />
  <path
     inkscape:connector-curvature="0"
     style="fill:#575988;stroke-width:0.44790757"
     d="m 68.33099,601.69662 -1.83832,2.07352 c 0,0 -13.94364,-22.00122 -16.94009,-33.17644 0.56988,-1.27031 1.42929,-1.54096 1.42929,-1.54096 0,0 1.45227,-1.01712 3.79153,-2.61919 0.8686,5.25584 3.83289,18.10735 13.55759,35.26307 z"
     id="path229" />
  <path
     inkscape:connector-curvature="0"
     style="fill:#575988;stroke-width:0.44790757"
     d="M 78.55663,594.92164 74.88,596.88603 C 64.84278,585.72827 63.98796,566.98358 64.07988,559.51451 l 2.64718,-1.80724 c 0.35847,9.80887 11.82957,37.21437 11.82957,37.21437 z"
     id="path231" />
  <path
     inkscape:connector-curvature="0"
     style="opacity:0.1;stroke-width:0.44790757"
     d="m 88.20779,592.96597 c -0.11489,1.41873 -4.366,15.8243 1.83833,18.22522 6.20432,2.40093 -1.83833,-18.22522 -1.83833,-18.22522 z"
     id="path233" />
  <path
     inkscape:connector-curvature="0"
     style="opacity:0.1;stroke-width:0.44790757"
     d="m 101.5356,617.73917 c 0.22979,0.76394 2.2979,25.64627 6.7788,23.68187 4.48089,-1.96439 2.0681,-30.33898 2.0681,-30.33898 z"
     id="path235" />
  <path
     inkscape:connector-curvature="0"
     style="opacity:0.1;stroke-width:0.44790757"
     d="m 315.16187,519.66349 a 28.686943,27.24834 0 0 1 -8.03345,18.9455 16.783838,15.942156 0 0 1 -6.38815,0.10476 6.3605782,6.0416057 0 0 1 -2.98727,-1.13935 7.7714868,7.3817595 0 0 1 -1.93483,-2.65848 c -1.67746,-3.42678 -2.53687,-7.38612 -4.88992,-10.31962 -2.35305,-2.93349 -7.12808,-4.22126 -9.3984,-1.21356 -1.23626,1.63263 -1.44307,4.14269 -3.09296,5.27331 -1.9808,1.36198 -4.5958,-0.24009 -6.13539,-2.18266 -4.54984,-5.67492 -2.99186,-16.83269 -11.66872,-18.39984 l -0.34928,-0.0568 a 28.801838,27.357473 0 0 1 54.87837,11.64669 z"
     id="path237" />
  <path
     inkscape:connector-curvature="0"
     style="fill:#945b79;stroke-width:0.44790757"
     d="m 261.09236,507.66758 c -1.40631,-0.25755 -3.03782,-0.22263 -3.97996,-1.37508 -0.55608,-0.68099 -0.71694,-1.6239 -0.85022,-2.51879 -0.56529,-3.86767 -0.8732,-8.0191 0.74912,-11.52445 2.66096,-5.74912 9.50869,-7.66987 15.46024,-7.24206 5.95156,0.42779 11.79281,2.53625 17.74437,2.18265 4.37519,-0.27064 8.69064,-1.87708 13.05204,-1.41872 3.45145,0.36669 6.6685,1.99494 9.77067,3.65814 2.90454,1.55405 5.87341,3.22597 7.93233,5.92374 3.02404,3.95061 3.59391,9.40727 3.67664,14.52779 0.10111,6.01105 -0.34469,12.25346 -3.00106,17.54423 -3.85127,7.6786 -12.44081,12.24909 -20.44668,10.87402 a 6.3605782,6.0416057 0 0 1 -2.98727,-1.13935 7.812849,7.4210474 0 0 1 -1.93023,-2.65848 c -1.68206,-3.43115 -2.54147,-7.38613 -4.89452,-10.32399 -2.35305,-2.93786 -7.12808,-4.2169 -9.3984,-1.20919 -1.23626,1.62826 -1.44308,4.14269 -3.09296,5.2733 -1.98079,1.35762 -4.5958,-0.24445 -6.13539,-2.18266 -4.54984,-5.67928 -2.99186,-16.82832 -11.66872,-18.3911 z"
     id="path239" />
  <path
     inkscape:connector-curvature="0"
     style="fill:#945b79;stroke-width:0.44790757"
     d="m 331.03114,494.97759 c 4.37979,1.98622 7.41762,5.8539 10.27161,9.57752 2.37602,3.09501 4.83477,6.40392 5.14728,10.21921 0.12409,1.56279 -0.11949,3.15177 0.19303,4.68836 1.09839,5.42609 8.27242,7.85758 10.36811,13.02612 0.9743,2.43585 0.66639,5.14672 0.23898,7.72226 a 109.69699,104.19587 0 0 1 -2.47714,11.05735 c -0.62043,2.18267 -1.32359,4.45264 -0.85022,6.67022 0.36307,1.71993 1.37874,3.23034 2.1876,4.80186 2.10947,4.23872 2.47254,9.04494 2.63339,13.72893 0.16085,4.68399 0.15625,9.45092 1.63151,13.92101 1.47525,4.4701 4.72907,8.69572 9.42138,10.14065 a 11.071267,10.516061 0 0 1 -5.30355,1.78978 c -0.28034,1.46238 0.59745,2.95095 1.83832,3.87641 1.24086,0.92545 2.75747,1.40563 4.23732,1.86399 a 7.9966807,7.5956605 0 0 1 -7.04076,1.03021 c -1.9624,-0.61114 -3.58471,-1.92074 -5.15189,-3.20414 l -8.81013,-7.19842 a 24.872435,23.625123 0 0 1 -3.24923,-3.00334 c -5.69878,-6.72696 -2.29789,-16.91999 -5.47818,-25.0002 -2.59203,-6.56981 -9.55926,-11.90423 -8.92044,-18.89312 0.17464,-1.95566 0.96512,-3.80655 1.62691,-5.67491 a 50.861647,48.311019 0 0 0 -5.35409,-40.95546 c -1.00648,-1.4842 -2.17381,-2.97714 -3.85128,-3.74108 -2.55067,-1.15681 -6.19513,-0.65916 -7.6428,-2.96841 -0.7675,-1.21793 -0.91917,-3.3613 -0.9881,-4.72765 4.67852,-1.01712 10.94718,-0.73337 15.32237,1.25285 z"
     id="path241" />
  <path
     inkscape:connector-curvature="0"
     style="opacity:0.1;stroke-width:0.44790757"
     d="m 107.2206,568.88686 c 2.15083,-13.42773 19.82165,-18.2776 29.20167,-8.01473 2.71151,2.97714 5.11512,6.23804 6.47547,9.49893 4.5958,11.02245 4.94048,12.00464 4.94048,12.00464 0,0 -28.37903,5.23839 -28.14923,9.16718 l -12.86823,-19.53482 c 0,0 0.0965,-1.22228 0.39984,-3.1212 z"
     id="path243" />
  <path
     inkscape:connector-curvature="0"
     style="fill:#dce6f2;stroke-width:0.44790757"
     d="m 107.2206,567.57726 c 2.15083,-13.42773 19.82165,-18.2776 29.20167,-8.01473 2.71151,2.97715 5.11512,6.23805 6.47547,9.49894 4.5958,11.02244 4.94048,12.00463 4.94048,12.00463 0,0 -28.37903,5.23839 -28.14923,9.16718 l -12.86823,-19.53481 c 0,0 0.0965,-1.2223 0.39984,-3.12121 z"
     id="path245" />
  <path
     inkscape:connector-curvature="0"
     style="opacity:0.1;stroke-width:0.44790757"
     d="m 115.20809,550.34734 c 0.34468,0.54566 13.90227,16.26082 21.02575,18.50022 7.12348,2.23942 -21.02575,-18.50022 -21.02575,-18.50022 z"
     id="path247" />
  <path
     inkscape:connector-curvature="0"
     style="opacity:0.1;stroke-width:0.44790757"
     d="m 56.9564,601.15095 c 0,0 35.8472,40.16096 40.44299,56.42179"
     id="path249" />
  <path
     inkscape:connector-curvature="0"
     style="opacity:0.1;fill:none;stroke:#000000;stroke-width:0.89581513;stroke-miterlimit:10"
     d="m 58.33514,564.04572 c 0,0 7.81285,38.41482 22.97897,54.56652 15.16611,16.15169 30.79182,43.65322 30.79182,43.65322"
     stroke-miterlimit="10"
     id="path251" />
  <g
     transform="matrix(0.45957935,0,0,0.4365322,-26.25044,418.81145)"
     id="g259"
     style="opacity:0.1">
    <path
       d="m 476.51,244.24 a 11.92,11.92 0 0 1 -2.84,8 9.58,9.58 0 0 1 -11.84,1.51 c -1.07,-0.68 -2.13,-1.63 -3.4,-1.52 a 4.13,4.13 0 0 0 -2,0.91 c -5.63,4.12 -9.89,10.76 -16.5,12.59 a 11.55,11.55 0 0 1 -0.52,5.25 c 7.2,-1.39 11.6,-8.51 17.52,-12.84 a 4.13,4.13 0 0 1 2,-0.91 c 1.27,-0.11 2.33,0.84 3.4,1.52 a 9.58,9.58 0 0 0 11.84,-1.51 c 3.09,-3.4 3.28,-8.52 2.34,-13 z"
       transform="translate(-51.45,-39.57)"
       id="path253"
       inkscape:connector-curvature="0" />
    <path
       d="m 472.52,225.48 c 0.08,0.82 0.22,1.63 0.38,2.44 0,-5 1.19,-10.2 0,-15 0.02,4.08 -0.8,8.4 -0.38,12.56 z"
       transform="translate(-51.45,-39.57)"
       id="path255"
       inkscape:connector-curvature="0" />
    <path
       d="m 439.21,259.4 a 13.57,13.57 0 0 1 -11.84,3.8 5.77,5.77 0 0 0 0.16,-3.93 116.35,116.35 0 0 1 -15.78,7.32 l -0.57,-2.87 c -7.66,3.74 -7.06,16.43 -14.72,20.17 -4.56,2.23 -11,0.62 -14.15,4.64 -0.7,0.91 -1.11,2 -1.75,3 -2.5,3.83 -7.9,4.66 -12.36,3.65 -7.42,-1.68 -13.47,-7.28 -17.4,-13.79 -3.93,-6.51 -6.05,-13.93 -8.12,-21.25 l -4.08,-14.41 c -0.67,-2.4 -1.35,-4.8 -1.79,-7.25 0,0.74 0,1.47 0.11,2.2 a 56.14,56.14 0 0 0 2.18,10.05 l 4.08,14.41 c 2.07,7.32 4.18,14.74 8.12,21.25 3.94,6.51 10,12.11 17.4,13.79 4.46,1 9.86,0.18 12.36,-3.65 0.64,-1 1.05,-2.07 1.75,-3 3.1,-4 9.59,-2.41 14.15,-4.64 7.66,-3.74 7.06,-16.43 14.72,-20.17 l 0.57,2.87 a 116.35,116.35 0 0 0 15.75,-7.32 5.77,5.77 0 0 1 -0.16,3.93 13.57,13.57 0 0 0 11.38,-3.38 11.55,11.55 0 0 0 -0.01,-5.42 z"
       transform="translate(-51.45,-39.57)"
       id="path257"
       inkscape:connector-curvature="0" />
  </g>
  <path
     inkscape:connector-curvature="0"
     style="opacity:0.1;stroke-width:0.44790757"
     d="m 143.08617,543.55489 c -2.47254,1.35325 -8.21728,4.36532 -9.38001,3.85022 -1.24087,-0.54567 -14.78008,-5.04631 -19.30234,-6.54799 0.29873,-1.45801 1.37874,-5.16854 4.95887,-6.38646 a 4.7520505,4.513743 0 0 1 2.21976,-0.0568 l 13.73223,5.15981 c 3.84668,1.85526 7.04076,3.57956 7.77149,3.98117 z"
     id="path261" />
  <path
     inkscape:connector-curvature="0"
     style="fill:#dce6f2;stroke-width:0.44790757"
     d="m 143.08617,542.2453 c -2.47254,1.35324 -8.21728,4.36532 -9.38001,3.85021 -1.24087,-0.54566 -14.78008,-5.04631 -19.30234,-6.54798 0.29873,-1.45802 1.37874,-5.16855 4.95887,-6.38647 a 4.7520505,4.513743 0 0 1 2.21976,-0.0568 l 13.73223,5.15981 c 3.84668,1.85526 7.04076,3.57956 7.77149,3.98118 z"
     id="path263" />
  <path
     inkscape:connector-curvature="0"
     style="opacity:0.1;stroke-width:0.44790757"
     d="m 324.66138,509.36132 c -0.13328,4.91972 -0.83643,9.83944 -2.99187,14.13928 -3.85127,7.6786 -12.44081,12.2491 -20.44668,10.87402 a 6.3605782,6.0416057 0 0 1 -2.98727,-1.13935 7.812849,7.4210474 0 0 1 -1.93023,-2.65848 c -1.68206,-3.43114 -2.54148,-7.38613 -4.89452,-10.32399 -2.35305,-2.93785 -7.12807,-4.2169 -9.3984,-1.20919 -1.23626,1.62826 -1.44307,4.14269 -3.09297,5.27331 -1.98079,1.35761 -4.59579,-0.24446 -6.13538,-2.18266 -4.54984,-5.67492 -2.99186,-16.83705 -11.66872,-18.39983 -1.40632,-0.25756 -3.03782,-0.22264 -3.97996,-1.37508 -0.55609,-0.68099 -0.71694,-1.6239 -0.85022,-2.51879 -0.15626,-1.05204 -0.28953,-2.12591 -0.36766,-3.20415 a 33.480356,31.801371 0 0 0 0.36766,7.13294 c 0.13328,0.89489 0.29413,1.8378 0.85022,2.51879 0.94214,1.15244 2.57364,1.11752 3.97996,1.37508 8.67686,1.56278 7.11888,12.71182 11.66872,18.39983 1.535,1.91637 4.13621,3.51844 6.13538,2.18266 1.6499,-1.13062 1.83832,-3.64505 3.09297,-5.27331 2.27033,-3.00771 7.04535,-1.72431 9.3984,1.20919 2.35304,2.9335 3.21705,6.89284 4.89452,10.32399 a 7.812849,7.4210474 0 0 0 1.93023,2.65848 6.3605782,6.0416057 0 0 0 2.98727,1.13935 c 8.00587,1.37508 16.59541,-3.19542 20.44668,-10.87402 2.65637,-5.29077 3.10216,-11.53318 3.00106,-17.54423 -0.009,-0.19207 -0.009,-0.36668 -0.009,-0.52384 z"
     id="path265" />
  <g
     transform="matrix(0.45957935,0,0,0.4365322,-26.25044,418.81145)"
     id="g277"
     style="opacity:0.1">
    <path
       d="m 880.39,295 c 2.12,5.58 1.45,11.79 0.52,17.69 A 238.69,238.69 0 0 1 875.52,338 c -1.35,5 -2.88,10.2 -1.85,15.28 0.79,3.94 3,7.4 4.76,11 4.59,9.71 5.38,20.72 5.73,31.45 0.35,10.73 0.34,21.65 3.55,31.89 a 39.38,39.38 0 0 0 11.48,18.1 42.18,42.18 0 0 1 -6.48,-12.72 c -3.21,-10.24 -3.21,-21.16 -3.55,-31.89 -0.34,-10.73 -1.14,-21.74 -5.73,-31.44 -1.72,-3.63 -4,-7.09 -4.76,-11 -1,-5.08 0.5,-10.29 1.85,-15.29 A 238.51,238.51 0 0 0 885.91,318 c 0.93,-5.9 1.6,-12.12 -0.52,-17.7 -1.71,-4.47 -5,-8 -8.57,-11.43 a 23.36,23.36 0 0 1 3.57,6.13 z"
       transform="translate(-51.45,-39.57)"
       id="path267"
       inkscape:connector-curvature="0" />
    <path
       d="m 913.21,456.25 a 26.12,26.12 0 0 1 -7.44,-3.88 24.18,24.18 0 0 1 -9.1,2.64 c -0.61,3.35 1.3,6.76 4,8.88 a 13.87,13.87 0 0 0 1.7,1.17 8,8 0 0 1 -0.67,-4.71 24.3,24.3 0 0 0 11.51,-4.1 z"
       transform="translate(-51.45,-39.57)"
       id="path269"
       inkscape:connector-curvature="0" />
    <path
       d="m 809.27,223.89 c -3.81,-1.82 -8.74,-1.86 -12.48,-3.41 a 10.24,10.24 0 0 0 0.85,2 c 3.15,5.28 11.08,4.14 16.63,6.8 a 13.64,13.64 0 0 1 2,1.23 19.25,19.25 0 0 0 -7,-6.62 z"
       transform="translate(-51.45,-39.57)"
       id="path271"
       inkscape:connector-curvature="0" />
    <path
       d="m 906.63,470 a 17.37,17.37 0 0 1 -12.09,0.57 c -4.27,-1.4 -7.8,-4.4 -11.21,-7.34 l -19.17,-16.49 c -0.91,-0.78 -1.81,-1.57 -2.69,-2.37 0.2,0.27 0.4,0.55 0.62,0.82 a 53.48,53.48 0 0 0 7.07,6.88 l 19.17,16.5 c 3.41,2.93 6.94,5.94 11.21,7.34 a 17.4,17.4 0 0 0 15.32,-2.37 32.39,32.39 0 0 1 -8.23,-3.54 z"
       transform="translate(-51.45,-39.57)"
       id="path273"
       inkscape:connector-curvature="0" />
    <path
       d="m 846.21,231 c 5.17,7.09 10.52,14.67 11.2,23.41 0.27,3.58 -0.26,7.22 0.42,10.74 1.08,5.63 4.89,9.86 9.15,13.89 a 19.75,19.75 0 0 1 -4.15,-8.55 c -0.68,-3.53 -0.15,-7.17 -0.42,-10.75 -0.68,-8.74 -6,-16.32 -11.2,-23.4 -3.76,-5.17 -7.68,-10.45 -12.29,-14.83 2.57,3.04 4.96,6.28 7.29,9.49 z"
       transform="translate(-51.45,-39.57)"
       id="path275"
       inkscape:connector-curvature="0" />
  </g>
  <path
     inkscape:connector-curvature="0"
     style="opacity:0.1;stroke-width:0.44790757"
     d="m 318.8431,493.3275 c 0,0 -2.75747,4.36532 5.05537,8.00164 l 0.45959,-1.16555 z"
     id="path279" />
  <path
     inkscape:connector-curvature="0"
     style="fill:#ff6584;stroke-width:0.44790757"
     d="m 318.38352,493.3275 c 0,0 -2.75747,4.36532 5.05537,8.00164 l 0.45958,-1.16555 z"
     id="path281" />
</svg>
