<?xml version="1.0" encoding="UTF-8" standalone="no"?>
<svg
   xmlns:dc="http://purl.org/dc/elements/1.1/"
   xmlns:cc="http://creativecommons.org/ns#"
   xmlns:rdf="http://www.w3.org/1999/02/22-rdf-syntax-ns#"
   xmlns:svg="http://www.w3.org/2000/svg"
   xmlns="http://www.w3.org/2000/svg"
   xmlns:sodipodi="http://sodipodi.sourceforge.net/DTD/sodipodi-0.dtd"
   xmlns:inkscape="http://www.inkscape.org/namespaces/inkscape"
   id="baba1a6e-b9a0-45cd-92f7-13efe2c0b468"
   data-name="Layer 1"
   width="500"
   height="643.17529"
   viewBox="0 0 500 643.1753"
   version="1.1"
   sodipodi:docname="undraw_segment_analysis_bdn4.svg"
   inkscape:version="0.92.3 (2405546, 2018-03-11)">
  <metadata
     id="metadata73">
    <rdf:RDF>
      <cc:Work
         rdf:about="">
        <dc:format>image/svg+xml</dc:format>
        <dc:type
           rdf:resource="http://purl.org/dc/dcmitype/StillImage" />
        <dc:title>segment_analysis</dc:title>
      </cc:Work>
    </rdf:RDF>
  </metadata>
  <defs
     id="defs71" />
  <sodipodi:namedview
     pagecolor="#ffffff"
     bordercolor="#666666"
     borderopacity="1"
     objecttolerance="10"
     gridtolerance="10"
     guidetolerance="10"
     inkscape:pageopacity="0"
     inkscape:pageshadow="2"
     inkscape:window-width="1920"
     inkscape:window-height="1051"
     id="namedview69"
     showgrid="false"
     inkscape:zoom="0.36692952"
     inkscape:cx="239.28139"
     inkscape:cy="321.58765"
     inkscape:window-x="1920"
     inkscape:window-y="0"
     inkscape:window-maximized="1"
     inkscape:current-layer="baba1a6e-b9a0-45cd-92f7-13efe2c0b468" />
  <title
     id="title2">segment_analysis</title>
  <ellipse
     cx="246"
     cy="611.17529"
     rx="246"
     ry="32"
     id="ellipse4"
     style="fill:#3f3d56" />
  <circle
     cx="387.71979"
     cy="535.23505"
     r="56.018002"
     id="circle8"
     style="fill:#3f3d56" />
  <path
     d="m 282.5,127.6753 c 0,0 2,20 -4,28 -6,8 15,58 15,58 l 30,-56 c 0,0 -10,-6 -4,-23 z"
     id="path10"
     inkscape:connector-curvature="0"
     style="fill:#ffb9b9" />
  <path
     d="m 282.5,127.6753 c 0,0 2,20 -4,28 -6,8 15,58 15,58 l 30,-56 c 0,0 -10,-6 -4,-23 z"
     id="path12"
     inkscape:connector-curvature="0"
     style="opacity:0.1" />
  <path
     d="m 372.5,228.6753 1,41 -38,61 -7,-23 21,-41 c 0,0 -7,-19 -5,-30 2,-11 28,-8 28,-8 z"
     id="path14"
     inkscape:connector-curvature="0"
     style="fill:#ffb9b9" />
  <path
     d="m 216.5,222.6753 -1,41 38,61 7,-23 -21,-41 c 0,0 7,-19 5,-30 -2,-11 -28,-8 -28,-8 z"
     id="path16"
     inkscape:connector-curvature="0"
     style="fill:#ffb9b9" />
  <path
     d="m 244.5,288.6753 -4,10 a 50.2422,50.2422 0 0 0 -16,39 l -12,124 c 0,0 -8,9 -5,20 0,0 -7,37 -3,49 0,0 -17,31 1,33 18,2 24,2 26,-5 2,-7 5,-33 5,-33 l 44,-156 7,97 c 0,0 -7,26 -5,33 2,7 -14,57 -7,62 7,5 27,7 28,3 1,-4 2,-29 2,-29 0,0 10,-22 12,-29 2,-7 4,-46 4,-46 l 18,-115 c 0,0 4,-31 -6,-37 l -4,-18 z"
     id="path18"
     inkscape:connector-curvature="0"
     style="fill:#2f2e41" />
  <path
     d="m 202.5,557.6753 -4,20 c 0,0 -21,33 -1,33 20,0 22,-10 22,-10 v -9 c 0,0 10,-5 10,-6 0,-1 -3,-25 -3,-25 z"
     id="path20"
     inkscape:connector-curvature="0"
     style="fill:#2f2e41" />
  <path
     d="m 300.5,557.6753 4,20 c 0,0 21,33 1,33 -20,0 -22,-10 -22,-10 v -9 c 0,0 -10,-5 -10,-6 0,-1 3,-25 3,-25 z"
     id="path22"
     inkscape:connector-curvature="0"
     style="fill:#2f2e41" />
  <circle
     cx="304.70331"
     cy="122.93617"
     r="26.383221"
     id="circle24"
     style="fill:#ffb9b9" />
  <path
     d="m 295.5,192.6753 c 0,0 -15,-25 -14,-31 a 28.738,28.738 0 0 0 -0.0479,-10.38976 l -8.95213,5.38976 -37,17 15,50 c 0,0 -4,11 -4,19 0,8 2,17 0,20 -2,3 -3,8 -1,12 a 12.69445,12.69445 0 0 1 1,8 c 0,0 -14,8 -6,10 a 37.163,37.163 0 0 0 16,0 c 0,0 1,-3 9,1 8,4 50,5 50,5 0,0 27,1 26,-3 -1,-4 5,-51 5,-51 l 14,-66 -32,-20 -10.336,-9.12493 -2.664,14.12493 z"
     id="path26"
     inkscape:connector-curvature="0"
     style="fill:#d0cde1" />
  <path
     d="m 242.5,174.6753 h -7 c 0,0 -35.5,42.5 -25.5,49.5 10,7 44.5,12.5 44.5,12.5 0,0 -3,-62 -12,-62 z"
     id="path28"
     inkscape:connector-curvature="0"
     style="fill:#d0cde1" />
  <path
     d="m 351.5,178.6753 h 9 c 0,0 24,56 16,58 -8,2 -37,8 -37,5 0,-3 12,-63 12,-63 z"
     id="path30"
     inkscape:connector-curvature="0"
     style="fill:#d0cde1" />
  <path
     d="m 278.51964,122.79484 c 0,0 -2.86251,-4.29377 -1.76155,-8.91784 a 27.028,27.028 0 0 0 0.77068,-8.03706 79.54776,79.54776 0 0 1 4.62407,-11.67026 c 2.312,-4.18368 1.21106,-5.94523 8.47745,-7.26639 7.26639,-1.32116 4.29378,-10.78949 23.45062,-0.55049 a 5.61808,5.61808 0 0 0 5.83513,2.20194 c 3.96348,-0.77068 5.39474,4.73416 5.39474,4.73416 0,0 2.64233,-1.54135 3.6332,0.66058 0.99087,2.20193 8.05602,-1.32156 8.05602,13.54151 0,14.86307 -8.03989,28.13962 -8.03989,28.13962 0,0 0.5894,-25.00146 -12.51212,-27.53369 -13.10152,-2.53223 -27.19391,-9.90871 -30.60691,-0.44039 a 72.17888,72.17888 0 0 1 -7.32144,15.13831 z"
     id="path32"
     inkscape:connector-curvature="0"
     style="fill:#2f2e41" />
  <path
     d="m 57.16176,562.64965 c -3.33123,29.19033 14.61428,55.2099 14.61428,55.2099 0,0 23.34649,-21.30729 26.67772,-50.49761 3.33123,-29.19032 -14.61427,-55.2099 -14.61427,-55.2099 0,0 -23.34649,21.30733 -26.67773,50.49761 z"
     id="path64"
     inkscape:connector-curvature="0"
     style="fill:#2f2e41" />
  <path
     d="m 69.88856,561.14341 c 12.0073,26.81411 2.77581,57.04388 2.77581,57.04388 0,0 -28.69917,-13.2445 -40.70648,-40.05861 -12.00731,-26.81411 -2.77582,-57.04389 -2.77582,-57.04389 0,0 28.69918,13.2445 40.70649,40.05862 z"
     id="path66"
     inkscape:connector-curvature="0"
     style="fill:#6c63ff" />
</svg>
