<?xml version="1.0" standalone="no"?>
<!DOCTYPE svg PUBLIC "-//W3C//DTD SVG 20010904//EN"
 "http://www.w3.org/TR/2001/REC-SVG-20010904/DTD/svg10.dtd">
<svg version="1.0" xmlns="http://www.w3.org/2000/svg"
 width="5000.000000pt" height="5000.000000pt" viewBox="0 0 5000.000000 5000.000000"
 preserveAspectRatio="xMidYMid meet">
<metadata>
Created by potrace 1.16, written by Peter Selinger 2001-2019
</metadata>
<g transform="translate(0.000000,5000.000000) scale(0.100000,-0.100000)"
fill="#000000" stroke="none">
<path d="M27174 37571 c-2 -3 -2410 -95 -5349 -206 l-5346 -202 -37 -30 c-20
-16 -1319 -1041 -2887 -2278 -1567 -1236 -2856 -2253 -2863 -2260 -7 -6 -521
-1317 -1142 -2913 l-1128 -2902 359 -1881 c197 -1034 361 -1885 364 -1890 14
-21 3098 -2574 3114 -2577 10 -2 942 105 2072 238 1129 132 2064 240 2076 238
14 -2 510 -539 1488 -1613 807 -885 1476 -1620 1488 -1632 l22 -22 1750 91
1749 91 1266 987 c696 542 1271 989 1277 993 10 6 679 -582 1123 -987 19 -18
76 -68 125 -111 50 -44 92 -82 95 -85 6 -7 99 -91 200 -181 188 -166 278 -245
310 -275 19 -18 1457 -1307 3195 -2864 1738 -1558 3172 -2844 3187 -2858 l27
-25 -9 34 c-163 605 -1310 4995 -1307 5002 2 8 721 82 2067 214 1135 112 2064
204 2066 206 1 1 493 839 1094 1862 600 1023 1102 1876 1115 1896 20 31 137
98 934 528 523 284 912 500 915 510 58 194 988 3572 988 3586 -1 11 -381 1192
-846 2625 -744 2292 -849 2608 -873 2629 -16 13 -966 864 -2112 1890 l-2083
1865 -4022 1158 -4021 1158 -218 -2 c-120 -2 -220 -5 -223 -7z m-2114 -3465
c-1090 -1593 -1986 -2896 -1990 -2896 -18 0 -3741 3485 -3728 3489 60 21 7694
2307 7696 2306 2 -2 -888 -1306 -1978 -2899z m115 2869 c-22 -8 -1430 -431
-3130 -940 -1699 -509 -3102 -930 -3117 -934 -25 -9 -71 32 -880 787 l-853
797 45 3 c79 7 7791 300 7885 300 89 0 90 0 50 -13z m6215 -1003 c1868 -537
3396 -981 3397 -987 1 -10 -6435 -2940 -6442 -2933 -3 3 -485 4896 -485 4925
0 8 20 6 68 -8 37 -10 1595 -459 3462 -997z m-3949 153 c43 -449 55 -578 138
-1425 28 -283 85 -859 126 -1280 41 -421 93 -951 116 -1178 22 -228 39 -415
37 -417 -2 -1 -66 -31 -143 -65 -77 -34 -158 -70 -180 -80 -186 -85 -517 -235
-640 -290 -82 -37 -726 -330 -1429 -649 l-1279 -582 -46 44 c-25 24 -190 178
-366 342 -176 164 -321 301 -323 305 -1 4 828 1222 1844 2706 1016 1484 1901
2779 1968 2878 114 169 121 177 128 150 4 -16 26 -222 49 -459z m-9996 -367
c484 -451 881 -824 883 -829 2 -4 -5 -10 -15 -13 -666 -202 -6198 -1856 -6203
-1854 -6 3 4439 3517 4450 3517 3 1 401 -369 885 -821z m17732 -1185 c-13 -67
-2619 -12161 -2625 -12187 -8 -29 -49 9 -1797 1641 l-1790 1670 -253 2584
c-140 1421 -268 2731 -286 2911 l-32 328 3386 1539 c1862 847 3389 1540 3394
1540 5 1 6 -11 3 -26z m2396 -1695 l1873 -1677 783 -2412 c430 -1326 780
-2413 778 -2416 -7 -7 -7940 -4033 -7947 -4033 -3 0 586 2749 1309 6110 724
3360 1319 6109 1324 6107 4 -1 850 -757 1880 -1679z m-16665 -352 c1199 -1118
1870 -1751 1865 -1759 -24 -42 -1219 -1786 -1233 -1801 -10 -10 -911 -424
-2002 -920 l-1985 -902 -3063 2581 c-1685 1420 -3065 2586 -3067 2591 -2 5
1650 505 3669 1110 l3673 1101 135 -127 c74 -69 978 -913 2008 -1874z m-6883
-3071 c1658 -1397 3011 -2543 3007 -2546 -9 -9 -7443 -3387 -7461 -3391 -11
-2 -78 331 -321 1604 l-308 1607 980 2518 c538 1385 999 2571 1025 2636 25 65
50 116 54 115 5 -2 1366 -1146 3024 -2543z m14140 -709 c135 -1385 244 -2520
242 -2522 -2 -2 -192 173 -423 389 -230 215 -446 417 -479 447 -78 73 -201
187 -239 225 -17 17 -69 66 -116 110 -47 44 -122 114 -166 155 -44 41 -600
561 -1237 1154 -636 594 -1154 1083 -1150 1086 5 4 562 258 1238 565 677 307
1266 575 1310 595 44 21 107 50 140 65 33 15 74 33 90 41 442 204 530 241 537
225 3 -9 117 -1149 253 -2535z m-4741 1433 c142 -133 254 -245 249 -249 -6 -7
-917 -424 -1192 -546 l-53 -24 17 28 c22 33 554 812 642 940 36 50 68 92 72
92 4 0 123 -109 265 -241z m2056 -1919 c745 -694 1382 -1288 1415 -1319 89
-85 216 -203 339 -316 60 -55 123 -113 140 -130 18 -16 86 -79 151 -140 65
-60 151 -140 189 -176 39 -37 230 -214 424 -395 219 -204 352 -335 352 -346 0
-11 115 -1189 255 -2620 140 -1431 253 -2603 251 -2605 -2 -3 -775 36 -1716
86 l-1713 90 -26 24 c-14 13 -1339 1129 -2943 2481 l-2916 2456 1085 1588
c597 873 1093 1595 1102 1604 9 9 511 242 1116 517 1075 489 1100 500 1120
482 11 -10 630 -586 1375 -1281z m-4510 -126 c0 -3 -375 -552 -832 -1221 -458
-669 -836 -1221 -839 -1226 -6 -8 -1300 1074 -1307 1092 -2 7 2947 1357 2971
1360 4 1 7 -2 7 -5z m-2733 -2228 c417 -351 759 -642 761 -647 3 -8 -2588
-3802 -2617 -3830 -13 -14 -381 -60 -1953 -243 -1065 -125 -1955 -228 -1978
-229 -40 -2 -58 12 -1320 1058 -703 583 -1279 1063 -1279 1066 -1 8 7611 3470
7621 3466 3 -1 348 -289 765 -641z m22681 -158 c-3 -7 -175 -630 -384 -1385
l-379 -1372 -1738 -941 -1738 -941 -1627 417 c-895 229 -1630 420 -1634 423
-6 6 7477 3810 7496 3811 4 0 6 -6 4 -12z m-18670 -3223 c1547 -1303 2811
-2372 2810 -2376 -2 -4 -532 -420 -1178 -923 -1119 -873 -1177 -916 -1215
-916 -23 0 -689 -34 -1481 -75 -791 -41 -1467 -76 -1501 -77 l-63 -3 -1381
1515 c-759 833 -1383 1520 -1386 1527 -3 7 568 849 1268 1872 1264 1849 1272
1860 1294 1843 12 -9 1287 -1083 2833 -2387z m8418 901 c1030 -962 1602 -1502
1596 -1508 -6 -6 -630 -360 -1388 -788 l-1379 -778 -8 47 c-4 25 -104 1034
-222 2241 -118 1207 -217 2217 -221 2244 -4 33 -3 47 5 45 6 -2 733 -678 1617
-1503z m4075 -2336 c1094 -280 1993 -510 1999 -510 6 0 265 138 576 306 311
168 567 304 570 301 6 -6 -1653 -2830 -1668 -2840 -7 -4 -888 -92 -1958 -197
-1070 -104 -1958 -191 -1975 -194 l-30 -4 -385 1466 c-212 807 -385 1470 -385
1475 0 12 1226 705 1249 706 10 1 913 -228 2007 -509z m-2825 -3815 c486
-1848 882 -3361 880 -3362 -2 -2 -4524 4049 -5171 4632 -44 40 -132 119 -195
175 -63 57 -131 118 -150 135 -121 110 -257 233 -287 259 -20 17 -50 45 -67
61 -18 17 -65 59 -105 95 -40 36 -86 76 -101 90 -15 14 -145 130 -289 259
-143 129 -260 235 -258 236 1 1 714 -36 1583 -82 l1582 -83 838 474 c462 261
843 473 848 472 6 -1 407 -1514 892 -3361z"/>
</g>
</svg>
