<svg class="marks" width="312" height="210" viewBox="0 0 312 210" version="1.1" xmlns="http://www.w3.org/2000/svg" xmlns:xlink="http://www.w3.org/1999/xlink"><rect width="312" height="210" fill="#333"></rect><g fill="none" stroke-miterlimit="10" transform="translate(5,5)"><g class="mark-group role-frame root" role="graphics-object" aria-roledescription="group mark container"><g transform="translate(0,0)"><path class="background" aria-hidden="true" d="M0,0h200v200h-200Z"></path><g><g class="mark-arc role-mark marks" role="graphics-object" aria-roledescription="arc mark container"><path aria-label="value: 4; category: Environnement" role="graphics-symbol" aria-roledescription="arc mark" transform="translate(100,100)" d="M-40.67366430757999,91.35454576426011A100,100,0,0,0,40.67366430758,91.3545457642601L20.33683215379,45.67727288213005A50,50,0,0,1,-20.336832153789995,45.677272882130055Z" fill="#e45756"></path><path aria-label="value: 6; category: Communauté" role="graphics-symbol" aria-roledescription="arc mark" transform="translate(100,100)" d="M40.67366430758,91.3545457642601A100,100,0,0,0,99.45218953682733,-10.45284632676534L49.72609476841367,-5.22642316338267A50,50,0,0,1,20.33683215379,45.67727288213005Z" fill="#f58518"></path><path aria-label="value: 10; category: Public" role="graphics-symbol" aria-roledescription="arc mark" transform="translate(100,100)" d="M-58.77852522924732,-80.90169943749473A100,100,0,0,0,-40.67366430757999,91.35454576426011L-20.336832153789995,45.677272882130055A50,50,0,0,1,-29.38926261462366,-40.450849718747364Z" fill="#72b7b2"></path><path aria-label="value: 3; category: Économie" role="graphics-symbol" aria-roledescription="arc mark" transform="translate(100,100)" d="M-1.8369701987210297e-14,-100A100,100,0,0,0,-58.77852522924732,-80.90169943749473L-29.38926261462366,-40.450849718747364A50,50,0,0,1,-9.184850993605149e-15,-50Z" fill="#54a24b"></path><path aria-label="value: 7; category: Administration" role="graphics-symbol" aria-roledescription="arc mark" transform="translate(100,100)" d="M99.45218953682733,-10.45284632676534A100,100,0,0,0,6.123233995736766e-15,-100L3.061616997868383e-15,-50A50,50,0,0,1,49.72609476841367,-5.22642316338267Z" fill="#4c78a8"></path></g><g class="mark-group role-legend" role="graphics-symbol" aria-roledescription="legend" aria-label="Symbol legend titled 'category' for fill color with 5 values: Administration, Communauté, Environnement, Public, Économie"><g transform="translate(218,0)"><path class="background" aria-hidden="true" d="M0,0h84v79h-84Z" pointer-events="none"></path><g><g class="mark-group role-legend-entry"><g transform="translate(0,16)"><path class="background" aria-hidden="true" d="M0,0h0v0h0Z" pointer-events="none"></path><g><g class="mark-group role-scope" role="graphics-object" aria-roledescription="group mark container"><g transform="translate(0,0)"><path class="background" aria-hidden="true" d="M0,0h83.2607421875v11h-83.2607421875Z" pointer-events="none" opacity="1"></path><g><g class="mark-symbol role-legend-symbol" pointer-events="none"><path transform="translate(6,6)" d="M5,0A5,5,0,1,1,-5,0A5,5,0,1,1,5,0" fill="#4c78a8" stroke-width="1.5" opacity="1"></path></g><g class="mark-text role-legend-label" pointer-events="none"><text text-anchor="start" transform="translate(16,9)" font-family="sans-serif" font-size="10px" fill="#fff" opacity="1">Administration</text></g></g><path class="foreground" aria-hidden="true" d="" pointer-events="none" display="none"></path></g><g transform="translate(0,13)"><path class="background" aria-hidden="true" d="M0,0h83.2607421875v11h-83.2607421875Z" pointer-events="none" opacity="1"></path><g><g class="mark-symbol role-legend-symbol" pointer-events="none"><path transform="translate(6,6)" d="M5,0A5,5,0,1,1,-5,0A5,5,0,1,1,5,0" fill="#f58518" stroke-width="1.5" opacity="1"></path></g><g class="mark-text role-legend-label" pointer-events="none"><text text-anchor="start" transform="translate(16,9)" font-family="sans-serif" font-size="10px" fill="#fff" opacity="1">Communauté</text></g></g><path class="foreground" aria-hidden="true" d="" pointer-events="none" display="none"></path></g><g transform="translate(0,26)"><path class="background" aria-hidden="true" d="M0,0h83.2607421875v11h-83.2607421875Z" pointer-events="none" opacity="1"></path><g><g class="mark-symbol role-legend-symbol" pointer-events="none"><path transform="translate(6,6)" d="M5,0A5,5,0,1,1,-5,0A5,5,0,1,1,5,0" fill="#e45756" stroke-width="1.5" opacity="1"></path></g><g class="mark-text role-legend-label" pointer-events="none"><text text-anchor="start" transform="translate(16,9)" font-family="sans-serif" font-size="10px" fill="#fff" opacity="1">Environnement</text></g></g><path class="foreground" aria-hidden="true" d="" pointer-events="none" display="none"></path></g><g transform="translate(0,39)"><path class="background" aria-hidden="true" d="M0,0h83.2607421875v11h-83.2607421875Z" pointer-events="none" opacity="1"></path><g><g class="mark-symbol role-legend-symbol" pointer-events="none"><path transform="translate(6,6)" d="M5,0A5,5,0,1,1,-5,0A5,5,0,1,1,5,0" fill="#72b7b2" stroke-width="1.5" opacity="1"></path></g><g class="mark-text role-legend-label" pointer-events="none"><text text-anchor="start" transform="translate(16,9)" font-family="sans-serif" font-size="10px" fill="#fff" opacity="1">Public</text></g></g><path class="foreground" aria-hidden="true" d="" pointer-events="none" display="none"></path></g><g transform="translate(0,52)"><path class="background" aria-hidden="true" d="M0,0h83.2607421875v11h-83.2607421875Z" pointer-events="none" opacity="1"></path><g><g class="mark-symbol role-legend-symbol" pointer-events="none"><path transform="translate(6,6)" d="M5,0A5,5,0,1,1,-5,0A5,5,0,1,1,5,0" fill="#54a24b" stroke-width="1.5" opacity="1"></path></g><g class="mark-text role-legend-label" pointer-events="none"><text text-anchor="start" transform="translate(16,9)" font-family="sans-serif" font-size="10px" fill="#fff" opacity="1">Économie</text></g></g><path class="foreground" aria-hidden="true" d="" pointer-events="none" display="none"></path></g></g></g><path class="foreground" aria-hidden="true" d="" pointer-events="none" display="none"></path></g></g><g class="mark-text role-legend-title" pointer-events="none"><text text-anchor="start" transform="translate(0,9)" font-family="sans-serif" font-size="11px" font-weight="bold" fill="#fff" opacity="1">category</text></g></g><path class="foreground" aria-hidden="true" d="" pointer-events="none" display="none"></path></g></g></g><path class="foreground" aria-hidden="true" d="" display="none"></path></g></g></g></svg>