<?xml version="1.0" encoding="UTF-8" standalone="no"?>
<svg
   id="uuid-b27a0a7a-5047-489b-9dbb-4f9372514efd"
   data-name="FIL et SILHOUETTES"
   width="500"
   height="500"
   viewBox="0 0 500 500"
   version="1.1"
   sodipodi:docname="CHATS V2.svg"
   inkscape:version="1.1.2 (0a00cf5339, 2022-02-04)"
   xmlns:inkscape="http://www.inkscape.org/namespaces/inkscape"
   xmlns:sodipodi="http://sodipodi.sourceforge.net/DTD/sodipodi-0.dtd"
   xmlns:xlink="http://www.w3.org/1999/xlink"
   xmlns="http://www.w3.org/2000/svg"
   xmlns:svg="http://www.w3.org/2000/svg">
  <sodipodi:namedview
     id="namedview646"
     pagecolor="#ffffff"
     bordercolor="#666666"
     borderopacity="1.0"
     inkscape:pageshadow="2"
     inkscape:pageopacity="0.0"
     inkscape:pagecheckerboard="0"
     showgrid="false"
     inkscape:zoom="1.108"
     inkscape:cx="437.27437"
     inkscape:cy="21.66065"
     inkscape:window-width="1600"
     inkscape:window-height="831"
     inkscape:window-x="0"
     inkscape:window-y="0"
     inkscape:window-maximized="1"
     inkscape:current-layer="g605" />
  <defs
     id="defs595">
    <pattern
       inkscape:collect="always"
       xlink:href="#uuid-1aae5f15-1f11-450b-b073-6911cff5f9a2"
       id="pattern2827"
       patternTransform="matrix(-2.3,0,0,2.31,-25094.91,6086.01)" />
    <style
       id="style2">
      .uuid-d37c4978-13f3-4879-9d05-71cc1eeb5471, .uuid-bb027ed3-5453-4ddf-a469-768800c36c7f, .uuid-a424a05a-ba8d-433a-bb6d-0ef42522c551, .uuid-70d1236a-0aa3-497a-a7f7-279f305d51d2 {
        fill: none;
      }

      .uuid-b9f8e5e8-6830-40d9-90bb-8e0217a6b3d6 {
        fill: #fbb03b;
      }

      .uuid-02802721-c140-43c9-b582-df0f4933229d {
        fill: #faf7f5;
      }

      .uuid-832e1814-ac1b-4385-b6f6-53531fa99ea5 {
        fill: #8f8c95;
      }

      .uuid-896e4096-1522-4e70-bace-c93a508d1f34 {
        fill: #b6d6c1;
      }

      .uuid-25f19c22-641f-4ca2-ab60-5bf64a186493 {
        fill: #1d1d1b;
      }

      .uuid-0c6d299e-f60a-47e1-9a87-7a68f8a01855 {
        fill: #262631;
      }

      .uuid-bb027ed3-5453-4ddf-a469-768800c36c7f {
        stroke-width: .75px;
      }

      .uuid-bb027ed3-5453-4ddf-a469-768800c36c7f, .uuid-a424a05a-ba8d-433a-bb6d-0ef42522c551, .uuid-70d1236a-0aa3-497a-a7f7-279f305d51d2 {
        stroke: #262631;
        stroke-miterlimit: 10;
      }

      .uuid-a424a05a-ba8d-433a-bb6d-0ef42522c551 {
        stroke-width: 10px;
      }

      .uuid-a33b1b8e-4cf0-4e44-a2ea-63243408772a {
        fill: url(#uuid-1aae5f15-1f11-450b-b073-6911cff5f9a2);
        opacity: .25;
      }

      .uuid-70d1236a-0aa3-497a-a7f7-279f305d51d2 {
        stroke-width: 2px;
      }
    </style>
    <pattern
       id="uuid-1aae5f15-1f11-450b-b073-6911cff5f9a2"
       data-name="Lac asséché sableux USGS 17"
       x="0"
       y="0"
       width="72"
       height="72"
       patternTransform="translate(-25094.93 6087.59) rotate(-180) scale(2.3 -2.31)"
       patternUnits="userSpaceOnUse"
       viewBox="0 0 72 72">
      <g
         id="g592">
        <rect
           class="uuid-d37c4978-13f3-4879-9d05-71cc1eeb5471"
           width="72"
           height="72"
           id="rect4" />
        <path
           class="uuid-25f19c22-641f-4ca2-ab60-5bf64a186493"
           d="M21,3c-.06,0-.12-.02-.17-.07-.05-.05-.08-.11-.08-.18s.03-.13,.08-.18c.09-.09,.25-.09,.35,0,.05,.05,.07,.11,.07,.18,0,.06-.02,.12-.07,.17-.05,.06-.11,.08-.18,.08Z"
           id="path6" />
        <path
           class="uuid-25f19c22-641f-4ca2-ab60-5bf64a186493"
           d="M20,8.25c-.06,0-.13-.03-.18-.07-.04-.05-.07-.11-.07-.18s.03-.13,.07-.18c.1-.09,.26-.09,.36,0,.04,.05,.07,.11,.07,.18s-.03,.13-.07,.18c-.05,.05-.11,.07-.18,.07Z"
           id="path8" />
        <path
           class="uuid-25f19c22-641f-4ca2-ab60-5bf64a186493"
           d="M20.25,10.5c-.06,0-.13-.03-.17-.07-.05-.05-.08-.11-.08-.18s.03-.13,.07-.18c.1-.09,.27-.09,.36,0,.04,.05,.07,.11,.07,.18s-.03,.14-.08,.18c-.04,.04-.1,.07-.17,.07Z"
           id="path10" />
        <path
           class="uuid-25f19c22-641f-4ca2-ab60-5bf64a186493"
           d="M18,12.75c-.06,0-.12-.03-.17-.07-.05-.05-.08-.11-.08-.18s.03-.13,.07-.18c.11-.09,.26-.09,.36,0,.05,.05,.07,.11,.07,.18s-.02,.13-.07,.18c-.05,.04-.11,.07-.18,.07Z"
           id="path12" />
        <path
           class="uuid-25f19c22-641f-4ca2-ab60-5bf64a186493"
           d="M15.25,10.5c-.06,0-.12-.02-.17-.07-.05-.05-.08-.12-.08-.18,0-.07,.03-.13,.07-.18,.12-.1,.26-.09,.36,0,.05,.05,.07,.11,.07,.18,0,.06-.02,.13-.07,.17-.05,.06-.11,.08-.18,.08Z"
           id="path14" />
        <path
           class="uuid-25f19c22-641f-4ca2-ab60-5bf64a186493"
           d="M22.75,20c-.06,0-.12-.02-.17-.07-.05-.05-.08-.11-.08-.18,0-.06,.03-.13,.07-.17,.11-.11,.27-.1,.36,0,.05,.06,.07,.12,.07,.18s-.02,.13-.07,.18c-.05,.04-.11,.07-.18,.07Z"
           id="path16" />
        <path
           class="uuid-25f19c22-641f-4ca2-ab60-5bf64a186493"
           d="M15.25,23c-.06,0-.12-.02-.17-.07-.05-.05-.08-.11-.08-.18,0-.06,.03-.12,.07-.17,.12-.11,.26-.1,.36,0,.05,.05,.07,.12,.07,.18,0,.07-.02,.13-.07,.18-.05,.05-.11,.07-.18,.07Z"
           id="path18" />
        <path
           class="uuid-25f19c22-641f-4ca2-ab60-5bf64a186493"
           d="M14,24c-.07,0-.13-.03-.18-.08-.04-.04-.07-.1-.07-.17s.03-.13,.07-.18c.11-.1,.26-.09,.36,0,.05,.05,.07,.12,.07,.18,0,.07-.02,.13-.07,.18-.05,.04-.11,.07-.18,.07Z"
           id="path20" />
        <path
           class="uuid-25f19c22-641f-4ca2-ab60-5bf64a186493"
           d="M24,27c-.06,0-.12-.02-.17-.07-.05-.05-.08-.11-.08-.18s.03-.13,.07-.17c.11-.11,.26-.1,.36,0,.05,.06,.07,.12,.07,.18,0,.07-.02,.13-.07,.18-.05,.05-.11,.07-.18,.07Z"
           id="path22" />
        <path
           class="uuid-25f19c22-641f-4ca2-ab60-5bf64a186493"
           d="M30.75,25.75c-.06,0-.12-.02-.17-.07-.05-.05-.08-.11-.08-.18s.03-.13,.08-.18c.1-.09,.25-.09,.35,0,.05,.05,.07,.12,.07,.18s-.02,.13-.07,.18c-.05,.05-.11,.07-.18,.07Z"
           id="path24" />
        <path
           class="uuid-25f19c22-641f-4ca2-ab60-5bf64a186493"
           d="M31.25,23.25c-.06,0-.12-.03-.17-.07-.05-.05-.08-.11-.08-.18,0-.06,.03-.13,.07-.17,.11-.11,.26-.1,.36,0,.05,.06,.07,.12,.07,.18,0,.07-.02,.13-.07,.18-.05,.04-.11,.07-.18,.07Z"
           id="path26" />
        <path
           class="uuid-25f19c22-641f-4ca2-ab60-5bf64a186493"
           d="M29.25,18.25c-.06,0-.12-.02-.17-.07-.05-.05-.08-.11-.08-.18s.03-.13,.08-.18c.1-.09,.25-.09,.35,0,.05,.05,.07,.11,.07,.18s-.03,.13-.07,.18c-.05,.05-.12,.07-.18,.07Z"
           id="path28" />
        <path
           class="uuid-25f19c22-641f-4ca2-ab60-5bf64a186493"
           d="M32.25,18.25c-.06,0-.12-.02-.17-.07-.05-.05-.08-.11-.08-.18s.03-.13,.07-.18c.11-.09,.26-.09,.36,0,.04,.05,.07,.11,.07,.18s-.03,.13-.07,.18c-.05,.05-.11,.07-.18,.07Z"
           id="path30" />
        <path
           class="uuid-25f19c22-641f-4ca2-ab60-5bf64a186493"
           d="M32.5,13.75c-.06,0-.13-.03-.17-.07-.05-.05-.08-.11-.08-.18s.03-.13,.08-.18c.09-.09,.26-.09,.35,0,.05,.05,.07,.12,.07,.18s-.02,.12-.07,.17c-.05,.05-.11,.08-.18,.08Z"
           id="path32" />
        <path
           class="uuid-25f19c22-641f-4ca2-ab60-5bf64a186493"
           d="M31.75,11.75c-.06,0-.12-.02-.17-.07-.05-.05-.08-.11-.08-.18s.03-.13,.08-.18c.1-.09,.25-.09,.35,0,.05,.05,.07,.11,.07,.18s-.03,.13-.07,.18c-.05,.05-.11,.07-.18,.07Z"
           id="path34" />
        <path
           class="uuid-25f19c22-641f-4ca2-ab60-5bf64a186493"
           d="M29.25,10.75c-.07,0-.13-.03-.18-.07-.04-.05-.07-.11-.07-.18s.03-.13,.08-.18c.1-.09,.25-.09,.35,0,.05,.05,.07,.11,.07,.18s-.02,.13-.07,.18c-.05,.04-.11,.07-.18,.07Z"
           id="path36" />
        <path
           class="uuid-25f19c22-641f-4ca2-ab60-5bf64a186493"
           d="M32.25,7c-.06,0-.12-.02-.17-.07-.05-.05-.08-.11-.08-.18s.03-.13,.07-.18c.11-.09,.26-.09,.36,0,.05,.05,.07,.11,.07,.18s-.03,.13-.07,.18c-.05,.05-.11,.07-.18,.07Z"
           id="path38" />
        <path
           class="uuid-25f19c22-641f-4ca2-ab60-5bf64a186493"
           d="M32,3c-.06,0-.12-.03-.17-.07-.05-.05-.08-.11-.08-.18s.03-.13,.08-.18c.1-.09,.25-.09,.35,0,.05,.05,.07,.12,.07,.18s-.02,.13-.07,.18c-.05,.04-.11,.07-.18,.07Z"
           id="path40" />
        <path
           class="uuid-25f19c22-641f-4ca2-ab60-5bf64a186493"
           d="M29.25,3.25c-.06,0-.12-.02-.17-.07-.05-.05-.08-.11-.08-.18s.03-.13,.08-.18c.09-.09,.25-.09,.35,0,.05,.05,.07,.11,.07,.18,0,.06-.02,.13-.07,.17-.05,.06-.11,.08-.18,.08Z"
           id="path42" />
        <path
           class="uuid-25f19c22-641f-4ca2-ab60-5bf64a186493"
           d="M34,1.25c-.06,0-.13-.03-.17-.07-.05-.05-.08-.11-.08-.18s.03-.14,.08-.18c.09-.09,.26-.09,.35,0,.05,.05,.07,.11,.07,.18,0,.06-.02,.12-.07,.17-.05,.05-.11,.08-.18,.08Z"
           id="path44" />
        <path
           class="uuid-25f19c22-641f-4ca2-ab60-5bf64a186493"
           d="M41.5,7c-.06,0-.13-.03-.17-.07-.05-.05-.08-.11-.08-.18s.03-.13,.08-.18c.09-.09,.24-.09,.34,0,.06,.06,.08,.12,.08,.18s-.02,.12-.07,.17c-.05,.06-.11,.08-.18,.08Z"
           id="path46" />
        <path
           class="uuid-25f19c22-641f-4ca2-ab60-5bf64a186493"
           d="M45.5,6.75c-.06,0-.12-.02-.17-.07-.05-.05-.08-.11-.08-.18s.03-.13,.08-.18c.09-.09,.25-.09,.35,0,.05,.05,.07,.12,.07,.18s-.02,.13-.07,.18c-.05,.05-.12,.07-.18,.07Z"
           id="path48" />
        <path
           class="uuid-25f19c22-641f-4ca2-ab60-5bf64a186493"
           d="M40.25,10.25c-.06,0-.12-.02-.17-.07-.05-.05-.08-.12-.08-.18,0-.07,.03-.13,.07-.18,.11-.09,.26-.09,.36,0,.05,.05,.07,.11,.07,.18,0,.06-.02,.13-.07,.17-.05,.06-.11,.08-.18,.08Z"
           id="path50" />
        <path
           class="uuid-25f19c22-641f-4ca2-ab60-5bf64a186493"
           d="M45,11.75c-.06,0-.12-.02-.17-.07-.05-.05-.08-.11-.08-.18s.03-.13,.08-.18c.1-.09,.25-.09,.35,0,.04,.05,.07,.11,.07,.18s-.02,.13-.07,.18c-.05,.05-.11,.07-.18,.07Z"
           id="path52" />
        <path
           class="uuid-25f19c22-641f-4ca2-ab60-5bf64a186493"
           d="M45,13.5c-.06,0-.12-.02-.17-.07-.05-.05-.08-.11-.08-.18s.03-.13,.08-.18c.08-.09,.26-.09,.35,0,.05,.04,.07,.1,.07,.17s-.02,.13-.07,.18c-.05,.05-.11,.07-.18,.07Z"
           id="path54" />
        <path
           class="uuid-25f19c22-641f-4ca2-ab60-5bf64a186493"
           d="M47,14.25c-.06,0-.12-.02-.17-.07-.05-.05-.08-.11-.08-.18s.03-.13,.08-.18c.09-.09,.25-.09,.35,0,.05,.05,.07,.12,.07,.18s-.02,.13-.07,.18c-.05,.05-.11,.07-.18,.07Z"
           id="path56" />
        <path
           class="uuid-25f19c22-641f-4ca2-ab60-5bf64a186493"
           d="M47,16.25c-.06,0-.13-.03-.17-.07-.05-.05-.08-.11-.08-.18s.03-.13,.08-.18c.08-.08,.26-.09,.35,0,.05,.04,.07,.11,.07,.17s-.02,.13-.07,.18c-.05,.04-.11,.07-.18,.07Z"
           id="path58" />
        <path
           class="uuid-25f19c22-641f-4ca2-ab60-5bf64a186493"
           d="M47.25,22.75c-.06,0-.13-.03-.17-.07-.05-.04-.08-.11-.08-.18s.03-.13,.08-.18c.08-.08,.25-.09,.35,0,.05,.05,.07,.11,.07,.18s-.03,.13-.07,.18c-.05,.05-.11,.07-.18,.07Z"
           id="path60" />
        <path
           class="uuid-25f19c22-641f-4ca2-ab60-5bf64a186493"
           d="M39,20.75c-.06,0-.12-.02-.17-.07-.05-.05-.08-.11-.08-.18s.03-.13,.08-.18c.1-.09,.25-.09,.35,0,.04,.05,.07,.11,.07,.18s-.03,.13-.07,.18c-.05,.05-.11,.07-.18,.07Z"
           id="path62" />
        <path
           class="uuid-25f19c22-641f-4ca2-ab60-5bf64a186493"
           d="M50.25,13.5c-.06,0-.13-.03-.17-.07-.05-.05-.08-.11-.08-.18s.03-.13,.08-.18c.1-.09,.26-.09,.35,0,.05,.05,.07,.12,.07,.18s-.02,.13-.07,.18c-.05,.04-.11,.07-.18,.07Z"
           id="path64" />
        <path
           class="uuid-25f19c22-641f-4ca2-ab60-5bf64a186493"
           d="M52.25,12c-.06,0-.12-.02-.17-.07-.05-.05-.08-.11-.08-.18s.03-.13,.08-.18c.09-.09,.25-.09,.35,0,.05,.05,.07,.12,.07,.18s-.02,.13-.07,.18c-.05,.05-.11,.07-.18,.07Z"
           id="path66" />
        <path
           class="uuid-25f19c22-641f-4ca2-ab60-5bf64a186493"
           d="M54.75,11c-.06,0-.13-.03-.17-.07-.05-.05-.08-.12-.08-.18,0-.07,.03-.13,.08-.18,.09-.09,.25-.09,.35,0,.05,.05,.07,.11,.07,.18,0,.06-.02,.13-.07,.18-.05,.04-.11,.07-.18,.07Z"
           id="path68" />
        <path
           class="uuid-25f19c22-641f-4ca2-ab60-5bf64a186493"
           d="M54.75,6.75c-.07,0-.13-.03-.17-.07-.05-.06-.08-.12-.08-.18s.03-.12,.07-.17c.1-.1,.26-.1,.36,0,.05,.06,.07,.12,.07,.18s-.02,.12-.07,.17c-.05,.05-.11,.08-.18,.08Z"
           id="path70" />
        <path
           class="uuid-25f19c22-641f-4ca2-ab60-5bf64a186493"
           d="M56.5,.75c-.06,0-.13-.03-.17-.07-.05-.05-.08-.12-.08-.18s.03-.13,.07-.18c.1-.09,.26-.09,.36,0,.05,.06,.07,.12,.07,.18s-.02,.12-.07,.17c-.05,.05-.11,.08-.18,.08Z"
           id="path72" />
        <path
           class="uuid-25f19c22-641f-4ca2-ab60-5bf64a186493"
           d="M64,6.5c-.06,0-.13-.03-.17-.07-.05-.05-.08-.12-.08-.18s.03-.13,.07-.17c.1-.1,.26-.1,.36,0,.05,.06,.07,.12,.07,.18s-.02,.12-.07,.17c-.05,.05-.11,.08-.18,.08Z"
           id="path74" />
        <path
           class="uuid-25f19c22-641f-4ca2-ab60-5bf64a186493"
           d="M65,2.5c-.06,0-.13-.03-.17-.07-.05-.05-.08-.11-.08-.18s.03-.13,.08-.18c.09-.09,.25-.09,.35,0,.05,.05,.07,.11,.07,.18s-.02,.13-.07,.17c-.05,.06-.11,.08-.18,.08Z"
           id="path76" />
        <path
           class="uuid-25f19c22-641f-4ca2-ab60-5bf64a186493"
           d="M68,3c-.06,0-.13-.03-.17-.07-.05-.05-.08-.11-.08-.18s.03-.13,.07-.18c.1-.09,.27-.09,.36,0,.05,.05,.07,.12,.07,.18s-.02,.13-.07,.18c-.05,.04-.11,.07-.18,.07Z"
           id="path78" />
        <path
           class="uuid-25f19c22-641f-4ca2-ab60-5bf64a186493"
           d="M68,10.25c-.06,0-.13-.03-.17-.07-.05-.05-.08-.11-.08-.18s.03-.13,.07-.18c.1-.09,.26-.09,.36,0,.05,.05,.07,.12,.07,.18s-.02,.13-.07,.18c-.05,.04-.11,.07-.18,.07Z"
           id="path80" />
        <path
           class="uuid-25f19c22-641f-4ca2-ab60-5bf64a186493"
           d="M64.25,12.25c-.06,0-.13-.03-.17-.07-.05-.05-.08-.12-.08-.18s.03-.13,.07-.17c.09-.1,.25-.1,.35,0,.06,.05,.08,.12,.08,.18s-.02,.13-.07,.17c-.05,.06-.11,.08-.18,.08Z"
           id="path82" />
        <path
           class="uuid-25f19c22-641f-4ca2-ab60-5bf64a186493"
           d="M65.25,15.75c-.07,0-.13-.03-.17-.07-.05-.05-.08-.11-.08-.18s.03-.13,.08-.18c.07-.08,.26-.09,.35,0,.05,.04,.07,.11,.07,.17s-.02,.12-.07,.17c-.04,.05-.11,.08-.18,.08Z"
           id="path84" />
        <path
           class="uuid-25f19c22-641f-4ca2-ab60-5bf64a186493"
           d="M64,19.75c-.06,0-.13-.03-.17-.07-.05-.05-.08-.11-.08-.18s.03-.13,.08-.18c.08-.09,.25-.09,.35,0,.05,.05,.07,.12,.07,.18s-.02,.13-.07,.18c-.05,.04-.11,.07-.18,.07Z"
           id="path86" />
        <path
           class="uuid-25f19c22-641f-4ca2-ab60-5bf64a186493"
           d="M66.25,19.75c-.07,0-.13-.03-.18-.08-.04-.04-.07-.1-.07-.17,0-.06,.03-.13,.07-.17,.09-.1,.26-.1,.36,0,.05,.05,.07,.12,.07,.18,0,.07-.02,.13-.07,.18-.05,.04-.11,.07-.18,.07Z"
           id="path88" />
        <path
           class="uuid-25f19c22-641f-4ca2-ab60-5bf64a186493"
           d="M68,21.25c-.06,0-.13-.03-.17-.07-.05-.05-.08-.12-.08-.18s.03-.12,.07-.17c.1-.1,.27-.1,.36,0,.05,.06,.07,.12,.07,.18s-.02,.12-.07,.17c-.05,.05-.11,.08-.18,.08Z"
           id="path90" />
        <path
           class="uuid-25f19c22-641f-4ca2-ab60-5bf64a186493"
           d="M69.25,20.25c-.06,0-.12-.02-.17-.07-.05-.05-.08-.11-.08-.18s.03-.13,.08-.18c.09-.09,.25-.09,.35,0,.05,.05,.07,.11,.07,.18s-.02,.13-.07,.18c-.05,.05-.11,.07-.18,.07Z"
           id="path92" />
        <path
           class="uuid-25f19c22-641f-4ca2-ab60-5bf64a186493"
           d="M69.5,18c-.06,0-.12-.02-.17-.07-.05-.05-.08-.11-.08-.18s.03-.13,.08-.18c.09-.09,.25-.09,.35,0,.05,.05,.07,.11,.07,.18s-.02,.13-.07,.18c-.05,.05-.11,.07-.18,.07Z"
           id="path94" />
        <path
           class="uuid-25f19c22-641f-4ca2-ab60-5bf64a186493"
           d="M71.25,17.5c-.06,0-.13-.03-.17-.07-.05-.05-.08-.12-.08-.18s.03-.12,.07-.17c.11-.1,.26-.1,.36,0,.05,.06,.07,.12,.07,.18s-.02,.12-.07,.17c-.05,.05-.11,.08-.18,.08Z"
           id="path96" />
        <path
           class="uuid-25f19c22-641f-4ca2-ab60-5bf64a186493"
           d="M8,47c-.06,0-.13-.03-.18-.07-.04-.06-.07-.12-.07-.18,0-.07,.03-.13,.07-.18,.09-.09,.26-.09,.36,0,.05,.05,.07,.11,.07,.18,0,.06-.02,.13-.07,.17-.05,.06-.11,.08-.18,.08Z"
           id="path98" />
        <path
           class="uuid-25f19c22-641f-4ca2-ab60-5bf64a186493"
           d="M7,52.25c-.06,0-.12-.02-.17-.07-.05-.05-.08-.11-.08-.18s.03-.13,.07-.18c.11-.09,.26-.09,.36,0,.05,.05,.07,.12,.07,.18,0,.07-.02,.13-.07,.18-.05,.05-.11,.07-.18,.07Z"
           id="path100" />
        <path
           class="uuid-25f19c22-641f-4ca2-ab60-5bf64a186493"
           d="M7.25,54.5c-.06,0-.13-.03-.17-.07-.05-.05-.08-.11-.08-.18,0-.06,.03-.13,.07-.18,.1-.09,.26-.09,.36,0,.04,.05,.07,.11,.07,.18s-.03,.13-.07,.18c-.05,.04-.11,.07-.18,.07Z"
           id="path102" />
        <path
           class="uuid-25f19c22-641f-4ca2-ab60-5bf64a186493"
           d="M5,56.75c-.06,0-.13-.03-.17-.07-.05-.05-.08-.11-.08-.18s.03-.13,.07-.17c.1-.1,.26-.1,.36,0,.05,.05,.07,.11,.07,.18s-.03,.13-.07,.18c-.05,.05-.12,.07-.18,.07Z"
           id="path104" />
        <path
           class="uuid-25f19c22-641f-4ca2-ab60-5bf64a186493"
           d="M2.25,54.5c-.06,0-.12-.02-.17-.07-.05-.05-.08-.11-.08-.18,0-.06,.03-.13,.07-.17,.11-.11,.26-.1,.35,0,.06,.06,.08,.12,.08,.18s-.02,.13-.07,.18c-.06,.05-.12,.07-.18,.07Z"
           id="path106" />
        <path
           class="uuid-25f19c22-641f-4ca2-ab60-5bf64a186493"
           d="M9.75,64c-.06,0-.12-.02-.17-.07-.05-.05-.08-.11-.08-.18s.03-.13,.07-.18c.11-.09,.26-.09,.36,0,.05,.05,.07,.11,.07,.18s-.02,.13-.07,.18-.11,.07-.18,.07Z"
           id="path108" />
        <path
           class="uuid-25f19c22-641f-4ca2-ab60-5bf64a186493"
           d="M2.25,67c-.06,0-.12-.03-.17-.07-.05-.05-.08-.11-.08-.18s.03-.13,.07-.18c.1-.09,.26-.09,.36,0,.05,.05,.07,.11,.07,.18,0,.06-.02,.13-.07,.18-.06,.05-.12,.07-.18,.07Z"
           id="path110" />
        <path
           class="uuid-25f19c22-641f-4ca2-ab60-5bf64a186493"
           d="M1,68c-.06,0-.13-.03-.18-.07-.04-.05-.07-.11-.07-.18,0-.06,.03-.13,.07-.18,.1-.09,.27-.09,.36,0,.05,.05,.07,.12,.07,.18s-.02,.13-.07,.18c-.05,.04-.11,.07-.18,.07Z"
           id="path112" />
        <path
           class="uuid-25f19c22-641f-4ca2-ab60-5bf64a186493"
           d="M11,71c-.06,0-.12-.02-.17-.07-.05-.05-.08-.11-.08-.18s.03-.13,.07-.18c.11-.09,.26-.09,.36,0,.05,.05,.07,.12,.07,.18s-.02,.13-.07,.18c-.05,.05-.12,.07-.18,.07Z"
           id="path114" />
        <path
           class="uuid-25f19c22-641f-4ca2-ab60-5bf64a186493"
           d="M17.75,69.75c-.06,0-.12-.02-.17-.07-.05-.05-.08-.11-.08-.18s.03-.13,.07-.18c.11-.09,.26-.09,.36,0,.05,.05,.07,.11,.07,.18s-.03,.13-.07,.18c-.05,.05-.12,.07-.18,.07Z"
           id="path116" />
        <path
           class="uuid-25f19c22-641f-4ca2-ab60-5bf64a186493"
           d="M18.25,67.25c-.06,0-.12-.03-.17-.07-.05-.06-.08-.12-.08-.18,0-.07,.03-.13,.07-.18,.11-.09,.26-.09,.36,0,.05,.05,.07,.11,.07,.18,0,.06-.02,.13-.07,.17-.05,.05-.11,.08-.18,.08Z"
           id="path118" />
        <path
           class="uuid-25f19c22-641f-4ca2-ab60-5bf64a186493"
           d="M16.25,62.25c-.07,0-.13-.03-.18-.08-.04-.04-.07-.1-.07-.17s.03-.13,.07-.18c.1-.09,.26-.09,.36,0,.05,.05,.07,.11,.07,.18s-.02,.13-.07,.18c-.05,.04-.11,.07-.18,.07Z"
           id="path120" />
        <path
           class="uuid-25f19c22-641f-4ca2-ab60-5bf64a186493"
           d="M19.25,62.25c-.06,0-.13-.03-.17-.07-.05-.05-.08-.11-.08-.18s.03-.13,.07-.18c.1-.09,.27-.09,.36,0,.04,.04,.07,.11,.07,.18s-.03,.14-.08,.18c-.04,.04-.1,.07-.17,.07Z"
           id="path122" />
        <path
           class="uuid-25f19c22-641f-4ca2-ab60-5bf64a186493"
           d="M19.5,57.75c-.06,0-.12-.02-.17-.07-.05-.05-.08-.11-.08-.18,0-.06,.03-.13,.07-.17,.11-.11,.26-.1,.36,0,.05,.06,.07,.12,.07,.18s-.02,.13-.07,.18c-.05,.05-.11,.07-.18,.07Z"
           id="path124" />
        <path
           class="uuid-25f19c22-641f-4ca2-ab60-5bf64a186493"
           d="M18.75,55.75c-.06,0-.12-.02-.17-.07-.05-.05-.08-.11-.08-.18s.03-.13,.08-.18c.1-.09,.26-.09,.35,0,.05,.05,.07,.12,.07,.18s-.02,.12-.07,.17c-.05,.05-.11,.08-.18,.08Z"
           id="path126" />
        <path
           class="uuid-25f19c22-641f-4ca2-ab60-5bf64a186493"
           d="M16.25,54.75c-.06,0-.13-.03-.18-.07-.04-.05-.07-.11-.07-.18,0-.06,.03-.12,.07-.17,.1-.1,.26-.1,.36,0,.05,.05,.07,.12,.07,.18,0,.07-.02,.13-.07,.18-.05,.05-.11,.07-.18,.07Z"
           id="path128" />
        <path
           class="uuid-25f19c22-641f-4ca2-ab60-5bf64a186493"
           d="M19.25,51c-.06,0-.13-.03-.17-.07-.05-.05-.08-.12-.08-.18,0-.07,.03-.13,.07-.18,.1-.09,.27-.09,.36,0,.04,.04,.07,.11,.07,.18s-.02,.13-.07,.18c-.05,.04-.11,.07-.18,.07Z"
           id="path130" />
        <path
           class="uuid-25f19c22-641f-4ca2-ab60-5bf64a186493"
           d="M19,47c-.06,0-.13-.03-.17-.07-.05-.05-.08-.12-.08-.18,0-.07,.03-.13,.07-.18,.1-.09,.26-.09,.36,0,.04,.05,.07,.11,.07,.18,0,.06-.02,.13-.07,.17-.05,.06-.11,.08-.18,.08Z"
           id="path132" />
        <path
           class="uuid-25f19c22-641f-4ca2-ab60-5bf64a186493"
           d="M16.25,47.25c-.07,0-.13-.03-.18-.07-.04-.05-.07-.12-.07-.18,0-.07,.03-.13,.07-.18,.09-.09,.26-.09,.36,0,.05,.05,.07,.11,.07,.18,0,.06-.02,.13-.07,.18-.05,.05-.11,.07-.18,.07Z"
           id="path134" />
        <path
           class="uuid-25f19c22-641f-4ca2-ab60-5bf64a186493"
           d="M21,45.25c-.06,0-.12-.02-.17-.07-.05-.05-.08-.11-.08-.18s.03-.13,.08-.18c.1-.09,.25-.09,.35,0,.05,.05,.07,.12,.07,.18s-.02,.12-.07,.17c-.05,.06-.11,.08-.18,.08Z"
           id="path136" />
        <path
           class="uuid-25f19c22-641f-4ca2-ab60-5bf64a186493"
           d="M28.5,51c-.06,0-.13-.03-.17-.07-.05-.05-.08-.11-.08-.18s.03-.13,.08-.18c.09-.09,.26-.09,.35,0,.05,.06,.07,.12,.07,.18s-.02,.13-.07,.18c-.05,.04-.11,.07-.18,.07Z"
           id="path138" />
        <path
           class="uuid-25f19c22-641f-4ca2-ab60-5bf64a186493"
           d="M32.5,50.75c-.06,0-.13-.03-.17-.07-.05-.05-.08-.11-.08-.18s.03-.13,.08-.18c.09-.09,.25-.09,.35,0,.05,.05,.07,.12,.07,.18s-.02,.13-.07,.18c-.05,.04-.11,.07-.18,.07Z"
           id="path140" />
        <path
           class="uuid-25f19c22-641f-4ca2-ab60-5bf64a186493"
           d="M27.25,54.25c-.07,0-.13-.03-.18-.08-.04-.04-.07-.1-.07-.17s.03-.14,.08-.18c.09-.09,.26-.09,.35,0,.05,.05,.07,.11,.07,.18,0,.06-.02,.13-.07,.18-.04,.04-.11,.07-.18,.07Z"
           id="path142" />
        <path
           class="uuid-25f19c22-641f-4ca2-ab60-5bf64a186493"
           d="M32,55.75c-.06,0-.12-.03-.17-.07-.05-.05-.08-.11-.08-.18,0-.06,.03-.13,.07-.17,.11-.11,.26-.1,.36,0,.05,.06,.07,.12,.07,.18,0,.07-.02,.13-.07,.18-.05,.04-.11,.07-.18,.07Z"
           id="path144" />
        <path
           class="uuid-25f19c22-641f-4ca2-ab60-5bf64a186493"
           d="M32,57.5c-.06,0-.12-.02-.17-.07-.05-.05-.08-.11-.08-.18,0-.06,.03-.13,.07-.17,.11-.11,.26-.1,.36,0,.05,.06,.07,.12,.07,.18s-.02,.13-.07,.18c-.05,.05-.11,.07-.18,.07Z"
           id="path146" />
        <path
           class="uuid-25f19c22-641f-4ca2-ab60-5bf64a186493"
           d="M34,58.25c-.07,0-.13-.03-.18-.08-.04-.04-.07-.1-.07-.17s.03-.14,.08-.18c.09-.09,.26-.09,.35,0,.05,.05,.07,.11,.07,.18,0,.06-.02,.13-.07,.18-.04,.04-.11,.07-.18,.07Z"
           id="path148" />
        <path
           class="uuid-25f19c22-641f-4ca2-ab60-5bf64a186493"
           d="M34,60.25c-.06,0-.12-.02-.17-.07-.05-.05-.08-.11-.08-.18s.03-.13,.08-.18c.09-.09,.26-.09,.35,0,.05,.06,.07,.12,.07,.18s-.02,.13-.07,.18c-.05,.04-.11,.07-.18,.07Z"
           id="path150" />
        <path
           class="uuid-25f19c22-641f-4ca2-ab60-5bf64a186493"
           d="M34.25,66.75c-.06,0-.13-.03-.17-.07-.05-.05-.08-.11-.08-.18s.03-.13,.08-.18c.09-.09,.25-.09,.35,0,.05,.05,.07,.12,.07,.18s-.02,.13-.07,.18c-.05,.04-.11,.07-.18,.07Z"
           id="path152" />
        <path
           class="uuid-25f19c22-641f-4ca2-ab60-5bf64a186493"
           d="M26,64.75c-.06,0-.12-.02-.17-.07-.05-.05-.08-.11-.08-.18s.03-.13,.08-.18c.09-.09,.26-.09,.35,0,.05,.04,.07,.11,.07,.17,0,.07-.02,.13-.07,.18-.05,.05-.11,.07-.18,.07Z"
           id="path154" />
        <path
           class="uuid-25f19c22-641f-4ca2-ab60-5bf64a186493"
           d="M37.25,57.5c-.06,0-.13-.03-.17-.07-.05-.05-.08-.11-.08-.18s.03-.13,.08-.18c.09-.09,.25-.09,.34,0,.06,.05,.08,.12,.08,.18s-.02,.12-.07,.17c-.05,.06-.11,.08-.18,.08Z"
           id="path156" />
        <path
           class="uuid-25f19c22-641f-4ca2-ab60-5bf64a186493"
           d="M39.25,56c-.06,0-.13-.03-.17-.07-.05-.05-.08-.11-.08-.18s.03-.13,.08-.18c.09-.09,.25-.09,.35,0,.05,.05,.07,.12,.07,.18s-.02,.12-.07,.17c-.05,.06-.11,.08-.18,.08Z"
           id="path158" />
        <path
           class="uuid-25f19c22-641f-4ca2-ab60-5bf64a186493"
           d="M41.75,55c-.06,0-.13-.03-.17-.07-.05-.05-.08-.11-.08-.18s.03-.14,.08-.18c.09-.09,.26-.09,.35,0,.05,.05,.07,.11,.07,.18,0,.06-.02,.12-.07,.17-.05,.05-.11,.08-.18,.08Z"
           id="path160" />
        <path
           class="uuid-25f19c22-641f-4ca2-ab60-5bf64a186493"
           d="M41.75,50.75c-.06,0-.12-.02-.17-.07-.05-.05-.08-.11-.08-.18s.03-.13,.08-.18c.09-.09,.26-.09,.35,0,.05,.05,.07,.11,.07,.18,0,.06-.02,.13-.07,.18-.05,.04-.11,.07-.18,.07Z"
           id="path162" />
        <path
           class="uuid-25f19c22-641f-4ca2-ab60-5bf64a186493"
           d="M43.5,44.75c-.06,0-.12-.03-.17-.07-.05-.05-.08-.11-.08-.18s.03-.13,.08-.18c.09-.09,.25-.09,.35,0,.05,.05,.07,.12,.07,.18s-.02,.13-.07,.18c-.05,.05-.12,.07-.18,.07Z"
           id="path164" />
        <path
           class="uuid-25f19c22-641f-4ca2-ab60-5bf64a186493"
           d="M51,50.5c-.06,0-.12-.03-.17-.07-.05-.05-.08-.11-.08-.18s.03-.13,.08-.18c.09-.09,.25-.09,.35,0,.05,.05,.07,.11,.07,.18s-.02,.13-.07,.18c-.05,.05-.11,.07-.18,.07Z"
           id="path166" />
        <path
           class="uuid-25f19c22-641f-4ca2-ab60-5bf64a186493"
           d="M52,46.5c-.06,0-.13-.03-.17-.07-.05-.05-.08-.11-.08-.18s.03-.13,.08-.18c.09-.09,.25-.09,.35,0,.05,.06,.07,.12,.07,.18s-.02,.12-.07,.17c-.05,.06-.11,.08-.18,.08Z"
           id="path168" />
        <path
           class="uuid-25f19c22-641f-4ca2-ab60-5bf64a186493"
           d="M55,47c-.06,0-.12-.02-.17-.07-.05-.05-.08-.11-.08-.18s.03-.13,.08-.18c.09-.09,.25-.09,.35,0,.05,.05,.07,.12,.07,.18s-.02,.13-.07,.18c-.05,.05-.11,.07-.18,.07Z"
           id="path170" />
        <path
           class="uuid-25f19c22-641f-4ca2-ab60-5bf64a186493"
           d="M55,54.25c-.06,0-.12-.03-.17-.07-.05-.05-.08-.11-.08-.18s.03-.13,.08-.18c.09-.09,.25-.09,.35,0,.05,.05,.07,.12,.07,.18s-.02,.13-.07,.18c-.05,.05-.11,.07-.18,.07Z"
           id="path172" />
        <path
           class="uuid-25f19c22-641f-4ca2-ab60-5bf64a186493"
           d="M51.25,56.25c-.06,0-.13-.03-.17-.07-.05-.05-.08-.11-.08-.18s.03-.13,.08-.18c.09-.09,.25-.09,.35,0,.05,.05,.07,.11,.07,.18s-.02,.13-.07,.18c-.05,.04-.11,.07-.18,.07Z"
           id="path174" />
        <path
           class="uuid-25f19c22-641f-4ca2-ab60-5bf64a186493"
           d="M52.25,59.75c-.06,0-.12-.02-.17-.07-.05-.05-.08-.11-.08-.18s.03-.13,.08-.18c.09-.09,.25-.09,.35,0,.05,.06,.07,.12,.07,.18s-.02,.12-.07,.17c-.05,.06-.11,.08-.18,.08Z"
           id="path176" />
        <path
           class="uuid-25f19c22-641f-4ca2-ab60-5bf64a186493"
           d="M51,63.75c-.06,0-.13-.03-.17-.07-.05-.05-.08-.11-.08-.18s.03-.13,.08-.18c.09-.09,.25-.09,.35,0,.05,.05,.07,.12,.07,.18s-.02,.13-.07,.17c-.05,.06-.11,.08-.18,.08Z"
           id="path178" />
        <path
           class="uuid-25f19c22-641f-4ca2-ab60-5bf64a186493"
           d="M53.25,63.75c-.06,0-.13-.03-.17-.07-.05-.05-.08-.12-.08-.18s.03-.13,.07-.17c.1-.1,.26-.1,.36,0,.05,.06,.07,.12,.07,.18s-.02,.12-.07,.17c-.05,.05-.11,.08-.18,.08Z"
           id="path180" />
        <path
           class="uuid-25f19c22-641f-4ca2-ab60-5bf64a186493"
           d="M55,65.25c-.06,0-.12-.03-.17-.07-.05-.05-.08-.11-.08-.18s.03-.13,.08-.18c.09-.09,.25-.09,.35,0,.05,.05,.07,.12,.07,.18s-.02,.13-.07,.18c-.05,.05-.11,.07-.18,.07Z"
           id="path182" />
        <path
           class="uuid-25f19c22-641f-4ca2-ab60-5bf64a186493"
           d="M56.25,64.25c-.06,0-.12-.03-.17-.07-.05-.05-.08-.11-.08-.18s.03-.13,.08-.18c.09-.09,.25-.09,.35,0,.05,.05,.07,.12,.07,.18,0,.07-.02,.13-.07,.18-.05,.05-.11,.07-.18,.07Z"
           id="path184" />
        <path
           class="uuid-25f19c22-641f-4ca2-ab60-5bf64a186493"
           d="M56.5,62c-.06,0-.13-.03-.17-.07-.05-.06-.08-.12-.08-.18,0-.07,.03-.13,.08-.18,.07-.08,.26-.09,.35,0,.05,.04,.07,.11,.07,.17s-.02,.12-.07,.17c-.05,.05-.11,.08-.18,.08Z"
           id="path186" />
        <path
           class="uuid-25f19c22-641f-4ca2-ab60-5bf64a186493"
           d="M58.25,61.5c-.06,0-.13-.03-.17-.07-.05-.05-.08-.12-.08-.18s.03-.13,.07-.17c.1-.1,.27-.1,.36,0,.05,.06,.07,.12,.07,.18s-.02,.12-.07,.17c-.04,.05-.11,.08-.18,.08Z"
           id="path188" />
        <path
           class="uuid-25f19c22-641f-4ca2-ab60-5bf64a186493"
           d="M21,27c-.06,0-.12-.02-.17-.07-.05-.05-.08-.11-.08-.18s.03-.13,.08-.18c.1-.09,.25-.09,.35,0,.05,.05,.07,.12,.07,.18s-.02,.13-.07,.18c-.05,.05-.12,.07-.18,.07Z"
           id="path190" />
        <path
           class="uuid-25f19c22-641f-4ca2-ab60-5bf64a186493"
           d="M22.75,24c-.07,0-.13-.03-.18-.07-.04-.05-.07-.11-.07-.18s.03-.13,.08-.18c.1-.09,.26-.09,.35,0,.05,.05,.07,.12,.07,.18s-.02,.13-.07,.18c-.04,.04-.11,.07-.18,.07Z"
           id="path192" />
        <path
           class="uuid-25f19c22-641f-4ca2-ab60-5bf64a186493"
           d="M25.25,24.5c-.06,0-.12-.03-.17-.07-.05-.05-.08-.11-.08-.18s.03-.13,.08-.18c.1-.09,.25-.09,.35,0,.05,.05,.07,.12,.07,.18s-.02,.13-.07,.18c-.05,.04-.11,.07-.18,.07Z"
           id="path194" />
        <path
           class="uuid-25f19c22-641f-4ca2-ab60-5bf64a186493"
           d="M35.25,23.25c-.06,0-.12-.02-.17-.07-.05-.05-.08-.11-.08-.18s.03-.13,.08-.18c.1-.09,.25-.09,.35,0,.05,.05,.07,.11,.07,.18s-.03,.13-.07,.18c-.05,.05-.11,.07-.18,.07Z"
           id="path196" />
        <path
           class="uuid-25f19c22-641f-4ca2-ab60-5bf64a186493"
           d="M39,24.75c-.06,0-.12-.02-.17-.07-.05-.05-.08-.11-.08-.18s.03-.13,.08-.18c.1-.09,.25-.09,.35,0,.05,.05,.07,.11,.07,.18s-.03,.13-.07,.18c-.05,.05-.12,.07-.18,.07Z"
           id="path198" />
        <path
           class="uuid-25f19c22-641f-4ca2-ab60-5bf64a186493"
           d="M45,29.5c-.06,0-.12-.02-.17-.07-.05-.05-.08-.11-.08-.18s.03-.13,.08-.18c.1-.09,.25-.09,.35,0,.05,.05,.07,.11,.07,.18s-.02,.13-.07,.18c-.05,.05-.12,.07-.18,.07Z"
           id="path200" />
        <path
           class="uuid-25f19c22-641f-4ca2-ab60-5bf64a186493"
           d="M46.25,29c-.06,0-.13-.03-.17-.07-.05-.05-.08-.11-.08-.18s.03-.13,.08-.18c.09-.09,.25-.09,.34,0,.06,.06,.08,.12,.08,.18s-.02,.12-.07,.17c-.05,.06-.11,.08-.18,.08Z"
           id="path202" />
        <path
           class="uuid-25f19c22-641f-4ca2-ab60-5bf64a186493"
           d="M55.25,28c-.06,0-.13-.03-.17-.07-.05-.05-.08-.11-.08-.18s.03-.13,.08-.18c.09-.09,.25-.09,.35,0,.05,.05,.07,.12,.07,.18s-.02,.13-.07,.18c-.05,.04-.11,.07-.18,.07Z"
           id="path204" />
        <path
           class="uuid-25f19c22-641f-4ca2-ab60-5bf64a186493"
           d="M51.25,25.25c-.06,0-.12-.02-.17-.07-.05-.05-.08-.11-.08-.18s.03-.13,.08-.18c.09-.09,.25-.09,.35,0,.05,.05,.07,.11,.07,.18s-.03,.13-.07,.18c-.05,.05-.11,.07-.18,.07Z"
           id="path206" />
        <path
           class="uuid-25f19c22-641f-4ca2-ab60-5bf64a186493"
           d="M52,29.5c-.06,0-.13-.03-.17-.07-.05-.05-.08-.11-.08-.18s.03-.13,.08-.18c.09-.09,.25-.09,.35,0,.05,.06,.07,.12,.07,.18s-.02,.12-.07,.17c-.05,.06-.11,.08-.18,.08Z"
           id="path208" />
        <path
           class="uuid-25f19c22-641f-4ca2-ab60-5bf64a186493"
           d="M62.5,35.5c-.06,0-.13-.03-.17-.07-.05-.05-.08-.11-.08-.18s.03-.13,.08-.18c.08-.08,.24-.09,.34,0,.06,.05,.08,.12,.08,.18s-.02,.13-.07,.18c-.05,.05-.12,.07-.18,.07Z"
           id="path210" />
        <path
           class="uuid-25f19c22-641f-4ca2-ab60-5bf64a186493"
           d="M58.25,38.25c-.07,0-.13-.03-.17-.07-.05-.05-.08-.12-.08-.18s.03-.13,.07-.17c.1-.1,.27-.1,.36,0,.05,.06,.07,.12,.07,.18s-.02,.12-.07,.17c-.04,.05-.11,.08-.18,.08Z"
           id="path212" />
        <path
           class="uuid-25f19c22-641f-4ca2-ab60-5bf64a186493"
           d="M49,39c-.07,0-.13-.03-.17-.07-.05-.05-.08-.12-.08-.18s.03-.13,.07-.17c.1-.1,.26-.1,.36,0,.05,.06,.07,.12,.07,.18s-.02,.12-.07,.17c-.05,.05-.11,.08-.18,.08Z"
           id="path214" />
        <path
           class="uuid-25f19c22-641f-4ca2-ab60-5bf64a186493"
           d="M48,41.25c-.06,0-.12-.02-.17-.07-.05-.05-.08-.11-.08-.18s.03-.13,.08-.18c.09-.09,.24-.09,.34,0,.06,.05,.08,.12,.08,.18s-.02,.12-.07,.17c-.06,.06-.11,.08-.18,.08Z"
           id="path216" />
        <path
           class="uuid-25f19c22-641f-4ca2-ab60-5bf64a186493"
           d="M52,43c-.07,0-.13-.03-.18-.08-.04-.04-.07-.1-.07-.17s.03-.13,.08-.18c.09-.09,.25-.09,.35,0,.05,.05,.07,.12,.07,.18s-.02,.13-.07,.18c-.05,.04-.11,.07-.18,.07Z"
           id="path218" />
        <path
           class="uuid-25f19c22-641f-4ca2-ab60-5bf64a186493"
           d="M53.5,45c-.06,0-.13-.03-.17-.07-.05-.05-.08-.11-.08-.18s.03-.13,.08-.18c.08-.09,.25-.09,.35,0,.05,.05,.07,.12,.07,.18s-.02,.13-.07,.18c-.05,.04-.11,.07-.18,.07Z"
           id="path220" />
        <path
           class="uuid-25f19c22-641f-4ca2-ab60-5bf64a186493"
           d="M62.25,48c-.06,0-.13-.03-.17-.07-.05-.05-.08-.12-.08-.18s.03-.13,.07-.17c.1-.1,.26-.1,.36,0,.05,.06,.07,.12,.07,.18s-.02,.12-.07,.17c-.05,.05-.11,.08-.18,.08Z"
           id="path222" />
        <path
           class="uuid-25f19c22-641f-4ca2-ab60-5bf64a186493"
           d="M65,51.75c-.06,0-.12-.03-.17-.07-.05-.05-.08-.11-.08-.18s.03-.14,.08-.18c.09-.08,.25-.09,.35,0,.04,.05,.07,.11,.07,.18s-.02,.13-.07,.18c-.05,.05-.11,.07-.18,.07Z"
           id="path224" />
        <path
           class="uuid-25f19c22-641f-4ca2-ab60-5bf64a186493"
           d="M67,51.75c-.06,0-.13-.03-.17-.07-.05-.05-.08-.11-.08-.18s.03-.13,.08-.18c.08-.08,.25-.09,.35,0,.05,.05,.07,.11,.07,.18s-.02,.13-.07,.18c-.05,.05-.11,.07-.18,.07Z"
           id="path226" />
        <path
           class="uuid-25f19c22-641f-4ca2-ab60-5bf64a186493"
           d="M69.5,45c-.06,0-.12-.03-.17-.07-.05-.05-.08-.11-.08-.18s.03-.13,.08-.18c.09-.09,.25-.09,.35,0,.05,.05,.07,.11,.07,.18s-.02,.13-.07,.18c-.05,.05-.11,.07-.18,.07Z"
           id="path228" />
        <path
           class="uuid-25f19c22-641f-4ca2-ab60-5bf64a186493"
           d="M60,39c-.06,0-.12-.02-.17-.07-.05-.05-.08-.11-.08-.18s.03-.13,.08-.18c.09-.09,.25-.09,.35,0,.04,.05,.07,.11,.07,.18s-.03,.13-.07,.18c-.05,.05-.11,.07-.18,.07Z"
           id="path230" />
        <path
           class="uuid-25f19c22-641f-4ca2-ab60-5bf64a186493"
           d="M47.25,47.75c-.06,0-.13-.03-.17-.07-.05-.05-.08-.11-.08-.18s.03-.14,.08-.18c.08-.08,.25-.09,.35,0,.04,.05,.07,.11,.07,.18s-.02,.13-.07,.18c-.05,.05-.11,.07-.18,.07Z"
           id="path232" />
        <path
           class="uuid-25f19c22-641f-4ca2-ab60-5bf64a186493"
           d="M32.5,47c-.06,0-.12-.03-.17-.07-.05-.05-.08-.11-.08-.18s.03-.13,.08-.18c.09-.09,.26-.09,.35,0,.05,.05,.07,.12,.07,.18s-.02,.13-.07,.18c-.05,.04-.11,.07-.18,.07Z"
           id="path234" />
        <path
           class="uuid-25f19c22-641f-4ca2-ab60-5bf64a186493"
           d="M37,44.5c-.06,0-.12-.03-.17-.07-.05-.05-.08-.12-.08-.18,0-.07,.03-.13,.07-.17,.11-.11,.26-.1,.36,0,.05,.05,.07,.12,.07,.18s-.02,.13-.07,.17c-.05,.05-.11,.08-.18,.08Z"
           id="path236" />
        <path
           class="uuid-25f19c22-641f-4ca2-ab60-5bf64a186493"
           d="M26.25,37.75c-.06,0-.12-.03-.17-.07-.05-.05-.08-.11-.08-.18s.03-.13,.08-.18c.1-.09,.25-.09,.35,0,.05,.05,.07,.12,.07,.18s-.02,.13-.07,.18c-.05,.04-.11,.07-.18,.07Z"
           id="path238" />
        <path
           class="uuid-25f19c22-641f-4ca2-ab60-5bf64a186493"
           d="M29.75,35.5c-.06,0-.12-.02-.17-.07-.05-.05-.08-.11-.08-.18s.03-.13,.08-.18c.1-.09,.25-.09,.35,0,.05,.05,.07,.12,.07,.18s-.02,.12-.07,.17c-.05,.06-.11,.08-.18,.08Z"
           id="path240" />
        <path
           class="uuid-25f19c22-641f-4ca2-ab60-5bf64a186493"
           d="M17,28.5c-.06,0-.12-.02-.17-.07-.05-.05-.08-.11-.08-.18,0-.06,.03-.12,.07-.17,.11-.11,.26-.1,.36,0,.05,.05,.07,.12,.07,.18,0,.07-.02,.13-.07,.18-.05,.05-.11,.07-.18,.07Z"
           id="path242" />
        <path
           class="uuid-25f19c22-641f-4ca2-ab60-5bf64a186493"
           d="M10.5,29.5c-.06,0-.12-.02-.17-.07-.05-.05-.08-.11-.08-.18,0-.06,.03-.12,.07-.17,.11-.11,.26-.1,.36,0,.05,.06,.07,.12,.07,.18s-.02,.13-.07,.18c-.05,.05-.11,.07-.18,.07Z"
           id="path244" />
        <path
           class="uuid-25f19c22-641f-4ca2-ab60-5bf64a186493"
           d="M6,31.5c-.06,0-.12-.02-.17-.07-.05-.05-.08-.11-.08-.18,0-.06,.03-.12,.07-.17,.12-.11,.26-.1,.36,0,.05,.06,.07,.12,.07,.18,0,.07-.02,.13-.07,.18-.05,.05-.11,.07-.18,.07Z"
           id="path246" />
        <path
           class="uuid-25f19c22-641f-4ca2-ab60-5bf64a186493"
           d="M2.5,35.25c-.07,0-.13-.03-.17-.07-.05-.05-.08-.12-.08-.18,0-.07,.03-.13,.08-.18,.08-.09,.24-.09,.34,0,.06,.05,.08,.11,.08,.18,0,.06-.02,.13-.07,.17-.05,.06-.11,.08-.18,.08Z"
           id="path248" />
        <path
           class="uuid-25f19c22-641f-4ca2-ab60-5bf64a186493"
           d="M11.25,36.75c-.07,0-.13-.03-.18-.07-.04-.05-.07-.12-.07-.18,0-.07,.03-.13,.07-.18,.1-.09,.25-.09,.36,0,.05,.05,.07,.11,.07,.18s-.02,.13-.07,.18c-.05,.05-.11,.07-.18,.07Z"
           id="path250" />
        <path
           class="uuid-25f19c22-641f-4ca2-ab60-5bf64a186493"
           d="M17,42c-.06,0-.12-.02-.17-.07-.05-.05-.08-.11-.08-.18,0-.06,.03-.13,.07-.18,.11-.09,.26-.09,.36,0,.05,.05,.07,.11,.07,.18s-.03,.13-.07,.18c-.05,.05-.11,.07-.18,.07Z"
           id="path252" />
        <path
           class="uuid-25f19c22-641f-4ca2-ab60-5bf64a186493"
           d="M12.75,36c-.06,0-.13-.03-.17-.07-.05-.05-.08-.11-.08-.18,0-.06,.03-.13,.07-.17,.1-.1,.26-.1,.36,0,.05,.05,.07,.11,.07,.18s-.02,.13-.07,.18c-.05,.05-.12,.07-.18,.07Z"
           id="path254" />
        <path
           class="uuid-25f19c22-641f-4ca2-ab60-5bf64a186493"
           d="M26.5,30.25c-.06,0-.12-.02-.17-.07-.05-.05-.08-.11-.08-.18s.03-.13,.08-.18c.1-.09,.25-.09,.35,0,.05,.05,.07,.12,.07,.18s-.02,.13-.07,.18c-.05,.05-.11,.07-.18,.07Z"
           id="path256" />
        <path
           class="uuid-25f19c22-641f-4ca2-ab60-5bf64a186493"
           d="M37.75,31c-.06,0-.12-.02-.17-.07-.05-.05-.08-.11-.08-.18s.03-.13,.08-.18c.1-.09,.25-.09,.35,0,.05,.05,.07,.11,.07,.18s-.02,.13-.07,.18c-.05,.05-.12,.07-.18,.07Z"
           id="path258" />
        <path
           class="uuid-25f19c22-641f-4ca2-ab60-5bf64a186493"
           d="M39.5,32.5c-.06,0-.12-.02-.17-.07-.05-.05-.08-.11-.08-.18s.03-.13,.08-.18c.08-.09,.26-.09,.35,0,.05,.04,.07,.11,.07,.17s-.02,.13-.07,.18c-.05,.04-.11,.07-.18,.07Z"
           id="path260" />
        <path
           class="uuid-25f19c22-641f-4ca2-ab60-5bf64a186493"
           d="M28,42c-.06,0-.12-.03-.17-.07-.05-.05-.08-.12-.08-.18s.03-.12,.07-.17c.11-.1,.26-.1,.35,0,.06,.06,.08,.12,.08,.18s-.02,.13-.07,.17c-.05,.06-.11,.08-.18,.08Z"
           id="path262" />
        <path
           class="uuid-25f19c22-641f-4ca2-ab60-5bf64a186493"
           d="M6.5,20.5c-.06,0-.13-.03-.17-.07-.05-.05-.08-.12-.08-.18,0-.07,.03-.13,.07-.18,.1-.09,.26-.09,.36,0,.05,.05,.07,.11,.07,.18,0,.06-.02,.13-.07,.17-.05,.06-.11,.08-.18,.08Z"
           id="path264" />
        <path
           class="uuid-25f19c22-641f-4ca2-ab60-5bf64a186493"
           d="M10.25,20.25c-.06,0-.13-.03-.17-.07-.05-.05-.08-.11-.08-.18s.03-.13,.07-.18c.1-.09,.26-.09,.36,0,.05,.05,.07,.11,.07,.18s-.02,.13-.07,.18c-.05,.05-.11,.07-.18,.07Z"
           id="path266" />
        <path
           class="uuid-25f19c22-641f-4ca2-ab60-5bf64a186493"
           d="M11.75,23.5c-.06,0-.12-.02-.17-.07-.05-.05-.08-.11-.08-.18,0-.06,.03-.12,.07-.17,.11-.11,.26-.1,.36,0,.05,.06,.07,.12,.07,.18s-.02,.13-.07,.18c-.05,.05-.12,.07-.18,.07Z"
           id="path268" />
        <path
           class="uuid-25f19c22-641f-4ca2-ab60-5bf64a186493"
           d="M3,25.75c-.06,0-.13-.03-.17-.07-.05-.05-.08-.11-.08-.18s.03-.13,.07-.18c.1-.09,.26-.09,.36,0,.05,.05,.07,.11,.07,.18s-.02,.13-.07,.18c-.05,.05-.12,.07-.18,.07Z"
           id="path270" />
        <path
           class="uuid-25f19c22-641f-4ca2-ab60-5bf64a186493"
           d="M64.25,29.5c-.06,0-.13-.03-.17-.07-.05-.05-.08-.12-.08-.18s.03-.13,.07-.17c.1-.1,.25-.1,.35,0,.06,.05,.08,.12,.08,.18s-.02,.13-.07,.17c-.05,.06-.11,.08-.18,.08Z"
           id="path272" />
        <path
           class="uuid-25f19c22-641f-4ca2-ab60-5bf64a186493"
           d="M67.5,30.75c-.06,0-.13-.03-.17-.07-.05-.05-.08-.11-.08-.18,0-.06,.03-.13,.07-.17,.1-.1,.26-.1,.36,0,.05,.06,.07,.12,.07,.18s-.02,.13-.07,.18c-.05,.04-.11,.07-.18,.07Z"
           id="path274" />
        <path
           class="uuid-25f19c22-641f-4ca2-ab60-5bf64a186493"
           d="M69.5,29.75c-.06,0-.13-.03-.17-.07-.05-.05-.08-.11-.08-.18s.03-.13,.08-.18c.09-.09,.25-.09,.35,0,.05,.05,.07,.11,.07,.18s-.02,.13-.07,.18c-.05,.04-.11,.07-.18,.07Z"
           id="path276" />
        <path
           class="uuid-25f19c22-641f-4ca2-ab60-5bf64a186493"
           d="M7.25,15.75c-.07,0-.13-.03-.18-.08-.04-.04-.07-.1-.07-.17s.03-.13,.07-.18c.1-.09,.26-.09,.36,0,.04,.05,.07,.11,.07,.18s-.03,.13-.07,.18c-.05,.04-.11,.07-.18,.07Z"
           id="path278" />
        <path
           class="uuid-25f19c22-641f-4ca2-ab60-5bf64a186493"
           d="M1.5,9c-.06,0-.13-.03-.18-.07-.04-.05-.07-.11-.07-.18s.03-.13,.07-.18c.09-.09,.26-.09,.36,0,.05,.05,.07,.12,.07,.18s-.02,.13-.07,.18c-.05,.04-.11,.07-.18,.07Z"
           id="path280" />
        <path
           class="uuid-25f19c22-641f-4ca2-ab60-5bf64a186493"
           d="M14.5,6.5c-.06,0-.12-.02-.17-.07-.05-.05-.08-.11-.08-.18,0-.06,.03-.13,.07-.17,.11-.11,.26-.1,.36,0,.05,.05,.07,.11,.07,.18s-.02,.13-.07,.18c-.05,.05-.11,.07-.18,.07Z"
           id="path282" />
        <path
           class="uuid-25f19c22-641f-4ca2-ab60-5bf64a186493"
           d="M8.5,5.25c-.06,0-.12-.02-.17-.07-.05-.05-.08-.11-.08-.18s.03-.13,.07-.18c.1-.09,.27-.09,.36,0,.05,.04,.07,.1,.07,.17,0,.06-.02,.13-.07,.18-.05,.05-.11,.07-.18,.07Z"
           id="path284" />
        <path
           class="uuid-25f19c22-641f-4ca2-ab60-5bf64a186493"
           d="M3.5,2.5c-.07,0-.13-.03-.18-.08-.04-.04-.07-.1-.07-.17s.03-.13,.08-.18c.08-.09,.25-.09,.35,0,.04,.05,.07,.11,.07,.18s-.03,.13-.07,.18c-.05,.04-.11,.07-.18,.07Z"
           id="path286" />
        <path
           class="uuid-25f19c22-641f-4ca2-ab60-5bf64a186493"
           d="M3.75,6c-.06,0-.13-.03-.17-.07-.05-.05-.08-.11-.08-.18,0-.06,.03-.13,.07-.18,.09-.09,.26-.09,.36,0,.05,.05,.07,.11,.07,.18s-.02,.13-.07,.18c-.05,.05-.12,.07-.18,.07Z"
           id="path288" />
        <path
           class="uuid-25f19c22-641f-4ca2-ab60-5bf64a186493"
           d="M12.75,14.25c-.06,0-.13-.03-.17-.07-.05-.05-.08-.12-.08-.18,0-.07,.03-.13,.07-.18,.1-.09,.26-.09,.36,0,.05,.05,.07,.11,.07,.18,0,.06-.02,.13-.07,.17-.05,.06-.11,.08-.18,.08Z"
           id="path290" />
        <path
           class="uuid-25f19c22-641f-4ca2-ab60-5bf64a186493"
           d="M18.5,19.25c-.06,0-.12-.02-.17-.07-.05-.05-.08-.11-.08-.18,0-.06,.03-.13,.07-.17,.11-.11,.27-.1,.36,0,.05,.06,.07,.12,.07,.18,0,.07-.02,.13-.07,.18-.05,.04-.11,.07-.18,.07Z"
           id="path292" />
        <path
           class="uuid-25f19c22-641f-4ca2-ab60-5bf64a186493"
           d="M21.25,37c-.06,0-.12-.02-.17-.07-.05-.05-.08-.12-.08-.18,0-.07,.03-.13,.07-.18,.11-.09,.26-.09,.36,0,.05,.05,.07,.11,.07,.18,0,.06-.02,.13-.07,.17-.05,.06-.11,.08-.18,.08Z"
           id="path294" />
        <path
           class="uuid-25f19c22-641f-4ca2-ab60-5bf64a186493"
           d="M.75,44.25c-.06,0-.13-.03-.17-.07-.05-.05-.08-.11-.08-.18s.03-.13,.08-.18c.07-.08,.25-.09,.35,0,.04,.04,.07,.1,.07,.17s-.03,.13-.07,.18c-.05,.04-.11,.07-.18,.07Z"
           id="path296" />
        <path
           class="uuid-25f19c22-641f-4ca2-ab60-5bf64a186493"
           d="M66.5,37.25c-.06,0-.13-.03-.17-.07-.05-.05-.08-.11-.08-.18s.03-.13,.08-.18c.09-.09,.25-.09,.35,0,.05,.05,.07,.12,.07,.18s-.02,.13-.07,.18c-.05,.04-.11,.07-.18,.07Z"
           id="path298" />
        <path
           class="uuid-25f19c22-641f-4ca2-ab60-5bf64a186493"
           d="M68,66c-.06,0-.13-.03-.17-.07-.05-.05-.08-.12-.08-.18,0-.07,.03-.13,.07-.18,.1-.09,.26-.09,.36,0,.05,.05,.07,.12,.07,.18s-.02,.12-.07,.17c-.05,.05-.11,.08-.18,.08Z"
           id="path300" />
        <path
           class="uuid-25f19c22-641f-4ca2-ab60-5bf64a186493"
           d="M59.75,69.75c-.07,0-.13-.03-.18-.08-.04-.04-.07-.1-.07-.17s.03-.13,.08-.18c.09-.09,.25-.09,.35,0,.05,.05,.07,.12,.07,.18,0,.07-.02,.13-.07,.18-.05,.04-.11,.07-.18,.07Z"
           id="path302" />
        <path
           class="uuid-25f19c22-641f-4ca2-ab60-5bf64a186493"
           d="M40.5,68c-.06,0-.12-.02-.17-.07-.05-.05-.08-.11-.08-.18s.03-.13,.08-.18c.09-.09,.25-.09,.35,0,.05,.05,.07,.12,.07,.18s-.02,.13-.07,.18c-.05,.05-.12,.07-.18,.07Z"
           id="path304" />
        <path
           class="uuid-25f19c22-641f-4ca2-ab60-5bf64a186493"
           d="M44,63c-.06,0-.12-.02-.17-.07-.05-.04-.08-.11-.08-.18s.03-.13,.08-.18c.09-.09,.25-.09,.35,0,.05,.05,.07,.12,.07,.18,0,.07-.02,.13-.07,.18-.05,.05-.11,.07-.18,.07Z"
           id="path306" />
        <path
           class="uuid-25f19c22-641f-4ca2-ab60-5bf64a186493"
           d="M25.75,70c-.06,0-.12-.02-.17-.07-.05-.05-.08-.11-.08-.18s.03-.13,.08-.18c.09-.09,.25-.09,.35,0,.05,.05,.07,.11,.07,.18,0,.06-.02,.12-.07,.17-.05,.06-.11,.08-.18,.08Z"
           id="path308" />
        <path
           class="uuid-25f19c22-641f-4ca2-ab60-5bf64a186493"
           d="M4.5,60c-.06,0-.12-.02-.17-.07-.05-.05-.08-.11-.08-.18,0-.06,.03-.13,.07-.17,.11-.11,.26-.1,.36,0,.05,.06,.07,.12,.07,.18s-.02,.13-.07,.18c-.05,.05-.12,.07-.18,.07Z"
           id="path310" />
        <path
           class="uuid-25f19c22-641f-4ca2-ab60-5bf64a186493"
           d="M26.5,59.5c-.06,0-.12-.02-.17-.07-.05-.05-.08-.11-.08-.18s.03-.13,.08-.18c.1-.09,.25-.09,.35,0,.05,.05,.07,.11,.07,.18,0,.06-.02,.13-.07,.18-.05,.05-.11,.07-.18,.07Z"
           id="path312" />
        <path
           class="uuid-25f19c22-641f-4ca2-ab60-5bf64a186493"
           d="M37.25,48.5c-.06,0-.12-.03-.17-.07-.05-.05-.08-.11-.08-.18s.03-.13,.08-.18c.09-.09,.24-.09,.34,0,.06,.05,.08,.12,.08,.18s-.02,.13-.07,.18c-.06,.05-.12,.07-.18,.07Z"
           id="path314" />
        <path
           class="uuid-25f19c22-641f-4ca2-ab60-5bf64a186493"
           d="M22,41.75c-.06,0-.12-.02-.17-.07-.05-.05-.08-.11-.08-.18s.03-.13,.08-.18c.1-.09,.25-.09,.35,0,.05,.05,.07,.12,.07,.18s-.02,.13-.07,.18c-.05,.05-.12,.07-.18,.07Z"
           id="path316" />
        <path
           class="uuid-25f19c22-641f-4ca2-ab60-5bf64a186493"
           d="M8.75,40.25c-.06,0-.13-.03-.17-.07-.05-.05-.08-.12-.08-.18,0-.07,.03-.13,.08-.18,.09-.09,.25-.09,.35,0,.04,.05,.07,.11,.07,.18s-.02,.13-.07,.18c-.05,.05-.11,.07-.18,.07Z"
           id="path318" />
        <path
           class="uuid-25f19c22-641f-4ca2-ab60-5bf64a186493"
           d="M24,29c-.06,0-.12-.02-.17-.07-.05-.05-.08-.11-.08-.18s.03-.13,.08-.18c.1-.09,.25-.09,.35,0,.05,.05,.07,.12,.07,.18s-.02,.12-.07,.17c-.05,.06-.11,.08-.18,.08Z"
           id="path320" />
        <path
           class="uuid-25f19c22-641f-4ca2-ab60-5bf64a186493"
           d="M41.5,34.5c-.06,0-.13-.03-.17-.07-.05-.05-.08-.11-.08-.18s.03-.13,.08-.18c.09-.09,.25-.09,.34,0,.06,.06,.08,.12,.08,.18s-.02,.12-.07,.17c-.05,.06-.11,.08-.18,.08Z"
           id="path322" />
        <path
           class="uuid-25f19c22-641f-4ca2-ab60-5bf64a186493"
           d="M51.5,37.5c-.06,0-.13-.03-.17-.07-.05-.05-.08-.11-.08-.18s.03-.13,.08-.18c.09-.09,.25-.09,.35,0,.05,.05,.07,.12,.07,.18s-.02,.13-.07,.17c-.05,.06-.11,.08-.18,.08Z"
           id="path324" />
        <path
           class="uuid-25f19c22-641f-4ca2-ab60-5bf64a186493"
           d="M60.75,46c-.06,0-.12-.03-.17-.07-.05-.05-.08-.11-.08-.18s.03-.14,.08-.18c.09-.09,.25-.09,.35,0,.05,.05,.07,.11,.07,.18s-.02,.13-.07,.18c-.05,.04-.11,.07-.18,.07Z"
           id="path326" />
        <path
           class="uuid-25f19c22-641f-4ca2-ab60-5bf64a186493"
           d="M67.5,43.75c-.06,0-.13-.03-.17-.07-.05-.05-.08-.11-.08-.18s.03-.13,.08-.18c.08-.08,.25-.09,.35,0,.05,.05,.07,.12,.07,.18s-.02,.13-.07,.18c-.05,.04-.11,.07-.18,.07Z"
           id="path328" />
        <path
           class="uuid-25f19c22-641f-4ca2-ab60-5bf64a186493"
           d="M51.25,66.25c-.06,0-.12-.02-.17-.07-.05-.05-.08-.11-.08-.18s.03-.13,.08-.18c.09-.09,.25-.09,.35,0,.05,.05,.07,.11,.07,.18s-.03,.13-.07,.18c-.05,.05-.11,.07-.18,.07Z"
           id="path330" />
        <path
           class="uuid-25f19c22-641f-4ca2-ab60-5bf64a186493"
           d="M40,37.75c-.06,0-.13-.03-.17-.07-.05-.05-.08-.11-.08-.18s.03-.13,.08-.18c.09-.09,.26-.09,.35,0,.05,.05,.07,.12,.07,.18s-.02,.12-.07,.17c-.05,.05-.11,.08-.18,.08Z"
           id="path332" />
        <path
           class="uuid-25f19c22-641f-4ca2-ab60-5bf64a186493"
           d="M53.25,15c-.06,0-.13-.03-.17-.07-.05-.05-.08-.11-.08-.18s.03-.13,.08-.18c.07-.08,.26-.09,.35,0,.05,.04,.07,.11,.07,.17s-.02,.13-.07,.18c-.05,.04-.11,.07-.18,.07Z"
           id="path334" />
        <path
           class="uuid-25f19c22-641f-4ca2-ab60-5bf64a186493"
           d="M34,16c-.07,0-.13-.03-.18-.08-.04-.04-.07-.1-.07-.17s.03-.14,.08-.18c.09-.09,.26-.09,.35,0,.05,.05,.07,.11,.07,.18,0,.06-.02,.13-.07,.18-.05,.04-.11,.07-.18,.07Z"
           id="path336" />
        <path
           class="uuid-25f19c22-641f-4ca2-ab60-5bf64a186493"
           d="M27.5,13.5c-.06,0-.12-.02-.17-.07-.05-.05-.08-.11-.08-.18s.03-.13,.07-.17c.11-.11,.26-.1,.36,0,.05,.05,.07,.12,.07,.18,0,.07-.02,.13-.07,.18-.05,.05-.11,.07-.18,.07Z"
           id="path338" />
        <path
           class="uuid-25f19c22-641f-4ca2-ab60-5bf64a186493"
           d="M12.75,19.25c-.06,0-.13-.03-.17-.07-.05-.05-.08-.11-.08-.18,0-.06,.03-.12,.07-.17,.1-.1,.26-.1,.36,0,.05,.05,.07,.12,.07,.18,0,.07-.02,.13-.07,.18-.05,.05-.11,.07-.18,.07Z"
           id="path340" />
        <path
           class="uuid-25f19c22-641f-4ca2-ab60-5bf64a186493"
           d="M19.75,26.5c-.06,0-.12-.02-.17-.07-.05-.05-.08-.11-.08-.18,0-.06,.03-.12,.07-.17,.11-.11,.26-.1,.36,0,.05,.05,.07,.12,.07,.18,0,.07-.02,.13-.07,.18-.05,.05-.12,.07-.18,.07Z"
           id="path342" />
        <path
           class="uuid-25f19c22-641f-4ca2-ab60-5bf64a186493"
           d="M49.5,4.5c-.06,0-.13-.03-.17-.07-.05-.04-.08-.11-.08-.18s.03-.14,.08-.18c.08-.08,.25-.09,.35,0,.05,.05,.07,.12,.07,.18s-.02,.13-.07,.18c-.05,.04-.11,.07-.18,.07Z"
           id="path344" />
        <path
           class="uuid-25f19c22-641f-4ca2-ab60-5bf64a186493"
           d="M11.75,1.75c-.06,0-.12-.02-.17-.07-.05-.05-.08-.11-.08-.18,0-.06,.03-.13,.07-.18,.1-.09,.27-.09,.36,0,.05,.05,.07,.12,.07,.18s-.02,.13-.07,.18c-.05,.05-.11,.07-.18,.07Z"
           id="path346" />
        <path
           class="uuid-25f19c22-641f-4ca2-ab60-5bf64a186493"
           d="M55.25,3.75c-.06,0-.13-.03-.17-.07-.05-.05-.08-.11-.08-.18s.03-.13,.08-.18c.08-.09,.25-.09,.35,0,.05,.05,.07,.12,.07,.18s-.02,.13-.07,.18c-.05,.04-.11,.07-.18,.07Z"
           id="path348" />
        <path
           class="uuid-25f19c22-641f-4ca2-ab60-5bf64a186493"
           d="M59,20.75c-.06,0-.13-.03-.17-.07-.05-.05-.08-.11-.08-.18s.03-.13,.08-.18c.08-.09,.25-.09,.35,0,.05,.06,.07,.12,.07,.18s-.02,.12-.07,.17c-.05,.06-.11,.08-.18,.08Z"
           id="path350" />
        <path
           class="uuid-25f19c22-641f-4ca2-ab60-5bf64a186493"
           d="M67.5,57.25c-.06,0-.13-.03-.17-.07-.05-.05-.08-.12-.08-.18,0-.07,.03-.13,.08-.18,.09-.09,.25-.09,.35,0,.05,.05,.07,.12,.07,.18s-.02,.12-.07,.17c-.05,.05-.11,.08-.18,.08Z"
           id="path352" />
        <path
           class="uuid-25f19c22-641f-4ca2-ab60-5bf64a186493"
           d="M47.25,69.75c-.06,0-.13-.03-.17-.07-.05-.04-.08-.11-.08-.18s.03-.14,.08-.18c.08-.08,.25-.09,.35,0,.04,.05,.07,.11,.07,.18s-.03,.13-.07,.18c-.05,.05-.11,.07-.18,.07Z"
           id="path354" />
        <path
           class="uuid-25f19c22-641f-4ca2-ab60-5bf64a186493"
           d="M5.25,69.75c-.06,0-.13-.03-.17-.07-.05-.05-.08-.11-.08-.18,0-.06,.03-.12,.07-.17,.1-.1,.26-.1,.36,0,.05,.05,.07,.12,.07,.18,0,.07-.02,.13-.07,.18s-.12,.07-.18,.07Z"
           id="path356" />
        <path
           class="uuid-25f19c22-641f-4ca2-ab60-5bf64a186493"
           d="M4.75,40.25c-.06,0-.13-.03-.18-.07-.04-.05-.07-.11-.07-.18s.03-.13,.07-.18c.09-.09,.26-.09,.36,0,.05,.05,.07,.12,.07,.18s-.02,.13-.07,.18c-.05,.04-.11,.07-.18,.07Z"
           id="path358" />
        <path
           class="uuid-25f19c22-641f-4ca2-ab60-5bf64a186493"
           d="M69.75,12.75c-.07,0-.13-.03-.17-.07-.05-.05-.08-.11-.08-.18s.03-.13,.08-.18c.09-.09,.25-.09,.35,0,.05,.05,.07,.12,.07,.18s-.02,.13-.07,.18c-.05,.04-.11,.07-.18,.07Z"
           id="path360" />
        <path
           class="uuid-25f19c22-641f-4ca2-ab60-5bf64a186493"
           d="M23.25,14c-.06,0-.12-.02-.17-.07-.05-.05-.08-.11-.08-.18s.03-.13,.07-.17c.11-.11,.26-.1,.36,0,.05,.06,.07,.12,.07,.18s-.02,.13-.07,.18c-.05,.05-.11,.07-.18,.07Z"
           id="path362" />
        <path
           class="uuid-25f19c22-641f-4ca2-ab60-5bf64a186493"
           d="M20.5,17.25c-.06,0-.13-.03-.17-.07-.05-.04-.08-.11-.08-.18s.03-.14,.08-.18c.07-.08,.26-.09,.35,0,.05,.04,.07,.11,.07,.17s-.02,.13-.07,.18c-.05,.04-.11,.07-.18,.07Z"
           id="path364" />
        <path
           class="uuid-25f19c22-641f-4ca2-ab60-5bf64a186493"
           d="M14.75,17.25c-.06,0-.12-.02-.17-.07-.05-.05-.08-.11-.08-.18,0-.06,.03-.13,.07-.18,.11-.09,.26-.09,.36,0,.05,.05,.07,.12,.07,.18s-.02,.13-.07,.18c-.05,.05-.11,.07-.18,.07Z"
           id="path366" />
        <path
           class="uuid-25f19c22-641f-4ca2-ab60-5bf64a186493"
           d="M2.75,13.25c-.07,0-.13-.03-.17-.07-.05-.05-.08-.12-.08-.18,0-.07,.03-.13,.08-.18,.09-.09,.25-.09,.35,0,.04,.05,.07,.11,.07,.18s-.02,.13-.07,.18c-.05,.04-.11,.07-.18,.07Z"
           id="path368" />
        <path
           class="uuid-25f19c22-641f-4ca2-ab60-5bf64a186493"
           d="M6,11.75c-.06,0-.12-.02-.17-.07-.05-.05-.08-.12-.08-.18,0-.07,.03-.13,.07-.18,.12-.1,.26-.09,.36,0,.05,.05,.07,.11,.07,.18,0,.06-.02,.12-.07,.17-.05,.06-.11,.08-.18,.08Z"
           id="path370" />
        <path
           class="uuid-25f19c22-641f-4ca2-ab60-5bf64a186493"
           d="M7,2.75c-.06,0-.12-.02-.17-.07-.05-.05-.08-.12-.08-.18,0-.07,.03-.13,.07-.18,.11-.09,.26-.09,.36,0,.05,.05,.07,.12,.07,.18s-.02,.12-.07,.17c-.05,.06-.11,.08-.18,.08Z"
           id="path372" />
        <path
           class="uuid-25f19c22-641f-4ca2-ab60-5bf64a186493"
           d="M10,8.25c-.07,0-.13-.03-.18-.07-.04-.05-.07-.12-.07-.18,0-.07,.03-.13,.07-.18,.09-.09,.26-.09,.36,0,.05,.05,.07,.11,.07,.18,0,.06-.02,.13-.07,.17-.05,.06-.11,.08-.18,.08Z"
           id="path374" />
        <path
           class="uuid-25f19c22-641f-4ca2-ab60-5bf64a186493"
           d="M16,8.25c-.06,0-.13-.03-.18-.07-.04-.05-.07-.11-.07-.18s.03-.13,.08-.18c.1-.09,.25-.09,.35,0,.05,.05,.07,.12,.07,.18s-.02,.13-.07,.18c-.05,.04-.11,.07-.18,.07Z"
           id="path376" />
        <path
           class="uuid-25f19c22-641f-4ca2-ab60-5bf64a186493"
           d="M16.5,3.25c-.06,0-.12-.02-.17-.07-.05-.05-.08-.11-.08-.18s.03-.13,.07-.18c.11-.1,.26-.09,.36,0,.05,.05,.07,.11,.07,.18s-.02,.13-.07,.18c-.05,.05-.12,.07-.18,.07Z"
           id="path378" />
        <path
           class="uuid-25f19c22-641f-4ca2-ab60-5bf64a186493"
           d="M25.75,7c-.06,0-.12-.02-.17-.07-.05-.05-.08-.11-.08-.18s.03-.13,.08-.18c.1-.09,.25-.09,.35,0,.05,.05,.07,.12,.07,.18s-.02,.13-.07,.18c-.05,.05-.11,.07-.18,.07Z"
           id="path380" />
        <path
           class="uuid-25f19c22-641f-4ca2-ab60-5bf64a186493"
           d="M37,7.5c-.06,0-.12-.02-.17-.07-.05-.05-.08-.11-.08-.18s.03-.13,.08-.18c.09-.09,.26-.09,.35,0,.05,.05,.07,.11,.07,.18s-.02,.13-.07,.18c-.05,.05-.12,.07-.18,.07Z"
           id="path382" />
        <path
           class="uuid-25f19c22-641f-4ca2-ab60-5bf64a186493"
           d="M40.5,4.5c-.06,0-.13-.03-.17-.07-.05-.04-.08-.11-.08-.18s.03-.13,.08-.18c.09-.09,.25-.09,.35,0,.05,.06,.07,.12,.07,.18,0,.07-.02,.13-.07,.18-.05,.04-.11,.07-.18,.07Z"
           id="path384" />
        <path
           class="uuid-25f19c22-641f-4ca2-ab60-5bf64a186493"
           d="M37.5,4.25c-.06,0-.13-.03-.17-.07-.05-.04-.08-.11-.08-.18s.03-.13,.08-.18c.08-.09,.25-.09,.35,0,.05,.06,.07,.12,.07,.18s-.02,.13-.07,.18c-.05,.05-.11,.07-.18,.07Z"
           id="path386" />
        <path
           class="uuid-25f19c22-641f-4ca2-ab60-5bf64a186493"
           d="M43.25,2.25c-.07,0-.13-.03-.18-.08-.04-.04-.07-.1-.07-.17s.03-.13,.08-.18c.09-.09,.25-.09,.35,0,.05,.05,.07,.12,.07,.18s-.02,.13-.07,.18c-.05,.04-.11,.07-.18,.07Z"
           id="path388" />
        <path
           class="uuid-25f19c22-641f-4ca2-ab60-5bf64a186493"
           d="M49.5,8.25c-.06,0-.13-.03-.17-.07-.05-.04-.08-.11-.08-.18s.03-.14,.08-.18c.08-.09,.25-.09,.35,0,.05,.05,.07,.12,.07,.18s-.02,.13-.07,.18c-.05,.04-.11,.07-.18,.07Z"
           id="path390" />
        <path
           class="uuid-25f19c22-641f-4ca2-ab60-5bf64a186493"
           d="M46,9.25c-.06,0-.13-.03-.17-.07-.05-.05-.08-.11-.08-.18s.03-.13,.08-.18c.08-.08,.25-.09,.35,0,.05,.05,.07,.12,.07,.18s-.02,.13-.07,.18c-.05,.04-.11,.07-.18,.07Z"
           id="path392" />
        <path
           class="uuid-25f19c22-641f-4ca2-ab60-5bf64a186493"
           d="M35.75,11c-.06,0-.13-.03-.17-.07-.05-.05-.08-.11-.08-.18s.03-.13,.08-.18c.09-.09,.25-.09,.35,0,.05,.05,.07,.12,.07,.18s-.02,.13-.07,.18c-.05,.04-.11,.07-.18,.07Z"
           id="path394" />
        <path
           class="uuid-25f19c22-641f-4ca2-ab60-5bf64a186493"
           d="M39.25,15c-.06,0-.12-.02-.17-.07-.05-.05-.08-.11-.08-.18s.03-.13,.08-.18c.09-.09,.25-.09,.35,0,.05,.06,.07,.12,.07,.18s-.02,.13-.07,.18c-.05,.05-.11,.07-.18,.07Z"
           id="path396" />
        <path
           class="uuid-25f19c22-641f-4ca2-ab60-5bf64a186493"
           d="M24.75,18c-.06,0-.12-.02-.17-.07-.05-.05-.08-.11-.08-.18s.03-.13,.07-.18c.1-.09,.27-.09,.36,0,.05,.05,.07,.11,.07,.18s-.02,.13-.07,.18c-.05,.05-.11,.07-.18,.07Z"
           id="path398" />
        <path
           class="uuid-25f19c22-641f-4ca2-ab60-5bf64a186493"
           d="M8.25,27.25c-.06,0-.12-.02-.17-.07-.05-.05-.08-.11-.08-.18s.03-.13,.07-.18c.12-.1,.26-.09,.36,0,.05,.05,.07,.12,.07,.18,0,.07-.02,.13-.07,.18-.05,.04-.11,.07-.18,.07Z"
           id="path400" />
        <path
           class="uuid-25f19c22-641f-4ca2-ab60-5bf64a186493"
           d="M16,31.75c-.06,0-.13-.03-.18-.07-.04-.05-.07-.11-.07-.18s.03-.13,.08-.18c.1-.09,.25-.09,.35,0,.05,.05,.07,.12,.07,.18s-.02,.13-.07,.18c-.05,.04-.11,.07-.18,.07Z"
           id="path402" />
        <path
           class="uuid-25f19c22-641f-4ca2-ab60-5bf64a186493"
           d="M10.5,33.5c-.06,0-.12-.02-.17-.07-.05-.05-.08-.12-.08-.18,0-.07,.03-.13,.07-.18,.11-.1,.26-.09,.36,0,.05,.05,.07,.12,.07,.18s-.02,.12-.07,.17c-.05,.06-.11,.08-.18,.08Z"
           id="path404" />
        <path
           class="uuid-25f19c22-641f-4ca2-ab60-5bf64a186493"
           d="M5.25,37c-.06,0-.13-.03-.17-.07-.05-.05-.08-.11-.08-.18,0-.06,.03-.12,.07-.17,.1-.1,.26-.1,.36,0,.05,.05,.07,.12,.07,.18,0,.07-.02,.13-.07,.18-.05,.05-.12,.07-.18,.07Z"
           id="path406" />
        <path
           class="uuid-25f19c22-641f-4ca2-ab60-5bf64a186493"
           d="M2.75,32c-.06,0-.13-.03-.17-.07-.05-.05-.08-.12-.08-.18,0-.07,.03-.13,.08-.18,.09-.09,.25-.09,.35,0,.04,.05,.07,.11,.07,.18s-.02,.13-.07,.18c-.05,.04-.11,.07-.18,.07Z"
           id="path408" />
        <path
           class="uuid-25f19c22-641f-4ca2-ab60-5bf64a186493"
           d="M7.5,25c-.07,0-.13-.03-.18-.07-.04-.05-.07-.11-.07-.18s.03-.13,.07-.18c.11-.09,.25-.09,.35,0,.06,.05,.08,.12,.08,.18s-.02,.13-.07,.18c-.05,.04-.11,.07-.18,.07Z"
           id="path410" />
        <path
           class="uuid-25f19c22-641f-4ca2-ab60-5bf64a186493"
           d="M3.25,20.5c-.06,0-.13-.03-.17-.07-.05-.05-.08-.11-.08-.18,0-.06,.03-.13,.07-.17,.1-.1,.26-.1,.36,0,.05,.05,.07,.12,.07,.18,0,.07-.02,.13-.07,.18-.05,.05-.12,.07-.18,.07Z"
           id="path412" />
        <path
           class="uuid-25f19c22-641f-4ca2-ab60-5bf64a186493"
           d="M20.5,30.75c-.06,0-.13-.03-.17-.07-.05-.05-.08-.11-.08-.18s.03-.13,.08-.18c.09-.09,.25-.09,.35,0,.05,.06,.07,.12,.07,.18s-.02,.12-.07,.17c-.05,.05-.11,.08-.18,.08Z"
           id="path414" />
        <path
           class="uuid-25f19c22-641f-4ca2-ab60-5bf64a186493"
           d="M17.5,35.5c-.06,0-.12-.03-.17-.07-.05-.06-.08-.12-.08-.18,0-.07,.03-.13,.07-.18,.11-.09,.26-.09,.36,0,.05,.05,.07,.11,.07,.18,0,.06-.02,.13-.07,.17-.05,.05-.11,.08-.18,.08Z"
           id="path416" />
        <path
           class="uuid-25f19c22-641f-4ca2-ab60-5bf64a186493"
           d="M16,39c-.06,0-.12-.02-.17-.07-.05-.05-.08-.11-.08-.18s.03-.13,.08-.18c.09-.09,.25-.09,.35,0,.05,.05,.07,.12,.07,.18s-.02,.13-.07,.18c-.05,.05-.12,.07-.18,.07Z"
           id="path418" />
        <path
           class="uuid-25f19c22-641f-4ca2-ab60-5bf64a186493"
           d="M12.75,41.25c-.06,0-.13-.03-.17-.07-.05-.05-.08-.11-.08-.18,0-.06,.03-.13,.07-.18,.1-.09,.26-.09,.36,0,.05,.05,.07,.11,.07,.18s-.02,.13-.07,.18c-.05,.04-.11,.07-.18,.07Z"
           id="path420" />
        <path
           class="uuid-25f19c22-641f-4ca2-ab60-5bf64a186493"
           d="M12.75,46.5c-.07,0-.13-.03-.17-.07-.05-.05-.08-.12-.08-.18,0-.07,.03-.13,.07-.18,.1-.09,.26-.09,.36,0,.05,.05,.07,.11,.07,.18s-.02,.13-.07,.18c-.05,.05-.11,.07-.18,.07Z"
           id="path422" />
        <path
           class="uuid-25f19c22-641f-4ca2-ab60-5bf64a186493"
           d="M4,46.75c-.06,0-.13-.03-.17-.07-.05-.05-.08-.11-.08-.18,0-.06,.03-.13,.07-.18,.1-.09,.26-.09,.35,0,.06,.05,.08,.12,.08,.18,0,.07-.02,.13-.07,.18-.05,.05-.12,.07-.18,.07Z"
           id="path424" />
        <path
           class="uuid-25f19c22-641f-4ca2-ab60-5bf64a186493"
           d="M5.75,48.5c-.07,0-.13-.03-.18-.08-.04-.04-.07-.1-.07-.17s.03-.13,.07-.18c.1-.09,.26-.09,.36,0,.05,.05,.07,.11,.07,.18s-.02,.13-.07,.18c-.05,.04-.11,.07-.18,.07Z"
           id="path426" />
        <path
           class="uuid-25f19c22-641f-4ca2-ab60-5bf64a186493"
           d="M11,50.5c-.06,0-.12-.02-.17-.07-.05-.05-.08-.11-.08-.18,0-.06,.03-.13,.07-.17,.11-.11,.26-.1,.36,0,.05,.06,.07,.12,.07,.18s-.02,.13-.07,.18c-.05,.05-.12,.07-.18,.07Z"
           id="path428" />
        <path
           class="uuid-25f19c22-641f-4ca2-ab60-5bf64a186493"
           d="M11,54.5c-.06,0-.13-.03-.18-.07-.04-.05-.07-.11-.07-.18s.03-.13,.07-.18c.11-.09,.26-.09,.36,0,.05,.05,.07,.12,.07,.18s-.02,.13-.07,.18c-.05,.04-.11,.07-.18,.07Z"
           id="path430" />
        <path
           class="uuid-25f19c22-641f-4ca2-ab60-5bf64a186493"
           d="M15.5,58.5c-.06,0-.12-.03-.17-.07-.05-.05-.08-.11-.08-.18s.03-.13,.07-.18c.11-.09,.26-.09,.36,0,.05,.05,.07,.12,.07,.18s-.02,.13-.07,.18c-.05,.04-.11,.07-.18,.07Z"
           id="path432" />
        <path
           class="uuid-25f19c22-641f-4ca2-ab60-5bf64a186493"
           d="M10,59.75c-.07,0-.13-.03-.18-.07-.04-.05-.07-.12-.07-.18,0-.07,.03-.13,.07-.18,.1-.09,.25-.09,.36,0,.05,.05,.07,.11,.07,.18,0,.06-.02,.13-.07,.18-.05,.05-.11,.07-.18,.07Z"
           id="path434" />
        <path
           class="uuid-25f19c22-641f-4ca2-ab60-5bf64a186493"
           d="M6,63.5c-.06,0-.12-.02-.17-.07-.05-.05-.08-.12-.08-.18,0-.07,.03-.13,.07-.18,.12-.1,.26-.09,.36,0,.05,.05,.07,.11,.07,.18,0,.06-.02,.12-.07,.17-.05,.06-.11,.08-.18,.08Z"
           id="path436" />
        <path
           class="uuid-25f19c22-641f-4ca2-ab60-5bf64a186493"
           d="M2.25,62c-.06,0-.12-.02-.17-.07-.05-.05-.08-.11-.08-.18s.03-.13,.07-.18c.11-.09,.25-.09,.35,0,.06,.05,.08,.12,.08,.18s-.02,.13-.07,.18c-.06,.05-.12,.07-.18,.07Z"
           id="path438" />
        <path
           class="uuid-25f19c22-641f-4ca2-ab60-5bf64a186493"
           d="M7.25,67.75c-.06,0-.13-.03-.17-.07-.05-.05-.08-.12-.08-.18,0-.07,.03-.13,.07-.18,.1-.09,.26-.09,.36,0,.04,.05,.07,.11,.07,.18s-.02,.13-.07,.17c-.05,.06-.11,.08-.18,.08Z"
           id="path440" />
        <path
           class="uuid-25f19c22-641f-4ca2-ab60-5bf64a186493"
           d="M13.5,69.5c-.06,0-.12-.02-.17-.07-.05-.05-.08-.12-.08-.18,0-.07,.03-.13,.07-.18,.11-.09,.26-.09,.36,0,.05,.05,.07,.12,.07,.18s-.02,.12-.07,.17c-.05,.06-.11,.08-.18,.08Z"
           id="path442" />
        <path
           class="uuid-25f19c22-641f-4ca2-ab60-5bf64a186493"
           d="M13.5,65.75c-.06,0-.12-.02-.17-.07-.05-.05-.08-.11-.08-.18,0-.06,.03-.13,.07-.17,.11-.11,.26-.1,.36,0,.05,.06,.07,.12,.07,.18s-.02,.13-.07,.18c-.05,.05-.11,.07-.18,.07Z"
           id="path444" />
        <path
           class="uuid-25f19c22-641f-4ca2-ab60-5bf64a186493"
           d="M21.5,68.5c-.06,0-.12-.02-.17-.07-.05-.05-.08-.11-.08-.18s.03-.13,.08-.18c.09-.09,.25-.09,.35,0,.05,.05,.07,.12,.07,.18s-.02,.12-.07,.17c-.05,.06-.11,.08-.18,.08Z"
           id="path446" />
        <path
           class="uuid-25f19c22-641f-4ca2-ab60-5bf64a186493"
           d="M23,65.75c-.06,0-.12-.02-.17-.07-.05-.05-.08-.11-.08-.18,0-.06,.03-.12,.07-.17,.11-.11,.26-.1,.36,0,.05,.05,.07,.12,.07,.18,0,.07-.02,.13-.07,.18-.05,.05-.11,.07-.18,.07Z"
           id="path448" />
        <path
           class="uuid-25f19c22-641f-4ca2-ab60-5bf64a186493"
           d="M22.25,60c-.06,0-.12-.02-.17-.07-.05-.05-.08-.11-.08-.18,0-.06,.03-.12,.07-.17,.11-.11,.26-.1,.36,0,.05,.05,.07,.12,.07,.18,0,.07-.02,.13-.07,.18-.05,.05-.12,.07-.18,.07Z"
           id="path450" />
        <path
           class="uuid-25f19c22-641f-4ca2-ab60-5bf64a186493"
           d="M24.25,57.5c-.06,0-.12-.02-.17-.07-.05-.05-.08-.11-.08-.18s.03-.13,.08-.18c.1-.09,.25-.09,.35,0,.05,.05,.07,.12,.07,.18s-.02,.13-.07,.18c-.05,.05-.11,.07-.18,.07Z"
           id="path452" />
        <path
           class="uuid-25f19c22-641f-4ca2-ab60-5bf64a186493"
           d="M22,53.25c-.06,0-.12-.02-.17-.07-.05-.05-.08-.11-.08-.18s.03-.13,.07-.17c.11-.11,.26-.1,.36,0,.05,.06,.07,.12,.07,.18s-.02,.13-.07,.18c-.05,.05-.11,.07-.18,.07Z"
           id="path454" />
        <path
           class="uuid-25f19c22-641f-4ca2-ab60-5bf64a186493"
           d="M26.25,47.75c-.06,0-.12-.02-.17-.07-.05-.05-.08-.11-.08-.18s.03-.13,.08-.18c.09-.09,.25-.09,.35,0,.05,.05,.07,.12,.07,.18s-.02,.13-.07,.18c-.05,.05-.11,.07-.18,.07Z"
           id="path456" />
        <path
           class="uuid-25f19c22-641f-4ca2-ab60-5bf64a186493"
           d="M25.75,43.5c-.06,0-.12-.02-.17-.07-.05-.05-.08-.11-.08-.18s.03-.13,.07-.18c.11-.09,.26-.09,.36,0,.05,.06,.07,.12,.07,.18,0,.07-.02,.13-.07,.18-.05,.05-.11,.07-.18,.07Z"
           id="path458" />
        <path
           class="uuid-25f19c22-641f-4ca2-ab60-5bf64a186493"
           d="M31.25,37.5c-.06,0-.12-.03-.17-.07-.05-.05-.08-.12-.08-.18s.03-.13,.07-.17c.11-.11,.26-.1,.36,0,.05,.06,.07,.12,.07,.18s-.02,.12-.07,.17c-.05,.05-.11,.08-.18,.08Z"
           id="path460" />
        <path
           class="uuid-25f19c22-641f-4ca2-ab60-5bf64a186493"
           d="M32.25,31c-.06,0-.12-.02-.17-.07-.05-.05-.08-.11-.08-.18,0-.06,.03-.12,.07-.17,.11-.11,.26-.1,.36,0,.05,.05,.07,.12,.07,.18,0,.07-.03,.13-.07,.18-.05,.05-.11,.07-.18,.07Z"
           id="path462" />
        <path
           class="uuid-25f19c22-641f-4ca2-ab60-5bf64a186493"
           d="M26,34c-.06,0-.12-.02-.17-.07-.05-.05-.08-.11-.08-.18s.03-.13,.08-.18c.1-.09,.25-.09,.35,0,.05,.05,.07,.12,.07,.18s-.02,.13-.07,.18c-.05,.05-.11,.07-.18,.07Z"
           id="path464" />
        <path
           class="uuid-25f19c22-641f-4ca2-ab60-5bf64a186493"
           d="M34.25,27.75c-.06,0-.13-.03-.17-.07-.05-.05-.08-.11-.08-.18s.03-.13,.08-.18c.09-.09,.25-.09,.35,0,.05,.06,.07,.12,.07,.18s-.02,.13-.07,.18c-.05,.04-.11,.07-.18,.07Z"
           id="path466" />
        <path
           class="uuid-25f19c22-641f-4ca2-ab60-5bf64a186493"
           d="M37.25,28.5c-.06,0-.13-.03-.17-.07-.05-.05-.08-.11-.08-.18s.03-.13,.08-.18c.09-.09,.25-.09,.34,0,.06,.05,.08,.12,.08,.18s-.02,.12-.07,.17c-.05,.06-.11,.08-.18,.08Z"
           id="path468" />
        <path
           class="uuid-25f19c22-641f-4ca2-ab60-5bf64a186493"
           d="M41.75,25.75c-.06,0-.12-.03-.17-.07-.05-.05-.08-.11-.08-.18s.03-.13,.08-.18c.09-.09,.26-.09,.35,0,.05,.06,.07,.12,.07,.18s-.02,.12-.07,.17c-.05,.05-.11,.08-.18,.08Z"
           id="path470" />
        <path
           class="uuid-25f19c22-641f-4ca2-ab60-5bf64a186493"
           d="M43,20.75c-.06,0-.12-.02-.17-.07-.05-.05-.08-.11-.08-.18s.03-.13,.08-.18c.09-.09,.25-.09,.35,0,.05,.05,.07,.12,.07,.18s-.02,.13-.07,.18c-.05,.05-.12,.07-.18,.07Z"
           id="path472" />
        <path
           class="uuid-25f19c22-641f-4ca2-ab60-5bf64a186493"
           d="M36.5,19.25c-.06,0-.13-.03-.17-.07-.05-.04-.08-.11-.08-.18s.03-.14,.08-.18c.08-.08,.25-.09,.35,0,.05,.05,.07,.12,.07,.18s-.02,.13-.07,.18c-.05,.05-.11,.07-.18,.07Z"
           id="path474" />
        <path
           class="uuid-25f19c22-641f-4ca2-ab60-5bf64a186493"
           d="M27.75,22.25c-.06,0-.12-.03-.17-.07-.05-.05-.08-.12-.08-.18s.03-.13,.07-.17c.11-.11,.26-.1,.36,0,.05,.05,.07,.11,.07,.18s-.02,.13-.07,.18c-.05,.04-.11,.07-.18,.07Z"
           id="path476" />
        <path
           class="uuid-25f19c22-641f-4ca2-ab60-5bf64a186493"
           d="M52,22c-.06,0-.13-.03-.17-.07-.05-.05-.08-.11-.08-.18s.03-.13,.08-.18c.09-.09,.25-.09,.35,0,.05,.06,.07,.12,.07,.18s-.02,.12-.07,.17c-.05,.05-.11,.08-.18,.08Z"
           id="path478" />
        <path
           class="uuid-25f19c22-641f-4ca2-ab60-5bf64a186493"
           d="M43.25,17.75c-.06,0-.13-.03-.17-.07-.05-.05-.08-.11-.08-.18,0-.06,.03-.13,.07-.18,.11-.09,.26-.09,.36,0,.05,.06,.07,.12,.07,.18s-.02,.12-.07,.17c-.05,.06-.11,.08-.18,.08Z"
           id="path480" />
        <path
           class="uuid-25f19c22-641f-4ca2-ab60-5bf64a186493"
           d="M50.5,18c-.06,0-.13-.03-.17-.07-.05-.05-.08-.11-.08-.18s.03-.13,.08-.18c.08-.09,.25-.09,.35,0,.05,.06,.07,.12,.07,.18s-.02,.12-.07,.17c-.05,.05-.11,.08-.18,.08Z"
           id="path482" />
        <path
           class="uuid-25f19c22-641f-4ca2-ab60-5bf64a186493"
           d="M59.5,17.25c-.06,0-.13-.03-.17-.07-.05-.05-.08-.11-.08-.18s.03-.13,.08-.18c.08-.09,.25-.09,.35,0,.05,.05,.07,.12,.07,.18s-.02,.13-.07,.18c-.05,.04-.11,.07-.18,.07Z"
           id="path484" />
        <path
           class="uuid-25f19c22-641f-4ca2-ab60-5bf64a186493"
           d="M58.25,14c-.06,0-.13-.03-.17-.07-.05-.05-.08-.11-.08-.18s.03-.13,.08-.18c.08-.09,.26-.09,.35,0,.05,.05,.07,.11,.07,.18,0,.06-.02,.13-.07,.18-.05,.04-.11,.07-.18,.07Z"
           id="path486" />
        <path
           class="uuid-25f19c22-641f-4ca2-ab60-5bf64a186493"
           d="M61.5,11c-.06,0-.12-.02-.17-.07-.05-.05-.08-.11-.08-.18s.03-.14,.08-.18c.09-.09,.25-.09,.35,0,.04,.05,.07,.11,.07,.18s-.03,.13-.07,.18c-.05,.05-.11,.07-.18,.07Z"
           id="path488" />
        <path
           class="uuid-25f19c22-641f-4ca2-ab60-5bf64a186493"
           d="M58.75,7.5c-.06,0-.12-.02-.17-.07-.05-.05-.08-.11-.08-.18s.03-.13,.08-.18c.09-.09,.25-.09,.35,0,.05,.05,.07,.11,.07,.18s-.02,.13-.07,.18c-.05,.05-.11,.07-.18,.07Z"
           id="path490" />
        <path
           class="uuid-25f19c22-641f-4ca2-ab60-5bf64a186493"
           d="M60,4.75c-.06,0-.13-.03-.17-.07-.05-.05-.08-.11-.08-.18s.03-.13,.07-.18c.11-.09,.26-.09,.36,0,.05,.05,.07,.11,.07,.18s-.02,.13-.07,.17c-.05,.06-.11,.08-.18,.08Z"
           id="path492" />
        <path
           class="uuid-25f19c22-641f-4ca2-ab60-5bf64a186493"
           d="M67.5,6c-.06,0-.13-.03-.17-.07-.05-.05-.08-.12-.08-.18s.03-.13,.07-.17c.1-.1,.26-.1,.36,0,.05,.06,.07,.12,.07,.18s-.02,.12-.07,.17c-.05,.05-.11,.08-.18,.08Z"
           id="path494" />
        <path
           class="uuid-25f19c22-641f-4ca2-ab60-5bf64a186493"
           d="M69.5,8c-.06,0-.12-.03-.17-.07-.05-.05-.08-.11-.08-.18,0-.06,.03-.13,.07-.18,.11-.09,.26-.09,.36,0,.05,.05,.07,.12,.07,.18,0,.07-.02,.13-.07,.18-.05,.05-.11,.07-.18,.07Z"
           id="path496" />
        <path
           class="uuid-25f19c22-641f-4ca2-ab60-5bf64a186493"
           d="M65.75,9.75c-.06,0-.13-.03-.17-.07-.05-.05-.08-.11-.08-.18s.03-.13,.08-.18c.08-.09,.26-.09,.35,0,.05,.05,.07,.12,.07,.18s-.02,.13-.07,.18c-.05,.04-.11,.07-.18,.07Z"
           id="path498" />
        <path
           class="uuid-25f19c22-641f-4ca2-ab60-5bf64a186493"
           d="M61.75,16.5c-.06,0-.13-.03-.17-.07-.05-.05-.08-.11-.08-.18s.03-.13,.08-.18c.09-.09,.25-.09,.35,0,.05,.05,.07,.12,.07,.18s-.02,.13-.07,.17c-.05,.06-.11,.08-.18,.08Z"
           id="path500" />
        <path
           class="uuid-25f19c22-641f-4ca2-ab60-5bf64a186493"
           d="M60.25,23.75c-.06,0-.12-.03-.17-.07-.05-.05-.08-.11-.08-.18s.03-.13,.08-.18c.09-.09,.25-.09,.35,0,.04,.05,.07,.11,.07,.18s-.02,.13-.07,.18c-.05,.05-.11,.07-.18,.07Z"
           id="path502" />
        <path
           class="uuid-25f19c22-641f-4ca2-ab60-5bf64a186493"
           d="M55.5,23.75c-.06,0-.13-.03-.17-.07-.05-.05-.08-.12-.08-.18s.03-.13,.08-.18c.09-.09,.25-.09,.35,0,.05,.05,.07,.12,.07,.18s-.02,.13-.07,.18c-.05,.04-.11,.07-.18,.07Z"
           id="path504" />
        <path
           class="uuid-25f19c22-641f-4ca2-ab60-5bf64a186493"
           d="M55.5,18.75c-.06,0-.13-.03-.17-.07-.05-.05-.08-.12-.08-.18s.03-.13,.08-.18c.09-.09,.25-.09,.35,0,.05,.05,.07,.12,.07,.18s-.02,.13-.07,.18c-.05,.04-.11,.07-.18,.07Z"
           id="path506" />
        <path
           class="uuid-25f19c22-641f-4ca2-ab60-5bf64a186493"
           d="M65,25.75c-.06,0-.12-.03-.17-.07-.05-.05-.08-.11-.08-.18s.03-.13,.08-.18c.09-.09,.25-.09,.35,0,.05,.05,.07,.12,.07,.18,0,.07-.02,.13-.07,.18-.05,.05-.11,.07-.18,.07Z"
           id="path508" />
        <path
           class="uuid-25f19c22-641f-4ca2-ab60-5bf64a186493"
           d="M61.25,27c-.06,0-.13-.03-.17-.07-.05-.05-.08-.11-.08-.18s.03-.13,.08-.18c.09-.09,.25-.09,.35,0,.05,.05,.07,.11,.07,.18s-.03,.13-.07,.18c-.05,.04-.11,.07-.18,.07Z"
           id="path510" />
        <path
           class="uuid-25f19c22-641f-4ca2-ab60-5bf64a186493"
           d="M57.75,30.75c-.06,0-.12-.02-.17-.07-.05-.05-.08-.11-.08-.18s.03-.13,.08-.18c.09-.09,.25-.09,.35,0,.05,.05,.07,.11,.07,.18s-.02,.13-.07,.17c-.05,.06-.11,.08-.18,.08Z"
           id="path512" />
        <path
           class="uuid-25f19c22-641f-4ca2-ab60-5bf64a186493"
           d="M52.75,32.75c-.06,0-.13-.03-.17-.07-.05-.05-.08-.11-.08-.18s.03-.13,.08-.18c.09-.09,.25-.09,.35,0,.05,.05,.07,.12,.07,.18s-.02,.13-.07,.17c-.05,.06-.11,.08-.18,.08Z"
           id="path514" />
        <path
           class="uuid-25f19c22-641f-4ca2-ab60-5bf64a186493"
           d="M47.5,33.75c-.06,0-.12-.03-.17-.07-.05-.05-.08-.11-.08-.18s.03-.13,.08-.18c.09-.09,.25-.09,.34,0,.06,.06,.08,.12,.08,.18s-.02,.12-.07,.17c-.06,.06-.11,.08-.18,.08Z"
           id="path516" />
        <path
           class="uuid-25f19c22-641f-4ca2-ab60-5bf64a186493"
           d="M44.25,39.25c-.06,0-.12-.03-.17-.07-.05-.05-.08-.11-.08-.18s.03-.13,.08-.18c.09-.09,.25-.09,.35,0,.05,.05,.07,.11,.07,.18s-.02,.13-.07,.18c-.05,.05-.12,.07-.18,.07Z"
           id="path518" />
        <path
           class="uuid-25f19c22-641f-4ca2-ab60-5bf64a186493"
           d="M34,41.5c-.06,0-.12-.02-.17-.07-.05-.05-.08-.11-.08-.18s.03-.13,.08-.18c.09-.09,.25-.09,.35,0,.05,.05,.07,.12,.07,.18s-.02,.13-.07,.18c-.05,.04-.11,.07-.18,.07Z"
           id="path520" />
        <path
           class="uuid-25f19c22-641f-4ca2-ab60-5bf64a186493"
           d="M40.75,48c-.06,0-.12-.02-.17-.07-.05-.05-.08-.11-.08-.18s.03-.13,.08-.18c.1-.09,.25-.09,.35,0,.04,.05,.07,.11,.07,.18s-.03,.13-.07,.18c-.05,.05-.11,.07-.18,.07Z"
           id="path522" />
        <path
           class="uuid-25f19c22-641f-4ca2-ab60-5bf64a186493"
           d="M45.75,52.25c-.06,0-.12-.02-.17-.07-.05-.05-.08-.11-.08-.18s.03-.13,.08-.18c.09-.09,.25-.09,.35,0,.05,.05,.07,.11,.07,.18s-.03,.13-.07,.18c-.05,.05-.11,.07-.18,.07Z"
           id="path524" />
        <path
           class="uuid-25f19c22-641f-4ca2-ab60-5bf64a186493"
           d="M46.5,56.75c-.06,0-.12-.03-.17-.07-.05-.05-.08-.11-.08-.18s.03-.13,.08-.18c.09-.09,.25-.09,.35,0,.05,.05,.07,.12,.07,.18s-.02,.13-.07,.17c-.05,.06-.11,.08-.18,.08Z"
           id="path526" />
        <path
           class="uuid-25f19c22-641f-4ca2-ab60-5bf64a186493"
           d="M42,59.5c-.06,0-.12-.02-.17-.07-.05-.05-.08-.11-.08-.18s.03-.13,.08-.18c.1-.09,.25-.09,.35,0,.04,.05,.07,.11,.07,.18s-.02,.13-.07,.18c-.05,.05-.12,.07-.18,.07Z"
           id="path528" />
        <path
           class="uuid-25f19c22-641f-4ca2-ab60-5bf64a186493"
           d="M40,62.75c-.06,0-.12-.03-.17-.07-.05-.05-.08-.11-.08-.18s.03-.14,.08-.18c.09-.09,.26-.09,.35,0,.05,.05,.07,.11,.07,.18,0,.06-.02,.13-.07,.18-.05,.04-.11,.07-.18,.07Z"
           id="path530" />
        <path
           class="uuid-25f19c22-641f-4ca2-ab60-5bf64a186493"
           d="M36,62.75c-.06,0-.12-.02-.17-.07-.05-.05-.08-.11-.08-.18s.03-.13,.08-.18c.1-.09,.26-.09,.35,0,.05,.06,.07,.12,.07,.18s-.02,.13-.07,.18c-.05,.04-.11,.07-.18,.07Z"
           id="path532" />
        <path
           class="uuid-25f19c22-641f-4ca2-ab60-5bf64a186493"
           d="M36.5,52.75c-.07,0-.13-.03-.17-.07-.05-.05-.08-.11-.08-.18s.03-.13,.08-.18c.09-.09,.25-.09,.35,0,.05,.06,.07,.12,.07,.18s-.02,.12-.07,.17c-.05,.05-.11,.08-.18,.08Z"
           id="path534" />
        <path
           class="uuid-25f19c22-641f-4ca2-ab60-5bf64a186493"
           d="M30,63.5c-.06,0-.13-.03-.17-.07-.05-.05-.08-.11-.08-.18s.03-.13,.08-.18c.09-.09,.25-.09,.35,0,.05,.05,.07,.12,.07,.18s-.02,.13-.07,.17c-.05,.05-.11,.08-.18,.08Z"
           id="path536" />
        <path
           class="uuid-25f19c22-641f-4ca2-ab60-5bf64a186493"
           d="M31.5,68.5c-.07,0-.13-.03-.18-.08-.04-.04-.07-.1-.07-.17s.03-.14,.08-.18c.09-.08,.25-.09,.34,0,.06,.05,.08,.11,.08,.18,0,.06-.02,.13-.07,.18-.05,.04-.11,.07-.18,.07Z"
           id="path538" />
        <path
           class="uuid-25f19c22-641f-4ca2-ab60-5bf64a186493"
           d="M37,71c-.06,0-.12-.02-.17-.07-.05-.05-.08-.11-.08-.18s.03-.13,.08-.18c.1-.09,.25-.09,.35,0,.05,.05,.07,.11,.07,.18s-.02,.13-.07,.18c-.05,.05-.11,.07-.18,.07Z"
           id="path540" />
        <path
           class="uuid-25f19c22-641f-4ca2-ab60-5bf64a186493"
           d="M58.75,57c-.06,0-.12-.02-.17-.07-.05-.05-.08-.11-.08-.18s.03-.13,.08-.18c.09-.09,.25-.09,.35,0,.05,.05,.07,.11,.07,.18s-.02,.13-.07,.18c-.05,.05-.11,.07-.18,.07Z"
           id="path542" />
        <path
           class="uuid-25f19c22-641f-4ca2-ab60-5bf64a186493"
           d="M63,57c-.06,0-.12-.03-.17-.07-.05-.05-.08-.11-.08-.18s.03-.13,.08-.18c.09-.09,.25-.09,.35,0,.05,.05,.07,.11,.07,.18s-.02,.13-.07,.17c-.05,.06-.11,.08-.18,.08Z"
           id="path544" />
        <path
           class="uuid-25f19c22-641f-4ca2-ab60-5bf64a186493"
           d="M60,50.75c-.06,0-.12-.03-.17-.07-.05-.05-.08-.11-.08-.18s.03-.14,.08-.18c.09-.09,.25-.09,.35,0,.04,.05,.07,.11,.07,.18s-.02,.13-.07,.18c-.05,.04-.11,.07-.18,.07Z"
           id="path546" />
        <path
           class="uuid-25f19c22-641f-4ca2-ab60-5bf64a186493"
           d="M54.5,50.5c-.07,0-.13-.03-.17-.07-.05-.05-.08-.12-.08-.18s.03-.13,.07-.17c.1-.1,.26-.1,.36,0,.05,.06,.07,.12,.07,.18s-.02,.12-.07,.17c-.05,.05-.11,.08-.18,.08Z"
           id="path548" />
        <path
           class="uuid-25f19c22-641f-4ca2-ab60-5bf64a186493"
           d="M59.25,44.25c-.06,0-.13-.03-.17-.07-.05-.05-.08-.12-.08-.18s.03-.13,.07-.17c.1-.1,.27-.1,.36,0,.05,.06,.07,.12,.07,.18s-.02,.12-.07,.17c-.04,.05-.11,.08-.18,.08Z"
           id="path550" />
        <path
           class="uuid-25f19c22-641f-4ca2-ab60-5bf64a186493"
           d="M54.75,41.75c-.06,0-.13-.03-.17-.07-.05-.05-.08-.12-.08-.18s.03-.13,.08-.18c.08-.09,.25-.09,.35,0,.05,.05,.07,.12,.07,.18s-.02,.13-.07,.18c-.05,.04-.11,.07-.18,.07Z"
           id="path552" />
        <path
           class="uuid-25f19c22-641f-4ca2-ab60-5bf64a186493"
           d="M55.75,35.5c-.06,0-.12-.02-.17-.07-.05-.05-.08-.11-.08-.18s.03-.13,.08-.18c.09-.09,.25-.09,.35,0,.05,.05,.07,.11,.07,.18s-.02,.13-.07,.18c-.05,.05-.11,.07-.18,.07Z"
           id="path554" />
        <path
           class="uuid-25f19c22-641f-4ca2-ab60-5bf64a186493"
           d="M62.5,42.25c-.06,0-.13-.03-.17-.07-.05-.05-.08-.11-.08-.18s.03-.13,.08-.18c.08-.08,.24-.09,.34,0,.06,.05,.08,.12,.08,.18s-.02,.13-.07,.18c-.05,.05-.12,.07-.18,.07Z"
           id="path556" />
        <path
           class="uuid-25f19c22-641f-4ca2-ab60-5bf64a186493"
           d="M67,47.5c-.06,0-.13-.03-.17-.07-.05-.05-.08-.11-.08-.18s.03-.13,.08-.18c.08-.08,.25-.09,.35,0,.05,.05,.07,.11,.07,.18s-.03,.13-.07,.18c-.05,.05-.11,.07-.18,.07Z"
           id="path558" />
        <path
           class="uuid-25f19c22-641f-4ca2-ab60-5bf64a186493"
           d="M69.5,54.25c-.06,0-.13-.03-.17-.07-.05-.05-.08-.11-.08-.18s.03-.13,.08-.18c.09-.09,.25-.09,.35,0,.05,.05,.07,.11,.07,.18s-.02,.13-.07,.18c-.05,.04-.11,.07-.18,.07Z"
           id="path560" />
        <path
           class="uuid-25f19c22-641f-4ca2-ab60-5bf64a186493"
           d="M63.5,61.75c-.06,0-.13-.03-.17-.07-.05-.05-.08-.12-.08-.18,0-.07,.03-.13,.08-.18,.07-.08,.25-.1,.35,0,.05,.05,.07,.12,.07,.18s-.02,.12-.07,.17c-.05,.06-.11,.08-.18,.08Z"
           id="path562" />
        <path
           class="uuid-25f19c22-641f-4ca2-ab60-5bf64a186493"
           d="M69.25,63.5c-.06,0-.12-.02-.17-.07-.05-.05-.08-.11-.08-.18s.03-.13,.08-.18c.09-.09,.25-.09,.35,0,.05,.05,.07,.12,.07,.18s-.02,.13-.07,.17c-.05,.06-.11,.08-.18,.08Z"
           id="path564" />
        <path
           class="uuid-25f19c22-641f-4ca2-ab60-5bf64a186493"
           d="M64.75,65.5c-.07,0-.13-.03-.17-.07-.05-.05-.08-.12-.08-.18s.03-.12,.07-.17c.1-.1,.27-.1,.36,0,.05,.06,.07,.12,.07,.18s-.02,.12-.07,.17c-.04,.05-.11,.08-.18,.08Z"
           id="path566" />
        <path
           class="uuid-25f19c22-641f-4ca2-ab60-5bf64a186493"
           d="M65.75,68.25c-.06,0-.13-.03-.17-.07-.05-.05-.08-.11-.08-.18s.03-.13,.08-.18c.08-.09,.26-.09,.35,0,.05,.05,.07,.12,.07,.18,0,.07-.02,.13-.07,.18-.05,.04-.11,.07-.18,.07Z"
           id="path568" />
        <path
           class="uuid-25f19c22-641f-4ca2-ab60-5bf64a186493"
           d="M69.25,70.5c-.06,0-.13-.03-.17-.07-.05-.05-.08-.12-.08-.18,0-.07,.03-.13,.08-.18,.09-.09,.25-.09,.35,0,.05,.05,.07,.11,.07,.18,0,.06-.02,.13-.07,.17-.05,.06-.11,.08-.18,.08Z"
           id="path570" />
        <path
           class="uuid-25f19c22-641f-4ca2-ab60-5bf64a186493"
           d="M62.5,70.25c-.06,0-.13-.03-.17-.07-.05-.05-.08-.11-.08-.18s.03-.13,.08-.18c.08-.08,.24-.1,.34,0,.06,.05,.08,.12,.08,.18s-.02,.13-.07,.18c-.06,.05-.12,.07-.18,.07Z"
           id="path572" />
        <path
           class="uuid-25f19c22-641f-4ca2-ab60-5bf64a186493"
           d="M60.75,65.75c-.06,0-.13-.03-.17-.07-.05-.05-.08-.11-.08-.18s.03-.13,.08-.18c.09-.09,.25-.09,.35,0,.05,.05,.07,.12,.07,.18s-.02,.13-.07,.17c-.05,.06-.11,.08-.18,.08Z"
           id="path574" />
        <path
           class="uuid-25f19c22-641f-4ca2-ab60-5bf64a186493"
           d="M52.75,69.75c-.06,0-.13-.03-.17-.07-.05-.05-.08-.11-.08-.18s.03-.13,.08-.18c.09-.09,.25-.09,.35,0,.05,.05,.07,.12,.07,.18s-.02,.13-.07,.17c-.05,.06-.11,.08-.18,.08Z"
           id="path576" />
        <path
           class="uuid-25f19c22-641f-4ca2-ab60-5bf64a186493"
           d="M44.75,66.5c-.07,0-.13-.03-.17-.07-.05-.05-.08-.11-.08-.18s.03-.13,.08-.18c.09-.09,.25-.09,.35,0,.05,.05,.07,.11,.07,.18,0,.06-.02,.13-.07,.17-.05,.05-.11,.08-.18,.08Z"
           id="path578" />
        <path
           class="uuid-25f19c22-641f-4ca2-ab60-5bf64a186493"
           d="M44.5,71.25c-.06,0-.12-.03-.17-.07-.05-.05-.08-.11-.08-.18s.03-.13,.08-.18c.09-.09,.25-.09,.35,0,.05,.05,.07,.11,.07,.18s-.02,.13-.07,.18c-.05,.05-.12,.07-.18,.07Z"
           id="path580" />
        <path
           class="uuid-25f19c22-641f-4ca2-ab60-5bf64a186493"
           d="M28.5,71.25c-.07,0-.13-.03-.18-.08-.04-.04-.07-.1-.07-.17s.03-.13,.08-.18c.09-.09,.25-.09,.35,0,.05,.05,.07,.12,.07,.18s-.02,.13-.07,.18c-.04,.04-.11,.07-.18,.07Z"
           id="path582" />
        <path
           class="uuid-25f19c22-641f-4ca2-ab60-5bf64a186493"
           d="M.75,29.5c-.06,0-.13-.03-.17-.07-.05-.05-.08-.12-.08-.18,0-.07,.03-.13,.08-.18,.08-.09,.24-.09,.35,0,.04,.05,.07,.11,.07,.18s-.02,.13-.07,.18c-.05,.05-.11,.07-.18,.07Z"
           id="path584" />
        <path
           class="uuid-25f19c22-641f-4ca2-ab60-5bf64a186493"
           d="M24.5,1c-.06,0-.12-.02-.17-.07-.05-.05-.08-.12-.08-.18,0-.07,.03-.13,.07-.18,.11-.09,.26-.09,.36,0,.04,.05,.07,.11,.07,.18s-.02,.13-.07,.17c-.05,.06-.11,.08-.18,.08Z"
           id="path586" />
        <path
           class="uuid-25f19c22-641f-4ca2-ab60-5bf64a186493"
           d="M13.25,5c-.07,0-.13-.03-.18-.07-.04-.05-.07-.12-.07-.18,0-.07,.03-.13,.07-.18,.09-.09,.26-.09,.36,0,.05,.05,.07,.11,.07,.18,0,.06-.02,.13-.07,.17-.05,.06-.11,.08-.18,.08Z"
           id="path588" />
        <path
           class="uuid-25f19c22-641f-4ca2-ab60-5bf64a186493"
           d="M71,35.25c-.06,0-.13-.03-.17-.07-.05-.05-.08-.11-.08-.18s.03-.13,.08-.18c.08-.08,.25-.09,.35,0,.05,.05,.07,.11,.07,.18s-.02,.13-.07,.18c-.05,.05-.11,.07-.18,.07Z"
           id="path590" />
      </g>
    </pattern>
  </defs>
  <path
     class="uuid-896e4096-1522-4e70-bace-c93a508d1f34"
     d="m 301.34,217.21 c 0.52,-4 1.24,-8.18 4.49,-10.92 3.68,-3.12 8.14,-1.66 12.05,-3.72 1.75,-0.92 3.16,-2.2 4.63,-3.39 10.13,9.33 23.96,15.41 36.63,19.49 7.14,2.3 14.96,3.91 21.27,8.15 6.91,4.65 7.09,11.56 7.52,19.17 0.38,6.86 1.57,15.27 7.33,19.85 4.76,3.79 9.38,1.05 14.69,1.21 13.17,0.39 6.36,21.39 1.5,27.43 -3.94,4.9 -10.36,9.43 -10.25,16.39 0.03,1.68 0.3,4.04 0.97,6.24 -2.05,1.15 -5.05,1.91 -6.68,2.94 -3.8,2.39 -6.14,6.07 -6.03,10.64 0.26,11.04 11.46,17.32 20.08,21.77 3.99,2.06 8.75,4.59 13.39,4.57 4.84,-0.02 9.11,-3.2 13.56,-4.67 1.42,-0.47 3.39,-1.34 4.68,-0.25 1.76,1.49 0.43,2.58 -0.85,4.64 -3.01,4.83 -7.29,9.43 -8.24,15.24 -0.53,3.26 1.31,6.2 4.82,6.33 3.36,0.13 5.67,-1.05 8.35,-2.9 0.38,-0.27 2.2,-1.29 2.25,-1.74 0.43,0.13 0.86,0.3 1.19,0.38 3.96,1 8.46,1.66 11.85,4.07 4.65,3.31 6.64,9.2 1.61,13.19 -3.26,2.59 -6.8,4.11 -8.38,8.29 -4.77,12.59 9.45,25.26 17.14,33.17 4.21,4.33 8.28,7.89 13.2,11.38 2.76,1.96 7.24,4.74 9.54,8.14 0.11,4.04 -0.07,8.39 -2.8,11.13 -4.4,4.42 -13.63,3.26 -19.36,3.7 -7.21,0.55 -14.42,1.09 -21.64,1.59 -15.09,1.05 -30.18,1.95 -45.3,2.49 -29.44,1.05 -60.06,1.78 -89.27,-2.66 -5.59,-0.85 -10.72,-3.33 -12.86,-8.95 -2.05,-5.39 -0.8,-11.39 -0.11,-16.92 0.16,-1.3 0.34,-2.6 0.51,-3.9 -0.81,-25.15 -1.62,-50.29 -2.43,-75.44 -0.39,-12.1 -0.95,-24.21 -0.65,-36.31 0.3,-12.5 2.7,-24.46 4.06,-36.83 1.37,-12.44 -3.1,-23.82 -4.28,-36.05 -1.19,-12.29 0.22,-24.72 1.79,-36.91 z"
     id="path597" />
  <path
     class="uuid-a33b1b8e-4cf0-4e44-a2ea-63243408772a"
     d="m 306.17,367.9 c -1.41,-25.85 -1.32,-51.75 0.16,-77.6 0.75,-13.15 1.74,-26.32 1.26,-39.5 -0.23,-6.52 -0.96,-12.99 -1.52,-19.49 -0.45,-5.25 -1.37,-11.13 0.09,-16.31 3,-10.66 4.41,-10.58 13.33,-11.65 L 330.83,202 c 1.47,-0.18 3.07,-0.56 4.62,-0.64 3.38,3.73 5.8,9.6 9.33,12.27 3.32,2.51 7.53,3.82 11.43,5.13 4.03,1.36 7.95,2.99 11.96,4.37 3.97,1.36 8.28,1.99 12.05,3.9 4.59,2.33 5.01,6.05 4.88,10.81 -0.12,4.44 -0.45,8.99 1.17,13.23 1.24,3.23 3.4,5.96 5.55,8.62 3.61,4.49 8.07,10.21 13.33,12.87 5.11,2.58 11,-0.04 16.36,0.4 0.46,0.04 1.23,0.22 1.62,0.32 -0.08,0.23 -0.17,0.46 -0.3,0.65 -1.75,2.69 -3.35,5.51 -5.08,8.22 -1.52,2.37 -3.02,4.73 -3.76,7.47 -1.05,3.89 -1.14,7.99 -2.35,11.86 -1.13,3.63 -3.31,6.65 -7,7.86 -2.85,0.94 -5.85,1.32 -8.47,2.92 -5.76,3.53 -7.82,11.6 -5.93,17.86 3.61,11.97 19.94,16.04 30.8,17.25 5.77,0.64 16.06,-0.37 19.25,5.63 3.72,6.98 3.17,14.34 10.85,18.84 4.15,2.43 13.77,4.37 13.72,10.43 -0.06,6.77 -7.86,6.15 -10.85,11.21 -7.85,13.3 6.91,27.18 13.99,36.87 1.63,2.23 2,4.65 3.32,7.01 1.7,3.03 4.99,5.44 8.11,6.81 1.9,0.84 4.47,0.86 6.2,1.97 1.49,0.96 1.87,2.45 2.34,4.15 0.08,0.29 0.15,0.59 0.22,0.89 l 0.06,3.87 c 0.04,2.01 -1.57,4.49 -3.66,4.82 -0.24,0.04 -0.47,0.06 -0.71,0.09 -1.31,2.19 -3.24,3.84 -6.09,4.54 -5.25,1.27 -11.2,1.19 -16.56,1.52 -5.23,0.32 -10.48,0.51 -15.72,0.6 -44.97,0.81 -90.19,-4.03 -135.03,-6.99 -2.06,-0.14 -4.77,-1.39 -4.81,-3.67 -0.47,-25.36 2.11,-58.5 0.51,-88.03 z"
     id="path599"
     sodipodi:nodetypes="cccccccccccccccccccccccccccccccccccccccccccccc"
     style="fill:url(#pattern2827)" />
  <g
     id="g605"
     transform="translate(0.02,-1.5799999)">
    <line
       class="uuid-a424a05a-ba8d-433a-bb6d-0ef42522c551"
       x1="300.35999"
       y1="465.57999"
       x2="499.88931"
       y2="465.57999"
       id="line601" />
    <line
       class="uuid-70d1236a-0aa3-497a-a7f7-279f305d51d2"
       x1="300.35999"
       y1="493.60001"
       x2="499.89371"
       y2="493.60001"
       id="line603" />
  </g>
  <g
     id="g637"
     transform="translate(0.02,-1.5799999)">
    <path
       class="uuid-02802721-c140-43c9-b582-df0f4933229d"
       d="m 300.83,16.28 c -0.33,-5.99 -2.16,-10.89 -5.95,-11.79 -2.2,-0.52 -4.49,-0.2 -6.7,-0.17 -2.41,0.03 -4.82,0.05 -7.22,0.08 -9.51,0.1 -19.02,0.21 -28.54,0.31 C 214.31,5.13 176.2,5.53 138.08,5.99 99.91,6.45 61.73,6.99 23.56,7.75 18.85,7.84 14.14,7.94 9.43,8.04 8.86,8.05 8.41,8.38 8.07,8.87 8.07,8.12 8.06,7.36 8.05,6.61 8.01,1.94 3.65,1.92 3.69,6.61 c 0.53,62.81 0.8,125.62 0.79,188.44 0,62.81 -0.28,125.63 -0.83,188.44 -0.05,5.66 -0.11,11.31 -0.17,16.97 0.24,10.98 0.54,21.96 0.86,32.93 0.37,12.89 0.83,25.8 0.88,38.71 0.03,7.04 -0.36,14.23 -0.19,21.31 37.58,0.21 75.15,0.41 112.73,0.62 37.58,0.21 75.16,0.41 112.74,0.62 l 63.65,0.35 c 1.16,0 2.21,-1.67 2.18,-3.63 -0.87,-63.54 -1.14,-127.11 -0.81,-190.67 0.33,-63.56 1.26,-127.11 2.79,-190.61 0.39,-16.08 0.81,-32.15 1.28,-48.23 0.23,-8.04 0.47,-16.07 0.73,-24.11 0.22,-7.02 0.91,-14.44 0.52,-21.45 z"
       id="path607" />
    <path
       class="uuid-a33b1b8e-4cf0-4e44-a2ea-63243408772a"
       d="m 300.08,300.09 c -0.36,-0.76 -0.59,-1.75 -0.59,-2.99 -0.02,-3.95 0,-7.89 0.03,-11.84 0.07,-19.91 0.26,-39.83 0.4,-59.74 -0.52,-0.79 -0.89,-1.91 -0.97,-3.36 -1.06,-21.31 -1.48,-42.48 -1.04,-63.85 0.21,-10.33 0.85,-20.75 0.74,-31.08 -0.05,-5.33 -0.16,-10.99 0.71,-16.19 -0.19,-13.05 0.09,-26.13 0.72,-39.14 -0.07,-5.36 -0.1,-10.72 -0.08,-16.07 -0.63,-16.42 -0.28,-32.83 0.84,-49.15 -0.2,-0.76 -0.46,-1.44 -0.76,-2.04 -3.15,-0.41 -6.31,-0.63 -9.47,-0.73 -0.33,0 -0.66,-0.01 -0.99,-0.03 -0.1,0 -0.2,0 -0.3,0 -0.12,0.16 -0.25,0.32 -0.36,0.49 -2,-0.18 -4,-0.33 -6,-0.5 -4.86,0.08 -9.72,0.32 -14.57,0.51 -12.24,0.46 -24.48,0.14 -36.72,0.4 -1.63,0.03 -3.26,0.09 -4.9,0.17 0,0.01 -0.02,0.03 -0.02,0.04 -0.32,0 -0.63,0 -0.95,0 -17.33,0.86 -34.99,3.47 -52.21,-0.04 -6.66,1.07 -13.4,1.39 -20,1.42 C 148.58,6.4 143.57,5.96 138.56,5.63 137.03,5.53 135.53,5.38 134.04,5.1 113.19,6.88 92.34,9.42 71.45,8.48 59.27,7.93 47.17,7.07 34.97,7.44 29.69,7.6 24.42,7.87 19.14,7.92 14.86,7.96 10.43,7.77 6.28,5.83 6.05,6.75 5.81,7.65 5.6,8.51 4.4,13.28 3.02,17.92 1.73,22.63 1.71,29.7 1.64,36.77 1.53,43.84 1.43,58.11 1.24,72.39 1,86.66 c 0.09,3.25 0.18,6.49 0.26,9.74 0.54,22.46 0.91,44.93 1,67.41 0.48,0.59 0.85,1.42 0.99,2.49 2.82,22.16 1.54,44.47 0.22,66.79 -2.11,35.77 -2.01,71.42 -2.17,107.24 0.38,0.74 0.64,1.7 0.71,2.88 2.71,49.19 0.88,98.64 2.56,147.9 0.31,-0.02 0.62,-0.07 0.92,-0.15 0.22,1.17 0.55,2.27 0.98,3.25 2.96,-0.24 5.91,0.15 8,0.3 8.02,0.57 16.03,1.3 24.05,1.83 0.66,0.04 1.32,0.07 1.98,0.1 77.57,-5.08 155.22,-6.49 232.85,-4.26 0.48,-0.78 1.15,-1.34 2.03,-1.44 0.92,-0.1 1.79,0.04 2.66,0.34 6.05,0.86 12.3,2.29 18.41,1.88 1.02,-1.9 1.66,-4.48 1.65,-7.77 -0.19,-61.52 0.53,-123.02 2.11,-184.48 -0.05,-0.2 -0.1,-0.4 -0.13,-0.63 z M 210.55,167.01 c 0.94,19.29 2.56,38.4 2.65,57.73 0.05,9.6 0.44,19.2 -1.17,28.71 -0.76,4.5 -2.23,8.26 -1.01,12.83 1,3.75 2.17,7.27 2.4,11.18 0.2,3.46 -3.33,5.41 -6.32,4.82 -8.47,-1.66 -17.64,-1 -26.25,-0.98 -8.25,0.01 -16.5,0.05 -24.75,0.05 -8.25,0 -16.49,0.03 -24.73,0 -4.42,-0.02 -8.96,-0.24 -13.33,0.52 -3.48,0.61 -6.7,1.65 -10.28,1.26 -2.71,-0.3 -4.97,-2.08 -4.99,-5 -0.11,-12.93 1.35,-25.84 1.49,-38.79 0.14,-12.68 -0.17,-25.31 -0.6,-37.98 -0.45,-13.18 1.01,-26.2 0.89,-39.36 -0.12,-13.21 -1.5,-26.37 -2.89,-39.5 -0.47,-4.47 4.25,-5.78 7.38,-4.01 0.72,-0.48 1.62,-0.77 2.7,-0.77 22.5,0 45.01,-0.09 67.51,0.48 6.63,0.17 13.09,0.12 19.68,-0.36 4.3,-0.32 11.07,-1.3 13.8,3.03 2.91,4.6 -0.47,13.04 -1.18,17.96 -1.35,9.34 -1.47,18.78 -1.01,28.2 z"
       id="path609" />
    <path
       class="uuid-832e1814-ac1b-4385-b6f6-53531fa99ea5"
       d="m 215.46,199.76 c -1.05,-25.56 -3.33,-51.13 -0.98,-76.69 0.26,-2.8 -2.5,-4.85 -4.99,-5 -32.69,-1.95 -65.43,-2.96 -98.18,-3.04 -1.37,0 -2.45,0.45 -3.23,1.17 -2.1,0.38 -3.92,1.95 -3.85,4.73 0.87,35.25 3.01,70.75 1.99,106 -0.25,8.5 -0.98,16.98 -1.34,25.48 -0.34,8.11 -1.08,17.78 1.17,25.67 2.11,7.42 11.62,5.54 17.58,5.53 8.54,-0.02 17.07,-0.33 25.6,-0.69 19.99,-0.85 40,-1.91 59.98,-0.32 3.44,0.27 5.42,-3.4 4.81,-6.33 -2.6,-12.6 0.38,-25.55 1.27,-38.18 0.9,-12.75 0.69,-25.55 0.17,-38.32 z"
       id="path611" />
    <line
       class="uuid-bb027ed3-5453-4ddf-a469-768800c36c7f"
       x1="102.67"
       y1="103.16"
       x2="102.67"
       y2="289.81"
       id="line613" />
    <line
       class="uuid-bb027ed3-5453-4ddf-a469-768800c36c7f"
       x1="214.17999"
       y1="120.6"
       x2="214.17999"
       y2="280.67001"
       id="line615" />
    <line
       class="uuid-bb027ed3-5453-4ddf-a469-768800c36c7f"
       x1="90.730003"
       y1="116.84"
       x2="222.14999"
       y2="116.84"
       id="line617" />
    <line
       class="uuid-bb027ed3-5453-4ddf-a469-768800c36c7f"
       x1="105.67"
       y1="110.16"
       x2="225.14"
       y2="110.16"
       id="line619" />
    <line
       class="uuid-bb027ed3-5453-4ddf-a469-768800c36c7f"
       x1="300.35999"
       y1="497.42001"
       x2="8.1599998"
       y2="497.42001"
       id="line621" />
    <line
       class="uuid-bb027ed3-5453-4ddf-a469-768800c36c7f"
       x1="294.03"
       y1="2.5799999"
       x2="2.53"
       y2="2.5799999"
       id="line623" />
    <line
       class="uuid-bb027ed3-5453-4ddf-a469-768800c36c7f"
       x1="2.1099999"
       y1="16.549999"
       x2="2.1099999"
       y2="497.42001"
       id="line625" />
    <line
       class="uuid-bb027ed3-5453-4ddf-a469-768800c36c7f"
       x1="300.35999"
       y1="483.45001"
       x2="300.35999"
       y2="2.5799999"
       id="line627" />
    <line
       class="uuid-bb027ed3-5453-4ddf-a469-768800c36c7f"
       x1="83.120003"
       y1="282.28"
       x2="225.67999"
       y2="282.28"
       id="line629" />
    <line
       class="uuid-bb027ed3-5453-4ddf-a469-768800c36c7f"
       x1="88.099998"
       y1="294.60001"
       x2="234.63"
       y2="294.60001"
       id="line631" />
    <line
       class="uuid-bb027ed3-5453-4ddf-a469-768800c36c7f"
       x1="85.610001"
       y1="285.07001"
       x2="85.610001"
       y2="297.59"
       id="line633" />
    <line
       class="uuid-bb027ed3-5453-4ddf-a469-768800c36c7f"
       x1="227.64999"
       y1="277.31"
       x2="227.64999"
       y2="292.73999"
       id="line635" />
  </g>
  <path
     class="uuid-0c6d299e-f60a-47e1-9a87-7a68f8a01855"
     d="m 350.57,460.82 c -0.39,-0.03 -0.98,-0.41 -1.09,-0.76 -0.35,-1.06 0.44,-2.51 1.46,-2.96 4.17,-1.85 6.04,-8.26 3.58,-12.11 -1.41,-2.21 -2.8,-4.44 -4.09,-6.72 -1.14,-2.01 -1.48,-4.22 -1.29,-6.54 0.25,-3.01 1.33,-5.69 2.87,-8.26 1.97,-3.28 3.33,-6.65 0.35,-10.18 -0.63,-0.75 0.58,-3.98 1.5,-4.22 0.29,-0.07 0.66,0.18 1,0.26 0.69,0.17 1.38,0.39 2.09,0.48 1.06,0.13 2.2,-0.05 3.18,0.29 1.28,0.44 2.43,1.25 3.7,1.94 0.62,-0.47 1.35,-1.03 2.29,-1.75 -0.04,0.82 -0.06,1.31 -0.09,1.85 0.91,-0.17 1.75,-0.34 2.95,-0.56 -0.4,0.97 -0.63,1.54 -0.87,2.12 -0.78,1.8 -1.55,3.61 -2.35,5.41 -0.95,2.14 -0.82,4.28 0.28,6.25 0.89,1.58 1.91,3.19 3.23,4.41 2.02,1.87 4.3,3.45 6.53,5.08 6.03,4.42 10.68,9.84 12.62,17.26 0.52,1.99 1.74,3.07 3.8,3.48 1.69,0.34 3.34,0.98 4.95,1.63 0.99,0.4 1.9,1.12 1.78,2.37 -0.12,1.28 -1.23,1.7 -2.25,1.93 -1.38,0.31 -2.82,0.37 -4.22,0.59 -4.63,0.73 -9.25,1.51 -13.88,2.22 -1.2,0.18 -2.43,0.17 -3.65,0.25 -0.06,-0.22 -0.13,-0.45 -0.19,-0.67 0.92,-0.54 1.79,-1.17 2.76,-1.59 1.05,-0.45 2.18,-0.7 3.29,-1.01 0.99,-0.28 2,-0.52 3,-0.78 -0.71,-0.22 -1.35,-0.22 -1.98,-0.13 -7.75,1.08 -15.52,0.66 -23.29,0.36 -0.69,-0.03 -1.37,-0.47 -2.37,-0.84 -1.47,1.36 -3.54,1.06 -5.55,0.92 z m 14.12,-5.41 c -1.19,-1.23 -2.3,-2.37 -3.63,-3.74 -0.6,1.45 -1.27,3.07 -2.08,5.04 2.2,-0.28 4.23,0.01 5.7,-1.3 z"
     id="path639" />
  <path
     class="uuid-b9f8e5e8-6830-40d9-90bb-8e0217a6b3d6"
     d="m 225.35,247.65 c -0.13,0.05 -0.4,0.17 -0.78,0.32 0.12,0.39 0.3,0.81 0.37,1.25 0.07,0.4 0.01,0.82 0.01,1.47 -0.42,0.36 -0.96,0.83 -1.62,1.4 h -3.46 c -1.1,0.8 -2.31,1.68 -3.58,2.6 0,2.27 -0.18,4.44 0.05,6.57 0.26,2.49 1.25,4.83 2.46,7.02 0.87,1.58 2.08,2.98 2.91,4.58 1.05,2.02 2.7,3.21 4.81,4.25 0.46,1.03 1.89,2.18 -0.07,3.47 -2.73,0.32 -5.04,-0.39 -7,-2.58 -2.2,-2.46 -4.54,-4.81 -7,-6.99 -2.17,-1.92 -4.23,-4.06 -7.14,-5.07 -4.08,3.89 -6.74,8.37 -5.09,14.15 -1.08,2.17 -2.81,0.48 -4.13,1.02 -1.56,-1.13 -2.18,-2.72 -2.1,-4.71 0.09,-2.47 -0.03,-4.95 0.02,-7.43 0.03,-1.38 0.22,-2.76 0.35,-4.3 -2.89,-0.29 -5.86,-1.13 -8.73,-1.4 -1.52,2.98 -2.88,5.64 -4.39,8.61 0.42,0.92 0.99,2.16 1.55,3.4 0.72,1.59 2.87,0.35 3.73,2.04 v 2.33 c -0.58,0.74 0.29,1.32 -6.1,0.27 -0.91,-1.14 -2.02,-2.46 -3.04,-3.85 -0.95,-1.29 -1.81,-2.64 -2.59,-3.79 v -8.37 c -3.45,2.49 -6.87,4.59 -10.56,6.22 -1.73,0.77 -2.17,2.53 -2.98,4.02 -0.86,1.58 -0.75,3.06 0.16,4.61 -0.39,0.46 -0.71,0.84 -1.04,1.22 -1.28,0 -2.5,0 -3.82,0 -1.31,-1.37 -1.7,-2.71 -1.08,-4.84 0.66,-2.28 0.72,-4.77 2.03,-6.84 2.3,-3.64 4.11,-7.49 5.57,-11.54 1.01,-2.81 2.37,-5.51 3.72,-8.19 0.86,-1.72 0.72,-3.25 -0.13,-4.88 -1.64,-3.11 -3.25,-6.23 -4.8,-9.39 -1.53,-3.12 -1.77,-6.37 -0.67,-9.7 -0.27,-1.77 -1.34,-2.83 -2.99,-3.42 -1.58,-0.56 -2.83,-1.57 -3.78,-2.95 0.31,-1.38 0.3,-1.39 1.61,-2.64 3.96,0.05 7.2,1.88 9.74,4.95 0.64,0.78 0.76,2.03 1.02,3.08 0.12,0.49 0.07,1.03 0.02,1.54 -0.29,3.02 0.39,5.8 1.84,8.46 0.62,1.13 0.96,2.41 1.51,3.58 0.98,2.07 2.02,4.11 3.09,6.29 1.7,-0.27 3.38,-0.45 5.02,-0.81 2.79,-0.62 6.07,-0.64 9.3,0.06 0.49,0.11 1.02,0.05 1.53,0.08 3.41,0.19 6.72,0.96 10.05,1.65 2.45,0.5 4.96,0.72 7.05,1.01 4.01,-3.07 7.63,-5.83 11.47,-8.77 1.34,0.49 1.99,1.7 1.75,3.12 1.36,1.31 2.68,2.3 3.63,3.56 0.95,1.27 1.54,2.81 2.3,4.25 z"
     id="path641" />
  <path
     class="uuid-bb027ed3-5453-4ddf-a469-768800c36c7f"
     d="m 302.57,207.71 c 1.64,-1.84 3.47,-1.79 5.49,-3.15 2.63,-1.76 5.14,-5.65 7.78,-7.03 7.57,-3.96 8.52,4.43 13.84,8.19 6,4.24 12.38,8.38 19.27,11.13 6.56,2.61 14.39,1.58 20.1,4.81 5.71,3.23 11.15,9.97 14.49,15.29 3.65,5.83 4.14,10.97 5.48,18.03 0.46,2.44 0.3,7.45 2.25,9.4 4.15,4.15 7.53,0.31 12.4,0.51 3.86,0.15 7.94,1.78 10.67,4.63 5.12,5.35 2.37,4.52 -0.73,9.51 -4.66,7.5 -2.63,12.53 -1.82,20.95 0.24,2.52 1.46,9.06 -0.12,11.35 -2.86,4.17 -3.07,1.17 -7.48,1.28 -13.51,0.36 -16.09,20.81 -7.9,29.93 4.42,4.93 17.09,18.03 24.03,18.85 6.94,0.82 9.41,-11.14 17.94,-8.77 10.28,2.85 -4.98,11.8 -3.29,19.29 2.6,11.54 10.83,4.67 17.91,5.29 10.91,0.96 17.42,10.96 10.5,19.54 -6.06,7.51 -15.1,12.36 -7.07,22.45 6.28,7.89 14.83,14.94 21.7,22.43 2.96,3.23 18.56,18.23 18.77,18.14"
     id="path643" />
</svg>
