<?xml version="1.0" encoding="UTF-8"?>
<svg id="uuid-93fe23ef-0d2e-4d20-944b-0b6707da9ffd" data-name="FIL et SILHOUETTES" xmlns="http://www.w3.org/2000/svg" xmlns:xlink="http://www.w3.org/1999/xlink" viewBox="0 0 500 500">
  <defs>
    <pattern id="uuid-49002c93-e422-42fb-8613-7f542fab1552" data-name="Lac asséché sableux USGS 17" x="0" y="0" width="72" height="72" patternTransform="translate(8507.4 6918.13) scale(2.31)" patternUnits="userSpaceOnUse" viewBox="0 0 72 72">
      <g>
        <rect width="72" height="72" style="fill: none;"/>
        <path d="M21,3c-.06,0-.12-.02-.17-.07-.05-.05-.08-.11-.08-.18s.03-.13,.08-.18c.09-.09,.25-.09,.35,0,.05,.05,.07,.11,.07,.18,0,.06-.02,.12-.07,.17-.05,.06-.11,.08-.18,.08Z" style="fill: #1d1d1b;"/>
        <path d="M20,8.25c-.06,0-.13-.03-.18-.07-.04-.05-.07-.11-.07-.18s.03-.13,.07-.18c.1-.09,.26-.09,.36,0,.04,.05,.07,.11,.07,.18s-.03,.13-.07,.18c-.05,.05-.11,.07-.18,.07Z" style="fill: #1d1d1b;"/>
        <path d="M20.25,10.5c-.06,0-.13-.03-.17-.07-.05-.05-.08-.11-.08-.18s.03-.13,.07-.18c.1-.09,.27-.09,.36,0,.04,.05,.07,.11,.07,.18s-.03,.14-.08,.18c-.04,.04-.1,.07-.17,.07Z" style="fill: #1d1d1b;"/>
        <path d="M18,12.75c-.06,0-.12-.03-.17-.07-.05-.05-.08-.11-.08-.18s.03-.13,.07-.18c.11-.09,.26-.09,.36,0,.05,.05,.07,.11,.07,.18s-.02,.13-.07,.18c-.05,.04-.11,.07-.18,.07Z" style="fill: #1d1d1b;"/>
        <path d="M15.25,10.5c-.06,0-.12-.02-.17-.07-.05-.05-.08-.12-.08-.18,0-.07,.03-.13,.07-.18,.12-.1,.26-.09,.36,0,.05,.05,.07,.11,.07,.18,0,.06-.02,.13-.07,.17-.05,.06-.11,.08-.18,.08Z" style="fill: #1d1d1b;"/>
        <path d="M22.75,20c-.06,0-.12-.02-.17-.07-.05-.05-.08-.11-.08-.18,0-.06,.03-.13,.07-.17,.11-.11,.27-.1,.36,0,.05,.06,.07,.12,.07,.18s-.02,.13-.07,.18c-.05,.04-.11,.07-.18,.07Z" style="fill: #1d1d1b;"/>
        <path d="M15.25,23c-.06,0-.12-.02-.17-.07-.05-.05-.08-.11-.08-.18,0-.06,.03-.12,.07-.17,.12-.11,.26-.1,.36,0,.05,.05,.07,.12,.07,.18,0,.07-.02,.13-.07,.18-.05,.05-.11,.07-.18,.07Z" style="fill: #1d1d1b;"/>
        <path d="M14,24c-.07,0-.13-.03-.18-.08-.04-.04-.07-.1-.07-.17s.03-.13,.07-.18c.11-.1,.26-.09,.36,0,.05,.05,.07,.12,.07,.18,0,.07-.02,.13-.07,.18-.05,.04-.11,.07-.18,.07Z" style="fill: #1d1d1b;"/>
        <path d="M24,27c-.06,0-.12-.02-.17-.07-.05-.05-.08-.11-.08-.18s.03-.13,.07-.17c.11-.11,.26-.1,.36,0,.05,.06,.07,.12,.07,.18,0,.07-.02,.13-.07,.18-.05,.05-.11,.07-.18,.07Z" style="fill: #1d1d1b;"/>
        <path d="M30.75,25.75c-.06,0-.12-.02-.17-.07-.05-.05-.08-.11-.08-.18s.03-.13,.08-.18c.1-.09,.25-.09,.35,0,.05,.05,.07,.12,.07,.18s-.02,.13-.07,.18c-.05,.05-.11,.07-.18,.07Z" style="fill: #1d1d1b;"/>
        <path d="M31.25,23.25c-.06,0-.12-.03-.17-.07-.05-.05-.08-.11-.08-.18,0-.06,.03-.13,.07-.17,.11-.11,.26-.1,.36,0,.05,.06,.07,.12,.07,.18,0,.07-.02,.13-.07,.18-.05,.04-.11,.07-.18,.07Z" style="fill: #1d1d1b;"/>
        <path d="M29.25,18.25c-.06,0-.12-.02-.17-.07-.05-.05-.08-.11-.08-.18s.03-.13,.08-.18c.1-.09,.25-.09,.35,0,.05,.05,.07,.11,.07,.18s-.03,.13-.07,.18c-.05,.05-.12,.07-.18,.07Z" style="fill: #1d1d1b;"/>
        <path d="M32.25,18.25c-.06,0-.12-.02-.17-.07-.05-.05-.08-.11-.08-.18s.03-.13,.07-.18c.11-.09,.26-.09,.36,0,.04,.05,.07,.11,.07,.18s-.03,.13-.07,.18c-.05,.05-.11,.07-.18,.07Z" style="fill: #1d1d1b;"/>
        <path d="M32.5,13.75c-.06,0-.13-.03-.17-.07-.05-.05-.08-.11-.08-.18s.03-.13,.08-.18c.09-.09,.26-.09,.35,0,.05,.05,.07,.12,.07,.18s-.02,.12-.07,.17c-.05,.05-.11,.08-.18,.08Z" style="fill: #1d1d1b;"/>
        <path d="M31.75,11.75c-.06,0-.12-.02-.17-.07-.05-.05-.08-.11-.08-.18s.03-.13,.08-.18c.1-.09,.25-.09,.35,0,.05,.05,.07,.11,.07,.18s-.03,.13-.07,.18c-.05,.05-.11,.07-.18,.07Z" style="fill: #1d1d1b;"/>
        <path d="M29.25,10.75c-.07,0-.13-.03-.18-.07-.04-.05-.07-.11-.07-.18s.03-.13,.08-.18c.1-.09,.25-.09,.35,0,.05,.05,.07,.11,.07,.18s-.02,.13-.07,.18c-.05,.04-.11,.07-.18,.07Z" style="fill: #1d1d1b;"/>
        <path d="M32.25,7c-.06,0-.12-.02-.17-.07-.05-.05-.08-.11-.08-.18s.03-.13,.07-.18c.11-.09,.26-.09,.36,0,.05,.05,.07,.11,.07,.18s-.03,.13-.07,.18c-.05,.05-.11,.07-.18,.07Z" style="fill: #1d1d1b;"/>
        <path d="M32,3c-.06,0-.12-.03-.17-.07-.05-.05-.08-.11-.08-.18s.03-.13,.08-.18c.1-.09,.25-.09,.35,0,.05,.05,.07,.12,.07,.18s-.02,.13-.07,.18c-.05,.04-.11,.07-.18,.07Z" style="fill: #1d1d1b;"/>
        <path d="M29.25,3.25c-.06,0-.12-.02-.17-.07-.05-.05-.08-.11-.08-.18s.03-.13,.08-.18c.09-.09,.25-.09,.35,0,.05,.05,.07,.11,.07,.18,0,.06-.02,.13-.07,.17-.05,.06-.11,.08-.18,.08Z" style="fill: #1d1d1b;"/>
        <path d="M34,1.25c-.06,0-.13-.03-.17-.07-.05-.05-.08-.11-.08-.18s.03-.14,.08-.18c.09-.09,.26-.09,.35,0,.05,.05,.07,.11,.07,.18,0,.06-.02,.12-.07,.17-.05,.05-.11,.08-.18,.08Z" style="fill: #1d1d1b;"/>
        <path d="M41.5,7c-.06,0-.13-.03-.17-.07-.05-.05-.08-.11-.08-.18s.03-.13,.08-.18c.09-.09,.24-.09,.34,0,.06,.06,.08,.12,.08,.18s-.02,.12-.07,.17c-.05,.06-.11,.08-.18,.08Z" style="fill: #1d1d1b;"/>
        <path d="M45.5,6.75c-.06,0-.12-.02-.17-.07-.05-.05-.08-.11-.08-.18s.03-.13,.08-.18c.09-.09,.25-.09,.35,0,.05,.05,.07,.12,.07,.18s-.02,.13-.07,.18c-.05,.05-.12,.07-.18,.07Z" style="fill: #1d1d1b;"/>
        <path d="M40.25,10.25c-.06,0-.12-.02-.17-.07-.05-.05-.08-.12-.08-.18,0-.07,.03-.13,.07-.18,.11-.09,.26-.09,.36,0,.05,.05,.07,.11,.07,.18,0,.06-.02,.13-.07,.17-.05,.06-.11,.08-.18,.08Z" style="fill: #1d1d1b;"/>
        <path d="M45,11.75c-.06,0-.12-.02-.17-.07-.05-.05-.08-.11-.08-.18s.03-.13,.08-.18c.1-.09,.25-.09,.35,0,.04,.05,.07,.11,.07,.18s-.02,.13-.07,.18c-.05,.05-.11,.07-.18,.07Z" style="fill: #1d1d1b;"/>
        <path d="M45,13.5c-.06,0-.12-.02-.17-.07-.05-.05-.08-.11-.08-.18s.03-.13,.08-.18c.08-.09,.26-.09,.35,0,.05,.04,.07,.1,.07,.17s-.02,.13-.07,.18c-.05,.05-.11,.07-.18,.07Z" style="fill: #1d1d1b;"/>
        <path d="M47,14.25c-.06,0-.12-.02-.17-.07-.05-.05-.08-.11-.08-.18s.03-.13,.08-.18c.09-.09,.25-.09,.35,0,.05,.05,.07,.12,.07,.18s-.02,.13-.07,.18c-.05,.05-.11,.07-.18,.07Z" style="fill: #1d1d1b;"/>
        <path d="M47,16.25c-.06,0-.13-.03-.17-.07-.05-.05-.08-.11-.08-.18s.03-.13,.08-.18c.08-.08,.26-.09,.35,0,.05,.04,.07,.11,.07,.17s-.02,.13-.07,.18c-.05,.04-.11,.07-.18,.07Z" style="fill: #1d1d1b;"/>
        <path d="M47.25,22.75c-.06,0-.13-.03-.17-.07-.05-.04-.08-.11-.08-.18s.03-.13,.08-.18c.08-.08,.25-.09,.35,0,.05,.05,.07,.11,.07,.18s-.03,.13-.07,.18c-.05,.05-.11,.07-.18,.07Z" style="fill: #1d1d1b;"/>
        <path d="M39,20.75c-.06,0-.12-.02-.17-.07-.05-.05-.08-.11-.08-.18s.03-.13,.08-.18c.1-.09,.25-.09,.35,0,.04,.05,.07,.11,.07,.18s-.03,.13-.07,.18c-.05,.05-.11,.07-.18,.07Z" style="fill: #1d1d1b;"/>
        <path d="M50.25,13.5c-.06,0-.13-.03-.17-.07-.05-.05-.08-.11-.08-.18s.03-.13,.08-.18c.1-.09,.26-.09,.35,0,.05,.05,.07,.12,.07,.18s-.02,.13-.07,.18c-.05,.04-.11,.07-.18,.07Z" style="fill: #1d1d1b;"/>
        <path d="M52.25,12c-.06,0-.12-.02-.17-.07-.05-.05-.08-.11-.08-.18s.03-.13,.08-.18c.09-.09,.25-.09,.35,0,.05,.05,.07,.12,.07,.18s-.02,.13-.07,.18c-.05,.05-.11,.07-.18,.07Z" style="fill: #1d1d1b;"/>
        <path d="M54.75,11c-.06,0-.13-.03-.17-.07-.05-.05-.08-.12-.08-.18,0-.07,.03-.13,.08-.18,.09-.09,.25-.09,.35,0,.05,.05,.07,.11,.07,.18,0,.06-.02,.13-.07,.18-.05,.04-.11,.07-.18,.07Z" style="fill: #1d1d1b;"/>
        <path d="M54.75,6.75c-.07,0-.13-.03-.17-.07-.05-.06-.08-.12-.08-.18s.03-.12,.07-.17c.1-.1,.26-.1,.36,0,.05,.06,.07,.12,.07,.18s-.02,.12-.07,.17c-.05,.05-.11,.08-.18,.08Z" style="fill: #1d1d1b;"/>
        <path d="M56.5,.75c-.06,0-.13-.03-.17-.07-.05-.05-.08-.12-.08-.18s.03-.13,.07-.18c.1-.09,.26-.09,.36,0,.05,.06,.07,.12,.07,.18s-.02,.12-.07,.17c-.05,.05-.11,.08-.18,.08Z" style="fill: #1d1d1b;"/>
        <path d="M64,6.5c-.06,0-.13-.03-.17-.07-.05-.05-.08-.12-.08-.18s.03-.13,.07-.17c.1-.1,.26-.1,.36,0,.05,.06,.07,.12,.07,.18s-.02,.12-.07,.17c-.05,.05-.11,.08-.18,.08Z" style="fill: #1d1d1b;"/>
        <path d="M65,2.5c-.06,0-.13-.03-.17-.07-.05-.05-.08-.11-.08-.18s.03-.13,.08-.18c.09-.09,.25-.09,.35,0,.05,.05,.07,.11,.07,.18s-.02,.13-.07,.17c-.05,.06-.11,.08-.18,.08Z" style="fill: #1d1d1b;"/>
        <path d="M68,3c-.06,0-.13-.03-.17-.07-.05-.05-.08-.11-.08-.18s.03-.13,.07-.18c.1-.09,.27-.09,.36,0,.05,.05,.07,.12,.07,.18s-.02,.13-.07,.18c-.05,.04-.11,.07-.18,.07Z" style="fill: #1d1d1b;"/>
        <path d="M68,10.25c-.06,0-.13-.03-.17-.07-.05-.05-.08-.11-.08-.18s.03-.13,.07-.18c.1-.09,.26-.09,.36,0,.05,.05,.07,.12,.07,.18s-.02,.13-.07,.18c-.05,.04-.11,.07-.18,.07Z" style="fill: #1d1d1b;"/>
        <path d="M64.25,12.25c-.06,0-.13-.03-.17-.07-.05-.05-.08-.12-.08-.18s.03-.13,.07-.17c.09-.1,.25-.1,.35,0,.06,.05,.08,.12,.08,.18s-.02,.13-.07,.17c-.05,.06-.11,.08-.18,.08Z" style="fill: #1d1d1b;"/>
        <path d="M65.25,15.75c-.07,0-.13-.03-.17-.07-.05-.05-.08-.11-.08-.18s.03-.13,.08-.18c.07-.08,.26-.09,.35,0,.05,.04,.07,.11,.07,.17s-.02,.12-.07,.17c-.04,.05-.11,.08-.18,.08Z" style="fill: #1d1d1b;"/>
        <path d="M64,19.75c-.06,0-.13-.03-.17-.07-.05-.05-.08-.11-.08-.18s.03-.13,.08-.18c.08-.09,.25-.09,.35,0,.05,.05,.07,.12,.07,.18s-.02,.13-.07,.18c-.05,.04-.11,.07-.18,.07Z" style="fill: #1d1d1b;"/>
        <path d="M66.25,19.75c-.07,0-.13-.03-.18-.08-.04-.04-.07-.1-.07-.17,0-.06,.03-.13,.07-.17,.09-.1,.26-.1,.36,0,.05,.05,.07,.12,.07,.18,0,.07-.02,.13-.07,.18-.05,.04-.11,.07-.18,.07Z" style="fill: #1d1d1b;"/>
        <path d="M68,21.25c-.06,0-.13-.03-.17-.07-.05-.05-.08-.12-.08-.18s.03-.12,.07-.17c.1-.1,.27-.1,.36,0,.05,.06,.07,.12,.07,.18s-.02,.12-.07,.17c-.05,.05-.11,.08-.18,.08Z" style="fill: #1d1d1b;"/>
        <path d="M69.25,20.25c-.06,0-.12-.02-.17-.07-.05-.05-.08-.11-.08-.18s.03-.13,.08-.18c.09-.09,.25-.09,.35,0,.05,.05,.07,.11,.07,.18s-.02,.13-.07,.18c-.05,.05-.11,.07-.18,.07Z" style="fill: #1d1d1b;"/>
        <path d="M69.5,18c-.06,0-.12-.02-.17-.07-.05-.05-.08-.11-.08-.18s.03-.13,.08-.18c.09-.09,.25-.09,.35,0,.05,.05,.07,.11,.07,.18s-.02,.13-.07,.18c-.05,.05-.11,.07-.18,.07Z" style="fill: #1d1d1b;"/>
        <path d="M71.25,17.5c-.06,0-.13-.03-.17-.07-.05-.05-.08-.12-.08-.18s.03-.12,.07-.17c.11-.1,.26-.1,.36,0,.05,.06,.07,.12,.07,.18s-.02,.12-.07,.17c-.05,.05-.11,.08-.18,.08Z" style="fill: #1d1d1b;"/>
        <path d="M8,47c-.06,0-.13-.03-.18-.07-.04-.06-.07-.12-.07-.18,0-.07,.03-.13,.07-.18,.09-.09,.26-.09,.36,0,.05,.05,.07,.11,.07,.18,0,.06-.02,.13-.07,.17-.05,.06-.11,.08-.18,.08Z" style="fill: #1d1d1b;"/>
        <path d="M7,52.25c-.06,0-.12-.02-.17-.07-.05-.05-.08-.11-.08-.18s.03-.13,.07-.18c.11-.09,.26-.09,.36,0,.05,.05,.07,.12,.07,.18,0,.07-.02,.13-.07,.18-.05,.05-.11,.07-.18,.07Z" style="fill: #1d1d1b;"/>
        <path d="M7.25,54.5c-.06,0-.13-.03-.17-.07-.05-.05-.08-.11-.08-.18,0-.06,.03-.13,.07-.18,.1-.09,.26-.09,.36,0,.04,.05,.07,.11,.07,.18s-.03,.13-.07,.18c-.05,.04-.11,.07-.18,.07Z" style="fill: #1d1d1b;"/>
        <path d="M5,56.75c-.06,0-.13-.03-.17-.07-.05-.05-.08-.11-.08-.18s.03-.13,.07-.17c.1-.1,.26-.1,.36,0,.05,.05,.07,.11,.07,.18s-.03,.13-.07,.18c-.05,.05-.12,.07-.18,.07Z" style="fill: #1d1d1b;"/>
        <path d="M2.25,54.5c-.06,0-.12-.02-.17-.07-.05-.05-.08-.11-.08-.18,0-.06,.03-.13,.07-.17,.11-.11,.26-.1,.35,0,.06,.06,.08,.12,.08,.18s-.02,.13-.07,.18c-.06,.05-.12,.07-.18,.07Z" style="fill: #1d1d1b;"/>
        <path d="M9.75,64c-.06,0-.12-.02-.17-.07-.05-.05-.08-.11-.08-.18s.03-.13,.07-.18c.11-.09,.26-.09,.36,0,.05,.05,.07,.11,.07,.18s-.02,.13-.07,.18-.11,.07-.18,.07Z" style="fill: #1d1d1b;"/>
        <path d="M2.25,67c-.06,0-.12-.03-.17-.07-.05-.05-.08-.11-.08-.18s.03-.13,.07-.18c.1-.09,.26-.09,.36,0,.05,.05,.07,.11,.07,.18,0,.06-.02,.13-.07,.18-.06,.05-.12,.07-.18,.07Z" style="fill: #1d1d1b;"/>
        <path d="M1,68c-.06,0-.13-.03-.18-.07-.04-.05-.07-.11-.07-.18,0-.06,.03-.13,.07-.18,.1-.09,.27-.09,.36,0,.05,.05,.07,.12,.07,.18s-.02,.13-.07,.18c-.05,.04-.11,.07-.18,.07Z" style="fill: #1d1d1b;"/>
        <path d="M11,71c-.06,0-.12-.02-.17-.07-.05-.05-.08-.11-.08-.18s.03-.13,.07-.18c.11-.09,.26-.09,.36,0,.05,.05,.07,.12,.07,.18s-.02,.13-.07,.18c-.05,.05-.12,.07-.18,.07Z" style="fill: #1d1d1b;"/>
        <path d="M17.75,69.75c-.06,0-.12-.02-.17-.07-.05-.05-.08-.11-.08-.18s.03-.13,.07-.18c.11-.09,.26-.09,.36,0,.05,.05,.07,.11,.07,.18s-.03,.13-.07,.18c-.05,.05-.12,.07-.18,.07Z" style="fill: #1d1d1b;"/>
        <path d="M18.25,67.25c-.06,0-.12-.03-.17-.07-.05-.06-.08-.12-.08-.18,0-.07,.03-.13,.07-.18,.11-.09,.26-.09,.36,0,.05,.05,.07,.11,.07,.18,0,.06-.02,.13-.07,.17-.05,.05-.11,.08-.18,.08Z" style="fill: #1d1d1b;"/>
        <path d="M16.25,62.25c-.07,0-.13-.03-.18-.08-.04-.04-.07-.1-.07-.17s.03-.13,.07-.18c.1-.09,.26-.09,.36,0,.05,.05,.07,.11,.07,.18s-.02,.13-.07,.18c-.05,.04-.11,.07-.18,.07Z" style="fill: #1d1d1b;"/>
        <path d="M19.25,62.25c-.06,0-.13-.03-.17-.07-.05-.05-.08-.11-.08-.18s.03-.13,.07-.18c.1-.09,.27-.09,.36,0,.04,.04,.07,.11,.07,.18s-.03,.14-.08,.18c-.04,.04-.1,.07-.17,.07Z" style="fill: #1d1d1b;"/>
        <path d="M19.5,57.75c-.06,0-.12-.02-.17-.07-.05-.05-.08-.11-.08-.18,0-.06,.03-.13,.07-.17,.11-.11,.26-.1,.36,0,.05,.06,.07,.12,.07,.18s-.02,.13-.07,.18c-.05,.05-.11,.07-.18,.07Z" style="fill: #1d1d1b;"/>
        <path d="M18.75,55.75c-.06,0-.12-.02-.17-.07-.05-.05-.08-.11-.08-.18s.03-.13,.08-.18c.1-.09,.26-.09,.35,0,.05,.05,.07,.12,.07,.18s-.02,.12-.07,.17c-.05,.05-.11,.08-.18,.08Z" style="fill: #1d1d1b;"/>
        <path d="M16.25,54.75c-.06,0-.13-.03-.18-.07-.04-.05-.07-.11-.07-.18,0-.06,.03-.12,.07-.17,.1-.1,.26-.1,.36,0,.05,.05,.07,.12,.07,.18,0,.07-.02,.13-.07,.18-.05,.05-.11,.07-.18,.07Z" style="fill: #1d1d1b;"/>
        <path d="M19.25,51c-.06,0-.13-.03-.17-.07-.05-.05-.08-.12-.08-.18,0-.07,.03-.13,.07-.18,.1-.09,.27-.09,.36,0,.04,.04,.07,.11,.07,.18s-.02,.13-.07,.18c-.05,.04-.11,.07-.18,.07Z" style="fill: #1d1d1b;"/>
        <path d="M19,47c-.06,0-.13-.03-.17-.07-.05-.05-.08-.12-.08-.18,0-.07,.03-.13,.07-.18,.1-.09,.26-.09,.36,0,.04,.05,.07,.11,.07,.18,0,.06-.02,.13-.07,.17-.05,.06-.11,.08-.18,.08Z" style="fill: #1d1d1b;"/>
        <path d="M16.25,47.25c-.07,0-.13-.03-.18-.07-.04-.05-.07-.12-.07-.18,0-.07,.03-.13,.07-.18,.09-.09,.26-.09,.36,0,.05,.05,.07,.11,.07,.18,0,.06-.02,.13-.07,.18-.05,.05-.11,.07-.18,.07Z" style="fill: #1d1d1b;"/>
        <path d="M21,45.25c-.06,0-.12-.02-.17-.07-.05-.05-.08-.11-.08-.18s.03-.13,.08-.18c.1-.09,.25-.09,.35,0,.05,.05,.07,.12,.07,.18s-.02,.12-.07,.17c-.05,.06-.11,.08-.18,.08Z" style="fill: #1d1d1b;"/>
        <path d="M28.5,51c-.06,0-.13-.03-.17-.07-.05-.05-.08-.11-.08-.18s.03-.13,.08-.18c.09-.09,.26-.09,.35,0,.05,.06,.07,.12,.07,.18s-.02,.13-.07,.18c-.05,.04-.11,.07-.18,.07Z" style="fill: #1d1d1b;"/>
        <path d="M32.5,50.75c-.06,0-.13-.03-.17-.07-.05-.05-.08-.11-.08-.18s.03-.13,.08-.18c.09-.09,.25-.09,.35,0,.05,.05,.07,.12,.07,.18s-.02,.13-.07,.18c-.05,.04-.11,.07-.18,.07Z" style="fill: #1d1d1b;"/>
        <path d="M27.25,54.25c-.07,0-.13-.03-.18-.08-.04-.04-.07-.1-.07-.17s.03-.14,.08-.18c.09-.09,.26-.09,.35,0,.05,.05,.07,.11,.07,.18,0,.06-.02,.13-.07,.18-.04,.04-.11,.07-.18,.07Z" style="fill: #1d1d1b;"/>
        <path d="M32,55.75c-.06,0-.12-.03-.17-.07-.05-.05-.08-.11-.08-.18,0-.06,.03-.13,.07-.17,.11-.11,.26-.1,.36,0,.05,.06,.07,.12,.07,.18,0,.07-.02,.13-.07,.18-.05,.04-.11,.07-.18,.07Z" style="fill: #1d1d1b;"/>
        <path d="M32,57.5c-.06,0-.12-.02-.17-.07-.05-.05-.08-.11-.08-.18,0-.06,.03-.13,.07-.17,.11-.11,.26-.1,.36,0,.05,.06,.07,.12,.07,.18s-.02,.13-.07,.18c-.05,.05-.11,.07-.18,.07Z" style="fill: #1d1d1b;"/>
        <path d="M34,58.25c-.07,0-.13-.03-.18-.08-.04-.04-.07-.1-.07-.17s.03-.14,.08-.18c.09-.09,.26-.09,.35,0,.05,.05,.07,.11,.07,.18,0,.06-.02,.13-.07,.18-.04,.04-.11,.07-.18,.07Z" style="fill: #1d1d1b;"/>
        <path d="M34,60.25c-.06,0-.12-.02-.17-.07-.05-.05-.08-.11-.08-.18s.03-.13,.08-.18c.09-.09,.26-.09,.35,0,.05,.06,.07,.12,.07,.18s-.02,.13-.07,.18c-.05,.04-.11,.07-.18,.07Z" style="fill: #1d1d1b;"/>
        <path d="M34.25,66.75c-.06,0-.13-.03-.17-.07-.05-.05-.08-.11-.08-.18s.03-.13,.08-.18c.09-.09,.25-.09,.35,0,.05,.05,.07,.12,.07,.18s-.02,.13-.07,.18c-.05,.04-.11,.07-.18,.07Z" style="fill: #1d1d1b;"/>
        <path d="M26,64.75c-.06,0-.12-.02-.17-.07-.05-.05-.08-.11-.08-.18s.03-.13,.08-.18c.09-.09,.26-.09,.35,0,.05,.04,.07,.11,.07,.17,0,.07-.02,.13-.07,.18-.05,.05-.11,.07-.18,.07Z" style="fill: #1d1d1b;"/>
        <path d="M37.25,57.5c-.06,0-.13-.03-.17-.07-.05-.05-.08-.11-.08-.18s.03-.13,.08-.18c.09-.09,.25-.09,.34,0,.06,.05,.08,.12,.08,.18s-.02,.12-.07,.17c-.05,.06-.11,.08-.18,.08Z" style="fill: #1d1d1b;"/>
        <path d="M39.25,56c-.06,0-.13-.03-.17-.07-.05-.05-.08-.11-.08-.18s.03-.13,.08-.18c.09-.09,.25-.09,.35,0,.05,.05,.07,.12,.07,.18s-.02,.12-.07,.17c-.05,.06-.11,.08-.18,.08Z" style="fill: #1d1d1b;"/>
        <path d="M41.75,55c-.06,0-.13-.03-.17-.07-.05-.05-.08-.11-.08-.18s.03-.14,.08-.18c.09-.09,.26-.09,.35,0,.05,.05,.07,.11,.07,.18,0,.06-.02,.12-.07,.17-.05,.05-.11,.08-.18,.08Z" style="fill: #1d1d1b;"/>
        <path d="M41.75,50.75c-.06,0-.12-.02-.17-.07-.05-.05-.08-.11-.08-.18s.03-.13,.08-.18c.09-.09,.26-.09,.35,0,.05,.05,.07,.11,.07,.18,0,.06-.02,.13-.07,.18-.05,.04-.11,.07-.18,.07Z" style="fill: #1d1d1b;"/>
        <path d="M43.5,44.75c-.06,0-.12-.03-.17-.07-.05-.05-.08-.11-.08-.18s.03-.13,.08-.18c.09-.09,.25-.09,.35,0,.05,.05,.07,.12,.07,.18s-.02,.13-.07,.18c-.05,.05-.12,.07-.18,.07Z" style="fill: #1d1d1b;"/>
        <path d="M51,50.5c-.06,0-.12-.03-.17-.07-.05-.05-.08-.11-.08-.18s.03-.13,.08-.18c.09-.09,.25-.09,.35,0,.05,.05,.07,.11,.07,.18s-.02,.13-.07,.18c-.05,.05-.11,.07-.18,.07Z" style="fill: #1d1d1b;"/>
        <path d="M52,46.5c-.06,0-.13-.03-.17-.07-.05-.05-.08-.11-.08-.18s.03-.13,.08-.18c.09-.09,.25-.09,.35,0,.05,.06,.07,.12,.07,.18s-.02,.12-.07,.17c-.05,.06-.11,.08-.18,.08Z" style="fill: #1d1d1b;"/>
        <path d="M55,47c-.06,0-.12-.02-.17-.07-.05-.05-.08-.11-.08-.18s.03-.13,.08-.18c.09-.09,.25-.09,.35,0,.05,.05,.07,.12,.07,.18s-.02,.13-.07,.18c-.05,.05-.11,.07-.18,.07Z" style="fill: #1d1d1b;"/>
        <path d="M55,54.25c-.06,0-.12-.03-.17-.07-.05-.05-.08-.11-.08-.18s.03-.13,.08-.18c.09-.09,.25-.09,.35,0,.05,.05,.07,.12,.07,.18s-.02,.13-.07,.18c-.05,.05-.11,.07-.18,.07Z" style="fill: #1d1d1b;"/>
        <path d="M51.25,56.25c-.06,0-.13-.03-.17-.07-.05-.05-.08-.11-.08-.18s.03-.13,.08-.18c.09-.09,.25-.09,.35,0,.05,.05,.07,.11,.07,.18s-.02,.13-.07,.18c-.05,.04-.11,.07-.18,.07Z" style="fill: #1d1d1b;"/>
        <path d="M52.25,59.75c-.06,0-.12-.02-.17-.07-.05-.05-.08-.11-.08-.18s.03-.13,.08-.18c.09-.09,.25-.09,.35,0,.05,.06,.07,.12,.07,.18s-.02,.12-.07,.17c-.05,.06-.11,.08-.18,.08Z" style="fill: #1d1d1b;"/>
        <path d="M51,63.75c-.06,0-.13-.03-.17-.07-.05-.05-.08-.11-.08-.18s.03-.13,.08-.18c.09-.09,.25-.09,.35,0,.05,.05,.07,.12,.07,.18s-.02,.13-.07,.17c-.05,.06-.11,.08-.18,.08Z" style="fill: #1d1d1b;"/>
        <path d="M53.25,63.75c-.06,0-.13-.03-.17-.07-.05-.05-.08-.12-.08-.18s.03-.13,.07-.17c.1-.1,.26-.1,.36,0,.05,.06,.07,.12,.07,.18s-.02,.12-.07,.17c-.05,.05-.11,.08-.18,.08Z" style="fill: #1d1d1b;"/>
        <path d="M55,65.25c-.06,0-.12-.03-.17-.07-.05-.05-.08-.11-.08-.18s.03-.13,.08-.18c.09-.09,.25-.09,.35,0,.05,.05,.07,.12,.07,.18s-.02,.13-.07,.18c-.05,.05-.11,.07-.18,.07Z" style="fill: #1d1d1b;"/>
        <path d="M56.25,64.25c-.06,0-.12-.03-.17-.07-.05-.05-.08-.11-.08-.18s.03-.13,.08-.18c.09-.09,.25-.09,.35,0,.05,.05,.07,.12,.07,.18,0,.07-.02,.13-.07,.18-.05,.05-.11,.07-.18,.07Z" style="fill: #1d1d1b;"/>
        <path d="M56.5,62c-.06,0-.13-.03-.17-.07-.05-.06-.08-.12-.08-.18,0-.07,.03-.13,.08-.18,.07-.08,.26-.09,.35,0,.05,.04,.07,.11,.07,.17s-.02,.12-.07,.17c-.05,.05-.11,.08-.18,.08Z" style="fill: #1d1d1b;"/>
        <path d="M58.25,61.5c-.06,0-.13-.03-.17-.07-.05-.05-.08-.12-.08-.18s.03-.13,.07-.17c.1-.1,.27-.1,.36,0,.05,.06,.07,.12,.07,.18s-.02,.12-.07,.17c-.04,.05-.11,.08-.18,.08Z" style="fill: #1d1d1b;"/>
        <path d="M21,27c-.06,0-.12-.02-.17-.07-.05-.05-.08-.11-.08-.18s.03-.13,.08-.18c.1-.09,.25-.09,.35,0,.05,.05,.07,.12,.07,.18s-.02,.13-.07,.18c-.05,.05-.12,.07-.18,.07Z" style="fill: #1d1d1b;"/>
        <path d="M22.75,24c-.07,0-.13-.03-.18-.07-.04-.05-.07-.11-.07-.18s.03-.13,.08-.18c.1-.09,.26-.09,.35,0,.05,.05,.07,.12,.07,.18s-.02,.13-.07,.18c-.04,.04-.11,.07-.18,.07Z" style="fill: #1d1d1b;"/>
        <path d="M25.25,24.5c-.06,0-.12-.03-.17-.07-.05-.05-.08-.11-.08-.18s.03-.13,.08-.18c.1-.09,.25-.09,.35,0,.05,.05,.07,.12,.07,.18s-.02,.13-.07,.18c-.05,.04-.11,.07-.18,.07Z" style="fill: #1d1d1b;"/>
        <path d="M35.25,23.25c-.06,0-.12-.02-.17-.07-.05-.05-.08-.11-.08-.18s.03-.13,.08-.18c.1-.09,.25-.09,.35,0,.05,.05,.07,.11,.07,.18s-.03,.13-.07,.18c-.05,.05-.11,.07-.18,.07Z" style="fill: #1d1d1b;"/>
        <path d="M39,24.75c-.06,0-.12-.02-.17-.07-.05-.05-.08-.11-.08-.18s.03-.13,.08-.18c.1-.09,.25-.09,.35,0,.05,.05,.07,.11,.07,.18s-.03,.13-.07,.18c-.05,.05-.12,.07-.18,.07Z" style="fill: #1d1d1b;"/>
        <path d="M45,29.5c-.06,0-.12-.02-.17-.07-.05-.05-.08-.11-.08-.18s.03-.13,.08-.18c.1-.09,.25-.09,.35,0,.05,.05,.07,.11,.07,.18s-.02,.13-.07,.18c-.05,.05-.12,.07-.18,.07Z" style="fill: #1d1d1b;"/>
        <path d="M46.25,29c-.06,0-.13-.03-.17-.07-.05-.05-.08-.11-.08-.18s.03-.13,.08-.18c.09-.09,.25-.09,.34,0,.06,.06,.08,.12,.08,.18s-.02,.12-.07,.17c-.05,.06-.11,.08-.18,.08Z" style="fill: #1d1d1b;"/>
        <path d="M55.25,28c-.06,0-.13-.03-.17-.07-.05-.05-.08-.11-.08-.18s.03-.13,.08-.18c.09-.09,.25-.09,.35,0,.05,.05,.07,.12,.07,.18s-.02,.13-.07,.18c-.05,.04-.11,.07-.18,.07Z" style="fill: #1d1d1b;"/>
        <path d="M51.25,25.25c-.06,0-.12-.02-.17-.07-.05-.05-.08-.11-.08-.18s.03-.13,.08-.18c.09-.09,.25-.09,.35,0,.05,.05,.07,.11,.07,.18s-.03,.13-.07,.18c-.05,.05-.11,.07-.18,.07Z" style="fill: #1d1d1b;"/>
        <path d="M52,29.5c-.06,0-.13-.03-.17-.07-.05-.05-.08-.11-.08-.18s.03-.13,.08-.18c.09-.09,.25-.09,.35,0,.05,.06,.07,.12,.07,.18s-.02,.12-.07,.17c-.05,.06-.11,.08-.18,.08Z" style="fill: #1d1d1b;"/>
        <path d="M62.5,35.5c-.06,0-.13-.03-.17-.07-.05-.05-.08-.11-.08-.18s.03-.13,.08-.18c.08-.08,.24-.09,.34,0,.06,.05,.08,.12,.08,.18s-.02,.13-.07,.18c-.05,.05-.12,.07-.18,.07Z" style="fill: #1d1d1b;"/>
        <path d="M58.25,38.25c-.07,0-.13-.03-.17-.07-.05-.05-.08-.12-.08-.18s.03-.13,.07-.17c.1-.1,.27-.1,.36,0,.05,.06,.07,.12,.07,.18s-.02,.12-.07,.17c-.04,.05-.11,.08-.18,.08Z" style="fill: #1d1d1b;"/>
        <path d="M49,39c-.07,0-.13-.03-.17-.07-.05-.05-.08-.12-.08-.18s.03-.13,.07-.17c.1-.1,.26-.1,.36,0,.05,.06,.07,.12,.07,.18s-.02,.12-.07,.17c-.05,.05-.11,.08-.18,.08Z" style="fill: #1d1d1b;"/>
        <path d="M48,41.25c-.06,0-.12-.02-.17-.07-.05-.05-.08-.11-.08-.18s.03-.13,.08-.18c.09-.09,.24-.09,.34,0,.06,.05,.08,.12,.08,.18s-.02,.12-.07,.17c-.06,.06-.11,.08-.18,.08Z" style="fill: #1d1d1b;"/>
        <path d="M52,43c-.07,0-.13-.03-.18-.08-.04-.04-.07-.1-.07-.17s.03-.13,.08-.18c.09-.09,.25-.09,.35,0,.05,.05,.07,.12,.07,.18s-.02,.13-.07,.18c-.05,.04-.11,.07-.18,.07Z" style="fill: #1d1d1b;"/>
        <path d="M53.5,45c-.06,0-.13-.03-.17-.07-.05-.05-.08-.11-.08-.18s.03-.13,.08-.18c.08-.09,.25-.09,.35,0,.05,.05,.07,.12,.07,.18s-.02,.13-.07,.18c-.05,.04-.11,.07-.18,.07Z" style="fill: #1d1d1b;"/>
        <path d="M62.25,48c-.06,0-.13-.03-.17-.07-.05-.05-.08-.12-.08-.18s.03-.13,.07-.17c.1-.1,.26-.1,.36,0,.05,.06,.07,.12,.07,.18s-.02,.12-.07,.17c-.05,.05-.11,.08-.18,.08Z" style="fill: #1d1d1b;"/>
        <path d="M65,51.75c-.06,0-.12-.03-.17-.07-.05-.05-.08-.11-.08-.18s.03-.14,.08-.18c.09-.08,.25-.09,.35,0,.04,.05,.07,.11,.07,.18s-.02,.13-.07,.18c-.05,.05-.11,.07-.18,.07Z" style="fill: #1d1d1b;"/>
        <path d="M67,51.75c-.06,0-.13-.03-.17-.07-.05-.05-.08-.11-.08-.18s.03-.13,.08-.18c.08-.08,.25-.09,.35,0,.05,.05,.07,.11,.07,.18s-.02,.13-.07,.18c-.05,.05-.11,.07-.18,.07Z" style="fill: #1d1d1b;"/>
        <path d="M69.5,45c-.06,0-.12-.03-.17-.07-.05-.05-.08-.11-.08-.18s.03-.13,.08-.18c.09-.09,.25-.09,.35,0,.05,.05,.07,.11,.07,.18s-.02,.13-.07,.18c-.05,.05-.11,.07-.18,.07Z" style="fill: #1d1d1b;"/>
        <path d="M60,39c-.06,0-.12-.02-.17-.07-.05-.05-.08-.11-.08-.18s.03-.13,.08-.18c.09-.09,.25-.09,.35,0,.04,.05,.07,.11,.07,.18s-.03,.13-.07,.18c-.05,.05-.11,.07-.18,.07Z" style="fill: #1d1d1b;"/>
        <path d="M47.25,47.75c-.06,0-.13-.03-.17-.07-.05-.05-.08-.11-.08-.18s.03-.14,.08-.18c.08-.08,.25-.09,.35,0,.04,.05,.07,.11,.07,.18s-.02,.13-.07,.18c-.05,.05-.11,.07-.18,.07Z" style="fill: #1d1d1b;"/>
        <path d="M32.5,47c-.06,0-.12-.03-.17-.07-.05-.05-.08-.11-.08-.18s.03-.13,.08-.18c.09-.09,.26-.09,.35,0,.05,.05,.07,.12,.07,.18s-.02,.13-.07,.18c-.05,.04-.11,.07-.18,.07Z" style="fill: #1d1d1b;"/>
        <path d="M37,44.5c-.06,0-.12-.03-.17-.07-.05-.05-.08-.12-.08-.18,0-.07,.03-.13,.07-.17,.11-.11,.26-.1,.36,0,.05,.05,.07,.12,.07,.18s-.02,.13-.07,.17c-.05,.05-.11,.08-.18,.08Z" style="fill: #1d1d1b;"/>
        <path d="M26.25,37.75c-.06,0-.12-.03-.17-.07-.05-.05-.08-.11-.08-.18s.03-.13,.08-.18c.1-.09,.25-.09,.35,0,.05,.05,.07,.12,.07,.18s-.02,.13-.07,.18c-.05,.04-.11,.07-.18,.07Z" style="fill: #1d1d1b;"/>
        <path d="M29.75,35.5c-.06,0-.12-.02-.17-.07-.05-.05-.08-.11-.08-.18s.03-.13,.08-.18c.1-.09,.25-.09,.35,0,.05,.05,.07,.12,.07,.18s-.02,.12-.07,.17c-.05,.06-.11,.08-.18,.08Z" style="fill: #1d1d1b;"/>
        <path d="M17,28.5c-.06,0-.12-.02-.17-.07-.05-.05-.08-.11-.08-.18,0-.06,.03-.12,.07-.17,.11-.11,.26-.1,.36,0,.05,.05,.07,.12,.07,.18,0,.07-.02,.13-.07,.18-.05,.05-.11,.07-.18,.07Z" style="fill: #1d1d1b;"/>
        <path d="M10.5,29.5c-.06,0-.12-.02-.17-.07-.05-.05-.08-.11-.08-.18,0-.06,.03-.12,.07-.17,.11-.11,.26-.1,.36,0,.05,.06,.07,.12,.07,.18s-.02,.13-.07,.18c-.05,.05-.11,.07-.18,.07Z" style="fill: #1d1d1b;"/>
        <path d="M6,31.5c-.06,0-.12-.02-.17-.07-.05-.05-.08-.11-.08-.18,0-.06,.03-.12,.07-.17,.12-.11,.26-.1,.36,0,.05,.06,.07,.12,.07,.18,0,.07-.02,.13-.07,.18-.05,.05-.11,.07-.18,.07Z" style="fill: #1d1d1b;"/>
        <path d="M2.5,35.25c-.07,0-.13-.03-.17-.07-.05-.05-.08-.12-.08-.18,0-.07,.03-.13,.08-.18,.08-.09,.24-.09,.34,0,.06,.05,.08,.11,.08,.18,0,.06-.02,.13-.07,.17-.05,.06-.11,.08-.18,.08Z" style="fill: #1d1d1b;"/>
        <path d="M11.25,36.75c-.07,0-.13-.03-.18-.07-.04-.05-.07-.12-.07-.18,0-.07,.03-.13,.07-.18,.1-.09,.25-.09,.36,0,.05,.05,.07,.11,.07,.18s-.02,.13-.07,.18c-.05,.05-.11,.07-.18,.07Z" style="fill: #1d1d1b;"/>
        <path d="M17,42c-.06,0-.12-.02-.17-.07-.05-.05-.08-.11-.08-.18,0-.06,.03-.13,.07-.18,.11-.09,.26-.09,.36,0,.05,.05,.07,.11,.07,.18s-.03,.13-.07,.18c-.05,.05-.11,.07-.18,.07Z" style="fill: #1d1d1b;"/>
        <path d="M12.75,36c-.06,0-.13-.03-.17-.07-.05-.05-.08-.11-.08-.18,0-.06,.03-.13,.07-.17,.1-.1,.26-.1,.36,0,.05,.05,.07,.11,.07,.18s-.02,.13-.07,.18c-.05,.05-.12,.07-.18,.07Z" style="fill: #1d1d1b;"/>
        <path d="M26.5,30.25c-.06,0-.12-.02-.17-.07-.05-.05-.08-.11-.08-.18s.03-.13,.08-.18c.1-.09,.25-.09,.35,0,.05,.05,.07,.12,.07,.18s-.02,.13-.07,.18c-.05,.05-.11,.07-.18,.07Z" style="fill: #1d1d1b;"/>
        <path d="M37.75,31c-.06,0-.12-.02-.17-.07-.05-.05-.08-.11-.08-.18s.03-.13,.08-.18c.1-.09,.25-.09,.35,0,.05,.05,.07,.11,.07,.18s-.02,.13-.07,.18c-.05,.05-.12,.07-.18,.07Z" style="fill: #1d1d1b;"/>
        <path d="M39.5,32.5c-.06,0-.12-.02-.17-.07-.05-.05-.08-.11-.08-.18s.03-.13,.08-.18c.08-.09,.26-.09,.35,0,.05,.04,.07,.11,.07,.17s-.02,.13-.07,.18c-.05,.04-.11,.07-.18,.07Z" style="fill: #1d1d1b;"/>
        <path d="M28,42c-.06,0-.12-.03-.17-.07-.05-.05-.08-.12-.08-.18s.03-.12,.07-.17c.11-.1,.26-.1,.35,0,.06,.06,.08,.12,.08,.18s-.02,.13-.07,.17c-.05,.06-.11,.08-.18,.08Z" style="fill: #1d1d1b;"/>
        <path d="M6.5,20.5c-.06,0-.13-.03-.17-.07-.05-.05-.08-.12-.08-.18,0-.07,.03-.13,.07-.18,.1-.09,.26-.09,.36,0,.05,.05,.07,.11,.07,.18,0,.06-.02,.13-.07,.17-.05,.06-.11,.08-.18,.08Z" style="fill: #1d1d1b;"/>
        <path d="M10.25,20.25c-.06,0-.13-.03-.17-.07-.05-.05-.08-.11-.08-.18s.03-.13,.07-.18c.1-.09,.26-.09,.36,0,.05,.05,.07,.11,.07,.18s-.02,.13-.07,.18c-.05,.05-.11,.07-.18,.07Z" style="fill: #1d1d1b;"/>
        <path d="M11.75,23.5c-.06,0-.12-.02-.17-.07-.05-.05-.08-.11-.08-.18,0-.06,.03-.12,.07-.17,.11-.11,.26-.1,.36,0,.05,.06,.07,.12,.07,.18s-.02,.13-.07,.18c-.05,.05-.12,.07-.18,.07Z" style="fill: #1d1d1b;"/>
        <path d="M3,25.75c-.06,0-.13-.03-.17-.07-.05-.05-.08-.11-.08-.18s.03-.13,.07-.18c.1-.09,.26-.09,.36,0,.05,.05,.07,.11,.07,.18s-.02,.13-.07,.18c-.05,.05-.12,.07-.18,.07Z" style="fill: #1d1d1b;"/>
        <path d="M64.25,29.5c-.06,0-.13-.03-.17-.07-.05-.05-.08-.12-.08-.18s.03-.13,.07-.17c.1-.1,.25-.1,.35,0,.06,.05,.08,.12,.08,.18s-.02,.13-.07,.17c-.05,.06-.11,.08-.18,.08Z" style="fill: #1d1d1b;"/>
        <path d="M67.5,30.75c-.06,0-.13-.03-.17-.07-.05-.05-.08-.11-.08-.18,0-.06,.03-.13,.07-.17,.1-.1,.26-.1,.36,0,.05,.06,.07,.12,.07,.18s-.02,.13-.07,.18c-.05,.04-.11,.07-.18,.07Z" style="fill: #1d1d1b;"/>
        <path d="M69.5,29.75c-.06,0-.13-.03-.17-.07-.05-.05-.08-.11-.08-.18s.03-.13,.08-.18c.09-.09,.25-.09,.35,0,.05,.05,.07,.11,.07,.18s-.02,.13-.07,.18c-.05,.04-.11,.07-.18,.07Z" style="fill: #1d1d1b;"/>
        <path d="M7.25,15.75c-.07,0-.13-.03-.18-.08-.04-.04-.07-.1-.07-.17s.03-.13,.07-.18c.1-.09,.26-.09,.36,0,.04,.05,.07,.11,.07,.18s-.03,.13-.07,.18c-.05,.04-.11,.07-.18,.07Z" style="fill: #1d1d1b;"/>
        <path d="M1.5,9c-.06,0-.13-.03-.18-.07-.04-.05-.07-.11-.07-.18s.03-.13,.07-.18c.09-.09,.26-.09,.36,0,.05,.05,.07,.12,.07,.18s-.02,.13-.07,.18c-.05,.04-.11,.07-.18,.07Z" style="fill: #1d1d1b;"/>
        <path d="M14.5,6.5c-.06,0-.12-.02-.17-.07-.05-.05-.08-.11-.08-.18,0-.06,.03-.13,.07-.17,.11-.11,.26-.1,.36,0,.05,.05,.07,.11,.07,.18s-.02,.13-.07,.18c-.05,.05-.11,.07-.18,.07Z" style="fill: #1d1d1b;"/>
        <path d="M8.5,5.25c-.06,0-.12-.02-.17-.07-.05-.05-.08-.11-.08-.18s.03-.13,.07-.18c.1-.09,.27-.09,.36,0,.05,.04,.07,.1,.07,.17,0,.06-.02,.13-.07,.18-.05,.05-.11,.07-.18,.07Z" style="fill: #1d1d1b;"/>
        <path d="M3.5,2.5c-.07,0-.13-.03-.18-.08-.04-.04-.07-.1-.07-.17s.03-.13,.08-.18c.08-.09,.25-.09,.35,0,.04,.05,.07,.11,.07,.18s-.03,.13-.07,.18c-.05,.04-.11,.07-.18,.07Z" style="fill: #1d1d1b;"/>
        <path d="M3.75,6c-.06,0-.13-.03-.17-.07-.05-.05-.08-.11-.08-.18,0-.06,.03-.13,.07-.18,.09-.09,.26-.09,.36,0,.05,.05,.07,.11,.07,.18s-.02,.13-.07,.18c-.05,.05-.12,.07-.18,.07Z" style="fill: #1d1d1b;"/>
        <path d="M12.75,14.25c-.06,0-.13-.03-.17-.07-.05-.05-.08-.12-.08-.18,0-.07,.03-.13,.07-.18,.1-.09,.26-.09,.36,0,.05,.05,.07,.11,.07,.18,0,.06-.02,.13-.07,.17-.05,.06-.11,.08-.18,.08Z" style="fill: #1d1d1b;"/>
        <path d="M18.5,19.25c-.06,0-.12-.02-.17-.07-.05-.05-.08-.11-.08-.18,0-.06,.03-.13,.07-.17,.11-.11,.27-.1,.36,0,.05,.06,.07,.12,.07,.18,0,.07-.02,.13-.07,.18-.05,.04-.11,.07-.18,.07Z" style="fill: #1d1d1b;"/>
        <path d="M21.25,37c-.06,0-.12-.02-.17-.07-.05-.05-.08-.12-.08-.18,0-.07,.03-.13,.07-.18,.11-.09,.26-.09,.36,0,.05,.05,.07,.11,.07,.18,0,.06-.02,.13-.07,.17-.05,.06-.11,.08-.18,.08Z" style="fill: #1d1d1b;"/>
        <path d="M.75,44.25c-.06,0-.13-.03-.17-.07-.05-.05-.08-.11-.08-.18s.03-.13,.08-.18c.07-.08,.25-.09,.35,0,.04,.04,.07,.1,.07,.17s-.03,.13-.07,.18c-.05,.04-.11,.07-.18,.07Z" style="fill: #1d1d1b;"/>
        <path d="M66.5,37.25c-.06,0-.13-.03-.17-.07-.05-.05-.08-.11-.08-.18s.03-.13,.08-.18c.09-.09,.25-.09,.35,0,.05,.05,.07,.12,.07,.18s-.02,.13-.07,.18c-.05,.04-.11,.07-.18,.07Z" style="fill: #1d1d1b;"/>
        <path d="M68,66c-.06,0-.13-.03-.17-.07-.05-.05-.08-.12-.08-.18,0-.07,.03-.13,.07-.18,.1-.09,.26-.09,.36,0,.05,.05,.07,.12,.07,.18s-.02,.12-.07,.17c-.05,.05-.11,.08-.18,.08Z" style="fill: #1d1d1b;"/>
        <path d="M59.75,69.75c-.07,0-.13-.03-.18-.08-.04-.04-.07-.1-.07-.17s.03-.13,.08-.18c.09-.09,.25-.09,.35,0,.05,.05,.07,.12,.07,.18,0,.07-.02,.13-.07,.18-.05,.04-.11,.07-.18,.07Z" style="fill: #1d1d1b;"/>
        <path d="M40.5,68c-.06,0-.12-.02-.17-.07-.05-.05-.08-.11-.08-.18s.03-.13,.08-.18c.09-.09,.25-.09,.35,0,.05,.05,.07,.12,.07,.18s-.02,.13-.07,.18c-.05,.05-.12,.07-.18,.07Z" style="fill: #1d1d1b;"/>
        <path d="M44,63c-.06,0-.12-.02-.17-.07-.05-.04-.08-.11-.08-.18s.03-.13,.08-.18c.09-.09,.25-.09,.35,0,.05,.05,.07,.12,.07,.18,0,.07-.02,.13-.07,.18-.05,.05-.11,.07-.18,.07Z" style="fill: #1d1d1b;"/>
        <path d="M25.75,70c-.06,0-.12-.02-.17-.07-.05-.05-.08-.11-.08-.18s.03-.13,.08-.18c.09-.09,.25-.09,.35,0,.05,.05,.07,.11,.07,.18,0,.06-.02,.12-.07,.17-.05,.06-.11,.08-.18,.08Z" style="fill: #1d1d1b;"/>
        <path d="M4.5,60c-.06,0-.12-.02-.17-.07-.05-.05-.08-.11-.08-.18,0-.06,.03-.13,.07-.17,.11-.11,.26-.1,.36,0,.05,.06,.07,.12,.07,.18s-.02,.13-.07,.18c-.05,.05-.12,.07-.18,.07Z" style="fill: #1d1d1b;"/>
        <path d="M26.5,59.5c-.06,0-.12-.02-.17-.07-.05-.05-.08-.11-.08-.18s.03-.13,.08-.18c.1-.09,.25-.09,.35,0,.05,.05,.07,.11,.07,.18,0,.06-.02,.13-.07,.18-.05,.05-.11,.07-.18,.07Z" style="fill: #1d1d1b;"/>
        <path d="M37.25,48.5c-.06,0-.12-.03-.17-.07-.05-.05-.08-.11-.08-.18s.03-.13,.08-.18c.09-.09,.24-.09,.34,0,.06,.05,.08,.12,.08,.18s-.02,.13-.07,.18c-.06,.05-.12,.07-.18,.07Z" style="fill: #1d1d1b;"/>
        <path d="M22,41.75c-.06,0-.12-.02-.17-.07-.05-.05-.08-.11-.08-.18s.03-.13,.08-.18c.1-.09,.25-.09,.35,0,.05,.05,.07,.12,.07,.18s-.02,.13-.07,.18c-.05,.05-.12,.07-.18,.07Z" style="fill: #1d1d1b;"/>
        <path d="M8.75,40.25c-.06,0-.13-.03-.17-.07-.05-.05-.08-.12-.08-.18,0-.07,.03-.13,.08-.18,.09-.09,.25-.09,.35,0,.04,.05,.07,.11,.07,.18s-.02,.13-.07,.18c-.05,.05-.11,.07-.18,.07Z" style="fill: #1d1d1b;"/>
        <path d="M24,29c-.06,0-.12-.02-.17-.07-.05-.05-.08-.11-.08-.18s.03-.13,.08-.18c.1-.09,.25-.09,.35,0,.05,.05,.07,.12,.07,.18s-.02,.12-.07,.17c-.05,.06-.11,.08-.18,.08Z" style="fill: #1d1d1b;"/>
        <path d="M41.5,34.5c-.06,0-.13-.03-.17-.07-.05-.05-.08-.11-.08-.18s.03-.13,.08-.18c.09-.09,.25-.09,.34,0,.06,.06,.08,.12,.08,.18s-.02,.12-.07,.17c-.05,.06-.11,.08-.18,.08Z" style="fill: #1d1d1b;"/>
        <path d="M51.5,37.5c-.06,0-.13-.03-.17-.07-.05-.05-.08-.11-.08-.18s.03-.13,.08-.18c.09-.09,.25-.09,.35,0,.05,.05,.07,.12,.07,.18s-.02,.13-.07,.17c-.05,.06-.11,.08-.18,.08Z" style="fill: #1d1d1b;"/>
        <path d="M60.75,46c-.06,0-.12-.03-.17-.07-.05-.05-.08-.11-.08-.18s.03-.14,.08-.18c.09-.09,.25-.09,.35,0,.05,.05,.07,.11,.07,.18s-.02,.13-.07,.18c-.05,.04-.11,.07-.18,.07Z" style="fill: #1d1d1b;"/>
        <path d="M67.5,43.75c-.06,0-.13-.03-.17-.07-.05-.05-.08-.11-.08-.18s.03-.13,.08-.18c.08-.08,.25-.09,.35,0,.05,.05,.07,.12,.07,.18s-.02,.13-.07,.18c-.05,.04-.11,.07-.18,.07Z" style="fill: #1d1d1b;"/>
        <path d="M51.25,66.25c-.06,0-.12-.02-.17-.07-.05-.05-.08-.11-.08-.18s.03-.13,.08-.18c.09-.09,.25-.09,.35,0,.05,.05,.07,.11,.07,.18s-.03,.13-.07,.18c-.05,.05-.11,.07-.18,.07Z" style="fill: #1d1d1b;"/>
        <path d="M40,37.75c-.06,0-.13-.03-.17-.07-.05-.05-.08-.11-.08-.18s.03-.13,.08-.18c.09-.09,.26-.09,.35,0,.05,.05,.07,.12,.07,.18s-.02,.12-.07,.17c-.05,.05-.11,.08-.18,.08Z" style="fill: #1d1d1b;"/>
        <path d="M53.25,15c-.06,0-.13-.03-.17-.07-.05-.05-.08-.11-.08-.18s.03-.13,.08-.18c.07-.08,.26-.09,.35,0,.05,.04,.07,.11,.07,.17s-.02,.13-.07,.18c-.05,.04-.11,.07-.18,.07Z" style="fill: #1d1d1b;"/>
        <path d="M34,16c-.07,0-.13-.03-.18-.08-.04-.04-.07-.1-.07-.17s.03-.14,.08-.18c.09-.09,.26-.09,.35,0,.05,.05,.07,.11,.07,.18,0,.06-.02,.13-.07,.18-.05,.04-.11,.07-.18,.07Z" style="fill: #1d1d1b;"/>
        <path d="M27.5,13.5c-.06,0-.12-.02-.17-.07-.05-.05-.08-.11-.08-.18s.03-.13,.07-.17c.11-.11,.26-.1,.36,0,.05,.05,.07,.12,.07,.18,0,.07-.02,.13-.07,.18-.05,.05-.11,.07-.18,.07Z" style="fill: #1d1d1b;"/>
        <path d="M12.75,19.25c-.06,0-.13-.03-.17-.07-.05-.05-.08-.11-.08-.18,0-.06,.03-.12,.07-.17,.1-.1,.26-.1,.36,0,.05,.05,.07,.12,.07,.18,0,.07-.02,.13-.07,.18-.05,.05-.11,.07-.18,.07Z" style="fill: #1d1d1b;"/>
        <path d="M19.75,26.5c-.06,0-.12-.02-.17-.07-.05-.05-.08-.11-.08-.18,0-.06,.03-.12,.07-.17,.11-.11,.26-.1,.36,0,.05,.05,.07,.12,.07,.18,0,.07-.02,.13-.07,.18-.05,.05-.12,.07-.18,.07Z" style="fill: #1d1d1b;"/>
        <path d="M49.5,4.5c-.06,0-.13-.03-.17-.07-.05-.04-.08-.11-.08-.18s.03-.14,.08-.18c.08-.08,.25-.09,.35,0,.05,.05,.07,.12,.07,.18s-.02,.13-.07,.18c-.05,.04-.11,.07-.18,.07Z" style="fill: #1d1d1b;"/>
        <path d="M11.75,1.75c-.06,0-.12-.02-.17-.07-.05-.05-.08-.11-.08-.18,0-.06,.03-.13,.07-.18,.1-.09,.27-.09,.36,0,.05,.05,.07,.12,.07,.18s-.02,.13-.07,.18c-.05,.05-.11,.07-.18,.07Z" style="fill: #1d1d1b;"/>
        <path d="M55.25,3.75c-.06,0-.13-.03-.17-.07-.05-.05-.08-.11-.08-.18s.03-.13,.08-.18c.08-.09,.25-.09,.35,0,.05,.05,.07,.12,.07,.18s-.02,.13-.07,.18c-.05,.04-.11,.07-.18,.07Z" style="fill: #1d1d1b;"/>
        <path d="M59,20.75c-.06,0-.13-.03-.17-.07-.05-.05-.08-.11-.08-.18s.03-.13,.08-.18c.08-.09,.25-.09,.35,0,.05,.06,.07,.12,.07,.18s-.02,.12-.07,.17c-.05,.06-.11,.08-.18,.08Z" style="fill: #1d1d1b;"/>
        <path d="M67.5,57.25c-.06,0-.13-.03-.17-.07-.05-.05-.08-.12-.08-.18,0-.07,.03-.13,.08-.18,.09-.09,.25-.09,.35,0,.05,.05,.07,.12,.07,.18s-.02,.12-.07,.17c-.05,.05-.11,.08-.18,.08Z" style="fill: #1d1d1b;"/>
        <path d="M47.25,69.75c-.06,0-.13-.03-.17-.07-.05-.04-.08-.11-.08-.18s.03-.14,.08-.18c.08-.08,.25-.09,.35,0,.04,.05,.07,.11,.07,.18s-.03,.13-.07,.18c-.05,.05-.11,.07-.18,.07Z" style="fill: #1d1d1b;"/>
        <path d="M5.25,69.75c-.06,0-.13-.03-.17-.07-.05-.05-.08-.11-.08-.18,0-.06,.03-.12,.07-.17,.1-.1,.26-.1,.36,0,.05,.05,.07,.12,.07,.18,0,.07-.02,.13-.07,.18s-.12,.07-.18,.07Z" style="fill: #1d1d1b;"/>
        <path d="M4.75,40.25c-.06,0-.13-.03-.18-.07-.04-.05-.07-.11-.07-.18s.03-.13,.07-.18c.09-.09,.26-.09,.36,0,.05,.05,.07,.12,.07,.18s-.02,.13-.07,.18c-.05,.04-.11,.07-.18,.07Z" style="fill: #1d1d1b;"/>
        <path d="M69.75,12.75c-.07,0-.13-.03-.17-.07-.05-.05-.08-.11-.08-.18s.03-.13,.08-.18c.09-.09,.25-.09,.35,0,.05,.05,.07,.12,.07,.18s-.02,.13-.07,.18c-.05,.04-.11,.07-.18,.07Z" style="fill: #1d1d1b;"/>
        <path d="M23.25,14c-.06,0-.12-.02-.17-.07-.05-.05-.08-.11-.08-.18s.03-.13,.07-.17c.11-.11,.26-.1,.36,0,.05,.06,.07,.12,.07,.18s-.02,.13-.07,.18c-.05,.05-.11,.07-.18,.07Z" style="fill: #1d1d1b;"/>
        <path d="M20.5,17.25c-.06,0-.13-.03-.17-.07-.05-.04-.08-.11-.08-.18s.03-.14,.08-.18c.07-.08,.26-.09,.35,0,.05,.04,.07,.11,.07,.17s-.02,.13-.07,.18c-.05,.04-.11,.07-.18,.07Z" style="fill: #1d1d1b;"/>
        <path d="M14.75,17.25c-.06,0-.12-.02-.17-.07-.05-.05-.08-.11-.08-.18,0-.06,.03-.13,.07-.18,.11-.09,.26-.09,.36,0,.05,.05,.07,.12,.07,.18s-.02,.13-.07,.18c-.05,.05-.11,.07-.18,.07Z" style="fill: #1d1d1b;"/>
        <path d="M2.75,13.25c-.07,0-.13-.03-.17-.07-.05-.05-.08-.12-.08-.18,0-.07,.03-.13,.08-.18,.09-.09,.25-.09,.35,0,.04,.05,.07,.11,.07,.18s-.02,.13-.07,.18c-.05,.04-.11,.07-.18,.07Z" style="fill: #1d1d1b;"/>
        <path d="M6,11.75c-.06,0-.12-.02-.17-.07-.05-.05-.08-.12-.08-.18,0-.07,.03-.13,.07-.18,.12-.1,.26-.09,.36,0,.05,.05,.07,.11,.07,.18,0,.06-.02,.12-.07,.17-.05,.06-.11,.08-.18,.08Z" style="fill: #1d1d1b;"/>
        <path d="M7,2.75c-.06,0-.12-.02-.17-.07-.05-.05-.08-.12-.08-.18,0-.07,.03-.13,.07-.18,.11-.09,.26-.09,.36,0,.05,.05,.07,.12,.07,.18s-.02,.12-.07,.17c-.05,.06-.11,.08-.18,.08Z" style="fill: #1d1d1b;"/>
        <path d="M10,8.25c-.07,0-.13-.03-.18-.07-.04-.05-.07-.12-.07-.18,0-.07,.03-.13,.07-.18,.09-.09,.26-.09,.36,0,.05,.05,.07,.11,.07,.18,0,.06-.02,.13-.07,.17-.05,.06-.11,.08-.18,.08Z" style="fill: #1d1d1b;"/>
        <path d="M16,8.25c-.06,0-.13-.03-.18-.07-.04-.05-.07-.11-.07-.18s.03-.13,.08-.18c.1-.09,.25-.09,.35,0,.05,.05,.07,.12,.07,.18s-.02,.13-.07,.18c-.05,.04-.11,.07-.18,.07Z" style="fill: #1d1d1b;"/>
        <path d="M16.5,3.25c-.06,0-.12-.02-.17-.07-.05-.05-.08-.11-.08-.18s.03-.13,.07-.18c.11-.1,.26-.09,.36,0,.05,.05,.07,.11,.07,.18s-.02,.13-.07,.18c-.05,.05-.12,.07-.18,.07Z" style="fill: #1d1d1b;"/>
        <path d="M25.75,7c-.06,0-.12-.02-.17-.07-.05-.05-.08-.11-.08-.18s.03-.13,.08-.18c.1-.09,.25-.09,.35,0,.05,.05,.07,.12,.07,.18s-.02,.13-.07,.18c-.05,.05-.11,.07-.18,.07Z" style="fill: #1d1d1b;"/>
        <path d="M37,7.5c-.06,0-.12-.02-.17-.07-.05-.05-.08-.11-.08-.18s.03-.13,.08-.18c.09-.09,.26-.09,.35,0,.05,.05,.07,.11,.07,.18s-.02,.13-.07,.18c-.05,.05-.12,.07-.18,.07Z" style="fill: #1d1d1b;"/>
        <path d="M40.5,4.5c-.06,0-.13-.03-.17-.07-.05-.04-.08-.11-.08-.18s.03-.13,.08-.18c.09-.09,.25-.09,.35,0,.05,.06,.07,.12,.07,.18,0,.07-.02,.13-.07,.18-.05,.04-.11,.07-.18,.07Z" style="fill: #1d1d1b;"/>
        <path d="M37.5,4.25c-.06,0-.13-.03-.17-.07-.05-.04-.08-.11-.08-.18s.03-.13,.08-.18c.08-.09,.25-.09,.35,0,.05,.06,.07,.12,.07,.18s-.02,.13-.07,.18c-.05,.05-.11,.07-.18,.07Z" style="fill: #1d1d1b;"/>
        <path d="M43.25,2.25c-.07,0-.13-.03-.18-.08-.04-.04-.07-.1-.07-.17s.03-.13,.08-.18c.09-.09,.25-.09,.35,0,.05,.05,.07,.12,.07,.18s-.02,.13-.07,.18c-.05,.04-.11,.07-.18,.07Z" style="fill: #1d1d1b;"/>
        <path d="M49.5,8.25c-.06,0-.13-.03-.17-.07-.05-.04-.08-.11-.08-.18s.03-.14,.08-.18c.08-.09,.25-.09,.35,0,.05,.05,.07,.12,.07,.18s-.02,.13-.07,.18c-.05,.04-.11,.07-.18,.07Z" style="fill: #1d1d1b;"/>
        <path d="M46,9.25c-.06,0-.13-.03-.17-.07-.05-.05-.08-.11-.08-.18s.03-.13,.08-.18c.08-.08,.25-.09,.35,0,.05,.05,.07,.12,.07,.18s-.02,.13-.07,.18c-.05,.04-.11,.07-.18,.07Z" style="fill: #1d1d1b;"/>
        <path d="M35.75,11c-.06,0-.13-.03-.17-.07-.05-.05-.08-.11-.08-.18s.03-.13,.08-.18c.09-.09,.25-.09,.35,0,.05,.05,.07,.12,.07,.18s-.02,.13-.07,.18c-.05,.04-.11,.07-.18,.07Z" style="fill: #1d1d1b;"/>
        <path d="M39.25,15c-.06,0-.12-.02-.17-.07-.05-.05-.08-.11-.08-.18s.03-.13,.08-.18c.09-.09,.25-.09,.35,0,.05,.06,.07,.12,.07,.18s-.02,.13-.07,.18c-.05,.05-.11,.07-.18,.07Z" style="fill: #1d1d1b;"/>
        <path d="M24.75,18c-.06,0-.12-.02-.17-.07-.05-.05-.08-.11-.08-.18s.03-.13,.07-.18c.1-.09,.27-.09,.36,0,.05,.05,.07,.11,.07,.18s-.02,.13-.07,.18c-.05,.05-.11,.07-.18,.07Z" style="fill: #1d1d1b;"/>
        <path d="M8.25,27.25c-.06,0-.12-.02-.17-.07-.05-.05-.08-.11-.08-.18s.03-.13,.07-.18c.12-.1,.26-.09,.36,0,.05,.05,.07,.12,.07,.18,0,.07-.02,.13-.07,.18-.05,.04-.11,.07-.18,.07Z" style="fill: #1d1d1b;"/>
        <path d="M16,31.75c-.06,0-.13-.03-.18-.07-.04-.05-.07-.11-.07-.18s.03-.13,.08-.18c.1-.09,.25-.09,.35,0,.05,.05,.07,.12,.07,.18s-.02,.13-.07,.18c-.05,.04-.11,.07-.18,.07Z" style="fill: #1d1d1b;"/>
        <path d="M10.5,33.5c-.06,0-.12-.02-.17-.07-.05-.05-.08-.12-.08-.18,0-.07,.03-.13,.07-.18,.11-.1,.26-.09,.36,0,.05,.05,.07,.12,.07,.18s-.02,.12-.07,.17c-.05,.06-.11,.08-.18,.08Z" style="fill: #1d1d1b;"/>
        <path d="M5.25,37c-.06,0-.13-.03-.17-.07-.05-.05-.08-.11-.08-.18,0-.06,.03-.12,.07-.17,.1-.1,.26-.1,.36,0,.05,.05,.07,.12,.07,.18,0,.07-.02,.13-.07,.18-.05,.05-.12,.07-.18,.07Z" style="fill: #1d1d1b;"/>
        <path d="M2.75,32c-.06,0-.13-.03-.17-.07-.05-.05-.08-.12-.08-.18,0-.07,.03-.13,.08-.18,.09-.09,.25-.09,.35,0,.04,.05,.07,.11,.07,.18s-.02,.13-.07,.18c-.05,.04-.11,.07-.18,.07Z" style="fill: #1d1d1b;"/>
        <path d="M7.5,25c-.07,0-.13-.03-.18-.07-.04-.05-.07-.11-.07-.18s.03-.13,.07-.18c.11-.09,.25-.09,.35,0,.06,.05,.08,.12,.08,.18s-.02,.13-.07,.18c-.05,.04-.11,.07-.18,.07Z" style="fill: #1d1d1b;"/>
        <path d="M3.25,20.5c-.06,0-.13-.03-.17-.07-.05-.05-.08-.11-.08-.18,0-.06,.03-.13,.07-.17,.1-.1,.26-.1,.36,0,.05,.05,.07,.12,.07,.18,0,.07-.02,.13-.07,.18-.05,.05-.12,.07-.18,.07Z" style="fill: #1d1d1b;"/>
        <path d="M20.5,30.75c-.06,0-.13-.03-.17-.07-.05-.05-.08-.11-.08-.18s.03-.13,.08-.18c.09-.09,.25-.09,.35,0,.05,.06,.07,.12,.07,.18s-.02,.12-.07,.17c-.05,.05-.11,.08-.18,.08Z" style="fill: #1d1d1b;"/>
        <path d="M17.5,35.5c-.06,0-.12-.03-.17-.07-.05-.06-.08-.12-.08-.18,0-.07,.03-.13,.07-.18,.11-.09,.26-.09,.36,0,.05,.05,.07,.11,.07,.18,0,.06-.02,.13-.07,.17-.05,.05-.11,.08-.18,.08Z" style="fill: #1d1d1b;"/>
        <path d="M16,39c-.06,0-.12-.02-.17-.07-.05-.05-.08-.11-.08-.18s.03-.13,.08-.18c.09-.09,.25-.09,.35,0,.05,.05,.07,.12,.07,.18s-.02,.13-.07,.18c-.05,.05-.12,.07-.18,.07Z" style="fill: #1d1d1b;"/>
        <path d="M12.75,41.25c-.06,0-.13-.03-.17-.07-.05-.05-.08-.11-.08-.18,0-.06,.03-.13,.07-.18,.1-.09,.26-.09,.36,0,.05,.05,.07,.11,.07,.18s-.02,.13-.07,.18c-.05,.04-.11,.07-.18,.07Z" style="fill: #1d1d1b;"/>
        <path d="M12.75,46.5c-.07,0-.13-.03-.17-.07-.05-.05-.08-.12-.08-.18,0-.07,.03-.13,.07-.18,.1-.09,.26-.09,.36,0,.05,.05,.07,.11,.07,.18s-.02,.13-.07,.18c-.05,.05-.11,.07-.18,.07Z" style="fill: #1d1d1b;"/>
        <path d="M4,46.75c-.06,0-.13-.03-.17-.07-.05-.05-.08-.11-.08-.18,0-.06,.03-.13,.07-.18,.1-.09,.26-.09,.35,0,.06,.05,.08,.12,.08,.18,0,.07-.02,.13-.07,.18-.05,.05-.12,.07-.18,.07Z" style="fill: #1d1d1b;"/>
        <path d="M5.75,48.5c-.07,0-.13-.03-.18-.08-.04-.04-.07-.1-.07-.17s.03-.13,.07-.18c.1-.09,.26-.09,.36,0,.05,.05,.07,.11,.07,.18s-.02,.13-.07,.18c-.05,.04-.11,.07-.18,.07Z" style="fill: #1d1d1b;"/>
        <path d="M11,50.5c-.06,0-.12-.02-.17-.07-.05-.05-.08-.11-.08-.18,0-.06,.03-.13,.07-.17,.11-.11,.26-.1,.36,0,.05,.06,.07,.12,.07,.18s-.02,.13-.07,.18c-.05,.05-.12,.07-.18,.07Z" style="fill: #1d1d1b;"/>
        <path d="M11,54.5c-.06,0-.13-.03-.18-.07-.04-.05-.07-.11-.07-.18s.03-.13,.07-.18c.11-.09,.26-.09,.36,0,.05,.05,.07,.12,.07,.18s-.02,.13-.07,.18c-.05,.04-.11,.07-.18,.07Z" style="fill: #1d1d1b;"/>
        <path d="M15.5,58.5c-.06,0-.12-.03-.17-.07-.05-.05-.08-.11-.08-.18s.03-.13,.07-.18c.11-.09,.26-.09,.36,0,.05,.05,.07,.12,.07,.18s-.02,.13-.07,.18c-.05,.04-.11,.07-.18,.07Z" style="fill: #1d1d1b;"/>
        <path d="M10,59.75c-.07,0-.13-.03-.18-.07-.04-.05-.07-.12-.07-.18,0-.07,.03-.13,.07-.18,.1-.09,.25-.09,.36,0,.05,.05,.07,.11,.07,.18,0,.06-.02,.13-.07,.18-.05,.05-.11,.07-.18,.07Z" style="fill: #1d1d1b;"/>
        <path d="M6,63.5c-.06,0-.12-.02-.17-.07-.05-.05-.08-.12-.08-.18,0-.07,.03-.13,.07-.18,.12-.1,.26-.09,.36,0,.05,.05,.07,.11,.07,.18,0,.06-.02,.12-.07,.17-.05,.06-.11,.08-.18,.08Z" style="fill: #1d1d1b;"/>
        <path d="M2.25,62c-.06,0-.12-.02-.17-.07-.05-.05-.08-.11-.08-.18s.03-.13,.07-.18c.11-.09,.25-.09,.35,0,.06,.05,.08,.12,.08,.18s-.02,.13-.07,.18c-.06,.05-.12,.07-.18,.07Z" style="fill: #1d1d1b;"/>
        <path d="M7.25,67.75c-.06,0-.13-.03-.17-.07-.05-.05-.08-.12-.08-.18,0-.07,.03-.13,.07-.18,.1-.09,.26-.09,.36,0,.04,.05,.07,.11,.07,.18s-.02,.13-.07,.17c-.05,.06-.11,.08-.18,.08Z" style="fill: #1d1d1b;"/>
        <path d="M13.5,69.5c-.06,0-.12-.02-.17-.07-.05-.05-.08-.12-.08-.18,0-.07,.03-.13,.07-.18,.11-.09,.26-.09,.36,0,.05,.05,.07,.12,.07,.18s-.02,.12-.07,.17c-.05,.06-.11,.08-.18,.08Z" style="fill: #1d1d1b;"/>
        <path d="M13.5,65.75c-.06,0-.12-.02-.17-.07-.05-.05-.08-.11-.08-.18,0-.06,.03-.13,.07-.17,.11-.11,.26-.1,.36,0,.05,.06,.07,.12,.07,.18s-.02,.13-.07,.18c-.05,.05-.11,.07-.18,.07Z" style="fill: #1d1d1b;"/>
        <path d="M21.5,68.5c-.06,0-.12-.02-.17-.07-.05-.05-.08-.11-.08-.18s.03-.13,.08-.18c.09-.09,.25-.09,.35,0,.05,.05,.07,.12,.07,.18s-.02,.12-.07,.17c-.05,.06-.11,.08-.18,.08Z" style="fill: #1d1d1b;"/>
        <path d="M23,65.75c-.06,0-.12-.02-.17-.07-.05-.05-.08-.11-.08-.18,0-.06,.03-.12,.07-.17,.11-.11,.26-.1,.36,0,.05,.05,.07,.12,.07,.18,0,.07-.02,.13-.07,.18-.05,.05-.11,.07-.18,.07Z" style="fill: #1d1d1b;"/>
        <path d="M22.25,60c-.06,0-.12-.02-.17-.07-.05-.05-.08-.11-.08-.18,0-.06,.03-.12,.07-.17,.11-.11,.26-.1,.36,0,.05,.05,.07,.12,.07,.18,0,.07-.02,.13-.07,.18-.05,.05-.12,.07-.18,.07Z" style="fill: #1d1d1b;"/>
        <path d="M24.25,57.5c-.06,0-.12-.02-.17-.07-.05-.05-.08-.11-.08-.18s.03-.13,.08-.18c.1-.09,.25-.09,.35,0,.05,.05,.07,.12,.07,.18s-.02,.13-.07,.18c-.05,.05-.11,.07-.18,.07Z" style="fill: #1d1d1b;"/>
        <path d="M22,53.25c-.06,0-.12-.02-.17-.07-.05-.05-.08-.11-.08-.18s.03-.13,.07-.17c.11-.11,.26-.1,.36,0,.05,.06,.07,.12,.07,.18s-.02,.13-.07,.18c-.05,.05-.11,.07-.18,.07Z" style="fill: #1d1d1b;"/>
        <path d="M26.25,47.75c-.06,0-.12-.02-.17-.07-.05-.05-.08-.11-.08-.18s.03-.13,.08-.18c.09-.09,.25-.09,.35,0,.05,.05,.07,.12,.07,.18s-.02,.13-.07,.18c-.05,.05-.11,.07-.18,.07Z" style="fill: #1d1d1b;"/>
        <path d="M25.75,43.5c-.06,0-.12-.02-.17-.07-.05-.05-.08-.11-.08-.18s.03-.13,.07-.18c.11-.09,.26-.09,.36,0,.05,.06,.07,.12,.07,.18,0,.07-.02,.13-.07,.18-.05,.05-.11,.07-.18,.07Z" style="fill: #1d1d1b;"/>
        <path d="M31.25,37.5c-.06,0-.12-.03-.17-.07-.05-.05-.08-.12-.08-.18s.03-.13,.07-.17c.11-.11,.26-.1,.36,0,.05,.06,.07,.12,.07,.18s-.02,.12-.07,.17c-.05,.05-.11,.08-.18,.08Z" style="fill: #1d1d1b;"/>
        <path d="M32.25,31c-.06,0-.12-.02-.17-.07-.05-.05-.08-.11-.08-.18,0-.06,.03-.12,.07-.17,.11-.11,.26-.1,.36,0,.05,.05,.07,.12,.07,.18,0,.07-.03,.13-.07,.18-.05,.05-.11,.07-.18,.07Z" style="fill: #1d1d1b;"/>
        <path d="M26,34c-.06,0-.12-.02-.17-.07-.05-.05-.08-.11-.08-.18s.03-.13,.08-.18c.1-.09,.25-.09,.35,0,.05,.05,.07,.12,.07,.18s-.02,.13-.07,.18c-.05,.05-.11,.07-.18,.07Z" style="fill: #1d1d1b;"/>
        <path d="M34.25,27.75c-.06,0-.13-.03-.17-.07-.05-.05-.08-.11-.08-.18s.03-.13,.08-.18c.09-.09,.25-.09,.35,0,.05,.06,.07,.12,.07,.18s-.02,.13-.07,.18c-.05,.04-.11,.07-.18,.07Z" style="fill: #1d1d1b;"/>
        <path d="M37.25,28.5c-.06,0-.13-.03-.17-.07-.05-.05-.08-.11-.08-.18s.03-.13,.08-.18c.09-.09,.25-.09,.34,0,.06,.05,.08,.12,.08,.18s-.02,.12-.07,.17c-.05,.06-.11,.08-.18,.08Z" style="fill: #1d1d1b;"/>
        <path d="M41.75,25.75c-.06,0-.12-.03-.17-.07-.05-.05-.08-.11-.08-.18s.03-.13,.08-.18c.09-.09,.26-.09,.35,0,.05,.06,.07,.12,.07,.18s-.02,.12-.07,.17c-.05,.05-.11,.08-.18,.08Z" style="fill: #1d1d1b;"/>
        <path d="M43,20.75c-.06,0-.12-.02-.17-.07-.05-.05-.08-.11-.08-.18s.03-.13,.08-.18c.09-.09,.25-.09,.35,0,.05,.05,.07,.12,.07,.18s-.02,.13-.07,.18c-.05,.05-.12,.07-.18,.07Z" style="fill: #1d1d1b;"/>
        <path d="M36.5,19.25c-.06,0-.13-.03-.17-.07-.05-.04-.08-.11-.08-.18s.03-.14,.08-.18c.08-.08,.25-.09,.35,0,.05,.05,.07,.12,.07,.18s-.02,.13-.07,.18c-.05,.05-.11,.07-.18,.07Z" style="fill: #1d1d1b;"/>
        <path d="M27.75,22.25c-.06,0-.12-.03-.17-.07-.05-.05-.08-.12-.08-.18s.03-.13,.07-.17c.11-.11,.26-.1,.36,0,.05,.05,.07,.11,.07,.18s-.02,.13-.07,.18c-.05,.04-.11,.07-.18,.07Z" style="fill: #1d1d1b;"/>
        <path d="M52,22c-.06,0-.13-.03-.17-.07-.05-.05-.08-.11-.08-.18s.03-.13,.08-.18c.09-.09,.25-.09,.35,0,.05,.06,.07,.12,.07,.18s-.02,.12-.07,.17c-.05,.05-.11,.08-.18,.08Z" style="fill: #1d1d1b;"/>
        <path d="M43.25,17.75c-.06,0-.13-.03-.17-.07-.05-.05-.08-.11-.08-.18,0-.06,.03-.13,.07-.18,.11-.09,.26-.09,.36,0,.05,.06,.07,.12,.07,.18s-.02,.12-.07,.17c-.05,.06-.11,.08-.18,.08Z" style="fill: #1d1d1b;"/>
        <path d="M50.5,18c-.06,0-.13-.03-.17-.07-.05-.05-.08-.11-.08-.18s.03-.13,.08-.18c.08-.09,.25-.09,.35,0,.05,.06,.07,.12,.07,.18s-.02,.12-.07,.17c-.05,.05-.11,.08-.18,.08Z" style="fill: #1d1d1b;"/>
        <path d="M59.5,17.25c-.06,0-.13-.03-.17-.07-.05-.05-.08-.11-.08-.18s.03-.13,.08-.18c.08-.09,.25-.09,.35,0,.05,.05,.07,.12,.07,.18s-.02,.13-.07,.18c-.05,.04-.11,.07-.18,.07Z" style="fill: #1d1d1b;"/>
        <path d="M58.25,14c-.06,0-.13-.03-.17-.07-.05-.05-.08-.11-.08-.18s.03-.13,.08-.18c.08-.09,.26-.09,.35,0,.05,.05,.07,.11,.07,.18,0,.06-.02,.13-.07,.18-.05,.04-.11,.07-.18,.07Z" style="fill: #1d1d1b;"/>
        <path d="M61.5,11c-.06,0-.12-.02-.17-.07-.05-.05-.08-.11-.08-.18s.03-.14,.08-.18c.09-.09,.25-.09,.35,0,.04,.05,.07,.11,.07,.18s-.03,.13-.07,.18c-.05,.05-.11,.07-.18,.07Z" style="fill: #1d1d1b;"/>
        <path d="M58.75,7.5c-.06,0-.12-.02-.17-.07-.05-.05-.08-.11-.08-.18s.03-.13,.08-.18c.09-.09,.25-.09,.35,0,.05,.05,.07,.11,.07,.18s-.02,.13-.07,.18c-.05,.05-.11,.07-.18,.07Z" style="fill: #1d1d1b;"/>
        <path d="M60,4.75c-.06,0-.13-.03-.17-.07-.05-.05-.08-.11-.08-.18s.03-.13,.07-.18c.11-.09,.26-.09,.36,0,.05,.05,.07,.11,.07,.18s-.02,.13-.07,.17c-.05,.06-.11,.08-.18,.08Z" style="fill: #1d1d1b;"/>
        <path d="M67.5,6c-.06,0-.13-.03-.17-.07-.05-.05-.08-.12-.08-.18s.03-.13,.07-.17c.1-.1,.26-.1,.36,0,.05,.06,.07,.12,.07,.18s-.02,.12-.07,.17c-.05,.05-.11,.08-.18,.08Z" style="fill: #1d1d1b;"/>
        <path d="M69.5,8c-.06,0-.12-.03-.17-.07-.05-.05-.08-.11-.08-.18,0-.06,.03-.13,.07-.18,.11-.09,.26-.09,.36,0,.05,.05,.07,.12,.07,.18,0,.07-.02,.13-.07,.18-.05,.05-.11,.07-.18,.07Z" style="fill: #1d1d1b;"/>
        <path d="M65.75,9.75c-.06,0-.13-.03-.17-.07-.05-.05-.08-.11-.08-.18s.03-.13,.08-.18c.08-.09,.26-.09,.35,0,.05,.05,.07,.12,.07,.18s-.02,.13-.07,.18c-.05,.04-.11,.07-.18,.07Z" style="fill: #1d1d1b;"/>
        <path d="M61.75,16.5c-.06,0-.13-.03-.17-.07-.05-.05-.08-.11-.08-.18s.03-.13,.08-.18c.09-.09,.25-.09,.35,0,.05,.05,.07,.12,.07,.18s-.02,.13-.07,.17c-.05,.06-.11,.08-.18,.08Z" style="fill: #1d1d1b;"/>
        <path d="M60.25,23.75c-.06,0-.12-.03-.17-.07-.05-.05-.08-.11-.08-.18s.03-.13,.08-.18c.09-.09,.25-.09,.35,0,.04,.05,.07,.11,.07,.18s-.02,.13-.07,.18c-.05,.05-.11,.07-.18,.07Z" style="fill: #1d1d1b;"/>
        <path d="M55.5,23.75c-.06,0-.13-.03-.17-.07-.05-.05-.08-.12-.08-.18s.03-.13,.08-.18c.09-.09,.25-.09,.35,0,.05,.05,.07,.12,.07,.18s-.02,.13-.07,.18c-.05,.04-.11,.07-.18,.07Z" style="fill: #1d1d1b;"/>
        <path d="M55.5,18.75c-.06,0-.13-.03-.17-.07-.05-.05-.08-.12-.08-.18s.03-.13,.08-.18c.09-.09,.25-.09,.35,0,.05,.05,.07,.12,.07,.18s-.02,.13-.07,.18c-.05,.04-.11,.07-.18,.07Z" style="fill: #1d1d1b;"/>
        <path d="M65,25.75c-.06,0-.12-.03-.17-.07-.05-.05-.08-.11-.08-.18s.03-.13,.08-.18c.09-.09,.25-.09,.35,0,.05,.05,.07,.12,.07,.18,0,.07-.02,.13-.07,.18-.05,.05-.11,.07-.18,.07Z" style="fill: #1d1d1b;"/>
        <path d="M61.25,27c-.06,0-.13-.03-.17-.07-.05-.05-.08-.11-.08-.18s.03-.13,.08-.18c.09-.09,.25-.09,.35,0,.05,.05,.07,.11,.07,.18s-.03,.13-.07,.18c-.05,.04-.11,.07-.18,.07Z" style="fill: #1d1d1b;"/>
        <path d="M57.75,30.75c-.06,0-.12-.02-.17-.07-.05-.05-.08-.11-.08-.18s.03-.13,.08-.18c.09-.09,.25-.09,.35,0,.05,.05,.07,.11,.07,.18s-.02,.13-.07,.17c-.05,.06-.11,.08-.18,.08Z" style="fill: #1d1d1b;"/>
        <path d="M52.75,32.75c-.06,0-.13-.03-.17-.07-.05-.05-.08-.11-.08-.18s.03-.13,.08-.18c.09-.09,.25-.09,.35,0,.05,.05,.07,.12,.07,.18s-.02,.13-.07,.17c-.05,.06-.11,.08-.18,.08Z" style="fill: #1d1d1b;"/>
        <path d="M47.5,33.75c-.06,0-.12-.03-.17-.07-.05-.05-.08-.11-.08-.18s.03-.13,.08-.18c.09-.09,.25-.09,.34,0,.06,.06,.08,.12,.08,.18s-.02,.12-.07,.17c-.06,.06-.11,.08-.18,.08Z" style="fill: #1d1d1b;"/>
        <path d="M44.25,39.25c-.06,0-.12-.03-.17-.07-.05-.05-.08-.11-.08-.18s.03-.13,.08-.18c.09-.09,.25-.09,.35,0,.05,.05,.07,.11,.07,.18s-.02,.13-.07,.18c-.05,.05-.12,.07-.18,.07Z" style="fill: #1d1d1b;"/>
        <path d="M34,41.5c-.06,0-.12-.02-.17-.07-.05-.05-.08-.11-.08-.18s.03-.13,.08-.18c.09-.09,.25-.09,.35,0,.05,.05,.07,.12,.07,.18s-.02,.13-.07,.18c-.05,.04-.11,.07-.18,.07Z" style="fill: #1d1d1b;"/>
        <path d="M40.75,48c-.06,0-.12-.02-.17-.07-.05-.05-.08-.11-.08-.18s.03-.13,.08-.18c.1-.09,.25-.09,.35,0,.04,.05,.07,.11,.07,.18s-.03,.13-.07,.18c-.05,.05-.11,.07-.18,.07Z" style="fill: #1d1d1b;"/>
        <path d="M45.75,52.25c-.06,0-.12-.02-.17-.07-.05-.05-.08-.11-.08-.18s.03-.13,.08-.18c.09-.09,.25-.09,.35,0,.05,.05,.07,.11,.07,.18s-.03,.13-.07,.18c-.05,.05-.11,.07-.18,.07Z" style="fill: #1d1d1b;"/>
        <path d="M46.5,56.75c-.06,0-.12-.03-.17-.07-.05-.05-.08-.11-.08-.18s.03-.13,.08-.18c.09-.09,.25-.09,.35,0,.05,.05,.07,.12,.07,.18s-.02,.13-.07,.17c-.05,.06-.11,.08-.18,.08Z" style="fill: #1d1d1b;"/>
        <path d="M42,59.5c-.06,0-.12-.02-.17-.07-.05-.05-.08-.11-.08-.18s.03-.13,.08-.18c.1-.09,.25-.09,.35,0,.04,.05,.07,.11,.07,.18s-.02,.13-.07,.18c-.05,.05-.12,.07-.18,.07Z" style="fill: #1d1d1b;"/>
        <path d="M40,62.75c-.06,0-.12-.03-.17-.07-.05-.05-.08-.11-.08-.18s.03-.14,.08-.18c.09-.09,.26-.09,.35,0,.05,.05,.07,.11,.07,.18,0,.06-.02,.13-.07,.18-.05,.04-.11,.07-.18,.07Z" style="fill: #1d1d1b;"/>
        <path d="M36,62.75c-.06,0-.12-.02-.17-.07-.05-.05-.08-.11-.08-.18s.03-.13,.08-.18c.1-.09,.26-.09,.35,0,.05,.06,.07,.12,.07,.18s-.02,.13-.07,.18c-.05,.04-.11,.07-.18,.07Z" style="fill: #1d1d1b;"/>
        <path d="M36.5,52.75c-.07,0-.13-.03-.17-.07-.05-.05-.08-.11-.08-.18s.03-.13,.08-.18c.09-.09,.25-.09,.35,0,.05,.06,.07,.12,.07,.18s-.02,.12-.07,.17c-.05,.05-.11,.08-.18,.08Z" style="fill: #1d1d1b;"/>
        <path d="M30,63.5c-.06,0-.13-.03-.17-.07-.05-.05-.08-.11-.08-.18s.03-.13,.08-.18c.09-.09,.25-.09,.35,0,.05,.05,.07,.12,.07,.18s-.02,.13-.07,.17c-.05,.05-.11,.08-.18,.08Z" style="fill: #1d1d1b;"/>
        <path d="M31.5,68.5c-.07,0-.13-.03-.18-.08-.04-.04-.07-.1-.07-.17s.03-.14,.08-.18c.09-.08,.25-.09,.34,0,.06,.05,.08,.11,.08,.18,0,.06-.02,.13-.07,.18-.05,.04-.11,.07-.18,.07Z" style="fill: #1d1d1b;"/>
        <path d="M37,71c-.06,0-.12-.02-.17-.07-.05-.05-.08-.11-.08-.18s.03-.13,.08-.18c.1-.09,.25-.09,.35,0,.05,.05,.07,.11,.07,.18s-.02,.13-.07,.18c-.05,.05-.11,.07-.18,.07Z" style="fill: #1d1d1b;"/>
        <path d="M58.75,57c-.06,0-.12-.02-.17-.07-.05-.05-.08-.11-.08-.18s.03-.13,.08-.18c.09-.09,.25-.09,.35,0,.05,.05,.07,.11,.07,.18s-.02,.13-.07,.18c-.05,.05-.11,.07-.18,.07Z" style="fill: #1d1d1b;"/>
        <path d="M63,57c-.06,0-.12-.03-.17-.07-.05-.05-.08-.11-.08-.18s.03-.13,.08-.18c.09-.09,.25-.09,.35,0,.05,.05,.07,.11,.07,.18s-.02,.13-.07,.17c-.05,.06-.11,.08-.18,.08Z" style="fill: #1d1d1b;"/>
        <path d="M60,50.75c-.06,0-.12-.03-.17-.07-.05-.05-.08-.11-.08-.18s.03-.14,.08-.18c.09-.09,.25-.09,.35,0,.04,.05,.07,.11,.07,.18s-.02,.13-.07,.18c-.05,.04-.11,.07-.18,.07Z" style="fill: #1d1d1b;"/>
        <path d="M54.5,50.5c-.07,0-.13-.03-.17-.07-.05-.05-.08-.12-.08-.18s.03-.13,.07-.17c.1-.1,.26-.1,.36,0,.05,.06,.07,.12,.07,.18s-.02,.12-.07,.17c-.05,.05-.11,.08-.18,.08Z" style="fill: #1d1d1b;"/>
        <path d="M59.25,44.25c-.06,0-.13-.03-.17-.07-.05-.05-.08-.12-.08-.18s.03-.13,.07-.17c.1-.1,.27-.1,.36,0,.05,.06,.07,.12,.07,.18s-.02,.12-.07,.17c-.04,.05-.11,.08-.18,.08Z" style="fill: #1d1d1b;"/>
        <path d="M54.75,41.75c-.06,0-.13-.03-.17-.07-.05-.05-.08-.12-.08-.18s.03-.13,.08-.18c.08-.09,.25-.09,.35,0,.05,.05,.07,.12,.07,.18s-.02,.13-.07,.18c-.05,.04-.11,.07-.18,.07Z" style="fill: #1d1d1b;"/>
        <path d="M55.75,35.5c-.06,0-.12-.02-.17-.07-.05-.05-.08-.11-.08-.18s.03-.13,.08-.18c.09-.09,.25-.09,.35,0,.05,.05,.07,.11,.07,.18s-.02,.13-.07,.18c-.05,.05-.11,.07-.18,.07Z" style="fill: #1d1d1b;"/>
        <path d="M62.5,42.25c-.06,0-.13-.03-.17-.07-.05-.05-.08-.11-.08-.18s.03-.13,.08-.18c.08-.08,.24-.09,.34,0,.06,.05,.08,.12,.08,.18s-.02,.13-.07,.18c-.05,.05-.12,.07-.18,.07Z" style="fill: #1d1d1b;"/>
        <path d="M67,47.5c-.06,0-.13-.03-.17-.07-.05-.05-.08-.11-.08-.18s.03-.13,.08-.18c.08-.08,.25-.09,.35,0,.05,.05,.07,.11,.07,.18s-.03,.13-.07,.18c-.05,.05-.11,.07-.18,.07Z" style="fill: #1d1d1b;"/>
        <path d="M69.5,54.25c-.06,0-.13-.03-.17-.07-.05-.05-.08-.11-.08-.18s.03-.13,.08-.18c.09-.09,.25-.09,.35,0,.05,.05,.07,.11,.07,.18s-.02,.13-.07,.18c-.05,.04-.11,.07-.18,.07Z" style="fill: #1d1d1b;"/>
        <path d="M63.5,61.75c-.06,0-.13-.03-.17-.07-.05-.05-.08-.12-.08-.18,0-.07,.03-.13,.08-.18,.07-.08,.25-.1,.35,0,.05,.05,.07,.12,.07,.18s-.02,.12-.07,.17c-.05,.06-.11,.08-.18,.08Z" style="fill: #1d1d1b;"/>
        <path d="M69.25,63.5c-.06,0-.12-.02-.17-.07-.05-.05-.08-.11-.08-.18s.03-.13,.08-.18c.09-.09,.25-.09,.35,0,.05,.05,.07,.12,.07,.18s-.02,.13-.07,.17c-.05,.06-.11,.08-.18,.08Z" style="fill: #1d1d1b;"/>
        <path d="M64.75,65.5c-.07,0-.13-.03-.17-.07-.05-.05-.08-.12-.08-.18s.03-.12,.07-.17c.1-.1,.27-.1,.36,0,.05,.06,.07,.12,.07,.18s-.02,.12-.07,.17c-.04,.05-.11,.08-.18,.08Z" style="fill: #1d1d1b;"/>
        <path d="M65.75,68.25c-.06,0-.13-.03-.17-.07-.05-.05-.08-.11-.08-.18s.03-.13,.08-.18c.08-.09,.26-.09,.35,0,.05,.05,.07,.12,.07,.18,0,.07-.02,.13-.07,.18-.05,.04-.11,.07-.18,.07Z" style="fill: #1d1d1b;"/>
        <path d="M69.25,70.5c-.06,0-.13-.03-.17-.07-.05-.05-.08-.12-.08-.18,0-.07,.03-.13,.08-.18,.09-.09,.25-.09,.35,0,.05,.05,.07,.11,.07,.18,0,.06-.02,.13-.07,.17-.05,.06-.11,.08-.18,.08Z" style="fill: #1d1d1b;"/>
        <path d="M62.5,70.25c-.06,0-.13-.03-.17-.07-.05-.05-.08-.11-.08-.18s.03-.13,.08-.18c.08-.08,.24-.1,.34,0,.06,.05,.08,.12,.08,.18s-.02,.13-.07,.18c-.06,.05-.12,.07-.18,.07Z" style="fill: #1d1d1b;"/>
        <path d="M60.75,65.75c-.06,0-.13-.03-.17-.07-.05-.05-.08-.11-.08-.18s.03-.13,.08-.18c.09-.09,.25-.09,.35,0,.05,.05,.07,.12,.07,.18s-.02,.13-.07,.17c-.05,.06-.11,.08-.18,.08Z" style="fill: #1d1d1b;"/>
        <path d="M52.75,69.75c-.06,0-.13-.03-.17-.07-.05-.05-.08-.11-.08-.18s.03-.13,.08-.18c.09-.09,.25-.09,.35,0,.05,.05,.07,.12,.07,.18s-.02,.13-.07,.17c-.05,.06-.11,.08-.18,.08Z" style="fill: #1d1d1b;"/>
        <path d="M44.75,66.5c-.07,0-.13-.03-.17-.07-.05-.05-.08-.11-.08-.18s.03-.13,.08-.18c.09-.09,.25-.09,.35,0,.05,.05,.07,.11,.07,.18,0,.06-.02,.13-.07,.17-.05,.05-.11,.08-.18,.08Z" style="fill: #1d1d1b;"/>
        <path d="M44.5,71.25c-.06,0-.12-.03-.17-.07-.05-.05-.08-.11-.08-.18s.03-.13,.08-.18c.09-.09,.25-.09,.35,0,.05,.05,.07,.11,.07,.18s-.02,.13-.07,.18c-.05,.05-.12,.07-.18,.07Z" style="fill: #1d1d1b;"/>
        <path d="M28.5,71.25c-.07,0-.13-.03-.18-.08-.04-.04-.07-.1-.07-.17s.03-.13,.08-.18c.09-.09,.25-.09,.35,0,.05,.05,.07,.12,.07,.18s-.02,.13-.07,.18c-.04,.04-.11,.07-.18,.07Z" style="fill: #1d1d1b;"/>
        <path d="M.75,29.5c-.06,0-.13-.03-.17-.07-.05-.05-.08-.12-.08-.18,0-.07,.03-.13,.08-.18,.08-.09,.24-.09,.35,0,.04,.05,.07,.11,.07,.18s-.02,.13-.07,.18c-.05,.05-.11,.07-.18,.07Z" style="fill: #1d1d1b;"/>
        <path d="M24.5,1c-.06,0-.12-.02-.17-.07-.05-.05-.08-.12-.08-.18,0-.07,.03-.13,.07-.18,.11-.09,.26-.09,.36,0,.04,.05,.07,.11,.07,.18s-.02,.13-.07,.17c-.05,.06-.11,.08-.18,.08Z" style="fill: #1d1d1b;"/>
        <path d="M13.25,5c-.07,0-.13-.03-.18-.07-.04-.05-.07-.12-.07-.18,0-.07,.03-.13,.07-.18,.09-.09,.26-.09,.36,0,.05,.05,.07,.11,.07,.18,0,.06-.02,.13-.07,.17-.05,.06-.11,.08-.18,.08Z" style="fill: #1d1d1b;"/>
        <path d="M71,35.25c-.06,0-.13-.03-.17-.07-.05-.05-.08-.11-.08-.18s.03-.13,.08-.18c.08-.08,.25-.09,.35,0,.05,.05,.07,.11,.07,.18s-.02,.13-.07,.18c-.05,.05-.11,.07-.18,.07Z" style="fill: #1d1d1b;"/>
      </g>
    </pattern>
  </defs>
  <path d="M494.94,380.45c.22-34.3,.44-68.6,.66-102.9,.03-4.05-3.92-5.55-6.86-4.51-.76-.15-1.62-.08-2.58,.3-7.76,3.04-15.52,6.08-23.27,9.12-7.4-2.13-15.44-4.83-21.39-9.78-5.08-4.22-8.44-11.23-5.87-17.81,2.77-7.08,12.74-5.66,18.49-9.01,3.9-2.28,2.76-7.76-1.19-9.14-5.16-1.79-10.32-3.58-15.47-5.38-2.64-.92-5.35,1.06-6.15,3.49-2.54,7.76-5.7,17.37-13.89,20.89-8.65,3.72-16.29-3.88-16.51-12.36-.04-1.52,.18-2.99,.55-4.41,8.29-7.34,17.12-13.97,26.51-19.89,3.02-1.9,3.47-6.84,0-8.63-10.98-5.67-24.12-5.51-34.79-.01-.07,.01-.13,.02-.2,.03-.9,.18-1.68,.7-2.29,1.38-2.89,1.79-5.55,3.99-7.89,6.61-15.47-3.01-29.51-9.75-42.97-19.07-3.39-2.35-7.31-4.07-11.51-3.03-4.13,1.02-6.27,4.36-9.82,6.23-3.91,2.06-8.38,.6-12.07,3.72-3.25,2.75-3.98,6.92-4.5,10.92-1.58,12.19-2.99,24.62-1.8,36.91,1.19,12.23,5.66,23.61,4.29,36.05-1.36,12.37-3.76,24.33-4.07,36.83-.29,12.1,.27,24.22,.66,36.31,.81,25.15,1.62,50.29,2.43,75.44-.17,1.3-.35,2.6-.51,3.9-.69,5.53-1.95,11.53,.11,16.92,2.14,5.61,7.28,8.1,12.88,8.95,29.28,4.45,59.95,3.71,89.45,2.66,15.14-.54,30.27-1.44,45.39-2.49,7.23-.5,14.46-1.04,21.68-1.59,5.74-.44,14.99,.73,19.39-3.7,3.85-3.87,2.64-10.91,2.67-15.79,.05-7.24,.09-14.49,.14-21.73,.1-15.15,.2-30.3,.29-45.45Z" style="fill: #b6d6c1;"/>
  <path d="M491.74,286.99c.88-6.06-3.54-9.64-9.42-9.75-2.89-.06-5.76,.77-8.64,1.01-3.77,.31-7.6,.28-11.36-.12-7.18-.77-14.29-2.93-20.68-6.28-2.92-1.53-7.84-3.79-9.33-6.93-1.89-3.99,1.13-9.05,2.93-12.47,1.53-2.9,.2-6.37-2.99-7.34-6.16-1.88-11.86,.42-17.12,3.62-3.75,2.28-10.06,8-14.76,5.58-7.36-3.79-1.95-14.04,1.54-18.26,5.9-7.13,13.45-13.11,21.1-18.22,3.34-2.23,3.27-8.16-1.19-9.14-12.26-2.68-23.86,2.07-35.33,5.9-4.85,1.62-11.85,5.41-17.01,4.43-6.12-1.16-12.74-5.47-18.1-8.51-2.55-1.45-5.06-2.97-7.51-4.57-2.06-1.34-4.13-3.34-6.4-4.23-2.35-.92-5.16-.05-7.61,.25l-11.36,1.35c-8.94,1.07-10.35,.99-13.36,11.65-1.46,5.17-.54,11.05-.09,16.31,.56,6.49,1.29,12.97,1.52,19.49,.47,13.18-.51,26.35-1.26,39.5-1.48,25.84-1.57,51.75-.16,77.6,1.61,29.53-.98,62.67-.51,88.03,.04,2.28,2.76,3.53,4.82,3.67,44.93,2.96,90.24,7.8,135.3,6.99,5.25-.09,10.5-.29,15.75-.6,5.38-.32,11.34-.24,16.6-1.52,2.86-.69,4.79-2.34,6.1-4.54,.24-.03,.47-.05,.71-.09,2.1-.33,3.71-2.81,3.67-4.82-.16-7.9-.27-15.79-.37-23.69,1.73-19.88,2.77-39.81,3.13-59.76,.38-20.89-.03-41.79-1.16-62.65,.93-6.41,1.87-12.81,2.81-19.22,.14-.98,.03-1.87-.26-2.66Z" style="fill: url(#uuid-49002c93-e422-42fb-8613-7f542fab1552); opacity: .25;"/>
  <g>
    <line x1="300.96" y1="464" x2="500" y2="464" style="fill: none; stroke: #262631; stroke-miterlimit: 10; stroke-width: 10px;"/>
    <line x1="300.96" y1="492.02" x2="500" y2="492.02" style="fill: none; stroke: #262631; stroke-miterlimit: 10; stroke-width: 2px;"/>
  </g>
  <g>
    <path d="M301.44,14.7c-.33-5.99-2.16-10.89-5.96-11.79-2.2-.52-4.5-.2-6.72-.17-2.41,.03-4.83,.05-7.24,.08-9.53,.1-19.06,.21-28.59,.31-38.19,.42-76.38,.82-114.57,1.28-38.25,.46-76.5,1-114.75,1.76-4.72,.09-9.44,.19-14.16,.29-.57,.01-1.03,.34-1.37,.83,0-.75-.01-1.51-.02-2.26-.04-4.67-4.41-4.69-4.37,0,.53,62.81,.8,125.62,.79,188.44,0,62.81-.28,125.63-.83,188.44-.05,5.66-.11,11.31-.17,16.97,.24,10.98,.54,21.96,.86,32.93,.37,12.89,.84,25.8,.88,38.71,.03,7.04-.36,14.23-.19,21.31,37.65,.21,75.3,.41,112.95,.62,37.66,.21,75.31,.41,112.97,.62l63.77,.35c1.16,0,2.21-1.67,2.19-3.63-.87-63.54-1.14-127.11-.81-190.67,.33-63.56,1.26-127.11,2.8-190.61,.39-16.08,.82-32.15,1.28-48.23,.23-8.04,.48-16.07,.73-24.11,.22-7.02,.91-14.44,.53-21.45Z" style="fill: #faf7f5;"/>
    <path d="M300.68,298.5c-.36-.76-.59-1.75-.6-2.99-.02-3.95,0-7.89,.03-11.84,.07-19.91,.26-39.83,.4-59.74-.52-.79-.89-1.91-.97-3.36-1.06-21.31-1.48-42.48-1.04-63.85,.22-10.33,.85-20.75,.75-31.08-.05-5.33-.16-10.99,.71-16.19-.19-13.05,.09-26.13,.72-39.14-.07-5.36-.1-10.72-.08-16.07-.63-16.42-.28-32.83,.84-49.15-.2-.76-.46-1.44-.76-2.04-3.16-.41-6.33-.63-9.49-.73-.33,0-.66-.01-.99-.03-.1,0-.2,0-.3,0-.12,.16-.25,.32-.36,.49-2-.18-4.01-.33-6.01-.5-4.87,.08-9.74,.32-14.6,.51-12.26,.46-24.53,.14-36.79,.4-1.63,.03-3.27,.09-4.91,.17,0,.01-.02,.03-.02,.04-.32,0-.63,0-.95,0-17.36,.86-35.06,3.47-52.31-.04-6.68,1.07-13.43,1.39-20.04,1.42-5.02,.03-10.04-.41-15.06-.74-1.53-.1-3.04-.25-4.53-.53-20.89,1.78-41.78,4.32-62.71,3.38-12.21-.55-24.33-1.41-36.55-1.04-5.29,.16-10.58,.43-15.86,.48-4.29,.04-8.73-.15-12.89-2.09-.23,.92-.47,1.82-.68,2.68-1.2,4.77-2.59,9.41-3.87,14.12-.02,7.07-.09,14.14-.2,21.21-.1,14.27-.29,28.55-.54,42.82,.09,3.25,.18,6.49,.26,9.74,.54,22.46,.91,44.93,1,67.41,.49,.59,.85,1.42,.99,2.49,2.83,22.16,1.54,44.47,.22,66.79-2.11,35.77-2.01,71.42-2.17,107.24,.38,.74,.64,1.7,.71,2.88,2.72,49.19,.88,98.64,2.57,147.9,.31-.02,.62-.07,.92-.15,.22,1.17,.55,2.27,.98,3.25,2.96-.24,5.92,.15,8.02,.3,8.03,.57,16.06,1.3,24.1,1.83,.66,.04,1.32,.07,1.98,.1,77.73-5.08,155.54-6.49,233.32-4.26,.48-.78,1.15-1.34,2.03-1.44,.92-.1,1.8,.04,2.66,.34,6.06,.86,12.33,2.29,18.45,1.88,1.02-1.9,1.67-4.48,1.66-7.77-.19-61.52,.53-123.02,2.11-184.48-.05-.2-.1-.4-.13-.63Zm-89.71-133.08c.94,19.29,2.57,38.4,2.66,57.73,.05,9.6,.44,19.2-1.17,28.71-.76,4.5-2.24,8.26-1.01,12.83,1,3.75,2.18,7.27,2.4,11.18,.2,3.46-3.34,5.41-6.33,4.82-8.49-1.66-17.67-1-26.3-.98-8.27,.01-16.53,.05-24.8,.05s-16.52,.03-24.78,0c-4.43-.02-8.97-.24-13.36,.52-3.49,.61-6.71,1.65-10.3,1.26-2.71-.3-4.98-2.08-5-5-.11-12.93,1.35-25.84,1.5-38.79,.14-12.68-.17-25.31-.6-37.98-.45-13.18,1.01-26.2,.89-39.36-.12-13.21-1.5-26.37-2.89-39.5-.47-4.47,4.26-5.78,7.39-4.01,.72-.48,1.62-.77,2.71-.77,22.55,0,45.1-.09,67.65,.48,6.64,.17,13.11,.12,19.72-.36,4.31-.32,11.09-1.3,13.83,3.03,2.92,4.6-.47,13.04-1.18,17.96-1.35,9.34-1.48,18.78-1.02,28.2Z" style="fill: url(#uuid-49002c93-e422-42fb-8613-7f542fab1552); opacity: .25;"/>
    <path d="M215.89,198.18c-1.06-25.56-3.33-51.13-.99-76.69,.26-2.8-2.5-4.85-5-5-32.76-1.95-65.56-2.96-98.38-3.04-1.37,0-2.45,.45-3.24,1.17-2.11,.38-3.93,1.95-3.86,4.73,.87,35.25,3.02,70.75,1.99,106-.25,8.5-.98,16.98-1.34,25.48-.34,8.11-1.08,17.78,1.17,25.67,2.12,7.42,11.65,5.54,17.62,5.53,8.55-.02,17.11-.33,25.65-.69,20.03-.85,40.08-1.91,60.1-.32,3.45,.27,5.43-3.4,4.82-6.33-2.6-12.6,.38-25.55,1.27-38.18,.9-12.75,.7-25.55,.17-38.32Z" style="fill: #8f8c95;"/>
    <line x1="102.88" y1="101.58" x2="102.88" y2="288.23" style="fill: none; stroke: #262631; stroke-miterlimit: 10; stroke-width: .75px;"/>
    <line x1="214.61" y1="119.01" x2="214.61" y2="279.08" style="fill: none; stroke: #262631; stroke-miterlimit: 10; stroke-width: .75px;"/>
    <line x1="90.91" y1="115.25" x2="222.59" y2="115.25" style="fill: none; stroke: #262631; stroke-miterlimit: 10; stroke-width: .75px;"/>
    <line x1="105.88" y1="108.58" x2="225.59" y2="108.58" style="fill: none; stroke: #262631; stroke-miterlimit: 10; stroke-width: .75px;"/>
    <line x1="300.96" y1="495.83" x2="8.18" y2="495.83" style="fill: none; stroke: #262631; stroke-miterlimit: 10; stroke-width: .75px;"/>
    <line x1="294.62" y1="1" x2="2.54" y2="1" style="fill: none; stroke: #262631; stroke-miterlimit: 10; stroke-width: .75px;"/>
    <line x1="2.11" y1="14.96" x2="2.11" y2="495.83" style="fill: none; stroke: #262631; stroke-miterlimit: 10; stroke-width: .75px;"/>
    <line x1="300.96" y1="481.87" x2="300.96" y2="1" style="fill: none; stroke: #262631; stroke-miterlimit: 10; stroke-width: .75px;"/>
    <line x1="83.28" y1="280.7" x2="226.13" y2="280.7" style="fill: none; stroke: #262631; stroke-miterlimit: 10; stroke-width: .75px;"/>
    <line x1="88.27" y1="293.02" x2="235.09" y2="293.02" style="fill: none; stroke: #262631; stroke-miterlimit: 10; stroke-width: .75px;"/>
    <line x1="85.78" y1="283.49" x2="85.78" y2="296.01" style="fill: none; stroke: #262631; stroke-miterlimit: 10; stroke-width: .75px;"/>
    <line x1="228.1" y1="275.72" x2="228.1" y2="291.16" style="fill: none; stroke: #262631; stroke-miterlimit: 10; stroke-width: .75px;"/>
  </g>
  <path d="M492.62,272.99c-7.52,.28-15.26,2.84-22.03,5.97-6.9,3.19-11.44,10.38-19.65,5.72-11.08-6.28-20.63-17.24-17.82-30.63,.46-2.2,1.83-5.17,3.12-7.02,1.4-2.02,1.96-1.98,4.61-1.43,4.44,.93,8.76,3.97,13.24,1.24,1.78-1.09,3.98-4.19,3.16-6.48-.78-2.16-4.95-2.98-7-3.11-1.28-.08-2.59,.66-3.64,.44s-2.51-1.91-3.35-2.53c-1.8-1.33-3.85-3.03-5.92-3.96-1.83-.82-2.2-1.06-3.23,.94-.94,1.81-.79,4.3-1.3,6.28-.56,2.14-1.36,4.25-2.25,6.27s-1.79,4-3.27,5.66c-.92,1.03-2.34,1.75-3.12,2.85-1.16,1.65-.06,2.82-.57,4.4-1.47,4.57-12.32-1.65-14.5-3.02-2.21-1.39-4.8-3.38-6.26-5.59-1.85-2.78-.88-4.52,.9-7.27,4.35-6.72,10.73-14.09,17.53-18.38,3.06-1.94,9.38-4.57,8.65-9.35-.38-2.52-3.92-3.21-6.05-4.01-6.68-2.48-17.49-5.86-24.47-3.37-2.61,.93-4.38,3.21-6.2,5.17-2.47,2.67-5.14,4.48-8.61,5.66-5.74,1.94-11,.13-16.11-2.62-6.11-3.29-12.93-3.54-19.28-6.01-5.24-2.03-7.29-7.91-12.01-10.56-2.26-1.27-7.38-2.04-10.08-1.72-3.45,.4-6.2,3.37-9.3,4.77-4.89,2.2-9.06-1.48-13.64-.11" style="fill: none; stroke: #262631; stroke-miterlimit: 10; stroke-width: .75px;"/>
  <path d="M351.25,460.82c-.39-.03-.98-.41-1.09-.76-.35-1.06,.44-2.51,1.46-2.96,4.18-1.85,6.06-8.26,3.59-12.11-1.41-2.21-2.8-4.44-4.09-6.72-1.14-2.01-1.48-4.22-1.29-6.54,.25-3.01,1.33-5.69,2.87-8.26,1.97-3.28,3.33-6.65,.35-10.18-.63-.75,.58-3.98,1.5-4.22,.29-.07,.66,.18,1,.26,.69,.17,1.38,.39,2.09,.48,1.06,.13,2.2-.05,3.18,.29,1.28,.44,2.43,1.25,3.7,1.94l2.3-1.75-.09,1.85,2.95-.56c-.4,.97-.63,1.54-.88,2.12-.78,1.8-1.55,3.61-2.36,5.41-.95,2.14-.82,4.28,.28,6.25,.89,1.58,1.91,3.19,3.23,4.41,2.02,1.87,4.31,3.45,6.54,5.08,6.05,4.42,10.7,9.84,12.64,17.26,.52,1.99,1.75,3.07,3.81,3.48,1.69,.34,3.35,.98,4.96,1.63,.99,.4,1.91,1.12,1.78,2.37-.13,1.28-1.23,1.7-2.26,1.93-1.38,.31-2.82,.37-4.23,.59-4.64,.73-9.27,1.51-13.91,2.22-1.2,.18-2.44,.17-3.66,.25l-.19-.67c.92-.54,1.79-1.17,2.76-1.59,1.05-.45,2.19-.7,3.29-1.01,1-.28,2-.52,3-.78-.71-.22-1.35-.22-1.99-.13-7.76,1.08-15.55,.66-23.34,.36-.7-.03-1.37-.47-2.38-.84-1.47,1.36-3.55,1.06-5.56,.92Zm14.15-5.41l-3.63-3.74-2.08,5.04c2.2-.28,4.24,.01,5.71-1.3Z" style="fill: #262631;"/>
  <path d="M225.78,247.65l-.78,.32c.12,.39,.3,.81,.37,1.25,.07,.4,.01,.82,.01,1.47l-1.62,1.4h-3.47l-3.58,2.6c0,2.27-.18,4.44,.05,6.57,.26,2.49,1.25,4.83,2.46,7.02,.87,1.58,2.08,2.98,2.91,4.58,1.05,2.02,2.71,3.21,4.82,4.25,.46,1.03,1.89,2.18-.07,3.47-2.73,.32-5.05-.39-7.01-2.58-2.2-2.46-4.55-4.81-7.01-6.99-2.17-1.92-4.24-4.06-7.16-5.07-4.09,3.89-6.75,8.37-5.1,14.15-1.08,2.17-2.81,.48-4.14,1.02-1.56-1.13-2.18-2.72-2.11-4.71,.09-2.47-.03-4.95,.02-7.43,.03-1.38,.22-2.76,.35-4.3-2.9-.29-5.87-1.13-8.74-1.4l-4.4,8.61c.42,.92,1,2.16,1.56,3.4,.72,1.59,2.87,.35,3.74,2.04v2.33c-.58,.74,.29,1.32-6.11,.27-.91-1.14-2.02-2.46-3.04-3.85-.95-1.29-1.82-2.64-2.6-3.79v-8.37c-3.45,2.49-6.89,4.59-10.58,6.22-1.74,.77-2.17,2.53-2.99,4.02-.86,1.58-.75,3.06,.16,4.61l-1.04,1.22h-3.83c-1.31-1.37-1.7-2.71-1.08-4.84,.66-2.28,.72-4.77,2.03-6.84,2.3-3.64,4.12-7.49,5.58-11.54,1.02-2.81,2.38-5.51,3.73-8.19,.86-1.72,.72-3.25-.13-4.88-1.64-3.11-3.26-6.23-4.81-9.39-1.53-3.12-1.77-6.37-.67-9.7-.27-1.77-1.35-2.83-2.99-3.42-1.58-.56-2.84-1.57-3.79-2.95,.31-1.38,.3-1.39,1.61-2.64,3.97,.05,7.22,1.88,9.76,4.95,.65,.78,.76,2.03,1.03,3.08,.12,.49,.07,1.03,.02,1.54-.29,3.02,.39,5.8,1.84,8.46,.62,1.13,.96,2.41,1.52,3.58,.98,2.07,2.02,4.11,3.1,6.29,1.7-.27,3.38-.45,5.03-.81,2.8-.62,6.08-.64,9.32,.06,.49,.11,1.02,.05,1.53,.08,3.42,.19,6.73,.96,10.07,1.65,2.46,.5,4.97,.72,7.07,1.01,4.02-3.07,7.64-5.83,11.49-8.77,1.35,.49,1.99,1.7,1.75,3.12,1.37,1.31,2.68,2.3,3.63,3.56,.95,1.27,1.54,2.81,2.3,4.25Z" style="fill: #fbb03b;"/>
</svg>