<?xml version="1.0" encoding="UTF-8" standalone="no"?>
<svg
   xmlns:dc="http://purl.org/dc/elements/1.1/"
   xmlns:cc="http://creativecommons.org/ns#"
   xmlns:rdf="http://www.w3.org/1999/02/22-rdf-syntax-ns#"
   xmlns:svg="http://www.w3.org/2000/svg"
   xmlns="http://www.w3.org/2000/svg"
   xmlns:sodipodi="http://sodipodi.sourceforge.net/DTD/sodipodi-0.dtd"
   xmlns:inkscape="http://www.inkscape.org/namespaces/inkscape"
   inkscape:version="1.0 (4035a4fb49, 2020-05-01)"
   sodipodi:docname="body.svg"
   version="1.0"
   width="396.30286pt"
   height="846.45215pt"
   viewBox="0 0 396.30286 846.45215"
   preserveAspectRatio="xMidYMid meet"
   id="bodies">
  <sodipodi:namedview
     inkscape:current-layer="bodies-group"
     inkscape:window-maximized="1"
     inkscape:window-y="0"
     inkscape:window-x="0"
     inkscape:cy="727.10917"
     inkscape:cx="-130.53555"
     inkscape:zoom="0.49684056"
     showgrid="false"
     id="namedview151"
     inkscape:window-height="1012"
     inkscape:window-width="1920"
     inkscape:pageshadow="2"
     inkscape:pageopacity="0"
     guidetolerance="10"
     gridtolerance="10"
     objecttolerance="10"
     borderopacity="1"
     bordercolor="#666666"
     pagecolor="#ffffff" />
  <defs
     id="defs143" />
  <g
     transform="matrix(0.1,0,0,-0.1,-278.84857,866.87599)"
     fill="#000000"
     stroke="none"
     id="bodies-group">
    <path
       style="fill:#000000"
       d="m 4601.8561,8655 c -177,-38 -362,-162 -463,-309 -45,-64 -97,-179 -118,-256 -24,-90 -24,-291 1,-379 99,-362 424,-599 793,-578 339,19 621,255 704,587 18,72 21,103 16,215 -6,150 -22,211 -88,334 -101,190 -295,338 -506,385 -87,19 -253,20 -339,1 z"
       id="bodies-head" />
    <path
       sodipodi:nodetypes="cccscccccccccccsccccccc"
       d="m 4785.106,7010.9816 -0.432,-3927.6896 30.306,-0.9818 V 1802.9934 c 0,-655.9999 4.0048,-1205.98614 10.0048,-1240.98639 26,-183 164.999,-323.0115 348.9991,-353.013 210.9999,-33.99975 422.0009,118.011 461.0009,331.011 7.0001,36.99975 8.998,929.99809 7.9981,2677.99809 l -3.003,2622.9931 55.0049,-3.0029 55.0049,-2.9882 4.9951,-845.0098 4.9951,-844.9951 25.0049,-49.9951 c 31.0001,-64 101.0001,-134 165,-165 42,-21 64.9951,-25.0049 139.9951,-25.0049 76,0 98.005,4.0009 145.0049,26.001 72,34 129.9961,91.9999 165.9961,165 l 29.0039,59.0039 3.0029,1119.9902 c 3,1270 6,1209.0049 -75,1375.0049 -82.9999,170 -240.9981,297.9999 -427.998,344.9999 -42.461,10.8622 -591.8762,16.0923 -1144.8837,15.9815 z"
       id="bodies-male-body" />
    <path
       sodipodi:nodetypes="ccccccccccssssccsccccccsccscccc"
       d="m 4767.3578,7010.7472 c -357,-1.0123 -670.0137,-5.0608 -694.0137,-10.1221 -178,-35.4294 -350.9873,-139.7019 -471.9873,-285.4687 -86,-103.2516 -118.0117,-176.1279 -237.0117,-538.5205 -60,-183.2209 -213.9971,-645.8304 -341.9971,-1027.456 -247,-736.9325 -249.997,-751.1086 -221.997,-851.3233 19,-65.7975 78.0058,-138.6818 141.0058,-174.1113 42,-24.2944 68.9873,-31.3708 126.9873,-35.4199 83,-5.0614 136.0059,10.1235 201.0059,57.7002 80,58.7116 46.0039,-33.4106 599.0039,1624.6875 46,139.6932 83.9941,254.0741 83.9941,256.0986 0,2.0246 23.0098,3.0468 50.0098,3.0468 28,0 49.9951,-1.0222 49.9951,-3.0468 0,-2.0245 -39.001,-119.4492 -86.001,-261.167 -47,-141.7178 -136.999,-409.9631 -198.999,-596.2207 -238,-711.6258 -585.0088,-1753.2514 -639.0088,-1912.1777 -31,-91.1043 -55.9863,-168.0438 -55.9863,-170.0684 0,-1.0122 203.9883,-4.0415 452.9883,-5.0537 l 452.0068,-3.0322 4.9951,-1305.8349 5.0098,-1305.82059 27.9931,-55.6785 c 39,-76.93275 107.9961,-144.76275 180.9961,-179.1795 53,-24.29475 73.0059,-28.34475 156.0059,-28.34475 81,0 103,4.053 150,26.32275 69,32.39325 118.9941,75.9165 158.9941,138.67725 64.0001,101.22675 61.0108,39.48375 61.0108,1442.49014 v 1271.2565 l 62.6367,-0.8269 v 3928.5937 z"
       id="bodies-female-body" />
  </g>
  <metadata
     id="metadata120">
    <rdf:RDF>
      <cc:Work
         rdf:about="">
        <dc:title />
        <dc:format>image/svg+xml</dc:format>
        <dc:type
           rdf:resource="http://purl.org/dc/dcmitype/StillImage" />
      </cc:Work>
    </rdf:RDF>
  </metadata>
</svg>
