<?xml version="1.0" encoding="UTF-8" standalone="no"?>
<svg
   xmlns:dc="http://purl.org/dc/elements/1.1/"
   xmlns:cc="http://creativecommons.org/ns#"
   xmlns:rdf="http://www.w3.org/1999/02/22-rdf-syntax-ns#"
   xmlns:svg="http://www.w3.org/2000/svg"
   xmlns="http://www.w3.org/2000/svg"
   id="female"
   preserveAspectRatio="xMidYMid meet"
   viewBox="0 0 396.30286 846.45215"
   height="846.45215pt"
   width="396.30286pt"
   version="1.0">
  <defs />
  <g
     id="body"
     stroke="none"
     transform="matrix(0.1,0,0,-0.1,-278.84857,866.87599)">
    <path
       id="head"
       d="m 4601.8561,8655 c -177,-38 -362,-162 -463,-309 -45,-64 -97,-179 -118,-256 -24,-90 -24,-291 1,-379 99,-362 424,-599 793,-578 339,19 621,255 704,587 18,72 21,103 16,215 -6,150 -22,211 -88,334 -101,190 -295,338 -506,385 -87,19 -253,20 -339,1 z" />
    <path
       id="female-body"
       d="m 4073.351,7000.6203 c -178,-35.4295 -351,-139.6933 -472,-285.4601 -86,-103.2516 -118,-176.135 -237,-538.5276 -60,-183.2209 -214,-645.8283 -342,-1027.454 -247,-736.9325 -250,-751.1043 -222,-851.319 19,-65.7976 78,-138.681 141,-174.1105 42,-24.2944 69,-31.3803 127,-35.4294 83,-5.0614 136,10.1227 201,57.6994 80,58.7116 46,-33.4049 599,1624.6932 46,139.6933 84,254.0798 84,256.1043 0,2.0246 23,3.0368 50,3.0368 28,0 50,-1.0122 50,-3.0368 0,-2.0245 -39,-119.4478 -86,-261.1656 -47,-141.7178 -137,-409.9694 -199,-596.227 -238,-711.6258 -585,-1753.2516 -639,-1912.1779 -31,-91.1043 -56,-168.0368 -56,-170.0614 0,-1.0122 204,-4.0491 453,-5.0613 l 452,-3.0368 5,-1305.8283 5,-1305.82815 28,-55.67484 c 39,-76.93252 108,-144.7546 181,-179.17178 53,-24.29448 73,-28.34356 156,-28.34356 81,0 103,4.04908 150,26.31902 69,32.39264 119,75.92024 159,138.68098 64,101.22699 61,39.47853 61,1442.48463 v 1273.4356 l 48,-3.0368 47,-3.0368 5,-1305.8283 5,-1305.82815 22,-48.58895 c 30,-65.79755 112,-149.81595 180,-185.2454 53,-26.31902 67,-29.35583 158,-29.35583 87,0 107,3.03681 155,26.31902 85,41.50307 135,91.10429 177,179.17178 l 38,76.93251 3,1298.74232 2,1298.7423 h 450 c 248,0 450,4.0491 450,8.0982 0,4.049 -48,151.8405 -106,326.9632 -338,1014.2944 -839,2514.4785 -858,2568.1288 l -15,43.5276 52,-3.0368 52,-3.0368 138,-415.0307 c 77,-227.7607 194,-581.0429 262,-784.5092 212,-635.7055 191,-584.0798 254,-648.865 64,-64.7853 124,-90.0921 211,-90.0921 88,0 147,25.3068 212,91.1043 43,43.5276 60,69.8467 72,111.3497 27,93.1289 21,140.7056 -43,334.0491 -33,97.1779 -164,488.9264 -291,870.5522 -128,381.6257 -256,766.2883 -285,855.3681 -29,89.0797 -62,182.2085 -75,207.5153 -110,218.6503 -310,378.5889 -543,435.2761 -78,19.2331 -118,20.2454 -732,19.2331 -357,-1.0123 -670,-5.0614 -694,-10.1227 z" />
  </g>
  <metadata
     id="metadata120">
    <rdf:RDF>
      <cc:Work
         rdf:about="">
        <dc:title></dc:title>
      </cc:Work>
    </rdf:RDF>
  </metadata>
</svg>
