<svg xmlns="http://www.w3.org/2000/svg" xmlns:xlink="http://www.w3.org/1999/xlink" viewBox="0 0 1614.17 52.72"><defs><style>.cls-1,.cls-3{fill:none;}.cls-2{clip-path:url(#clip-path);}.cls-3{stroke:#e85048;stroke-miterlimit:10;stroke-width:2px;}</style><clipPath id="clip-path" transform="translate(13.25 -39.74)"><rect class="cls-1" width="1562.28" height="115.74"/></clipPath></defs><g id="Calque_2" data-name="Calque 2"><g id="Calque_1-2" data-name="Calque 1"><g class="cls-2"><path class="cls-3" d="M-12.94,72.35a288.42,288.42,0,0,1,169.71-.94c5.89,1.79,12.49,4.52,14.35,10.38s-6.43,12.87-10.28,8.07l-2.13-16.15c51.53-16.41,107-2.45,160.57,5.39A696.1,696.1,0,0,0,591,65c8.91-2.27,17.9-4.73,27.09-4.75,11,0,21.67,3.43,32.4,5.88,41.19,9.41,84.12,4,126.1-.71,69.94-7.85,140.08-13.69,210.22-19.52,55.95-4.66,112.73-9.27,167.87,1.28,36.2,6.92,71,20.27,107.37,26.15,32.21,5.21,65.06,4.47,97.68,3.71l146.4-3.4c33.66-.78,71.26-3.25,94-28" transform="translate(13.25 -39.74)"/></g></g></g></svg>