<?xml version="1.0" encoding="UTF-8" standalone="no"?>
<svg
   xmlns:dc="http://purl.org/dc/elements/1.1/"
   xmlns:cc="http://creativecommons.org/ns#"
   xmlns:rdf="http://www.w3.org/1999/02/22-rdf-syntax-ns#"
   xmlns:svg="http://www.w3.org/2000/svg"
   xmlns="http://www.w3.org/2000/svg"
   id="male"
   preserveAspectRatio="xMidYMid meet"
   viewBox="0 0 396.30286 846.45215"
   height="846.45215pt"
   width="396.30286pt"
   version="1.0">
  <defs />
  <g
     id="body"
     stroke="none"
     transform="matrix(0.1,0,0,-0.1,-278.84857,866.87599)">
    <path
       id="head"
       d="m 4601.8561,8655 c -177,-38 -362,-162 -463,-309 -45,-64 -97,-179 -118,-256 -24,-90 -24,-291 1,-379 99,-362 424,-599 793,-578 339,19 621,255 704,587 18,72 21,103 16,215 -6,150 -22,211 -88,334 -101,190 -295,338 -506,385 -87,19 -253,20 -339,1 z" />
    <path
       id="male-body"
       d="m 3600.9836,6994 c -183,-44 -339,-172 -427,-349 -72,-146 -70,-91 -67,-1373 l 3,-1147 23,-43 c 34,-63 93,-124 154,-158 49,-27 61,-29 153,-29 87,0 107,3 150,25 67,34 131,99 163,168 l 27,57 3,848 3,847 h 54 55 V 3197 c 0,-2916 -5,-2694 61,-2799 174,-274 572,-252 716,40 l 38,76 3,1233 2,1233 h 50 50 V 1803 c 0,-656 4,-1206 10,-1241 26,-183 165,-323 349,-353 211,-34 422,118 461,331 7,37 9,930 8,2678 l -3,2623 55,-3 55,-3 5,-845 5,-845 25,-50 c 31,-64 101,-134 165,-165 42,-21 65,-25 140,-25 76,0 98,4 145,26 72,34 130,92 166,165 l 29,59 3,1120 c 3,1270 6,1209 -75,1375 -83,170 -241,298 -428,345 -86,22 -2238,21 -2329,-1 z" />
  </g>
  <metadata
     id="metadata120">
    <rdf:RDF>
      <cc:Work
         rdf:about="">
        <dc:title></dc:title>
      </cc:Work>
    </rdf:RDF>
  </metadata>
</svg>
