<?xml version="1.0" encoding="UTF-8"?>
<svg id="uuid-62d81a42-a5de-407e-be69-aae3e532a968" data-name="FIL et SILHOUETTES" xmlns="http://www.w3.org/2000/svg" xmlns:xlink="http://www.w3.org/1999/xlink" viewBox="0 0 500 500">
  <defs>
    <pattern id="uuid-74f17f96-51da-4370-9154-c1d1f9de842f" data-name="Lac asséché sableux USGS 17" x="0" y="0" width="72" height="72" patternTransform="translate(3670.59 14256.64) rotate(90) scale(2.42 -2.42)" patternUnits="userSpaceOnUse" viewBox="0 0 72 72">
      <g>
        <rect width="72" height="72" style="fill: none;"/>
        <path d="M21,3c-.06,0-.12-.02-.17-.07-.05-.05-.08-.11-.08-.18s.03-.13,.08-.18c.09-.09,.25-.09,.35,0,.05,.05,.07,.11,.07,.18,0,.06-.02,.12-.07,.17-.05,.06-.11,.08-.18,.08Z" style="fill: #1d1d1b;"/>
        <path d="M20,8.25c-.06,0-.13-.03-.18-.07-.04-.05-.07-.11-.07-.18s.03-.13,.07-.18c.1-.09,.26-.09,.36,0,.04,.05,.07,.11,.07,.18s-.03,.13-.07,.18c-.05,.05-.11,.07-.18,.07Z" style="fill: #1d1d1b;"/>
        <path d="M20.25,10.5c-.06,0-.13-.03-.17-.07-.05-.05-.08-.11-.08-.18s.03-.13,.07-.18c.1-.09,.27-.09,.36,0,.04,.05,.07,.11,.07,.18s-.03,.14-.08,.18c-.04,.04-.1,.07-.17,.07Z" style="fill: #1d1d1b;"/>
        <path d="M18,12.75c-.06,0-.12-.03-.17-.07-.05-.05-.08-.11-.08-.18s.03-.13,.07-.18c.11-.09,.26-.09,.36,0,.05,.05,.07,.11,.07,.18s-.02,.13-.07,.18c-.05,.04-.11,.07-.18,.07Z" style="fill: #1d1d1b;"/>
        <path d="M15.25,10.5c-.06,0-.12-.02-.17-.07-.05-.05-.08-.12-.08-.18,0-.07,.03-.13,.07-.18,.12-.1,.26-.09,.36,0,.05,.05,.07,.11,.07,.18,0,.06-.02,.13-.07,.17-.05,.06-.11,.08-.18,.08Z" style="fill: #1d1d1b;"/>
        <path d="M22.75,20c-.06,0-.12-.02-.17-.07-.05-.05-.08-.11-.08-.18,0-.06,.03-.13,.07-.17,.11-.11,.27-.1,.36,0,.05,.06,.07,.12,.07,.18s-.02,.13-.07,.18c-.05,.04-.11,.07-.18,.07Z" style="fill: #1d1d1b;"/>
        <path d="M15.25,23c-.06,0-.12-.02-.17-.07-.05-.05-.08-.11-.08-.18,0-.06,.03-.12,.07-.17,.12-.11,.26-.1,.36,0,.05,.05,.07,.12,.07,.18,0,.07-.02,.13-.07,.18-.05,.05-.11,.07-.18,.07Z" style="fill: #1d1d1b;"/>
        <path d="M14,24c-.07,0-.13-.03-.18-.08-.04-.04-.07-.1-.07-.17s.03-.13,.07-.18c.11-.1,.26-.09,.36,0,.05,.05,.07,.12,.07,.18,0,.07-.02,.13-.07,.18-.05,.04-.11,.07-.18,.07Z" style="fill: #1d1d1b;"/>
        <path d="M24,27c-.06,0-.12-.02-.17-.07-.05-.05-.08-.11-.08-.18s.03-.13,.07-.17c.11-.11,.26-.1,.36,0,.05,.06,.07,.12,.07,.18,0,.07-.02,.13-.07,.18-.05,.05-.11,.07-.18,.07Z" style="fill: #1d1d1b;"/>
        <path d="M30.75,25.75c-.06,0-.12-.02-.17-.07-.05-.05-.08-.11-.08-.18s.03-.13,.08-.18c.1-.09,.25-.09,.35,0,.05,.05,.07,.12,.07,.18s-.02,.13-.07,.18c-.05,.05-.11,.07-.18,.07Z" style="fill: #1d1d1b;"/>
        <path d="M31.25,23.25c-.06,0-.12-.03-.17-.07-.05-.05-.08-.11-.08-.18,0-.06,.03-.13,.07-.17,.11-.11,.26-.1,.36,0,.05,.06,.07,.12,.07,.18,0,.07-.02,.13-.07,.18-.05,.04-.11,.07-.18,.07Z" style="fill: #1d1d1b;"/>
        <path d="M29.25,18.25c-.06,0-.12-.02-.17-.07-.05-.05-.08-.11-.08-.18s.03-.13,.08-.18c.1-.09,.25-.09,.35,0,.05,.05,.07,.11,.07,.18s-.03,.13-.07,.18c-.05,.05-.12,.07-.18,.07Z" style="fill: #1d1d1b;"/>
        <path d="M32.25,18.25c-.06,0-.12-.02-.17-.07-.05-.05-.08-.11-.08-.18s.03-.13,.07-.18c.11-.09,.26-.09,.36,0,.04,.05,.07,.11,.07,.18s-.03,.13-.07,.18c-.05,.05-.11,.07-.18,.07Z" style="fill: #1d1d1b;"/>
        <path d="M32.5,13.75c-.06,0-.13-.03-.17-.07-.05-.05-.08-.11-.08-.18s.03-.13,.08-.18c.09-.09,.26-.09,.35,0,.05,.05,.07,.12,.07,.18s-.02,.12-.07,.17c-.05,.05-.11,.08-.18,.08Z" style="fill: #1d1d1b;"/>
        <path d="M31.75,11.75c-.06,0-.12-.02-.17-.07-.05-.05-.08-.11-.08-.18s.03-.13,.08-.18c.1-.09,.25-.09,.35,0,.05,.05,.07,.11,.07,.18s-.03,.13-.07,.18c-.05,.05-.11,.07-.18,.07Z" style="fill: #1d1d1b;"/>
        <path d="M29.25,10.75c-.07,0-.13-.03-.18-.07-.04-.05-.07-.11-.07-.18s.03-.13,.08-.18c.1-.09,.25-.09,.35,0,.05,.05,.07,.11,.07,.18s-.02,.13-.07,.18c-.05,.04-.11,.07-.18,.07Z" style="fill: #1d1d1b;"/>
        <path d="M32.25,7c-.06,0-.12-.02-.17-.07-.05-.05-.08-.11-.08-.18s.03-.13,.07-.18c.11-.09,.26-.09,.36,0,.05,.05,.07,.11,.07,.18s-.03,.13-.07,.18c-.05,.05-.11,.07-.18,.07Z" style="fill: #1d1d1b;"/>
        <path d="M32,3c-.06,0-.12-.03-.17-.07-.05-.05-.08-.11-.08-.18s.03-.13,.08-.18c.1-.09,.25-.09,.35,0,.05,.05,.07,.12,.07,.18s-.02,.13-.07,.18c-.05,.04-.11,.07-.18,.07Z" style="fill: #1d1d1b;"/>
        <path d="M29.25,3.25c-.06,0-.12-.02-.17-.07-.05-.05-.08-.11-.08-.18s.03-.13,.08-.18c.09-.09,.25-.09,.35,0,.05,.05,.07,.11,.07,.18,0,.06-.02,.13-.07,.17-.05,.06-.11,.08-.18,.08Z" style="fill: #1d1d1b;"/>
        <path d="M34,1.25c-.06,0-.13-.03-.17-.07-.05-.05-.08-.11-.08-.18s.03-.14,.08-.18c.09-.09,.26-.09,.35,0,.05,.05,.07,.11,.07,.18,0,.06-.02,.12-.07,.17-.05,.05-.11,.08-.18,.08Z" style="fill: #1d1d1b;"/>
        <path d="M41.5,7c-.06,0-.13-.03-.17-.07-.05-.05-.08-.11-.08-.18s.03-.13,.08-.18c.09-.09,.24-.09,.34,0,.06,.06,.08,.12,.08,.18s-.02,.12-.07,.17c-.05,.06-.11,.08-.18,.08Z" style="fill: #1d1d1b;"/>
        <path d="M45.5,6.75c-.06,0-.12-.02-.17-.07-.05-.05-.08-.11-.08-.18s.03-.13,.08-.18c.09-.09,.25-.09,.35,0,.05,.05,.07,.12,.07,.18s-.02,.13-.07,.18c-.05,.05-.12,.07-.18,.07Z" style="fill: #1d1d1b;"/>
        <path d="M40.25,10.25c-.06,0-.12-.02-.17-.07-.05-.05-.08-.12-.08-.18,0-.07,.03-.13,.07-.18,.11-.09,.26-.09,.36,0,.05,.05,.07,.11,.07,.18,0,.06-.02,.13-.07,.17-.05,.06-.11,.08-.18,.08Z" style="fill: #1d1d1b;"/>
        <path d="M45,11.75c-.06,0-.12-.02-.17-.07-.05-.05-.08-.11-.08-.18s.03-.13,.08-.18c.1-.09,.25-.09,.35,0,.04,.05,.07,.11,.07,.18s-.02,.13-.07,.18c-.05,.05-.11,.07-.18,.07Z" style="fill: #1d1d1b;"/>
        <path d="M45,13.5c-.06,0-.12-.02-.17-.07-.05-.05-.08-.11-.08-.18s.03-.13,.08-.18c.08-.09,.26-.09,.35,0,.05,.04,.07,.1,.07,.17s-.02,.13-.07,.18c-.05,.05-.11,.07-.18,.07Z" style="fill: #1d1d1b;"/>
        <path d="M47,14.25c-.06,0-.12-.02-.17-.07-.05-.05-.08-.11-.08-.18s.03-.13,.08-.18c.09-.09,.25-.09,.35,0,.05,.05,.07,.12,.07,.18s-.02,.13-.07,.18c-.05,.05-.11,.07-.18,.07Z" style="fill: #1d1d1b;"/>
        <path d="M47,16.25c-.06,0-.13-.03-.17-.07-.05-.05-.08-.11-.08-.18s.03-.13,.08-.18c.08-.08,.26-.09,.35,0,.05,.04,.07,.11,.07,.17s-.02,.13-.07,.18c-.05,.04-.11,.07-.18,.07Z" style="fill: #1d1d1b;"/>
        <path d="M47.25,22.75c-.06,0-.13-.03-.17-.07-.05-.04-.08-.11-.08-.18s.03-.13,.08-.18c.08-.08,.25-.09,.35,0,.05,.05,.07,.11,.07,.18s-.03,.13-.07,.18c-.05,.05-.11,.07-.18,.07Z" style="fill: #1d1d1b;"/>
        <path d="M39,20.75c-.06,0-.12-.02-.17-.07-.05-.05-.08-.11-.08-.18s.03-.13,.08-.18c.1-.09,.25-.09,.35,0,.04,.05,.07,.11,.07,.18s-.03,.13-.07,.18c-.05,.05-.11,.07-.18,.07Z" style="fill: #1d1d1b;"/>
        <path d="M50.25,13.5c-.06,0-.13-.03-.17-.07-.05-.05-.08-.11-.08-.18s.03-.13,.08-.18c.1-.09,.26-.09,.35,0,.05,.05,.07,.12,.07,.18s-.02,.13-.07,.18c-.05,.04-.11,.07-.18,.07Z" style="fill: #1d1d1b;"/>
        <path d="M52.25,12c-.06,0-.12-.02-.17-.07-.05-.05-.08-.11-.08-.18s.03-.13,.08-.18c.09-.09,.25-.09,.35,0,.05,.05,.07,.12,.07,.18s-.02,.13-.07,.18c-.05,.05-.11,.07-.18,.07Z" style="fill: #1d1d1b;"/>
        <path d="M54.75,11c-.06,0-.13-.03-.17-.07-.05-.05-.08-.12-.08-.18,0-.07,.03-.13,.08-.18,.09-.09,.25-.09,.35,0,.05,.05,.07,.11,.07,.18,0,.06-.02,.13-.07,.18-.05,.04-.11,.07-.18,.07Z" style="fill: #1d1d1b;"/>
        <path d="M54.75,6.75c-.07,0-.13-.03-.17-.07-.05-.06-.08-.12-.08-.18s.03-.12,.07-.17c.1-.1,.26-.1,.36,0,.05,.06,.07,.12,.07,.18s-.02,.12-.07,.17c-.05,.05-.11,.08-.18,.08Z" style="fill: #1d1d1b;"/>
        <path d="M56.5,.75c-.06,0-.13-.03-.17-.07-.05-.05-.08-.12-.08-.18s.03-.13,.07-.18c.1-.09,.26-.09,.36,0,.05,.06,.07,.12,.07,.18s-.02,.12-.07,.17c-.05,.05-.11,.08-.18,.08Z" style="fill: #1d1d1b;"/>
        <path d="M64,6.5c-.06,0-.13-.03-.17-.07-.05-.05-.08-.12-.08-.18s.03-.13,.07-.17c.1-.1,.26-.1,.36,0,.05,.06,.07,.12,.07,.18s-.02,.12-.07,.17c-.05,.05-.11,.08-.18,.08Z" style="fill: #1d1d1b;"/>
        <path d="M65,2.5c-.06,0-.13-.03-.17-.07-.05-.05-.08-.11-.08-.18s.03-.13,.08-.18c.09-.09,.25-.09,.35,0,.05,.05,.07,.11,.07,.18s-.02,.13-.07,.17c-.05,.06-.11,.08-.18,.08Z" style="fill: #1d1d1b;"/>
        <path d="M68,3c-.06,0-.13-.03-.17-.07-.05-.05-.08-.11-.08-.18s.03-.13,.07-.18c.1-.09,.27-.09,.36,0,.05,.05,.07,.12,.07,.18s-.02,.13-.07,.18c-.05,.04-.11,.07-.18,.07Z" style="fill: #1d1d1b;"/>
        <path d="M68,10.25c-.06,0-.13-.03-.17-.07-.05-.05-.08-.11-.08-.18s.03-.13,.07-.18c.1-.09,.26-.09,.36,0,.05,.05,.07,.12,.07,.18s-.02,.13-.07,.18c-.05,.04-.11,.07-.18,.07Z" style="fill: #1d1d1b;"/>
        <path d="M64.25,12.25c-.06,0-.13-.03-.17-.07-.05-.05-.08-.12-.08-.18s.03-.13,.07-.17c.09-.1,.25-.1,.35,0,.06,.05,.08,.12,.08,.18s-.02,.13-.07,.17c-.05,.06-.11,.08-.18,.08Z" style="fill: #1d1d1b;"/>
        <path d="M65.25,15.75c-.07,0-.13-.03-.17-.07-.05-.05-.08-.11-.08-.18s.03-.13,.08-.18c.07-.08,.26-.09,.35,0,.05,.04,.07,.11,.07,.17s-.02,.12-.07,.17c-.04,.05-.11,.08-.18,.08Z" style="fill: #1d1d1b;"/>
        <path d="M64,19.75c-.06,0-.13-.03-.17-.07-.05-.05-.08-.11-.08-.18s.03-.13,.08-.18c.08-.09,.25-.09,.35,0,.05,.05,.07,.12,.07,.18s-.02,.13-.07,.18c-.05,.04-.11,.07-.18,.07Z" style="fill: #1d1d1b;"/>
        <path d="M66.25,19.75c-.07,0-.13-.03-.18-.08-.04-.04-.07-.1-.07-.17,0-.06,.03-.13,.07-.17,.09-.1,.26-.1,.36,0,.05,.05,.07,.12,.07,.18,0,.07-.02,.13-.07,.18-.05,.04-.11,.07-.18,.07Z" style="fill: #1d1d1b;"/>
        <path d="M68,21.25c-.06,0-.13-.03-.17-.07-.05-.05-.08-.12-.08-.18s.03-.12,.07-.17c.1-.1,.27-.1,.36,0,.05,.06,.07,.12,.07,.18s-.02,.12-.07,.17c-.05,.05-.11,.08-.18,.08Z" style="fill: #1d1d1b;"/>
        <path d="M69.25,20.25c-.06,0-.12-.02-.17-.07-.05-.05-.08-.11-.08-.18s.03-.13,.08-.18c.09-.09,.25-.09,.35,0,.05,.05,.07,.11,.07,.18s-.02,.13-.07,.18c-.05,.05-.11,.07-.18,.07Z" style="fill: #1d1d1b;"/>
        <path d="M69.5,18c-.06,0-.12-.02-.17-.07-.05-.05-.08-.11-.08-.18s.03-.13,.08-.18c.09-.09,.25-.09,.35,0,.05,.05,.07,.11,.07,.18s-.02,.13-.07,.18c-.05,.05-.11,.07-.18,.07Z" style="fill: #1d1d1b;"/>
        <path d="M71.25,17.5c-.06,0-.13-.03-.17-.07-.05-.05-.08-.12-.08-.18s.03-.12,.07-.17c.11-.1,.26-.1,.36,0,.05,.06,.07,.12,.07,.18s-.02,.12-.07,.17c-.05,.05-.11,.08-.18,.08Z" style="fill: #1d1d1b;"/>
        <path d="M8,47c-.06,0-.13-.03-.18-.07-.04-.06-.07-.12-.07-.18,0-.07,.03-.13,.07-.18,.09-.09,.26-.09,.36,0,.05,.05,.07,.11,.07,.18,0,.06-.02,.13-.07,.17-.05,.06-.11,.08-.18,.08Z" style="fill: #1d1d1b;"/>
        <path d="M7,52.25c-.06,0-.12-.02-.17-.07-.05-.05-.08-.11-.08-.18s.03-.13,.07-.18c.11-.09,.26-.09,.36,0,.05,.05,.07,.12,.07,.18,0,.07-.02,.13-.07,.18-.05,.05-.11,.07-.18,.07Z" style="fill: #1d1d1b;"/>
        <path d="M7.25,54.5c-.06,0-.13-.03-.17-.07-.05-.05-.08-.11-.08-.18,0-.06,.03-.13,.07-.18,.1-.09,.26-.09,.36,0,.04,.05,.07,.11,.07,.18s-.03,.13-.07,.18c-.05,.04-.11,.07-.18,.07Z" style="fill: #1d1d1b;"/>
        <path d="M5,56.75c-.06,0-.13-.03-.17-.07-.05-.05-.08-.11-.08-.18s.03-.13,.07-.17c.1-.1,.26-.1,.36,0,.05,.05,.07,.11,.07,.18s-.03,.13-.07,.18c-.05,.05-.12,.07-.18,.07Z" style="fill: #1d1d1b;"/>
        <path d="M2.25,54.5c-.06,0-.12-.02-.17-.07-.05-.05-.08-.11-.08-.18,0-.06,.03-.13,.07-.17,.11-.11,.26-.1,.35,0,.06,.06,.08,.12,.08,.18s-.02,.13-.07,.18c-.06,.05-.12,.07-.18,.07Z" style="fill: #1d1d1b;"/>
        <path d="M9.75,64c-.06,0-.12-.02-.17-.07-.05-.05-.08-.11-.08-.18s.03-.13,.07-.18c.11-.09,.26-.09,.36,0,.05,.05,.07,.11,.07,.18s-.02,.13-.07,.18-.11,.07-.18,.07Z" style="fill: #1d1d1b;"/>
        <path d="M2.25,67c-.06,0-.12-.03-.17-.07-.05-.05-.08-.11-.08-.18s.03-.13,.07-.18c.1-.09,.26-.09,.36,0,.05,.05,.07,.11,.07,.18,0,.06-.02,.13-.07,.18-.06,.05-.12,.07-.18,.07Z" style="fill: #1d1d1b;"/>
        <path d="M1,68c-.06,0-.13-.03-.18-.07-.04-.05-.07-.11-.07-.18,0-.06,.03-.13,.07-.18,.1-.09,.27-.09,.36,0,.05,.05,.07,.12,.07,.18s-.02,.13-.07,.18c-.05,.04-.11,.07-.18,.07Z" style="fill: #1d1d1b;"/>
        <path d="M11,71c-.06,0-.12-.02-.17-.07-.05-.05-.08-.11-.08-.18s.03-.13,.07-.18c.11-.09,.26-.09,.36,0,.05,.05,.07,.12,.07,.18s-.02,.13-.07,.18c-.05,.05-.12,.07-.18,.07Z" style="fill: #1d1d1b;"/>
        <path d="M17.75,69.75c-.06,0-.12-.02-.17-.07-.05-.05-.08-.11-.08-.18s.03-.13,.07-.18c.11-.09,.26-.09,.36,0,.05,.05,.07,.11,.07,.18s-.03,.13-.07,.18c-.05,.05-.12,.07-.18,.07Z" style="fill: #1d1d1b;"/>
        <path d="M18.25,67.25c-.06,0-.12-.03-.17-.07-.05-.06-.08-.12-.08-.18,0-.07,.03-.13,.07-.18,.11-.09,.26-.09,.36,0,.05,.05,.07,.11,.07,.18,0,.06-.02,.13-.07,.17-.05,.05-.11,.08-.18,.08Z" style="fill: #1d1d1b;"/>
        <path d="M16.25,62.25c-.07,0-.13-.03-.18-.08-.04-.04-.07-.1-.07-.17s.03-.13,.07-.18c.1-.09,.26-.09,.36,0,.05,.05,.07,.11,.07,.18s-.02,.13-.07,.18c-.05,.04-.11,.07-.18,.07Z" style="fill: #1d1d1b;"/>
        <path d="M19.25,62.25c-.06,0-.13-.03-.17-.07-.05-.05-.08-.11-.08-.18s.03-.13,.07-.18c.1-.09,.27-.09,.36,0,.04,.04,.07,.11,.07,.18s-.03,.14-.08,.18c-.04,.04-.1,.07-.17,.07Z" style="fill: #1d1d1b;"/>
        <path d="M19.5,57.75c-.06,0-.12-.02-.17-.07-.05-.05-.08-.11-.08-.18,0-.06,.03-.13,.07-.17,.11-.11,.26-.1,.36,0,.05,.06,.07,.12,.07,.18s-.02,.13-.07,.18c-.05,.05-.11,.07-.18,.07Z" style="fill: #1d1d1b;"/>
        <path d="M18.75,55.75c-.06,0-.12-.02-.17-.07-.05-.05-.08-.11-.08-.18s.03-.13,.08-.18c.1-.09,.26-.09,.35,0,.05,.05,.07,.12,.07,.18s-.02,.12-.07,.17c-.05,.05-.11,.08-.18,.08Z" style="fill: #1d1d1b;"/>
        <path d="M16.25,54.75c-.06,0-.13-.03-.18-.07-.04-.05-.07-.11-.07-.18,0-.06,.03-.12,.07-.17,.1-.1,.26-.1,.36,0,.05,.05,.07,.12,.07,.18,0,.07-.02,.13-.07,.18-.05,.05-.11,.07-.18,.07Z" style="fill: #1d1d1b;"/>
        <path d="M19.25,51c-.06,0-.13-.03-.17-.07-.05-.05-.08-.12-.08-.18,0-.07,.03-.13,.07-.18,.1-.09,.27-.09,.36,0,.04,.04,.07,.11,.07,.18s-.02,.13-.07,.18c-.05,.04-.11,.07-.18,.07Z" style="fill: #1d1d1b;"/>
        <path d="M19,47c-.06,0-.13-.03-.17-.07-.05-.05-.08-.12-.08-.18,0-.07,.03-.13,.07-.18,.1-.09,.26-.09,.36,0,.04,.05,.07,.11,.07,.18,0,.06-.02,.13-.07,.17-.05,.06-.11,.08-.18,.08Z" style="fill: #1d1d1b;"/>
        <path d="M16.25,47.25c-.07,0-.13-.03-.18-.07-.04-.05-.07-.12-.07-.18,0-.07,.03-.13,.07-.18,.09-.09,.26-.09,.36,0,.05,.05,.07,.11,.07,.18,0,.06-.02,.13-.07,.18-.05,.05-.11,.07-.18,.07Z" style="fill: #1d1d1b;"/>
        <path d="M21,45.25c-.06,0-.12-.02-.17-.07-.05-.05-.08-.11-.08-.18s.03-.13,.08-.18c.1-.09,.25-.09,.35,0,.05,.05,.07,.12,.07,.18s-.02,.12-.07,.17c-.05,.06-.11,.08-.18,.08Z" style="fill: #1d1d1b;"/>
        <path d="M28.5,51c-.06,0-.13-.03-.17-.07-.05-.05-.08-.11-.08-.18s.03-.13,.08-.18c.09-.09,.26-.09,.35,0,.05,.06,.07,.12,.07,.18s-.02,.13-.07,.18c-.05,.04-.11,.07-.18,.07Z" style="fill: #1d1d1b;"/>
        <path d="M32.5,50.75c-.06,0-.13-.03-.17-.07-.05-.05-.08-.11-.08-.18s.03-.13,.08-.18c.09-.09,.25-.09,.35,0,.05,.05,.07,.12,.07,.18s-.02,.13-.07,.18c-.05,.04-.11,.07-.18,.07Z" style="fill: #1d1d1b;"/>
        <path d="M27.25,54.25c-.07,0-.13-.03-.18-.08-.04-.04-.07-.1-.07-.17s.03-.14,.08-.18c.09-.09,.26-.09,.35,0,.05,.05,.07,.11,.07,.18,0,.06-.02,.13-.07,.18-.04,.04-.11,.07-.18,.07Z" style="fill: #1d1d1b;"/>
        <path d="M32,55.75c-.06,0-.12-.03-.17-.07-.05-.05-.08-.11-.08-.18,0-.06,.03-.13,.07-.17,.11-.11,.26-.1,.36,0,.05,.06,.07,.12,.07,.18,0,.07-.02,.13-.07,.18-.05,.04-.11,.07-.18,.07Z" style="fill: #1d1d1b;"/>
        <path d="M32,57.5c-.06,0-.12-.02-.17-.07-.05-.05-.08-.11-.08-.18,0-.06,.03-.13,.07-.17,.11-.11,.26-.1,.36,0,.05,.06,.07,.12,.07,.18s-.02,.13-.07,.18c-.05,.05-.11,.07-.18,.07Z" style="fill: #1d1d1b;"/>
        <path d="M34,58.25c-.07,0-.13-.03-.18-.08-.04-.04-.07-.1-.07-.17s.03-.14,.08-.18c.09-.09,.26-.09,.35,0,.05,.05,.07,.11,.07,.18,0,.06-.02,.13-.07,.18-.04,.04-.11,.07-.18,.07Z" style="fill: #1d1d1b;"/>
        <path d="M34,60.25c-.06,0-.12-.02-.17-.07-.05-.05-.08-.11-.08-.18s.03-.13,.08-.18c.09-.09,.26-.09,.35,0,.05,.06,.07,.12,.07,.18s-.02,.13-.07,.18c-.05,.04-.11,.07-.18,.07Z" style="fill: #1d1d1b;"/>
        <path d="M34.25,66.75c-.06,0-.13-.03-.17-.07-.05-.05-.08-.11-.08-.18s.03-.13,.08-.18c.09-.09,.25-.09,.35,0,.05,.05,.07,.12,.07,.18s-.02,.13-.07,.18c-.05,.04-.11,.07-.18,.07Z" style="fill: #1d1d1b;"/>
        <path d="M26,64.75c-.06,0-.12-.02-.17-.07-.05-.05-.08-.11-.08-.18s.03-.13,.08-.18c.09-.09,.26-.09,.35,0,.05,.04,.07,.11,.07,.17,0,.07-.02,.13-.07,.18-.05,.05-.11,.07-.18,.07Z" style="fill: #1d1d1b;"/>
        <path d="M37.25,57.5c-.06,0-.13-.03-.17-.07-.05-.05-.08-.11-.08-.18s.03-.13,.08-.18c.09-.09,.25-.09,.34,0,.06,.05,.08,.12,.08,.18s-.02,.12-.07,.17c-.05,.06-.11,.08-.18,.08Z" style="fill: #1d1d1b;"/>
        <path d="M39.25,56c-.06,0-.13-.03-.17-.07-.05-.05-.08-.11-.08-.18s.03-.13,.08-.18c.09-.09,.25-.09,.35,0,.05,.05,.07,.12,.07,.18s-.02,.12-.07,.17c-.05,.06-.11,.08-.18,.08Z" style="fill: #1d1d1b;"/>
        <path d="M41.75,55c-.06,0-.13-.03-.17-.07-.05-.05-.08-.11-.08-.18s.03-.14,.08-.18c.09-.09,.26-.09,.35,0,.05,.05,.07,.11,.07,.18,0,.06-.02,.12-.07,.17-.05,.05-.11,.08-.18,.08Z" style="fill: #1d1d1b;"/>
        <path d="M41.75,50.75c-.06,0-.12-.02-.17-.07-.05-.05-.08-.11-.08-.18s.03-.13,.08-.18c.09-.09,.26-.09,.35,0,.05,.05,.07,.11,.07,.18,0,.06-.02,.13-.07,.18-.05,.04-.11,.07-.18,.07Z" style="fill: #1d1d1b;"/>
        <path d="M43.5,44.75c-.06,0-.12-.03-.17-.07-.05-.05-.08-.11-.08-.18s.03-.13,.08-.18c.09-.09,.25-.09,.35,0,.05,.05,.07,.12,.07,.18s-.02,.13-.07,.18c-.05,.05-.12,.07-.18,.07Z" style="fill: #1d1d1b;"/>
        <path d="M51,50.5c-.06,0-.12-.03-.17-.07-.05-.05-.08-.11-.08-.18s.03-.13,.08-.18c.09-.09,.25-.09,.35,0,.05,.05,.07,.11,.07,.18s-.02,.13-.07,.18c-.05,.05-.11,.07-.18,.07Z" style="fill: #1d1d1b;"/>
        <path d="M52,46.5c-.06,0-.13-.03-.17-.07-.05-.05-.08-.11-.08-.18s.03-.13,.08-.18c.09-.09,.25-.09,.35,0,.05,.06,.07,.12,.07,.18s-.02,.12-.07,.17c-.05,.06-.11,.08-.18,.08Z" style="fill: #1d1d1b;"/>
        <path d="M55,47c-.06,0-.12-.02-.17-.07-.05-.05-.08-.11-.08-.18s.03-.13,.08-.18c.09-.09,.25-.09,.35,0,.05,.05,.07,.12,.07,.18s-.02,.13-.07,.18c-.05,.05-.11,.07-.18,.07Z" style="fill: #1d1d1b;"/>
        <path d="M55,54.25c-.06,0-.12-.03-.17-.07-.05-.05-.08-.11-.08-.18s.03-.13,.08-.18c.09-.09,.25-.09,.35,0,.05,.05,.07,.12,.07,.18s-.02,.13-.07,.18c-.05,.05-.11,.07-.18,.07Z" style="fill: #1d1d1b;"/>
        <path d="M51.25,56.25c-.06,0-.13-.03-.17-.07-.05-.05-.08-.11-.08-.18s.03-.13,.08-.18c.09-.09,.25-.09,.35,0,.05,.05,.07,.11,.07,.18s-.02,.13-.07,.18c-.05,.04-.11,.07-.18,.07Z" style="fill: #1d1d1b;"/>
        <path d="M52.25,59.75c-.06,0-.12-.02-.17-.07-.05-.05-.08-.11-.08-.18s.03-.13,.08-.18c.09-.09,.25-.09,.35,0,.05,.06,.07,.12,.07,.18s-.02,.12-.07,.17c-.05,.06-.11,.08-.18,.08Z" style="fill: #1d1d1b;"/>
        <path d="M51,63.75c-.06,0-.13-.03-.17-.07-.05-.05-.08-.11-.08-.18s.03-.13,.08-.18c.09-.09,.25-.09,.35,0,.05,.05,.07,.12,.07,.18s-.02,.13-.07,.17c-.05,.06-.11,.08-.18,.08Z" style="fill: #1d1d1b;"/>
        <path d="M53.25,63.75c-.06,0-.13-.03-.17-.07-.05-.05-.08-.12-.08-.18s.03-.13,.07-.17c.1-.1,.26-.1,.36,0,.05,.06,.07,.12,.07,.18s-.02,.12-.07,.17c-.05,.05-.11,.08-.18,.08Z" style="fill: #1d1d1b;"/>
        <path d="M55,65.25c-.06,0-.12-.03-.17-.07-.05-.05-.08-.11-.08-.18s.03-.13,.08-.18c.09-.09,.25-.09,.35,0,.05,.05,.07,.12,.07,.18s-.02,.13-.07,.18c-.05,.05-.11,.07-.18,.07Z" style="fill: #1d1d1b;"/>
        <path d="M56.25,64.25c-.06,0-.12-.03-.17-.07-.05-.05-.08-.11-.08-.18s.03-.13,.08-.18c.09-.09,.25-.09,.35,0,.05,.05,.07,.12,.07,.18,0,.07-.02,.13-.07,.18-.05,.05-.11,.07-.18,.07Z" style="fill: #1d1d1b;"/>
        <path d="M56.5,62c-.06,0-.13-.03-.17-.07-.05-.06-.08-.12-.08-.18,0-.07,.03-.13,.08-.18,.07-.08,.26-.09,.35,0,.05,.04,.07,.11,.07,.17s-.02,.12-.07,.17c-.05,.05-.11,.08-.18,.08Z" style="fill: #1d1d1b;"/>
        <path d="M58.25,61.5c-.06,0-.13-.03-.17-.07-.05-.05-.08-.12-.08-.18s.03-.13,.07-.17c.1-.1,.27-.1,.36,0,.05,.06,.07,.12,.07,.18s-.02,.12-.07,.17c-.04,.05-.11,.08-.18,.08Z" style="fill: #1d1d1b;"/>
        <path d="M21,27c-.06,0-.12-.02-.17-.07-.05-.05-.08-.11-.08-.18s.03-.13,.08-.18c.1-.09,.25-.09,.35,0,.05,.05,.07,.12,.07,.18s-.02,.13-.07,.18c-.05,.05-.12,.07-.18,.07Z" style="fill: #1d1d1b;"/>
        <path d="M22.75,24c-.07,0-.13-.03-.18-.07-.04-.05-.07-.11-.07-.18s.03-.13,.08-.18c.1-.09,.26-.09,.35,0,.05,.05,.07,.12,.07,.18s-.02,.13-.07,.18c-.04,.04-.11,.07-.18,.07Z" style="fill: #1d1d1b;"/>
        <path d="M25.25,24.5c-.06,0-.12-.03-.17-.07-.05-.05-.08-.11-.08-.18s.03-.13,.08-.18c.1-.09,.25-.09,.35,0,.05,.05,.07,.12,.07,.18s-.02,.13-.07,.18c-.05,.04-.11,.07-.18,.07Z" style="fill: #1d1d1b;"/>
        <path d="M35.25,23.25c-.06,0-.12-.02-.17-.07-.05-.05-.08-.11-.08-.18s.03-.13,.08-.18c.1-.09,.25-.09,.35,0,.05,.05,.07,.11,.07,.18s-.03,.13-.07,.18c-.05,.05-.11,.07-.18,.07Z" style="fill: #1d1d1b;"/>
        <path d="M39,24.75c-.06,0-.12-.02-.17-.07-.05-.05-.08-.11-.08-.18s.03-.13,.08-.18c.1-.09,.25-.09,.35,0,.05,.05,.07,.11,.07,.18s-.03,.13-.07,.18c-.05,.05-.12,.07-.18,.07Z" style="fill: #1d1d1b;"/>
        <path d="M45,29.5c-.06,0-.12-.02-.17-.07-.05-.05-.08-.11-.08-.18s.03-.13,.08-.18c.1-.09,.25-.09,.35,0,.05,.05,.07,.11,.07,.18s-.02,.13-.07,.18c-.05,.05-.12,.07-.18,.07Z" style="fill: #1d1d1b;"/>
        <path d="M46.25,29c-.06,0-.13-.03-.17-.07-.05-.05-.08-.11-.08-.18s.03-.13,.08-.18c.09-.09,.25-.09,.34,0,.06,.06,.08,.12,.08,.18s-.02,.12-.07,.17c-.05,.06-.11,.08-.18,.08Z" style="fill: #1d1d1b;"/>
        <path d="M55.25,28c-.06,0-.13-.03-.17-.07-.05-.05-.08-.11-.08-.18s.03-.13,.08-.18c.09-.09,.25-.09,.35,0,.05,.05,.07,.12,.07,.18s-.02,.13-.07,.18c-.05,.04-.11,.07-.18,.07Z" style="fill: #1d1d1b;"/>
        <path d="M51.25,25.25c-.06,0-.12-.02-.17-.07-.05-.05-.08-.11-.08-.18s.03-.13,.08-.18c.09-.09,.25-.09,.35,0,.05,.05,.07,.11,.07,.18s-.03,.13-.07,.18c-.05,.05-.11,.07-.18,.07Z" style="fill: #1d1d1b;"/>
        <path d="M52,29.5c-.06,0-.13-.03-.17-.07-.05-.05-.08-.11-.08-.18s.03-.13,.08-.18c.09-.09,.25-.09,.35,0,.05,.06,.07,.12,.07,.18s-.02,.12-.07,.17c-.05,.06-.11,.08-.18,.08Z" style="fill: #1d1d1b;"/>
        <path d="M62.5,35.5c-.06,0-.13-.03-.17-.07-.05-.05-.08-.11-.08-.18s.03-.13,.08-.18c.08-.08,.24-.09,.34,0,.06,.05,.08,.12,.08,.18s-.02,.13-.07,.18c-.05,.05-.12,.07-.18,.07Z" style="fill: #1d1d1b;"/>
        <path d="M58.25,38.25c-.07,0-.13-.03-.17-.07-.05-.05-.08-.12-.08-.18s.03-.13,.07-.17c.1-.1,.27-.1,.36,0,.05,.06,.07,.12,.07,.18s-.02,.12-.07,.17c-.04,.05-.11,.08-.18,.08Z" style="fill: #1d1d1b;"/>
        <path d="M49,39c-.07,0-.13-.03-.17-.07-.05-.05-.08-.12-.08-.18s.03-.13,.07-.17c.1-.1,.26-.1,.36,0,.05,.06,.07,.12,.07,.18s-.02,.12-.07,.17c-.05,.05-.11,.08-.18,.08Z" style="fill: #1d1d1b;"/>
        <path d="M48,41.25c-.06,0-.12-.02-.17-.07-.05-.05-.08-.11-.08-.18s.03-.13,.08-.18c.09-.09,.24-.09,.34,0,.06,.05,.08,.12,.08,.18s-.02,.12-.07,.17c-.06,.06-.11,.08-.18,.08Z" style="fill: #1d1d1b;"/>
        <path d="M52,43c-.07,0-.13-.03-.18-.08-.04-.04-.07-.1-.07-.17s.03-.13,.08-.18c.09-.09,.25-.09,.35,0,.05,.05,.07,.12,.07,.18s-.02,.13-.07,.18c-.05,.04-.11,.07-.18,.07Z" style="fill: #1d1d1b;"/>
        <path d="M53.5,45c-.06,0-.13-.03-.17-.07-.05-.05-.08-.11-.08-.18s.03-.13,.08-.18c.08-.09,.25-.09,.35,0,.05,.05,.07,.12,.07,.18s-.02,.13-.07,.18c-.05,.04-.11,.07-.18,.07Z" style="fill: #1d1d1b;"/>
        <path d="M62.25,48c-.06,0-.13-.03-.17-.07-.05-.05-.08-.12-.08-.18s.03-.13,.07-.17c.1-.1,.26-.1,.36,0,.05,.06,.07,.12,.07,.18s-.02,.12-.07,.17c-.05,.05-.11,.08-.18,.08Z" style="fill: #1d1d1b;"/>
        <path d="M65,51.75c-.06,0-.12-.03-.17-.07-.05-.05-.08-.11-.08-.18s.03-.14,.08-.18c.09-.08,.25-.09,.35,0,.04,.05,.07,.11,.07,.18s-.02,.13-.07,.18c-.05,.05-.11,.07-.18,.07Z" style="fill: #1d1d1b;"/>
        <path d="M67,51.75c-.06,0-.13-.03-.17-.07-.05-.05-.08-.11-.08-.18s.03-.13,.08-.18c.08-.08,.25-.09,.35,0,.05,.05,.07,.11,.07,.18s-.02,.13-.07,.18c-.05,.05-.11,.07-.18,.07Z" style="fill: #1d1d1b;"/>
        <path d="M69.5,45c-.06,0-.12-.03-.17-.07-.05-.05-.08-.11-.08-.18s.03-.13,.08-.18c.09-.09,.25-.09,.35,0,.05,.05,.07,.11,.07,.18s-.02,.13-.07,.18c-.05,.05-.11,.07-.18,.07Z" style="fill: #1d1d1b;"/>
        <path d="M60,39c-.06,0-.12-.02-.17-.07-.05-.05-.08-.11-.08-.18s.03-.13,.08-.18c.09-.09,.25-.09,.35,0,.04,.05,.07,.11,.07,.18s-.03,.13-.07,.18c-.05,.05-.11,.07-.18,.07Z" style="fill: #1d1d1b;"/>
        <path d="M47.25,47.75c-.06,0-.13-.03-.17-.07-.05-.05-.08-.11-.08-.18s.03-.14,.08-.18c.08-.08,.25-.09,.35,0,.04,.05,.07,.11,.07,.18s-.02,.13-.07,.18c-.05,.05-.11,.07-.18,.07Z" style="fill: #1d1d1b;"/>
        <path d="M32.5,47c-.06,0-.12-.03-.17-.07-.05-.05-.08-.11-.08-.18s.03-.13,.08-.18c.09-.09,.26-.09,.35,0,.05,.05,.07,.12,.07,.18s-.02,.13-.07,.18c-.05,.04-.11,.07-.18,.07Z" style="fill: #1d1d1b;"/>
        <path d="M37,44.5c-.06,0-.12-.03-.17-.07-.05-.05-.08-.12-.08-.18,0-.07,.03-.13,.07-.17,.11-.11,.26-.1,.36,0,.05,.05,.07,.12,.07,.18s-.02,.13-.07,.17c-.05,.05-.11,.08-.18,.08Z" style="fill: #1d1d1b;"/>
        <path d="M26.25,37.75c-.06,0-.12-.03-.17-.07-.05-.05-.08-.11-.08-.18s.03-.13,.08-.18c.1-.09,.25-.09,.35,0,.05,.05,.07,.12,.07,.18s-.02,.13-.07,.18c-.05,.04-.11,.07-.18,.07Z" style="fill: #1d1d1b;"/>
        <path d="M29.75,35.5c-.06,0-.12-.02-.17-.07-.05-.05-.08-.11-.08-.18s.03-.13,.08-.18c.1-.09,.25-.09,.35,0,.05,.05,.07,.12,.07,.18s-.02,.12-.07,.17c-.05,.06-.11,.08-.18,.08Z" style="fill: #1d1d1b;"/>
        <path d="M17,28.5c-.06,0-.12-.02-.17-.07-.05-.05-.08-.11-.08-.18,0-.06,.03-.12,.07-.17,.11-.11,.26-.1,.36,0,.05,.05,.07,.12,.07,.18,0,.07-.02,.13-.07,.18-.05,.05-.11,.07-.18,.07Z" style="fill: #1d1d1b;"/>
        <path d="M10.5,29.5c-.06,0-.12-.02-.17-.07-.05-.05-.08-.11-.08-.18,0-.06,.03-.12,.07-.17,.11-.11,.26-.1,.36,0,.05,.06,.07,.12,.07,.18s-.02,.13-.07,.18c-.05,.05-.11,.07-.18,.07Z" style="fill: #1d1d1b;"/>
        <path d="M6,31.5c-.06,0-.12-.02-.17-.07-.05-.05-.08-.11-.08-.18,0-.06,.03-.12,.07-.17,.12-.11,.26-.1,.36,0,.05,.06,.07,.12,.07,.18,0,.07-.02,.13-.07,.18-.05,.05-.11,.07-.18,.07Z" style="fill: #1d1d1b;"/>
        <path d="M2.5,35.25c-.07,0-.13-.03-.17-.07-.05-.05-.08-.12-.08-.18,0-.07,.03-.13,.08-.18,.08-.09,.24-.09,.34,0,.06,.05,.08,.11,.08,.18,0,.06-.02,.13-.07,.17-.05,.06-.11,.08-.18,.08Z" style="fill: #1d1d1b;"/>
        <path d="M11.25,36.75c-.07,0-.13-.03-.18-.07-.04-.05-.07-.12-.07-.18,0-.07,.03-.13,.07-.18,.1-.09,.25-.09,.36,0,.05,.05,.07,.11,.07,.18s-.02,.13-.07,.18c-.05,.05-.11,.07-.18,.07Z" style="fill: #1d1d1b;"/>
        <path d="M17,42c-.06,0-.12-.02-.17-.07-.05-.05-.08-.11-.08-.18,0-.06,.03-.13,.07-.18,.11-.09,.26-.09,.36,0,.05,.05,.07,.11,.07,.18s-.03,.13-.07,.18c-.05,.05-.11,.07-.18,.07Z" style="fill: #1d1d1b;"/>
        <path d="M12.75,36c-.06,0-.13-.03-.17-.07-.05-.05-.08-.11-.08-.18,0-.06,.03-.13,.07-.17,.1-.1,.26-.1,.36,0,.05,.05,.07,.11,.07,.18s-.02,.13-.07,.18c-.05,.05-.12,.07-.18,.07Z" style="fill: #1d1d1b;"/>
        <path d="M26.5,30.25c-.06,0-.12-.02-.17-.07-.05-.05-.08-.11-.08-.18s.03-.13,.08-.18c.1-.09,.25-.09,.35,0,.05,.05,.07,.12,.07,.18s-.02,.13-.07,.18c-.05,.05-.11,.07-.18,.07Z" style="fill: #1d1d1b;"/>
        <path d="M37.75,31c-.06,0-.12-.02-.17-.07-.05-.05-.08-.11-.08-.18s.03-.13,.08-.18c.1-.09,.25-.09,.35,0,.05,.05,.07,.11,.07,.18s-.02,.13-.07,.18c-.05,.05-.12,.07-.18,.07Z" style="fill: #1d1d1b;"/>
        <path d="M39.5,32.5c-.06,0-.12-.02-.17-.07-.05-.05-.08-.11-.08-.18s.03-.13,.08-.18c.08-.09,.26-.09,.35,0,.05,.04,.07,.11,.07,.17s-.02,.13-.07,.18c-.05,.04-.11,.07-.18,.07Z" style="fill: #1d1d1b;"/>
        <path d="M28,42c-.06,0-.12-.03-.17-.07-.05-.05-.08-.12-.08-.18s.03-.12,.07-.17c.11-.1,.26-.1,.35,0,.06,.06,.08,.12,.08,.18s-.02,.13-.07,.17c-.05,.06-.11,.08-.18,.08Z" style="fill: #1d1d1b;"/>
        <path d="M6.5,20.5c-.06,0-.13-.03-.17-.07-.05-.05-.08-.12-.08-.18,0-.07,.03-.13,.07-.18,.1-.09,.26-.09,.36,0,.05,.05,.07,.11,.07,.18,0,.06-.02,.13-.07,.17-.05,.06-.11,.08-.18,.08Z" style="fill: #1d1d1b;"/>
        <path d="M10.25,20.25c-.06,0-.13-.03-.17-.07-.05-.05-.08-.11-.08-.18s.03-.13,.07-.18c.1-.09,.26-.09,.36,0,.05,.05,.07,.11,.07,.18s-.02,.13-.07,.18c-.05,.05-.11,.07-.18,.07Z" style="fill: #1d1d1b;"/>
        <path d="M11.75,23.5c-.06,0-.12-.02-.17-.07-.05-.05-.08-.11-.08-.18,0-.06,.03-.12,.07-.17,.11-.11,.26-.1,.36,0,.05,.06,.07,.12,.07,.18s-.02,.13-.07,.18c-.05,.05-.12,.07-.18,.07Z" style="fill: #1d1d1b;"/>
        <path d="M3,25.75c-.06,0-.13-.03-.17-.07-.05-.05-.08-.11-.08-.18s.03-.13,.07-.18c.1-.09,.26-.09,.36,0,.05,.05,.07,.11,.07,.18s-.02,.13-.07,.18c-.05,.05-.12,.07-.18,.07Z" style="fill: #1d1d1b;"/>
        <path d="M64.25,29.5c-.06,0-.13-.03-.17-.07-.05-.05-.08-.12-.08-.18s.03-.13,.07-.17c.1-.1,.25-.1,.35,0,.06,.05,.08,.12,.08,.18s-.02,.13-.07,.17c-.05,.06-.11,.08-.18,.08Z" style="fill: #1d1d1b;"/>
        <path d="M67.5,30.75c-.06,0-.13-.03-.17-.07-.05-.05-.08-.11-.08-.18,0-.06,.03-.13,.07-.17,.1-.1,.26-.1,.36,0,.05,.06,.07,.12,.07,.18s-.02,.13-.07,.18c-.05,.04-.11,.07-.18,.07Z" style="fill: #1d1d1b;"/>
        <path d="M69.5,29.75c-.06,0-.13-.03-.17-.07-.05-.05-.08-.11-.08-.18s.03-.13,.08-.18c.09-.09,.25-.09,.35,0,.05,.05,.07,.11,.07,.18s-.02,.13-.07,.18c-.05,.04-.11,.07-.18,.07Z" style="fill: #1d1d1b;"/>
        <path d="M7.25,15.75c-.07,0-.13-.03-.18-.08-.04-.04-.07-.1-.07-.17s.03-.13,.07-.18c.1-.09,.26-.09,.36,0,.04,.05,.07,.11,.07,.18s-.03,.13-.07,.18c-.05,.04-.11,.07-.18,.07Z" style="fill: #1d1d1b;"/>
        <path d="M1.5,9c-.06,0-.13-.03-.18-.07-.04-.05-.07-.11-.07-.18s.03-.13,.07-.18c.09-.09,.26-.09,.36,0,.05,.05,.07,.12,.07,.18s-.02,.13-.07,.18c-.05,.04-.11,.07-.18,.07Z" style="fill: #1d1d1b;"/>
        <path d="M14.5,6.5c-.06,0-.12-.02-.17-.07-.05-.05-.08-.11-.08-.18,0-.06,.03-.13,.07-.17,.11-.11,.26-.1,.36,0,.05,.05,.07,.11,.07,.18s-.02,.13-.07,.18c-.05,.05-.11,.07-.18,.07Z" style="fill: #1d1d1b;"/>
        <path d="M8.5,5.25c-.06,0-.12-.02-.17-.07-.05-.05-.08-.11-.08-.18s.03-.13,.07-.18c.1-.09,.27-.09,.36,0,.05,.04,.07,.1,.07,.17,0,.06-.02,.13-.07,.18-.05,.05-.11,.07-.18,.07Z" style="fill: #1d1d1b;"/>
        <path d="M3.5,2.5c-.07,0-.13-.03-.18-.08-.04-.04-.07-.1-.07-.17s.03-.13,.08-.18c.08-.09,.25-.09,.35,0,.04,.05,.07,.11,.07,.18s-.03,.13-.07,.18c-.05,.04-.11,.07-.18,.07Z" style="fill: #1d1d1b;"/>
        <path d="M3.75,6c-.06,0-.13-.03-.17-.07-.05-.05-.08-.11-.08-.18,0-.06,.03-.13,.07-.18,.09-.09,.26-.09,.36,0,.05,.05,.07,.11,.07,.18s-.02,.13-.07,.18c-.05,.05-.12,.07-.18,.07Z" style="fill: #1d1d1b;"/>
        <path d="M12.75,14.25c-.06,0-.13-.03-.17-.07-.05-.05-.08-.12-.08-.18,0-.07,.03-.13,.07-.18,.1-.09,.26-.09,.36,0,.05,.05,.07,.11,.07,.18,0,.06-.02,.13-.07,.17-.05,.06-.11,.08-.18,.08Z" style="fill: #1d1d1b;"/>
        <path d="M18.5,19.25c-.06,0-.12-.02-.17-.07-.05-.05-.08-.11-.08-.18,0-.06,.03-.13,.07-.17,.11-.11,.27-.1,.36,0,.05,.06,.07,.12,.07,.18,0,.07-.02,.13-.07,.18-.05,.04-.11,.07-.18,.07Z" style="fill: #1d1d1b;"/>
        <path d="M21.25,37c-.06,0-.12-.02-.17-.07-.05-.05-.08-.12-.08-.18,0-.07,.03-.13,.07-.18,.11-.09,.26-.09,.36,0,.05,.05,.07,.11,.07,.18,0,.06-.02,.13-.07,.17-.05,.06-.11,.08-.18,.08Z" style="fill: #1d1d1b;"/>
        <path d="M.75,44.25c-.06,0-.13-.03-.17-.07-.05-.05-.08-.11-.08-.18s.03-.13,.08-.18c.07-.08,.25-.09,.35,0,.04,.04,.07,.1,.07,.17s-.03,.13-.07,.18c-.05,.04-.11,.07-.18,.07Z" style="fill: #1d1d1b;"/>
        <path d="M66.5,37.25c-.06,0-.13-.03-.17-.07-.05-.05-.08-.11-.08-.18s.03-.13,.08-.18c.09-.09,.25-.09,.35,0,.05,.05,.07,.12,.07,.18s-.02,.13-.07,.18c-.05,.04-.11,.07-.18,.07Z" style="fill: #1d1d1b;"/>
        <path d="M68,66c-.06,0-.13-.03-.17-.07-.05-.05-.08-.12-.08-.18,0-.07,.03-.13,.07-.18,.1-.09,.26-.09,.36,0,.05,.05,.07,.12,.07,.18s-.02,.12-.07,.17c-.05,.05-.11,.08-.18,.08Z" style="fill: #1d1d1b;"/>
        <path d="M59.75,69.75c-.07,0-.13-.03-.18-.08-.04-.04-.07-.1-.07-.17s.03-.13,.08-.18c.09-.09,.25-.09,.35,0,.05,.05,.07,.12,.07,.18,0,.07-.02,.13-.07,.18-.05,.04-.11,.07-.18,.07Z" style="fill: #1d1d1b;"/>
        <path d="M40.5,68c-.06,0-.12-.02-.17-.07-.05-.05-.08-.11-.08-.18s.03-.13,.08-.18c.09-.09,.25-.09,.35,0,.05,.05,.07,.12,.07,.18s-.02,.13-.07,.18c-.05,.05-.12,.07-.18,.07Z" style="fill: #1d1d1b;"/>
        <path d="M44,63c-.06,0-.12-.02-.17-.07-.05-.04-.08-.11-.08-.18s.03-.13,.08-.18c.09-.09,.25-.09,.35,0,.05,.05,.07,.12,.07,.18,0,.07-.02,.13-.07,.18-.05,.05-.11,.07-.18,.07Z" style="fill: #1d1d1b;"/>
        <path d="M25.75,70c-.06,0-.12-.02-.17-.07-.05-.05-.08-.11-.08-.18s.03-.13,.08-.18c.09-.09,.25-.09,.35,0,.05,.05,.07,.11,.07,.18,0,.06-.02,.12-.07,.17-.05,.06-.11,.08-.18,.08Z" style="fill: #1d1d1b;"/>
        <path d="M4.5,60c-.06,0-.12-.02-.17-.07-.05-.05-.08-.11-.08-.18,0-.06,.03-.13,.07-.17,.11-.11,.26-.1,.36,0,.05,.06,.07,.12,.07,.18s-.02,.13-.07,.18c-.05,.05-.12,.07-.18,.07Z" style="fill: #1d1d1b;"/>
        <path d="M26.5,59.5c-.06,0-.12-.02-.17-.07-.05-.05-.08-.11-.08-.18s.03-.13,.08-.18c.1-.09,.25-.09,.35,0,.05,.05,.07,.11,.07,.18,0,.06-.02,.13-.07,.18-.05,.05-.11,.07-.18,.07Z" style="fill: #1d1d1b;"/>
        <path d="M37.25,48.5c-.06,0-.12-.03-.17-.07-.05-.05-.08-.11-.08-.18s.03-.13,.08-.18c.09-.09,.24-.09,.34,0,.06,.05,.08,.12,.08,.18s-.02,.13-.07,.18c-.06,.05-.12,.07-.18,.07Z" style="fill: #1d1d1b;"/>
        <path d="M22,41.75c-.06,0-.12-.02-.17-.07-.05-.05-.08-.11-.08-.18s.03-.13,.08-.18c.1-.09,.25-.09,.35,0,.05,.05,.07,.12,.07,.18s-.02,.13-.07,.18c-.05,.05-.12,.07-.18,.07Z" style="fill: #1d1d1b;"/>
        <path d="M8.75,40.25c-.06,0-.13-.03-.17-.07-.05-.05-.08-.12-.08-.18,0-.07,.03-.13,.08-.18,.09-.09,.25-.09,.35,0,.04,.05,.07,.11,.07,.18s-.02,.13-.07,.18c-.05,.05-.11,.07-.18,.07Z" style="fill: #1d1d1b;"/>
        <path d="M24,29c-.06,0-.12-.02-.17-.07-.05-.05-.08-.11-.08-.18s.03-.13,.08-.18c.1-.09,.25-.09,.35,0,.05,.05,.07,.12,.07,.18s-.02,.12-.07,.17c-.05,.06-.11,.08-.18,.08Z" style="fill: #1d1d1b;"/>
        <path d="M41.5,34.5c-.06,0-.13-.03-.17-.07-.05-.05-.08-.11-.08-.18s.03-.13,.08-.18c.09-.09,.25-.09,.34,0,.06,.06,.08,.12,.08,.18s-.02,.12-.07,.17c-.05,.06-.11,.08-.18,.08Z" style="fill: #1d1d1b;"/>
        <path d="M51.5,37.5c-.06,0-.13-.03-.17-.07-.05-.05-.08-.11-.08-.18s.03-.13,.08-.18c.09-.09,.25-.09,.35,0,.05,.05,.07,.12,.07,.18s-.02,.13-.07,.17c-.05,.06-.11,.08-.18,.08Z" style="fill: #1d1d1b;"/>
        <path d="M60.75,46c-.06,0-.12-.03-.17-.07-.05-.05-.08-.11-.08-.18s.03-.14,.08-.18c.09-.09,.25-.09,.35,0,.05,.05,.07,.11,.07,.18s-.02,.13-.07,.18c-.05,.04-.11,.07-.18,.07Z" style="fill: #1d1d1b;"/>
        <path d="M67.5,43.75c-.06,0-.13-.03-.17-.07-.05-.05-.08-.11-.08-.18s.03-.13,.08-.18c.08-.08,.25-.09,.35,0,.05,.05,.07,.12,.07,.18s-.02,.13-.07,.18c-.05,.04-.11,.07-.18,.07Z" style="fill: #1d1d1b;"/>
        <path d="M51.25,66.25c-.06,0-.12-.02-.17-.07-.05-.05-.08-.11-.08-.18s.03-.13,.08-.18c.09-.09,.25-.09,.35,0,.05,.05,.07,.11,.07,.18s-.03,.13-.07,.18c-.05,.05-.11,.07-.18,.07Z" style="fill: #1d1d1b;"/>
        <path d="M40,37.75c-.06,0-.13-.03-.17-.07-.05-.05-.08-.11-.08-.18s.03-.13,.08-.18c.09-.09,.26-.09,.35,0,.05,.05,.07,.12,.07,.18s-.02,.12-.07,.17c-.05,.05-.11,.08-.18,.08Z" style="fill: #1d1d1b;"/>
        <path d="M53.25,15c-.06,0-.13-.03-.17-.07-.05-.05-.08-.11-.08-.18s.03-.13,.08-.18c.07-.08,.26-.09,.35,0,.05,.04,.07,.11,.07,.17s-.02,.13-.07,.18c-.05,.04-.11,.07-.18,.07Z" style="fill: #1d1d1b;"/>
        <path d="M34,16c-.07,0-.13-.03-.18-.08-.04-.04-.07-.1-.07-.17s.03-.14,.08-.18c.09-.09,.26-.09,.35,0,.05,.05,.07,.11,.07,.18,0,.06-.02,.13-.07,.18-.05,.04-.11,.07-.18,.07Z" style="fill: #1d1d1b;"/>
        <path d="M27.5,13.5c-.06,0-.12-.02-.17-.07-.05-.05-.08-.11-.08-.18s.03-.13,.07-.17c.11-.11,.26-.1,.36,0,.05,.05,.07,.12,.07,.18,0,.07-.02,.13-.07,.18-.05,.05-.11,.07-.18,.07Z" style="fill: #1d1d1b;"/>
        <path d="M12.75,19.25c-.06,0-.13-.03-.17-.07-.05-.05-.08-.11-.08-.18,0-.06,.03-.12,.07-.17,.1-.1,.26-.1,.36,0,.05,.05,.07,.12,.07,.18,0,.07-.02,.13-.07,.18-.05,.05-.11,.07-.18,.07Z" style="fill: #1d1d1b;"/>
        <path d="M19.75,26.5c-.06,0-.12-.02-.17-.07-.05-.05-.08-.11-.08-.18,0-.06,.03-.12,.07-.17,.11-.11,.26-.1,.36,0,.05,.05,.07,.12,.07,.18,0,.07-.02,.13-.07,.18-.05,.05-.12,.07-.18,.07Z" style="fill: #1d1d1b;"/>
        <path d="M49.5,4.5c-.06,0-.13-.03-.17-.07-.05-.04-.08-.11-.08-.18s.03-.14,.08-.18c.08-.08,.25-.09,.35,0,.05,.05,.07,.12,.07,.18s-.02,.13-.07,.18c-.05,.04-.11,.07-.18,.07Z" style="fill: #1d1d1b;"/>
        <path d="M11.75,1.75c-.06,0-.12-.02-.17-.07-.05-.05-.08-.11-.08-.18,0-.06,.03-.13,.07-.18,.1-.09,.27-.09,.36,0,.05,.05,.07,.12,.07,.18s-.02,.13-.07,.18c-.05,.05-.11,.07-.18,.07Z" style="fill: #1d1d1b;"/>
        <path d="M55.25,3.75c-.06,0-.13-.03-.17-.07-.05-.05-.08-.11-.08-.18s.03-.13,.08-.18c.08-.09,.25-.09,.35,0,.05,.05,.07,.12,.07,.18s-.02,.13-.07,.18c-.05,.04-.11,.07-.18,.07Z" style="fill: #1d1d1b;"/>
        <path d="M59,20.75c-.06,0-.13-.03-.17-.07-.05-.05-.08-.11-.08-.18s.03-.13,.08-.18c.08-.09,.25-.09,.35,0,.05,.06,.07,.12,.07,.18s-.02,.12-.07,.17c-.05,.06-.11,.08-.18,.08Z" style="fill: #1d1d1b;"/>
        <path d="M67.5,57.25c-.06,0-.13-.03-.17-.07-.05-.05-.08-.12-.08-.18,0-.07,.03-.13,.08-.18,.09-.09,.25-.09,.35,0,.05,.05,.07,.12,.07,.18s-.02,.12-.07,.17c-.05,.05-.11,.08-.18,.08Z" style="fill: #1d1d1b;"/>
        <path d="M47.25,69.75c-.06,0-.13-.03-.17-.07-.05-.04-.08-.11-.08-.18s.03-.14,.08-.18c.08-.08,.25-.09,.35,0,.04,.05,.07,.11,.07,.18s-.03,.13-.07,.18c-.05,.05-.11,.07-.18,.07Z" style="fill: #1d1d1b;"/>
        <path d="M5.25,69.75c-.06,0-.13-.03-.17-.07-.05-.05-.08-.11-.08-.18,0-.06,.03-.12,.07-.17,.1-.1,.26-.1,.36,0,.05,.05,.07,.12,.07,.18,0,.07-.02,.13-.07,.18s-.12,.07-.18,.07Z" style="fill: #1d1d1b;"/>
        <path d="M4.75,40.25c-.06,0-.13-.03-.18-.07-.04-.05-.07-.11-.07-.18s.03-.13,.07-.18c.09-.09,.26-.09,.36,0,.05,.05,.07,.12,.07,.18s-.02,.13-.07,.18c-.05,.04-.11,.07-.18,.07Z" style="fill: #1d1d1b;"/>
        <path d="M69.75,12.75c-.07,0-.13-.03-.17-.07-.05-.05-.08-.11-.08-.18s.03-.13,.08-.18c.09-.09,.25-.09,.35,0,.05,.05,.07,.12,.07,.18s-.02,.13-.07,.18c-.05,.04-.11,.07-.18,.07Z" style="fill: #1d1d1b;"/>
        <path d="M23.25,14c-.06,0-.12-.02-.17-.07-.05-.05-.08-.11-.08-.18s.03-.13,.07-.17c.11-.11,.26-.1,.36,0,.05,.06,.07,.12,.07,.18s-.02,.13-.07,.18c-.05,.05-.11,.07-.18,.07Z" style="fill: #1d1d1b;"/>
        <path d="M20.5,17.25c-.06,0-.13-.03-.17-.07-.05-.04-.08-.11-.08-.18s.03-.14,.08-.18c.07-.08,.26-.09,.35,0,.05,.04,.07,.11,.07,.17s-.02,.13-.07,.18c-.05,.04-.11,.07-.18,.07Z" style="fill: #1d1d1b;"/>
        <path d="M14.75,17.25c-.06,0-.12-.02-.17-.07-.05-.05-.08-.11-.08-.18,0-.06,.03-.13,.07-.18,.11-.09,.26-.09,.36,0,.05,.05,.07,.12,.07,.18s-.02,.13-.07,.18c-.05,.05-.11,.07-.18,.07Z" style="fill: #1d1d1b;"/>
        <path d="M2.75,13.25c-.07,0-.13-.03-.17-.07-.05-.05-.08-.12-.08-.18,0-.07,.03-.13,.08-.18,.09-.09,.25-.09,.35,0,.04,.05,.07,.11,.07,.18s-.02,.13-.07,.18c-.05,.04-.11,.07-.18,.07Z" style="fill: #1d1d1b;"/>
        <path d="M6,11.75c-.06,0-.12-.02-.17-.07-.05-.05-.08-.12-.08-.18,0-.07,.03-.13,.07-.18,.12-.1,.26-.09,.36,0,.05,.05,.07,.11,.07,.18,0,.06-.02,.12-.07,.17-.05,.06-.11,.08-.18,.08Z" style="fill: #1d1d1b;"/>
        <path d="M7,2.75c-.06,0-.12-.02-.17-.07-.05-.05-.08-.12-.08-.18,0-.07,.03-.13,.07-.18,.11-.09,.26-.09,.36,0,.05,.05,.07,.12,.07,.18s-.02,.12-.07,.17c-.05,.06-.11,.08-.18,.08Z" style="fill: #1d1d1b;"/>
        <path d="M10,8.25c-.07,0-.13-.03-.18-.07-.04-.05-.07-.12-.07-.18,0-.07,.03-.13,.07-.18,.09-.09,.26-.09,.36,0,.05,.05,.07,.11,.07,.18,0,.06-.02,.13-.07,.17-.05,.06-.11,.08-.18,.08Z" style="fill: #1d1d1b;"/>
        <path d="M16,8.25c-.06,0-.13-.03-.18-.07-.04-.05-.07-.11-.07-.18s.03-.13,.08-.18c.1-.09,.25-.09,.35,0,.05,.05,.07,.12,.07,.18s-.02,.13-.07,.18c-.05,.04-.11,.07-.18,.07Z" style="fill: #1d1d1b;"/>
        <path d="M16.5,3.25c-.06,0-.12-.02-.17-.07-.05-.05-.08-.11-.08-.18s.03-.13,.07-.18c.11-.1,.26-.09,.36,0,.05,.05,.07,.11,.07,.18s-.02,.13-.07,.18c-.05,.05-.12,.07-.18,.07Z" style="fill: #1d1d1b;"/>
        <path d="M25.75,7c-.06,0-.12-.02-.17-.07-.05-.05-.08-.11-.08-.18s.03-.13,.08-.18c.1-.09,.25-.09,.35,0,.05,.05,.07,.12,.07,.18s-.02,.13-.07,.18c-.05,.05-.11,.07-.18,.07Z" style="fill: #1d1d1b;"/>
        <path d="M37,7.5c-.06,0-.12-.02-.17-.07-.05-.05-.08-.11-.08-.18s.03-.13,.08-.18c.09-.09,.26-.09,.35,0,.05,.05,.07,.11,.07,.18s-.02,.13-.07,.18c-.05,.05-.12,.07-.18,.07Z" style="fill: #1d1d1b;"/>
        <path d="M40.5,4.5c-.06,0-.13-.03-.17-.07-.05-.04-.08-.11-.08-.18s.03-.13,.08-.18c.09-.09,.25-.09,.35,0,.05,.06,.07,.12,.07,.18,0,.07-.02,.13-.07,.18-.05,.04-.11,.07-.18,.07Z" style="fill: #1d1d1b;"/>
        <path d="M37.5,4.25c-.06,0-.13-.03-.17-.07-.05-.04-.08-.11-.08-.18s.03-.13,.08-.18c.08-.09,.25-.09,.35,0,.05,.06,.07,.12,.07,.18s-.02,.13-.07,.18c-.05,.05-.11,.07-.18,.07Z" style="fill: #1d1d1b;"/>
        <path d="M43.25,2.25c-.07,0-.13-.03-.18-.08-.04-.04-.07-.1-.07-.17s.03-.13,.08-.18c.09-.09,.25-.09,.35,0,.05,.05,.07,.12,.07,.18s-.02,.13-.07,.18c-.05,.04-.11,.07-.18,.07Z" style="fill: #1d1d1b;"/>
        <path d="M49.5,8.25c-.06,0-.13-.03-.17-.07-.05-.04-.08-.11-.08-.18s.03-.14,.08-.18c.08-.09,.25-.09,.35,0,.05,.05,.07,.12,.07,.18s-.02,.13-.07,.18c-.05,.04-.11,.07-.18,.07Z" style="fill: #1d1d1b;"/>
        <path d="M46,9.25c-.06,0-.13-.03-.17-.07-.05-.05-.08-.11-.08-.18s.03-.13,.08-.18c.08-.08,.25-.09,.35,0,.05,.05,.07,.12,.07,.18s-.02,.13-.07,.18c-.05,.04-.11,.07-.18,.07Z" style="fill: #1d1d1b;"/>
        <path d="M35.75,11c-.06,0-.13-.03-.17-.07-.05-.05-.08-.11-.08-.18s.03-.13,.08-.18c.09-.09,.25-.09,.35,0,.05,.05,.07,.12,.07,.18s-.02,.13-.07,.18c-.05,.04-.11,.07-.18,.07Z" style="fill: #1d1d1b;"/>
        <path d="M39.25,15c-.06,0-.12-.02-.17-.07-.05-.05-.08-.11-.08-.18s.03-.13,.08-.18c.09-.09,.25-.09,.35,0,.05,.06,.07,.12,.07,.18s-.02,.13-.07,.18c-.05,.05-.11,.07-.18,.07Z" style="fill: #1d1d1b;"/>
        <path d="M24.75,18c-.06,0-.12-.02-.17-.07-.05-.05-.08-.11-.08-.18s.03-.13,.07-.18c.1-.09,.27-.09,.36,0,.05,.05,.07,.11,.07,.18s-.02,.13-.07,.18c-.05,.05-.11,.07-.18,.07Z" style="fill: #1d1d1b;"/>
        <path d="M8.25,27.25c-.06,0-.12-.02-.17-.07-.05-.05-.08-.11-.08-.18s.03-.13,.07-.18c.12-.1,.26-.09,.36,0,.05,.05,.07,.12,.07,.18,0,.07-.02,.13-.07,.18-.05,.04-.11,.07-.18,.07Z" style="fill: #1d1d1b;"/>
        <path d="M16,31.75c-.06,0-.13-.03-.18-.07-.04-.05-.07-.11-.07-.18s.03-.13,.08-.18c.1-.09,.25-.09,.35,0,.05,.05,.07,.12,.07,.18s-.02,.13-.07,.18c-.05,.04-.11,.07-.18,.07Z" style="fill: #1d1d1b;"/>
        <path d="M10.5,33.5c-.06,0-.12-.02-.17-.07-.05-.05-.08-.12-.08-.18,0-.07,.03-.13,.07-.18,.11-.1,.26-.09,.36,0,.05,.05,.07,.12,.07,.18s-.02,.12-.07,.17c-.05,.06-.11,.08-.18,.08Z" style="fill: #1d1d1b;"/>
        <path d="M5.25,37c-.06,0-.13-.03-.17-.07-.05-.05-.08-.11-.08-.18,0-.06,.03-.12,.07-.17,.1-.1,.26-.1,.36,0,.05,.05,.07,.12,.07,.18,0,.07-.02,.13-.07,.18-.05,.05-.12,.07-.18,.07Z" style="fill: #1d1d1b;"/>
        <path d="M2.75,32c-.06,0-.13-.03-.17-.07-.05-.05-.08-.12-.08-.18,0-.07,.03-.13,.08-.18,.09-.09,.25-.09,.35,0,.04,.05,.07,.11,.07,.18s-.02,.13-.07,.18c-.05,.04-.11,.07-.18,.07Z" style="fill: #1d1d1b;"/>
        <path d="M7.5,25c-.07,0-.13-.03-.18-.07-.04-.05-.07-.11-.07-.18s.03-.13,.07-.18c.11-.09,.25-.09,.35,0,.06,.05,.08,.12,.08,.18s-.02,.13-.07,.18c-.05,.04-.11,.07-.18,.07Z" style="fill: #1d1d1b;"/>
        <path d="M3.25,20.5c-.06,0-.13-.03-.17-.07-.05-.05-.08-.11-.08-.18,0-.06,.03-.13,.07-.17,.1-.1,.26-.1,.36,0,.05,.05,.07,.12,.07,.18,0,.07-.02,.13-.07,.18-.05,.05-.12,.07-.18,.07Z" style="fill: #1d1d1b;"/>
        <path d="M20.5,30.75c-.06,0-.13-.03-.17-.07-.05-.05-.08-.11-.08-.18s.03-.13,.08-.18c.09-.09,.25-.09,.35,0,.05,.06,.07,.12,.07,.18s-.02,.12-.07,.17c-.05,.05-.11,.08-.18,.08Z" style="fill: #1d1d1b;"/>
        <path d="M17.5,35.5c-.06,0-.12-.03-.17-.07-.05-.06-.08-.12-.08-.18,0-.07,.03-.13,.07-.18,.11-.09,.26-.09,.36,0,.05,.05,.07,.11,.07,.18,0,.06-.02,.13-.07,.17-.05,.05-.11,.08-.18,.08Z" style="fill: #1d1d1b;"/>
        <path d="M16,39c-.06,0-.12-.02-.17-.07-.05-.05-.08-.11-.08-.18s.03-.13,.08-.18c.09-.09,.25-.09,.35,0,.05,.05,.07,.12,.07,.18s-.02,.13-.07,.18c-.05,.05-.12,.07-.18,.07Z" style="fill: #1d1d1b;"/>
        <path d="M12.75,41.25c-.06,0-.13-.03-.17-.07-.05-.05-.08-.11-.08-.18,0-.06,.03-.13,.07-.18,.1-.09,.26-.09,.36,0,.05,.05,.07,.11,.07,.18s-.02,.13-.07,.18c-.05,.04-.11,.07-.18,.07Z" style="fill: #1d1d1b;"/>
        <path d="M12.75,46.5c-.07,0-.13-.03-.17-.07-.05-.05-.08-.12-.08-.18,0-.07,.03-.13,.07-.18,.1-.09,.26-.09,.36,0,.05,.05,.07,.11,.07,.18s-.02,.13-.07,.18c-.05,.05-.11,.07-.18,.07Z" style="fill: #1d1d1b;"/>
        <path d="M4,46.75c-.06,0-.13-.03-.17-.07-.05-.05-.08-.11-.08-.18,0-.06,.03-.13,.07-.18,.1-.09,.26-.09,.35,0,.06,.05,.08,.12,.08,.18,0,.07-.02,.13-.07,.18-.05,.05-.12,.07-.18,.07Z" style="fill: #1d1d1b;"/>
        <path d="M5.75,48.5c-.07,0-.13-.03-.18-.08-.04-.04-.07-.1-.07-.17s.03-.13,.07-.18c.1-.09,.26-.09,.36,0,.05,.05,.07,.11,.07,.18s-.02,.13-.07,.18c-.05,.04-.11,.07-.18,.07Z" style="fill: #1d1d1b;"/>
        <path d="M11,50.5c-.06,0-.12-.02-.17-.07-.05-.05-.08-.11-.08-.18,0-.06,.03-.13,.07-.17,.11-.11,.26-.1,.36,0,.05,.06,.07,.12,.07,.18s-.02,.13-.07,.18c-.05,.05-.12,.07-.18,.07Z" style="fill: #1d1d1b;"/>
        <path d="M11,54.5c-.06,0-.13-.03-.18-.07-.04-.05-.07-.11-.07-.18s.03-.13,.07-.18c.11-.09,.26-.09,.36,0,.05,.05,.07,.12,.07,.18s-.02,.13-.07,.18c-.05,.04-.11,.07-.18,.07Z" style="fill: #1d1d1b;"/>
        <path d="M15.5,58.5c-.06,0-.12-.03-.17-.07-.05-.05-.08-.11-.08-.18s.03-.13,.07-.18c.11-.09,.26-.09,.36,0,.05,.05,.07,.12,.07,.18s-.02,.13-.07,.18c-.05,.04-.11,.07-.18,.07Z" style="fill: #1d1d1b;"/>
        <path d="M10,59.75c-.07,0-.13-.03-.18-.07-.04-.05-.07-.12-.07-.18,0-.07,.03-.13,.07-.18,.1-.09,.25-.09,.36,0,.05,.05,.07,.11,.07,.18,0,.06-.02,.13-.07,.18-.05,.05-.11,.07-.18,.07Z" style="fill: #1d1d1b;"/>
        <path d="M6,63.5c-.06,0-.12-.02-.17-.07-.05-.05-.08-.12-.08-.18,0-.07,.03-.13,.07-.18,.12-.1,.26-.09,.36,0,.05,.05,.07,.11,.07,.18,0,.06-.02,.12-.07,.17-.05,.06-.11,.08-.18,.08Z" style="fill: #1d1d1b;"/>
        <path d="M2.25,62c-.06,0-.12-.02-.17-.07-.05-.05-.08-.11-.08-.18s.03-.13,.07-.18c.11-.09,.25-.09,.35,0,.06,.05,.08,.12,.08,.18s-.02,.13-.07,.18c-.06,.05-.12,.07-.18,.07Z" style="fill: #1d1d1b;"/>
        <path d="M7.25,67.75c-.06,0-.13-.03-.17-.07-.05-.05-.08-.12-.08-.18,0-.07,.03-.13,.07-.18,.1-.09,.26-.09,.36,0,.04,.05,.07,.11,.07,.18s-.02,.13-.07,.17c-.05,.06-.11,.08-.18,.08Z" style="fill: #1d1d1b;"/>
        <path d="M13.5,69.5c-.06,0-.12-.02-.17-.07-.05-.05-.08-.12-.08-.18,0-.07,.03-.13,.07-.18,.11-.09,.26-.09,.36,0,.05,.05,.07,.12,.07,.18s-.02,.12-.07,.17c-.05,.06-.11,.08-.18,.08Z" style="fill: #1d1d1b;"/>
        <path d="M13.5,65.75c-.06,0-.12-.02-.17-.07-.05-.05-.08-.11-.08-.18,0-.06,.03-.13,.07-.17,.11-.11,.26-.1,.36,0,.05,.06,.07,.12,.07,.18s-.02,.13-.07,.18c-.05,.05-.11,.07-.18,.07Z" style="fill: #1d1d1b;"/>
        <path d="M21.5,68.5c-.06,0-.12-.02-.17-.07-.05-.05-.08-.11-.08-.18s.03-.13,.08-.18c.09-.09,.25-.09,.35,0,.05,.05,.07,.12,.07,.18s-.02,.12-.07,.17c-.05,.06-.11,.08-.18,.08Z" style="fill: #1d1d1b;"/>
        <path d="M23,65.75c-.06,0-.12-.02-.17-.07-.05-.05-.08-.11-.08-.18,0-.06,.03-.12,.07-.17,.11-.11,.26-.1,.36,0,.05,.05,.07,.12,.07,.18,0,.07-.02,.13-.07,.18-.05,.05-.11,.07-.18,.07Z" style="fill: #1d1d1b;"/>
        <path d="M22.25,60c-.06,0-.12-.02-.17-.07-.05-.05-.08-.11-.08-.18,0-.06,.03-.12,.07-.17,.11-.11,.26-.1,.36,0,.05,.05,.07,.12,.07,.18,0,.07-.02,.13-.07,.18-.05,.05-.12,.07-.18,.07Z" style="fill: #1d1d1b;"/>
        <path d="M24.25,57.5c-.06,0-.12-.02-.17-.07-.05-.05-.08-.11-.08-.18s.03-.13,.08-.18c.1-.09,.25-.09,.35,0,.05,.05,.07,.12,.07,.18s-.02,.13-.07,.18c-.05,.05-.11,.07-.18,.07Z" style="fill: #1d1d1b;"/>
        <path d="M22,53.25c-.06,0-.12-.02-.17-.07-.05-.05-.08-.11-.08-.18s.03-.13,.07-.17c.11-.11,.26-.1,.36,0,.05,.06,.07,.12,.07,.18s-.02,.13-.07,.18c-.05,.05-.11,.07-.18,.07Z" style="fill: #1d1d1b;"/>
        <path d="M26.25,47.75c-.06,0-.12-.02-.17-.07-.05-.05-.08-.11-.08-.18s.03-.13,.08-.18c.09-.09,.25-.09,.35,0,.05,.05,.07,.12,.07,.18s-.02,.13-.07,.18c-.05,.05-.11,.07-.18,.07Z" style="fill: #1d1d1b;"/>
        <path d="M25.75,43.5c-.06,0-.12-.02-.17-.07-.05-.05-.08-.11-.08-.18s.03-.13,.07-.18c.11-.09,.26-.09,.36,0,.05,.06,.07,.12,.07,.18,0,.07-.02,.13-.07,.18-.05,.05-.11,.07-.18,.07Z" style="fill: #1d1d1b;"/>
        <path d="M31.25,37.5c-.06,0-.12-.03-.17-.07-.05-.05-.08-.12-.08-.18s.03-.13,.07-.17c.11-.11,.26-.1,.36,0,.05,.06,.07,.12,.07,.18s-.02,.12-.07,.17c-.05,.05-.11,.08-.18,.08Z" style="fill: #1d1d1b;"/>
        <path d="M32.25,31c-.06,0-.12-.02-.17-.07-.05-.05-.08-.11-.08-.18,0-.06,.03-.12,.07-.17,.11-.11,.26-.1,.36,0,.05,.05,.07,.12,.07,.18,0,.07-.03,.13-.07,.18-.05,.05-.11,.07-.18,.07Z" style="fill: #1d1d1b;"/>
        <path d="M26,34c-.06,0-.12-.02-.17-.07-.05-.05-.08-.11-.08-.18s.03-.13,.08-.18c.1-.09,.25-.09,.35,0,.05,.05,.07,.12,.07,.18s-.02,.13-.07,.18c-.05,.05-.11,.07-.18,.07Z" style="fill: #1d1d1b;"/>
        <path d="M34.25,27.75c-.06,0-.13-.03-.17-.07-.05-.05-.08-.11-.08-.18s.03-.13,.08-.18c.09-.09,.25-.09,.35,0,.05,.06,.07,.12,.07,.18s-.02,.13-.07,.18c-.05,.04-.11,.07-.18,.07Z" style="fill: #1d1d1b;"/>
        <path d="M37.25,28.5c-.06,0-.13-.03-.17-.07-.05-.05-.08-.11-.08-.18s.03-.13,.08-.18c.09-.09,.25-.09,.34,0,.06,.05,.08,.12,.08,.18s-.02,.12-.07,.17c-.05,.06-.11,.08-.18,.08Z" style="fill: #1d1d1b;"/>
        <path d="M41.75,25.75c-.06,0-.12-.03-.17-.07-.05-.05-.08-.11-.08-.18s.03-.13,.08-.18c.09-.09,.26-.09,.35,0,.05,.06,.07,.12,.07,.18s-.02,.12-.07,.17c-.05,.05-.11,.08-.18,.08Z" style="fill: #1d1d1b;"/>
        <path d="M43,20.75c-.06,0-.12-.02-.17-.07-.05-.05-.08-.11-.08-.18s.03-.13,.08-.18c.09-.09,.25-.09,.35,0,.05,.05,.07,.12,.07,.18s-.02,.13-.07,.18c-.05,.05-.12,.07-.18,.07Z" style="fill: #1d1d1b;"/>
        <path d="M36.5,19.25c-.06,0-.13-.03-.17-.07-.05-.04-.08-.11-.08-.18s.03-.14,.08-.18c.08-.08,.25-.09,.35,0,.05,.05,.07,.12,.07,.18s-.02,.13-.07,.18c-.05,.05-.11,.07-.18,.07Z" style="fill: #1d1d1b;"/>
        <path d="M27.75,22.25c-.06,0-.12-.03-.17-.07-.05-.05-.08-.12-.08-.18s.03-.13,.07-.17c.11-.11,.26-.1,.36,0,.05,.05,.07,.11,.07,.18s-.02,.13-.07,.18c-.05,.04-.11,.07-.18,.07Z" style="fill: #1d1d1b;"/>
        <path d="M52,22c-.06,0-.13-.03-.17-.07-.05-.05-.08-.11-.08-.18s.03-.13,.08-.18c.09-.09,.25-.09,.35,0,.05,.06,.07,.12,.07,.18s-.02,.12-.07,.17c-.05,.05-.11,.08-.18,.08Z" style="fill: #1d1d1b;"/>
        <path d="M43.25,17.75c-.06,0-.13-.03-.17-.07-.05-.05-.08-.11-.08-.18,0-.06,.03-.13,.07-.18,.11-.09,.26-.09,.36,0,.05,.06,.07,.12,.07,.18s-.02,.12-.07,.17c-.05,.06-.11,.08-.18,.08Z" style="fill: #1d1d1b;"/>
        <path d="M50.5,18c-.06,0-.13-.03-.17-.07-.05-.05-.08-.11-.08-.18s.03-.13,.08-.18c.08-.09,.25-.09,.35,0,.05,.06,.07,.12,.07,.18s-.02,.12-.07,.17c-.05,.05-.11,.08-.18,.08Z" style="fill: #1d1d1b;"/>
        <path d="M59.5,17.25c-.06,0-.13-.03-.17-.07-.05-.05-.08-.11-.08-.18s.03-.13,.08-.18c.08-.09,.25-.09,.35,0,.05,.05,.07,.12,.07,.18s-.02,.13-.07,.18c-.05,.04-.11,.07-.18,.07Z" style="fill: #1d1d1b;"/>
        <path d="M58.25,14c-.06,0-.13-.03-.17-.07-.05-.05-.08-.11-.08-.18s.03-.13,.08-.18c.08-.09,.26-.09,.35,0,.05,.05,.07,.11,.07,.18,0,.06-.02,.13-.07,.18-.05,.04-.11,.07-.18,.07Z" style="fill: #1d1d1b;"/>
        <path d="M61.5,11c-.06,0-.12-.02-.17-.07-.05-.05-.08-.11-.08-.18s.03-.14,.08-.18c.09-.09,.25-.09,.35,0,.04,.05,.07,.11,.07,.18s-.03,.13-.07,.18c-.05,.05-.11,.07-.18,.07Z" style="fill: #1d1d1b;"/>
        <path d="M58.75,7.5c-.06,0-.12-.02-.17-.07-.05-.05-.08-.11-.08-.18s.03-.13,.08-.18c.09-.09,.25-.09,.35,0,.05,.05,.07,.11,.07,.18s-.02,.13-.07,.18c-.05,.05-.11,.07-.18,.07Z" style="fill: #1d1d1b;"/>
        <path d="M60,4.75c-.06,0-.13-.03-.17-.07-.05-.05-.08-.11-.08-.18s.03-.13,.07-.18c.11-.09,.26-.09,.36,0,.05,.05,.07,.11,.07,.18s-.02,.13-.07,.17c-.05,.06-.11,.08-.18,.08Z" style="fill: #1d1d1b;"/>
        <path d="M67.5,6c-.06,0-.13-.03-.17-.07-.05-.05-.08-.12-.08-.18s.03-.13,.07-.17c.1-.1,.26-.1,.36,0,.05,.06,.07,.12,.07,.18s-.02,.12-.07,.17c-.05,.05-.11,.08-.18,.08Z" style="fill: #1d1d1b;"/>
        <path d="M69.5,8c-.06,0-.12-.03-.17-.07-.05-.05-.08-.11-.08-.18,0-.06,.03-.13,.07-.18,.11-.09,.26-.09,.36,0,.05,.05,.07,.12,.07,.18,0,.07-.02,.13-.07,.18-.05,.05-.11,.07-.18,.07Z" style="fill: #1d1d1b;"/>
        <path d="M65.75,9.75c-.06,0-.13-.03-.17-.07-.05-.05-.08-.11-.08-.18s.03-.13,.08-.18c.08-.09,.26-.09,.35,0,.05,.05,.07,.12,.07,.18s-.02,.13-.07,.18c-.05,.04-.11,.07-.18,.07Z" style="fill: #1d1d1b;"/>
        <path d="M61.75,16.5c-.06,0-.13-.03-.17-.07-.05-.05-.08-.11-.08-.18s.03-.13,.08-.18c.09-.09,.25-.09,.35,0,.05,.05,.07,.12,.07,.18s-.02,.13-.07,.17c-.05,.06-.11,.08-.18,.08Z" style="fill: #1d1d1b;"/>
        <path d="M60.25,23.75c-.06,0-.12-.03-.17-.07-.05-.05-.08-.11-.08-.18s.03-.13,.08-.18c.09-.09,.25-.09,.35,0,.04,.05,.07,.11,.07,.18s-.02,.13-.07,.18c-.05,.05-.11,.07-.18,.07Z" style="fill: #1d1d1b;"/>
        <path d="M55.5,23.75c-.06,0-.13-.03-.17-.07-.05-.05-.08-.12-.08-.18s.03-.13,.08-.18c.09-.09,.25-.09,.35,0,.05,.05,.07,.12,.07,.18s-.02,.13-.07,.18c-.05,.04-.11,.07-.18,.07Z" style="fill: #1d1d1b;"/>
        <path d="M55.5,18.75c-.06,0-.13-.03-.17-.07-.05-.05-.08-.12-.08-.18s.03-.13,.08-.18c.09-.09,.25-.09,.35,0,.05,.05,.07,.12,.07,.18s-.02,.13-.07,.18c-.05,.04-.11,.07-.18,.07Z" style="fill: #1d1d1b;"/>
        <path d="M65,25.75c-.06,0-.12-.03-.17-.07-.05-.05-.08-.11-.08-.18s.03-.13,.08-.18c.09-.09,.25-.09,.35,0,.05,.05,.07,.12,.07,.18,0,.07-.02,.13-.07,.18-.05,.05-.11,.07-.18,.07Z" style="fill: #1d1d1b;"/>
        <path d="M61.25,27c-.06,0-.13-.03-.17-.07-.05-.05-.08-.11-.08-.18s.03-.13,.08-.18c.09-.09,.25-.09,.35,0,.05,.05,.07,.11,.07,.18s-.03,.13-.07,.18c-.05,.04-.11,.07-.18,.07Z" style="fill: #1d1d1b;"/>
        <path d="M57.75,30.75c-.06,0-.12-.02-.17-.07-.05-.05-.08-.11-.08-.18s.03-.13,.08-.18c.09-.09,.25-.09,.35,0,.05,.05,.07,.11,.07,.18s-.02,.13-.07,.17c-.05,.06-.11,.08-.18,.08Z" style="fill: #1d1d1b;"/>
        <path d="M52.75,32.75c-.06,0-.13-.03-.17-.07-.05-.05-.08-.11-.08-.18s.03-.13,.08-.18c.09-.09,.25-.09,.35,0,.05,.05,.07,.12,.07,.18s-.02,.13-.07,.17c-.05,.06-.11,.08-.18,.08Z" style="fill: #1d1d1b;"/>
        <path d="M47.5,33.75c-.06,0-.12-.03-.17-.07-.05-.05-.08-.11-.08-.18s.03-.13,.08-.18c.09-.09,.25-.09,.34,0,.06,.06,.08,.12,.08,.18s-.02,.12-.07,.17c-.06,.06-.11,.08-.18,.08Z" style="fill: #1d1d1b;"/>
        <path d="M44.25,39.25c-.06,0-.12-.03-.17-.07-.05-.05-.08-.11-.08-.18s.03-.13,.08-.18c.09-.09,.25-.09,.35,0,.05,.05,.07,.11,.07,.18s-.02,.13-.07,.18c-.05,.05-.12,.07-.18,.07Z" style="fill: #1d1d1b;"/>
        <path d="M34,41.5c-.06,0-.12-.02-.17-.07-.05-.05-.08-.11-.08-.18s.03-.13,.08-.18c.09-.09,.25-.09,.35,0,.05,.05,.07,.12,.07,.18s-.02,.13-.07,.18c-.05,.04-.11,.07-.18,.07Z" style="fill: #1d1d1b;"/>
        <path d="M40.75,48c-.06,0-.12-.02-.17-.07-.05-.05-.08-.11-.08-.18s.03-.13,.08-.18c.1-.09,.25-.09,.35,0,.04,.05,.07,.11,.07,.18s-.03,.13-.07,.18c-.05,.05-.11,.07-.18,.07Z" style="fill: #1d1d1b;"/>
        <path d="M45.75,52.25c-.06,0-.12-.02-.17-.07-.05-.05-.08-.11-.08-.18s.03-.13,.08-.18c.09-.09,.25-.09,.35,0,.05,.05,.07,.11,.07,.18s-.03,.13-.07,.18c-.05,.05-.11,.07-.18,.07Z" style="fill: #1d1d1b;"/>
        <path d="M46.5,56.75c-.06,0-.12-.03-.17-.07-.05-.05-.08-.11-.08-.18s.03-.13,.08-.18c.09-.09,.25-.09,.35,0,.05,.05,.07,.12,.07,.18s-.02,.13-.07,.17c-.05,.06-.11,.08-.18,.08Z" style="fill: #1d1d1b;"/>
        <path d="M42,59.5c-.06,0-.12-.02-.17-.07-.05-.05-.08-.11-.08-.18s.03-.13,.08-.18c.1-.09,.25-.09,.35,0,.04,.05,.07,.11,.07,.18s-.02,.13-.07,.18c-.05,.05-.12,.07-.18,.07Z" style="fill: #1d1d1b;"/>
        <path d="M40,62.75c-.06,0-.12-.03-.17-.07-.05-.05-.08-.11-.08-.18s.03-.14,.08-.18c.09-.09,.26-.09,.35,0,.05,.05,.07,.11,.07,.18,0,.06-.02,.13-.07,.18-.05,.04-.11,.07-.18,.07Z" style="fill: #1d1d1b;"/>
        <path d="M36,62.75c-.06,0-.12-.02-.17-.07-.05-.05-.08-.11-.08-.18s.03-.13,.08-.18c.1-.09,.26-.09,.35,0,.05,.06,.07,.12,.07,.18s-.02,.13-.07,.18c-.05,.04-.11,.07-.18,.07Z" style="fill: #1d1d1b;"/>
        <path d="M36.5,52.75c-.07,0-.13-.03-.17-.07-.05-.05-.08-.11-.08-.18s.03-.13,.08-.18c.09-.09,.25-.09,.35,0,.05,.06,.07,.12,.07,.18s-.02,.12-.07,.17c-.05,.05-.11,.08-.18,.08Z" style="fill: #1d1d1b;"/>
        <path d="M30,63.5c-.06,0-.13-.03-.17-.07-.05-.05-.08-.11-.08-.18s.03-.13,.08-.18c.09-.09,.25-.09,.35,0,.05,.05,.07,.12,.07,.18s-.02,.13-.07,.17c-.05,.05-.11,.08-.18,.08Z" style="fill: #1d1d1b;"/>
        <path d="M31.5,68.5c-.07,0-.13-.03-.18-.08-.04-.04-.07-.1-.07-.17s.03-.14,.08-.18c.09-.08,.25-.09,.34,0,.06,.05,.08,.11,.08,.18,0,.06-.02,.13-.07,.18-.05,.04-.11,.07-.18,.07Z" style="fill: #1d1d1b;"/>
        <path d="M37,71c-.06,0-.12-.02-.17-.07-.05-.05-.08-.11-.08-.18s.03-.13,.08-.18c.1-.09,.25-.09,.35,0,.05,.05,.07,.11,.07,.18s-.02,.13-.07,.18c-.05,.05-.11,.07-.18,.07Z" style="fill: #1d1d1b;"/>
        <path d="M58.75,57c-.06,0-.12-.02-.17-.07-.05-.05-.08-.11-.08-.18s.03-.13,.08-.18c.09-.09,.25-.09,.35,0,.05,.05,.07,.11,.07,.18s-.02,.13-.07,.18c-.05,.05-.11,.07-.18,.07Z" style="fill: #1d1d1b;"/>
        <path d="M63,57c-.06,0-.12-.03-.17-.07-.05-.05-.08-.11-.08-.18s.03-.13,.08-.18c.09-.09,.25-.09,.35,0,.05,.05,.07,.11,.07,.18s-.02,.13-.07,.17c-.05,.06-.11,.08-.18,.08Z" style="fill: #1d1d1b;"/>
        <path d="M60,50.75c-.06,0-.12-.03-.17-.07-.05-.05-.08-.11-.08-.18s.03-.14,.08-.18c.09-.09,.25-.09,.35,0,.04,.05,.07,.11,.07,.18s-.02,.13-.07,.18c-.05,.04-.11,.07-.18,.07Z" style="fill: #1d1d1b;"/>
        <path d="M54.5,50.5c-.07,0-.13-.03-.17-.07-.05-.05-.08-.12-.08-.18s.03-.13,.07-.17c.1-.1,.26-.1,.36,0,.05,.06,.07,.12,.07,.18s-.02,.12-.07,.17c-.05,.05-.11,.08-.18,.08Z" style="fill: #1d1d1b;"/>
        <path d="M59.25,44.25c-.06,0-.13-.03-.17-.07-.05-.05-.08-.12-.08-.18s.03-.13,.07-.17c.1-.1,.27-.1,.36,0,.05,.06,.07,.12,.07,.18s-.02,.12-.07,.17c-.04,.05-.11,.08-.18,.08Z" style="fill: #1d1d1b;"/>
        <path d="M54.75,41.75c-.06,0-.13-.03-.17-.07-.05-.05-.08-.12-.08-.18s.03-.13,.08-.18c.08-.09,.25-.09,.35,0,.05,.05,.07,.12,.07,.18s-.02,.13-.07,.18c-.05,.04-.11,.07-.18,.07Z" style="fill: #1d1d1b;"/>
        <path d="M55.75,35.5c-.06,0-.12-.02-.17-.07-.05-.05-.08-.11-.08-.18s.03-.13,.08-.18c.09-.09,.25-.09,.35,0,.05,.05,.07,.11,.07,.18s-.02,.13-.07,.18c-.05,.05-.11,.07-.18,.07Z" style="fill: #1d1d1b;"/>
        <path d="M62.5,42.25c-.06,0-.13-.03-.17-.07-.05-.05-.08-.11-.08-.18s.03-.13,.08-.18c.08-.08,.24-.09,.34,0,.06,.05,.08,.12,.08,.18s-.02,.13-.07,.18c-.05,.05-.12,.07-.18,.07Z" style="fill: #1d1d1b;"/>
        <path d="M67,47.5c-.06,0-.13-.03-.17-.07-.05-.05-.08-.11-.08-.18s.03-.13,.08-.18c.08-.08,.25-.09,.35,0,.05,.05,.07,.11,.07,.18s-.03,.13-.07,.18c-.05,.05-.11,.07-.18,.07Z" style="fill: #1d1d1b;"/>
        <path d="M69.5,54.25c-.06,0-.13-.03-.17-.07-.05-.05-.08-.11-.08-.18s.03-.13,.08-.18c.09-.09,.25-.09,.35,0,.05,.05,.07,.11,.07,.18s-.02,.13-.07,.18c-.05,.04-.11,.07-.18,.07Z" style="fill: #1d1d1b;"/>
        <path d="M63.5,61.75c-.06,0-.13-.03-.17-.07-.05-.05-.08-.12-.08-.18,0-.07,.03-.13,.08-.18,.07-.08,.25-.1,.35,0,.05,.05,.07,.12,.07,.18s-.02,.12-.07,.17c-.05,.06-.11,.08-.18,.08Z" style="fill: #1d1d1b;"/>
        <path d="M69.25,63.5c-.06,0-.12-.02-.17-.07-.05-.05-.08-.11-.08-.18s.03-.13,.08-.18c.09-.09,.25-.09,.35,0,.05,.05,.07,.12,.07,.18s-.02,.13-.07,.17c-.05,.06-.11,.08-.18,.08Z" style="fill: #1d1d1b;"/>
        <path d="M64.75,65.5c-.07,0-.13-.03-.17-.07-.05-.05-.08-.12-.08-.18s.03-.12,.07-.17c.1-.1,.27-.1,.36,0,.05,.06,.07,.12,.07,.18s-.02,.12-.07,.17c-.04,.05-.11,.08-.18,.08Z" style="fill: #1d1d1b;"/>
        <path d="M65.75,68.25c-.06,0-.13-.03-.17-.07-.05-.05-.08-.11-.08-.18s.03-.13,.08-.18c.08-.09,.26-.09,.35,0,.05,.05,.07,.12,.07,.18,0,.07-.02,.13-.07,.18-.05,.04-.11,.07-.18,.07Z" style="fill: #1d1d1b;"/>
        <path d="M69.25,70.5c-.06,0-.13-.03-.17-.07-.05-.05-.08-.12-.08-.18,0-.07,.03-.13,.08-.18,.09-.09,.25-.09,.35,0,.05,.05,.07,.11,.07,.18,0,.06-.02,.13-.07,.17-.05,.06-.11,.08-.18,.08Z" style="fill: #1d1d1b;"/>
        <path d="M62.5,70.25c-.06,0-.13-.03-.17-.07-.05-.05-.08-.11-.08-.18s.03-.13,.08-.18c.08-.08,.24-.1,.34,0,.06,.05,.08,.12,.08,.18s-.02,.13-.07,.18c-.06,.05-.12,.07-.18,.07Z" style="fill: #1d1d1b;"/>
        <path d="M60.75,65.75c-.06,0-.13-.03-.17-.07-.05-.05-.08-.11-.08-.18s.03-.13,.08-.18c.09-.09,.25-.09,.35,0,.05,.05,.07,.12,.07,.18s-.02,.13-.07,.17c-.05,.06-.11,.08-.18,.08Z" style="fill: #1d1d1b;"/>
        <path d="M52.75,69.75c-.06,0-.13-.03-.17-.07-.05-.05-.08-.11-.08-.18s.03-.13,.08-.18c.09-.09,.25-.09,.35,0,.05,.05,.07,.12,.07,.18s-.02,.13-.07,.17c-.05,.06-.11,.08-.18,.08Z" style="fill: #1d1d1b;"/>
        <path d="M44.75,66.5c-.07,0-.13-.03-.17-.07-.05-.05-.08-.11-.08-.18s.03-.13,.08-.18c.09-.09,.25-.09,.35,0,.05,.05,.07,.11,.07,.18,0,.06-.02,.13-.07,.17-.05,.05-.11,.08-.18,.08Z" style="fill: #1d1d1b;"/>
        <path d="M44.5,71.25c-.06,0-.12-.03-.17-.07-.05-.05-.08-.11-.08-.18s.03-.13,.08-.18c.09-.09,.25-.09,.35,0,.05,.05,.07,.11,.07,.18s-.02,.13-.07,.18c-.05,.05-.12,.07-.18,.07Z" style="fill: #1d1d1b;"/>
        <path d="M28.5,71.25c-.07,0-.13-.03-.18-.08-.04-.04-.07-.1-.07-.17s.03-.13,.08-.18c.09-.09,.25-.09,.35,0,.05,.05,.07,.12,.07,.18s-.02,.13-.07,.18c-.04,.04-.11,.07-.18,.07Z" style="fill: #1d1d1b;"/>
        <path d="M.75,29.5c-.06,0-.13-.03-.17-.07-.05-.05-.08-.12-.08-.18,0-.07,.03-.13,.08-.18,.08-.09,.24-.09,.35,0,.04,.05,.07,.11,.07,.18s-.02,.13-.07,.18c-.05,.05-.11,.07-.18,.07Z" style="fill: #1d1d1b;"/>
        <path d="M24.5,1c-.06,0-.12-.02-.17-.07-.05-.05-.08-.12-.08-.18,0-.07,.03-.13,.07-.18,.11-.09,.26-.09,.36,0,.04,.05,.07,.11,.07,.18s-.02,.13-.07,.17c-.05,.06-.11,.08-.18,.08Z" style="fill: #1d1d1b;"/>
        <path d="M13.25,5c-.07,0-.13-.03-.18-.07-.04-.05-.07-.12-.07-.18,0-.07,.03-.13,.07-.18,.09-.09,.26-.09,.36,0,.05,.05,.07,.11,.07,.18,0,.06-.02,.13-.07,.17-.05,.06-.11,.08-.18,.08Z" style="fill: #1d1d1b;"/>
        <path d="M71,35.25c-.06,0-.13-.03-.17-.07-.05-.05-.08-.11-.08-.18s.03-.13,.08-.18c.08-.08,.25-.09,.35,0,.05,.05,.07,.11,.07,.18s-.02,.13-.07,.18c-.05,.05-.11,.07-.18,.07Z" style="fill: #1d1d1b;"/>
      </g>
    </pattern>
  </defs>
  <path d="M326.71,494.16c-.37-.09-.76-.14-1.19-.15-.78-.02-1.57-.02-2.35-.03-5.58-.35-11.16-.98-16.72-2-2.03-.37-3.67,.38-4.77,1.6-13.94-.66-27.88-1.73-41.84-1.61-10.84,.09-21.64,1.06-32.47,.98-5.68-.04-11.34-.11-16.98,.12-9.61-4.37-9.37-20.19,.86-22.78,22.46-34.83,41.02-72.37,61.15-108.57,21.18-38.09,42.58-76.07,64.19-113.92,42.83-75.02,86.51-149.54,130.99-223.59,.94-1.57,2.07-2.77,3.3-3.67,1.11-14.39,24.09-14.02,24.17,1.18,.89,152.88,.82,305.77-.21,458.65-.02,2.48-.65,4.57-1.7,6.26,.32,2.13,.12,4.28-.66,6.19-7.09,1.55-15.12,.02-22.23-.14-10.12-.24-20.32,.35-30.45,.5-8.3,.12-16.55,.42-24.79,.86-.77-.71-1.78-1.21-3.05-1.33-28.35-2.69-56.94,2.69-85.27,1.48Z" style="fill: #faf7f5;"/>
  <path d="M257.68,490.2c-1.75-.26-3.23,.29-4.31,1.25-3.44-.38-6.88-.78-10.32-1.23-5.39,.67-10.77,1.33-16.16,1.99-8.94-.48-17.89-.59-26.86-.67-.64-.64-1.22-1.35-1.72-2.13-.26-8.64,3.16-17.3,7.11-25.32,39.59-62.6,75.17-127.57,110.56-192.62,6.7-10.1,13.86-19.87,20.23-30.19,12.57-20.37,23.42-41.73,34.66-62.84,11.33-21.28,23.9-41.76,36.07-62.56,13.02-22.26,25.87-44.63,38.42-67.15,1.56-2.8,3.14-5.58,4.74-8.34,7.8-10.7,16.11-20.95,25.18-30.44,4.31-4.5,12.88-4.85,17.13,0,1,1.14,1.88,2.3,2.67,3.48,1.83,29.11,.7,58.37,.14,87.5-.56,28.97,.39,57.73,1.12,86.67,.75,29.57,.45,59.15-.02,88.72-.88,55.03-1.07,110.03-1.09,165.06-1.17,.77-1.93,2.1-1.78,3.99,.53,6.48,.04,13,.3,19.46-.84,1.54-1.83,2.92-2.95,4.13,5.16,6.89,.8,19.68-9.68,19.81-29.02,.38-58.01,.56-86.99-.33-4.16,.51-8.31,1.02-12.47,1.48-3.11,.34-6.23,.67-9.34,.97-18.84-.09-37.68-.63-56.52-.24-19.4,.4-38.79,2.45-58.11-.45Z" style="fill: url(#uuid-74f17f96-51da-4370-9154-c1d1f9de842f); opacity: .25;"/>
  <line x1="196.3" y1="493.51" x2="476.71" y2="493.51" style="fill: none; stroke: #262631; stroke-miterlimit: 10; stroke-width: .75px;"/>
  <line x1="497.3" y1="12.64" x2="497.3" y2="493.51" style="fill: none; stroke: #262631; stroke-miterlimit: 10; stroke-width: .75px;"/>
  <line x1="466.96" y1="5.66" x2="203.64" y2="465.9" style="fill: none; stroke: #262631; stroke-miterlimit: 10; stroke-width: .75px;"/>
</svg>