<?xml version="1.0" encoding="UTF-8"?>
<svg xmlns="http://www.w3.org/2000/svg" width="850.26" height="904.6" viewBox="0 0 850.26 904.6">
  <defs>
    <style>
      .uuid-6f6bc011-b06a-4c4f-b6e0-079698d7550c {
        mix-blend-mode: color-burn;
        opacity: .21;
      }

      .uuid-74681a79-87e7-47e8-abc1-005eefc0944a {
        fill: none;
        stroke: #262631;
        stroke-miterlimit: 10;
      }

      .uuid-3eab909f-8ad8-4cfb-8738-63d0b20cb9b7 {
        isolation: isolate;
      }

      .uuid-ffb45c59-a45b-4c94-b106-b33a9815d606 {
        fill: #4fbbd1;
      }

      .uuid-ffb45c59-a45b-4c94-b106-b33a9815d606, .uuid-3e2f3a26-09e9-47fb-ad7d-c6c1db8b48b4, .uuid-74c70726-e540-429c-9ad8-2e7705d76eaf, .uuid-b8edf4f9-b305-4ed4-9699-01731222a2ce, .uuid-c335ed0e-4142-4f0f-8fef-9a78d139c4a2, .uuid-6b94e180-1a71-4e2f-99e9-69eb2615f82a, .uuid-8a5de32d-af35-4f23-ba33-d0260dd698e7, .uuid-aaa3371f-4634-4123-b602-e8c55dcf1273, .uuid-996ce06c-f9dd-4376-88cd-3b84ede68c47 {
        stroke-width: 0px;
      }

      .uuid-3e2f3a26-09e9-47fb-ad7d-c6c1db8b48b4 {
        fill: #6e9e75;
      }

      .uuid-74c70726-e540-429c-9ad8-2e7705d76eaf {
        fill: #442f34;
      }

      .uuid-b8edf4f9-b305-4ed4-9699-01731222a2ce {
        fill: #12b57b;
      }

      .uuid-c335ed0e-4142-4f0f-8fef-9a78d139c4a2 {
        fill: #b07e09;
      }

      .uuid-6b94e180-1a71-4e2f-99e9-69eb2615f82a {
        fill: #c40000;
      }

      .uuid-8a5de32d-af35-4f23-ba33-d0260dd698e7 {
        fill: #969f3c;
      }

      .uuid-aaa3371f-4634-4123-b602-e8c55dcf1273 {
        fill: #fbb099;
      }

      .uuid-996ce06c-f9dd-4376-88cd-3b84ede68c47 {
        fill: #f78248;
      }
    </style>
  </defs>
  <g class="uuid-3eab909f-8ad8-4cfb-8738-63d0b20cb9b7">
    <g id="uuid-6416d1d4-c68b-4804-a486-13968ad124df" data-name="Calque 2">
      <g id="uuid-4091739a-cbdb-4e00-a085-9f369f1f1a1d" data-name="Calque 4">
        <g>
          <g>
            <path class="uuid-aaa3371f-4634-4123-b602-e8c55dcf1273" d="m743.4,756.81c-.05-.14-.01-.3-.06-.45l-15.48,15.99s-55.85,20.72-68.31,34.56c-12.46,13.84-27.03,16.34-15.79,24.25,5.31,3.73,25.23-1.16,46.53-15.48,21.3-14.33,24.04,3.87,13.13,21.9-19.38,32.04-51.15,38.34-39.26,64.99,8.42,10.93,67.41-24.59,84.9-49.36,17.36-24.59,21.19-31.75,29.6-43.95,4.32-7.11-24.55-20.62-35.27-52.45Z"/>
            <path class="uuid-aaa3371f-4634-4123-b602-e8c55dcf1273" d="m70.08,731.28c.09.12.06-.3.13-.43l13.43,9.63s51.03,36.4,61.04,52.1c10,15.71,13.41,22.35,9.38,25.87-10.37,9.03-22.66-2.71-41.31-20.35-18.65-17.64-20.86-1.2-16.57,19.44,4.29,20.64,49.25,51.4,28.01,70.58-10.11,9.39-73.54-40.27-83.49-68.91-10.5-30.21-18.51-45.7-19.34-58.53.15-3.53-2.71-14.02-2.76-14.34-3.86-22.15,36.01-36.26,51.48-15.05Z"/>
            <path class="uuid-ffb45c59-a45b-4c94-b106-b33a9815d606" d="m205.67,257.33c-57.7,20.74-115.34,79.58-155.94,146.55-17.94,29.58-18.17,34.01-35.03,60.85-35.2,56.03,3.91,281.6,3.91,281.6l55.78-12.5c-11.64-67.28-14.49-175.92,23.73-223.05,38.04-46.92,79.83-84.09,107.77-87.37,11.73,11.99,21.23,24.58,31.06,33.48,21.07,19.07,37.6,63.21,85.88,67.82,37.65,3.59,50.61-15.25,89.05-21.14,5.96-.91,12.49-1.54,19.86-1.7,54.94-1.18,66.05,16.95,121.22,11.93,15.09-1.37,62.38-30.52,76.62-76.57,2.99-9.68,6.55-16.98,10.49-22.48,0,0,90.6,70.73,114.85,126.06,24.35,55.57,9.01,173.55-27.04,231.53l50.8,36.91s87.97-227.37,68.88-290.73c-6.11-20.28-14.34-41.06-24.28-61.57-27.06-55.82-71.04-105.82-112.92-144.06-25.92-14.22-54.02-28.69-77.17-38.1-12.52-5.09-23.59-8.7-32.06-9.97-44.29-6.64-153.84-64.18-221.38-44.41-24.38,7.14-63.73,15.16-105.57,23.39-15.36,3.02-31.06,6.08-46.48,9.12l.22-1.71c-7.39,1.34-14.82,3.44-22.24,6.11Z"/>
            <g class="uuid-6f6bc011-b06a-4c4f-b6e0-079698d7550c">
              <path class="uuid-6b94e180-1a71-4e2f-99e9-69eb2615f82a" d="m680.53,881.59c-5.39,4.27-11.47,11.33-17.7,17.44.37,1.14.79,2.31,1.34,3.54,8.42,10.93,67.41-24.59,84.9-49.36,17.36-24.59,21.19-31.75,29.6-43.95l-18.36-13.34c-20.41,32.66-46.94,59.64-79.77,85.68Z"/>
              <path class="uuid-6b94e180-1a71-4e2f-99e9-69eb2615f82a" d="m702,803.73c-5.9-3.56-22.15,3.67-27.91,5.9-11.87,4.61-20.83,13.61-30.11,21.64,5.57,3.5,25.26-1.43,46.32-15.59,7.96-5.36,13.33-6.17,16.37-4.14.22-2.9-1.06-5.64-4.66-7.81Z"/>
              <path class="uuid-6b94e180-1a71-4e2f-99e9-69eb2615f82a" d="m778.67,809.26c.18-.29.28-.59.35-.9-.22.57-.35.9-.35.9Z"/>
              <path class="uuid-6b94e180-1a71-4e2f-99e9-69eb2615f82a" d="m112.81,779.81c-23.69-8.17-23.05,1.72-17.4,14.67,2.09-5.5,7.36-5.83,17.34,3.61,17.83,16.87,29.86,28.33,39.94,21.4-9.06-17.24-26.2-34.98-39.87-39.69Z"/>
              <path class="uuid-6b94e180-1a71-4e2f-99e9-69eb2615f82a" d="m63.87,786.52c-7.33-15.79-13.17-31.09-17.67-46.37l-27.6,6.18c.06.32,2.91,10.81,2.76,14.34.83,12.83,8.83,28.32,19.34,58.53,8.71,25.04,58.32,66.17,77.38,69.81-5.5-7.82-11.53-15.69-16.48-22.97-16.59-24.44-25.38-52.91-37.73-79.52Z"/>
              <path class="uuid-6b94e180-1a71-4e2f-99e9-69eb2615f82a" d="m41.38,721.46c-5.77-26.01-7.76-52.47-6.41-81.6,2.72-58.47,5.34-108.28,30.09-162.6,32.18-70.63,94.1-129.77,162.28-166.18,57.46-30.68,115.9-37.16,179.51-46.57,53.89-7.97,130.06-24.14,177.34,11.96,55.38,42.28,113.04,79.42,160,131.6,33.49,37.21,73.7,90.44,76.29,142.38,1.37,27.46-6.57,57.44-9.19,85.04-3.29,34.69-12.53,71.63-24.21,104.56-6.4,18.05-14.06,34.42-22.97,49.56,8.53,9.11,15.78,14.82,14.9,18.74,5.87-15.33,86.93-228.75,68.54-289.83-6.11-20.28-14.34-41.06-24.28-61.57-27.06-55.82-71.04-105.82-112.92-144.06-25.92-14.22-54.02-28.69-77.17-38.1-12.52-5.09-23.59-8.7-32.06-9.97-44.29-6.64-153.83-64.18-221.38-44.41-24.38,7.14-63.73,15.16-105.57,23.39-15.36,3.02-31.06,6.08-46.48,9.12l.22-1.71c-7.39,1.34-14.82,3.44-22.24,6.11-57.7,20.74-115.34,79.58-155.94,146.55-17.94,29.58-18.17,34.01-35.03,60.85-35.2,56.03,3.91,281.6,3.91,281.6-2.16-12.43,9.44-22.33,22.78-24.87Z"/>
              <path class="uuid-6b94e180-1a71-4e2f-99e9-69eb2615f82a" d="m764.12,789.62c-1.25,2.12-2.51,4.23-3.81,6.3l18.36,13.34s.13-.33.35-.9c.88-3.91-6.37-9.63-14.9-18.74Z"/>
              <path class="uuid-6b94e180-1a71-4e2f-99e9-69eb2615f82a" d="m41.38,721.46c-13.34,2.54-24.95,12.44-22.78,24.87l27.6-6.18c-1.83-6.22-3.43-12.44-4.82-18.69Z"/>
            </g>
            <g>
              <g>
                <path class="uuid-74c70726-e540-429c-9ad8-2e7705d76eaf" d="m318.84,264.39s2.55,3.24,4.79-.08c2.24-3.31,4.47-1.47,4.87-24.8.4-23.33,4.61-41.53,7.33-56.55,2.71-15.02,6.82-19.43,12.67-22.53,5.85-3.1,21.39-15.98,33.83-16.55,12.45-.57,13.44,1.13,22.94.23,9.5-.91,24.2-7.38,55.2-1.53,31,5.85,41.69,10.36,48.74,40.9,7.04,30.55,7.85,52.62,4.65,62.86l-3.21,10.24s6.83,4.42,7.11-.06h0c1.16-18.49,2.29-36.96,6.65-55.1,1.78-7.4,7.83-14.04,4.42-22.46-.3.14-.57.27-.86.4.29-.14.55-.26.86-.4.42-.64.65-1.35.68-2.11,8.12-1.85,10.51-7.56,9.52-14.95-1.5-11.21-6.44-22.34.29-33.52,1.21-2.01-.52-3.77-1.53-5.61-9.84-17.91-22.2-33.76-37.91-46.94-2.19-1.83-4.05-4.33-7.46-3.72-4.97-2.04-10.83-1.08-15.37-4.55-.57-.52-1.15-.82-1.76-1.01-8.71-5.26-16.32-13.3-27.78-11.81-27.58,3.59-56.23.88-82.24,13.82-3.9,1.94-9.58-.56-12.13,4.72-5.88,12.15-18.25,21.1-18.01,36.26-4.51,5.43-9.31,10.65-13.47,16.33-6.84,9.35-16.01,18.25-16.83,30.06-1.3,18.73-1.83,37.65,2.69,56.09,1.05,2.04,1.87,4.1,2.27,6.13,2.71,13.75,9.07,46.23,9.07,46.23Zm175.47-190.53c-.58-.52-1.14-1.04-1.71-1.57.56.53,1.13,1.05,1.71,1.57Z"/>
                <path class="uuid-aaa3371f-4634-4123-b602-e8c55dcf1273" d="m517.75,256.52h0c-.28,4.48-7.11.06-7.11.06l3.21-10.24c3.21-10.24,2.4-32.31-4.65-62.86-7.04-30.55-17.74-35.06-48.74-40.9-31-5.85-45.7.62-55.2,1.53-9.5.91-10.49-.8-22.94-.23-12.45.57-27.99,13.45-33.83,16.55-5.85,3.1-9.96,7.51-12.67,22.53-2.71,15.02-6.93,33.23-7.33,56.55-.4,23.33-2.63,21.48-4.87,24.8-2.24,3.31-4.79.08-4.79.08,0,0-6.36-32.48-9.07-46.23-.4-2.03-1.22-4.09-2.27-6.13.57,2.31,1.2,4.62,1.93,6.91.45,5.29.8,11.02.58,14.62-.49,8.13-1.76,27.29,2.44,32.75,4.21,5.46,2.72,16.42,7.94,17.32,5.22.9,8.32-.13,8.32-.13,0,0,.51,42.92,10.28,56.04,9.77,13.12,24.73,39.12,38.19,46.61,13.46,7.49,15.76,21.82,28.05,22.25,12.3.43,34.19-.55,40.31-.64,6.11-.1,25.69-26.06,27.3-29.5,1.61-3.44,1.76-6.98,8.95-13.13,7.19-6.15,25.37-38.8,26.43-53.07.34-4.61,3.42-1.33,5.5-4.7,2.08-3.36,8.7-17.12,7.55-25.02-1.15-7.9.75-18.33-3.53-25.8Z"/>
                <path class="uuid-74c70726-e540-429c-9ad8-2e7705d76eaf" d="m394.4,23.37c7.67-12.7,16.26-13.86,19.65-20.95,3.39-7.09,34.78,3.26,41.87,6.66,7.09,3.39,22.6,14.92,30.92,26.84,8.32,11.93-1.6,49.32-9.06,45.6-7.46-3.72-57.34,7.62-69.51,1.63-12.16-6-29.16-14.08-30.67-25.99-1.5-11.91,8.68-20.37,16.78-33.8Z"/>
              </g>
              <g class="uuid-6f6bc011-b06a-4c4f-b6e0-079698d7550c">
                <path class="uuid-6b94e180-1a71-4e2f-99e9-69eb2615f82a" d="m539.03,161.9c-1.5-11.21-6.44-22.34.29-33.52,1.21-2.01-.52-3.77-1.53-5.61-9.84-17.91-22.2-33.76-37.91-46.94-2.19-1.83-4.05-4.33-7.46-3.72-1.87-.77-3.87-1.11-5.87-1.43-2.44,7.31-5.79,12.33-8.75,10.85-7.46-3.72-57.34,7.62-69.51,1.63-10.09-4.97-23.49-11.38-28.63-20.22-4.87,1.45-9.67,3.27-14.38,5.62-3.9,1.94-9.58-.56-12.13,4.72-5.88,12.15-18.25,21.1-18.01,36.26-4.51,5.43-9.31,10.65-13.47,16.33-6.84,9.35-16.01,18.25-16.83,30.06-1.1,15.81-1.63,31.75.94,47.42,4.19-8.99,7.86-18.68,12.61-25.91,11.37-17.35,27.66-29.66,44.13-41.65,38.65-28.13,91.3-21.79,132.79-.86,15.97,8.05,31.15,21.27,42.11,36.96,1.72-2.65,2.16-6.09,1.64-10Zm-46.43-89.61c.56.53,1.13,1.05,1.71,1.57-.58-.52-1.14-1.04-1.71-1.57Z"/>
                <path class="uuid-6b94e180-1a71-4e2f-99e9-69eb2615f82a" d="m433.25,24.43c19.39,1.24,39.05,8.5,56.3,19.11-.48-3.02-1.34-5.66-2.7-7.61-8.32-11.93-23.84-23.45-30.92-26.84s-38.48-13.75-41.87-6.66c-3.39,7.09-11.98,8.24-19.65,20.95-3.29,5.45-6.91,10.08-9.97,14.45,15.52-6.84,31.43-14.5,48.82-13.39Z"/>
                <path class="uuid-6b94e180-1a71-4e2f-99e9-69eb2615f82a" d="m408.28,83.16c12.16,6,62.04-5.34,69.51-1.63,2.96,1.48,6.31-3.54,8.75-10.85-3.32-.52-6.67-.96-9.5-3.13-.57-.52-1.15-.82-1.76-1.01-8.71-5.26-16.32-13.3-27.78-11.81-22.58,2.94-45.88,1.66-67.86,8.2,5.14,8.83,18.55,15.24,28.63,20.22Z"/>
              </g>
            </g>
          </g>
          <path class="uuid-8a5de32d-af35-4f23-ba33-d0260dd698e7" d="m377.26,716.1c-5.81.48-11.57,1.39-17.24,2.7,1.94-3.23,5.02-5.74,7.96-8.13,4.31-3.5,8.83-7.07,11.24-12.22.61-1.3.2-3.18-1.43-3.51-8.04-1.66-15.93-3.94-23.64-6.75,4.26-4.4,8.84-8.5,13.75-12.17,2.03-1.52.96-5.19-1.84-4.37-4.77,1.39-9.63,2.33-14.55,2.84,2.94-6.2,7.67-11.42,13.58-14.97,1.53-.92,1.57-3.22,0-4.13-3.87-2.23-8.03-3.69-12.39-4.41,2.63-5.68,7.79-9.92,13.94-11.42,1.93-.47,2.42-3.45.57-4.37-5.21-2.61-10.43-5.2-15.64-7.83-.24-.12-1.19-.43-1.28-.66-.04-.09.16-.19.39-.52.48-.69.92-1.35,1.5-1.97,1.19-1.27,2.56-2.29,4.02-3.23,5.92-3.79,13.23-6.37,16.58-13.03.73-1.46-.13-3.8-2.06-3.6-3.7.38-7.37.98-10.98,1.81,2.05-5.71,5.33-10.86,9.72-15.14,1.47-1.44.38-4.12-1.69-4.08-4.29.07-8.42,1.58-11.68,4.28.28-7.12-1.78-14.21-5.91-20.03-1.02-1.44-4.07-1.68-4.37.57-1.39,10.25-2.11,20.55-2.18,30.88-3-2.85-5.99-5.7-8.99-8.54-1.95-1.86-5.13.5-3.76,2.9,1.97,3.43,3.94,6.86,5.9,10.29,1.05,1.83,2.1,3.66,3.15,5.49.39.69.79,1.37,1.18,2.06.18.31,1.38,1.92,1.29,2.23-.19.66-2.84.54-3.37.54-1.73.01-3.43-.17-5.11-.56-2.23-.52-4.38-1.38-6.36-2.53-.93-.67-1.88-1.33-2.85-1.95-2.24-1.43-5.06,2.07-2.9,3.76.16.13.33.24.49.36,0,0,0,0,0,.01.13.08.24.17.37.26.36.26.73.52,1.1.77,4.41,3.02,8.39,6.6,11.81,10.73,1.94,2.34,3.89,4.93,5.22,7.68.3.63.61,1.34.79,2.08-5.38-.44-10.77-.03-16.01,1.26-.51-.04-1.02-.06-1.53-.03-2.54.18-5.31,1.51-5.65,4.31-.37,3.1,2.37,4.97,5.04,5.62.18.04.37.06.55.1,1.68,1.17,3.52,2.14,5.36,3.08,3.01,1.53,8.73,3.93,8.74,8.06,0,2.6-5.7,1.55-7.38,1.4-3.14-.29-6.25-.85-9.37-1.26-5.98-.78-12.02-.87-17.4,2.23-1.25.72-1.67,2.75-.48,3.76,4.37,3.72,9.71,5.37,14.98,7.37,5.27,2,10.22,4.92,14.46,8.65,2.11,1.85,4.08,3.88,5.83,6.08.71.89,1.45,1.84,1.82,2.93.5,1.46.03,1.81-1.4,2.13-.51.11-1.03.2-1.55.29-1.76-1.02-3.62-1.88-5.58-2.44-5.03-1.45-10.41-.69-14.48,2.68-1.33,1.11-.64,3.68,1.06,4,3.87.71,7.79,1.12,11.73,1.07,2.08-.02,4.31-.1,6.49-.36,1.96,1.25,3.7,2.7,5.03,4.08,1.26,1.32,2.16,2.87.2,3.93-1.78.97-4,1.38-5.93,1.96-4.58,1.38-9.18,2.7-13.79,3.95-2.51.68-2.12,5.01.64,4.7,6.71-.76,15.85-1.74,20.36,4.35-2.85,4.67-6.49,8.82-10.86,12.14-2,1.52-4.85,2.77-5.77,5.3-.89,2.46.45,4.78,2.78,5.74,2.5,1.04,5.68,1.05,8.34,1.26,3.2.26,6.4.24,9.57-.32.8-.14,1.57-.33,2.32-.56.19.96.42,1.91.62,2.82.61,2.85,1.25,5.69,1.98,8.51,1.35,5.2,3.09,10.3,5.4,15.15-.24,1.11.21,2.34,1.64,2.68.2.05.4.09.6.14,2.09.49,3.66-1.64,2.7-3.51-2.47-4.82-4.19-9.94-5.58-15.17-.69-2.63-1.31-5.28-1.89-7.93-.31-1.43-.86-3.06-1-4.64,3.18-1.79,6-4.23,8.73-6.77,5.68-5.28,11.04-10.89,16.06-16.8,1.21-1.42.55-4.27-1.69-4.08Zm-51.36-71.09c-.21-.17-.4-.34-.6-.52.16-.05.32-.08.49-.13.05,0,.09,0,.14.02.94.2,1.87.51,2.78.86-.94-.02-1.88-.08-2.8-.23Z"/>
          <g>
            <path class="uuid-74681a79-87e7-47e8-abc1-005eefc0944a" d="m360.62,773.34c-4.47-6.9-5.74-18.28-7.55-26.48-3.83-17.27-5.83-33.8-7.34-51.39-2.23-25.95.21-52.25,4.68-77.66,1.13-6.4,5.98-18.73,4.9-23.01"/>
            <path class="uuid-74681a79-87e7-47e8-abc1-005eefc0944a" d="m347.6,604.56c-4.5-4.35-13.7-11.74-20.06-11.13,2.34,6.97,10.85,13.52,15.07,19.6-4.2,2.92-20.38-1.64-24.77-4.09,7.4,9.59,20.84,16.94,25.25,28.52-6.08,1.43-12.84.44-19.19,1.48-4.44.73-8.49,2.86-13.06,2.75,9.85,2.59,20.47,11.56,27.84,18.17-10.52-.92-27.92-4.37-37.1,3.1,10.08,10.11,37.18,12.86,42.19,28.17-8.83,3.12-20.81-2.92-29.14,3.63,8.53,5.46,23.08,3.45,30.63,10.64-8.22,6.93-22,4.11-30.72,11.28,5.15.64,29.19.74,30.73,7.15,1.13,4.7-16.21,13.75-19.5,17.49,6.51,6.02,18.01,1.22,25.92,4.76-.36.73-1.73,3.45-.74,2.38"/>
            <path class="uuid-74681a79-87e7-47e8-abc1-005eefc0944a" d="m351.1,747.39c1.47-8.6,16.92-22.6,22.62-29.56-7.45,1.72-16.79,4.32-24.42,3.45,9.17-3.91,26.87-15.71,30.84-24.99-9.54-4.28-21.25-1.93-30.77-8.35,8.22-3.86,15.35-8.6,22.4-14.65-7.24-2.28-15.3,5.76-23.09,1.74,1.36-4.93,8.47-8.12,12.48-11.5,5.33-4.49,10.73-6.95,2.86-10.55-4.36-1.99-17.35.2-11.49-7.36,3.79-4.89,15.65-5.15,20.79-8.75-6.79-5.58-16.21-4.44-24.31-6.78,1.15-11.55,22.59-17.73,28.32-27.46-6.47-.15-13.77,2.38-20.17,3.82,2.55-6.96,12.69-12.78,16.73-19.24-8.62-2.69-15.54,3.35-21.9,8.24"/>
            <path class="uuid-74681a79-87e7-47e8-abc1-005eefc0944a" d="m346.77,598.54c-1.21-5.3-3.02-25.33,1.02-28.93,6.56-5.85,8.74,24.03,9.23,28.65"/>
          </g>
          <path class="uuid-3e2f3a26-09e9-47fb-ad7d-c6c1db8b48b4" d="m188.91,662.6c-1.1-21.89-4.14-48.06-20.51-64.19-.95-.94-1.95-1.57-2.95-1.96-2.77-3.07-7.68-4.36-11.56-.69-1.13,1.07-2.23,2.16-3.3,3.27-.78-.08-1.57-.11-2.39,0-5.38.68-8.46,5.82-11.05,9.99-6.16,9.93-10.6,21.24-12.85,32.7-3.52,17.94-3.33,41.14,5.66,58.58,1.31,3.57,2.82,7.05,4.56,10.23,3.73,7.82,8.85,16.15,15.25,19.06,10.71,4.87,20.28-10.53,24.64-18.11,1.82-3.16,3.35-6.45,4.67-9.81.7-1.15,1.35-2.26,1.95-3.29,6.34-11.03,8.53-23.16,7.89-35.78Z"/>
          <path class="uuid-c335ed0e-4142-4f0f-8fef-9a78d139c4a2" d="m280,671.9c-.28-.06-.56-.08-.85-.11,1.38-6.04.36-13.27-1.9-17.97-.64-1.32-1.72-2.29-2.98-2.94,2.05-1.2,3.82-2.96,4.99-4.99,2.45-4.24,2.41-9.64-.03-13.86-.58-1-1.4-1.84-2.35-2.48-.93-1.04-2.15-1.82-3.64-2.12-6.15-1.21-12.11,2.08-13.92,8.24-.37,1.25-.55,2.67-.54,4.14-.44-.93-1.05-1.79-1.79-2.51-.63-1.46-1.7-2.75-3.19-3.67-4.01-2.47-9.14-1.89-12.77.92-.43.33-.83.7-1.2,1.09-.01-.34,0-.69-.05-1.03-.24-2.2-1.12-4.24-2.55-5.7.71-.94,1.26-1.96,1.61-3.03.22.05.43.11.65.15,1.41.62,2.95.97,4.57.87,5.36-.33,9.1-4.19,10.21-9.31,1.05-4.83-1.94-9.43-6.82-10.02-1.67-1.2-3.77-1.81-5.91-1.52-4.58.62-7.88,4.65-8.4,9.07-.09.21-.17.42-.25.63-2.59-.53-5.44.04-7.11,2.13-5.01,6.27-9.33,16.25-5.15,24.09,1.25,2.34,3.31,4.08,5.69,4.95-1.54,1.11-2.7,2.7-3.2,4.5-2.47,2.39-3.97,5.5-4.26,9.1-.36,4.38,1.92,8.63,5.69,10.44-1.9.63-3.72,1.81-4.68,3.63-.27.63-.54,1.27-.8,1.9-.38,1.41-.38,2.83,0,4.24.27,1.7,1.36,3.27,2.44,4.54.68.8,1.53,1.46,2.43,1.99,2.42,1.41,5.6,1.88,8.26.97,6.28-2.15,9-9.33,5.83-15.14-.7-1.28-1.96-2.4-3.33-3.1,5.15-3.83,5.71-12.69,3.84-18.75-.65-2.12-2.2-3.93-4.14-4.97.86-.49,1.6-1.11,2.26-1.8.14,1.44.57,2.87,1.33,4.22,1.88,3.29,5.24,5.43,8.88,5.84-.79,2.09-1.03,4.43-.51,6.87.88,4.1,4.03,7.23,8.01,8.36,1.98.57,4.29.46,6.24-.12.35-.1.64-.26.96-.4-1.6,1.94-1.98,4.67-1.42,7.08.03.13.06.26.09.38.44,1.88,1.88,3.64,3.66,4.74-1.1,1.38-1.87,3.31-1.79,5.02.17,3.89,3.54,8.51,7.97,7.97,4.03-.49,7.36-1.7,10.44-4.4,2.43-2.13,4.24-5.2,5.03-8.32,1.01-4.04-1.3-8.83-5.57-9.8Zm-20.95-26.01c.14-.54.25-1.1.33-1.66.15.57.34,1.13.55,1.67-.3,0-.59-.02-.88,0Z"/>
          <path class="uuid-c335ed0e-4142-4f0f-8fef-9a78d139c4a2" d="m280.35,591.84c-3.65-1.93-8.87-1.1-10.9,2.86-.05.11-.26.39-.39.62-.03.02-.07.04-.1.06-.14.02-.33.06-.48.09-3.94-.57-8.31,1.44-9.27,5.63-.91,3.99,1.2,8.89,5.57,9.8,7.17,1.5,14.96-1.42,18.43-8.16,1.91-3.7,1.08-8.82-2.86-10.9Z"/>
          <path class="uuid-c335ed0e-4142-4f0f-8fef-9a78d139c4a2" d="m282.29,700.78c-1.05-1.29-3.13-2.09-4.86-2.29-2.65-1.57-5.91-1.58-8.76-.15-2.31,1.16-4.01,3.48-4.78,5.91-1.53,4.79,1.08,10.17,5.25,12.68,4.51,2.72,10.41,1.59,13.6-2.54,1.44-1.87,2.34-4.01,2.38-6.42.04-2.86-1.08-5.05-2.83-7.2Z"/>
          <g>
            <path class="uuid-74681a79-87e7-47e8-abc1-005eefc0944a" d="m255.28,779.49c-1.43-25.35-4.27-50.75-5.52-76.48-.22-4.53-2.05-10.28-.81-15.02,1.89-7.19,9.63-7.68,11.85-13.37,2.01-5.16-.62-11.51,1.96-16.94,3.06-6.45,10.12-10,15.6-3.73,3.92,4.49,2.32,12.75-.8,17.55-4.28,6.55-8.65,5.48-15.97,5.48"/>
            <path class="uuid-74681a79-87e7-47e8-abc1-005eefc0944a" d="m252.91,704.57c2.36,2.34,5.88,1.59,9.3,1.48,3.7-10.82,21.78-16.01,22.89-.51,1.28,17.85-27.02,10.11-21.15-2.54"/>
            <path class="uuid-74681a79-87e7-47e8-abc1-005eefc0944a" d="m263.96,679.33c-4,9.39,4.25,16.29,13.41,13.02,7.83-2.8,14.1-19.13,2.37-20.91"/>
            <path class="uuid-74681a79-87e7-47e8-abc1-005eefc0944a" d="m261.59,687.22c-4.31,1.06-8.6,2.19-12.62,4.73"/>
            <path class="uuid-74681a79-87e7-47e8-abc1-005eefc0944a" d="m249.76,686.43c-2.77-5.77-4.18-16.25-3.94-22.87.4-11.06,10.52-10.59,14.22-18.89,5.11-11.48-9.52-15.76-17.41-10.33-10.57,7.26-7.55,17.68,4.77,18.18"/>
            <path class="uuid-74681a79-87e7-47e8-abc1-005eefc0944a" d="m256.86,647.78c3.61-1.86,10.42.44,9.46,3.94"/>
            <path class="uuid-74681a79-87e7-47e8-abc1-005eefc0944a" d="m242.66,654.88c-2.3,4.5,2.09,10.34,6.09,12.84,3.04,1.9,11.91,3.2,10.47.57"/>
            <path class="uuid-74681a79-87e7-47e8-abc1-005eefc0944a" d="m252.13,670.65c-.55,2.47-2.67,7.94-4.73,11.04"/>
            <path class="uuid-74681a79-87e7-47e8-abc1-005eefc0944a" d="m245.03,672.23c-8.03-3.29-35.41-1.95-22.1,12.66,3.4,3.73,10.33,3.64,14.02-.22,4.45-4.66,1.56-10.28-1.52-15.49-6.16.52-10.92,3.01-15.19-3.63-3.94-6.14-.51-14.2,5.07-18.17,12.64-8.99,19.02,11.09,9.7,19.67,2.55-2.39,6-2.08,8.44-.34"/>
            <path class="uuid-74681a79-87e7-47e8-abc1-005eefc0944a" d="m226.89,641.47c-.77.62-1.54,1.19-2.36,1.67-6.8-7.78-5.09-26.54,7.39-27.7,12.64-1.18,11.28,20.92,6.01,19.72"/>
            <path class="uuid-74681a79-87e7-47e8-abc1-005eefc0944a" d="m261.59,633.59c4.55-7.16,16.23-9.31,20.5-.83,3.69,7.32-5,20.36-12.62,17.39"/>
            <path class="uuid-74681a79-87e7-47e8-abc1-005eefc0944a" d="m254.49,629.64c1.31-4.21,4.14-16.46,8.68-18.65,2.69-1.3,8.24,1.99,12.25.44,2.9-1.12,6.47-4.19,7.28-7.2,7.18-26.6-39.17,1.03-17.96,5.7"/>
            <path class="uuid-74681a79-87e7-47e8-abc1-005eefc0944a" d="m233.99,610.71c4.6-11.53,24.94-2.64,21.29,2.37"/>
            <path class="uuid-74681a79-87e7-47e8-abc1-005eefc0944a" d="m244.24,628.07c5.61-.37,12.91-10.39,10.25-14.98"/>
          </g>
          <g>
            <path class="uuid-74681a79-87e7-47e8-abc1-005eefc0944a" d="m159.45,591.17c-7.62.68-17.23,14.29-21.57,19.81-10.65,13.57-15.51,28.59-17.02,45.58-2.26,25.42,8.01,56.74,28.75,72.99-.7.06-.82-.29-1.42-.57"/>
            <path class="uuid-74681a79-87e7-47e8-abc1-005eefc0944a" d="m159.99,590.63c29.6,28.46,39.5,87.46,13.18,121.69-5.61,7.3-12.91,17.85-22.75,19.41-.83,16.16-3.49,32.49-3.27,48.52-.66-.46-.33-.82-.56-1.42"/>
            <path class="uuid-74681a79-87e7-47e8-abc1-005eefc0944a" d="m156.77,600.82c0,37.21-4.77,74.28-6.97,110.99-.23,3.79.64,16.61-1.07,18.23"/>
            <path class="uuid-74681a79-87e7-47e8-abc1-005eefc0944a" d="m141.76,638.36c4.64,6.34,8.82,16.53,12.03,23.97,3.3-4.28,9.4-9.12,12.09-12.71"/>
            <path class="uuid-74681a79-87e7-47e8-abc1-005eefc0944a" d="m138.01,678.57c2.31,5.32,8.13,12.38,11.92,16.94,4.49-2.94,8-9.12,10.83-13.5,3.38-5.24,7.19-8.94,11.57-13.09"/>
            <path class="uuid-74681a79-87e7-47e8-abc1-005eefc0944a" d="m150.87,716.64c3.97-2.68,10.36-6.35,13.41-10.19"/>
            <path class="uuid-74681a79-87e7-47e8-abc1-005eefc0944a" d="m162.13,609.94c-2.3,2.66-4.28,6.46-5.9,9.65"/>
            <path class="uuid-74681a79-87e7-47e8-abc1-005eefc0944a" d="m150.34,620.12c1.45,3.36,3.3,7.42,4.83,10.19"/>
          </g>
          <path class="uuid-996ce06c-f9dd-4376-88cd-3b84ede68c47" d="m716.21,639.16c1.32-1.13.65-3.66-1.06-4-4.28-.85-8.61-.48-12.73.95-4.16,1.44-7.6,3.95-11.42,6.04-3.47,1.9-7.28,2.47-10.44-.35-3.21-2.86-3.79-7.39-2.94-11.4.54-2.56-2.99-4.31-4.37-1.84-.51.92-1.07,1.8-1.66,2.65,1.55-7.49,4.48-14.65,8.6-21.16,1.28-2.02-1.26-4.51-3.27-3.27-6.75,4.17-13.16,8.9-19.11,14.15-2.9,2.56-5.69,5.24-8.35,8.04-.51.53-3.14,4.11-4.04,3.88-.65-.17-.3-2.85-.25-3.3.25-2.34-3.46-3.28-4.46-1.21-.31.64-1.09.52-1.68.06-1.12-.87-1.3-3-1.47-4.29-.35-2.66-3.69-3.27-4.7-.64-.19.51-.65,2.05-1.3,2.22-.04.01-.16.04-.19.07-.13-.26-.11-1.42-.12-1.59-.15-2.36-.18-4.72-.09-7.08.09-2.37.31-4.72.66-7.05,1.23-2.48,1.95-5.14,1.4-8.31-.41-2.38-4.06-2.18-4.61,0-.6,2.4-1.08,4.84-1.46,7.29-.45.8-.94,1.57-1.41,2.3-1.88,2.89-3.93,5.69-5.07,8.98-.49,1.42-.64,2.91-1.03,4.35-.22.8-.29,1.79-.99,1.45-.98-.48-1.67-2.06-2.46-2.82-1.1-1.06-2.43-1.74-3.98-1.68-1.4.05-2.24,1.06-2.39,2.39-.33,2.98-1.26,5.79-2.65,8.38-.63-.96-1.16-1.98-1.56-3.08-.88-2.38-4.8-2.24-4.7.64.03.92-.11,1.77-.35,2.57-.78-1.66-1.56-3.33-2.34-4.99-.98-2.1-4.69-1.12-4.46,1.21.05.53.05,1.04,0,1.52-1.79-4.55-2.97-9.33-3.46-14.21-.25-2.43-4.31-3.53-4.7-.64-.8,5.92-1.6,11.84-2.4,17.76-.25,1.84-.16,5.12-2.25,5.94-1.9.74-4.4-.26-6.17-.92-1.37-.51-3.18.83-3.03,2.31.17,1.67-1.31,2.69-2.89,2.81-2.14.16-4-1.64-5.31-3.11-3.1-3.47-5.15-7.82-9.59-9.86-2.15-.99-4.42,1.04-3.27,3.27,3.63,7.02,7.14,14.11,10.51,21.26,1.66,3.52,3.29,7.05,4.88,10.59.11.24.72,1.46,1.09,2.45-.83-1.02-1.76-1.97-2.79-2.81-1.65-1.33-4.91-.16-4,2.33.87,2.36,2.51,5.13,4.79,6.2.12.25.24.5.35.75-1.31-.79-2.63-1.39-3.55-1.71-2.69-.9-3.99,2.93-1.84,4.37,1.09.74,2.26,1.28,3.46,1.72.22.18.44.36.65.49-.55.09-1.13.28-1.63.36-3.26.51-6.56.65-9.86.54-2.28-.08-3.38,3.42-1.21,4.46,3.21,1.53,6.52,2.82,9.89,3.9.11.55.41,1.08.95,1.5,13.51,10.21,27.73,19.43,42.54,27.64.57,17.19,1.15,34.39,1.72,51.58.1,3.07,4.86,3.09,4.78,0-.27-11.08-.54-22.16-.81-33.24-.13-5.45-.47-10.93-.38-16.38.04-2.37.74-3.84,2.83-5.01,2.22-1.24,4.62-2.22,6.94-3.23,18.8-8.21,38.76-13.44,58.61-18.38,11.9-2.96,23.81-5.89,35.71-8.83,2.71-.67,1.98-4.56-.64-4.7l-13.33-.71c-.52-.03-3.71,0-3.93-.82-.19-.7,2.44-1.84,2.9-2.13,2.55-1.64,4.91-5.05,2.8-7.95-.97-1.35-2.46-1.8-4.04-1.93-.26-.02-1.6.11-1.82-.1-.42-.39-.05-1.8.04-2.27.3-1.52-.59-2.56-1.7-2.84,6.65-7.68,13.85-14.87,21.57-21.49Z"/>
          <g>
            <path class="uuid-74681a79-87e7-47e8-abc1-005eefc0944a" d="m598.22,711.81c-5.5.81-17.38-11.57-22.76-15.07-8.68-5.65-19.68-10.01-27.47-16.16,4.88-.79,9.81-.51,14.74-.78-1.35-1.08-2.6-2.8-3.97-3.98,1.68.46,2.59-.5,3.93-.61-.68-2.99-2.19-5.95-2.83-8.84,1.05.54,3.52.55,4.6,1.07.4-6.86-4.36-14.71-6.79-20.95s-5.68-12.66-7.88-19.19c4.75,2.83,7.91,8.65,12.34,12.17,6.61,5.26,8.67,5.56,10.76-1.37,3.41,3.11,6.39,2.31,6.53-1.81.43.75,1.87,1.75,2.23,2.23,5.87-7.23,5.24-23.54,6.03-32.41,4.7,7.01.63,18.8,5.94,25.33,1.64-2.3,1.7-5.65,4.01-7.41,1.36,2.19,1.68,4.79,3.53,6.63.81-1.51,2.25-2.5,2.5-4.52.39.88,2.29,3.22,2.7,4.09,1.29-2.01,2.33-7.53,4.26-9,4.62-3.53,2.63,3.61,7.73,1.38,3.67-1.6,6.49-11.25,8.25-14.54,1.88-3.5,3.83-8.73,6.58-11.4.51,6.53-2.16,14.19-2.41,21.03-.05,1.37-1.22,6.32.5,7.29,2.61,1.47,6.41-4.24,8.39-5.67.48,2.97-3.14,5.89-1.14,9.1,1.89-.61,3.82-1.83,5.3-3.35-.43,1.84-.3,3.97.45,5.71,13.75-2.49,21.68-23.1,35.49-25.34-.72,8.82-10.43,15.93-11.77,24.78-1.79,11.82,9.49-2.09,14.63-4.12-1.91,3.5-6.93,9.57-5.25,13.53,1.54-.63,3.04-.67,4.33-1.99-8.52,7.48,5.98,4.44,9.74,3.42,5.93-1.62,17.85-8.22,23.82-5.57-2.56,10.54-20.08,15.04-23.61,25.57,3.19.33,6.48-2.32,9.39-3.58-.69,1.38-5.45,5.54-5.22,7.08.48,3.29,4.38,1.69,6.23,3.22,5.49,4.56-3.77,5.39-6.28,10.85,7.15,2.05,15.97-.37,23.61,1.98-3.1,6.16-22.73,7.63-28.91,9.34-10.61,2.94-21.51,5.26-31.95,8.72-14.37,4.77-28.76,10.16-42.9,15.2-5.41,1.93-5.25,2.47-10.92.47-2.78-.98-7.65-1.84-8.84-3.7"/>
            <path class="uuid-74681a79-87e7-47e8-abc1-005eefc0944a" d="m573.39,675.16c6.28,4.13,14.83,5.6,21.41,10.64,5.24,4.02,14.19,10.48,17.65,15.74-.3-.5-.71-.77-1.22-.96"/>
            <path class="uuid-74681a79-87e7-47e8-abc1-005eefc0944a" d="m592.9,646.78c9.47,13.2,20.27,34.24,20.68,50.66-.12-.83.39-.87.6-1.59"/>
            <path class="uuid-74681a79-87e7-47e8-abc1-005eefc0944a" d="m627.19,646.78c.14,11.08-3.74,23.13-5.98,34-1.32,6.39-1.13,17.67-6.27,22.18,6.52-11.22,14.34-24.32,23.19-34,3.79-4.15,8.09-7.74,12.39-11.28,2-1.65,7.69-5.44,6.82-6.16"/>
            <path class="uuid-74681a79-87e7-47e8-abc1-005eefc0944a" d="m613,701.76c4.24.76,11.69-7.67,15.36-10.49,8.37-6.45,16.84-13.18,26.02-18.5,6.68-3.88,14.19-5.82,21.43-8.41,2.34-.84,4.88-1.68,7.24-2.26,1.87-.46,6.98-.68,5.62-1.13"/>
            <path class="uuid-74681a79-87e7-47e8-abc1-005eefc0944a" d="m612.41,704.72c1.17,9.71-2.89,20.06-2.36,30.3.56,10.97,1.29,22.47.46,33.53-.85-.19-.09-.55-.46-1.17"/>
          </g>
          <path class="uuid-b8edf4f9-b305-4ed4-9699-01731222a2ce" d="m524.46,718.91c-10.03-.96-19.97-2.72-29.72-5.26-4.73-1.23-9.42-2.65-14.05-4.25-1.82-.63-3.76-1.31-5.58-2.19,5.72-1.57,11.43-3.14,17.15-4.71,1.25-.34,2.01-1.7,1.67-2.94-.34-1.25-1.69-2.01-2.94-1.67-.62.17-1.23.34-1.85.51-.22-.07-.45-.1-.69-.07-4.72.63-9.41,1.41-14.08,2.34-.37-.35-.85-.55-1.43-.49,2.43-1.18,4.85-2.38,7.25-3.6,4.21-1.68,8.23-3.81,11.99-6.37.81-.55,1.13-1.34,1.1-2.1,6.07-3.36,12.13-6.72,18.2-10.09,2.7-1.49.3-5.59-2.41-4.13-7.53,4.06-15.17,7.9-22.94,11.48-2.15.99-4.3,1.96-6.47,2.91,1.07-.9,2.14-1.79,3.19-2.71,5.11-4.54,9.93-9.41,14.44-14.55,1.17-.96,2.35-1.9,3.5-2.88,2.2-1.87,5.59-4.11,6.76-7,.68-.44,1.36-.87,2.03-1.31,2.57-1.68.17-5.82-2.41-4.13-.24.16-.48.31-.72.46-.85-.35-1.9-.21-2.66.46-1.9,1.67-3.82,3.32-5.75,4.96-4.83,3.09-9.68,6.14-14.57,9.14,10.32-13.6,20.64-27.21,30.96-40.81,1.41-1.86-1.41-4.71-3.27-3.27-8.28,6.38-15.64,13.68-22.51,21.45.01-.02.03-.04.04-.06,6.8-10.06,13.64-20.1,20.47-30.14,1.3-1.92-1.34-4.69-3.27-3.27-7.73,5.69-12.67,14.02-17.88,21.9-5.6,8.48-11.21,16.96-16.81,25.45,0-.32.02-.64.02-.96,8.73-18.63,16.64-37.65,23.66-57,1.05-2.9-3.57-4.15-4.61-1.27-5.7,15.71-11.99,31.19-18.84,46.43.05-2.86.1-5.72.2-8.57.54-16.66,1.48-33.31,2.82-49.92.76-9.42,1.65-18.83,2.67-28.22.33-3.06-4.45-3.03-4.78,0-2.92,27.01-4.79,54.14-5.59,81.3-.09,3.19-.16,6.38-.23,9.57-.02-.09-.04-.18-.06-.27-3.71-23.91-8.26-47.69-13.67-71.29-.69-3-5.3-1.73-4.61,1.27,4.58,19.99,8.55,40.12,11.91,60.36-.37.39-.6.93-.57,1.62.11,2.39.3,4.77.57,7.14-6.41-15.44-13.97-30.4-22.7-44.67-.94-1.53-3.09-1.34-4.04-.21-1.58-.18-3.27.99-2.56,2.86,8.43,22.02,16.87,44.04,25.3,66.06-.61-.98-1.21-1.97-1.84-2.94-3.58-5.53-7.48-10.85-11.67-15.93-2.21-2.69-4.51-5.31-6.85-7.89-1.98-2.19-3.95-4.64-6.13-6.67-.05-.08-.09-.17-.15-.24-.21-.29-.42-.59-.67-.85-.36-.38-.79-.72-1.24-.98-.31-.18-.66-.32-.99-.45-.17-.07-.34-.12-.52-.16-.32-.1-.64-.11-.95-.04-.32.01-.61.11-.89.28-.28.15-.5.36-.67.62-.21.23-.35.5-.43.81-.14.61-.11,1.3.24,1.84.33.51.82.97,1.43,1.1.08.02.15.05.22.07.02.01.04.02.06.04.12.26.3.5.55.73.02.08.05.15.06.23.07.31.22.58.43.81.17.26.39.47.67.62.06.04.13.06.2.09.07.16.15.32.27.48,9.68,12.85,19.02,25.95,28.06,39.26-2.91-1.3-5.97-2.29-9-3.26-5.71-1.82-11.35-3.85-16.88-6.15-11.16-4.65-21.88-10.37-32.03-16.94-2.59-1.68-4.99,2.46-2.41,4.13,10.1,6.54,20.75,12.18,31.83,16.86,5.56,2.35,11.21,4.45,16.95,6.31,4.51,1.45,9.04,2.8,13.08,5.25-1.68,1.16-3.37,2.31-5.06,3.45-1.19-.48-2.35-.96-3.49-1.39-5.46-2.03-10.93-4.07-16.39-6.1-10.93-4.07-21.86-8.14-32.79-12.21-2.89-1.08-4.13,3.55-1.27,4.61,11.18,4.16,22.35,8.32,33.53,12.48,5.46,2.03,10.93,4.07,16.39,6.1.78.29,1.57.6,2.36.91.12.16.26.3.42.42-.73.38-1.46.76-2.19,1.15-8.39-.49-16.79-1.03-25.18-1.54-3.07-.19-3.06,4.59,0,4.78,5.73.35,11.46.71,17.18,1.06-6.87,3.74-13.75,7.47-20.87,10.73-2.8,1.28-.37,5.4,2.41,4.13,9.39-4.29,18.36-9.42,27.46-14.28-4.85,4.85-9.39,10-13.65,15.39-.11.11-.23.22-.34.32-2.29,2.18-4.55,4.42-6.93,6.51-1.11.97-2.25,1.9-3.48,2.72-.66.44-1.81,1.34-2.75,1.68-1.78-.94-4.44,1.1-3.2,3.35,1.93,3.51,6.61.32,8.8-1.19,2.99-2.07,5.6-4.6,8.23-7.1.24-.22.47-.45.71-.67.53-.19,1.02-.56,1.39-1.05.3-.39.61-.76.91-1.14l12.35-11.75c-3.07,8.72-5.36,17.71-6.74,26.87-.45,3.01,4.15,4.31,4.61,1.27,1.64-10.87,4.52-21.49,8.55-31.68.7,1.53,1.4,3.06,2.1,4.59-.03,8.78-.07,17.55-.1,26.33l-.06,15.36c-.02,4.99.15,10.03-1.43,14.83-.97,2.93,3.65,4.18,4.61,1.27,1.55-4.69,1.58-9.63,1.6-14.52.02-5.38.04-10.77.06-16.15.02-5.59.04-11.18.06-16.77,1.66,3.63,3.33,7.26,4.99,10.89.54,1.17,2.24,1.46,3.27.86,1.21-.71,1.4-2.09.86-3.27-3.03-6.6-6.05-13.2-9.08-19.8,0-1.27,0-2.54.01-3.81,0-1.72-1.49-2.48-2.8-2.28-.15-.33-.31-.67-.46-1,.99-.07,1.98-.17,2.96-.3.05.19.11.39.2.57,5.47,11.73,15.74,20.85,27.91,25.17,2.91,1.03,4.16-3.59,1.27-4.61-9.12-3.24-16.87-9.58-22.08-17.65,1.55.88,3.2,1.62,4.93,2.28,5.02,1.9,10.2,3.46,15.38,4.86,10.63,2.86,21.5,4.77,32.45,5.82,3.06.29,3.04-4.49,0-4.78Z"/>
          <g>
            <path class="uuid-74681a79-87e7-47e8-abc1-005eefc0944a" d="m467.23,659.19c1.24-13.1,11.29-26.57,15.74-38.93,3.81-10.58,7.73-20.67,12.69-30.59-.68,17.12-8.95,32.8-14.8,48.74-2.06,5.6-4.58,10.85-6.95,16.14-1.34,3-2.49,6.27-4.13,9.14-1.1,1.91-1.62,4.69-2.77,3.54"/>
            <path class="uuid-74681a79-87e7-47e8-abc1-005eefc0944a" d="m470.02,666.59c5.4-12.61,16.77-24.66,24.37-36.35,6.08-9.36,12.72-17.95,21.34-24.97-7.12,13.2-16.94,25.62-24.45,38.95-6.28,11.14-13.3,22.9-22.62,31.77,16.83-18.56,29.75-39.91,49.94-55.4-4.06,11.35-12.4,20.33-19.28,29.91-5.07,7.07-10.05,14.42-16.22,20.52-4.9,4.84-10.75,8.78-14.9,14.29,9.71-5.88,17.76-14.67,27.32-20.95,7.79-5.12,15.53-9.88,22.7-15.84-12.86,21.01-33.08,34-53.89,45.78,18.78-8.03,38.67-17.27,55.97-28.23-7.81,9.72-18.77,17.2-29.41,23.71-8.47,5.18-17.78,7.31-26.15,12.08,19.75-4.14,39.71-7.66,59.14-13.37-5.14,6.31-22.21,6.9-29.88,9.31-9.76,3.07-19.22,7.77-29.13,9.98,10.84,1.01,22.66-2.48,33.75-2.26,10.22.2,20.22,2.1,29.88,5.1-3.98-.22-8.95-1.97-13.45-2.29-5.43-.38-10.83-.29-16.31-.48-11.62-.4-24.92,2.33-36.24.22,12.56-.72,26.51,3.62,38.68,6.28,11.16,2.44,22.89,4.73,33.5,8.42-12.54-.14-25.48-.02-37.98-2.55-10.71-2.16-20.57-7.48-31.18-9.29,6.34,10.78,22.63,18.23,33.84,22.39-9-11.99-27.62-14.76-37.96-25.87-.24,11.33,7.13,22.18,12.35,31.86-1.14-11.31-5.36-22.91-13.24-31.38-3.37,5.07-4.55,12.08-6.48,17.89-1.88,5.65-4.99,10.86-7.03,16.42,4.08-13.01,7.76-26.25,11.49-39.04-8.22,9.67-19.18,21.93-30.51,28.14,10.36-9.5,15.25-22.61,27.39-30.68-12.73,13.26-36.24,19.92-53.19,25.96,9.46-3.97,17.95-10.07,27.63-13.75s19.31-6,28.66-9.7c-7.97-3.75-24.51.3-33.2.59-10.65.35-20.54.09-30.65-2.17,10.59-1.33,22.48.18,33.38-.19,10.43-.36,23.78,2.18,33.64.04-3.24-3.13-9.69-4.04-13.94-5.27-7.8-2.27-15.35-5.11-22.94-7.96-10.78-4.04-22.03-7.14-32.75-10.49,10.78,5.63,21.99,8.67,33.91,11.3,10.67,2.35,23.66,7.62,34.49,7.64-3.32-8.74-25.34-15.33-33.33-18.65-10.73-4.45-22.29-9.16-31.09-16.84,19.57,11,41.58,18.11,62.26,26.9-4.39-9.23-14.17-16.73-20.61-24.65-6.63-8.15-13.45-19.27-22.29-25.16"/>
            <path class="uuid-74681a79-87e7-47e8-abc1-005eefc0944a" d="m415.55,637.11c20.71,7.58,32.67,26.54,45.69,42.69-10.83-25.64-24.5-50.95-34.75-76.43,8.64,1.13,19.75,22.71,23.47,30.35,4.42,9.06,6.54,21.29,12.96,29.21-2.73-17.37-6.58-34.94-9.59-52.32-1.37-7.91-8.73-26.88-5.52-33.72,8.97,12.25,9.54,30.91,12.68,45.62,2.27,10.6,6.19,21.25,8.02,31.87,2.79-18.95-1.08-39.77.33-58.97.88-12.01.43-29.42,6.74-39.63,2.18,11.89-2.41,26.8-2.62,38.98-.22,12.87.46,26.49-.96,39.47-.38,3.52-1.87,19.73-3.35,19.99"/>
            <path class="uuid-74681a79-87e7-47e8-abc1-005eefc0944a" d="m460.41,712.89c3.6,8.49.2,22.47-.11,31.48-.23,6.73,3.16,22.25-.09,27.39"/>
          </g>
        </g>
      </g>
    </g>
  </g>
</svg>