<?xml version="1.0" encoding="UTF-8"?>
<svg xmlns="http://www.w3.org/2000/svg" width="506.63" height="1014.96" viewBox="0 0 506.63 1014.96">
  <defs>
    <style>
      .uuid-655187fb-7a73-43de-89ec-2f71e5a1d53d {
        stroke-width: 3px;
      }

      .uuid-655187fb-7a73-43de-89ec-2f71e5a1d53d, .uuid-267230c0-5ece-4c28-8325-43e28769f4bc, .uuid-a5583acc-25be-4eae-884b-2fab5f041536, .uuid-6a3f42ce-b277-435c-b567-70537c291ed9 {
        fill: none;
        stroke: #262631;
        stroke-miterlimit: 10;
      }

      .uuid-640a47bc-e75e-4338-962a-45c3312a4d7e, .uuid-c968877d-5323-4258-88d6-7e588dd06c20 {
        mix-blend-mode: color-burn;
        opacity: .19;
      }

      .uuid-267230c0-5ece-4c28-8325-43e28769f4bc {
        stroke-width: 2px;
      }

      .uuid-a5583acc-25be-4eae-884b-2fab5f041536 {
        stroke-width: 4px;
      }

      .uuid-d5ce3d39-8c9e-4168-a043-62e1ea2c0d7f, .uuid-c968877d-5323-4258-88d6-7e588dd06c20, .uuid-2b9cf641-f676-48c7-9a82-6e5b77fb8baa, .uuid-f9a0726a-3f98-44cc-aea6-98938e80396b, .uuid-eb062147-25b7-47d6-88fd-5d5baa08b56d, .uuid-f6fd8d34-79ee-43e2-ae88-415b6382082b, .uuid-a577115a-5f5a-4dd3-9308-077f1be61cca, .uuid-4deae081-a57d-4a34-b2d3-99b199d521f4, .uuid-1100fa27-e19d-453d-ade9-55461230be42, .uuid-b9fb11ac-b50e-4270-9244-08c71925e235, .uuid-1da1494f-d690-44f6-a222-22e5e2bf5481 {
        stroke-width: 0px;
      }

      .uuid-5f5736d5-3ed1-4a1c-8c07-b01ff1d84da9 {
        isolation: isolate;
      }

      .uuid-c968877d-5323-4258-88d6-7e588dd06c20, .uuid-a577115a-5f5a-4dd3-9308-077f1be61cca {
        fill: #c40000;
      }

      .uuid-2b9cf641-f676-48c7-9a82-6e5b77fb8baa {
        fill: #8a7474;
      }

      .uuid-f9a0726a-3f98-44cc-aea6-98938e80396b {
        fill: #457989;
      }

      .uuid-eb062147-25b7-47d6-88fd-5d5baa08b56d {
        fill: #262631;
      }

      .uuid-f6fd8d34-79ee-43e2-ae88-415b6382082b {
        fill: #dedede;
      }

      .uuid-4deae081-a57d-4a34-b2d3-99b199d521f4 {
        fill: #7d97a8;
      }

      .uuid-1100fa27-e19d-453d-ade9-55461230be42 {
        fill: #fff;
      }

      .uuid-b9fb11ac-b50e-4270-9244-08c71925e235 {
        fill: #e85158;
      }

      .uuid-1da1494f-d690-44f6-a222-22e5e2bf5481 {
        fill: #fbf6c1;
      }
    </style>
  </defs>
  <g class="uuid-5f5736d5-3ed1-4a1c-8c07-b01ff1d84da9">
    <g id="uuid-5420c1df-1d2e-436a-ad20-3bf32e89f4b0" data-name="Calque 2">
      <g id="uuid-7580ae2f-d0e3-43ab-9dc1-c8470d03a5d7" data-name="Calque 4">
        <g>
          <path class="uuid-4deae081-a57d-4a34-b2d3-99b199d521f4" d="m505.8,29.37c-1.75-13.05-11.74-23.7-24.19-27.57-9.6-2.99-21.06-2.39-29.86,2.76-13.93,8.15-17.74,28.27-7.23,40.44,2.03,7.57,7.02,14.38,13.8,18.71,11.69,7.48,28.05,4.72,37.63-4.99,7.79-7.9,11.33-18.39,9.86-29.34Z"/>
          <path class="uuid-4deae081-a57d-4a34-b2d3-99b199d521f4" d="m459.95,307.73c2.77-9.15,3.96-18.72,3.36-27.69-.69-10.29-4.08-20.48-9.7-29.16.65-.4,1.31-.8,1.94-1.21,22.64-14.67,37.96-46.76,37.99-73.52.04-28.7-19.18-55.74-47.72-61.73-9.93-2.08-21.17-.74-30.47,3.92-5.03-25.88-23.61-52.89-37.88-70.25-24.84-30.23-65.01-51.4-104.16-37.08-17.71,6.48-33.43,17.29-48.62,28.26-16.9,12.21-36.79,25.15-47.73,43.47-10.24,17.14-11.21,36.85-7.11,55.98.51,2.38,1.06,4.81,1.64,7.26-15.31,3.49-30.52,15.84-39.6,25.87-.75.83-1.45,1.67-2.15,2.52-24.23-8.26-56.12,5.85-74.71,21.75-24.31,20.79-39.86,51.42-44.42,82.86-4.52,31.13,1.7,65.3,17.14,92.9,11.97,21.41,35.01,44.45,60.39,53.67-1.71,3.74-3.03,7.6-4.05,11.18-7.07,24.97-8.7,56.8,2.8,80.53,6.38,13.17,16.7,25.23,29.3,33.41-10.63,28.26-7,64.87,13.09,87.59,23.33,26.38,62.42,27.81,94.62,21.43,30.24-5.98,50.23-24.16,60.49-49.28,12.31.55,25.19-2.84,35.35-8.2,9.95-5.25,18.25-12.69,24.35-21.27,29.55,8.24,63.43-4.6,77.84-33.54,12.07-24.24,8.82-50.13-4.88-69.81,8.24-.26,16.09-3.64,23.22-9.14,19.27-14.89,24.39-46.66,6.89-64.98-10.37-10.86-27.82-14.23-40.94-6.17-10.16,6.24-14.4,16.76-14.23,27.73-7.45,5.39-11.2,16.25-9.44,25.71-.29-.11-.57-.24-.87-.35-11.55-4.35-26.65-6.07-40.93-4.15,5.89-3.84,11.51-8.4,16.75-13.7,11.74-11.88,20.26-28.06,20.81-44.31,2.73.6,5.48,1.07,8.27,1.31,17.82,1.53,38.65-2.01,56.03-5.87,18.58-4.13,34.84-18.42,36.29-38.15,1.03-14-6.3-30.46-18.96-37.77Z"/>
          <path class="uuid-267230c0-5ece-4c28-8325-43e28769f4bc" d="m274.99,585.91c0,43.74-35.46,79.19-79.19,79.19s-79.19-35.46-79.19-79.19c0-20.69,7.94-39.54,20.93-53.64,14.47-15.71,35.22-25.55,58.26-25.55"/>
          <path class="uuid-6a3f42ce-b277-435c-b567-70537c291ed9" d="m289.73,519.61c23.9,0,43.28,19.38,43.28,43.28s-19.38,43.28-43.28,43.28"/>
          <path class="uuid-6a3f42ce-b277-435c-b567-70537c291ed9" d="m289.73,374.11c38.14,0,69.06,30.92,69.06,69.06s-30.92,69.06-69.06,69.06"/>
          <path class="uuid-a5583acc-25be-4eae-884b-2fab5f041536" d="m372.61,460.67c32.55,0,58.93,26.39,58.93,58.93s-26.39,58.93-58.93,58.93-58.93-26.39-58.93-58.93"/>
          <path class="uuid-267230c0-5ece-4c28-8325-43e28769f4bc" d="m376.02,394.28c0,36.67-29.72,66.39-66.39,66.39"/>
          <path class="uuid-655187fb-7a73-43de-89ec-2f71e5a1d53d" d="m372.61,210.2c48.82,0,88.4,39.58,88.4,88.4s-39.58,88.4-88.4,88.4"/>
          <path class="uuid-267230c0-5ece-4c28-8325-43e28769f4bc" d="m431.54,286.96c24.07,0,43.58,19.51,43.58,43.58s-19.51,43.58-43.58,43.58"/>
          <circle class="uuid-6a3f42ce-b277-435c-b567-70537c291ed9" cx="425.09" cy="423.84" r="29.57"/>
          <path class="uuid-655187fb-7a73-43de-89ec-2f71e5a1d53d" d="m126.74,430.28c-69.17,0-125.24-56.07-125.24-125.24s56.07-125.24,125.24-125.24"/>
          <path class="uuid-267230c0-5ece-4c28-8325-43e28769f4bc" d="m118.17,542.91c-19.13-18.43-31.03-44.3-31.03-72.96,0-12.16,2.14-23.83,6.07-34.63"/>
          <path class="uuid-267230c0-5ece-4c28-8325-43e28769f4bc" d="m118.19,190.09c22.46-27.64,56.72-45.3,95.11-45.3"/>
          <path class="uuid-655187fb-7a73-43de-89ec-2f71e5a1d53d" d="m159.89,131c0-68.66,55.66-124.32,124.32-124.32s124.32,55.66,124.32,124.32"/>
          <path class="uuid-267230c0-5ece-4c28-8325-43e28769f4bc" d="m425.09,117.19c37.63,0,68.14,30.51,68.14,68.14s-30.51,68.14-68.14,68.14"/>
          <circle class="uuid-6a3f42ce-b277-435c-b567-70537c291ed9" cx="475.74" cy="37.08" r="30.39"/>
          <g>
            <path class="uuid-1da1494f-d690-44f6-a222-22e5e2bf5481" d="m167.09,285.82c-1.57-2.82-3.62-5.49-6.12-7.85-4.87-4.24-11.31-7.22-19.46-7.22-14.59,0-31.7,10.83-31.7,33.74,0,24.32,17.26,34.84,31.85,34.84,7.37,0,13.49-1.88,18.21-5.17,4.7-3.14,8-7.85,9.57-13.5h-34.68v-23.7h68.88c.63,8.32-.31,21.97-5.33,33.27-11.31,25.58-37.35,35.15-56.5,35.15-35.15,0-61.67-27.46-61.67-60.89s27.93-59.79,62.14-59.79c27.78,0,51.63,18.67,58.06,41.11h-33.26Z"/>
            <path class="uuid-1da1494f-d690-44f6-a222-22e5e2bf5481" d="m219.26,246.91h65.75v26.05h-36.1v18.05h35v26.05h-35v19.93h36.1v26.05h-65.75v-116.12Z"/>
            <path class="uuid-1da1494f-d690-44f6-a222-22e5e2bf5481" d="m325.07,324.58c0,13.5,8.32,15.85,12.09,15.85,7.05,0,11.3-5.81,11.3-11.14,0-6.12-4.87-8.01-22.76-15.54-8.16-3.29-28.4-11.46-28.4-33.27,0-23.38,21.19-35.78,40.65-35.78,16.01,0,38.6,8.16,39.07,36.09h-29.35c-.63-3.92-1.56-11.3-10.67-11.3-5.17,0-10.2,3.61-10.2,9.1s3.14,6.75,24.01,16.16c21.66,9.73,27.15,19.77,27.15,33.27,0,18.51-9.74,37.19-40.49,37.19s-42.68-17.89-41.9-40.65h29.5Z"/>
          </g>
          <g>
            <path class="uuid-1100fa27-e19d-453d-ade9-55461230be42" d="m360.68,421.76c-6.57,3.2-13.09,6.52-19.62,9.79-3.35-5.83-10.42-9.26-18.22-4.71-6.29,3.67-12.65,7.21-19.05,10.68-4.52-6.07-13.25-8.72-20.12-1.5l-13.2,13.89c-4.84,4.57-9.94,8.83-15.36,12.79-2.97,1.88-5.86,3.96-8.78,6.34-2.76,2.25-4.07,5.05-4.3,7.92-12.69,9.91-24.88,20.44-36.52,31.62-3.96,3.8-4.69,8.69-3.41,13.05-3.48,4.4-2.84,9.55.02,13.58-2.6,2.24-5.19,4.49-7.79,6.73-5.09,4.4-4.96,10.88-2.16,16.03-10.17,7.76-20.29,15.61-30.31,23.59-9.45,7.53-2.17,20.78,7.46,23.24-13.36,13.15-27.05,25.94-41.16,38.3-3.32,2.91-4.67,6.15-4.63,9.27-2.87,2.28-5.74,4.56-8.61,6.84-3.19,2.54-4.6,5.51-4.74,8.46l-7.91,6.27c-12.21,9.68,3.98,30.88,16.78,21.75,5.14-3.67,10.04-7.53,14.72-11.61,5.83-4.62,11.66-9.24,17.49-13.86,1.42-1.12,2.43-2.41,3.13-3.77,5.84-4.36,11.67-8.71,17.51-13.07.01,0,.03,0,.04,0,2.9.91,6.25.8,9.82-.73,2.87.58,6.1,0,9.41-2.29l19.42-13.46c21.9-12.98,42.76-27.56,62.65-43.65,3.33-2.69,4.53-6.22,4.27-9.74,1.46-1.17,2.92-2.34,4.37-3.51,3.68-2.95,4.85-6.77,4.35-10.47,9.85-7.79,19.7-15.58,29.54-23.38,12.21-9.66-4.01-30.95-16.78-21.75-3.68,2.65-7.32,5.35-10.96,8.05-.17-.72-.4-1.42-.67-2.11,2.4-2.16,4.8-4.33,7.2-6.49,2.71-2.44,4-5.3,4.23-8.17,10.27-6.85,20.6-13.62,31.02-20.25,7.72-4.92,7.99-14.19,3.76-20.18,13.97-9.45,27.68-19.29,41.09-29.56,13.93-10.67,2.42-31.9-13.98-23.91Z"/>
            <path class="uuid-1100fa27-e19d-453d-ade9-55461230be42" d="m237.77,463.83c-18.73,12.64-37.28,25.61-55.66,38.87,5.97-8.88,11.57-17.97,16.69-27.31,3.23-5.89-.24-17.23-1.08-22.67-.8-5.14-1.71-10.28-3.09-15.18-.43-1.54-.91-5.37-2.64-5.79-19.33-4.72-42.56,9-60.82,20.78-22.51,14.53-42.76,32.77-60.04,53.53-1.26,1.51-.69,5.94-.64,6.99.22,5.3.93,10.56,1.73,15.68.8,5.14,1.71,10.28,3.09,15.18.16.57,2.17,6.36,2.64,5.79,17.28-20.77,37.53-39,60.04-53.53,5.71-3.68,11.89-7.55,18.3-10.99-32.59,41.61-72.3,78.93-109.29,116.32-4.72,4.77,4.91,44.42,6.8,43.64,15.9-6.54,29.61-17.57,43.31-28.64,7.52-6.07,15.09-12.1,22.68-18.07-14.14,16.68-27.54,33.88-39.38,52.1-1.2,1.84-.71,5.45-.64,6.99.22,5.3.93,10.56,1.73,15.68.25,1.58,4.69,21.77,5.72,20.98,49.82-38.31,100.5-75.28,151.99-110.86,3.34-2.31-.65-19.89-1.08-22.67-.24-1.57-4.4-21.89-5.72-20.98-12.57,8.68-25.08,17.45-37.55,26.3,17-19.16,33.64-38.58,49.73-58.5,1.25-1.55.69-5.88.64-6.99-.22-5.3-.93-10.56-1.73-15.68-.24-1.57-4.34-21.91-5.72-20.98Z"/>
            <path class="uuid-f9a0726a-3f98-44cc-aea6-98938e80396b" d="m301.5,869.05s-1.19,24.16,1.48,34.06c2.67,9.9-1.6,16.3,1.33,27.76,2.94,11.46-6.13,13.6-8,28-1.35,10.45-2.71,28.96-3.35,38.33,5.45-1.5,12.64-4.01,16.08-4.44.98-7.21,1.9-12.26,2.31-17.34.57-7.13.77-14.3,1.11-21.45.23-4.83.66-6.51,3.36-11.98-1.92-6.85-5.9-26.92-8.97-38.88s-5.35-34.06-5.35-34.06Z"/>
            <path class="uuid-eb062147-25b7-47d6-88fd-5d5baa08b56d" d="m306.68,615.17c-.67-.04-1.39-.08-2.07-.12.61.15,1.28.23,2.07.12Z"/>
            <path class="uuid-1da1494f-d690-44f6-a222-22e5e2bf5481" d="m329.46,618.98c2.87,1.8,7.35,3.35,12.03,5.04.1-.66.24-1.11.24-1.11l2.67-2.31c2.67-2.31-.89-9.42-2.49-10.84-1.6-1.42-2.84-.89-2.84-.89,0,0,.18-5.33,6.22-5.69,6.04-.36,1.78-3.91,4.98-9.6,3.2-5.69-14.22-6.4-17.42-6.22-1.19.07-2.45-.14-3.56-.42-3.24,5.39-7.67,8.59-14.5,8.68-3.54.05-7.23.86-4.35,6.02.27.49.3,1.28.12,1.83-1.13,3.6-2.36,7.16-3.87,11.69,4.29-.61,15.67-.64,22.78,3.82Z"/>
            <path class="uuid-eb062147-25b7-47d6-88fd-5d5baa08b56d" d="m214.24,542.17c-3.38-3.92-8.33-9.67-11.47-13.33-.04-.06-.08-.11-.12-.17-.15-.22-.26-.48-.26-.74,0-.31-.08-.63-.26-.9.18-.52.16-1.07.12-1.6-.18-2.11-1.47-3.5-2.02-5.53-.09-.34-.34-.6-.64-.77-.1-.12-.19-.24-.29-.36l-1.32-1.59c-.88-1.06-1.73-2.15-2.63-3.19-.49-.56-1.12-1.07-1.92-.96-.27.04-.51.14-.74.26-1.93-2.9-5.34-9.01-5.34-9.01l-1.21-.07-1.41,1.47s-.62.79-.73.95c-.11.16-1.61,1.01-1.61,1.01l-.93.18-.52,1.08c-.13.26-.33.47-.57.62l-2.22,1.27c-.12.07-.22.15-.32.25l-1.31,1.35c-.2.21-.47.35-.76.41l-.7.14c-.22.04-.42.13-.6.27l-.52.4c-.12.09-.22.19-.3.32l-.57.82s.99,1.98,3.79,4.68c-1.17-.95-2.38-1.84-2.38-1.84l1.77,1.6c1.47,1.33,2.87,2.75,3.92,3.91.24.27.32.63.31.99-.01.36.09.71.34,1.01,1.75,2.04,3.5,4.07,5.25,6.11.34.4.87.64,1.39.63.92.5,1.85.98,2.82,1.36.91.36,1.91.78,2.92.88.22.34.59.6,1.11.67,1.68.24,2.79,1.67,3.77,2.93,1.46,1.9,2.87,3.84,4.28,5.77,1.62,2.22,3.22,4.46,4.81,6.71.68-3.69,5.52-6.14,7.09-7.95Z"/>
            <path class="uuid-f6fd8d34-79ee-43e2-ae88-415b6382082b" d="m338.03,1002.73c-4.53,1.73-13.47-4.8-15.39-4.87-3.39,2.35-6.58,5.39-11.22,7.15-1-5.12-1.84-9.46-2.39-12.25-4.46.56-15.27,4.64-20.33,5.44-5.07.8-18.13.4-20.46,1.43-.42,2.37-22.63,7.15-24.42,8.72-1.79,1.57,1.12,6.61,1.12,6.61h118.85c2.78-3.94,1.41-13.68-.67-18.49-1.57,4-20.56,4.53-25.09,6.27Z"/>
            <path class="uuid-1da1494f-d690-44f6-a222-22e5e2bf5481" d="m286.45,613.99h0c-.58-.03-1.15-.07-1.73-.1-4.98-.29-8.88-2.47-11.78-6.57-9.29-13.16-19.18-25.94-27.76-39.56-6.58-10.44-15.9-17.62-25.01-25.26-.82-.69-2.01-1.25-3.06-1.3l-2.89.96c-1.56,1.82-6.41,4.26-7.09,7.95-.04,1.99-.36,3.95-2.01,5.69-.43.45.36,2.43.98,3.46,2.3,3.81,4.44,7.8,7.27,11.2,2.3,2.76,4.01,6.91,9.31,5.49,6.02-1.61,9.15.19,11.63,5.97,2.16,5.03,3.87,10.26,6.13,15.24,4.04,8.92,8.17,17.81,12.61,26.54,2.94,5.78,8.05,9.05,14.39,10.41,7.39,1.58,14.75,3.34,22.17,4.77,1.59.31,2.93.67,3.99,1.42t0,0c-4.52-4.25-10.01-17.11-7.17-26.32Z"/>
            <path class="uuid-1da1494f-d690-44f6-a222-22e5e2bf5481" d="m362.22,592.74c-1.4,7.16-1.24,17.88,5.63,23.44.55.45,1.07.89,1.57,1.32,1.77-3.16,1.81-17.29-7.2-24.76Z"/>
            <path class="uuid-2b9cf641-f676-48c7-9a82-6e5b77fb8baa" d="m362.47,591.55c.19-.84-.04-1.71-.69-2.28-1.27-1.12-2.66-2.23-4.19-3.34-2.6-1.89-5.35-3.6-8.16-5.16-6.82-3.78-15.99-1.69-19.25,4.59-.29.56-.6,1.07-.91,1.58,1.12.28,2.37.49,3.56.42,3.2-.18,20.62.53,17.42,6.22-3.2,5.69,1.07,9.24-4.98,9.6-6.04.36-6.22,5.69-6.22,5.69,0,0,1.24-.53,2.84.89,1.6,1.42,5.16,8.53,2.49,10.84l-2.67,2.31s-.13.45-.24,1.11c6.91,2.5,14.26,5.31,17.52,9.75,1.93-1.56,4.13-2.98,5.87-4.83,1.94-2.07,4.27-4.3,5.05-6.88.34-1.13.44-3.72.21-3.94-.7-.64-1.45-1.29-2.28-1.96-7.27-5.87-7.03-17.51-5.38-24.62Z"/>
            <path class="uuid-f9a0726a-3f98-44cc-aea6-98938e80396b" d="m330.88,782.06c4.17,10.57,10.95,27.81,14.33,36.88,1.57-7.36,3.93-14.56,5.21-21.96.84-4.85.72-9.96.39-14.91-.41-6.09-2.06-12.14-2.11-18.22-4.75,1.58-12.3,11.23-17.81,18.21Z"/>
            <path class="uuid-b9fb11ac-b50e-4270-9244-08c71925e235" d="m341.49,624.02c-.25,1.61-.33,4.59,2.19,6.35-2.52-1.76-2.44-4.75-2.19-6.35-4.68-1.69-9.16-3.24-12.03-5.04-7.11-4.46-18.49-4.43-22.78-3.82-.79.11-1.46.03-2.07-.12-5.61-.32-11.84-.69-18.15-1.05h0c-2.83,9.22,2.65,22.07,7.17,26.32t0,0c1.07.75,1.86,1.89,2.34,3.75,1.14,4.39.2,8.32,5.32,9.6,2.99.75,3.47,2.54,1.92,5.46-4.52,8.54-10.87,18.39-14.95,27.15-7.89,16.94-22.26,32.62-25.47,51.26-2.54,14.75-4.8,29.56-7,44.37-.2,1.32.57,3.58,1.59,4.16,2.46,1.4,7.22,3.24,10.85,5.33,0,0,0,0,.01,0,9.84,5.71,53.92,1.26,59.26-5.14.98-1.18,2.13-2.63,3.38-4.21-2.11-5.34-3.56-8.98-3.56-8.98,0,0,1.45,3.64,3.56,8.98,5.51-6.98,13.06-16.64,17.81-18.21-.07-8.23,3.65-15.35,6.78-22.96,5.94-14.46,10.4-29.97,12.51-45.46,2.85-20.92-.31-41.73-8.97-61.65-3.26-4.44-10.61-7.25-17.52-9.75Z"/>
            <path class="uuid-4deae081-a57d-4a34-b2d3-99b199d521f4" d="m327.5,786.27c-5.33,6.4-49.42,10.84-59.26,5.14,0,0,0,0-.01,0,2.75,1.59,4.85,3.32,4.78,5.1-.16,4.03,0,8.07-.17,12.1-.7,17.88-1.77,35.76-2.06,53.65-.12,7.62-.84,8.69,3.92,9.71,54.03-2.65,72.94-20.89,72.94-20.89l1.57-.53c-.52-6.06-1.36-12.09-2.17-18.12-.31-2.34-1-4.63-1.35-6.97-.32-2.16-.92-4.47-.49-6.52-3.38-9.07-10.15-26.31-14.33-36.88-1.25,1.58-2.39,3.03-3.38,4.21Z"/>
            <path class="uuid-f9a0726a-3f98-44cc-aea6-98938e80396b" d="m304.3,930.87c-2.94-11.47,1.34-17.86-1.33-27.76-2.67-9.9-1.48-34.06-1.48-34.06-7.77,1.37-16.66,2.42-26.79,2.91.31,6.47.68,12.93.8,19.4.16,8.74.19,17.5-.2,26.23-.24,5.34-.77,10.81-2.23,15.91-3.44,11.97-2.88,23.91-1.13,35.96.1.66.12,1.33.22,2.46-2.88,4.14-3.42,8.74-2.28,14.24.85,4.08-.96,8.7-1.64,13.47,2.33-1.03,15.4-.63,20.46-1.43,1.16-.18,2.64-.55,4.25-.99.64-9.38,1.99-27.88,3.35-38.33,1.87-14.4,10.93-16.53,8-28Z"/>
            <path class="uuid-f9a0726a-3f98-44cc-aea6-98938e80396b" d="m316.44,947.28c-.04-2.01-.22-3.85-.62-5.29.21,1.81.42,3.55.62,5.29Z"/>
            <path class="uuid-c968877d-5323-4258-88d6-7e588dd06c20" d="m301.5,869.05s-1.19,24.16,1.48,34.06c2.67,9.9-1.6,16.3,1.33,27.76,2.94,11.46-6.13,13.6-8,28-1.35,10.45-2.71,28.96-3.35,38.33,5.45-1.5,12.64-4.01,16.08-4.44.98-7.21,1.9-12.26,2.31-17.34.57-7.13.77-14.3,1.11-21.45.23-4.83.66-6.51,3.36-11.98-1.92-6.85-5.9-26.92-8.97-38.88s-5.35-34.06-5.35-34.06Z"/>
            <path class="uuid-f9a0726a-3f98-44cc-aea6-98938e80396b" d="m362.3,963.31c-.73-8.68-1.58-17.36-2.52-26.02-1.25-11.58-2.58-23.14-3.99-34.7-.32-2.65-.82-5.36-1.76-7.85-3.73-9.8-4.13-20.11-5.1-30.37-.42-4.43-.85-8.87-1.28-13.3,0,0-12.49,12.05-46.15,17.98,0,0,2.28,22.09,5.35,34.06s7.06,32.03,8.97,38.88c.4,1.44.58,3.29.62,5.29.83,7.14,1.58,13.75,2.44,20.32.55,4.2.73,8.63,2.25,12.49,2.29,5.83,3.2,11.51,1.52,17.78,1.92.07,10.85,6.6,15.39,4.87,4.53-1.73,23.52-2.27,25.09-6.27-1.54-3.55-.14-9.6.17-13.79.47-6.4-.45-12.91-1-19.36Z"/>
            <g class="uuid-640a47bc-e75e-4338-962a-45c3312a4d7e">
              <path class="uuid-a577115a-5f5a-4dd3-9308-077f1be61cca" d="m346.24,852.24s.07-.05.1-.08c-.04.03-.07.05-.1.08Z"/>
              <path class="uuid-a577115a-5f5a-4dd3-9308-077f1be61cca" d="m345.05,853.12c.08-.06.16-.12.24-.18-.08.06-.16.12-.24.18Z"/>
              <path class="uuid-a577115a-5f5a-4dd3-9308-077f1be61cca" d="m343.6,854.12c.05-.04.11-.07.16-.11-.05.03-.11.07-.16.11Z"/>
              <path class="uuid-a577115a-5f5a-4dd3-9308-077f1be61cca" d="m341.81,855.25c.11-.07.21-.13.32-.2-.11.07-.21.13-.32.2Z"/>
              <path class="uuid-a577115a-5f5a-4dd3-9308-077f1be61cca" d="m347.48,851.22s.04-.03.06-.05c-.02.02-.04.03-.06.05Z"/>
              <path class="uuid-a577115a-5f5a-4dd3-9308-077f1be61cca" d="m330.88,860.75h0c-.12.04-.23.09-.35.14.11-.05.24-.09.35-.14Z"/>
              <path class="uuid-a577115a-5f5a-4dd3-9308-077f1be61cca" d="m331.08,860.67c-.07.03-.14.06-.2.08h0c.07-.03.13-.05.2-.08Z"/>
              <path class="uuid-a577115a-5f5a-4dd3-9308-077f1be61cca" d="m339.49,856.6c.15-.08.3-.16.44-.25-.14.08-.29.16-.44.25Z"/>
              <path class="uuid-a577115a-5f5a-4dd3-9308-077f1be61cca" d="m346.98,851.65s.07-.06.1-.08c-.03.03-.07.06-.1.08Z"/>
              <path class="uuid-a577115a-5f5a-4dd3-9308-077f1be61cca" d="m363.8,610.99c-.2-.4-.34-.83-.5-1.25.17.42.31.85.5,1.25Z"/>
              <path class="uuid-a577115a-5f5a-4dd3-9308-077f1be61cca" d="m327.42,862.13c-.14.05-.27.11-.41.16.14-.05.27-.1.41-.16Z"/>
              <path class="uuid-a577115a-5f5a-4dd3-9308-077f1be61cca" d="m362.61,607.91c-.14-.46-.23-.94-.34-1.42.11.47.2.95.34,1.42Z"/>
              <path class="uuid-a577115a-5f5a-4dd3-9308-077f1be61cca" d="m365.53,613.78c-.23-.3-.39-.64-.6-.95.21.31.37.65.6.95Z"/>
              <path class="uuid-a577115a-5f5a-4dd3-9308-077f1be61cca" d="m361.89,604.66c-.08-.5-.12-.99-.17-1.49.05.5.09,1,.17,1.49Z"/>
              <path class="uuid-a577115a-5f5a-4dd3-9308-077f1be61cca" d="m361.59,598.06c.03-.49.07-.97.11-1.44-.04.48-.09.95-.11,1.44Z"/>
              <path class="uuid-a577115a-5f5a-4dd3-9308-077f1be61cca" d="m361.87,594.94c.06-.46.13-.9.21-1.33-.08.44-.15.87-.21,1.33Z"/>
              <path class="uuid-a577115a-5f5a-4dd3-9308-077f1be61cca" d="m334,859.38c.2-.09.38-.18.58-.27-.19.09-.38.18-.58.27Z"/>
              <path class="uuid-a577115a-5f5a-4dd3-9308-077f1be61cca" d="m361.57,601.33c-.02-.5-.02-1-.01-1.5,0,.5,0,.99.01,1.5Z"/>
              <path class="uuid-a577115a-5f5a-4dd3-9308-077f1be61cca" d="m313.67,866.43c-.27.07-.53.14-.8.21.27-.07.53-.14.8-.21Z"/>
              <path class="uuid-a577115a-5f5a-4dd3-9308-077f1be61cca" d="m318.38,865.15c-.16.05-.32.09-.48.13.16-.05.32-.09.48-.13Z"/>
              <path class="uuid-a577115a-5f5a-4dd3-9308-077f1be61cca" d="m323.33,863.59c-.27.09-.55.18-.83.28.28-.09.56-.18.83-.28Z"/>
              <path class="uuid-a577115a-5f5a-4dd3-9308-077f1be61cca" d="m307.99,867.77c-.33.07-.67.14-1.01.21.34-.07.68-.14,1.01-.21Z"/>
              <path class="uuid-a577115a-5f5a-4dd3-9308-077f1be61cca" d="m361.87,594.94c-.07.54-.13,1.1-.18,1.67-.04.48-.09.95-.11,1.44-.03.58-.03,1.18-.03,1.78,0,.5,0,.99.01,1.5.03.61.09,1.22.15,1.83.05.5.09,1,.17,1.49.1.62.25,1.23.39,1.84.11.47.2.95.34,1.42.19.63.44,1.22.69,1.83.17.42.31.85.5,1.25.32.65.73,1.24,1.12,1.84.21.31.37.65.6.95.67.87,1.44,1.68,2.33,2.39.55.45,1.07.89,1.57,1.32,1.77-3.16,1.81-17.27-7.17-24.74-.06.28-.11.56-.16.86-.07.44-.15.88-.21,1.33Z"/>
              <path class="uuid-a577115a-5f5a-4dd3-9308-077f1be61cca" d="m367.85,616.17c-.89-.72-1.65-1.52-2.33-2.39-.23-.3-.39-.64-.6-.95-.4-.6-.81-1.19-1.12-1.84-.2-.4-.33-.83-.5-1.25-.24-.6-.5-1.2-.69-1.83-.14-.46-.23-.94-.34-1.42-.14-.61-.29-1.22-.39-1.84-.08-.5-.12-.99-.17-1.49-.06-.61-.13-1.22-.15-1.83-.02-.51-.02-1-.01-1.5,0-.6,0-1.19.03-1.78.03-.49.07-.96.11-1.44.05-.57.1-1.12.18-1.67.06-.46.13-.89.21-1.33.05-.29.08-.6.14-.88,0,0,.02.02.03.02.08-.4.14-.83.23-1.2.19-.84-.04-1.71-.69-2.28-1.27-1.12-2.66-2.23-4.19-3.34-2.6-1.89-5.35-3.6-8.16-5.16,2.93,1.7,8.28,12.28,8.64,20.63s-1.96,21.86-3.73,23.64c-1.78,1.78-3.32,2.84-3.32,2.84,0,0-.01,0-.02,0,3.36,1.64,6.26,3.53,8,5.89,1.93-1.56,4.13-2.98,5.87-4.83,1.94-2.07,4.27-4.3,5.05-6.88.34-1.13.44-3.72.21-3.94-.7-.64-1.45-1.29-2.28-1.96Z"/>
              <path class="uuid-a577115a-5f5a-4dd3-9308-077f1be61cca" d="m362.08,593.61c.05-.29.11-.57.16-.86,0,0-.02-.02-.03-.02-.05.28-.09.59-.14.88Z"/>
              <path class="uuid-a577115a-5f5a-4dd3-9308-077f1be61cca" d="m361.72,603.16c-.06-.61-.13-1.22-.15-1.83.03.61.09,1.22.15,1.83Z"/>
              <path class="uuid-a577115a-5f5a-4dd3-9308-077f1be61cca" d="m361.7,596.62c.05-.57.1-1.13.18-1.67-.07.55-.13,1.1-.18,1.67Z"/>
              <path class="uuid-a577115a-5f5a-4dd3-9308-077f1be61cca" d="m361.55,599.84c0-.6,0-1.19.03-1.78-.03.59-.03,1.18-.03,1.78Z"/>
              <path class="uuid-a577115a-5f5a-4dd3-9308-077f1be61cca" d="m367.85,616.17c-.89-.72-1.65-1.52-2.33-2.39.67.87,1.44,1.68,2.33,2.39Z"/>
              <path class="uuid-a577115a-5f5a-4dd3-9308-077f1be61cca" d="m364.93,612.83c-.4-.6-.81-1.19-1.12-1.84.32.65.73,1.24,1.12,1.84Z"/>
              <path class="uuid-a577115a-5f5a-4dd3-9308-077f1be61cca" d="m363.3,609.74c-.24-.6-.5-1.2-.69-1.83.19.63.44,1.22.69,1.83Z"/>
              <path class="uuid-a577115a-5f5a-4dd3-9308-077f1be61cca" d="m362.27,606.5c-.14-.61-.29-1.22-.39-1.84.1.62.25,1.23.39,1.84Z"/>
              <path class="uuid-a577115a-5f5a-4dd3-9308-077f1be61cca" d="m330.88,782.06c4.17,10.57,10.95,27.81,14.33,36.88,1.57-7.36,3.93-14.56,5.21-21.96.84-4.85.72-9.96.39-14.91-.41-6.09-2.06-12.14-2.11-18.22-4.75,1.58-12.3,11.23-17.81,18.21Z"/>
              <path class="uuid-a577115a-5f5a-4dd3-9308-077f1be61cca" d="m351.01,627.88c-.17.02-8.01,1.11-4.66,4.8,3.38,3.73-16.89.18-14.04,9.6,2.84,9.42,10.94,30.04,8.67,41.06-2.27,11.02-29.64,32.71-26.8,49.95,2.84,17.24-4.09,25.24-2.84,32.17,1.24,6.93,1.6,19.26,3.73,25.63,6.19-1.32,10.91-2.99,12.44-4.83.98-1.18,2.13-2.63,3.38-4.21-2.11-5.34-3.56-8.98-3.56-8.98,0,0,1.45,3.64,3.56,8.98,5.51-6.98,13.06-16.64,17.81-18.21-.07-8.23,3.65-15.35,6.78-22.96,5.94-14.46,10.4-29.97,12.51-45.46,2.85-20.92-.31-41.73-8.97-61.65-1.73-2.36-4.63-4.25-8-5.89Z"/>
              <path class="uuid-a577115a-5f5a-4dd3-9308-077f1be61cca" d="m327.5,786.27c-1.53,1.84-6.26,3.51-12.44,4.83,0,0,0,0,0,0,2.13,6.36,15.8,69.54,15.82,69.65.07-.03.14-.06.2-.08,1.03-.43,2-.86,2.92-1.29.2-.09.38-.18.58-.27.92-.43,1.8-.86,2.62-1.28.83-.42,1.58-.83,2.3-1.23.15-.08.3-.16.44-.25.67-.38,1.3-.75,1.88-1.1.11-.07.21-.13.32-.2.53-.33,1.03-.64,1.47-.94.05-.04.11-.07.16-.11.48-.32.9-.61,1.28-.89.08-.06.17-.12.24-.18.36-.26.68-.5.95-.71.04-.03.07-.05.1-.08.25-.19.46-.36.63-.51.03-.03.07-.06.1-.08.17-.14.31-.26.4-.34.02-.02.04-.04.06-.05.05-.05.11-.1.11-.1l1.57-.53c-.52-6.06-1.36-12.09-2.17-18.12-.31-2.34-1-4.63-1.35-6.97-.32-2.16-.92-4.47-.49-6.52-3.38-9.07-10.15-26.31-14.33-36.88-1.25,1.58-2.39,3.03-3.38,4.21Z"/>
              <path class="uuid-a577115a-5f5a-4dd3-9308-077f1be61cca" d="m347.48,851.22c-.09.08-.22.19-.4.34-.03.03-.07.05-.1.08-.18.15-.38.31-.63.51-.04.03-.06.05-.1.08-.27.21-.6.45-.95.71-.08.06-.16.12-.24.18-.38.28-.8.57-1.28.89-.05.03-.11.07-.16.11-.45.3-.94.61-1.47.94-.11.07-.21.13-.32.2-.58.35-1.21.72-1.88,1.1-.14.08-.29.16-.44.25-.72.4-1.48.81-2.3,1.23-.81.42-1.7.84-2.62,1.28-.19.09-.38.18-.58.27-.92.43-1.89.86-2.92,1.29-.07.03-.13.06-.2.09h0s3.26,2.12,3.76,6.57c.5,4.44-4.23,12.62,0,20.62,4.23,8,1.57,23.64,5.66,32.53,4.09,8.89,1.6,29.33,5.69,37.15,4.09,7.82-.53,18.13,2.49,27.02,3.02,8.89-1.62,9.62.61,16.18,6.4-.9,13.13-2.05,14.04-4.36-1.54-3.55-.14-9.6.17-13.79.47-6.4-.45-12.91-1-19.36-.73-8.68-1.58-17.36-2.52-26.02-1.25-11.58-2.58-23.14-3.99-34.7-.32-2.65-.82-5.36-1.76-7.85-3.73-9.8-4.13-20.11-5.1-30.37-.42-4.43-.85-8.87-1.28-13.3,0,0-.04.04-.11.1-.02.02-.03.03-.06.05Z"/>
              <path class="uuid-a577115a-5f5a-4dd3-9308-077f1be61cca" d="m347.64,851.07s-.06.05-.11.1c.06-.06.11-.1.11-.1Z"/>
              <path class="uuid-a577115a-5f5a-4dd3-9308-077f1be61cca" d="m345.29,852.95c.36-.26.68-.5.95-.71-.27.21-.6.45-.95.71Z"/>
              <path class="uuid-a577115a-5f5a-4dd3-9308-077f1be61cca" d="m346.35,852.16c.25-.19.46-.36.63-.51-.17.14-.39.32-.63.51Z"/>
              <path class="uuid-a577115a-5f5a-4dd3-9308-077f1be61cca" d="m327.01,862.29c-1.17.44-2.4.87-3.68,1.3,1.28-.43,2.51-.86,3.68-1.3Z"/>
              <path class="uuid-a577115a-5f5a-4dd3-9308-077f1be61cca" d="m331.08,860.67c1.03-.43,2-.86,2.92-1.29-.92.43-1.89.86-2.92,1.29Z"/>
              <path class="uuid-a577115a-5f5a-4dd3-9308-077f1be61cca" d="m322.49,863.86c-1.32.43-2.68.86-4.11,1.28,1.43-.42,2.79-.85,4.11-1.28Z"/>
              <path class="uuid-a577115a-5f5a-4dd3-9308-077f1be61cca" d="m330.53,860.89c-.99.41-2.03.82-3.11,1.23,1.09-.41,2.12-.82,3.11-1.23Z"/>
              <path class="uuid-a577115a-5f5a-4dd3-9308-077f1be61cca" d="m347.08,851.56c.18-.15.3-.26.4-.34-.09.08-.23.2-.4.34Z"/>
              <path class="uuid-a577115a-5f5a-4dd3-9308-077f1be61cca" d="m312.87,866.64c-1.56.39-3.19.77-4.88,1.13,1.69-.36,3.31-.74,4.88-1.13Z"/>
              <path class="uuid-a577115a-5f5a-4dd3-9308-077f1be61cca" d="m317.91,865.28c-1.36.39-2.77.78-4.24,1.15,1.46-.37,2.88-.76,4.24-1.15Z"/>
              <path class="uuid-a577115a-5f5a-4dd3-9308-077f1be61cca" d="m334.58,859.11c.92-.43,1.8-.86,2.62-1.28-.81.42-1.7.84-2.62,1.28Z"/>
              <path class="uuid-a577115a-5f5a-4dd3-9308-077f1be61cca" d="m301.5,869.05h0c1.9-.34,3.71-.7,5.48-1.07-1.77.37-3.58.73-5.48,1.07Z"/>
              <path class="uuid-a577115a-5f5a-4dd3-9308-077f1be61cca" d="m337.19,857.83c.83-.42,1.58-.83,2.3-1.23-.72.4-1.48.81-2.3,1.23Z"/>
              <path class="uuid-a577115a-5f5a-4dd3-9308-077f1be61cca" d="m343.77,854.01c.48-.32.9-.61,1.28-.89-.38.28-.8.57-1.28.89Z"/>
              <path class="uuid-a577115a-5f5a-4dd3-9308-077f1be61cca" d="m339.93,856.35c.67-.38,1.3-.75,1.88-1.1-.58.35-1.21.72-1.88,1.1Z"/>
              <path class="uuid-a577115a-5f5a-4dd3-9308-077f1be61cca" d="m342.13,855.06c.53-.33,1.03-.64,1.47-.94-.45.3-.95.61-1.47.94Z"/>
            </g>
            <path class="uuid-c968877d-5323-4258-88d6-7e588dd06c20" d="m257.95,593.19c5.96,7.99,14.27,16.22,19.18,18.28.08.03.15.04.23.07-1.66-1.06-3.15-2.42-4.42-4.21-9.29-13.16-19.18-25.94-27.76-39.56-6.58-10.44-15.9-17.62-25.01-25.26-.52-.44-1.19-.8-1.87-1.04,0,0,6.54,10.25,10.94,16.12,4.4,5.87,22.75,27.62,28.7,35.61Z"/>
            <g class="uuid-640a47bc-e75e-4338-962a-45c3312a4d7e">
              <path class="uuid-a577115a-5f5a-4dd3-9308-077f1be61cca" d="m311.43,1005.01c.66-.17,1.24-.45,1.74-.82-.57.28-1.11.58-1.74.82Z"/>
              <path class="uuid-d5ce3d39-8c9e-4168-a043-62e1ea2c0d7f" d="m363.13,996.46c-.6,1.54-3.8,2.56-7.76,3.34-.48,4.91-6.08,7.42-11.77,8.48-5.37.99-2.53,5.93-7.75,6.67h27.95c2.78-3.94,1.41-13.68-.67-18.49Z"/>
              <path class="uuid-d5ce3d39-8c9e-4168-a043-62e1ea2c0d7f" d="m311.43,1005.01c-1-5.12-1.84-9.46-2.39-12.25-2.46.31-6.86,1.69-11.15,3,.34,2.65-.03,6.25-4.16,7.27-6.75,1.67-3.73,6.51-9.24,9.88-1.37.84-2.46,1.51-3.33,2.05h15.3c-.46-1.95-1.15-4.72-1.48-5.61-.53-1.42,11.2-3.02,16.45-4.34Z"/>
            </g>
          </g>
        </g>
      </g>
    </g>
  </g>
</svg>