<?xml version="1.0" encoding="UTF-8"?>
<svg xmlns="http://www.w3.org/2000/svg" width="742.02" height="1002.35" viewBox="0 0 742.02 1002.35">
  <defs>
    <style>
      .uuid-79634437-2e64-4c61-98de-2f76813101dc, .uuid-9cc7c1de-2a0c-45ff-b9f1-2f084db6c31a, .uuid-7e25144c-f4b5-4ed4-9fc1-f1539a99bf6c {
        fill: none;
      }

      .uuid-79634437-2e64-4c61-98de-2f76813101dc, .uuid-b61a0fa3-6fcb-4c68-b669-a0a180af5f3e, .uuid-02e5fa10-e5a4-42cf-bc5f-681dc7d30427, .uuid-ecddf9bb-08c4-496e-abe5-41fa36e3a38a, .uuid-1f20d521-e688-452e-955f-3aa0cd2b3bf9, .uuid-b92d3335-259a-417c-b518-06f18a7d7792, .uuid-ed3c02b2-d5b6-43df-b974-a94f51d5323d, .uuid-f89c642a-8784-44fa-9a1d-95dd9a170613, .uuid-5a3935f3-6b21-4234-a9cc-56ae731dff41, .uuid-35b4e0fb-a2dc-4272-968c-40dff6fd764b, .uuid-627d50e8-803a-4fce-b348-ade6421f2d28, .uuid-8ca9e3c8-7f88-4f27-a55e-aa16f1762360, .uuid-9e17d03e-57eb-4ffe-b3ee-98f8d8b7f7cb, .uuid-e89b9f8b-70ce-49a6-bb99-80fcb32e66f6, .uuid-292abf14-ca18-4e95-8eb4-8c533449d633, .uuid-0348a5ef-74af-423e-a33c-69f4509b6a9f, .uuid-3e0b9c4a-54a4-45e2-9c14-d27b12db25f3, .uuid-386a8ec9-1f80-4b9d-b53d-7761401c7e97, .uuid-96c5e23b-40c7-41e9-a539-fa91a47613c1, .uuid-8179714a-9f89-4e1c-b282-ebdb02a238db, .uuid-6c729634-5570-4847-bf96-3458a58765bd, .uuid-7cb47379-3e2b-4a22-8ad5-530d8e96f6d1, .uuid-bd1ea5fd-ff3c-4e93-9692-d320c35dc3de, .uuid-69ca079d-9176-4e55-8096-a6058cecc611 {
        stroke-width: 0px;
      }

      .uuid-00ad37cf-475f-4cbb-b5a4-8b7b7a4d7f92 {
        mix-blend-mode: color-burn;
        opacity: .21;
      }

      .uuid-9cc7c1de-2a0c-45ff-b9f1-2f084db6c31a {
        stroke-width: 2px;
      }

      .uuid-9cc7c1de-2a0c-45ff-b9f1-2f084db6c31a, .uuid-7e25144c-f4b5-4ed4-9fc1-f1539a99bf6c {
        stroke: #262631;
        stroke-miterlimit: 10;
      }

      .uuid-7e25144c-f4b5-4ed4-9fc1-f1539a99bf6c {
        stroke-width: 8px;
      }

      .uuid-a42db7f4-87bb-4789-b8d0-9444b3f6af62 {
        isolation: isolate;
      }

      .uuid-4983dfde-6f3d-4dd1-b52c-d5489dd084d7 {
        mix-blend-mode: multiply;
        opacity: .2;
      }

      .uuid-02e5fa10-e5a4-42cf-bc5f-681dc7d30427 {
        fill: #f6e6de;
      }

      .uuid-ecddf9bb-08c4-496e-abe5-41fa36e3a38a {
        fill: #4eb570;
      }

      .uuid-1f20d521-e688-452e-955f-3aa0cd2b3bf9 {
        fill: #4fbbd1;
      }

      .uuid-b92d3335-259a-417c-b518-06f18a7d7792 {
        fill: #457989;
      }

      .uuid-ed3c02b2-d5b6-43df-b974-a94f51d5323d {
        fill: #96619d;
      }

      .uuid-f89c642a-8784-44fa-9a1d-95dd9a170613 {
        fill: #6e9e75;
      }

      .uuid-5a3935f3-6b21-4234-a9cc-56ae731dff41 {
        fill: #442f34;
      }

      .uuid-35b4e0fb-a2dc-4272-968c-40dff6fd764b {
        fill: #413f4b;
      }

      .uuid-627d50e8-803a-4fce-b348-ade6421f2d28 {
        fill: #c8c8c8;
      }

      .uuid-8ca9e3c8-7f88-4f27-a55e-aa16f1762360 {
        fill: #b07e09;
      }

      .uuid-9e17d03e-57eb-4ffe-b3ee-98f8d8b7f7cb {
        fill: #8b4324;
      }

      .uuid-e89b9f8b-70ce-49a6-bb99-80fcb32e66f6 {
        fill: #c2c0c6;
      }

      .uuid-292abf14-ca18-4e95-8eb4-8c533449d633 {
        fill: #c40000;
      }

      .uuid-0348a5ef-74af-423e-a33c-69f4509b6a9f {
        fill: #736357;
      }

      .uuid-3e0b9c4a-54a4-45e2-9c14-d27b12db25f3 {
        fill: #7d97a8;
      }

      .uuid-386a8ec9-1f80-4b9d-b53d-7761401c7e97 {
        fill: #ee7969;
      }

      .uuid-96c5e23b-40c7-41e9-a539-fa91a47613c1 {
        fill: #ebc3b6;
      }

      .uuid-8179714a-9f89-4e1c-b282-ebdb02a238db {
        fill: #fbda6e;
      }

      .uuid-6c729634-5570-4847-bf96-3458a58765bd {
        fill: #fbd4c1;
      }

      .uuid-7cb47379-3e2b-4a22-8ad5-530d8e96f6d1 {
        fill: #ff5252;
      }

      .uuid-bd1ea5fd-ff3c-4e93-9692-d320c35dc3de {
        fill: #f78248;
      }

      .uuid-69ca079d-9176-4e55-8096-a6058cecc611 {
        fill: #eabdb0;
      }
    </style>
  </defs>
  <g class="uuid-a42db7f4-87bb-4789-b8d0-9444b3f6af62">
    <g id="uuid-a6dcb6b9-20a8-4cff-94bf-2713d13058bc" data-name="Calque 2">
      <g id="uuid-3b9f3550-7213-4918-8ff5-9d03befeebcc" data-name="Calque 4">
        <g>
          <g>
            <g>
              <path class="uuid-6c729634-5570-4847-bf96-3458a58765bd" d="m527.35,537.26c-14.41-.33-22.3-9.18-26.3-16.05,4.13-1.54,4.59-6.05,6.27-9.58,2.9-6.13,2.88-9.84-.41-14.2.53-1.35,1.37-3.75,1.42-5.6.07-2.68-1.3-2.61-2.69-5.13-1.4-2.52-1.67-12.02-1.74-13.41-.07-1.39,3.96-.47,3.96-.47,0,0-.48-30.53,17.66-30.73,18.14-.21,21.21,33.34,21.21,33.34l3,.27c3,.27-1.64,16.74-1.8,21.45-1.18,1.35-1.9,3.18-2.54,4.9-2.86,7.64.54,14.27,8.08,16.78.01,0,.02,0,.03,0-2.21,6.5-8.7,18.82-26.14,18.42Z"/>
              <path class="uuid-8ca9e3c8-7f88-4f27-a55e-aa16f1762360" d="m549.79,475.71l-3-.27s-.34-9.58-18.48-9.37c-18.14.21-20.39,6.77-20.39,6.77,0,0-4.02-.92-3.96.47.07,1.39.35,10.89,1.74,13.41,1.4,2.52,2.76,2.45,2.69,5.13-.05,1.85-.89,4.25-1.42,5.6-.76-1.01-1.64-2.04-2.75-3.16-1.13-1.13-1.98-2.83-2.31-4.41-.85-4.15-1.34-8.38-1.98-12.58-.47-3.07-1.7-6.24-1.3-9.18.98-7.21,2.75-11.33,8.88-16.48,2.64-2.22,2.71-2.75,4.62-5.81,2.34-3.75,5.1-1.6,9.67-2.93,3.63-1.05,5.11-3.88,7.3-2.24.66.5,1.62.61,2.26,1.12,1.99,1.6,6.12-2,7.93-.2,3.2,3.19,5.57,5.73,8.55,9.13,1.4,1.59,2.43,3.53,3.52,5.37.56.94.94,2.01,1.28,3.06,1.2,3.69,3.73,7.58,3.27,11.06-1.24,9.3-1.13,19.22-7.93,26.99.16-4.71,4.8-21.18,1.8-21.45Z"/>
              <path class="uuid-5a3935f3-6b21-4234-a9cc-56ae731dff41" d="m488.32,980.77s-27.33-.25-30.17,0-2.72-2.99-2.97-4.73c-.25-1.74,3.34-6.84,4.7-8.21.85-.85,1.9-4.14,2.58-6.49.77.6,1.66,1.13,2.74,1.51,4.12,1.45,17.81,3.53,21.6,3.53.56,0,1.13-.06,1.7-.15.48,3.34,1.63,6.77,1.44,7.95-.25,1.49,0,6.59-1.61,6.59Z"/>
              <path class="uuid-5a3935f3-6b21-4234-a9cc-56ae731dff41" d="m586.51,966.71c.87,2.12,5.56,5.72,6.18,7.22.62,1.49,1.24,6.85-1.48,6.85s-22.38,0-24.86,0-3.59-2.75-3.46-4.62c.12-1.87-.02-7.34,0-8.09,0-.56,1.05-4.43,1.59-6.38,3.66.25,9.37.82,14.99,1.2,2.52.17,4.77-.4,6.81-1.28-.16,1.68-.25,3.88.24,5.1Z"/>
              <path class="uuid-6c729634-5570-4847-bf96-3458a58765bd" d="m578.63,704.47c-.16-3.65,1.32-18.08,1.32-18.08l3.79,1.66s6.27,3.65,8.24,4.98c1.98,1.33,4.39,2.14,6.02-.5-3.46,4.98-7.03,14.36-8.3,16.72-1.84,3.43-4.31,2.91-4.35,4.49-3.26-3.13-6.56-5.62-6.72-9.27Z"/>
              <path class="uuid-b92d3335-259a-417c-b518-06f18a7d7792" d="m453.08,699.74c-.37-1.12-6.68-17.67-9.66-23.64-2.98-5.97.51-60.21.01-66.68-.49-6.47,12.86-52.25,14.34-55.89,1.48-3.64,0-11.29,4.45-16.26,4.45-4.98,33.04-15.76,33.04-15.76,1.15.56,2.81.35,4.19.14.6-.09,1.11-.26,1.6-.44,3.99,6.87,11.89,15.72,26.3,16.05,17.44.4,23.93-11.92,26.14-18.42,2.92.96,4.71-2.05,7.47-1.16,3.66,1.18,35.81,12.37,38.53,15.61,2.72,3.23,4.95,25.13,5.44,28.36.49,3.23,3.96,15.18,3.71,23.89-.25,8.71,4.7,52.25,2.72,63.44s-7.42,16.92-8.9,25.63c-1.48,8.71-.99,12.94-4.45,17.91-1.63,2.64-4.04,1.82-6.02.5-1.98-1.33-8.24-4.98-8.24-4.98l-3.79-1.66h0l-1.65-5.64s-6.76,3.81-15.17,4.48c-8.41.66-31.66,4.98-38.58,5.81-6.92.83-29.84-.83-33.8-1.16-3.96-.33-13.19-.5-15-.5h-4.95s.99,6.3.82,7.63h0c-.16,1.33-10.63,4.73-14.59,3.73-.49-.75-3.59.12-3.96-1Z"/>
              <path class="uuid-6c729634-5570-4847-bf96-3458a58765bd" d="m471.63,697.01s1.81,4.48,2.14,6.3c.33,1.82,1.15,11.78-4.72,15.01,0,0-9.78-6.63-10.4-8.63-.62-1.99-1.11-8.21-1.61-8.96,3.96,1,14.43-2.4,14.59-3.73Z"/>
              <path class="uuid-e89b9f8b-70ce-49a6-bb99-80fcb32e66f6" d="m473.77,703.31c-.33-1.82-2.14-6.3-2.14-6.3.16-1.33-.82-7.63-.82-7.63h4.95c1.81,0,11.05.17,15,.5,3.96.33,26.88,1.99,33.8,1.16,6.93-.83,30.17-5.14,38.58-5.81,8.41-.66,15.17-4.48,15.17-4.48l1.65,5.64s-1.48,14.43-1.32,18.08c.17,3.65,3.46,6.14,6.72,9.27-.09,3.23,1.39,12.28,1.84,15.44.87,6.04,1.36,12.15,1.77,18.24,1.09,16.07,2.26,32.14,2.99,48.23.46,10.14-.74,20.03-4.38,29.79-1.76,4.72-.81,10.6-.46,15.91.25,3.78,1.77,7.46,2.3,11.25.93,6.62,1.32,13.31,2.34,19.91.76,4.89,2.55,9.63,3.18,14.53,1.66,13,3.11,26.04,4.3,39.09.9,9.88,2.43,19.86-3.56,29.07-2.33,1.68-5.44,4.68-9.41,6.4.12-1.24.28-2.2.28-2.2,0,0-.16.96-.28,2.2-2.04.88-4.29,1.45-6.81,1.28-5.62-.38-11.33-.94-14.99-1.2.19-.67.31-1.13.31-1.13,0,0-.13.45-.31,1.13-1.17-.08-2.14-.13-2.82-.13-2.77,0-4.66.99-5.04-2.21-1.25-11.59-1.79-23.3-4-34.69-4.48-23.03-4.79-46.11-3.52-69.38.3-5.45.17-11.41-1.67-16.42-7.29-19.83-10.94-40.35-13.38-61.2-.76-6.48-2.08-12.93-3.66-19.27-.41-1.65-2.58-3.6-4.23-3.93-1.17-.23-3.66,1.75-4.14,3.21-1.7,5.24-3.09,10.62-4.06,16.04-2.06,11.47-3,23.2-5.93,34.42-2.08,7.97-5.01,15.63-5.12,24.02-.04,3.12-.18,6.38-1.08,9.33-3.29,10.78-2.59,21.7-1.86,32.67.68,10.24,2.26,20.56,1.61,30.72-1.24,19.51-3.86,38.86-7.5,58.06-2.86.96-6.27,2.78-9.57,3.3-.13-.88-.22-1.76-.21-2.58,0,.83.09,1.7.21,2.58-.57.09-1.14.15-1.7.15-3.79,0-17.48-2.08-21.6-3.53-1.08-.38-1.97-.91-2.74-1.51.41-1.42.68-2.51.68-2.51,0,0-.27,1.08-.68,2.51-2.16-1.68-3.29-3.92-4.58-4.98,0,0,0,0,0,0,.56-3.56,1.02-8.27.24-10.98-.04-.14-.08-.28-.09-.42-.67-9.2-2.31-18.47-1.77-27.6.86-14.62,3.39-29.13,4.8-43.73,1.05-10.89,1.43-21.84,2.15-32.76.5-7.51,1.32-15.01,1.52-22.52.15-5.53-.75-11.08-.69-16.62.18-15.54.31-31.09,1.05-46.6.54-11.35,2.01-22.65,3.11-33.96.09-.97.54-1.91.86-2.85,5.88-3.23,5.05-13.19,4.72-15.01Z"/>
            </g>
            <g class="uuid-00ad37cf-475f-4cbb-b5a4-8b7b7a4d7f92">
              <path class="uuid-292abf14-ca18-4e95-8eb4-8c533449d633" d="m501.05,521.21q.75,1.29,0,0h0Z"/>
              <path class="uuid-292abf14-ca18-4e95-8eb4-8c533449d633" d="m478.06,974.92c.74-1.49,2.82-2.96,3.22-5.97.4-3.01,0-5.97,0-5.97,0,0,5.44-12.44,4.95-26.37-.49-13.93,4.7-32.34,1.73-48.27-2.97-15.92,6.43-8.46,4.2-17.42-2.23-8.96-3.96-18.91-3.22-20.9.74-1.99,5.44-15.43,4.7-18.16-.74-2.74-3.67-7.46-3.69-9.45-.02-1.99,7.64-15.67,11.35-25.63,3.71-9.95-4.95-16.67,3.22-24.13,8.16-7.46,5.4-13.72,8.76-15.94,3.36-2.22,12.86-2.24,12.86-2.24-1.17-.23-3.66,1.75-4.14,3.21-1.7,5.24-3.09,10.62-4.06,16.04-2.06,11.47-3,23.2-5.93,34.42-2.08,7.97-5.01,15.63-5.12,24.02-.04,3.12-.18,6.38-1.08,9.33-3.29,10.78-2.59,21.7-1.86,32.67.68,10.24,2.26,20.56,1.61,30.72-1.24,19.51-3.86,38.86-7.5,58.06-2.86.96-6.27,2.78-9.57,3.3.48,3.34,1.63,6.77,1.44,7.95-.25,1.49,0,6.59-1.61,6.59,0,0-4.8-.04-10.57-.08-.06-2.61-.02-5.12.31-5.77Z"/>
              <path class="uuid-292abf14-ca18-4e95-8eb4-8c533449d633" d="m588.31,577.33c.11.99.12,1.94.08,2.89-.22-3.12-.28-4.62-.08-2.89Z"/>
              <path class="uuid-292abf14-ca18-4e95-8eb4-8c533449d633" d="m468.66,719.38c-.41.06-.82.12-1.24.14.16-.52.31-1.23.47-2,.7.49,1.15.8,1.15.8-.12.35-.25.71-.38,1.06Z"/>
              <path class="uuid-292abf14-ca18-4e95-8eb4-8c533449d633" d="m533.71,686.39c-3,.12-14.84,4.87-14.84,4.87,0,0,8.15.64,16.08,1.01,7.99.38,16.96-3.13,21.8-1.61,4.84,1.52,6.26,1.03,7.52,4.38,1.26,3.35,1.51,8.8,2.42,11.66,1.98,6.39-2.47,17.5,3.63,30.19,6.1,12.69-1.24,21.73,3.05,31.51,4.29,9.79-1.4,9.37.25,17.33,1.65,7.96-6.27,38.15-3.3,42.38,2.97,4.23,9.15,10.2,5.19,18.16-3.96,7.96-8.66,8.96-5.44,12.44,3.21,3.48-.74,23.14,4.45,33.84,5.19,10.7,11.87,35.83,10.39,44.04-1.48,8.21-5.94,17.66-5.19,19.66.74,1.99-.25,6.64-.25,6.64,0,0,1.73,1.41,2.23,3.48.49,2.07,1.48,3.57.99,6.05-.49,2.49-4.55,3.1-4.62,5.72-.03.98-.04,1.88-.03,2.63,5.78,0,11.77,0,13.19,0,2.72,0,2.1-5.36,1.48-6.85-.62-1.49-5.32-5.1-6.18-7.22-.5-1.21-.41-3.42-.24-5.1,3.97-1.72,7.09-4.72,9.41-6.4,5.99-9.21,4.46-19.19,3.56-29.07-1.19-13.05-2.64-26.09-4.3-39.09-.62-4.9-2.42-9.64-3.18-14.53-1.02-6.6-1.41-13.29-2.34-19.91-.53-3.79-2.06-7.46-2.3-11.25-.35-5.31-1.3-11.2.46-15.91,3.64-9.77,4.84-19.65,4.38-29.79-.73-16.09-1.9-32.16-2.99-48.23-.41-6.1-.89-12.2-1.77-18.24-.46-3.16-1.93-12.21-1.84-15.44.04-1.58,2.51-1.06,4.35-4.49,1.27-2.36,4.84-11.74,8.3-16.72,3.46-4.98,2.97-9.21,4.45-17.91,1.48-8.71,6.92-14.43,8.9-25.63,1.98-11.2-2.97-54.74-2.72-63.44.25-8.71-3.21-20.65-3.71-23.89-.49-3.23-2.72-25.13-5.44-28.36s-34.87-14.43-38.53-15.61c-2.76-.89-4.55,2.12-7.47,1.16,0,0-.02,0-.03,0-7.54-2.5-10.94-9.13-8.08-16.78.64-1.72,1.36-3.56,2.54-4.9,6.8-7.77,6.69-17.69,7.93-26.99.46-3.48-2.06-7.37-3.27-11.06-.34-1.05-.72-2.12-1.28-3.06-1.09-1.85-2.12-3.78-3.52-5.37-2.98-3.39-3.37-2.56-5.86-6.34-.12-.18-.27-.42-.43-.66-.67-.69-1.36-1.39-2.1-2.13-1.81-1.8-5.94,1.8-7.93.2-.64-.51-1.6-.62-2.26-1.12-.97-.73-1.81-.55-2.75-.07-.14,1.34-.25,2.7.82,3.99,2.15,2.57-.99.48,0,1.82.99,1.34,1.49,18.18,2.56,19.51s11.71,1.08,10.88,7.71c-.82,6.63-6.84,4.13-6.92,8.03-.08,3.9,2.56,6.77,2.72,10.19.17,3.42-.58,8.64-.91,9.3s-6.1,4.98-6.76,6.55c-.66,1.58,2.47,5.14,2.72,10.28.25,5.14,12.7,6.3,25.31,6.39,12.61.08,11.79,17.91,14.92,22.56,3.13,4.64-3.96,24.63-3.3,33.01.66,8.38-1.32,32.68,1.4,39.89,2.72,7.22-3.38,8.46.99,20.98,4.37,12.52-.58,26.5-3.67,29.4-2.47,1.82-3.03,8.26-5.94,8.04-2.91-.21-7.81,3.83-14.1,4.6-6.29.77-10.48,3.45-13.48,3.57Zm44.6-5.64c.66-3.28,4.44-6.47,4.86-8.63.99-4.98,5.51-25.88,3.37-31.6-2.14-5.72.26-13.93-1.43-20.9-1.69-6.97,1.59-11.2,1.43-21.4-.13-8.52,1.65-13.22,1.85-18.01-.22-3.12-.28-4.62-.08-2.89.11.99.12,1.94.08,2.89.53,7.64,2.01,25.07,2.94,29,1.4,5.95,4.95,20.61,2.72,26.58-2.23,5.97,2.7,8.71-1,16.92-3.7,8.21-6.99,24.13-7.94,24.13-.71,0-3.06,8.31-5.16,9.54l-1.65-5.64Z"/>
            </g>
          </g>
          <g>
            <path class="uuid-79634437-2e64-4c61-98de-2f76813101dc" d="m230.55,687.83c.14-.43-.06-1.01-.2-1.49-2.59-8.61.03-16.57,3.5-24.18,2.39-5.24,3.46-10.52,3.14-16.15-.35-6.26-.84-12.5-1.33-19.75-.7,1.24-1.35,2.36-1.98,3.43-.39,2.61-.72,5.24-1.13,7.88-.36,2.3-.9,7.47-2.22,6.49,1.32.98,1.86-4.18,2.22-6.49.41-2.64.74-5.27,1.13-7.88-1.22,2.1-2.32,3.99-3.26,5.91-1.43,2.9-2.98,5.85-3.7,8.97-.72,3.12-.54,6.23-2.26,9.36-1.37,2.49-.69,6.14-1.04,10.88-.27.39-1.55,2.22-2.99,4.29,2.12,4.28,1.92,8.25-1.87,11.63-.63.56-1.05,1.86-.92,2.71.71,4.61-2.38,9.39.79,13.97.66.95.21,2.99-.24,4.36-1.29,3.97-1.08,7.64-.13,11.31.8,3.09,2.11,6.17,3.51,9.42,6.22-11.31,5.39-23.57,9-34.67Z"/>
            <path class="uuid-b61a0fa3-6fcb-4c68-b669-a0a180af5f3e" d="m211.07,565.68c.02-.55.03-1.07.04-1.56-.04.62-.04,1.17-.04,1.56Z"/>
            <path class="uuid-f89c642a-8784-44fa-9a1d-95dd9a170613" d="m299.43,953.72c-.36-11.09-.86-59.91.78-70.88,1.36-9.08,2.29-18.27,1.82-27.78-.34-6.86-2-13.02-4.76-19.37-3.7-8.5-3.28-15.56-2.91-24.52.43-10.3-2.33-24.67-7.62-33.49-4.7,3.69-4.14,11.71-5.27,17.13-.25,1.22-.66,2.42-1.12,3.61,1.28,9.02,2.25,17.22,1.5,25.56-.04.5-.22.99-.31,1.48-2.11,12.29-1.74,24.66-.54,36.97.89,9.04,1.84,18,.17,27.03-.18.99-.26,2.03-.15,3.03.59,5.8,3.53,49.25.26,55.11,4.34,5.32,11.26,6.55,18.14,6.13Z"/>
            <path class="uuid-f89c642a-8784-44fa-9a1d-95dd9a170613" d="m225.35,945.65c-.58-2.75-1.25-5.41-2.07-7.85.82,2.44,1.5,5.09,2.07,7.85.43-.49.85-.99,1.26-1.49-.37-6.22-1.07-12.69-1.57-18.18-1.34-14.68-1.47-29.08,1.3-43.59,2-10.46,5.16-19.3,5.16-30.13,0-12.22,1.1-23.4,2.81-35.13,1.95-13.41.66-27.46,4.97-40.56,2-6.08,5.19-11.66,7.05-17.85,1.86-6.2,1.68-12.71,3.22-18.89,1.71-6.87,3.6-13.83,4.71-20.89-12.49-11.75-20.06-27.43-23.92-32.59.14.48.34,1.06.2,1.49-3.61,11.1-2.78,23.37-9,34.67,2.05,4.95,6.47,21.26,5.45,25.99-1.03,4.73-4.06,10.64-9.01,9.44-1.06,7.62-2.76,15.32-3.08,23.08-.51,12.11-.61,24.3.15,36.39.39,6.22.53,11.96-2.04,17.74-3.1,6.98-4.55,14.38-4.98,22.06-.35,6.29-1.08,12.61-2.24,18.8-2.72,14.52-4.04,29-.71,43.6.33,1.46.68,3.14.31,4.52-1.86,6.83.16,13.37,1.25,19.97.32,1.97.52,4.38,1.74,5.7,7.19,4.54,12.54.92,16.97-4.13Z"/>
            <path class="uuid-f89c642a-8784-44fa-9a1d-95dd9a170613" d="m331.37,744.54c2.09-3.87,3.89-8.52,5.46-13.3-3.79.52-12.75-1.53-46.63,1.5-14.96,1.33-26.77-5.18-35.94-13.8-1.11,7.07-3.01,14.02-4.71,20.89-1.54,6.19-1.36,12.7-3.22,18.89-1.86,6.19-5.05,11.77-7.05,17.85-4.31,13.1-3.02,27.15-4.97,40.56-1.71,11.73-2.81,22.91-2.81,35.13,0,10.83-3.16,19.67-5.16,30.13-2.77,14.51-2.64,28.9-1.3,43.59.5,5.49,1.2,11.96,1.57,18.18,5.26-6.5,9.23-14.18,13.63-10.35,7.96-5.71,8.96-8.82,5.91-17.52-.33-.95-1.01-1.85-1.09-2.81-.19-2.2-.9-4.85,0-6.57,2.49-4.74,2.42-9.71,2.73-14.76.21-3.5.73-7.13,1.95-10.38,3.46-9.25,1.67-19.72,6.7-28.56.11-.2.09-.5.06-.75-.71-7.11,1.66-13.4,4.91-19.52,1.06-1.99,1.88-4.16,2.48-6.34,2.72-9.82,7.17-18.88,12.07-27.73.76-1.38,2.03-2.49,3.79-4.6.2,1.41.4,2.79.6,4.16.47-1.19.87-2.39,1.12-3.61,1.13-5.43.58-13.45,5.27-17.13,5.29,8.82,8.05,23.19,7.62,33.49-.37,8.96-.79,16.02,2.91,24.52,2.76,6.35,4.42,12.52,4.76,19.37.47,9.51-.47,18.7-1.82,27.78-1.64,10.97-1.14,59.79-.78,70.88,9.24-.57,18.41-4.12,21.2-4.8.02,0,.04-.01.06-.02-.19-2.95,0-43.62,1.63-46.66,1.53-2.89.53-7.42-.03-11.09-1.28-8.45-1.49-16.84-.01-25.3.84-17.46,7.58-66.53,10.32-86.23.66-4.73,2.3-9.55,4.51-14.49,1.53-13.98,2.77-34.55.19-33.97-.15.03-.3.06-.47.08-1.57,4.78-3.37,9.44-5.46,13.3Z"/>
            <path class="uuid-69ca079d-9176-4e55-8096-a6058cecc611" d="m213.42,750.91c-2.8-5.78-5-12.03-7.03-18.19-1.53-4.63-2.03-9.56-2.35-14.56-4.14-.01-8.41-.85-12.2-2.02.22,1.62.32,3.28.24,4.99-.24,5.01.34,10.09.89,15.1.76,7.03,4.4,12.4,10.62,15.59,4.02,2.07,8.29,3.64,12.56,5.37.26-2.14-1.41-3.56-2.73-6.28Z"/>
            <path class="uuid-69ca079d-9176-4e55-8096-a6058cecc611" d="m227,748.49c1.03-4.73-3.4-21.04-5.45-25.99-1.4-3.25-2.71-6.33-3.51-9.42-3.58,3.76-8.68,5.1-14.01,5.09.31,4.99.82,9.93,2.35,14.56,2.04,6.16,4.24,12.41,7.03,18.19,1.32,2.73,2.99,4.15,2.73,6.28.61.25,1.23.49,1.84.74,4.95,1.19,7.99-4.72,9.01-9.44Z"/>
            <path class="uuid-69ca079d-9176-4e55-8096-a6058cecc611" d="m276.12,531.31c.88-9.21,2.36-19.16,1.79-29.67-.19-3.54-.53-7.45-.77-11.47-.38,1.5-.56,3.05-.42,4.61.15,1.77.91,4.19-.48,5.66-1.69,1.77-3.46-.22-4.54-1.55-1.16-1.43-2.89-1.84-4.61-2.05-2.75-.33-6.06-.15-8.42-1.77-.05,3.58.49,7.13,1.67,10.52.26.74-.31,1.25-.9,1.18,1.22,2.6,3.03,4.92,5.25,6.98,3.19,2.94,4.53,5.79,3.69,9.42,0,2.04,3.04,6.38,7.22,10.72.24-.82.42-1.67.51-2.58Z"/>
            <path class="uuid-69ca079d-9176-4e55-8096-a6058cecc611" d="m277.87,487.91c-.3.73-.53,1.49-.73,2.26.24,4.03.58,7.94.77,11.47.57,10.51-.91,20.45-1.79,29.67-.09.91-.26,1.76-.51,2.58,6.64,6.89,16.15,13.78,20.96,11.49,7.83-3.74,4.5-19.31,8.62-21.08-4.31-.99-4.31-1.58-4.31-2.17,0,.59,0,1.18,4.31,2.17,4.11-1.77,11.87-8.01,10.56-18.16-.62-4.79-1.15-9.02-1.71-13.25-.98-7.3-3.25-14.11-7.26-20.23-6.3.74-12.71,1.62-18.46,4.47-4.53,2.25-8.46,5.98-10.44,10.77Z"/>
            <path class="uuid-627d50e8-803a-4fce-b348-ade6421f2d28" d="m226.81,954.57c.11-3.22.01-6.77-.21-10.42-.41.51-.83,1.01-1.26,1.49.61,2.9,1.08,5.91,1.47,8.92Z"/>
            <path class="uuid-627d50e8-803a-4fce-b348-ade6421f2d28" d="m227.97,967.94c-.21-4.18-.58-8.77-1.16-13.37-.08,2.29-.26,4.42-.6,6.28.34-1.86.52-3.99.6-6.28-.38-3.02-.86-6.03-1.47-8.92-4.43,5.04-9.78,8.66-16.97,4.13,4.3,4.67,2.42,9.3.68,14.1-1.29,3.55-3.01,7.04-3.6,10.71-1.29,8,2.02,13.05,9.82,14.31,3.78.61,7.62.93,11.44.79.4-7.09,1.62-14.62,1.26-21.74Z"/>
            <path class="uuid-627d50e8-803a-4fce-b348-ade6421f2d28" d="m226.61,944.15c.22,3.65.32,7.2.21,10.42.58,4.6.95,9.19,1.16,13.37.36,7.13-.86,14.66-1.26,21.74,3.19-.12,6.38-.56,9.52-1.46,5.96-1.71,7.64-3.64,7.4-9.71-.21-5.28-1.16-10.52-1.83-15.78-.28-2.24-1.24-4.56-.91-6.68,1.17-7.55,1.01-15.03-.65-22.25-4.39-3.82-8.37,3.86-13.63,10.35Z"/>
            <path class="uuid-386a8ec9-1f80-4b9d-b53d-7761401c7e97" d="m201.68,697.85c-3-10.44-1.07-24.06.43-35,.96-7,3.7-13.64,5.17-20.57,1.28-6-.3-11.76.59-17.72,1.1-7.32,4.23-12.9,7.78-19.34,3.59-6.51,4.27-14.23,8.77-20.24,2.27-3.03,5.47-5.02,6.52-8.88.74-2.73-.07-5.3,1-8.13,2.49-6.56,8.18-10.95,14.09-14.35,9.43-5.43,26.29-8.74,29.58-19.73-4.19-4.34-7.23-8.69-7.22-10.72-3.5,3.16-7.37,5.52-9.66,8.95-4.67,6.99-11.31,9.66-19,10.85-7.49,1.15-13.65,4.85-19.19,9.86-2,1.81-4.39,3.19-6.35,5.04-1.17,1.11-2.18,2.62-2.69,4.15-.24.7-.33,1.45-.38,2.11,0,.49-.02,1-.04,1.56,0,.14,0,.26-.01.35-.66,15.4-.25,23.07-5.15,33.02-.41,7.28-2.72,13.6-6.26,19.55-6.97,11.74-10.59,24.51-11.22,38.13-.4,8.62-.2,17.2,2.28,25.58,1.14,3.84,1.11,7.28-2.24,10.38-4.02,3.72-3.51,3.79-1.32,8.96,1.98,4.69,3.98,9.39,4.69,14.48,3.8,1.17,8.07,2.01,12.2,2.02-.43-6.87-.5-13.86-2.35-20.32Z"/>
            <path class="uuid-386a8ec9-1f80-4b9d-b53d-7761401c7e97" d="m368.63,621.22c0-42.95-21.74-68.95-23.5-78.61-1.76-9.65-35.64-17.34-39.95-18.32-4.11,1.77-.78,17.34-8.62,21.08-4.8,2.3-14.32-4.6-20.96-11.49-3.29,10.99-20.15,14.31-29.58,19.73-5.9,3.4-11.59,7.79-14.09,14.35-1.08,2.83-.26,5.4-1,8.13-1.05,3.86-4.24,5.85-6.52,8.88-4.5,6.01-5.18,13.73-8.77,20.24-3.55,6.44-6.68,12.02-7.78,19.34-.89,5.96.69,11.72-.59,17.72-1.47,6.93-4.21,13.57-5.17,20.57-1.49,10.94-3.43,24.56-.43,35,1.86,6.46,1.92,13.44,2.35,20.32,5.32.02,10.42-1.33,14.01-5.09-.95-3.67-1.16-7.34.13-11.31.45-1.37.89-3.4.24-4.36-3.17-4.58-.08-9.36-.79-13.97-.13-.86.29-2.15.92-2.71,3.8-3.38,3.99-7.35,1.87-11.63,1.44-2.07,2.72-3.9,2.99-4.29.35-4.74-.34-8.38,1.04-10.88,1.72-3.13,1.54-6.24,2.26-9.36.72-3.11,2.27-6.06,3.7-8.97.95-1.92,2.04-3.81,3.26-5.91.24-1.63.5-3.26.83-4.89,1.53-7.51,3.08-15.58,4.47-22.67,2.34,4.7,1.01,10.3,2.94,15.33,2.26,5.9,5.57,9.93,5.45,16.55-.13,7.34-2.46,13.2-.88,20.72,1.03,4.9,2.6,9.62,3.53,14.45.84,4.38.95,9.15,1.42,13.59.69,6.57,3,13.06,3.6,19.73.49,5.55.1,11.02-.76,16.43,9.17,8.62,20.98,15.13,35.94,13.8,33.88-3.02,42.84-.98,46.63-1.5,1.81-5.51,3.3-11.19,4.51-16.09,3.17-12.81,3.35-25.39,5.3-38.58,3.31-22.29,1.14-46.29-2.99-68.31-.99-5.29-3.59-21.94-4.27-30.1-.31-.42-.59-.78-.81-1.07.22.28.5.65.81,1.07-.08-.92-.13-1.76-.16-2.43.02.67.08,1.51.16,2.43,4.45,5.96,17.08,24.72,16.71,32.82-.39,8.67,7.07,56.27,0,63.4-7.06,7.13,1.95,20.53-1.97,28.8-3.92,8.27-12.53,23.25-16.84,27.97,6.6-2.19,12.03-.74,17.87.85,3.2-6.07,6.15-12.37,8.37-18.97,3.76-11.16,5.2-21.88,5.64-33.97-7.15-3.77-4.47.99-4.47.99,0,0-2.69-4.76,4.47-.99.57-15.65-.55-33.61-.55-57.84Z"/>
            <path class="uuid-386a8ec9-1f80-4b9d-b53d-7761401c7e97" d="m236.98,646.01c.32,5.63-.75,10.91-3.14,16.15-3.47,7.61-6.09,15.57-3.5,24.18,3.86,5.17,11.43,20.84,23.92,32.59.85-5.41,1.25-10.88.76-16.43-.59-6.67-2.91-13.16-3.6-19.73-.46-4.44-.58-9.21-1.42-13.59-.93-4.83-2.49-9.55-3.53-14.45-1.58-7.52.75-13.38.88-20.72.12-6.62-3.19-10.64-5.45-16.55-1.93-5.03-.6-10.64-2.94-15.33-1.39,7.09-2.94,15.16-4.47,22.67-.33,1.63-.59,3.25-.83,4.89.63-1.07,1.27-2.19,1.98-3.43.5,7.25.98,13.5,1.33,19.75Z"/>
            <path class="uuid-386a8ec9-1f80-4b9d-b53d-7761401c7e97" d="m356.11,674.38c7.06-7.13-.4-54.73,0-63.4.37-8.1-12.26-26.86-16.71-32.82.68,8.15,3.27,24.81,4.27,30.1,4.14,22.02,6.3,46.02,2.99,68.31-1.96,13.19-2.13,25.77-5.3,38.58-1.21,4.9-2.71,10.58-4.51,16.09.16-.02.32-.05.47-.08,4.31-4.73,12.92-19.7,16.84-27.97,3.92-8.27-5.09-21.67,1.97-28.8Z"/>
            <path class="uuid-627d50e8-803a-4fce-b348-ade6421f2d28" d="m299.43,953.72c-6.88.42-13.8-.8-18.14-6.13,2.11,7.59-.86,14.48-3.51,21.13-3.69,9.26-3.06,11.37,6.4,13.88.97.26,1.95.54,2.94.64,5.05.49,10.01,1.17,14.82,2.46-.82-7.12-2.28-14.46-2.28-20.88,0-3.7-.1-7.4-.22-11.11Z"/>
            <path class="uuid-627d50e8-803a-4fce-b348-ade6421f2d28" d="m299.43,953.72c.12,3.71.22,7.42.22,11.11,0,6.42,1.46,13.76,2.28,20.88,4.49,1.2,8.86,2.94,13.03,5.58,3.65,2.31,8.53,3,12.97,3.65,8.43,1.24,15.17-2.35,20.05-8.34,2.2-4.01-1.03-19.38-8.38-19.97-7.34-.59-11.74-.58-12.63-2.06-3.35-1.09-5.62-3.51-5.56-6.85.05-2.94-.53-5.87-.72-8.82-.02,0-.04.01-.06.02-2.79.68-11.96,4.23-21.2,4.8Z"/>
            <path class="uuid-0348a5ef-74af-423e-a33c-69f4509b6a9f" d="m281.69,460.74c10-1.03,18.4,2.52,24.08,10.42.35.49.67,1,1,1.5.42-.05.84-.1,1.26-.15.58-.07.88-.69.69-1.22-1.26-3.51-2.51-7.03-3.77-10.54-1.11-3.1-2.31-6.23-4.6-8.65-.9-.95-1.92-1.74-2.99-2.43-5.71,2.93-11.74,5.43-15.67,11.07Z"/>
            <path class="uuid-0348a5ef-74af-423e-a33c-69f4509b6a9f" d="m257.88,496.92c.44-3.74.17-7.57.28-11.36.37-12.17,5.82-20.13,15.84-23.22,2.65-.82,5.22-1.34,7.69-1.59,3.93-5.64,9.95-8.14,15.67-11.07-3.76-2.4-8.38-3.24-12.78-2.84-6.26.57-12.65,3.21-17.83,6.77-3.84,2.64-6.81,6.1-8.55,10.32-1.46,2.51-2.33,5.54-2.95,8.23-1.78,7.67-3.56,15.8-1.79,23.66.89,3.96,2.61,7.7,5.4,10.64.18.18.38.28.59.3-1.37-2.91-2-6.17-1.57-9.85Z"/>
            <path class="uuid-0348a5ef-74af-423e-a33c-69f4509b6a9f" d="m260.34,505.58c-1.19-3.39-1.72-6.94-1.67-10.52,2.36,1.62,5.67,1.43,8.42,1.77,1.72.21,3.45.63,4.61,2.05,1.08,1.33,2.85,3.32,4.54,1.55,1.39-1.47.63-3.89.48-5.66-.13-1.55.04-3.1.42-4.61-.51-8.53-.59-17.59,2.09-24.72.67-1.79,1.5-3.34,2.45-4.7-2.47.25-5.04.78-7.69,1.59-10.02,3.09-15.47,11.05-15.84,23.22-.12,3.79.16,7.61-.28,11.36-.43,3.68.2,6.94,1.57,9.85.59.07,1.16-.45.9-1.18Z"/>
            <path class="uuid-0348a5ef-74af-423e-a33c-69f4509b6a9f" d="m281.69,460.74c-.95,1.37-1.78,2.92-2.45,4.7-2.68,7.13-2.6,16.19-2.09,24.72.19-.77.42-1.53.73-2.26,1.98-4.79,5.91-8.52,10.44-10.77,5.75-2.86,12.16-3.74,18.46-4.47-.33-.5-.65-1.01-1-1.5-5.68-7.9-14.08-11.45-24.08-10.42Z"/>
            <g class="uuid-4983dfde-6f3d-4dd1-b52c-d5489dd084d7">
              <path class="uuid-7cb47379-3e2b-4a22-8ad5-530d8e96f6d1" d="m302.03,855.06c-.34-6.86-2-13.02-4.76-19.37-3.7-8.5-3.28-15.56-2.91-24.52.43-10.3-2.33-24.67-7.62-33.49-4.7,3.69-4.14,11.71-5.27,17.13-.25,1.22-.66,2.42-1.12,3.61,1.28,9.02,2.25,17.22,1.5,25.56-.04.5-.22.99-.31,1.48-2.11,12.29-1.74,24.66-.54,36.97.89,9.04,1.84,18,.17,27.03-.18.99-.26,2.03-.15,3.03.59,5.8,3.53,49.25.26,55.11,2.11,7.59-.86,14.48-3.51,21.13-3.69,9.26-3.06,11.37,6.4,13.88.97.26,1.95.54,2.94.64,5.05.49,10.01,1.17,14.82,2.46-.82-7.12-2.28-14.46-2.28-20.88,0-3.7-.1-7.4-.22-11.11-.36-11.09-.86-59.91.78-70.88,1.36-9.08,2.29-18.27,1.82-27.78Z"/>
              <path class="uuid-7cb47379-3e2b-4a22-8ad5-530d8e96f6d1" d="m277.91,501.64c-.19-3.54-.53-7.45-.77-11.47-.51-8.53-.59-17.59,2.09-24.72.67-1.79,1.5-3.34,2.45-4.7,3.93-5.64,9.95-8.14,15.67-11.07-3.76-2.4-8.38-3.24-12.78-2.84-6.26.57-12.65,3.21-17.83,6.77-3.84,2.64-6.81,6.1-8.55,10.32-1.46,2.51-2.33,5.54-2.95,8.23-1.78,7.67-3.56,15.8-1.79,23.66.89,3.96,2.61,7.7,5.4,10.64.18.18.38.28.59.3,1.22,2.6,3.03,4.92,5.25,6.98,3.19,2.94,4.53,5.79,3.69,9.42-3.5,3.16-7.37,5.52-9.66,8.95-4.67,6.99-11.31,9.66-19,10.85-7.49,1.15-13.65,4.85-19.19,9.86-2,1.81-4.39,3.19-6.35,5.04-1.17,1.11-2.18,2.62-2.69,4.15-.24.7-.33,1.45-.38,2.11,0,.49-.02,1-.04,1.56,0,.14,0,.26-.01.35-.66,15.4-.25,23.07-5.15,33.02-.41,7.28-2.72,13.6-6.26,19.55-6.97,11.74-10.59,24.51-11.22,38.13-.4,8.62-.2,17.2,2.28,25.58,1.14,3.84,1.11,7.28-2.24,10.38-4.02,3.72-3.51,3.79-1.32,8.96,1.98,4.69,3.98,9.39,4.69,14.48.22,1.62.32,3.28.24,4.99-.24,5.01.34,10.09.89,15.1.76,7.03,4.4,12.4,10.62,15.59,4.02,2.07,8.29,3.64,12.56,5.37.26-2.14-1.41-3.56-2.73-6.28-2.8-5.78-5-12.03-7.03-18.19-1.53-4.63-2.03-9.56-2.35-14.56-.43-6.87-.5-13.86-2.35-20.32-3-10.44-1.07-24.06.43-35,.96-7,3.7-13.64,5.17-20.57,1.28-6-.3-11.76.59-17.72,1.1-7.32,4.23-12.9,7.78-19.34,3.59-6.51,4.27-14.23,8.77-20.24,2.27-3.03,5.47-5.02,6.52-8.88.74-2.73-.07-5.3,1-8.13,2.49-6.56,8.18-10.95,14.09-14.35,9.43-5.43,26.29-8.74,29.58-19.73.24-.82.42-1.67.51-2.58.88-9.21,2.36-19.16,1.79-29.67Z"/>
              <path class="uuid-7cb47379-3e2b-4a22-8ad5-530d8e96f6d1" d="m251.42,682.77c-.46-4.44-.58-9.21-1.42-13.59-.93-4.83-2.49-9.55-3.53-14.45-1.58-7.52.75-13.38.88-20.72.12-6.62-3.19-10.64-5.45-16.55-1.93-5.03-.6-10.64-2.94-15.33-1.39,7.09-2.94,15.16-4.47,22.67-.33,1.63-.59,3.25-.83,4.89.63-1.07,1.27-2.19,1.98-3.43.5,7.25.98,13.5,1.33,19.75.32,5.63-.75,10.91-3.14,16.15-3.47,7.61-6.09,15.57-3.5,24.18.14.48.34,1.06.2,1.49-3.61,11.1-2.78,23.37-9,34.67,2.05,4.95,6.47,21.26,5.45,25.99-1.03,4.73-4.06,10.64-9.01,9.44-1.06,7.62-2.76,15.32-3.08,23.08-.51,12.11-.61,24.3.15,36.39.39,6.22.53,11.96-2.04,17.74-3.1,6.98-4.55,14.38-4.98,22.06-.35,6.29-1.08,12.61-2.24,18.8-2.72,14.52-4.04,29-.71,43.6.33,1.46.68,3.14.31,4.52-1.86,6.83.16,13.37,1.25,19.97.32,1.97.52,4.38,1.74,5.7,4.3,4.67,2.42,9.3.68,14.1-1.29,3.55-3.01,7.04-3.6,10.71-1.29,8,2.02,13.05,9.82,14.31,3.78.61,7.62.93,11.44.79.4-7.09,1.62-14.62,1.26-21.74-.21-4.18-.58-8.77-1.16-13.37-.38-3.02-.86-6.03-1.47-8.92.43-.49.85-.99,1.26-1.49-.37-6.22-1.07-12.69-1.57-18.18-1.34-14.68-1.47-29.08,1.3-43.59,2-10.46,5.16-19.3,5.16-30.13,0-12.22,1.1-23.4,2.81-35.13,1.95-13.41.66-27.46,4.97-40.56,2-6.08,5.19-11.66,7.05-17.85,1.86-6.2,1.68-12.71,3.22-18.89,1.71-6.87,3.6-13.83,4.71-20.89.85-5.41,1.25-10.88.76-16.43-.59-6.67-2.91-13.16-3.6-19.73Z"/>
              <path class="uuid-7cb47379-3e2b-4a22-8ad5-530d8e96f6d1" d="m356.1,610.98c.37-8.1-12.26-26.86-16.71-32.82.68,8.15,3.27,24.81,4.27,30.1,4.14,22.02,6.3,46.02,2.99,68.31-1.96,13.19-2.13,25.77-5.3,38.58-1.21,4.9-2.71,10.58-4.51,16.09.16-.02.32-.05.47-.08,4.31-4.73,12.92-19.7,16.84-27.97,3.92-8.27-5.09-21.67,1.97-28.8,7.06-7.13-.4-54.73,0-63.4Z"/>
            </g>
          </g>
          <g>
            <path class="uuid-f89c642a-8784-44fa-9a1d-95dd9a170613" d="m620.78,936.27c.48,5.18,5.79,27.36,5.17,33.47s-2.3,11.3-2.3,11.3h-67.75c-2.91,0-5.16-2.57-4.74-5.45.44-3.04,1.12-6.35,2.07-7.09,1.85-1.43,38.7-8.22,40.6-12.86,1.9-4.64,6.21-21.01,6.21-21.01l20.74,1.64Z"/>
            <path class="uuid-ed3c02b2-d5b6-43df-b974-a94f51d5323d" d="m577.94,717.11c-1.09,8.4-7.28,75.68-3.49,111.62,3.79,35.94,17.17,107.97,18.99,116.44,1.82,8.47,12.85,6.34,17.63,5.79,14.23-1.61,18.3-38.84,18.3-59.19,0-14.47,4.73-76.21,2.06-99.05-2.67-22.84,16.37-72.2,14.62-83.57-1.74-11.37-.52-33.84-.52-33.84,0,0-49.84,6.24-50.7,5.93s-16.89,35.88-16.89,35.88Z"/>
            <path class="uuid-bd1ea5fd-ff3c-4e93-9692-d320c35dc3de" d="m628.84,466.41s-.91-7.75-7.53-.77c-6.63,6.98-9.82,11.48-11.21,13.71s-12.72,4.38-11.16,7.09c1.56,2.71,2.52,5.49.77,7.35s-2.43,3.18-2.6,5.27c-.17,2.09-6.48,8.2-1.11,11.71,5.37,3.51,12.71,2.65,13.33,7.95.62,5.3,2.21,22.48,1.78,25.84-.43,3.36,24.21-1.59,26.23-5.55,2.02-3.96,6.94-46.7,6.94-46.7l-15.43-25.9Z"/>
            <path class="uuid-292abf14-ca18-4e95-8eb4-8c533449d633" d="m623.48,536.33c4.71-3.4,34.75-7.37,36.2,15.61,1.45,22.98,6.52,99.74,3.12,108.8-3.4,9.06-17.5,33.45-29.69,35.29s-34.51-1.66-34.51-1.66c0,0-12.26,22.42-16.08,28.66-3.82,6.23-19.22,8.86-24.06,2.81-4.84-6.05,11.68-34.44,13.66-38.81,1.97-4.36-5.3-6.41-5.31-24.19-.01-17.78,5.66-43.5,2.64-51.7-3.03-8.2-2.48-21.2,2.45-28.54,4.93-7.34,32.55-36.2,35.9-39.49s9.54-2.36,15.69-6.8Z"/>
            <path class="uuid-35b4e0fb-a2dc-4272-968c-40dff6fd764b" d="m621.31,465.63c3.24-4.1,39.64-7.53,43.11-2.56,3.47,4.97,29.45,11.44,17.99,30.15-11.46,18.7-19.46,31.63-17.07,44.99,2.39,13.36,14.65,72.29,10.66,87.64-3.99,15.35-14.21,37.63-16.61,45.35-2.4,7.72-1.86,15.93-.85,17.46s-15.61-16.78-15.21-34.61c.4-17.82,10.32-39.01,7.35-57.38-2.97-18.37-18.24-39.33-18.47-55.43s-1.37-25.89,1.7-27.9c3.07-2.01,11.04-4.6,9.2-9.76-1.84-5.16-18.03-3.27-18.03-3.27,0,0,2.38-13.92.85-19.94-1.53-6.02-4.62-14.76-4.62-14.76Z"/>
          </g>
          <g>
            <path class="uuid-5a3935f3-6b21-4234-a9cc-56ae731dff41" d="m147.51,966.55c-2.25,2.64,0,12.64,0,12.64,0,0-1.43,5.45,7.81,5.29,9.24-.16,33.32-2.39,33.32-2.39,0,0,46.12-1.61,47.95,0s-3.69-16.41-8.39-17.23-11.78-3.62-11.78-3.62l-19.71,6.45-19.28-6.45-29.92,5.32Z"/>
            <path class="uuid-9e17d03e-57eb-4ffe-b3ee-98f8d8b7f7cb" d="m152.65,457.45s24.23,1.23,25.46,2.87-1.51,7.8,2.12,8.62,12.25,13.55,12.25,19.3-3.29,16.84-4.93,21.35,1.64,21.35.41,26.28-18.07,29.57-29.16,27.1c-11.09-2.46-22.18-45.58-23-49.28-.82-3.7,16.84-56.26,16.84-56.26Z"/>
            <path class="uuid-35b4e0fb-a2dc-4272-968c-40dff6fd764b" d="m119.38,739.56s-3.29,9.23,0,19.23,10.27,26.92,11.09,34.61c.82,7.69,2.05,82.3,2.46,96.15.41,13.85,9.44,72.75,12.32,79.64,2.87,6.89,27.1-.8,32.03-1.38,4.93-.58,2.46-33.65,0-40.96-2.46-7.31-7.8-41.54-6.98-51.54.82-10,3.7-38.84,3.7-44.61s-1.23-29.23-.82-27.31,7.33,47.31,6.95,55.19,3.73,77.5,5.37,87.88,2.05,23.14,5.75,22.72,27.92,2.34,30.8,0,1.23-21.57,0-31.95-1.64-71.92,0-78.65c1.64-6.73,13.96-52.11,13.96-70.19s2.05-40.77,0-45.38c-2.05-4.62-116.62-3.46-116.62-3.46Z"/>
            <path class="uuid-5a3935f3-6b21-4234-a9cc-56ae731dff41" d="m148.13,448.83c-4.11.37-32.44,18.48-33.26,29.98-.82,11.5,4.52,39.83,13.55,43.94s21.76,15.19,32.03,7.39c10.27-7.8,11.09-22.59,13.14-29.16s6.16-10.27,6.57-12.32-1.23-7.8-2.05-9.03-6.16.41-9.03-3.29-7.39-28.75-20.94-27.51Z"/>
            <path class="uuid-e89b9f8b-70ce-49a6-bb99-80fcb32e66f6" d="m86.12,582.29c1.52-12.29,5.75-37.78,16.02-40.65s29.57-5.25,31.21-8.78c1.64-3.54,2.44-6.13,2.44-6.13,0,0,53.41,2.68,56.7,6.13s6.16,12.89,6.16,12.89l-6.16-.41s3.29,6.03,9.86,9.18c6.57,3.14,27.1,13,30.8,22.85,3.7,9.86,20.53,45.58,26.69,56.67,6.16,11.09,21.92,40.9,23.38,45.2,1.46,4.29,6.3,20.99,5.79,21.67s2.59,8.06,2.59,8.06l-19.68,5.25-.73-13.19-42.97-26.32s13.14,64.88,11.91,68.99-29.98,31.62-43.94,34.91c-13.96,3.29-46.87,4.85-60.39-5.58-13.52-10.43-17.63-18.65-18.45-23.16-.82-4.52-.41-36.14-.41-36.14,0,0-7.8,1.23-9.86-7.8-2.05-9.03-11.09-27.92-13.55-37.78s-6.98-40.24-7.39-57.49c-.41-17.25-.75-22.28,0-28.33Z"/>
          </g>
          <g>
            <path class="uuid-1f20d521-e688-452e-955f-3aa0cd2b3bf9" d="m628.4,190.44c-7.8-25.8-20.42-51.41-33.91-74.71-12.98-22.43-26.96-44.61-45-63.39-16.01-16.65-35.32-28.76-56.66-37.35-17.96-7.23-37.4-11.14-56.79-11.99-4.11-.9-8.23-1.69-12.45-2.17-7.45-.84-14.18-1.05-21.69-.6-14.71.88-29.34,2.39-43.9,4.71-26,4.15-51.19,11.45-74.71,23.41-23,11.7-43.15,28.02-58.87,48.49-16.23,21.13-28.43,45.4-38.8,69.85-10.76,25.38-17.41,51.76-17.76,79.43-.33,26.02,4.36,52.35,13.22,76.8,17.26,47.6,47.96,89.91,87.34,121.6,20.83,16.76,43.21,32.39,68.61,41.34,27.64,9.74,57.24,7.89,85.73,3.76,27.09-3.92,53.76-9.86,78.84-21.06,22.14-9.89,41.98-24.96,58.36-42.77,32.97-35.86,55.44-82.96,68.06-129.73,7.66-28.38,8.94-57.31.37-85.64Z"/>
            <path class="uuid-ecddf9bb-08c4-496e-abe5-41fa36e3a38a" d="m609.33,120.03c-1.31-8.26-5.17-16.6-8.69-24.15-13.94-29.92-39.86-55.46-69.16-70.29-7.46-3.78-15.45-6.8-23.66-8.85-4.08-2.47-8.87-3.72-13.83-3.2-.96.1-1.84.27-2.69.47-4.36-.34-8.74-.39-13.09-.08-2.04.14-2.64,3.11-.5,3.69,1.59.43,3.18.88,4.78,1.35-4,4-6.54,9.6-9.84,14.88-9.24,14.81-24.95,24.4-32.69,40.45-8.32,17.28-9.26,37.85,4.69,52.51,7.2,7.57,17.93,4.41,23.41-3.02,5.87-7.96,10.25-21.91,17.77-25.77,3.35-1.72,6.76-1.33,11.34.41,4.93,1.86,9.85,5.54,13.8,9.33.53.51,1.26,1.33,1.97,2.03-.04.06-.08.12-.12.17-.88,1.33-1.74,2.64-2.45,4.08-3.5,7-5.33,14.84-5.05,22.69.59,16.49,8.67,30.7,17.44,44.19,4.34,6.67,12.9,9.36,20.04,5.26,18.7-10.72,39.32-22.52,54.26-38.27,7.44-7.84,14.1-16.51,12.3-27.89Z"/>
            <path class="uuid-ecddf9bb-08c4-496e-abe5-41fa36e3a38a" d="m537.54,399.78c-.42-8.34-5.72-15.8-9.57-22.94-2.97-5.5-6.07-12.21-10.11-17.93.68-4.84,1.72-9.64.76-14.43-1.89-9.5-10.86-16.28-20.44-16.24-7.07.03-14.62,4.31-17.48,10.79-.43-.14-.87-.28-1.29-.42-2.05-.66-3.31,2-2,3.44.72.79,1.43,1.65,2.12,2.53,0,.36-.02.72.01,1.09.21,2.84,1.29,5.26,2.89,7.27-1.11,1.22-2.1,2.57-2.91,4.08-2.54-.09-5.08-.3-7.63-.07-13.2,1.19-24.18,9.65-30.2,21.32-5.84,11.31-8.95,27.76.19,38.26,9.87,11.35,29.04,8.1,42.56,8.35,13.94.26,28.92.49,41.71-6.05,7.25-3.71,11.83-10.81,11.41-19.04Z"/>
            <path class="uuid-ecddf9bb-08c4-496e-abe5-41fa36e3a38a" d="m469.35,394.39c-4.12-6.4-10.14-11.13-17.67-12.74-9.59-2.04-18.2,2.24-27.33,4.29-13.65,3.07-26.84.58-39.69-4.32-15.08-5.75-31.87-8.69-44.58,3.85-5.36,5.29-8.13,12.41-10.82,19.27-2.82,7.21-5.63,14.43-8.35,21.67-6.19,16.48-3.93,33.6,12.02,43.36,13.74,8.4,30.99,5.67,46.19,4.5,11.66-.9,23.39-2.06,34.94-4.09,12.16-.23,24.22-1.89,36.21-4.2,14.58-2.81,24.98-12.74,27.98-27.48,2.88-14.15-1.08-31.96-8.91-44.11Z"/>
            <g>
              <path class="uuid-ecddf9bb-08c4-496e-abe5-41fa36e3a38a" d="m389.88,78.16c-3.19-2.61-7.28-6.89-8.8-8.43,1.15,1.17-.07-.81-.1-.06-.04.88-.34-.16.25-1.26,1.63-3.04,3.86-5.68,5.89-8.45,8.98-12.24,9.31-27.11-.14-39.23-9.68-12.43-25.57-17.06-40.86-15.74-28.47,2.46-56.65,15.28-79.18,32.36-24.09,18.27-44.99,40.66-60.4,66.81-8.35,14.17-15.74,30.7-20.07,47.7-10.77,25.15-16.88,52.23-18,79.64-.75,18.36.73,37.14,4.8,55.08,3.78,16.68,11.13,38.37,32.45,34.63,3.44-.6,7.47-4.44,7.96-7.96,1.14-8.14-.27-14.94-5.21-21.62-2.45-3.32-5.26-6.19-8.24-9.03-1.34-1.27-3.06-2.72-4.47-4.32-.41-2.06-.79-4.12-1.14-6.18.17.02.34.04.53.07,4.04.71,9.17,3.13,13.71,4.1,4.46.96,10.19.84,14.75.75,3.11-.06,5.37-1.37,8.26-1.87-.83.14-.86.55.64.46,2.39-.14,5.32.14,7.56-.61.27-.09.49-.18.66-.26.05.02.09.04.14.06,2.03.79,4.5.85,6.64,1.03,4.56.39,9.37-.46,13.35-2.81,8.62-5.08,11.68-15.39,8.95-24.71-2.42-8.26-9.05-14.7-17.01-17.62-3.12-1.15-6.29-1.65-9.54-2.25-1.87-.35-3.73-.68-5.55-1.27.23,1.09.08.58-.08-.02-.02,0-.05-.01-.07-.02.03,0,.05.01.07.02-.11-.41-.21-.85-.21-.88.71-4.33-.5,2.26-.2-2.3.04-.64.04-1.01.02-1.24.11-.2.26-.53.48-1.09-.92,2.34,1.58-2.69,1.53-2.63,3.56-4.85,9.92-8.11,15.45-10.9,13.89-7.02,28.83-11.73,43.06-17.98,15.01-6.59,28.09-15.42,40.14-26.51,10.34-9.52,19.82-20.47,31.72-28.11,12.31-7.91,30.37-9.98,34.92-26.23,3.85-13.77-4.89-23.15-14.69-31.14Z"/>
              <path class="uuid-ecddf9bb-08c4-496e-abe5-41fa36e3a38a" d="m237.74,227.19s0,0,0,0c-.02,0-.05-.01-.08-.02,0,0,0,0,0,0,.03,0,.05.02.08.02Z"/>
              <path class="uuid-ecddf9bb-08c4-496e-abe5-41fa36e3a38a" d="m237.7,226.99c.02.07.03.13.04.19.96.2-.33-1.52-.04-.19Z"/>
            </g>
            <path class="uuid-02e5fa10-e5a4-42cf-bc5f-681dc7d30427" d="m262.09,221c-3.39-1.38-6.58-3.03-9.97-4.43.08.05.17.1.25.15-9.16-3.89-19.62-1.34-29.77-1.83-9.87-.48-19.1-3.02-28.73-4.9-9.66-1.89-19.22-3.98-27.33-10.08-8.28-6.23-13.23-18.55-6.44-27.57.37-.49-.33-1.07-.8-.8-10.46,5.9-12.86,18.8-8.54,29.37,5.21,12.77,16.12,21.67,26.6,29.99,12.64,10.04,29.49,12.94,45.25,13.71,7.75.38,16.66.66,24.2-1.33,8.04-2.12,12.52-8.17,17.44-14.13,2.49-3.02,1.39-6.71-2.15-8.15Z"/>
            <path class="uuid-02e5fa10-e5a4-42cf-bc5f-681dc7d30427" d="m661.84,227.15c-4.6-9.61-17.18-13.88-26.76-9.87-1.66.69-1.94,2.94-.3,3.86,3.64,2.03,7.32,2.64,11.16,4.1,3.86,1.46,7.07,4.34,6.05,8.81-1.92,8.34-12.11,14.04-18.82,18.04-18.72,11.15-39.92,17.28-60.82,22.89-22.75,6.11-45.81,10.94-69.11,14.42-23.09,3.44-46.38,5.57-69.6,7.96-26.96,2.78-53.76,3.28-80.82,3.4-3.79.02-4.31,6.03-.55,6.68,25.97,4.48,52.75,6.13,79.07,6.78,26.09.65,51.91-2.04,77.63-6.24,26.45-4.31,52.67-10.12,78.4-17.62,22.63-6.6,46.93-15.21,64.53-31.51,8.17-7.57,15.24-20.62,9.93-31.7Z"/>
            <path class="uuid-02e5fa10-e5a4-42cf-bc5f-681dc7d30427" d="m559.92,6.57c-13.22-2.59-26.59-2.28-40.01-1.91-12.86.35-25.93,1.33-38.54,3.95-4.43.92-3.83,8.02.79,8,12.1-.05,24.04.1,36.04,1.8,4.33.62,8.55,1.56,12.74,2.66-.93.41-1.87.8-2.85,1.17-8.14,3.1-16.66,5.2-25.07,7.39-20.44,5.32-40.92,10.66-61.58,15.06-40.67,8.67-83.88,13.21-125.16,6.2-18.62-3.16-36.27-10.22-49.34-24.23-.57-.61-1.45.1-1.14.81,6.62,15.2,21.64,23.83,36.76,28.86,19.41,6.46,40.56,8.45,60.9,9.06,46.26,1.39,92.8-6.93,137.83-16.72,21.19-4.61,45.89-8.95,62.8-23.65,5.76-5.01,4-16.85-4.16-18.45Z"/>
            <path class="uuid-02e5fa10-e5a4-42cf-bc5f-681dc7d30427" d="m533.64,359.05c-38.52,13.17-78.96,20.07-119.54,22.57-40.59,2.49-80.39-1.72-120.3-8.89-23-4.13-45.76-9.42-67.9-16.97-3.88-1.32-6.47,3.97-2.69,5.88,37.91,19.12,77.62,31.21,120,34.65,41.92,3.4,83.69,0,124.43-10.46,22.97-5.9,45.32-14.8,66.64-25.12,1.01-.49.45-2.02-.64-1.64Z"/>
            <path class="uuid-9cc7c1de-2a0c-45ff-b9f1-2f084db6c31a" d="m278.18,40.03c105.64-70.52,248.44-42.04,318.95,63.59,70.52,105.64,42.04,248.44-63.59,318.95"/>
            <path class="uuid-7e25144c-f4b5-4ed4-9fc1-f1539a99bf6c" d="m551.55,413.27c-97.3,81.64-242.36,68.94-323.99-28.36-81.64-97.3-68.94-242.36,28.36-323.99"/>
          </g>
          <g>
            <path class="uuid-1f20d521-e688-452e-955f-3aa0cd2b3bf9" d="m353.87,709.34c-.82,3.7-3.7,16.02-2.05,30.39,1.64,14.37,8.21,48.87,9.86,59.13,1.64,10.27,3.7,36.96,2.87,45.17-.82,8.21-1.64,21.35-1.64,21.35l12.73,28.75,19.3-33.67s4.93-26.28,5.34-36.55c.41-10.27,2.87-57.08,3.7-64.88.82-7.8,4.93-6.57,5.75-3.29.82,3.29,5.73,34.08,5.94,47.22s2.68,38.19,4.32,43.94c1.64,5.75,5.34,25.46,5.34,25.46l21.76,11.5s8.62-18.89,8.21-23c-.41-4.11-4.52-32.03-3.7-43.12.82-11.09,12.73-50.1,12.32-59.54-.41-9.44-4.11-51.74-4.11-51.74l-105.95,2.87Z"/>
            <path class="uuid-96c5e23b-40c7-41e9-a539-fa91a47613c1" d="m541.94,698.66s27.51-1.64,31.62,0,5.34,8.62,1.64,7.8c-3.7-.82-10.68.41-10.27,3.7s-6.16,12.73-9.86,11.91-22.18-9.71-23.82-12.04,10.68-11.36,10.68-11.36Z"/>
            <path class="uuid-96c5e23b-40c7-41e9-a539-fa91a47613c1" d="m291.04,707.12c-3.7-2.62-14.37-5.75-16.02-4.11-1.64,1.64-2.46,14.37,3.29,16.43s18.48,6.57,20.94,1.64-8.21-13.96-8.21-13.96Z"/>
            <path class="uuid-3e0b9c4a-54a4-45e2-9c14-d27b12db25f3" d="m395.34,858.44c2.05-.68-11.91-3.72-20.12-3.72s-16.02,2.61-16.02,2.61c.41,8.7,4.11,65.27,5.75,73.54,1.64,8.27,0,31.77,0,31.77.13.41.22.93.3,1.5-5.89,8.24-12.27,21.21-5.36,22.48,2.22.41,4.99.72,7.91.95.36.37.76.65,1.25.73,5.34.87,17.25,2.61,18.48,0,1.23-2.61,2.87-27.41,3.7-30.9s-1.64-28.29,0-36.55c1.64-8.27,2.05-61.74,4.11-62.42Z"/>
            <path class="uuid-3e0b9c4a-54a4-45e2-9c14-d27b12db25f3" d="m450.18,966c-.29-4.89-.64-9.65-.64-12.5,0-6.96,2.46-26.98,5.34-38.29,2.87-11.31,2.87-51.35,3.7-54.83.82-3.48-7.8-6.09-21.35-5.66-13.55.44-16.84,3.05-16.84,3.05,0,0,.41,19.15,0,26.11-.41,6.96,4.52,50.04,4.11,57.44-.33,5.91,2.23,28.76,4.11,39.04.07,2.66.41,4.58,1.23,4.91.55.87,2.82,1.3,5.64,1.35,8.55,1.64,23.36,3.38,23.16-1.35-.14-3.37-4.47-12-8.45-19.26Z"/>
            <path class="uuid-8179714a-9f89-4e1c-b282-ebdb02a238db" d="m407.66,550.83c-11.09.09-40.24-1.64-49.28,1.64-9.03,3.29-24.23,6.98-27.51,28.75-3.29,21.76-10.27,50.1-11.09,55.85-.82,5.75-20.12,57.54-24.64,63.29s-11.09,2.05-6.57,13.55,6.16,19.3,11.09,15.6c4.93-3.7,3.7-10.68,9.03-13.55s24.64-32.9,27.92-41.93,14.37-45.99,14.37-45.99c0,0,2.46,1.23,2.87,9.03.41,7.8-.41,39.83-.82,47.22s-5.75,30.8-1.64,41.06c4.11,10.27,10.68,38.19,41.06,38.19s41.06,4.11,50.51-2.87,19.17-25.74,23.83-52.15c4.89-27.77.64-52.97,1.46-60.78s-3.1-22.59-2.69-23,5.74,17.77,12.72,30.86c6.98,13.08,16.02,29.92,22.18,31.97s25.05,25.87,26.69,26.69,10.68-4.11,13.55-7.8,6.16-8.62,4.93-10.68c-1.23-2.05-23-25.46-26.28-31.21s-13.55-18.89-16.43-22.18-15.6-27.92-16.43-36.96c-.82-9.03-2.05-31.62-8.62-40.24-6.57-8.62-18.48-16.13-28.33-14.63s-36.14.21-41.89.26Z"/>
            <path class="uuid-bd1ea5fd-ff3c-4e93-9692-d320c35dc3de" d="m396.57,458.85c-5.59,2.44-18.07,11.5-21.76,24.64s-10.27,38.6-10.68,48.46c-.41,9.86-5.75,21.35-4.11,27.92s12.32,18.48,14.37,24.64,14.78,18.89,17.25,20.12,21.74-.41,24.83-2.05,9.66-8.62,13.36-12.32c3.7-3.7,5.34-11.91,9.44-15.6,4.11-3.7,3.29-9.44,6.16-10.27s1.64-15.6,0-21.76-4.93-33.67-6.16-41.89-5.34-24.64-11.09-29.57c-5.75-4.93-15.6-8.62-18.07-9.03s-11.69-4.1-13.55-3.29Z"/>
          </g>
          <line class="uuid-9cc7c1de-2a0c-45ff-b9f1-2f084db6c31a" y1="1001.35" x2="448.68" y2="1001.35"/>
          <line class="uuid-7e25144c-f4b5-4ed4-9fc1-f1539a99bf6c" x1="742.02" y1="985.19" x2="135.78" y2="985.19"/>
        </g>
      </g>
    </g>
  </g>
</svg>