<?xml version="1.0" encoding="UTF-8"?>
<svg xmlns="http://www.w3.org/2000/svg" width="500" height="500" xmlns:xlink="http://www.w3.org/1999/xlink" viewBox="0 0 500 500">
  <defs>
    <style>
      .uuid-b673f1ac-be07-4ba3-909b-300f675e4ef4, .uuid-89910fab-9eeb-4451-aaec-adb785b5e723, .uuid-8e172c06-14ff-4e11-a8e7-3758ced0e351, .uuid-477e1128-1095-4e1b-979b-18ac29c0536f, .uuid-e5b197a4-0ae8-4e19-9c18-305b90d099c0 {
        fill: none;
      }

      .uuid-89910fab-9eeb-4451-aaec-adb785b5e723 {
        stroke-dasharray: 0 0 0 2.08;
      }

      .uuid-89910fab-9eeb-4451-aaec-adb785b5e723, .uuid-8e172c06-14ff-4e11-a8e7-3758ced0e351, .uuid-477e1128-1095-4e1b-979b-18ac29c0536f, .uuid-e5b197a4-0ae8-4e19-9c18-305b90d099c0 {
        stroke: #262631;
        stroke-miterlimit: 10;
      }

      .uuid-89910fab-9eeb-4451-aaec-adb785b5e723, .uuid-8e172c06-14ff-4e11-a8e7-3758ced0e351, .uuid-e5b197a4-0ae8-4e19-9c18-305b90d099c0 {
        stroke-linecap: round;
      }

      .uuid-df746260-cd4f-40e2-8544-d6459f448ab9 {
        clip-path: url(#uuid-938b3c44-035d-4fb3-b9c1-140de8e969c2);
      }

      .uuid-09c74cc5-8058-421c-81ed-5c0930268297 {
        fill: #fff;
      }

      .uuid-cc5c0642-b885-48d4-b87c-38547339d119 {
        fill: #fbda6e;
      }

      .uuid-64d854c1-b6c7-46e2-88cb-e08d00c7ea01 {
        fill: #faf7f5;
      }

      .uuid-1a51ee28-f4fe-4ff6-a5ca-d93a560687d0 {
        fill: #c2c0c6;
      }

      .uuid-37f249d5-63cf-4f56-bd73-4372c28d4409 {
        fill: #8f8c95;
      }

      .uuid-a1648798-474a-4006-971a-fee5c6472947 {
        fill: #c9514a;
      }

      .uuid-1f958b2f-d7f3-4311-ac52-d99b7db642e7 {
        fill: #1d1d1b;
      }

      .uuid-477e1128-1095-4e1b-979b-18ac29c0536f {
        stroke-width: .75px;
      }

      .uuid-e5b197a4-0ae8-4e19-9c18-305b90d099c0 {
        stroke-dasharray: 0 0 0 2;
      }

      .uuid-96537b9d-ffd8-476b-83c5-0055f425efcd {
        fill: url(#uuid-5bfb25ca-451d-4c8b-81d6-5b1cb021e640);
        opacity: .25;
      }
    </style>
    <pattern id="uuid-5bfb25ca-451d-4c8b-81d6-5b1cb021e640" data-name="Lac asséché sableux USGS 17" x="0" y="0" width="72" height="72" patternTransform="translate(8214.96 6317.12) scale(2.42)" patternUnits="userSpaceOnUse" viewBox="0 0 72 72">
      <g>
        <rect class="uuid-b673f1ac-be07-4ba3-909b-300f675e4ef4" width="72" height="72"/>
        <path class="uuid-1f958b2f-d7f3-4311-ac52-d99b7db642e7" d="M21,3c-.06,0-.12-.02-.17-.07-.05-.05-.08-.11-.08-.18s.03-.13,.08-.18c.09-.09,.25-.09,.35,0,.05,.05,.07,.11,.07,.18,0,.06-.02,.12-.07,.17-.05,.06-.11,.08-.18,.08Z"/>
        <path class="uuid-1f958b2f-d7f3-4311-ac52-d99b7db642e7" d="M20,8.25c-.06,0-.13-.03-.18-.07-.04-.05-.07-.11-.07-.18s.03-.13,.07-.18c.1-.09,.26-.09,.36,0,.04,.05,.07,.11,.07,.18s-.03,.13-.07,.18c-.05,.05-.11,.07-.18,.07Z"/>
        <path class="uuid-1f958b2f-d7f3-4311-ac52-d99b7db642e7" d="M20.25,10.5c-.06,0-.13-.03-.17-.07-.05-.05-.08-.11-.08-.18s.03-.13,.07-.18c.1-.09,.27-.09,.36,0,.04,.05,.07,.11,.07,.18s-.03,.14-.08,.18c-.04,.04-.1,.07-.17,.07Z"/>
        <path class="uuid-1f958b2f-d7f3-4311-ac52-d99b7db642e7" d="M18,12.75c-.06,0-.12-.03-.17-.07-.05-.05-.08-.11-.08-.18s.03-.13,.07-.18c.11-.09,.26-.09,.36,0,.05,.05,.07,.11,.07,.18s-.02,.13-.07,.18c-.05,.04-.11,.07-.18,.07Z"/>
        <path class="uuid-1f958b2f-d7f3-4311-ac52-d99b7db642e7" d="M15.25,10.5c-.06,0-.12-.02-.17-.07-.05-.05-.08-.12-.08-.18,0-.07,.03-.13,.07-.18,.12-.1,.26-.09,.36,0,.05,.05,.07,.11,.07,.18,0,.06-.02,.13-.07,.17-.05,.06-.11,.08-.18,.08Z"/>
        <path class="uuid-1f958b2f-d7f3-4311-ac52-d99b7db642e7" d="M22.75,20c-.06,0-.12-.02-.17-.07-.05-.05-.08-.11-.08-.18,0-.06,.03-.13,.07-.17,.11-.11,.27-.1,.36,0,.05,.06,.07,.12,.07,.18s-.02,.13-.07,.18c-.05,.04-.11,.07-.18,.07Z"/>
        <path class="uuid-1f958b2f-d7f3-4311-ac52-d99b7db642e7" d="M15.25,23c-.06,0-.12-.02-.17-.07-.05-.05-.08-.11-.08-.18,0-.06,.03-.12,.07-.17,.12-.11,.26-.1,.36,0,.05,.05,.07,.12,.07,.18,0,.07-.02,.13-.07,.18-.05,.05-.11,.07-.18,.07Z"/>
        <path class="uuid-1f958b2f-d7f3-4311-ac52-d99b7db642e7" d="M14,24c-.07,0-.13-.03-.18-.08-.04-.04-.07-.1-.07-.17s.03-.13,.07-.18c.11-.1,.26-.09,.36,0,.05,.05,.07,.12,.07,.18,0,.07-.02,.13-.07,.18-.05,.04-.11,.07-.18,.07Z"/>
        <path class="uuid-1f958b2f-d7f3-4311-ac52-d99b7db642e7" d="M24,27c-.06,0-.12-.02-.17-.07-.05-.05-.08-.11-.08-.18s.03-.13,.07-.17c.11-.11,.26-.1,.36,0,.05,.06,.07,.12,.07,.18,0,.07-.02,.13-.07,.18-.05,.05-.11,.07-.18,.07Z"/>
        <path class="uuid-1f958b2f-d7f3-4311-ac52-d99b7db642e7" d="M30.75,25.75c-.06,0-.12-.02-.17-.07-.05-.05-.08-.11-.08-.18s.03-.13,.08-.18c.1-.09,.25-.09,.35,0,.05,.05,.07,.12,.07,.18s-.02,.13-.07,.18c-.05,.05-.11,.07-.18,.07Z"/>
        <path class="uuid-1f958b2f-d7f3-4311-ac52-d99b7db642e7" d="M31.25,23.25c-.06,0-.12-.03-.17-.07-.05-.05-.08-.11-.08-.18,0-.06,.03-.13,.07-.17,.11-.11,.26-.1,.36,0,.05,.06,.07,.12,.07,.18,0,.07-.02,.13-.07,.18-.05,.04-.11,.07-.18,.07Z"/>
        <path class="uuid-1f958b2f-d7f3-4311-ac52-d99b7db642e7" d="M29.25,18.25c-.06,0-.12-.02-.17-.07-.05-.05-.08-.11-.08-.18s.03-.13,.08-.18c.1-.09,.25-.09,.35,0,.05,.05,.07,.11,.07,.18s-.03,.13-.07,.18c-.05,.05-.12,.07-.18,.07Z"/>
        <path class="uuid-1f958b2f-d7f3-4311-ac52-d99b7db642e7" d="M32.25,18.25c-.06,0-.12-.02-.17-.07-.05-.05-.08-.11-.08-.18s.03-.13,.07-.18c.11-.09,.26-.09,.36,0,.04,.05,.07,.11,.07,.18s-.03,.13-.07,.18c-.05,.05-.11,.07-.18,.07Z"/>
        <path class="uuid-1f958b2f-d7f3-4311-ac52-d99b7db642e7" d="M32.5,13.75c-.06,0-.13-.03-.17-.07-.05-.05-.08-.11-.08-.18s.03-.13,.08-.18c.09-.09,.26-.09,.35,0,.05,.05,.07,.12,.07,.18s-.02,.12-.07,.17c-.05,.05-.11,.08-.18,.08Z"/>
        <path class="uuid-1f958b2f-d7f3-4311-ac52-d99b7db642e7" d="M31.75,11.75c-.06,0-.12-.02-.17-.07-.05-.05-.08-.11-.08-.18s.03-.13,.08-.18c.1-.09,.25-.09,.35,0,.05,.05,.07,.11,.07,.18s-.03,.13-.07,.18c-.05,.05-.11,.07-.18,.07Z"/>
        <path class="uuid-1f958b2f-d7f3-4311-ac52-d99b7db642e7" d="M29.25,10.75c-.07,0-.13-.03-.18-.07-.04-.05-.07-.11-.07-.18s.03-.13,.08-.18c.1-.09,.25-.09,.35,0,.05,.05,.07,.11,.07,.18s-.02,.13-.07,.18c-.05,.04-.11,.07-.18,.07Z"/>
        <path class="uuid-1f958b2f-d7f3-4311-ac52-d99b7db642e7" d="M32.25,7c-.06,0-.12-.02-.17-.07-.05-.05-.08-.11-.08-.18s.03-.13,.07-.18c.11-.09,.26-.09,.36,0,.05,.05,.07,.11,.07,.18s-.03,.13-.07,.18c-.05,.05-.11,.07-.18,.07Z"/>
        <path class="uuid-1f958b2f-d7f3-4311-ac52-d99b7db642e7" d="M32,3c-.06,0-.12-.03-.17-.07-.05-.05-.08-.11-.08-.18s.03-.13,.08-.18c.1-.09,.25-.09,.35,0,.05,.05,.07,.12,.07,.18s-.02,.13-.07,.18c-.05,.04-.11,.07-.18,.07Z"/>
        <path class="uuid-1f958b2f-d7f3-4311-ac52-d99b7db642e7" d="M29.25,3.25c-.06,0-.12-.02-.17-.07-.05-.05-.08-.11-.08-.18s.03-.13,.08-.18c.09-.09,.25-.09,.35,0,.05,.05,.07,.11,.07,.18,0,.06-.02,.13-.07,.17-.05,.06-.11,.08-.18,.08Z"/>
        <path class="uuid-1f958b2f-d7f3-4311-ac52-d99b7db642e7" d="M34,1.25c-.06,0-.13-.03-.17-.07-.05-.05-.08-.11-.08-.18s.03-.14,.08-.18c.09-.09,.26-.09,.35,0,.05,.05,.07,.11,.07,.18,0,.06-.02,.12-.07,.17-.05,.05-.11,.08-.18,.08Z"/>
        <path class="uuid-1f958b2f-d7f3-4311-ac52-d99b7db642e7" d="M41.5,7c-.06,0-.13-.03-.17-.07-.05-.05-.08-.11-.08-.18s.03-.13,.08-.18c.09-.09,.24-.09,.34,0,.06,.06,.08,.12,.08,.18s-.02,.12-.07,.17c-.05,.06-.11,.08-.18,.08Z"/>
        <path class="uuid-1f958b2f-d7f3-4311-ac52-d99b7db642e7" d="M45.5,6.75c-.06,0-.12-.02-.17-.07-.05-.05-.08-.11-.08-.18s.03-.13,.08-.18c.09-.09,.25-.09,.35,0,.05,.05,.07,.12,.07,.18s-.02,.13-.07,.18c-.05,.05-.12,.07-.18,.07Z"/>
        <path class="uuid-1f958b2f-d7f3-4311-ac52-d99b7db642e7" d="M40.25,10.25c-.06,0-.12-.02-.17-.07-.05-.05-.08-.12-.08-.18,0-.07,.03-.13,.07-.18,.11-.09,.26-.09,.36,0,.05,.05,.07,.11,.07,.18,0,.06-.02,.13-.07,.17-.05,.06-.11,.08-.18,.08Z"/>
        <path class="uuid-1f958b2f-d7f3-4311-ac52-d99b7db642e7" d="M45,11.75c-.06,0-.12-.02-.17-.07-.05-.05-.08-.11-.08-.18s.03-.13,.08-.18c.1-.09,.25-.09,.35,0,.04,.05,.07,.11,.07,.18s-.02,.13-.07,.18c-.05,.05-.11,.07-.18,.07Z"/>
        <path class="uuid-1f958b2f-d7f3-4311-ac52-d99b7db642e7" d="M45,13.5c-.06,0-.12-.02-.17-.07-.05-.05-.08-.11-.08-.18s.03-.13,.08-.18c.08-.09,.26-.09,.35,0,.05,.04,.07,.1,.07,.17s-.02,.13-.07,.18c-.05,.05-.11,.07-.18,.07Z"/>
        <path class="uuid-1f958b2f-d7f3-4311-ac52-d99b7db642e7" d="M47,14.25c-.06,0-.12-.02-.17-.07-.05-.05-.08-.11-.08-.18s.03-.13,.08-.18c.09-.09,.25-.09,.35,0,.05,.05,.07,.12,.07,.18s-.02,.13-.07,.18c-.05,.05-.11,.07-.18,.07Z"/>
        <path class="uuid-1f958b2f-d7f3-4311-ac52-d99b7db642e7" d="M47,16.25c-.06,0-.13-.03-.17-.07-.05-.05-.08-.11-.08-.18s.03-.13,.08-.18c.08-.08,.26-.09,.35,0,.05,.04,.07,.11,.07,.17s-.02,.13-.07,.18c-.05,.04-.11,.07-.18,.07Z"/>
        <path class="uuid-1f958b2f-d7f3-4311-ac52-d99b7db642e7" d="M47.25,22.75c-.06,0-.13-.03-.17-.07-.05-.04-.08-.11-.08-.18s.03-.13,.08-.18c.08-.08,.25-.09,.35,0,.05,.05,.07,.11,.07,.18s-.03,.13-.07,.18c-.05,.05-.11,.07-.18,.07Z"/>
        <path class="uuid-1f958b2f-d7f3-4311-ac52-d99b7db642e7" d="M39,20.75c-.06,0-.12-.02-.17-.07-.05-.05-.08-.11-.08-.18s.03-.13,.08-.18c.1-.09,.25-.09,.35,0,.04,.05,.07,.11,.07,.18s-.03,.13-.07,.18c-.05,.05-.11,.07-.18,.07Z"/>
        <path class="uuid-1f958b2f-d7f3-4311-ac52-d99b7db642e7" d="M50.25,13.5c-.06,0-.13-.03-.17-.07-.05-.05-.08-.11-.08-.18s.03-.13,.08-.18c.1-.09,.26-.09,.35,0,.05,.05,.07,.12,.07,.18s-.02,.13-.07,.18c-.05,.04-.11,.07-.18,.07Z"/>
        <path class="uuid-1f958b2f-d7f3-4311-ac52-d99b7db642e7" d="M52.25,12c-.06,0-.12-.02-.17-.07-.05-.05-.08-.11-.08-.18s.03-.13,.08-.18c.09-.09,.25-.09,.35,0,.05,.05,.07,.12,.07,.18s-.02,.13-.07,.18c-.05,.05-.11,.07-.18,.07Z"/>
        <path class="uuid-1f958b2f-d7f3-4311-ac52-d99b7db642e7" d="M54.75,11c-.06,0-.13-.03-.17-.07-.05-.05-.08-.12-.08-.18,0-.07,.03-.13,.08-.18,.09-.09,.25-.09,.35,0,.05,.05,.07,.11,.07,.18,0,.06-.02,.13-.07,.18-.05,.04-.11,.07-.18,.07Z"/>
        <path class="uuid-1f958b2f-d7f3-4311-ac52-d99b7db642e7" d="M54.75,6.75c-.07,0-.13-.03-.17-.07-.05-.06-.08-.12-.08-.18s.03-.12,.07-.17c.1-.1,.26-.1,.36,0,.05,.06,.07,.12,.07,.18s-.02,.12-.07,.17c-.05,.05-.11,.08-.18,.08Z"/>
        <path class="uuid-1f958b2f-d7f3-4311-ac52-d99b7db642e7" d="M56.5,.75c-.06,0-.13-.03-.17-.07-.05-.05-.08-.12-.08-.18s.03-.13,.07-.18c.1-.09,.26-.09,.36,0,.05,.06,.07,.12,.07,.18s-.02,.12-.07,.17c-.05,.05-.11,.08-.18,.08Z"/>
        <path class="uuid-1f958b2f-d7f3-4311-ac52-d99b7db642e7" d="M64,6.5c-.06,0-.13-.03-.17-.07-.05-.05-.08-.12-.08-.18s.03-.13,.07-.17c.1-.1,.26-.1,.36,0,.05,.06,.07,.12,.07,.18s-.02,.12-.07,.17c-.05,.05-.11,.08-.18,.08Z"/>
        <path class="uuid-1f958b2f-d7f3-4311-ac52-d99b7db642e7" d="M65,2.5c-.06,0-.13-.03-.17-.07-.05-.05-.08-.11-.08-.18s.03-.13,.08-.18c.09-.09,.25-.09,.35,0,.05,.05,.07,.11,.07,.18s-.02,.13-.07,.17c-.05,.06-.11,.08-.18,.08Z"/>
        <path class="uuid-1f958b2f-d7f3-4311-ac52-d99b7db642e7" d="M68,3c-.06,0-.13-.03-.17-.07-.05-.05-.08-.11-.08-.18s.03-.13,.07-.18c.1-.09,.27-.09,.36,0,.05,.05,.07,.12,.07,.18s-.02,.13-.07,.18c-.05,.04-.11,.07-.18,.07Z"/>
        <path class="uuid-1f958b2f-d7f3-4311-ac52-d99b7db642e7" d="M68,10.25c-.06,0-.13-.03-.17-.07-.05-.05-.08-.11-.08-.18s.03-.13,.07-.18c.1-.09,.26-.09,.36,0,.05,.05,.07,.12,.07,.18s-.02,.13-.07,.18c-.05,.04-.11,.07-.18,.07Z"/>
        <path class="uuid-1f958b2f-d7f3-4311-ac52-d99b7db642e7" d="M64.25,12.25c-.06,0-.13-.03-.17-.07-.05-.05-.08-.12-.08-.18s.03-.13,.07-.17c.09-.1,.25-.1,.35,0,.06,.05,.08,.12,.08,.18s-.02,.13-.07,.17c-.05,.06-.11,.08-.18,.08Z"/>
        <path class="uuid-1f958b2f-d7f3-4311-ac52-d99b7db642e7" d="M65.25,15.75c-.07,0-.13-.03-.17-.07-.05-.05-.08-.11-.08-.18s.03-.13,.08-.18c.07-.08,.26-.09,.35,0,.05,.04,.07,.11,.07,.17s-.02,.12-.07,.17c-.04,.05-.11,.08-.18,.08Z"/>
        <path class="uuid-1f958b2f-d7f3-4311-ac52-d99b7db642e7" d="M64,19.75c-.06,0-.13-.03-.17-.07-.05-.05-.08-.11-.08-.18s.03-.13,.08-.18c.08-.09,.25-.09,.35,0,.05,.05,.07,.12,.07,.18s-.02,.13-.07,.18c-.05,.04-.11,.07-.18,.07Z"/>
        <path class="uuid-1f958b2f-d7f3-4311-ac52-d99b7db642e7" d="M66.25,19.75c-.07,0-.13-.03-.18-.08-.04-.04-.07-.1-.07-.17,0-.06,.03-.13,.07-.17,.09-.1,.26-.1,.36,0,.05,.05,.07,.12,.07,.18,0,.07-.02,.13-.07,.18-.05,.04-.11,.07-.18,.07Z"/>
        <path class="uuid-1f958b2f-d7f3-4311-ac52-d99b7db642e7" d="M68,21.25c-.06,0-.13-.03-.17-.07-.05-.05-.08-.12-.08-.18s.03-.12,.07-.17c.1-.1,.27-.1,.36,0,.05,.06,.07,.12,.07,.18s-.02,.12-.07,.17c-.05,.05-.11,.08-.18,.08Z"/>
        <path class="uuid-1f958b2f-d7f3-4311-ac52-d99b7db642e7" d="M69.25,20.25c-.06,0-.12-.02-.17-.07-.05-.05-.08-.11-.08-.18s.03-.13,.08-.18c.09-.09,.25-.09,.35,0,.05,.05,.07,.11,.07,.18s-.02,.13-.07,.18c-.05,.05-.11,.07-.18,.07Z"/>
        <path class="uuid-1f958b2f-d7f3-4311-ac52-d99b7db642e7" d="M69.5,18c-.06,0-.12-.02-.17-.07-.05-.05-.08-.11-.08-.18s.03-.13,.08-.18c.09-.09,.25-.09,.35,0,.05,.05,.07,.11,.07,.18s-.02,.13-.07,.18c-.05,.05-.11,.07-.18,.07Z"/>
        <path class="uuid-1f958b2f-d7f3-4311-ac52-d99b7db642e7" d="M71.25,17.5c-.06,0-.13-.03-.17-.07-.05-.05-.08-.12-.08-.18s.03-.12,.07-.17c.11-.1,.26-.1,.36,0,.05,.06,.07,.12,.07,.18s-.02,.12-.07,.17c-.05,.05-.11,.08-.18,.08Z"/>
        <path class="uuid-1f958b2f-d7f3-4311-ac52-d99b7db642e7" d="M8,47c-.06,0-.13-.03-.18-.07-.04-.06-.07-.12-.07-.18,0-.07,.03-.13,.07-.18,.09-.09,.26-.09,.36,0,.05,.05,.07,.11,.07,.18,0,.06-.02,.13-.07,.17-.05,.06-.11,.08-.18,.08Z"/>
        <path class="uuid-1f958b2f-d7f3-4311-ac52-d99b7db642e7" d="M7,52.25c-.06,0-.12-.02-.17-.07-.05-.05-.08-.11-.08-.18s.03-.13,.07-.18c.11-.09,.26-.09,.36,0,.05,.05,.07,.12,.07,.18,0,.07-.02,.13-.07,.18-.05,.05-.11,.07-.18,.07Z"/>
        <path class="uuid-1f958b2f-d7f3-4311-ac52-d99b7db642e7" d="M7.25,54.5c-.06,0-.13-.03-.17-.07-.05-.05-.08-.11-.08-.18,0-.06,.03-.13,.07-.18,.1-.09,.26-.09,.36,0,.04,.05,.07,.11,.07,.18s-.03,.13-.07,.18c-.05,.04-.11,.07-.18,.07Z"/>
        <path class="uuid-1f958b2f-d7f3-4311-ac52-d99b7db642e7" d="M5,56.75c-.06,0-.13-.03-.17-.07-.05-.05-.08-.11-.08-.18s.03-.13,.07-.17c.1-.1,.26-.1,.36,0,.05,.05,.07,.11,.07,.18s-.03,.13-.07,.18c-.05,.05-.12,.07-.18,.07Z"/>
        <path class="uuid-1f958b2f-d7f3-4311-ac52-d99b7db642e7" d="M2.25,54.5c-.06,0-.12-.02-.17-.07-.05-.05-.08-.11-.08-.18,0-.06,.03-.13,.07-.17,.11-.11,.26-.1,.35,0,.06,.06,.08,.12,.08,.18s-.02,.13-.07,.18c-.06,.05-.12,.07-.18,.07Z"/>
        <path class="uuid-1f958b2f-d7f3-4311-ac52-d99b7db642e7" d="M9.75,64c-.06,0-.12-.02-.17-.07-.05-.05-.08-.11-.08-.18s.03-.13,.07-.18c.11-.09,.26-.09,.36,0,.05,.05,.07,.11,.07,.18s-.02,.13-.07,.18-.11,.07-.18,.07Z"/>
        <path class="uuid-1f958b2f-d7f3-4311-ac52-d99b7db642e7" d="M2.25,67c-.06,0-.12-.03-.17-.07-.05-.05-.08-.11-.08-.18s.03-.13,.07-.18c.1-.09,.26-.09,.36,0,.05,.05,.07,.11,.07,.18,0,.06-.02,.13-.07,.18-.06,.05-.12,.07-.18,.07Z"/>
        <path class="uuid-1f958b2f-d7f3-4311-ac52-d99b7db642e7" d="M1,68c-.06,0-.13-.03-.18-.07-.04-.05-.07-.11-.07-.18,0-.06,.03-.13,.07-.18,.1-.09,.27-.09,.36,0,.05,.05,.07,.12,.07,.18s-.02,.13-.07,.18c-.05,.04-.11,.07-.18,.07Z"/>
        <path class="uuid-1f958b2f-d7f3-4311-ac52-d99b7db642e7" d="M11,71c-.06,0-.12-.02-.17-.07-.05-.05-.08-.11-.08-.18s.03-.13,.07-.18c.11-.09,.26-.09,.36,0,.05,.05,.07,.12,.07,.18s-.02,.13-.07,.18c-.05,.05-.12,.07-.18,.07Z"/>
        <path class="uuid-1f958b2f-d7f3-4311-ac52-d99b7db642e7" d="M17.75,69.75c-.06,0-.12-.02-.17-.07-.05-.05-.08-.11-.08-.18s.03-.13,.07-.18c.11-.09,.26-.09,.36,0,.05,.05,.07,.11,.07,.18s-.03,.13-.07,.18c-.05,.05-.12,.07-.18,.07Z"/>
        <path class="uuid-1f958b2f-d7f3-4311-ac52-d99b7db642e7" d="M18.25,67.25c-.06,0-.12-.03-.17-.07-.05-.06-.08-.12-.08-.18,0-.07,.03-.13,.07-.18,.11-.09,.26-.09,.36,0,.05,.05,.07,.11,.07,.18,0,.06-.02,.13-.07,.17-.05,.05-.11,.08-.18,.08Z"/>
        <path class="uuid-1f958b2f-d7f3-4311-ac52-d99b7db642e7" d="M16.25,62.25c-.07,0-.13-.03-.18-.08-.04-.04-.07-.1-.07-.17s.03-.13,.07-.18c.1-.09,.26-.09,.36,0,.05,.05,.07,.11,.07,.18s-.02,.13-.07,.18c-.05,.04-.11,.07-.18,.07Z"/>
        <path class="uuid-1f958b2f-d7f3-4311-ac52-d99b7db642e7" d="M19.25,62.25c-.06,0-.13-.03-.17-.07-.05-.05-.08-.11-.08-.18s.03-.13,.07-.18c.1-.09,.27-.09,.36,0,.04,.04,.07,.11,.07,.18s-.03,.14-.08,.18c-.04,.04-.1,.07-.17,.07Z"/>
        <path class="uuid-1f958b2f-d7f3-4311-ac52-d99b7db642e7" d="M19.5,57.75c-.06,0-.12-.02-.17-.07-.05-.05-.08-.11-.08-.18,0-.06,.03-.13,.07-.17,.11-.11,.26-.1,.36,0,.05,.06,.07,.12,.07,.18s-.02,.13-.07,.18c-.05,.05-.11,.07-.18,.07Z"/>
        <path class="uuid-1f958b2f-d7f3-4311-ac52-d99b7db642e7" d="M18.75,55.75c-.06,0-.12-.02-.17-.07-.05-.05-.08-.11-.08-.18s.03-.13,.08-.18c.1-.09,.26-.09,.35,0,.05,.05,.07,.12,.07,.18s-.02,.12-.07,.17c-.05,.05-.11,.08-.18,.08Z"/>
        <path class="uuid-1f958b2f-d7f3-4311-ac52-d99b7db642e7" d="M16.25,54.75c-.06,0-.13-.03-.18-.07-.04-.05-.07-.11-.07-.18,0-.06,.03-.12,.07-.17,.1-.1,.26-.1,.36,0,.05,.05,.07,.12,.07,.18,0,.07-.02,.13-.07,.18-.05,.05-.11,.07-.18,.07Z"/>
        <path class="uuid-1f958b2f-d7f3-4311-ac52-d99b7db642e7" d="M19.25,51c-.06,0-.13-.03-.17-.07-.05-.05-.08-.12-.08-.18,0-.07,.03-.13,.07-.18,.1-.09,.27-.09,.36,0,.04,.04,.07,.11,.07,.18s-.02,.13-.07,.18c-.05,.04-.11,.07-.18,.07Z"/>
        <path class="uuid-1f958b2f-d7f3-4311-ac52-d99b7db642e7" d="M19,47c-.06,0-.13-.03-.17-.07-.05-.05-.08-.12-.08-.18,0-.07,.03-.13,.07-.18,.1-.09,.26-.09,.36,0,.04,.05,.07,.11,.07,.18,0,.06-.02,.13-.07,.17-.05,.06-.11,.08-.18,.08Z"/>
        <path class="uuid-1f958b2f-d7f3-4311-ac52-d99b7db642e7" d="M16.25,47.25c-.07,0-.13-.03-.18-.07-.04-.05-.07-.12-.07-.18,0-.07,.03-.13,.07-.18,.09-.09,.26-.09,.36,0,.05,.05,.07,.11,.07,.18,0,.06-.02,.13-.07,.18-.05,.05-.11,.07-.18,.07Z"/>
        <path class="uuid-1f958b2f-d7f3-4311-ac52-d99b7db642e7" d="M21,45.25c-.06,0-.12-.02-.17-.07-.05-.05-.08-.11-.08-.18s.03-.13,.08-.18c.1-.09,.25-.09,.35,0,.05,.05,.07,.12,.07,.18s-.02,.12-.07,.17c-.05,.06-.11,.08-.18,.08Z"/>
        <path class="uuid-1f958b2f-d7f3-4311-ac52-d99b7db642e7" d="M28.5,51c-.06,0-.13-.03-.17-.07-.05-.05-.08-.11-.08-.18s.03-.13,.08-.18c.09-.09,.26-.09,.35,0,.05,.06,.07,.12,.07,.18s-.02,.13-.07,.18c-.05,.04-.11,.07-.18,.07Z"/>
        <path class="uuid-1f958b2f-d7f3-4311-ac52-d99b7db642e7" d="M32.5,50.75c-.06,0-.13-.03-.17-.07-.05-.05-.08-.11-.08-.18s.03-.13,.08-.18c.09-.09,.25-.09,.35,0,.05,.05,.07,.12,.07,.18s-.02,.13-.07,.18c-.05,.04-.11,.07-.18,.07Z"/>
        <path class="uuid-1f958b2f-d7f3-4311-ac52-d99b7db642e7" d="M27.25,54.25c-.07,0-.13-.03-.18-.08-.04-.04-.07-.1-.07-.17s.03-.14,.08-.18c.09-.09,.26-.09,.35,0,.05,.05,.07,.11,.07,.18,0,.06-.02,.13-.07,.18-.04,.04-.11,.07-.18,.07Z"/>
        <path class="uuid-1f958b2f-d7f3-4311-ac52-d99b7db642e7" d="M32,55.75c-.06,0-.12-.03-.17-.07-.05-.05-.08-.11-.08-.18,0-.06,.03-.13,.07-.17,.11-.11,.26-.1,.36,0,.05,.06,.07,.12,.07,.18,0,.07-.02,.13-.07,.18-.05,.04-.11,.07-.18,.07Z"/>
        <path class="uuid-1f958b2f-d7f3-4311-ac52-d99b7db642e7" d="M32,57.5c-.06,0-.12-.02-.17-.07-.05-.05-.08-.11-.08-.18,0-.06,.03-.13,.07-.17,.11-.11,.26-.1,.36,0,.05,.06,.07,.12,.07,.18s-.02,.13-.07,.18c-.05,.05-.11,.07-.18,.07Z"/>
        <path class="uuid-1f958b2f-d7f3-4311-ac52-d99b7db642e7" d="M34,58.25c-.07,0-.13-.03-.18-.08-.04-.04-.07-.1-.07-.17s.03-.14,.08-.18c.09-.09,.26-.09,.35,0,.05,.05,.07,.11,.07,.18,0,.06-.02,.13-.07,.18-.04,.04-.11,.07-.18,.07Z"/>
        <path class="uuid-1f958b2f-d7f3-4311-ac52-d99b7db642e7" d="M34,60.25c-.06,0-.12-.02-.17-.07-.05-.05-.08-.11-.08-.18s.03-.13,.08-.18c.09-.09,.26-.09,.35,0,.05,.06,.07,.12,.07,.18s-.02,.13-.07,.18c-.05,.04-.11,.07-.18,.07Z"/>
        <path class="uuid-1f958b2f-d7f3-4311-ac52-d99b7db642e7" d="M34.25,66.75c-.06,0-.13-.03-.17-.07-.05-.05-.08-.11-.08-.18s.03-.13,.08-.18c.09-.09,.25-.09,.35,0,.05,.05,.07,.12,.07,.18s-.02,.13-.07,.18c-.05,.04-.11,.07-.18,.07Z"/>
        <path class="uuid-1f958b2f-d7f3-4311-ac52-d99b7db642e7" d="M26,64.75c-.06,0-.12-.02-.17-.07-.05-.05-.08-.11-.08-.18s.03-.13,.08-.18c.09-.09,.26-.09,.35,0,.05,.04,.07,.11,.07,.17,0,.07-.02,.13-.07,.18-.05,.05-.11,.07-.18,.07Z"/>
        <path class="uuid-1f958b2f-d7f3-4311-ac52-d99b7db642e7" d="M37.25,57.5c-.06,0-.13-.03-.17-.07-.05-.05-.08-.11-.08-.18s.03-.13,.08-.18c.09-.09,.25-.09,.34,0,.06,.05,.08,.12,.08,.18s-.02,.12-.07,.17c-.05,.06-.11,.08-.18,.08Z"/>
        <path class="uuid-1f958b2f-d7f3-4311-ac52-d99b7db642e7" d="M39.25,56c-.06,0-.13-.03-.17-.07-.05-.05-.08-.11-.08-.18s.03-.13,.08-.18c.09-.09,.25-.09,.35,0,.05,.05,.07,.12,.07,.18s-.02,.12-.07,.17c-.05,.06-.11,.08-.18,.08Z"/>
        <path class="uuid-1f958b2f-d7f3-4311-ac52-d99b7db642e7" d="M41.75,55c-.06,0-.13-.03-.17-.07-.05-.05-.08-.11-.08-.18s.03-.14,.08-.18c.09-.09,.26-.09,.35,0,.05,.05,.07,.11,.07,.18,0,.06-.02,.12-.07,.17-.05,.05-.11,.08-.18,.08Z"/>
        <path class="uuid-1f958b2f-d7f3-4311-ac52-d99b7db642e7" d="M41.75,50.75c-.06,0-.12-.02-.17-.07-.05-.05-.08-.11-.08-.18s.03-.13,.08-.18c.09-.09,.26-.09,.35,0,.05,.05,.07,.11,.07,.18,0,.06-.02,.13-.07,.18-.05,.04-.11,.07-.18,.07Z"/>
        <path class="uuid-1f958b2f-d7f3-4311-ac52-d99b7db642e7" d="M43.5,44.75c-.06,0-.12-.03-.17-.07-.05-.05-.08-.11-.08-.18s.03-.13,.08-.18c.09-.09,.25-.09,.35,0,.05,.05,.07,.12,.07,.18s-.02,.13-.07,.18c-.05,.05-.12,.07-.18,.07Z"/>
        <path class="uuid-1f958b2f-d7f3-4311-ac52-d99b7db642e7" d="M51,50.5c-.06,0-.12-.03-.17-.07-.05-.05-.08-.11-.08-.18s.03-.13,.08-.18c.09-.09,.25-.09,.35,0,.05,.05,.07,.11,.07,.18s-.02,.13-.07,.18c-.05,.05-.11,.07-.18,.07Z"/>
        <path class="uuid-1f958b2f-d7f3-4311-ac52-d99b7db642e7" d="M52,46.5c-.06,0-.13-.03-.17-.07-.05-.05-.08-.11-.08-.18s.03-.13,.08-.18c.09-.09,.25-.09,.35,0,.05,.06,.07,.12,.07,.18s-.02,.12-.07,.17c-.05,.06-.11,.08-.18,.08Z"/>
        <path class="uuid-1f958b2f-d7f3-4311-ac52-d99b7db642e7" d="M55,47c-.06,0-.12-.02-.17-.07-.05-.05-.08-.11-.08-.18s.03-.13,.08-.18c.09-.09,.25-.09,.35,0,.05,.05,.07,.12,.07,.18s-.02,.13-.07,.18c-.05,.05-.11,.07-.18,.07Z"/>
        <path class="uuid-1f958b2f-d7f3-4311-ac52-d99b7db642e7" d="M55,54.25c-.06,0-.12-.03-.17-.07-.05-.05-.08-.11-.08-.18s.03-.13,.08-.18c.09-.09,.25-.09,.35,0,.05,.05,.07,.12,.07,.18s-.02,.13-.07,.18c-.05,.05-.11,.07-.18,.07Z"/>
        <path class="uuid-1f958b2f-d7f3-4311-ac52-d99b7db642e7" d="M51.25,56.25c-.06,0-.13-.03-.17-.07-.05-.05-.08-.11-.08-.18s.03-.13,.08-.18c.09-.09,.25-.09,.35,0,.05,.05,.07,.11,.07,.18s-.02,.13-.07,.18c-.05,.04-.11,.07-.18,.07Z"/>
        <path class="uuid-1f958b2f-d7f3-4311-ac52-d99b7db642e7" d="M52.25,59.75c-.06,0-.12-.02-.17-.07-.05-.05-.08-.11-.08-.18s.03-.13,.08-.18c.09-.09,.25-.09,.35,0,.05,.06,.07,.12,.07,.18s-.02,.12-.07,.17c-.05,.06-.11,.08-.18,.08Z"/>
        <path class="uuid-1f958b2f-d7f3-4311-ac52-d99b7db642e7" d="M51,63.75c-.06,0-.13-.03-.17-.07-.05-.05-.08-.11-.08-.18s.03-.13,.08-.18c.09-.09,.25-.09,.35,0,.05,.05,.07,.12,.07,.18s-.02,.13-.07,.17c-.05,.06-.11,.08-.18,.08Z"/>
        <path class="uuid-1f958b2f-d7f3-4311-ac52-d99b7db642e7" d="M53.25,63.75c-.06,0-.13-.03-.17-.07-.05-.05-.08-.12-.08-.18s.03-.13,.07-.17c.1-.1,.26-.1,.36,0,.05,.06,.07,.12,.07,.18s-.02,.12-.07,.17c-.05,.05-.11,.08-.18,.08Z"/>
        <path class="uuid-1f958b2f-d7f3-4311-ac52-d99b7db642e7" d="M55,65.25c-.06,0-.12-.03-.17-.07-.05-.05-.08-.11-.08-.18s.03-.13,.08-.18c.09-.09,.25-.09,.35,0,.05,.05,.07,.12,.07,.18s-.02,.13-.07,.18c-.05,.05-.11,.07-.18,.07Z"/>
        <path class="uuid-1f958b2f-d7f3-4311-ac52-d99b7db642e7" d="M56.25,64.25c-.06,0-.12-.03-.17-.07-.05-.05-.08-.11-.08-.18s.03-.13,.08-.18c.09-.09,.25-.09,.35,0,.05,.05,.07,.12,.07,.18,0,.07-.02,.13-.07,.18-.05,.05-.11,.07-.18,.07Z"/>
        <path class="uuid-1f958b2f-d7f3-4311-ac52-d99b7db642e7" d="M56.5,62c-.06,0-.13-.03-.17-.07-.05-.06-.08-.12-.08-.18,0-.07,.03-.13,.08-.18,.07-.08,.26-.09,.35,0,.05,.04,.07,.11,.07,.17s-.02,.12-.07,.17c-.05,.05-.11,.08-.18,.08Z"/>
        <path class="uuid-1f958b2f-d7f3-4311-ac52-d99b7db642e7" d="M58.25,61.5c-.06,0-.13-.03-.17-.07-.05-.05-.08-.12-.08-.18s.03-.13,.07-.17c.1-.1,.27-.1,.36,0,.05,.06,.07,.12,.07,.18s-.02,.12-.07,.17c-.04,.05-.11,.08-.18,.08Z"/>
        <path class="uuid-1f958b2f-d7f3-4311-ac52-d99b7db642e7" d="M21,27c-.06,0-.12-.02-.17-.07-.05-.05-.08-.11-.08-.18s.03-.13,.08-.18c.1-.09,.25-.09,.35,0,.05,.05,.07,.12,.07,.18s-.02,.13-.07,.18c-.05,.05-.12,.07-.18,.07Z"/>
        <path class="uuid-1f958b2f-d7f3-4311-ac52-d99b7db642e7" d="M22.75,24c-.07,0-.13-.03-.18-.07-.04-.05-.07-.11-.07-.18s.03-.13,.08-.18c.1-.09,.26-.09,.35,0,.05,.05,.07,.12,.07,.18s-.02,.13-.07,.18c-.04,.04-.11,.07-.18,.07Z"/>
        <path class="uuid-1f958b2f-d7f3-4311-ac52-d99b7db642e7" d="M25.25,24.5c-.06,0-.12-.03-.17-.07-.05-.05-.08-.11-.08-.18s.03-.13,.08-.18c.1-.09,.25-.09,.35,0,.05,.05,.07,.12,.07,.18s-.02,.13-.07,.18c-.05,.04-.11,.07-.18,.07Z"/>
        <path class="uuid-1f958b2f-d7f3-4311-ac52-d99b7db642e7" d="M35.25,23.25c-.06,0-.12-.02-.17-.07-.05-.05-.08-.11-.08-.18s.03-.13,.08-.18c.1-.09,.25-.09,.35,0,.05,.05,.07,.11,.07,.18s-.03,.13-.07,.18c-.05,.05-.11,.07-.18,.07Z"/>
        <path class="uuid-1f958b2f-d7f3-4311-ac52-d99b7db642e7" d="M39,24.75c-.06,0-.12-.02-.17-.07-.05-.05-.08-.11-.08-.18s.03-.13,.08-.18c.1-.09,.25-.09,.35,0,.05,.05,.07,.11,.07,.18s-.03,.13-.07,.18c-.05,.05-.12,.07-.18,.07Z"/>
        <path class="uuid-1f958b2f-d7f3-4311-ac52-d99b7db642e7" d="M45,29.5c-.06,0-.12-.02-.17-.07-.05-.05-.08-.11-.08-.18s.03-.13,.08-.18c.1-.09,.25-.09,.35,0,.05,.05,.07,.11,.07,.18s-.02,.13-.07,.18c-.05,.05-.12,.07-.18,.07Z"/>
        <path class="uuid-1f958b2f-d7f3-4311-ac52-d99b7db642e7" d="M46.25,29c-.06,0-.13-.03-.17-.07-.05-.05-.08-.11-.08-.18s.03-.13,.08-.18c.09-.09,.25-.09,.34,0,.06,.06,.08,.12,.08,.18s-.02,.12-.07,.17c-.05,.06-.11,.08-.18,.08Z"/>
        <path class="uuid-1f958b2f-d7f3-4311-ac52-d99b7db642e7" d="M55.25,28c-.06,0-.13-.03-.17-.07-.05-.05-.08-.11-.08-.18s.03-.13,.08-.18c.09-.09,.25-.09,.35,0,.05,.05,.07,.12,.07,.18s-.02,.13-.07,.18c-.05,.04-.11,.07-.18,.07Z"/>
        <path class="uuid-1f958b2f-d7f3-4311-ac52-d99b7db642e7" d="M51.25,25.25c-.06,0-.12-.02-.17-.07-.05-.05-.08-.11-.08-.18s.03-.13,.08-.18c.09-.09,.25-.09,.35,0,.05,.05,.07,.11,.07,.18s-.03,.13-.07,.18c-.05,.05-.11,.07-.18,.07Z"/>
        <path class="uuid-1f958b2f-d7f3-4311-ac52-d99b7db642e7" d="M52,29.5c-.06,0-.13-.03-.17-.07-.05-.05-.08-.11-.08-.18s.03-.13,.08-.18c.09-.09,.25-.09,.35,0,.05,.06,.07,.12,.07,.18s-.02,.12-.07,.17c-.05,.06-.11,.08-.18,.08Z"/>
        <path class="uuid-1f958b2f-d7f3-4311-ac52-d99b7db642e7" d="M62.5,35.5c-.06,0-.13-.03-.17-.07-.05-.05-.08-.11-.08-.18s.03-.13,.08-.18c.08-.08,.24-.09,.34,0,.06,.05,.08,.12,.08,.18s-.02,.13-.07,.18c-.05,.05-.12,.07-.18,.07Z"/>
        <path class="uuid-1f958b2f-d7f3-4311-ac52-d99b7db642e7" d="M58.25,38.25c-.07,0-.13-.03-.17-.07-.05-.05-.08-.12-.08-.18s.03-.13,.07-.17c.1-.1,.27-.1,.36,0,.05,.06,.07,.12,.07,.18s-.02,.12-.07,.17c-.04,.05-.11,.08-.18,.08Z"/>
        <path class="uuid-1f958b2f-d7f3-4311-ac52-d99b7db642e7" d="M49,39c-.07,0-.13-.03-.17-.07-.05-.05-.08-.12-.08-.18s.03-.13,.07-.17c.1-.1,.26-.1,.36,0,.05,.06,.07,.12,.07,.18s-.02,.12-.07,.17c-.05,.05-.11,.08-.18,.08Z"/>
        <path class="uuid-1f958b2f-d7f3-4311-ac52-d99b7db642e7" d="M48,41.25c-.06,0-.12-.02-.17-.07-.05-.05-.08-.11-.08-.18s.03-.13,.08-.18c.09-.09,.24-.09,.34,0,.06,.05,.08,.12,.08,.18s-.02,.12-.07,.17c-.06,.06-.11,.08-.18,.08Z"/>
        <path class="uuid-1f958b2f-d7f3-4311-ac52-d99b7db642e7" d="M52,43c-.07,0-.13-.03-.18-.08-.04-.04-.07-.1-.07-.17s.03-.13,.08-.18c.09-.09,.25-.09,.35,0,.05,.05,.07,.12,.07,.18s-.02,.13-.07,.18c-.05,.04-.11,.07-.18,.07Z"/>
        <path class="uuid-1f958b2f-d7f3-4311-ac52-d99b7db642e7" d="M53.5,45c-.06,0-.13-.03-.17-.07-.05-.05-.08-.11-.08-.18s.03-.13,.08-.18c.08-.09,.25-.09,.35,0,.05,.05,.07,.12,.07,.18s-.02,.13-.07,.18c-.05,.04-.11,.07-.18,.07Z"/>
        <path class="uuid-1f958b2f-d7f3-4311-ac52-d99b7db642e7" d="M62.25,48c-.06,0-.13-.03-.17-.07-.05-.05-.08-.12-.08-.18s.03-.13,.07-.17c.1-.1,.26-.1,.36,0,.05,.06,.07,.12,.07,.18s-.02,.12-.07,.17c-.05,.05-.11,.08-.18,.08Z"/>
        <path class="uuid-1f958b2f-d7f3-4311-ac52-d99b7db642e7" d="M65,51.75c-.06,0-.12-.03-.17-.07-.05-.05-.08-.11-.08-.18s.03-.14,.08-.18c.09-.08,.25-.09,.35,0,.04,.05,.07,.11,.07,.18s-.02,.13-.07,.18c-.05,.05-.11,.07-.18,.07Z"/>
        <path class="uuid-1f958b2f-d7f3-4311-ac52-d99b7db642e7" d="M67,51.75c-.06,0-.13-.03-.17-.07-.05-.05-.08-.11-.08-.18s.03-.13,.08-.18c.08-.08,.25-.09,.35,0,.05,.05,.07,.11,.07,.18s-.02,.13-.07,.18c-.05,.05-.11,.07-.18,.07Z"/>
        <path class="uuid-1f958b2f-d7f3-4311-ac52-d99b7db642e7" d="M69.5,45c-.06,0-.12-.03-.17-.07-.05-.05-.08-.11-.08-.18s.03-.13,.08-.18c.09-.09,.25-.09,.35,0,.05,.05,.07,.11,.07,.18s-.02,.13-.07,.18c-.05,.05-.11,.07-.18,.07Z"/>
        <path class="uuid-1f958b2f-d7f3-4311-ac52-d99b7db642e7" d="M60,39c-.06,0-.12-.02-.17-.07-.05-.05-.08-.11-.08-.18s.03-.13,.08-.18c.09-.09,.25-.09,.35,0,.04,.05,.07,.11,.07,.18s-.03,.13-.07,.18c-.05,.05-.11,.07-.18,.07Z"/>
        <path class="uuid-1f958b2f-d7f3-4311-ac52-d99b7db642e7" d="M47.25,47.75c-.06,0-.13-.03-.17-.07-.05-.05-.08-.11-.08-.18s.03-.14,.08-.18c.08-.08,.25-.09,.35,0,.04,.05,.07,.11,.07,.18s-.02,.13-.07,.18c-.05,.05-.11,.07-.18,.07Z"/>
        <path class="uuid-1f958b2f-d7f3-4311-ac52-d99b7db642e7" d="M32.5,47c-.06,0-.12-.03-.17-.07-.05-.05-.08-.11-.08-.18s.03-.13,.08-.18c.09-.09,.26-.09,.35,0,.05,.05,.07,.12,.07,.18s-.02,.13-.07,.18c-.05,.04-.11,.07-.18,.07Z"/>
        <path class="uuid-1f958b2f-d7f3-4311-ac52-d99b7db642e7" d="M37,44.5c-.06,0-.12-.03-.17-.07-.05-.05-.08-.12-.08-.18,0-.07,.03-.13,.07-.17,.11-.11,.26-.1,.36,0,.05,.05,.07,.12,.07,.18s-.02,.13-.07,.17c-.05,.05-.11,.08-.18,.08Z"/>
        <path class="uuid-1f958b2f-d7f3-4311-ac52-d99b7db642e7" d="M26.25,37.75c-.06,0-.12-.03-.17-.07-.05-.05-.08-.11-.08-.18s.03-.13,.08-.18c.1-.09,.25-.09,.35,0,.05,.05,.07,.12,.07,.18s-.02,.13-.07,.18c-.05,.04-.11,.07-.18,.07Z"/>
        <path class="uuid-1f958b2f-d7f3-4311-ac52-d99b7db642e7" d="M29.75,35.5c-.06,0-.12-.02-.17-.07-.05-.05-.08-.11-.08-.18s.03-.13,.08-.18c.1-.09,.25-.09,.35,0,.05,.05,.07,.12,.07,.18s-.02,.12-.07,.17c-.05,.06-.11,.08-.18,.08Z"/>
        <path class="uuid-1f958b2f-d7f3-4311-ac52-d99b7db642e7" d="M17,28.5c-.06,0-.12-.02-.17-.07-.05-.05-.08-.11-.08-.18,0-.06,.03-.12,.07-.17,.11-.11,.26-.1,.36,0,.05,.05,.07,.12,.07,.18,0,.07-.02,.13-.07,.18-.05,.05-.11,.07-.18,.07Z"/>
        <path class="uuid-1f958b2f-d7f3-4311-ac52-d99b7db642e7" d="M10.5,29.5c-.06,0-.12-.02-.17-.07-.05-.05-.08-.11-.08-.18,0-.06,.03-.12,.07-.17,.11-.11,.26-.1,.36,0,.05,.06,.07,.12,.07,.18s-.02,.13-.07,.18c-.05,.05-.11,.07-.18,.07Z"/>
        <path class="uuid-1f958b2f-d7f3-4311-ac52-d99b7db642e7" d="M6,31.5c-.06,0-.12-.02-.17-.07-.05-.05-.08-.11-.08-.18,0-.06,.03-.12,.07-.17,.12-.11,.26-.1,.36,0,.05,.06,.07,.12,.07,.18,0,.07-.02,.13-.07,.18-.05,.05-.11,.07-.18,.07Z"/>
        <path class="uuid-1f958b2f-d7f3-4311-ac52-d99b7db642e7" d="M2.5,35.25c-.07,0-.13-.03-.17-.07-.05-.05-.08-.12-.08-.18,0-.07,.03-.13,.08-.18,.08-.09,.24-.09,.34,0,.06,.05,.08,.11,.08,.18,0,.06-.02,.13-.07,.17-.05,.06-.11,.08-.18,.08Z"/>
        <path class="uuid-1f958b2f-d7f3-4311-ac52-d99b7db642e7" d="M11.25,36.75c-.07,0-.13-.03-.18-.07-.04-.05-.07-.12-.07-.18,0-.07,.03-.13,.07-.18,.1-.09,.25-.09,.36,0,.05,.05,.07,.11,.07,.18s-.02,.13-.07,.18c-.05,.05-.11,.07-.18,.07Z"/>
        <path class="uuid-1f958b2f-d7f3-4311-ac52-d99b7db642e7" d="M17,42c-.06,0-.12-.02-.17-.07-.05-.05-.08-.11-.08-.18,0-.06,.03-.13,.07-.18,.11-.09,.26-.09,.36,0,.05,.05,.07,.11,.07,.18s-.03,.13-.07,.18c-.05,.05-.11,.07-.18,.07Z"/>
        <path class="uuid-1f958b2f-d7f3-4311-ac52-d99b7db642e7" d="M12.75,36c-.06,0-.13-.03-.17-.07-.05-.05-.08-.11-.08-.18,0-.06,.03-.13,.07-.17,.1-.1,.26-.1,.36,0,.05,.05,.07,.11,.07,.18s-.02,.13-.07,.18c-.05,.05-.12,.07-.18,.07Z"/>
        <path class="uuid-1f958b2f-d7f3-4311-ac52-d99b7db642e7" d="M26.5,30.25c-.06,0-.12-.02-.17-.07-.05-.05-.08-.11-.08-.18s.03-.13,.08-.18c.1-.09,.25-.09,.35,0,.05,.05,.07,.12,.07,.18s-.02,.13-.07,.18c-.05,.05-.11,.07-.18,.07Z"/>
        <path class="uuid-1f958b2f-d7f3-4311-ac52-d99b7db642e7" d="M37.75,31c-.06,0-.12-.02-.17-.07-.05-.05-.08-.11-.08-.18s.03-.13,.08-.18c.1-.09,.25-.09,.35,0,.05,.05,.07,.11,.07,.18s-.02,.13-.07,.18c-.05,.05-.12,.07-.18,.07Z"/>
        <path class="uuid-1f958b2f-d7f3-4311-ac52-d99b7db642e7" d="M39.5,32.5c-.06,0-.12-.02-.17-.07-.05-.05-.08-.11-.08-.18s.03-.13,.08-.18c.08-.09,.26-.09,.35,0,.05,.04,.07,.11,.07,.17s-.02,.13-.07,.18c-.05,.04-.11,.07-.18,.07Z"/>
        <path class="uuid-1f958b2f-d7f3-4311-ac52-d99b7db642e7" d="M28,42c-.06,0-.12-.03-.17-.07-.05-.05-.08-.12-.08-.18s.03-.12,.07-.17c.11-.1,.26-.1,.35,0,.06,.06,.08,.12,.08,.18s-.02,.13-.07,.17c-.05,.06-.11,.08-.18,.08Z"/>
        <path class="uuid-1f958b2f-d7f3-4311-ac52-d99b7db642e7" d="M6.5,20.5c-.06,0-.13-.03-.17-.07-.05-.05-.08-.12-.08-.18,0-.07,.03-.13,.07-.18,.1-.09,.26-.09,.36,0,.05,.05,.07,.11,.07,.18,0,.06-.02,.13-.07,.17-.05,.06-.11,.08-.18,.08Z"/>
        <path class="uuid-1f958b2f-d7f3-4311-ac52-d99b7db642e7" d="M10.25,20.25c-.06,0-.13-.03-.17-.07-.05-.05-.08-.11-.08-.18s.03-.13,.07-.18c.1-.09,.26-.09,.36,0,.05,.05,.07,.11,.07,.18s-.02,.13-.07,.18c-.05,.05-.11,.07-.18,.07Z"/>
        <path class="uuid-1f958b2f-d7f3-4311-ac52-d99b7db642e7" d="M11.75,23.5c-.06,0-.12-.02-.17-.07-.05-.05-.08-.11-.08-.18,0-.06,.03-.12,.07-.17,.11-.11,.26-.1,.36,0,.05,.06,.07,.12,.07,.18s-.02,.13-.07,.18c-.05,.05-.12,.07-.18,.07Z"/>
        <path class="uuid-1f958b2f-d7f3-4311-ac52-d99b7db642e7" d="M3,25.75c-.06,0-.13-.03-.17-.07-.05-.05-.08-.11-.08-.18s.03-.13,.07-.18c.1-.09,.26-.09,.36,0,.05,.05,.07,.11,.07,.18s-.02,.13-.07,.18c-.05,.05-.12,.07-.18,.07Z"/>
        <path class="uuid-1f958b2f-d7f3-4311-ac52-d99b7db642e7" d="M64.25,29.5c-.06,0-.13-.03-.17-.07-.05-.05-.08-.12-.08-.18s.03-.13,.07-.17c.1-.1,.25-.1,.35,0,.06,.05,.08,.12,.08,.18s-.02,.13-.07,.17c-.05,.06-.11,.08-.18,.08Z"/>
        <path class="uuid-1f958b2f-d7f3-4311-ac52-d99b7db642e7" d="M67.5,30.75c-.06,0-.13-.03-.17-.07-.05-.05-.08-.11-.08-.18,0-.06,.03-.13,.07-.17,.1-.1,.26-.1,.36,0,.05,.06,.07,.12,.07,.18s-.02,.13-.07,.18c-.05,.04-.11,.07-.18,.07Z"/>
        <path class="uuid-1f958b2f-d7f3-4311-ac52-d99b7db642e7" d="M69.5,29.75c-.06,0-.13-.03-.17-.07-.05-.05-.08-.11-.08-.18s.03-.13,.08-.18c.09-.09,.25-.09,.35,0,.05,.05,.07,.11,.07,.18s-.02,.13-.07,.18c-.05,.04-.11,.07-.18,.07Z"/>
        <path class="uuid-1f958b2f-d7f3-4311-ac52-d99b7db642e7" d="M7.25,15.75c-.07,0-.13-.03-.18-.08-.04-.04-.07-.1-.07-.17s.03-.13,.07-.18c.1-.09,.26-.09,.36,0,.04,.05,.07,.11,.07,.18s-.03,.13-.07,.18c-.05,.04-.11,.07-.18,.07Z"/>
        <path class="uuid-1f958b2f-d7f3-4311-ac52-d99b7db642e7" d="M1.5,9c-.06,0-.13-.03-.18-.07-.04-.05-.07-.11-.07-.18s.03-.13,.07-.18c.09-.09,.26-.09,.36,0,.05,.05,.07,.12,.07,.18s-.02,.13-.07,.18c-.05,.04-.11,.07-.18,.07Z"/>
        <path class="uuid-1f958b2f-d7f3-4311-ac52-d99b7db642e7" d="M14.5,6.5c-.06,0-.12-.02-.17-.07-.05-.05-.08-.11-.08-.18,0-.06,.03-.13,.07-.17,.11-.11,.26-.1,.36,0,.05,.05,.07,.11,.07,.18s-.02,.13-.07,.18c-.05,.05-.11,.07-.18,.07Z"/>
        <path class="uuid-1f958b2f-d7f3-4311-ac52-d99b7db642e7" d="M8.5,5.25c-.06,0-.12-.02-.17-.07-.05-.05-.08-.11-.08-.18s.03-.13,.07-.18c.1-.09,.27-.09,.36,0,.05,.04,.07,.1,.07,.17,0,.06-.02,.13-.07,.18-.05,.05-.11,.07-.18,.07Z"/>
        <path class="uuid-1f958b2f-d7f3-4311-ac52-d99b7db642e7" d="M3.5,2.5c-.07,0-.13-.03-.18-.08-.04-.04-.07-.1-.07-.17s.03-.13,.08-.18c.08-.09,.25-.09,.35,0,.04,.05,.07,.11,.07,.18s-.03,.13-.07,.18c-.05,.04-.11,.07-.18,.07Z"/>
        <path class="uuid-1f958b2f-d7f3-4311-ac52-d99b7db642e7" d="M3.75,6c-.06,0-.13-.03-.17-.07-.05-.05-.08-.11-.08-.18,0-.06,.03-.13,.07-.18,.09-.09,.26-.09,.36,0,.05,.05,.07,.11,.07,.18s-.02,.13-.07,.18c-.05,.05-.12,.07-.18,.07Z"/>
        <path class="uuid-1f958b2f-d7f3-4311-ac52-d99b7db642e7" d="M12.75,14.25c-.06,0-.13-.03-.17-.07-.05-.05-.08-.12-.08-.18,0-.07,.03-.13,.07-.18,.1-.09,.26-.09,.36,0,.05,.05,.07,.11,.07,.18,0,.06-.02,.13-.07,.17-.05,.06-.11,.08-.18,.08Z"/>
        <path class="uuid-1f958b2f-d7f3-4311-ac52-d99b7db642e7" d="M18.5,19.25c-.06,0-.12-.02-.17-.07-.05-.05-.08-.11-.08-.18,0-.06,.03-.13,.07-.17,.11-.11,.27-.1,.36,0,.05,.06,.07,.12,.07,.18,0,.07-.02,.13-.07,.18-.05,.04-.11,.07-.18,.07Z"/>
        <path class="uuid-1f958b2f-d7f3-4311-ac52-d99b7db642e7" d="M21.25,37c-.06,0-.12-.02-.17-.07-.05-.05-.08-.12-.08-.18,0-.07,.03-.13,.07-.18,.11-.09,.26-.09,.36,0,.05,.05,.07,.11,.07,.18,0,.06-.02,.13-.07,.17-.05,.06-.11,.08-.18,.08Z"/>
        <path class="uuid-1f958b2f-d7f3-4311-ac52-d99b7db642e7" d="M.75,44.25c-.06,0-.13-.03-.17-.07-.05-.05-.08-.11-.08-.18s.03-.13,.08-.18c.07-.08,.25-.09,.35,0,.04,.04,.07,.1,.07,.17s-.03,.13-.07,.18c-.05,.04-.11,.07-.18,.07Z"/>
        <path class="uuid-1f958b2f-d7f3-4311-ac52-d99b7db642e7" d="M66.5,37.25c-.06,0-.13-.03-.17-.07-.05-.05-.08-.11-.08-.18s.03-.13,.08-.18c.09-.09,.25-.09,.35,0,.05,.05,.07,.12,.07,.18s-.02,.13-.07,.18c-.05,.04-.11,.07-.18,.07Z"/>
        <path class="uuid-1f958b2f-d7f3-4311-ac52-d99b7db642e7" d="M68,66c-.06,0-.13-.03-.17-.07-.05-.05-.08-.12-.08-.18,0-.07,.03-.13,.07-.18,.1-.09,.26-.09,.36,0,.05,.05,.07,.12,.07,.18s-.02,.12-.07,.17c-.05,.05-.11,.08-.18,.08Z"/>
        <path class="uuid-1f958b2f-d7f3-4311-ac52-d99b7db642e7" d="M59.75,69.75c-.07,0-.13-.03-.18-.08-.04-.04-.07-.1-.07-.17s.03-.13,.08-.18c.09-.09,.25-.09,.35,0,.05,.05,.07,.12,.07,.18,0,.07-.02,.13-.07,.18-.05,.04-.11,.07-.18,.07Z"/>
        <path class="uuid-1f958b2f-d7f3-4311-ac52-d99b7db642e7" d="M40.5,68c-.06,0-.12-.02-.17-.07-.05-.05-.08-.11-.08-.18s.03-.13,.08-.18c.09-.09,.25-.09,.35,0,.05,.05,.07,.12,.07,.18s-.02,.13-.07,.18c-.05,.05-.12,.07-.18,.07Z"/>
        <path class="uuid-1f958b2f-d7f3-4311-ac52-d99b7db642e7" d="M44,63c-.06,0-.12-.02-.17-.07-.05-.04-.08-.11-.08-.18s.03-.13,.08-.18c.09-.09,.25-.09,.35,0,.05,.05,.07,.12,.07,.18,0,.07-.02,.13-.07,.18-.05,.05-.11,.07-.18,.07Z"/>
        <path class="uuid-1f958b2f-d7f3-4311-ac52-d99b7db642e7" d="M25.75,70c-.06,0-.12-.02-.17-.07-.05-.05-.08-.11-.08-.18s.03-.13,.08-.18c.09-.09,.25-.09,.35,0,.05,.05,.07,.11,.07,.18,0,.06-.02,.12-.07,.17-.05,.06-.11,.08-.18,.08Z"/>
        <path class="uuid-1f958b2f-d7f3-4311-ac52-d99b7db642e7" d="M4.5,60c-.06,0-.12-.02-.17-.07-.05-.05-.08-.11-.08-.18,0-.06,.03-.13,.07-.17,.11-.11,.26-.1,.36,0,.05,.06,.07,.12,.07,.18s-.02,.13-.07,.18c-.05,.05-.12,.07-.18,.07Z"/>
        <path class="uuid-1f958b2f-d7f3-4311-ac52-d99b7db642e7" d="M26.5,59.5c-.06,0-.12-.02-.17-.07-.05-.05-.08-.11-.08-.18s.03-.13,.08-.18c.1-.09,.25-.09,.35,0,.05,.05,.07,.11,.07,.18,0,.06-.02,.13-.07,.18-.05,.05-.11,.07-.18,.07Z"/>
        <path class="uuid-1f958b2f-d7f3-4311-ac52-d99b7db642e7" d="M37.25,48.5c-.06,0-.12-.03-.17-.07-.05-.05-.08-.11-.08-.18s.03-.13,.08-.18c.09-.09,.24-.09,.34,0,.06,.05,.08,.12,.08,.18s-.02,.13-.07,.18c-.06,.05-.12,.07-.18,.07Z"/>
        <path class="uuid-1f958b2f-d7f3-4311-ac52-d99b7db642e7" d="M22,41.75c-.06,0-.12-.02-.17-.07-.05-.05-.08-.11-.08-.18s.03-.13,.08-.18c.1-.09,.25-.09,.35,0,.05,.05,.07,.12,.07,.18s-.02,.13-.07,.18c-.05,.05-.12,.07-.18,.07Z"/>
        <path class="uuid-1f958b2f-d7f3-4311-ac52-d99b7db642e7" d="M8.75,40.25c-.06,0-.13-.03-.17-.07-.05-.05-.08-.12-.08-.18,0-.07,.03-.13,.08-.18,.09-.09,.25-.09,.35,0,.04,.05,.07,.11,.07,.18s-.02,.13-.07,.18c-.05,.05-.11,.07-.18,.07Z"/>
        <path class="uuid-1f958b2f-d7f3-4311-ac52-d99b7db642e7" d="M24,29c-.06,0-.12-.02-.17-.07-.05-.05-.08-.11-.08-.18s.03-.13,.08-.18c.1-.09,.25-.09,.35,0,.05,.05,.07,.12,.07,.18s-.02,.12-.07,.17c-.05,.06-.11,.08-.18,.08Z"/>
        <path class="uuid-1f958b2f-d7f3-4311-ac52-d99b7db642e7" d="M41.5,34.5c-.06,0-.13-.03-.17-.07-.05-.05-.08-.11-.08-.18s.03-.13,.08-.18c.09-.09,.25-.09,.34,0,.06,.06,.08,.12,.08,.18s-.02,.12-.07,.17c-.05,.06-.11,.08-.18,.08Z"/>
        <path class="uuid-1f958b2f-d7f3-4311-ac52-d99b7db642e7" d="M51.5,37.5c-.06,0-.13-.03-.17-.07-.05-.05-.08-.11-.08-.18s.03-.13,.08-.18c.09-.09,.25-.09,.35,0,.05,.05,.07,.12,.07,.18s-.02,.13-.07,.17c-.05,.06-.11,.08-.18,.08Z"/>
        <path class="uuid-1f958b2f-d7f3-4311-ac52-d99b7db642e7" d="M60.75,46c-.06,0-.12-.03-.17-.07-.05-.05-.08-.11-.08-.18s.03-.14,.08-.18c.09-.09,.25-.09,.35,0,.05,.05,.07,.11,.07,.18s-.02,.13-.07,.18c-.05,.04-.11,.07-.18,.07Z"/>
        <path class="uuid-1f958b2f-d7f3-4311-ac52-d99b7db642e7" d="M67.5,43.75c-.06,0-.13-.03-.17-.07-.05-.05-.08-.11-.08-.18s.03-.13,.08-.18c.08-.08,.25-.09,.35,0,.05,.05,.07,.12,.07,.18s-.02,.13-.07,.18c-.05,.04-.11,.07-.18,.07Z"/>
        <path class="uuid-1f958b2f-d7f3-4311-ac52-d99b7db642e7" d="M51.25,66.25c-.06,0-.12-.02-.17-.07-.05-.05-.08-.11-.08-.18s.03-.13,.08-.18c.09-.09,.25-.09,.35,0,.05,.05,.07,.11,.07,.18s-.03,.13-.07,.18c-.05,.05-.11,.07-.18,.07Z"/>
        <path class="uuid-1f958b2f-d7f3-4311-ac52-d99b7db642e7" d="M40,37.75c-.06,0-.13-.03-.17-.07-.05-.05-.08-.11-.08-.18s.03-.13,.08-.18c.09-.09,.26-.09,.35,0,.05,.05,.07,.12,.07,.18s-.02,.12-.07,.17c-.05,.05-.11,.08-.18,.08Z"/>
        <path class="uuid-1f958b2f-d7f3-4311-ac52-d99b7db642e7" d="M53.25,15c-.06,0-.13-.03-.17-.07-.05-.05-.08-.11-.08-.18s.03-.13,.08-.18c.07-.08,.26-.09,.35,0,.05,.04,.07,.11,.07,.17s-.02,.13-.07,.18c-.05,.04-.11,.07-.18,.07Z"/>
        <path class="uuid-1f958b2f-d7f3-4311-ac52-d99b7db642e7" d="M34,16c-.07,0-.13-.03-.18-.08-.04-.04-.07-.1-.07-.17s.03-.14,.08-.18c.09-.09,.26-.09,.35,0,.05,.05,.07,.11,.07,.18,0,.06-.02,.13-.07,.18-.05,.04-.11,.07-.18,.07Z"/>
        <path class="uuid-1f958b2f-d7f3-4311-ac52-d99b7db642e7" d="M27.5,13.5c-.06,0-.12-.02-.17-.07-.05-.05-.08-.11-.08-.18s.03-.13,.07-.17c.11-.11,.26-.1,.36,0,.05,.05,.07,.12,.07,.18,0,.07-.02,.13-.07,.18-.05,.05-.11,.07-.18,.07Z"/>
        <path class="uuid-1f958b2f-d7f3-4311-ac52-d99b7db642e7" d="M12.75,19.25c-.06,0-.13-.03-.17-.07-.05-.05-.08-.11-.08-.18,0-.06,.03-.12,.07-.17,.1-.1,.26-.1,.36,0,.05,.05,.07,.12,.07,.18,0,.07-.02,.13-.07,.18-.05,.05-.11,.07-.18,.07Z"/>
        <path class="uuid-1f958b2f-d7f3-4311-ac52-d99b7db642e7" d="M19.75,26.5c-.06,0-.12-.02-.17-.07-.05-.05-.08-.11-.08-.18,0-.06,.03-.12,.07-.17,.11-.11,.26-.1,.36,0,.05,.05,.07,.12,.07,.18,0,.07-.02,.13-.07,.18-.05,.05-.12,.07-.18,.07Z"/>
        <path class="uuid-1f958b2f-d7f3-4311-ac52-d99b7db642e7" d="M49.5,4.5c-.06,0-.13-.03-.17-.07-.05-.04-.08-.11-.08-.18s.03-.14,.08-.18c.08-.08,.25-.09,.35,0,.05,.05,.07,.12,.07,.18s-.02,.13-.07,.18c-.05,.04-.11,.07-.18,.07Z"/>
        <path class="uuid-1f958b2f-d7f3-4311-ac52-d99b7db642e7" d="M11.75,1.75c-.06,0-.12-.02-.17-.07-.05-.05-.08-.11-.08-.18,0-.06,.03-.13,.07-.18,.1-.09,.27-.09,.36,0,.05,.05,.07,.12,.07,.18s-.02,.13-.07,.18c-.05,.05-.11,.07-.18,.07Z"/>
        <path class="uuid-1f958b2f-d7f3-4311-ac52-d99b7db642e7" d="M55.25,3.75c-.06,0-.13-.03-.17-.07-.05-.05-.08-.11-.08-.18s.03-.13,.08-.18c.08-.09,.25-.09,.35,0,.05,.05,.07,.12,.07,.18s-.02,.13-.07,.18c-.05,.04-.11,.07-.18,.07Z"/>
        <path class="uuid-1f958b2f-d7f3-4311-ac52-d99b7db642e7" d="M59,20.75c-.06,0-.13-.03-.17-.07-.05-.05-.08-.11-.08-.18s.03-.13,.08-.18c.08-.09,.25-.09,.35,0,.05,.06,.07,.12,.07,.18s-.02,.12-.07,.17c-.05,.06-.11,.08-.18,.08Z"/>
        <path class="uuid-1f958b2f-d7f3-4311-ac52-d99b7db642e7" d="M67.5,57.25c-.06,0-.13-.03-.17-.07-.05-.05-.08-.12-.08-.18,0-.07,.03-.13,.08-.18,.09-.09,.25-.09,.35,0,.05,.05,.07,.12,.07,.18s-.02,.12-.07,.17c-.05,.05-.11,.08-.18,.08Z"/>
        <path class="uuid-1f958b2f-d7f3-4311-ac52-d99b7db642e7" d="M47.25,69.75c-.06,0-.13-.03-.17-.07-.05-.04-.08-.11-.08-.18s.03-.14,.08-.18c.08-.08,.25-.09,.35,0,.04,.05,.07,.11,.07,.18s-.03,.13-.07,.18c-.05,.05-.11,.07-.18,.07Z"/>
        <path class="uuid-1f958b2f-d7f3-4311-ac52-d99b7db642e7" d="M5.25,69.75c-.06,0-.13-.03-.17-.07-.05-.05-.08-.11-.08-.18,0-.06,.03-.12,.07-.17,.1-.1,.26-.1,.36,0,.05,.05,.07,.12,.07,.18,0,.07-.02,.13-.07,.18s-.12,.07-.18,.07Z"/>
        <path class="uuid-1f958b2f-d7f3-4311-ac52-d99b7db642e7" d="M4.75,40.25c-.06,0-.13-.03-.18-.07-.04-.05-.07-.11-.07-.18s.03-.13,.07-.18c.09-.09,.26-.09,.36,0,.05,.05,.07,.12,.07,.18s-.02,.13-.07,.18c-.05,.04-.11,.07-.18,.07Z"/>
        <path class="uuid-1f958b2f-d7f3-4311-ac52-d99b7db642e7" d="M69.75,12.75c-.07,0-.13-.03-.17-.07-.05-.05-.08-.11-.08-.18s.03-.13,.08-.18c.09-.09,.25-.09,.35,0,.05,.05,.07,.12,.07,.18s-.02,.13-.07,.18c-.05,.04-.11,.07-.18,.07Z"/>
        <path class="uuid-1f958b2f-d7f3-4311-ac52-d99b7db642e7" d="M23.25,14c-.06,0-.12-.02-.17-.07-.05-.05-.08-.11-.08-.18s.03-.13,.07-.17c.11-.11,.26-.1,.36,0,.05,.06,.07,.12,.07,.18s-.02,.13-.07,.18c-.05,.05-.11,.07-.18,.07Z"/>
        <path class="uuid-1f958b2f-d7f3-4311-ac52-d99b7db642e7" d="M20.5,17.25c-.06,0-.13-.03-.17-.07-.05-.04-.08-.11-.08-.18s.03-.14,.08-.18c.07-.08,.26-.09,.35,0,.05,.04,.07,.11,.07,.17s-.02,.13-.07,.18c-.05,.04-.11,.07-.18,.07Z"/>
        <path class="uuid-1f958b2f-d7f3-4311-ac52-d99b7db642e7" d="M14.75,17.25c-.06,0-.12-.02-.17-.07-.05-.05-.08-.11-.08-.18,0-.06,.03-.13,.07-.18,.11-.09,.26-.09,.36,0,.05,.05,.07,.12,.07,.18s-.02,.13-.07,.18c-.05,.05-.11,.07-.18,.07Z"/>
        <path class="uuid-1f958b2f-d7f3-4311-ac52-d99b7db642e7" d="M2.75,13.25c-.07,0-.13-.03-.17-.07-.05-.05-.08-.12-.08-.18,0-.07,.03-.13,.08-.18,.09-.09,.25-.09,.35,0,.04,.05,.07,.11,.07,.18s-.02,.13-.07,.18c-.05,.04-.11,.07-.18,.07Z"/>
        <path class="uuid-1f958b2f-d7f3-4311-ac52-d99b7db642e7" d="M6,11.75c-.06,0-.12-.02-.17-.07-.05-.05-.08-.12-.08-.18,0-.07,.03-.13,.07-.18,.12-.1,.26-.09,.36,0,.05,.05,.07,.11,.07,.18,0,.06-.02,.12-.07,.17-.05,.06-.11,.08-.18,.08Z"/>
        <path class="uuid-1f958b2f-d7f3-4311-ac52-d99b7db642e7" d="M7,2.75c-.06,0-.12-.02-.17-.07-.05-.05-.08-.12-.08-.18,0-.07,.03-.13,.07-.18,.11-.09,.26-.09,.36,0,.05,.05,.07,.12,.07,.18s-.02,.12-.07,.17c-.05,.06-.11,.08-.18,.08Z"/>
        <path class="uuid-1f958b2f-d7f3-4311-ac52-d99b7db642e7" d="M10,8.25c-.07,0-.13-.03-.18-.07-.04-.05-.07-.12-.07-.18,0-.07,.03-.13,.07-.18,.09-.09,.26-.09,.36,0,.05,.05,.07,.11,.07,.18,0,.06-.02,.13-.07,.17-.05,.06-.11,.08-.18,.08Z"/>
        <path class="uuid-1f958b2f-d7f3-4311-ac52-d99b7db642e7" d="M16,8.25c-.06,0-.13-.03-.18-.07-.04-.05-.07-.11-.07-.18s.03-.13,.08-.18c.1-.09,.25-.09,.35,0,.05,.05,.07,.12,.07,.18s-.02,.13-.07,.18c-.05,.04-.11,.07-.18,.07Z"/>
        <path class="uuid-1f958b2f-d7f3-4311-ac52-d99b7db642e7" d="M16.5,3.25c-.06,0-.12-.02-.17-.07-.05-.05-.08-.11-.08-.18s.03-.13,.07-.18c.11-.1,.26-.09,.36,0,.05,.05,.07,.11,.07,.18s-.02,.13-.07,.18c-.05,.05-.12,.07-.18,.07Z"/>
        <path class="uuid-1f958b2f-d7f3-4311-ac52-d99b7db642e7" d="M25.75,7c-.06,0-.12-.02-.17-.07-.05-.05-.08-.11-.08-.18s.03-.13,.08-.18c.1-.09,.25-.09,.35,0,.05,.05,.07,.12,.07,.18s-.02,.13-.07,.18c-.05,.05-.11,.07-.18,.07Z"/>
        <path class="uuid-1f958b2f-d7f3-4311-ac52-d99b7db642e7" d="M37,7.5c-.06,0-.12-.02-.17-.07-.05-.05-.08-.11-.08-.18s.03-.13,.08-.18c.09-.09,.26-.09,.35,0,.05,.05,.07,.11,.07,.18s-.02,.13-.07,.18c-.05,.05-.12,.07-.18,.07Z"/>
        <path class="uuid-1f958b2f-d7f3-4311-ac52-d99b7db642e7" d="M40.5,4.5c-.06,0-.13-.03-.17-.07-.05-.04-.08-.11-.08-.18s.03-.13,.08-.18c.09-.09,.25-.09,.35,0,.05,.06,.07,.12,.07,.18,0,.07-.02,.13-.07,.18-.05,.04-.11,.07-.18,.07Z"/>
        <path class="uuid-1f958b2f-d7f3-4311-ac52-d99b7db642e7" d="M37.5,4.25c-.06,0-.13-.03-.17-.07-.05-.04-.08-.11-.08-.18s.03-.13,.08-.18c.08-.09,.25-.09,.35,0,.05,.06,.07,.12,.07,.18s-.02,.13-.07,.18c-.05,.05-.11,.07-.18,.07Z"/>
        <path class="uuid-1f958b2f-d7f3-4311-ac52-d99b7db642e7" d="M43.25,2.25c-.07,0-.13-.03-.18-.08-.04-.04-.07-.1-.07-.17s.03-.13,.08-.18c.09-.09,.25-.09,.35,0,.05,.05,.07,.12,.07,.18s-.02,.13-.07,.18c-.05,.04-.11,.07-.18,.07Z"/>
        <path class="uuid-1f958b2f-d7f3-4311-ac52-d99b7db642e7" d="M49.5,8.25c-.06,0-.13-.03-.17-.07-.05-.04-.08-.11-.08-.18s.03-.14,.08-.18c.08-.09,.25-.09,.35,0,.05,.05,.07,.12,.07,.18s-.02,.13-.07,.18c-.05,.04-.11,.07-.18,.07Z"/>
        <path class="uuid-1f958b2f-d7f3-4311-ac52-d99b7db642e7" d="M46,9.25c-.06,0-.13-.03-.17-.07-.05-.05-.08-.11-.08-.18s.03-.13,.08-.18c.08-.08,.25-.09,.35,0,.05,.05,.07,.12,.07,.18s-.02,.13-.07,.18c-.05,.04-.11,.07-.18,.07Z"/>
        <path class="uuid-1f958b2f-d7f3-4311-ac52-d99b7db642e7" d="M35.75,11c-.06,0-.13-.03-.17-.07-.05-.05-.08-.11-.08-.18s.03-.13,.08-.18c.09-.09,.25-.09,.35,0,.05,.05,.07,.12,.07,.18s-.02,.13-.07,.18c-.05,.04-.11,.07-.18,.07Z"/>
        <path class="uuid-1f958b2f-d7f3-4311-ac52-d99b7db642e7" d="M39.25,15c-.06,0-.12-.02-.17-.07-.05-.05-.08-.11-.08-.18s.03-.13,.08-.18c.09-.09,.25-.09,.35,0,.05,.06,.07,.12,.07,.18s-.02,.13-.07,.18c-.05,.05-.11,.07-.18,.07Z"/>
        <path class="uuid-1f958b2f-d7f3-4311-ac52-d99b7db642e7" d="M24.75,18c-.06,0-.12-.02-.17-.07-.05-.05-.08-.11-.08-.18s.03-.13,.07-.18c.1-.09,.27-.09,.36,0,.05,.05,.07,.11,.07,.18s-.02,.13-.07,.18c-.05,.05-.11,.07-.18,.07Z"/>
        <path class="uuid-1f958b2f-d7f3-4311-ac52-d99b7db642e7" d="M8.25,27.25c-.06,0-.12-.02-.17-.07-.05-.05-.08-.11-.08-.18s.03-.13,.07-.18c.12-.1,.26-.09,.36,0,.05,.05,.07,.12,.07,.18,0,.07-.02,.13-.07,.18-.05,.04-.11,.07-.18,.07Z"/>
        <path class="uuid-1f958b2f-d7f3-4311-ac52-d99b7db642e7" d="M16,31.75c-.06,0-.13-.03-.18-.07-.04-.05-.07-.11-.07-.18s.03-.13,.08-.18c.1-.09,.25-.09,.35,0,.05,.05,.07,.12,.07,.18s-.02,.13-.07,.18c-.05,.04-.11,.07-.18,.07Z"/>
        <path class="uuid-1f958b2f-d7f3-4311-ac52-d99b7db642e7" d="M10.5,33.5c-.06,0-.12-.02-.17-.07-.05-.05-.08-.12-.08-.18,0-.07,.03-.13,.07-.18,.11-.1,.26-.09,.36,0,.05,.05,.07,.12,.07,.18s-.02,.12-.07,.17c-.05,.06-.11,.08-.18,.08Z"/>
        <path class="uuid-1f958b2f-d7f3-4311-ac52-d99b7db642e7" d="M5.25,37c-.06,0-.13-.03-.17-.07-.05-.05-.08-.11-.08-.18,0-.06,.03-.12,.07-.17,.1-.1,.26-.1,.36,0,.05,.05,.07,.12,.07,.18,0,.07-.02,.13-.07,.18-.05,.05-.12,.07-.18,.07Z"/>
        <path class="uuid-1f958b2f-d7f3-4311-ac52-d99b7db642e7" d="M2.75,32c-.06,0-.13-.03-.17-.07-.05-.05-.08-.12-.08-.18,0-.07,.03-.13,.08-.18,.09-.09,.25-.09,.35,0,.04,.05,.07,.11,.07,.18s-.02,.13-.07,.18c-.05,.04-.11,.07-.18,.07Z"/>
        <path class="uuid-1f958b2f-d7f3-4311-ac52-d99b7db642e7" d="M7.5,25c-.07,0-.13-.03-.18-.07-.04-.05-.07-.11-.07-.18s.03-.13,.07-.18c.11-.09,.25-.09,.35,0,.06,.05,.08,.12,.08,.18s-.02,.13-.07,.18c-.05,.04-.11,.07-.18,.07Z"/>
        <path class="uuid-1f958b2f-d7f3-4311-ac52-d99b7db642e7" d="M3.25,20.5c-.06,0-.13-.03-.17-.07-.05-.05-.08-.11-.08-.18,0-.06,.03-.13,.07-.17,.1-.1,.26-.1,.36,0,.05,.05,.07,.12,.07,.18,0,.07-.02,.13-.07,.18-.05,.05-.12,.07-.18,.07Z"/>
        <path class="uuid-1f958b2f-d7f3-4311-ac52-d99b7db642e7" d="M20.5,30.75c-.06,0-.13-.03-.17-.07-.05-.05-.08-.11-.08-.18s.03-.13,.08-.18c.09-.09,.25-.09,.35,0,.05,.06,.07,.12,.07,.18s-.02,.12-.07,.17c-.05,.05-.11,.08-.18,.08Z"/>
        <path class="uuid-1f958b2f-d7f3-4311-ac52-d99b7db642e7" d="M17.5,35.5c-.06,0-.12-.03-.17-.07-.05-.06-.08-.12-.08-.18,0-.07,.03-.13,.07-.18,.11-.09,.26-.09,.36,0,.05,.05,.07,.11,.07,.18,0,.06-.02,.13-.07,.17-.05,.05-.11,.08-.18,.08Z"/>
        <path class="uuid-1f958b2f-d7f3-4311-ac52-d99b7db642e7" d="M16,39c-.06,0-.12-.02-.17-.07-.05-.05-.08-.11-.08-.18s.03-.13,.08-.18c.09-.09,.25-.09,.35,0,.05,.05,.07,.12,.07,.18s-.02,.13-.07,.18c-.05,.05-.12,.07-.18,.07Z"/>
        <path class="uuid-1f958b2f-d7f3-4311-ac52-d99b7db642e7" d="M12.75,41.25c-.06,0-.13-.03-.17-.07-.05-.05-.08-.11-.08-.18,0-.06,.03-.13,.07-.18,.1-.09,.26-.09,.36,0,.05,.05,.07,.11,.07,.18s-.02,.13-.07,.18c-.05,.04-.11,.07-.18,.07Z"/>
        <path class="uuid-1f958b2f-d7f3-4311-ac52-d99b7db642e7" d="M12.75,46.5c-.07,0-.13-.03-.17-.07-.05-.05-.08-.12-.08-.18,0-.07,.03-.13,.07-.18,.1-.09,.26-.09,.36,0,.05,.05,.07,.11,.07,.18s-.02,.13-.07,.18c-.05,.05-.11,.07-.18,.07Z"/>
        <path class="uuid-1f958b2f-d7f3-4311-ac52-d99b7db642e7" d="M4,46.75c-.06,0-.13-.03-.17-.07-.05-.05-.08-.11-.08-.18,0-.06,.03-.13,.07-.18,.1-.09,.26-.09,.35,0,.06,.05,.08,.12,.08,.18,0,.07-.02,.13-.07,.18-.05,.05-.12,.07-.18,.07Z"/>
        <path class="uuid-1f958b2f-d7f3-4311-ac52-d99b7db642e7" d="M5.75,48.5c-.07,0-.13-.03-.18-.08-.04-.04-.07-.1-.07-.17s.03-.13,.07-.18c.1-.09,.26-.09,.36,0,.05,.05,.07,.11,.07,.18s-.02,.13-.07,.18c-.05,.04-.11,.07-.18,.07Z"/>
        <path class="uuid-1f958b2f-d7f3-4311-ac52-d99b7db642e7" d="M11,50.5c-.06,0-.12-.02-.17-.07-.05-.05-.08-.11-.08-.18,0-.06,.03-.13,.07-.17,.11-.11,.26-.1,.36,0,.05,.06,.07,.12,.07,.18s-.02,.13-.07,.18c-.05,.05-.12,.07-.18,.07Z"/>
        <path class="uuid-1f958b2f-d7f3-4311-ac52-d99b7db642e7" d="M11,54.5c-.06,0-.13-.03-.18-.07-.04-.05-.07-.11-.07-.18s.03-.13,.07-.18c.11-.09,.26-.09,.36,0,.05,.05,.07,.12,.07,.18s-.02,.13-.07,.18c-.05,.04-.11,.07-.18,.07Z"/>
        <path class="uuid-1f958b2f-d7f3-4311-ac52-d99b7db642e7" d="M15.5,58.5c-.06,0-.12-.03-.17-.07-.05-.05-.08-.11-.08-.18s.03-.13,.07-.18c.11-.09,.26-.09,.36,0,.05,.05,.07,.12,.07,.18s-.02,.13-.07,.18c-.05,.04-.11,.07-.18,.07Z"/>
        <path class="uuid-1f958b2f-d7f3-4311-ac52-d99b7db642e7" d="M10,59.75c-.07,0-.13-.03-.18-.07-.04-.05-.07-.12-.07-.18,0-.07,.03-.13,.07-.18,.1-.09,.25-.09,.36,0,.05,.05,.07,.11,.07,.18,0,.06-.02,.13-.07,.18-.05,.05-.11,.07-.18,.07Z"/>
        <path class="uuid-1f958b2f-d7f3-4311-ac52-d99b7db642e7" d="M6,63.5c-.06,0-.12-.02-.17-.07-.05-.05-.08-.12-.08-.18,0-.07,.03-.13,.07-.18,.12-.1,.26-.09,.36,0,.05,.05,.07,.11,.07,.18,0,.06-.02,.12-.07,.17-.05,.06-.11,.08-.18,.08Z"/>
        <path class="uuid-1f958b2f-d7f3-4311-ac52-d99b7db642e7" d="M2.25,62c-.06,0-.12-.02-.17-.07-.05-.05-.08-.11-.08-.18s.03-.13,.07-.18c.11-.09,.25-.09,.35,0,.06,.05,.08,.12,.08,.18s-.02,.13-.07,.18c-.06,.05-.12,.07-.18,.07Z"/>
        <path class="uuid-1f958b2f-d7f3-4311-ac52-d99b7db642e7" d="M7.25,67.75c-.06,0-.13-.03-.17-.07-.05-.05-.08-.12-.08-.18,0-.07,.03-.13,.07-.18,.1-.09,.26-.09,.36,0,.04,.05,.07,.11,.07,.18s-.02,.13-.07,.17c-.05,.06-.11,.08-.18,.08Z"/>
        <path class="uuid-1f958b2f-d7f3-4311-ac52-d99b7db642e7" d="M13.5,69.5c-.06,0-.12-.02-.17-.07-.05-.05-.08-.12-.08-.18,0-.07,.03-.13,.07-.18,.11-.09,.26-.09,.36,0,.05,.05,.07,.12,.07,.18s-.02,.12-.07,.17c-.05,.06-.11,.08-.18,.08Z"/>
        <path class="uuid-1f958b2f-d7f3-4311-ac52-d99b7db642e7" d="M13.5,65.75c-.06,0-.12-.02-.17-.07-.05-.05-.08-.11-.08-.18,0-.06,.03-.13,.07-.17,.11-.11,.26-.1,.36,0,.05,.06,.07,.12,.07,.18s-.02,.13-.07,.18c-.05,.05-.11,.07-.18,.07Z"/>
        <path class="uuid-1f958b2f-d7f3-4311-ac52-d99b7db642e7" d="M21.5,68.5c-.06,0-.12-.02-.17-.07-.05-.05-.08-.11-.08-.18s.03-.13,.08-.18c.09-.09,.25-.09,.35,0,.05,.05,.07,.12,.07,.18s-.02,.12-.07,.17c-.05,.06-.11,.08-.18,.08Z"/>
        <path class="uuid-1f958b2f-d7f3-4311-ac52-d99b7db642e7" d="M23,65.75c-.06,0-.12-.02-.17-.07-.05-.05-.08-.11-.08-.18,0-.06,.03-.12,.07-.17,.11-.11,.26-.1,.36,0,.05,.05,.07,.12,.07,.18,0,.07-.02,.13-.07,.18-.05,.05-.11,.07-.18,.07Z"/>
        <path class="uuid-1f958b2f-d7f3-4311-ac52-d99b7db642e7" d="M22.25,60c-.06,0-.12-.02-.17-.07-.05-.05-.08-.11-.08-.18,0-.06,.03-.12,.07-.17,.11-.11,.26-.1,.36,0,.05,.05,.07,.12,.07,.18,0,.07-.02,.13-.07,.18-.05,.05-.12,.07-.18,.07Z"/>
        <path class="uuid-1f958b2f-d7f3-4311-ac52-d99b7db642e7" d="M24.25,57.5c-.06,0-.12-.02-.17-.07-.05-.05-.08-.11-.08-.18s.03-.13,.08-.18c.1-.09,.25-.09,.35,0,.05,.05,.07,.12,.07,.18s-.02,.13-.07,.18c-.05,.05-.11,.07-.18,.07Z"/>
        <path class="uuid-1f958b2f-d7f3-4311-ac52-d99b7db642e7" d="M22,53.25c-.06,0-.12-.02-.17-.07-.05-.05-.08-.11-.08-.18s.03-.13,.07-.17c.11-.11,.26-.1,.36,0,.05,.06,.07,.12,.07,.18s-.02,.13-.07,.18c-.05,.05-.11,.07-.18,.07Z"/>
        <path class="uuid-1f958b2f-d7f3-4311-ac52-d99b7db642e7" d="M26.25,47.75c-.06,0-.12-.02-.17-.07-.05-.05-.08-.11-.08-.18s.03-.13,.08-.18c.09-.09,.25-.09,.35,0,.05,.05,.07,.12,.07,.18s-.02,.13-.07,.18c-.05,.05-.11,.07-.18,.07Z"/>
        <path class="uuid-1f958b2f-d7f3-4311-ac52-d99b7db642e7" d="M25.75,43.5c-.06,0-.12-.02-.17-.07-.05-.05-.08-.11-.08-.18s.03-.13,.07-.18c.11-.09,.26-.09,.36,0,.05,.06,.07,.12,.07,.18,0,.07-.02,.13-.07,.18-.05,.05-.11,.07-.18,.07Z"/>
        <path class="uuid-1f958b2f-d7f3-4311-ac52-d99b7db642e7" d="M31.25,37.5c-.06,0-.12-.03-.17-.07-.05-.05-.08-.12-.08-.18s.03-.13,.07-.17c.11-.11,.26-.1,.36,0,.05,.06,.07,.12,.07,.18s-.02,.12-.07,.17c-.05,.05-.11,.08-.18,.08Z"/>
        <path class="uuid-1f958b2f-d7f3-4311-ac52-d99b7db642e7" d="M32.25,31c-.06,0-.12-.02-.17-.07-.05-.05-.08-.11-.08-.18,0-.06,.03-.12,.07-.17,.11-.11,.26-.1,.36,0,.05,.05,.07,.12,.07,.18,0,.07-.03,.13-.07,.18-.05,.05-.11,.07-.18,.07Z"/>
        <path class="uuid-1f958b2f-d7f3-4311-ac52-d99b7db642e7" d="M26,34c-.06,0-.12-.02-.17-.07-.05-.05-.08-.11-.08-.18s.03-.13,.08-.18c.1-.09,.25-.09,.35,0,.05,.05,.07,.12,.07,.18s-.02,.13-.07,.18c-.05,.05-.11,.07-.18,.07Z"/>
        <path class="uuid-1f958b2f-d7f3-4311-ac52-d99b7db642e7" d="M34.25,27.75c-.06,0-.13-.03-.17-.07-.05-.05-.08-.11-.08-.18s.03-.13,.08-.18c.09-.09,.25-.09,.35,0,.05,.06,.07,.12,.07,.18s-.02,.13-.07,.18c-.05,.04-.11,.07-.18,.07Z"/>
        <path class="uuid-1f958b2f-d7f3-4311-ac52-d99b7db642e7" d="M37.25,28.5c-.06,0-.13-.03-.17-.07-.05-.05-.08-.11-.08-.18s.03-.13,.08-.18c.09-.09,.25-.09,.34,0,.06,.05,.08,.12,.08,.18s-.02,.12-.07,.17c-.05,.06-.11,.08-.18,.08Z"/>
        <path class="uuid-1f958b2f-d7f3-4311-ac52-d99b7db642e7" d="M41.75,25.75c-.06,0-.12-.03-.17-.07-.05-.05-.08-.11-.08-.18s.03-.13,.08-.18c.09-.09,.26-.09,.35,0,.05,.06,.07,.12,.07,.18s-.02,.12-.07,.17c-.05,.05-.11,.08-.18,.08Z"/>
        <path class="uuid-1f958b2f-d7f3-4311-ac52-d99b7db642e7" d="M43,20.75c-.06,0-.12-.02-.17-.07-.05-.05-.08-.11-.08-.18s.03-.13,.08-.18c.09-.09,.25-.09,.35,0,.05,.05,.07,.12,.07,.18s-.02,.13-.07,.18c-.05,.05-.12,.07-.18,.07Z"/>
        <path class="uuid-1f958b2f-d7f3-4311-ac52-d99b7db642e7" d="M36.5,19.25c-.06,0-.13-.03-.17-.07-.05-.04-.08-.11-.08-.18s.03-.14,.08-.18c.08-.08,.25-.09,.35,0,.05,.05,.07,.12,.07,.18s-.02,.13-.07,.18c-.05,.05-.11,.07-.18,.07Z"/>
        <path class="uuid-1f958b2f-d7f3-4311-ac52-d99b7db642e7" d="M27.75,22.25c-.06,0-.12-.03-.17-.07-.05-.05-.08-.12-.08-.18s.03-.13,.07-.17c.11-.11,.26-.1,.36,0,.05,.05,.07,.11,.07,.18s-.02,.13-.07,.18c-.05,.04-.11,.07-.18,.07Z"/>
        <path class="uuid-1f958b2f-d7f3-4311-ac52-d99b7db642e7" d="M52,22c-.06,0-.13-.03-.17-.07-.05-.05-.08-.11-.08-.18s.03-.13,.08-.18c.09-.09,.25-.09,.35,0,.05,.06,.07,.12,.07,.18s-.02,.12-.07,.17c-.05,.05-.11,.08-.18,.08Z"/>
        <path class="uuid-1f958b2f-d7f3-4311-ac52-d99b7db642e7" d="M43.25,17.75c-.06,0-.13-.03-.17-.07-.05-.05-.08-.11-.08-.18,0-.06,.03-.13,.07-.18,.11-.09,.26-.09,.36,0,.05,.06,.07,.12,.07,.18s-.02,.12-.07,.17c-.05,.06-.11,.08-.18,.08Z"/>
        <path class="uuid-1f958b2f-d7f3-4311-ac52-d99b7db642e7" d="M50.5,18c-.06,0-.13-.03-.17-.07-.05-.05-.08-.11-.08-.18s.03-.13,.08-.18c.08-.09,.25-.09,.35,0,.05,.06,.07,.12,.07,.18s-.02,.12-.07,.17c-.05,.05-.11,.08-.18,.08Z"/>
        <path class="uuid-1f958b2f-d7f3-4311-ac52-d99b7db642e7" d="M59.5,17.25c-.06,0-.13-.03-.17-.07-.05-.05-.08-.11-.08-.18s.03-.13,.08-.18c.08-.09,.25-.09,.35,0,.05,.05,.07,.12,.07,.18s-.02,.13-.07,.18c-.05,.04-.11,.07-.18,.07Z"/>
        <path class="uuid-1f958b2f-d7f3-4311-ac52-d99b7db642e7" d="M58.25,14c-.06,0-.13-.03-.17-.07-.05-.05-.08-.11-.08-.18s.03-.13,.08-.18c.08-.09,.26-.09,.35,0,.05,.05,.07,.11,.07,.18,0,.06-.02,.13-.07,.18-.05,.04-.11,.07-.18,.07Z"/>
        <path class="uuid-1f958b2f-d7f3-4311-ac52-d99b7db642e7" d="M61.5,11c-.06,0-.12-.02-.17-.07-.05-.05-.08-.11-.08-.18s.03-.14,.08-.18c.09-.09,.25-.09,.35,0,.04,.05,.07,.11,.07,.18s-.03,.13-.07,.18c-.05,.05-.11,.07-.18,.07Z"/>
        <path class="uuid-1f958b2f-d7f3-4311-ac52-d99b7db642e7" d="M58.75,7.5c-.06,0-.12-.02-.17-.07-.05-.05-.08-.11-.08-.18s.03-.13,.08-.18c.09-.09,.25-.09,.35,0,.05,.05,.07,.11,.07,.18s-.02,.13-.07,.18c-.05,.05-.11,.07-.18,.07Z"/>
        <path class="uuid-1f958b2f-d7f3-4311-ac52-d99b7db642e7" d="M60,4.75c-.06,0-.13-.03-.17-.07-.05-.05-.08-.11-.08-.18s.03-.13,.07-.18c.11-.09,.26-.09,.36,0,.05,.05,.07,.11,.07,.18s-.02,.13-.07,.17c-.05,.06-.11,.08-.18,.08Z"/>
        <path class="uuid-1f958b2f-d7f3-4311-ac52-d99b7db642e7" d="M67.5,6c-.06,0-.13-.03-.17-.07-.05-.05-.08-.12-.08-.18s.03-.13,.07-.17c.1-.1,.26-.1,.36,0,.05,.06,.07,.12,.07,.18s-.02,.12-.07,.17c-.05,.05-.11,.08-.18,.08Z"/>
        <path class="uuid-1f958b2f-d7f3-4311-ac52-d99b7db642e7" d="M69.5,8c-.06,0-.12-.03-.17-.07-.05-.05-.08-.11-.08-.18,0-.06,.03-.13,.07-.18,.11-.09,.26-.09,.36,0,.05,.05,.07,.12,.07,.18,0,.07-.02,.13-.07,.18-.05,.05-.11,.07-.18,.07Z"/>
        <path class="uuid-1f958b2f-d7f3-4311-ac52-d99b7db642e7" d="M65.75,9.75c-.06,0-.13-.03-.17-.07-.05-.05-.08-.11-.08-.18s.03-.13,.08-.18c.08-.09,.26-.09,.35,0,.05,.05,.07,.12,.07,.18s-.02,.13-.07,.18c-.05,.04-.11,.07-.18,.07Z"/>
        <path class="uuid-1f958b2f-d7f3-4311-ac52-d99b7db642e7" d="M61.75,16.5c-.06,0-.13-.03-.17-.07-.05-.05-.08-.11-.08-.18s.03-.13,.08-.18c.09-.09,.25-.09,.35,0,.05,.05,.07,.12,.07,.18s-.02,.13-.07,.17c-.05,.06-.11,.08-.18,.08Z"/>
        <path class="uuid-1f958b2f-d7f3-4311-ac52-d99b7db642e7" d="M60.25,23.75c-.06,0-.12-.03-.17-.07-.05-.05-.08-.11-.08-.18s.03-.13,.08-.18c.09-.09,.25-.09,.35,0,.04,.05,.07,.11,.07,.18s-.02,.13-.07,.18c-.05,.05-.11,.07-.18,.07Z"/>
        <path class="uuid-1f958b2f-d7f3-4311-ac52-d99b7db642e7" d="M55.5,23.75c-.06,0-.13-.03-.17-.07-.05-.05-.08-.12-.08-.18s.03-.13,.08-.18c.09-.09,.25-.09,.35,0,.05,.05,.07,.12,.07,.18s-.02,.13-.07,.18c-.05,.04-.11,.07-.18,.07Z"/>
        <path class="uuid-1f958b2f-d7f3-4311-ac52-d99b7db642e7" d="M55.5,18.75c-.06,0-.13-.03-.17-.07-.05-.05-.08-.12-.08-.18s.03-.13,.08-.18c.09-.09,.25-.09,.35,0,.05,.05,.07,.12,.07,.18s-.02,.13-.07,.18c-.05,.04-.11,.07-.18,.07Z"/>
        <path class="uuid-1f958b2f-d7f3-4311-ac52-d99b7db642e7" d="M65,25.75c-.06,0-.12-.03-.17-.07-.05-.05-.08-.11-.08-.18s.03-.13,.08-.18c.09-.09,.25-.09,.35,0,.05,.05,.07,.12,.07,.18,0,.07-.02,.13-.07,.18-.05,.05-.11,.07-.18,.07Z"/>
        <path class="uuid-1f958b2f-d7f3-4311-ac52-d99b7db642e7" d="M61.25,27c-.06,0-.13-.03-.17-.07-.05-.05-.08-.11-.08-.18s.03-.13,.08-.18c.09-.09,.25-.09,.35,0,.05,.05,.07,.11,.07,.18s-.03,.13-.07,.18c-.05,.04-.11,.07-.18,.07Z"/>
        <path class="uuid-1f958b2f-d7f3-4311-ac52-d99b7db642e7" d="M57.75,30.75c-.06,0-.12-.02-.17-.07-.05-.05-.08-.11-.08-.18s.03-.13,.08-.18c.09-.09,.25-.09,.35,0,.05,.05,.07,.11,.07,.18s-.02,.13-.07,.17c-.05,.06-.11,.08-.18,.08Z"/>
        <path class="uuid-1f958b2f-d7f3-4311-ac52-d99b7db642e7" d="M52.75,32.75c-.06,0-.13-.03-.17-.07-.05-.05-.08-.11-.08-.18s.03-.13,.08-.18c.09-.09,.25-.09,.35,0,.05,.05,.07,.12,.07,.18s-.02,.13-.07,.17c-.05,.06-.11,.08-.18,.08Z"/>
        <path class="uuid-1f958b2f-d7f3-4311-ac52-d99b7db642e7" d="M47.5,33.75c-.06,0-.12-.03-.17-.07-.05-.05-.08-.11-.08-.18s.03-.13,.08-.18c.09-.09,.25-.09,.34,0,.06,.06,.08,.12,.08,.18s-.02,.12-.07,.17c-.06,.06-.11,.08-.18,.08Z"/>
        <path class="uuid-1f958b2f-d7f3-4311-ac52-d99b7db642e7" d="M44.25,39.25c-.06,0-.12-.03-.17-.07-.05-.05-.08-.11-.08-.18s.03-.13,.08-.18c.09-.09,.25-.09,.35,0,.05,.05,.07,.11,.07,.18s-.02,.13-.07,.18c-.05,.05-.12,.07-.18,.07Z"/>
        <path class="uuid-1f958b2f-d7f3-4311-ac52-d99b7db642e7" d="M34,41.5c-.06,0-.12-.02-.17-.07-.05-.05-.08-.11-.08-.18s.03-.13,.08-.18c.09-.09,.25-.09,.35,0,.05,.05,.07,.12,.07,.18s-.02,.13-.07,.18c-.05,.04-.11,.07-.18,.07Z"/>
        <path class="uuid-1f958b2f-d7f3-4311-ac52-d99b7db642e7" d="M40.75,48c-.06,0-.12-.02-.17-.07-.05-.05-.08-.11-.08-.18s.03-.13,.08-.18c.1-.09,.25-.09,.35,0,.04,.05,.07,.11,.07,.18s-.03,.13-.07,.18c-.05,.05-.11,.07-.18,.07Z"/>
        <path class="uuid-1f958b2f-d7f3-4311-ac52-d99b7db642e7" d="M45.75,52.25c-.06,0-.12-.02-.17-.07-.05-.05-.08-.11-.08-.18s.03-.13,.08-.18c.09-.09,.25-.09,.35,0,.05,.05,.07,.11,.07,.18s-.03,.13-.07,.18c-.05,.05-.11,.07-.18,.07Z"/>
        <path class="uuid-1f958b2f-d7f3-4311-ac52-d99b7db642e7" d="M46.5,56.75c-.06,0-.12-.03-.17-.07-.05-.05-.08-.11-.08-.18s.03-.13,.08-.18c.09-.09,.25-.09,.35,0,.05,.05,.07,.12,.07,.18s-.02,.13-.07,.17c-.05,.06-.11,.08-.18,.08Z"/>
        <path class="uuid-1f958b2f-d7f3-4311-ac52-d99b7db642e7" d="M42,59.5c-.06,0-.12-.02-.17-.07-.05-.05-.08-.11-.08-.18s.03-.13,.08-.18c.1-.09,.25-.09,.35,0,.04,.05,.07,.11,.07,.18s-.02,.13-.07,.18c-.05,.05-.12,.07-.18,.07Z"/>
        <path class="uuid-1f958b2f-d7f3-4311-ac52-d99b7db642e7" d="M40,62.75c-.06,0-.12-.03-.17-.07-.05-.05-.08-.11-.08-.18s.03-.14,.08-.18c.09-.09,.26-.09,.35,0,.05,.05,.07,.11,.07,.18,0,.06-.02,.13-.07,.18-.05,.04-.11,.07-.18,.07Z"/>
        <path class="uuid-1f958b2f-d7f3-4311-ac52-d99b7db642e7" d="M36,62.75c-.06,0-.12-.02-.17-.07-.05-.05-.08-.11-.08-.18s.03-.13,.08-.18c.1-.09,.26-.09,.35,0,.05,.06,.07,.12,.07,.18s-.02,.13-.07,.18c-.05,.04-.11,.07-.18,.07Z"/>
        <path class="uuid-1f958b2f-d7f3-4311-ac52-d99b7db642e7" d="M36.5,52.75c-.07,0-.13-.03-.17-.07-.05-.05-.08-.11-.08-.18s.03-.13,.08-.18c.09-.09,.25-.09,.35,0,.05,.06,.07,.12,.07,.18s-.02,.12-.07,.17c-.05,.05-.11,.08-.18,.08Z"/>
        <path class="uuid-1f958b2f-d7f3-4311-ac52-d99b7db642e7" d="M30,63.5c-.06,0-.13-.03-.17-.07-.05-.05-.08-.11-.08-.18s.03-.13,.08-.18c.09-.09,.25-.09,.35,0,.05,.05,.07,.12,.07,.18s-.02,.13-.07,.17c-.05,.05-.11,.08-.18,.08Z"/>
        <path class="uuid-1f958b2f-d7f3-4311-ac52-d99b7db642e7" d="M31.5,68.5c-.07,0-.13-.03-.18-.08-.04-.04-.07-.1-.07-.17s.03-.14,.08-.18c.09-.08,.25-.09,.34,0,.06,.05,.08,.11,.08,.18,0,.06-.02,.13-.07,.18-.05,.04-.11,.07-.18,.07Z"/>
        <path class="uuid-1f958b2f-d7f3-4311-ac52-d99b7db642e7" d="M37,71c-.06,0-.12-.02-.17-.07-.05-.05-.08-.11-.08-.18s.03-.13,.08-.18c.1-.09,.25-.09,.35,0,.05,.05,.07,.11,.07,.18s-.02,.13-.07,.18c-.05,.05-.11,.07-.18,.07Z"/>
        <path class="uuid-1f958b2f-d7f3-4311-ac52-d99b7db642e7" d="M58.75,57c-.06,0-.12-.02-.17-.07-.05-.05-.08-.11-.08-.18s.03-.13,.08-.18c.09-.09,.25-.09,.35,0,.05,.05,.07,.11,.07,.18s-.02,.13-.07,.18c-.05,.05-.11,.07-.18,.07Z"/>
        <path class="uuid-1f958b2f-d7f3-4311-ac52-d99b7db642e7" d="M63,57c-.06,0-.12-.03-.17-.07-.05-.05-.08-.11-.08-.18s.03-.13,.08-.18c.09-.09,.25-.09,.35,0,.05,.05,.07,.11,.07,.18s-.02,.13-.07,.17c-.05,.06-.11,.08-.18,.08Z"/>
        <path class="uuid-1f958b2f-d7f3-4311-ac52-d99b7db642e7" d="M60,50.75c-.06,0-.12-.03-.17-.07-.05-.05-.08-.11-.08-.18s.03-.14,.08-.18c.09-.09,.25-.09,.35,0,.04,.05,.07,.11,.07,.18s-.02,.13-.07,.18c-.05,.04-.11,.07-.18,.07Z"/>
        <path class="uuid-1f958b2f-d7f3-4311-ac52-d99b7db642e7" d="M54.5,50.5c-.07,0-.13-.03-.17-.07-.05-.05-.08-.12-.08-.18s.03-.13,.07-.17c.1-.1,.26-.1,.36,0,.05,.06,.07,.12,.07,.18s-.02,.12-.07,.17c-.05,.05-.11,.08-.18,.08Z"/>
        <path class="uuid-1f958b2f-d7f3-4311-ac52-d99b7db642e7" d="M59.25,44.25c-.06,0-.13-.03-.17-.07-.05-.05-.08-.12-.08-.18s.03-.13,.07-.17c.1-.1,.27-.1,.36,0,.05,.06,.07,.12,.07,.18s-.02,.12-.07,.17c-.04,.05-.11,.08-.18,.08Z"/>
        <path class="uuid-1f958b2f-d7f3-4311-ac52-d99b7db642e7" d="M54.75,41.75c-.06,0-.13-.03-.17-.07-.05-.05-.08-.12-.08-.18s.03-.13,.08-.18c.08-.09,.25-.09,.35,0,.05,.05,.07,.12,.07,.18s-.02,.13-.07,.18c-.05,.04-.11,.07-.18,.07Z"/>
        <path class="uuid-1f958b2f-d7f3-4311-ac52-d99b7db642e7" d="M55.75,35.5c-.06,0-.12-.02-.17-.07-.05-.05-.08-.11-.08-.18s.03-.13,.08-.18c.09-.09,.25-.09,.35,0,.05,.05,.07,.11,.07,.18s-.02,.13-.07,.18c-.05,.05-.11,.07-.18,.07Z"/>
        <path class="uuid-1f958b2f-d7f3-4311-ac52-d99b7db642e7" d="M62.5,42.25c-.06,0-.13-.03-.17-.07-.05-.05-.08-.11-.08-.18s.03-.13,.08-.18c.08-.08,.24-.09,.34,0,.06,.05,.08,.12,.08,.18s-.02,.13-.07,.18c-.05,.05-.12,.07-.18,.07Z"/>
        <path class="uuid-1f958b2f-d7f3-4311-ac52-d99b7db642e7" d="M67,47.5c-.06,0-.13-.03-.17-.07-.05-.05-.08-.11-.08-.18s.03-.13,.08-.18c.08-.08,.25-.09,.35,0,.05,.05,.07,.11,.07,.18s-.03,.13-.07,.18c-.05,.05-.11,.07-.18,.07Z"/>
        <path class="uuid-1f958b2f-d7f3-4311-ac52-d99b7db642e7" d="M69.5,54.25c-.06,0-.13-.03-.17-.07-.05-.05-.08-.11-.08-.18s.03-.13,.08-.18c.09-.09,.25-.09,.35,0,.05,.05,.07,.11,.07,.18s-.02,.13-.07,.18c-.05,.04-.11,.07-.18,.07Z"/>
        <path class="uuid-1f958b2f-d7f3-4311-ac52-d99b7db642e7" d="M63.5,61.75c-.06,0-.13-.03-.17-.07-.05-.05-.08-.12-.08-.18,0-.07,.03-.13,.08-.18,.07-.08,.25-.1,.35,0,.05,.05,.07,.12,.07,.18s-.02,.12-.07,.17c-.05,.06-.11,.08-.18,.08Z"/>
        <path class="uuid-1f958b2f-d7f3-4311-ac52-d99b7db642e7" d="M69.25,63.5c-.06,0-.12-.02-.17-.07-.05-.05-.08-.11-.08-.18s.03-.13,.08-.18c.09-.09,.25-.09,.35,0,.05,.05,.07,.12,.07,.18s-.02,.13-.07,.17c-.05,.06-.11,.08-.18,.08Z"/>
        <path class="uuid-1f958b2f-d7f3-4311-ac52-d99b7db642e7" d="M64.75,65.5c-.07,0-.13-.03-.17-.07-.05-.05-.08-.12-.08-.18s.03-.12,.07-.17c.1-.1,.27-.1,.36,0,.05,.06,.07,.12,.07,.18s-.02,.12-.07,.17c-.04,.05-.11,.08-.18,.08Z"/>
        <path class="uuid-1f958b2f-d7f3-4311-ac52-d99b7db642e7" d="M65.75,68.25c-.06,0-.13-.03-.17-.07-.05-.05-.08-.11-.08-.18s.03-.13,.08-.18c.08-.09,.26-.09,.35,0,.05,.05,.07,.12,.07,.18,0,.07-.02,.13-.07,.18-.05,.04-.11,.07-.18,.07Z"/>
        <path class="uuid-1f958b2f-d7f3-4311-ac52-d99b7db642e7" d="M69.25,70.5c-.06,0-.13-.03-.17-.07-.05-.05-.08-.12-.08-.18,0-.07,.03-.13,.08-.18,.09-.09,.25-.09,.35,0,.05,.05,.07,.11,.07,.18,0,.06-.02,.13-.07,.17-.05,.06-.11,.08-.18,.08Z"/>
        <path class="uuid-1f958b2f-d7f3-4311-ac52-d99b7db642e7" d="M62.5,70.25c-.06,0-.13-.03-.17-.07-.05-.05-.08-.11-.08-.18s.03-.13,.08-.18c.08-.08,.24-.1,.34,0,.06,.05,.08,.12,.08,.18s-.02,.13-.07,.18c-.06,.05-.12,.07-.18,.07Z"/>
        <path class="uuid-1f958b2f-d7f3-4311-ac52-d99b7db642e7" d="M60.75,65.75c-.06,0-.13-.03-.17-.07-.05-.05-.08-.11-.08-.18s.03-.13,.08-.18c.09-.09,.25-.09,.35,0,.05,.05,.07,.12,.07,.18s-.02,.13-.07,.17c-.05,.06-.11,.08-.18,.08Z"/>
        <path class="uuid-1f958b2f-d7f3-4311-ac52-d99b7db642e7" d="M52.75,69.75c-.06,0-.13-.03-.17-.07-.05-.05-.08-.11-.08-.18s.03-.13,.08-.18c.09-.09,.25-.09,.35,0,.05,.05,.07,.12,.07,.18s-.02,.13-.07,.17c-.05,.06-.11,.08-.18,.08Z"/>
        <path class="uuid-1f958b2f-d7f3-4311-ac52-d99b7db642e7" d="M44.75,66.5c-.07,0-.13-.03-.17-.07-.05-.05-.08-.11-.08-.18s.03-.13,.08-.18c.09-.09,.25-.09,.35,0,.05,.05,.07,.11,.07,.18,0,.06-.02,.13-.07,.17-.05,.05-.11,.08-.18,.08Z"/>
        <path class="uuid-1f958b2f-d7f3-4311-ac52-d99b7db642e7" d="M44.5,71.25c-.06,0-.12-.03-.17-.07-.05-.05-.08-.11-.08-.18s.03-.13,.08-.18c.09-.09,.25-.09,.35,0,.05,.05,.07,.11,.07,.18s-.02,.13-.07,.18c-.05,.05-.12,.07-.18,.07Z"/>
        <path class="uuid-1f958b2f-d7f3-4311-ac52-d99b7db642e7" d="M28.5,71.25c-.07,0-.13-.03-.18-.08-.04-.04-.07-.1-.07-.17s.03-.13,.08-.18c.09-.09,.25-.09,.35,0,.05,.05,.07,.12,.07,.18s-.02,.13-.07,.18c-.04,.04-.11,.07-.18,.07Z"/>
        <path class="uuid-1f958b2f-d7f3-4311-ac52-d99b7db642e7" d="M.75,29.5c-.06,0-.13-.03-.17-.07-.05-.05-.08-.12-.08-.18,0-.07,.03-.13,.08-.18,.08-.09,.24-.09,.35,0,.04,.05,.07,.11,.07,.18s-.02,.13-.07,.18c-.05,.05-.11,.07-.18,.07Z"/>
        <path class="uuid-1f958b2f-d7f3-4311-ac52-d99b7db642e7" d="M24.5,1c-.06,0-.12-.02-.17-.07-.05-.05-.08-.12-.08-.18,0-.07,.03-.13,.07-.18,.11-.09,.26-.09,.36,0,.04,.05,.07,.11,.07,.18s-.02,.13-.07,.17c-.05,.06-.11,.08-.18,.08Z"/>
        <path class="uuid-1f958b2f-d7f3-4311-ac52-d99b7db642e7" d="M13.25,5c-.07,0-.13-.03-.18-.07-.04-.05-.07-.12-.07-.18,0-.07,.03-.13,.07-.18,.09-.09,.26-.09,.36,0,.05,.05,.07,.11,.07,.18,0,.06-.02,.13-.07,.17-.05,.06-.11,.08-.18,.08Z"/>
        <path class="uuid-1f958b2f-d7f3-4311-ac52-d99b7db642e7" d="M71,35.25c-.06,0-.13-.03-.17-.07-.05-.05-.08-.11-.08-.18s.03-.13,.08-.18c.08-.08,.25-.09,.35,0,.05,.05,.07,.11,.07,.18s-.02,.13-.07,.18c-.05,.05-.11,.07-.18,.07Z"/>
      </g>
    </pattern>
    <clipPath id="uuid-938b3c44-035d-4fb3-b9c1-140de8e969c2">
      <rect class="uuid-b673f1ac-be07-4ba3-909b-300f675e4ef4" x="173.03" y="152.99" width="152.84" height="122.69"/>
    </clipPath>
  </defs>
  <g id="uuid-82a54681-b649-4582-99f5-1158d6fec893" data-name="fonds">
    <path class="uuid-64d854c1-b6c7-46e2-88cb-e08d00c7ea01" d="M489.33,347.91c.91-1.05,1.48-2.36,1.36-3.78-.34-4.24-.71-8.49-1.08-12.73-.68-36.61-1.3-73.21-1.35-109.82-.05-41.05,1.39-82.02,2.36-123.05,.35-14.94,.41-29.91-.25-44.84,1.16-1.12,1.87-2.71,2.05-4.45,1.26-12.72,1.31-25.5,.17-38.23-.27-2.96-2.57-6.47-6.06-6.06-72.56,8.58-145.76,8.07-218.68,6.06-72.69-2-145.44-5.44-218.15-2.68-5.16,.2-10.31,.42-15.47,.68-4.66,.24-9.42,.24-14.02,1.1-4.32,.81-8.16,3.3-10.35,7.14-2.2,3.84-2.35,8.45-2.48,12.76-.15,4.75-.28,9.5-.42,14.25-2.79,15.79-3.39,31.83-1.42,47.77,.17,1.37,.66,2.66,1.42,3.69-.04,20.5-.09,41.01-.13,61.51,0,1.32,.36,2.39,.93,3.27,.02,30.5,.05,61.01,.07,91.51,0,9.39,.01,18.79,.02,28.18-.67,.59-1.21,1.3-1.55,2.1,.92,12.02,1.76,24.04,2,36.09,.03,.71,.07,1.42,.1,2.13-.02,.27-.04,.55-.06,.82,.01,.88,.03,1.76,.04,2.63,0,.7-.12,1.33-.33,1.88-.53,9.54-.51,19.11-.26,28.69-.23,5.18-.43,10.35-.63,15.53,.19,5.9,.31,11.8,.32,17.71,0,1.21-.38,2.21-1,2.99-.48,17.6-.71,35.21-.5,52.82,.15,12.82,.55,25.63,1.21,38.43-.89,.61-1.72,1.32-2.47,2.18,0,0,0,0,0,0,.26,3.11,.59,6.21,.92,9.31,.91,.63,2.03,1.02,3.36,1.03,78.47,.67,156.96,.5,235.43-.51,20.84-.27,41.68-.61,62.51-.99,16.98,1.1,33.98,1.72,51.05,1.36,27.76-.57,55.45-2.78,83.18-4.02,15.55-.7,31.12-1.07,46.69-.73,3.17,.07,6.21-2.83,6.06-6.06-2.07-45.21-3.58-90.44-4.59-135.68Z"/>
    <path class="uuid-96537b9d-ffd8-476b-83c5-0055f425efcd" d="M495.36,467.64c0-.23,0-.45,.03-.66-.09-.01-.17-.04-.26-.05-.07-30.25-.15-60.5-.19-90.75-.03-19.97,.56-39.85,1.48-59.7-.27-4.49-.54-8.97-.76-13.46-2.2-19.8-.83-39.89,.48-59.91,.03-.82,.07-1.63,.1-2.45,.21-5.36,.49-10.73,.45-16.09-.02-2.52-.04-4.99,.16-7.45-.83-13.18-1.76-26.33-2.92-39.49-1.21-13.72-1.81-27.38,.28-41.05,.17-1.13,.81-2.01,1.68-2.62-1.26-17.79-1.87-35.62-1.94-53.46-.03-9.33,.08-18.66,.32-27.99-.48-16.18-.64-32.38-.28-48.58-3.99-2.06-9.02-2.03-12.72,.09C349.92,1.24,218.51,3.26,87.32,10.07c-22.91-1.68-45.79-4.16-68.62-7.72C8.6,.77,2.32,10.46,3.67,17.89c2.49,26.02,1.13,52.23-.46,78.38,.28,4.37,.57,8.75,.85,13.12,.36,.64,.63,1.36,.73,2.19,2.24,17.33,.96,34.79-.25,52.15-1.21,17.33-1.74,34.64-1.51,52.01,.23,17.71,.92,35.43,2.23,53.09,1.36,18.36,3.04,36.7,3.1,55.13,0,2.57-1.56,4.1-3.46,4.64,1.33,19.7,2.53,39.41,2.57,59.17,0,1.92-.96,3.3-2.28,4.1-.24,8.55-1.1,17.07-1.81,25.6-.9,10.79-.85,21.48-.46,32.3,.39,11.1,.84,22.23,1.68,33.31,.37,4.92,.96,9.82,1.47,14.73,10.53-.61,21.05-1.25,31.61-1.29,1.6,0,2.8,.58,3.61,1.46,3.3-.11,6.58-.24,9.81-.28,20.82-.31,41.64-.63,62.46-.94,42.44-.64,84.88-1.28,127.32-1.92,76.68-1.15,153.36-2.31,230.04-3.46v.89c3.58-.76,7.42-.75,10.93-.78,3.83-.04,7.56-.36,11.26-.87,1.15-2.09,2.39-4.14,3.36-6.32,.16-.37,.39-.69,.65-.97-.69-5.26-1.69-10.53-1.78-15.67Z"/>
    <line class="uuid-477e1128-1095-4e1b-979b-18ac29c0536f" x1="2.52" y1="15.99" x2="2.52" y2="496.99"/>
    <line class="uuid-477e1128-1095-4e1b-979b-18ac29c0536f" x1="490.14" y1="2.02" x2="9.14" y2="2.02"/>
    <line class="uuid-477e1128-1095-4e1b-979b-18ac29c0536f" x1="497.48" y1="483.02" x2="497.48" y2="2.02"/>
  </g>
  <g id="uuid-e723dfa1-e52a-4cc4-b6a8-1285e4cdf595" data-name="dessin">
    <g>
      <path class="uuid-09c74cc5-8058-421c-81ed-5c0930268297" d="M324.54,338.39c-.06-1.85-.81-3.82-1.87-3.65-11.01,1.74-81.6-1.31-92.62-1.12-11.07,.19-22.12,3.13-33.2,2.02-4.35-.44-9.05-2.71-13.45-1.58-.3-.51-.69-.83-1.15-.83-.68,0-1.41,.9-1.72,2.15-.2,.14-.4,.26-.6,.42-2.09,1.67-1.32,8.15,.69,7.22,.38,10.72,.34,21.48-.19,32.19-.05,1.09,.24,2.08,.67,2.76,.11,1.64,.7,3.17,1.78,3.25,10.71,.81,21.43,1.62,32.14,2.43,10.69,.81,21.4,1.82,32.1,1.1,5.96-.4,71.49-1.4,77.38-3.16,.76-.23,1.42-2.07,1.37-3.52-.44-13.23-.89-26.45-1.33-39.68Z"/>
      <g>
        <line class="uuid-477e1128-1095-4e1b-979b-18ac29c0536f" x1="177.29" y1="335.02" x2="334.19" y2="335.02"/>
        <line class="uuid-477e1128-1095-4e1b-979b-18ac29c0536f" x1="175.73" y1="382.75" x2="327.96" y2="382.75"/>
        <line class="uuid-477e1128-1095-4e1b-979b-18ac29c0536f" x1="324.27" y1="337.56" x2="324.27" y2="385.45"/>
        <line class="uuid-477e1128-1095-4e1b-979b-18ac29c0536f" x1="179.78" y1="327.71" x2="179.78" y2="375.35"/>
        <g>
          <line class="uuid-8e172c06-14ff-4e11-a8e7-3758ced0e351" x1="281.52" y1="304.49" x2="281.52" y2="304.49"/>
          <line class="uuid-e5b197a4-0ae8-4e19-9c18-305b90d099c0" x1="281.52" y1="306.49" x2="281.52" y2="329.46"/>
          <line class="uuid-8e172c06-14ff-4e11-a8e7-3758ced0e351" x1="281.52" y1="330.46" x2="281.52" y2="330.46"/>
        </g>
        <g>
          <line class="uuid-8e172c06-14ff-4e11-a8e7-3758ced0e351" x1="225.79" y1="304.49" x2="225.79" y2="304.49"/>
          <line class="uuid-89910fab-9eeb-4451-aaec-adb785b5e723" x1="225.79" y1="306.57" x2="225.79" y2="324.28"/>
          <line class="uuid-8e172c06-14ff-4e11-a8e7-3758ced0e351" x1="225.79" y1="325.33" x2="225.79" y2="325.33"/>
        </g>
      </g>
      <g>
        <path class="uuid-a1648798-474a-4006-971a-fee5c6472947" d="M231.33,364.65h-4.44l-1.01-2.19h-5.79l-1.01,2.19h-4.44l8.35-16.43,8.35,16.43Zm-9.7-5.48h2.71l-1.35-2.89-1.35,2.89Z"/>
        <path class="uuid-a1648798-474a-4006-971a-fee5c6472947" d="M235.66,349.32v10.3c0,1.23,.59,2.08,2.07,2.08s2.07-.85,2.07-2.08v-10.3h4.23v10.3c0,4.36-2.81,5.92-6.3,5.92s-6.3-1.56-6.3-5.92v-10.3h4.23Z"/>
        <path class="uuid-a1648798-474a-4006-971a-fee5c6472947" d="M245.5,349.32h11.83v3.83h-3.8v11.5h-4.23v-11.5h-3.8v-3.83Z"/>
        <path class="uuid-a1648798-474a-4006-971a-fee5c6472947" d="M264.62,349.32c4.33,0,6.19,1.88,6.19,5.15,0,2.3-.93,3.92-2.98,4.67l3.66,5.52h-4.75l-3.34-5.04h-.78v5.04h-3.8v-15.34h5.81Zm-2.01,6.9h2.01c1.46,0,2.18-.53,2.18-1.75s-.72-1.53-2.18-1.53h-2.01v3.29Z"/>
        <path class="uuid-a1648798-474a-4006-971a-fee5c6472947" d="M276.45,361.04h6.66v3.62h-10.67v-15.34h10.67v3.62h-6.66v2.19h6.23v3.29h-6.23v2.63Z"/>
      </g>
    </g>
    <g>
      <path class="uuid-1a51ee28-f4fe-4ff6-a5ca-d93a560687d0" d="M326.63,207.9c-.92-21-2.91-42-.86-63,.23-2.3-2.19-3.99-4.37-4.11-28.6-1.6-116.37-2.43-145.02-2.5-1.2,0-2.14,.37-2.83,.96-1.84,.31-3.43,1.6-3.37,3.89,.76,28.96,2.64,58.12,1.74,87.08-.22,6.99-.86,13.95-1.17,20.93-.29,6.66-.95,14.6,1.02,21.09,1.85,6.1,10.17,4.55,15.38,4.54,7.47-.01,14.93-.27,22.4-.57,17.49-.7,94.12-1.57,111.6-.26,3.01,.23,4.74-2.79,4.21-5.2-2.27-10.35,.33-20.99,1.11-31.37,.79-10.48,.61-20.99,.15-31.48Z"/>
      <g class="uuid-df746260-cd4f-40e2-8544-d6459f448ab9">
        <g>
          <path class="uuid-37f249d5-63cf-4f56-bd73-4372c28d4409" d="M238.44,430.44c-.43-.72-.87-1.47-1.36-2.27-1.5-.46-3.12-.96-4.95-1.52l-7.51-1.8c-2.85-1.08-5.28-2.01-7.84-2.98-.4-2.66-1.47-5.25-.97-7.52,.68-3.07,.35-5.64-1.35-7.95,.06-.63,.07-1.01,.13-1.38,1.04-6.73,1.37-13.4-.67-20.08-.78-2.56-1.13-5.21-1.27-7.87-.29-5.22-.27-10.45-.17-15.68,.09-4.62,.46-9.24,.62-13.87,.09-2.5,.1-5.01,0-7.51-.1-2.75-.49-5.49-.53-8.24-.12-7.89-.13-15.78-.2-23.68-.01-1.24-.15-3.26-.31-4.49-.62-4.72-1.27-9.43-1.92-14.3,2-1.63,1.66-3.68,1.26-5.84-.78-4.26,.35-8.41,.85-12.67,1.71-5.73-.46-29.14-.72-30.15-1.07-4.13-2.13-8.27-3.05-12.43-1.07-4.83-3.13-9.03-7.76-11.76-.21-.12-.32-.39-.53-.67-.24-1.47-.49-3.02-.77-4.68,2.62-.63,5.06,2.6,7.69,.01,1.14-2.42,2.36-5,3.69-7.84,.53-.35,1.37-.9,2.15-1.42-.55-2.15-1.04-4.07-1.54-5.99,1.08-1.88,1.72-3.77,1.84-5.68,.12-1.86,.46-3.52,1.36-5.12,.22-.39,.44-.78,.74-1.16,2.29-2.99,1.9-5.45-.7-8.42-.9-.18-1.84-.19-2.61-.55-2.99-1.4-5.88-2.98-8.88-4.34-1.06-.48-2.23-.69-3.41-.67-1.83,.04-3.66,.33-5.47,.62-6.54,1.04-12.04,5.83-13.39,11.77-1.17,5.18-1.44,10.38-.35,15.64,.24,1.15,.25,2.35,.19,3.55-.02,.44-.02,.89-.07,1.32-.11,1.06-1.95,3.11-2.32,4.02-1.26,.44-2.24,.79-3.19,1.12l-2.16,4.29c-4.06,1.35-5.58,4.63-6.7,8.23-1.46,4.67-1.55,9.45-.73,14.16,1.11,6.41,2.7,12.75,4.1,19.12,1.62,7.38,2.87,14.8,1.96,22.35-.44,3.7-1.38,7.34-2.07,10.94,.42,.37,.74,.61,.98,.9,.23,.26,.37,.59,.7,1.13-3.97,6.03-3.74,12.58-1.81,19.15,1.64,5.56,1.61,11.07,.81,16.73-1.06,7.44-1.79,14.92-2.54,22.4-.58,5.71,.36,10.42-1.83,15.88-.56,1.4-.86,2.88-1.05,4.36-.84,6.48-1.64,12.96-2.38,19.45-.56,4.84-1.06,9.69-1.5,14.54-.32,3.6-.87,7.24-.59,10.81,.18,2.34,.07,4.58-.85,6.57-1.24,2.69-1.21,5.04,.44,7.24-.31,1.49-.6,2.84-.89,4.23h79.37Zm-47.28-5.56c-2.75-.98-4.65-2.68-6.66-3.99-1-3.5-.46-6.67,.9-9.93,.9-2.16,1.01-4.63,1.34-6.98,.63-4.56,1.16-9.13,1.81-14.3,1.6,3.05,1.86,3.99,1.99,6.69,.21,4,.32,8,.66,11.98,.24,2.84,.79,5.66,1.37,9.69-.32,1.56-.82,3.98-1.42,6.84Z"/>
          <path class="uuid-37f249d5-63cf-4f56-bd73-4372c28d4409" d="M223.85,264.24c.78,2.28,.12,15.7-.53,17.3,0,0,0-.01,.01-.02,1.28-2.49,5.8-4.17,15.04-4.79,9.24-.62,36.05-2.48,43.39,2.56-2.14-2.07-3.39-18.57-3.39-18.57,0,0,9.21-1.77,12.58-3.08,3.37-1.3,1.78-7.73,.25-11.53-1.7-4.25-2.46-7.88-3.74-12.08-1.08-3.55-2.51-7.69-3.25-11.3-.44-2.14-1.13-4.25-1.67-6.38-.46-1.77-1.76-2.76-4.18-3.1-4.14-.58-8.29-1.19-12.34-2.05-2.01-.43-3.98-1.13-5.78-1.98-.23-.11-.47-.21-.7-.33-2.8-1.41-3.2-2.95-1.92-5.36,.45-.85,1.07-1.64,1.57-2.48,1.94-3.25,3.68-6.52,3.47-10.2-.02-.37-.01-.83,.08-1.23h0c.07-.3,.19-.57,.41-.7,1.57-.87,1.86-1.88,1.78-2.95-.05-.65-.24-1.33-.36-2.03-.55-3.01-1.93-5.71-3.88-8.29-.38-.5-.77-1-1.19-1.5,0,0,0,0,0,0-.21-.25-.43-.48-.66-.7-.07-.07-.15-.14-.22-.21-.16-.15-.33-.3-.5-.44-.09-.07-.17-.14-.26-.21-.17-.13-.35-.26-.53-.38-.08-.06-.17-.11-.25-.17-.23-.15-.46-.28-.7-.41-.04-.02-.08-.05-.12-.07-.29-.15-.59-.3-.9-.43-.03-.01-.06-.02-.09-.04-.28-.12-.56-.22-.84-.32-.06-.02-.12-.04-.17-.06-.27-.09-.55-.17-.83-.25-.04-.01-.08-.02-.13-.03-5.21-1.35-11.43-.03-14.91,2.81-.02,.02-.04,.03-.06,.05-.27,.22-.53,.46-.76,.7,0,0,0,0-.01,.01-.22,.23-.43,.47-.61,.72-.04,.05-.08,.11-.12,.16-.18,.25-.35,.5-.48,.77-1.28,2.42-2.22,4.99-2.81,7.56-.23,1.01-.53,2.03-.54,3.06-.01,1.03,.25,2.08,1.16,3.13h0c.97,1.12,.54,2.9,.93,4.36,.62,2.34,1.15,4.73,2.16,6.98,1.34,2.99,1.08,5.06-1.65,6.91-.47,.32-.99,.63-1.62,.94-3.01,1.5-6.35,2.61-9.58,3.85-1.21,.46-2.51,.78-3.75,1.19-7.14,2.38-10.39,6.71-10.76,12.45-.11,1.72-.11,3.44-.05,5.16,.14,3.79-.51,7.5-1.35,11.25-1.51,6.68-1.99,13.41,.33,20.08,.34,.99,.77,1.98,1.37,2.89,2.26,3.46,5.41,3.95,9.43,1.51,1.38-.84,2.67-1.74,4.24-2.77Z"/>
          <path class="uuid-37f249d5-63cf-4f56-bd73-4372c28d4409" d="M242.66,223.59c.41-1.3,5.34-.34,7.36,.39,1.45,.52,2.93,.73,4.44,.81,.63,.04,1.25,.06,1.89,.06,4.91,.04,9.83,.37,14.74,.28,3.97-.08,7.94-.56,11.9-.94,2.14-.2,3.47-1.42,4.34-3.18,1.73-3.46,2.47-7.18,2.97-10.89,.21-1.57-.58-3.32-1.15-4.91-.47-1.28-.32-2.34,.4-3.47,.31-.48,.63-.97,.8-1.5,.16-.51,.18-1.05-.1-1.64-4.67,.49-4.9,.34-6.77-3.82-1.27-2.81-1.84-5.75-2.2-8.76-.07-.62-.16-1.49-.6-1.78-1.53-.99-1.6-2.23-1.38-3.73,.24-1.59-.9-2.82-.96-4.58-.05-1.63,.35-2.93,.8-3.73,2.27-4,4.84-5.75,9.46-7.12,.77-.23,1.64-.46,2.57-.67,.02,0,.04,0,.06-.01,.43-.1,.88-.19,1.33-.27,.04,0,.09-.02,.13-.02,.45-.08,.91-.15,1.37-.21,.03,0,.06,0,.1-.01,.46-.06,.92-.1,1.37-.13,.02,0,.04,0,.06,0,.44-.03,.88-.04,1.31-.03,.07,0,.14,0,.21,0,.41,0,.82,.04,1.22,.08,.07,0,.15,.02,.22,.03,.4,.05,.78,.12,1.15,.21,.05,.01,.1,.03,.16,.05,.38,.11,.75,.23,1.09,.39,.2,.1,.42,.22,.65,.37,.69,.45,1.48,1.12,2.2,1.84,.96,.96,1.82,2.01,2.18,2.76,.17,.34,.34,.7,.51,1.07,.09,.19,.18,.38,.28,.59,0,0,0,0,0,0,.1,.07,.19,.15,.29,.24,.21,.18,.17,.15,.44,.25,1.01,.39,.82,1.14,1.14,1.95,.36,.89,1.24,1.46,1.36,2.45,.03,.25-.03,.54,.03,.79,.07,.24,.27,.36,.41,.57,.25,.38,.19,.76,.14,1.19-.02,.14-.03,.28-.05,.42,0,.03,0,.06-.01,.09-.01,.14-.03,.27-.05,.4,0,.03,0,.06-.01,.09-.02,.14-.05,.27-.08,.41,0,.01,0,.02,0,.03-.04,.15-.09,.3-.15,.44,0,0,0,0,0,0,.09,.37,.17,.75,.24,1.11,.09,.46,.16,.91,.21,1.35,.66,4.39,3.56,9.52,4.18,10.43,.05,.07,.08,.12,.1,.14,1.82,1.81,5.13,3.61,7.66,5.44,.84,.61,1.6,1.23,2.19,1.85,1.67,1.77,3.32,3.59,4.7,5.56,.71,1.02,1.31,2.09,1.77,3.19,.77,1.84,1.19,3.8,1.21,5.87,.04,3.96-.32,7.87-1.09,11.78-.79,4.06-1.4,8.16-1.99,12.25-.12,.84-.17,1.66-.15,2.48,.05,2.46,.7,4.84,1.84,7.14,.95,1.92,1.31,3.9,1.28,6.02-.09,5.93-.03,11.86-.03,17.92-.24,.51-.45,.98-.65,1.4-.6,1.28-1.06,2.22-1.48,2.99-.28,.51-.54,.95-.82,1.37-.14,.21-.28,.41-.42,.62-.15,.2-.3,.41-.46,.62-.34,.44-.82,.9-1.4,1.38-2.64,2.13-7.49,4.46-11.64,5.91-.46,.16-.91,.31-1.35,.45-.88,.28-1.71,.5-2.46,.67-.75,.17-1.41,.27-1.97,.31-1.09,.17-2.21,.34-3.34,.5-1.32,.19-2.67,.39-4.02,.59-.03,0-.05,0-.08,.01-1.15,.17-2.31,.36-3.47,.55-.1,.02-.2,.04-.31,.06-.96,.17-1.91,.34-2.86,.53-.31,.06-.62,.13-.94,.19-.78,.17-1.56,.34-2.33,.53-.31,.08-.62,.15-.93,.23-1.04,.27-2.06,.56-3.05,.88-.85,.28-2.49,1.18-.61,2.17,.58,.36,1.15,.73,1.71,1.09,1.68,1.1,3.28,2.21,4.88,3.32,1.6,1.11,3.19,2.23,4.85,3.35,.56,.37,1.12,.75,1.69,1.12,.27,.18,.58,.32,.9,.47,.63,.29,1.28,.58,1.68,1.11,.2,.26,.34,.59,.38,1.01,0,.08,.12,.15,.27,.22,.15,.07,.33,.13,.46,.17,.14,.04,.25,.1,.38,.15h0c3,1.08,3.8,3.66,4.52,6.17,.21,.74-.32,1.88-.9,2.54-.63,.71-1.26,1.42-1.89,2.14-.01,.01-.02,.03-.04,.04-2.98,3.36-5.98,6.7-9.15,9.91-2.79,2.82-6.39,4.69-10.37,5.84-1.7,.49-3.44,.53-5.09-.27-1.24-.6-1.72-1.38-1.17-2.55,.73-1.54,1.63-3.04,2.67-4.41,1.97-2.61,4.14-5.09,5.59-8.06-.67,.18-.9,.13-1.08-.15-.83,.07-1.45,.58-2.08,1.02-2.6,1.83-5.14,3.74-7.81,5.47-1.66,1.08-3.49,1.95-5.31,2.8-.7,.33-1.57,.48-2.36,.47-1.28-.02-1.91-.97-1.22-1.94,.77-1.09,1.63-2.28,2.79-2.95,3.1-1.8,4.31-4.44,4.82-7.54-.07-.02-.18-.09-.33-.2-1.09-.87-4.07-4.33-5.77-8.14-1.6-1.8-3.28-3.54-4.78-5.41-2.23-2.78-10.76-11.18-11.76-12.11-3.24-3.02-5.47-4.73-7.24-8.18-.55-1.8-1.17-2.29-1.41-3.56-.21-1.11-.54-2.2-.69-3.32-.46-3.54,.17-4.59,3.65-6.32,4.2-2.08,8.78-3.09,13.39-3.95,4.09-.77,8.23-1.32,12.52-2-.37-1.04-.74-2-1.04-2.98-.42-1.4-.09-2.7,1.22-3.52,1.42-.88,2.96-1.63,4.54-2.27,1.13-.46,1.94-.93,2-2.18,.2-4.23,.45-8.45,.67-12.67,0-.17-.11-.35-.24-.7-1.12,0-2.32-.1-3.5,.02-4.77,.48-25.26-2.38-25.48-2.88-1.47,.35-2.84,.86-4.23,.95-2.81,.19-6.47-.54-7.87-3.11-1.13-2.07-2.01-7.84,2.13-9.38Z"/>
        </g>
      </g>
      <path class="uuid-cc5c0642-b885-48d4-b87c-38547339d119" d="M340.4,134.48c4.01-11.85-12.25-10.47-19.08-10.92-4.38-.28-8.75-.54-13.11-.76-2.59,.13-5.18,.26-7.77,.42-15.1,.91-30.16,1.83-45.28,2.16-2.31,.05-4.62,.08-6.92,.11-.6-.09-1.22-.08-1.81,.03-26.34,.32-52.64-.43-78.99-.47-.76,0-1.43-.15-2-.39-2.12,.79-3.53,2.77-3.75,5.56-.08,1.02,.31,2.07,.94,2.93-.73,11.84,.21,23.66,.69,35.51,.53,12.94-.46,25.73-1.2,38.64-1.52,26.27-1.26,52.66-1.61,78.97-.04,3.42,2.72,5.03,5.35,4.83,.56,.22,1.17,.34,1.85,.31,13.63-.67,27.17-.45,40.72,.18,.5-.14,1.07-.2,1.69-.15,8.38,.59,16.62-.94,24.98-1.03,8.38-.08,16.81,0,25.19,.03,8.82,.03,17.62,.93,26.45,.9,5.29-.02,10.77-.87,16.03-.12,10.05,.24,20.09,.43,30.08,.78,3.79,.13,5.34-3.31,4.66-6.21,0,0,0-.01,0-.02,.37-20.16,.46-40.32,.26-60.48,0-.77-.16-1.45-.42-2.04,.48-17.53,.96-35.06,1.45-52.59,.03-.91-.15-1.68-.47-2.33,0-.22,.01-.44,0-.68-.74-9.53-1.07-19.07-1.01-28.62,1.35-1.11,2.42-2.59,3.08-4.55Zm-109.33,140.86c-9.2-.08-18.36-.62-27.55-.81-4.43-.09-8.77,.17-13.17,.55-3.77,.32-7.61,.14-11.37,.64-1.98,1.69-5.34,1.58-7.15-.32-.41,.1-.83,.19-1.23,.31,0-1,.02-2.01,.02-3.01-.02-.21-.05-.41-.05-.63v-.84c0-.24,.03-.48,.06-.72,.16-21.08,.25-42.18,1.46-63.21,.72-12.58,1.72-25.07,1.24-37.68-.39-10.23-1.17-20.45-.96-30.67,23.45-1.07,46.82-1.04,70.2-.46,.32,22.42,1.14,44.73,3.63,67.06,2.62,23.48,.65,47.01-.72,70.51-4.79-.34-9.59-.67-14.41-.71Zm95.95-39.52c-.29,10.7-.57,21.39-.86,32.09-.07,2.51-.25,5.08-.38,7.66-.95,.13-1.89,.32-2.82,.52-2.63-.62-5.67-.27-8.27-.34-4.31-.12-8.63-.3-12.95-.32-8.73-.03-17.62,1.79-26.29,.33-5.64,.61-11.29,1.12-16.97,1,.95-33.44,.75-66.91-.59-100.33,.32-12.49,.64-24.97,.95-37.46,17.79,.61,35.59,1.45,53.42,2.27,3.39,.16,8,.84,12.53,.91,1.4,22.73,1.3,45.2,.19,68.08-.11,2.26,1.04,3.73,2.6,4.4-.19,7.06-.39,14.13-.58,21.19Z"/>
      <line class="uuid-477e1128-1095-4e1b-979b-18ac29c0536f" x1="337.6" y1="128.41" x2="337.6" y2="289.25"/>
      <line class="uuid-477e1128-1095-4e1b-979b-18ac29c0536f" x1="163.21" y1="128.41" x2="163.21" y2="289.25"/>
      <line class="uuid-477e1128-1095-4e1b-979b-18ac29c0536f" x1="146.39" y1="124.63" x2="345.57" y2="124.63"/>
      <line class="uuid-477e1128-1095-4e1b-979b-18ac29c0536f" x1="161.35" y1="117.92" x2="348.56" y2="117.92"/>
      <line class="uuid-477e1128-1095-4e1b-979b-18ac29c0536f" x1="138.78" y1="290.87" x2="377.11" y2="290.87"/>
      <line class="uuid-477e1128-1095-4e1b-979b-18ac29c0536f" x1="144.42" y1="303.25" x2="387.26" y2="303.25"/>
      <line class="uuid-477e1128-1095-4e1b-979b-18ac29c0536f" x1="372.2" y1="285.87" x2="372.2" y2="301.38"/>
      <line class="uuid-477e1128-1095-4e1b-979b-18ac29c0536f" x1="171.26" y1="133.85" x2="171.26" y2="285.41"/>
      <line class="uuid-477e1128-1095-4e1b-979b-18ac29c0536f" x1="164.62" y1="138.29" x2="339.32" y2="138.29"/>
      <line class="uuid-477e1128-1095-4e1b-979b-18ac29c0536f" x1="257.62" y1="128.53" x2="257.62" y2="289.41"/>
      <line class="uuid-477e1128-1095-4e1b-979b-18ac29c0536f" x1="246.65" y1="128.2" x2="246.65" y2="291.17"/>
      <line class="uuid-477e1128-1095-4e1b-979b-18ac29c0536f" x1="166.61" y1="276.6" x2="332.01" y2="276.6"/>
      <line class="uuid-477e1128-1095-4e1b-979b-18ac29c0536f" x1="326.04" y1="133.85" x2="326.04" y2="285.41"/>
    </g>
  </g>
</svg>