<?xml version="1.0" encoding="UTF-8"?>
<svg xmlns="http://www.w3.org/2000/svg" width="500" height="500" xmlns:xlink="http://www.w3.org/1999/xlink" viewBox="0 0 500 500">
  <defs>
    <style>
      .uuid-d042f320-2890-4d3c-b0b7-6bab31336354, .uuid-b2e5601c-df5b-40aa-b357-6405a0636cb2, .uuid-95d4ec4d-9059-4458-88bc-1717e8acdbe3, .uuid-5ed75359-80de-468c-8576-73748192c6a2 {
        fill: none;
      }

      .uuid-f9520cc4-1e23-478d-aa68-78705ab5dfb0 {
        fill: #fff;
      }

      .uuid-44f35133-2cc5-4f19-929a-d332648d7f57 {
        fill: #faf7f5;
      }

      .uuid-f5b12581-5639-4e5d-8bda-f45e22bc4f07 {
        fill: #c9514a;
      }

      .uuid-bec64508-f4b6-4da8-a624-b4d82a34930a {
        fill: #1d1d1b;
      }

      .uuid-b2e5601c-df5b-40aa-b357-6405a0636cb2 {
        stroke-dasharray: 0 0 0 2.01;
      }

      .uuid-b2e5601c-df5b-40aa-b357-6405a0636cb2, .uuid-95d4ec4d-9059-4458-88bc-1717e8acdbe3 {
        stroke-linecap: round;
      }

      .uuid-b2e5601c-df5b-40aa-b357-6405a0636cb2, .uuid-95d4ec4d-9059-4458-88bc-1717e8acdbe3, .uuid-5ed75359-80de-468c-8576-73748192c6a2 {
        stroke: #262631;
        stroke-miterlimit: 10;
      }

      .uuid-5ed75359-80de-468c-8576-73748192c6a2 {
        stroke-width: .75px;
      }

      .uuid-da98fc3b-52e9-41a1-a406-747e5481b839 {
        fill: url(#uuid-7506f321-f400-4ec3-a58e-e9a5febc1423);
        opacity: .25;
      }
    </style>
    <pattern id="uuid-7506f321-f400-4ec3-a58e-e9a5febc1423" data-name="Lac asséché sableux USGS 17" x="0" y="0" width="72" height="72" patternTransform="translate(10294.96 8776.8) scale(2.42)" patternUnits="userSpaceOnUse" viewBox="0 0 72 72">
      <g>
        <rect class="uuid-d042f320-2890-4d3c-b0b7-6bab31336354" width="72" height="72"/>
        <path class="uuid-bec64508-f4b6-4da8-a624-b4d82a34930a" d="M21,3c-.06,0-.12-.02-.17-.07-.05-.05-.08-.11-.08-.18s.03-.13,.08-.18c.09-.09,.25-.09,.35,0,.05,.05,.07,.11,.07,.18,0,.06-.02,.12-.07,.17-.05,.06-.11,.08-.18,.08Z"/>
        <path class="uuid-bec64508-f4b6-4da8-a624-b4d82a34930a" d="M20,8.25c-.06,0-.13-.03-.18-.07-.04-.05-.07-.11-.07-.18s.03-.13,.07-.18c.1-.09,.26-.09,.36,0,.04,.05,.07,.11,.07,.18s-.03,.13-.07,.18c-.05,.05-.11,.07-.18,.07Z"/>
        <path class="uuid-bec64508-f4b6-4da8-a624-b4d82a34930a" d="M20.25,10.5c-.06,0-.13-.03-.17-.07-.05-.05-.08-.11-.08-.18s.03-.13,.07-.18c.1-.09,.27-.09,.36,0,.04,.05,.07,.11,.07,.18s-.03,.14-.08,.18c-.04,.04-.1,.07-.17,.07Z"/>
        <path class="uuid-bec64508-f4b6-4da8-a624-b4d82a34930a" d="M18,12.75c-.06,0-.12-.03-.17-.07-.05-.05-.08-.11-.08-.18s.03-.13,.07-.18c.11-.09,.26-.09,.36,0,.05,.05,.07,.11,.07,.18s-.02,.13-.07,.18c-.05,.04-.11,.07-.18,.07Z"/>
        <path class="uuid-bec64508-f4b6-4da8-a624-b4d82a34930a" d="M15.25,10.5c-.06,0-.12-.02-.17-.07-.05-.05-.08-.12-.08-.18,0-.07,.03-.13,.07-.18,.12-.1,.26-.09,.36,0,.05,.05,.07,.11,.07,.18,0,.06-.02,.13-.07,.17-.05,.06-.11,.08-.18,.08Z"/>
        <path class="uuid-bec64508-f4b6-4da8-a624-b4d82a34930a" d="M22.75,20c-.06,0-.12-.02-.17-.07-.05-.05-.08-.11-.08-.18,0-.06,.03-.13,.07-.17,.11-.11,.27-.1,.36,0,.05,.06,.07,.12,.07,.18s-.02,.13-.07,.18c-.05,.04-.11,.07-.18,.07Z"/>
        <path class="uuid-bec64508-f4b6-4da8-a624-b4d82a34930a" d="M15.25,23c-.06,0-.12-.02-.17-.07-.05-.05-.08-.11-.08-.18,0-.06,.03-.12,.07-.17,.12-.11,.26-.1,.36,0,.05,.05,.07,.12,.07,.18,0,.07-.02,.13-.07,.18-.05,.05-.11,.07-.18,.07Z"/>
        <path class="uuid-bec64508-f4b6-4da8-a624-b4d82a34930a" d="M14,24c-.07,0-.13-.03-.18-.08-.04-.04-.07-.1-.07-.17s.03-.13,.07-.18c.11-.1,.26-.09,.36,0,.05,.05,.07,.12,.07,.18,0,.07-.02,.13-.07,.18-.05,.04-.11,.07-.18,.07Z"/>
        <path class="uuid-bec64508-f4b6-4da8-a624-b4d82a34930a" d="M24,27c-.06,0-.12-.02-.17-.07-.05-.05-.08-.11-.08-.18s.03-.13,.07-.17c.11-.11,.26-.1,.36,0,.05,.06,.07,.12,.07,.18,0,.07-.02,.13-.07,.18-.05,.05-.11,.07-.18,.07Z"/>
        <path class="uuid-bec64508-f4b6-4da8-a624-b4d82a34930a" d="M30.75,25.75c-.06,0-.12-.02-.17-.07-.05-.05-.08-.11-.08-.18s.03-.13,.08-.18c.1-.09,.25-.09,.35,0,.05,.05,.07,.12,.07,.18s-.02,.13-.07,.18c-.05,.05-.11,.07-.18,.07Z"/>
        <path class="uuid-bec64508-f4b6-4da8-a624-b4d82a34930a" d="M31.25,23.25c-.06,0-.12-.03-.17-.07-.05-.05-.08-.11-.08-.18,0-.06,.03-.13,.07-.17,.11-.11,.26-.1,.36,0,.05,.06,.07,.12,.07,.18,0,.07-.02,.13-.07,.18-.05,.04-.11,.07-.18,.07Z"/>
        <path class="uuid-bec64508-f4b6-4da8-a624-b4d82a34930a" d="M29.25,18.25c-.06,0-.12-.02-.17-.07-.05-.05-.08-.11-.08-.18s.03-.13,.08-.18c.1-.09,.25-.09,.35,0,.05,.05,.07,.11,.07,.18s-.03,.13-.07,.18c-.05,.05-.12,.07-.18,.07Z"/>
        <path class="uuid-bec64508-f4b6-4da8-a624-b4d82a34930a" d="M32.25,18.25c-.06,0-.12-.02-.17-.07-.05-.05-.08-.11-.08-.18s.03-.13,.07-.18c.11-.09,.26-.09,.36,0,.04,.05,.07,.11,.07,.18s-.03,.13-.07,.18c-.05,.05-.11,.07-.18,.07Z"/>
        <path class="uuid-bec64508-f4b6-4da8-a624-b4d82a34930a" d="M32.5,13.75c-.06,0-.13-.03-.17-.07-.05-.05-.08-.11-.08-.18s.03-.13,.08-.18c.09-.09,.26-.09,.35,0,.05,.05,.07,.12,.07,.18s-.02,.12-.07,.17c-.05,.05-.11,.08-.18,.08Z"/>
        <path class="uuid-bec64508-f4b6-4da8-a624-b4d82a34930a" d="M31.75,11.75c-.06,0-.12-.02-.17-.07-.05-.05-.08-.11-.08-.18s.03-.13,.08-.18c.1-.09,.25-.09,.35,0,.05,.05,.07,.11,.07,.18s-.03,.13-.07,.18c-.05,.05-.11,.07-.18,.07Z"/>
        <path class="uuid-bec64508-f4b6-4da8-a624-b4d82a34930a" d="M29.25,10.75c-.07,0-.13-.03-.18-.07-.04-.05-.07-.11-.07-.18s.03-.13,.08-.18c.1-.09,.25-.09,.35,0,.05,.05,.07,.11,.07,.18s-.02,.13-.07,.18c-.05,.04-.11,.07-.18,.07Z"/>
        <path class="uuid-bec64508-f4b6-4da8-a624-b4d82a34930a" d="M32.25,7c-.06,0-.12-.02-.17-.07-.05-.05-.08-.11-.08-.18s.03-.13,.07-.18c.11-.09,.26-.09,.36,0,.05,.05,.07,.11,.07,.18s-.03,.13-.07,.18c-.05,.05-.11,.07-.18,.07Z"/>
        <path class="uuid-bec64508-f4b6-4da8-a624-b4d82a34930a" d="M32,3c-.06,0-.12-.03-.17-.07-.05-.05-.08-.11-.08-.18s.03-.13,.08-.18c.1-.09,.25-.09,.35,0,.05,.05,.07,.12,.07,.18s-.02,.13-.07,.18c-.05,.04-.11,.07-.18,.07Z"/>
        <path class="uuid-bec64508-f4b6-4da8-a624-b4d82a34930a" d="M29.25,3.25c-.06,0-.12-.02-.17-.07-.05-.05-.08-.11-.08-.18s.03-.13,.08-.18c.09-.09,.25-.09,.35,0,.05,.05,.07,.11,.07,.18,0,.06-.02,.13-.07,.17-.05,.06-.11,.08-.18,.08Z"/>
        <path class="uuid-bec64508-f4b6-4da8-a624-b4d82a34930a" d="M34,1.25c-.06,0-.13-.03-.17-.07-.05-.05-.08-.11-.08-.18s.03-.14,.08-.18c.09-.09,.26-.09,.35,0,.05,.05,.07,.11,.07,.18,0,.06-.02,.12-.07,.17-.05,.05-.11,.08-.18,.08Z"/>
        <path class="uuid-bec64508-f4b6-4da8-a624-b4d82a34930a" d="M41.5,7c-.06,0-.13-.03-.17-.07-.05-.05-.08-.11-.08-.18s.03-.13,.08-.18c.09-.09,.24-.09,.34,0,.06,.06,.08,.12,.08,.18s-.02,.12-.07,.17c-.05,.06-.11,.08-.18,.08Z"/>
        <path class="uuid-bec64508-f4b6-4da8-a624-b4d82a34930a" d="M45.5,6.75c-.06,0-.12-.02-.17-.07-.05-.05-.08-.11-.08-.18s.03-.13,.08-.18c.09-.09,.25-.09,.35,0,.05,.05,.07,.12,.07,.18s-.02,.13-.07,.18c-.05,.05-.12,.07-.18,.07Z"/>
        <path class="uuid-bec64508-f4b6-4da8-a624-b4d82a34930a" d="M40.25,10.25c-.06,0-.12-.02-.17-.07-.05-.05-.08-.12-.08-.18,0-.07,.03-.13,.07-.18,.11-.09,.26-.09,.36,0,.05,.05,.07,.11,.07,.18,0,.06-.02,.13-.07,.17-.05,.06-.11,.08-.18,.08Z"/>
        <path class="uuid-bec64508-f4b6-4da8-a624-b4d82a34930a" d="M45,11.75c-.06,0-.12-.02-.17-.07-.05-.05-.08-.11-.08-.18s.03-.13,.08-.18c.1-.09,.25-.09,.35,0,.04,.05,.07,.11,.07,.18s-.02,.13-.07,.18c-.05,.05-.11,.07-.18,.07Z"/>
        <path class="uuid-bec64508-f4b6-4da8-a624-b4d82a34930a" d="M45,13.5c-.06,0-.12-.02-.17-.07-.05-.05-.08-.11-.08-.18s.03-.13,.08-.18c.08-.09,.26-.09,.35,0,.05,.04,.07,.1,.07,.17s-.02,.13-.07,.18c-.05,.05-.11,.07-.18,.07Z"/>
        <path class="uuid-bec64508-f4b6-4da8-a624-b4d82a34930a" d="M47,14.25c-.06,0-.12-.02-.17-.07-.05-.05-.08-.11-.08-.18s.03-.13,.08-.18c.09-.09,.25-.09,.35,0,.05,.05,.07,.12,.07,.18s-.02,.13-.07,.18c-.05,.05-.11,.07-.18,.07Z"/>
        <path class="uuid-bec64508-f4b6-4da8-a624-b4d82a34930a" d="M47,16.25c-.06,0-.13-.03-.17-.07-.05-.05-.08-.11-.08-.18s.03-.13,.08-.18c.08-.08,.26-.09,.35,0,.05,.04,.07,.11,.07,.17s-.02,.13-.07,.18c-.05,.04-.11,.07-.18,.07Z"/>
        <path class="uuid-bec64508-f4b6-4da8-a624-b4d82a34930a" d="M47.25,22.75c-.06,0-.13-.03-.17-.07-.05-.04-.08-.11-.08-.18s.03-.13,.08-.18c.08-.08,.25-.09,.35,0,.05,.05,.07,.11,.07,.18s-.03,.13-.07,.18c-.05,.05-.11,.07-.18,.07Z"/>
        <path class="uuid-bec64508-f4b6-4da8-a624-b4d82a34930a" d="M39,20.75c-.06,0-.12-.02-.17-.07-.05-.05-.08-.11-.08-.18s.03-.13,.08-.18c.1-.09,.25-.09,.35,0,.04,.05,.07,.11,.07,.18s-.03,.13-.07,.18c-.05,.05-.11,.07-.18,.07Z"/>
        <path class="uuid-bec64508-f4b6-4da8-a624-b4d82a34930a" d="M50.25,13.5c-.06,0-.13-.03-.17-.07-.05-.05-.08-.11-.08-.18s.03-.13,.08-.18c.1-.09,.26-.09,.35,0,.05,.05,.07,.12,.07,.18s-.02,.13-.07,.18c-.05,.04-.11,.07-.18,.07Z"/>
        <path class="uuid-bec64508-f4b6-4da8-a624-b4d82a34930a" d="M52.25,12c-.06,0-.12-.02-.17-.07-.05-.05-.08-.11-.08-.18s.03-.13,.08-.18c.09-.09,.25-.09,.35,0,.05,.05,.07,.12,.07,.18s-.02,.13-.07,.18c-.05,.05-.11,.07-.18,.07Z"/>
        <path class="uuid-bec64508-f4b6-4da8-a624-b4d82a34930a" d="M54.75,11c-.06,0-.13-.03-.17-.07-.05-.05-.08-.12-.08-.18,0-.07,.03-.13,.08-.18,.09-.09,.25-.09,.35,0,.05,.05,.07,.11,.07,.18,0,.06-.02,.13-.07,.18-.05,.04-.11,.07-.18,.07Z"/>
        <path class="uuid-bec64508-f4b6-4da8-a624-b4d82a34930a" d="M54.75,6.75c-.07,0-.13-.03-.17-.07-.05-.06-.08-.12-.08-.18s.03-.12,.07-.17c.1-.1,.26-.1,.36,0,.05,.06,.07,.12,.07,.18s-.02,.12-.07,.17c-.05,.05-.11,.08-.18,.08Z"/>
        <path class="uuid-bec64508-f4b6-4da8-a624-b4d82a34930a" d="M56.5,.75c-.06,0-.13-.03-.17-.07-.05-.05-.08-.12-.08-.18s.03-.13,.07-.18c.1-.09,.26-.09,.36,0,.05,.06,.07,.12,.07,.18s-.02,.12-.07,.17c-.05,.05-.11,.08-.18,.08Z"/>
        <path class="uuid-bec64508-f4b6-4da8-a624-b4d82a34930a" d="M64,6.5c-.06,0-.13-.03-.17-.07-.05-.05-.08-.12-.08-.18s.03-.13,.07-.17c.1-.1,.26-.1,.36,0,.05,.06,.07,.12,.07,.18s-.02,.12-.07,.17c-.05,.05-.11,.08-.18,.08Z"/>
        <path class="uuid-bec64508-f4b6-4da8-a624-b4d82a34930a" d="M65,2.5c-.06,0-.13-.03-.17-.07-.05-.05-.08-.11-.08-.18s.03-.13,.08-.18c.09-.09,.25-.09,.35,0,.05,.05,.07,.11,.07,.18s-.02,.13-.07,.17c-.05,.06-.11,.08-.18,.08Z"/>
        <path class="uuid-bec64508-f4b6-4da8-a624-b4d82a34930a" d="M68,3c-.06,0-.13-.03-.17-.07-.05-.05-.08-.11-.08-.18s.03-.13,.07-.18c.1-.09,.27-.09,.36,0,.05,.05,.07,.12,.07,.18s-.02,.13-.07,.18c-.05,.04-.11,.07-.18,.07Z"/>
        <path class="uuid-bec64508-f4b6-4da8-a624-b4d82a34930a" d="M68,10.25c-.06,0-.13-.03-.17-.07-.05-.05-.08-.11-.08-.18s.03-.13,.07-.18c.1-.09,.26-.09,.36,0,.05,.05,.07,.12,.07,.18s-.02,.13-.07,.18c-.05,.04-.11,.07-.18,.07Z"/>
        <path class="uuid-bec64508-f4b6-4da8-a624-b4d82a34930a" d="M64.25,12.25c-.06,0-.13-.03-.17-.07-.05-.05-.08-.12-.08-.18s.03-.13,.07-.17c.09-.1,.25-.1,.35,0,.06,.05,.08,.12,.08,.18s-.02,.13-.07,.17c-.05,.06-.11,.08-.18,.08Z"/>
        <path class="uuid-bec64508-f4b6-4da8-a624-b4d82a34930a" d="M65.25,15.75c-.07,0-.13-.03-.17-.07-.05-.05-.08-.11-.08-.18s.03-.13,.08-.18c.07-.08,.26-.09,.35,0,.05,.04,.07,.11,.07,.17s-.02,.12-.07,.17c-.04,.05-.11,.08-.18,.08Z"/>
        <path class="uuid-bec64508-f4b6-4da8-a624-b4d82a34930a" d="M64,19.75c-.06,0-.13-.03-.17-.07-.05-.05-.08-.11-.08-.18s.03-.13,.08-.18c.08-.09,.25-.09,.35,0,.05,.05,.07,.12,.07,.18s-.02,.13-.07,.18c-.05,.04-.11,.07-.18,.07Z"/>
        <path class="uuid-bec64508-f4b6-4da8-a624-b4d82a34930a" d="M66.25,19.75c-.07,0-.13-.03-.18-.08-.04-.04-.07-.1-.07-.17,0-.06,.03-.13,.07-.17,.09-.1,.26-.1,.36,0,.05,.05,.07,.12,.07,.18,0,.07-.02,.13-.07,.18-.05,.04-.11,.07-.18,.07Z"/>
        <path class="uuid-bec64508-f4b6-4da8-a624-b4d82a34930a" d="M68,21.25c-.06,0-.13-.03-.17-.07-.05-.05-.08-.12-.08-.18s.03-.12,.07-.17c.1-.1,.27-.1,.36,0,.05,.06,.07,.12,.07,.18s-.02,.12-.07,.17c-.05,.05-.11,.08-.18,.08Z"/>
        <path class="uuid-bec64508-f4b6-4da8-a624-b4d82a34930a" d="M69.25,20.25c-.06,0-.12-.02-.17-.07-.05-.05-.08-.11-.08-.18s.03-.13,.08-.18c.09-.09,.25-.09,.35,0,.05,.05,.07,.11,.07,.18s-.02,.13-.07,.18c-.05,.05-.11,.07-.18,.07Z"/>
        <path class="uuid-bec64508-f4b6-4da8-a624-b4d82a34930a" d="M69.5,18c-.06,0-.12-.02-.17-.07-.05-.05-.08-.11-.08-.18s.03-.13,.08-.18c.09-.09,.25-.09,.35,0,.05,.05,.07,.11,.07,.18s-.02,.13-.07,.18c-.05,.05-.11,.07-.18,.07Z"/>
        <path class="uuid-bec64508-f4b6-4da8-a624-b4d82a34930a" d="M71.25,17.5c-.06,0-.13-.03-.17-.07-.05-.05-.08-.12-.08-.18s.03-.12,.07-.17c.11-.1,.26-.1,.36,0,.05,.06,.07,.12,.07,.18s-.02,.12-.07,.17c-.05,.05-.11,.08-.18,.08Z"/>
        <path class="uuid-bec64508-f4b6-4da8-a624-b4d82a34930a" d="M8,47c-.06,0-.13-.03-.18-.07-.04-.06-.07-.12-.07-.18,0-.07,.03-.13,.07-.18,.09-.09,.26-.09,.36,0,.05,.05,.07,.11,.07,.18,0,.06-.02,.13-.07,.17-.05,.06-.11,.08-.18,.08Z"/>
        <path class="uuid-bec64508-f4b6-4da8-a624-b4d82a34930a" d="M7,52.25c-.06,0-.12-.02-.17-.07-.05-.05-.08-.11-.08-.18s.03-.13,.07-.18c.11-.09,.26-.09,.36,0,.05,.05,.07,.12,.07,.18,0,.07-.02,.13-.07,.18-.05,.05-.11,.07-.18,.07Z"/>
        <path class="uuid-bec64508-f4b6-4da8-a624-b4d82a34930a" d="M7.25,54.5c-.06,0-.13-.03-.17-.07-.05-.05-.08-.11-.08-.18,0-.06,.03-.13,.07-.18,.1-.09,.26-.09,.36,0,.04,.05,.07,.11,.07,.18s-.03,.13-.07,.18c-.05,.04-.11,.07-.18,.07Z"/>
        <path class="uuid-bec64508-f4b6-4da8-a624-b4d82a34930a" d="M5,56.75c-.06,0-.13-.03-.17-.07-.05-.05-.08-.11-.08-.18s.03-.13,.07-.17c.1-.1,.26-.1,.36,0,.05,.05,.07,.11,.07,.18s-.03,.13-.07,.18c-.05,.05-.12,.07-.18,.07Z"/>
        <path class="uuid-bec64508-f4b6-4da8-a624-b4d82a34930a" d="M2.25,54.5c-.06,0-.12-.02-.17-.07-.05-.05-.08-.11-.08-.18,0-.06,.03-.13,.07-.17,.11-.11,.26-.1,.35,0,.06,.06,.08,.12,.08,.18s-.02,.13-.07,.18c-.06,.05-.12,.07-.18,.07Z"/>
        <path class="uuid-bec64508-f4b6-4da8-a624-b4d82a34930a" d="M9.75,64c-.06,0-.12-.02-.17-.07-.05-.05-.08-.11-.08-.18s.03-.13,.07-.18c.11-.09,.26-.09,.36,0,.05,.05,.07,.11,.07,.18s-.02,.13-.07,.18-.11,.07-.18,.07Z"/>
        <path class="uuid-bec64508-f4b6-4da8-a624-b4d82a34930a" d="M2.25,67c-.06,0-.12-.03-.17-.07-.05-.05-.08-.11-.08-.18s.03-.13,.07-.18c.1-.09,.26-.09,.36,0,.05,.05,.07,.11,.07,.18,0,.06-.02,.13-.07,.18-.06,.05-.12,.07-.18,.07Z"/>
        <path class="uuid-bec64508-f4b6-4da8-a624-b4d82a34930a" d="M1,68c-.06,0-.13-.03-.18-.07-.04-.05-.07-.11-.07-.18,0-.06,.03-.13,.07-.18,.1-.09,.27-.09,.36,0,.05,.05,.07,.12,.07,.18s-.02,.13-.07,.18c-.05,.04-.11,.07-.18,.07Z"/>
        <path class="uuid-bec64508-f4b6-4da8-a624-b4d82a34930a" d="M11,71c-.06,0-.12-.02-.17-.07-.05-.05-.08-.11-.08-.18s.03-.13,.07-.18c.11-.09,.26-.09,.36,0,.05,.05,.07,.12,.07,.18s-.02,.13-.07,.18c-.05,.05-.12,.07-.18,.07Z"/>
        <path class="uuid-bec64508-f4b6-4da8-a624-b4d82a34930a" d="M17.75,69.75c-.06,0-.12-.02-.17-.07-.05-.05-.08-.11-.08-.18s.03-.13,.07-.18c.11-.09,.26-.09,.36,0,.05,.05,.07,.11,.07,.18s-.03,.13-.07,.18c-.05,.05-.12,.07-.18,.07Z"/>
        <path class="uuid-bec64508-f4b6-4da8-a624-b4d82a34930a" d="M18.25,67.25c-.06,0-.12-.03-.17-.07-.05-.06-.08-.12-.08-.18,0-.07,.03-.13,.07-.18,.11-.09,.26-.09,.36,0,.05,.05,.07,.11,.07,.18,0,.06-.02,.13-.07,.17-.05,.05-.11,.08-.18,.08Z"/>
        <path class="uuid-bec64508-f4b6-4da8-a624-b4d82a34930a" d="M16.25,62.25c-.07,0-.13-.03-.18-.08-.04-.04-.07-.1-.07-.17s.03-.13,.07-.18c.1-.09,.26-.09,.36,0,.05,.05,.07,.11,.07,.18s-.02,.13-.07,.18c-.05,.04-.11,.07-.18,.07Z"/>
        <path class="uuid-bec64508-f4b6-4da8-a624-b4d82a34930a" d="M19.25,62.25c-.06,0-.13-.03-.17-.07-.05-.05-.08-.11-.08-.18s.03-.13,.07-.18c.1-.09,.27-.09,.36,0,.04,.04,.07,.11,.07,.18s-.03,.14-.08,.18c-.04,.04-.1,.07-.17,.07Z"/>
        <path class="uuid-bec64508-f4b6-4da8-a624-b4d82a34930a" d="M19.5,57.75c-.06,0-.12-.02-.17-.07-.05-.05-.08-.11-.08-.18,0-.06,.03-.13,.07-.17,.11-.11,.26-.1,.36,0,.05,.06,.07,.12,.07,.18s-.02,.13-.07,.18c-.05,.05-.11,.07-.18,.07Z"/>
        <path class="uuid-bec64508-f4b6-4da8-a624-b4d82a34930a" d="M18.75,55.75c-.06,0-.12-.02-.17-.07-.05-.05-.08-.11-.08-.18s.03-.13,.08-.18c.1-.09,.26-.09,.35,0,.05,.05,.07,.12,.07,.18s-.02,.12-.07,.17c-.05,.05-.11,.08-.18,.08Z"/>
        <path class="uuid-bec64508-f4b6-4da8-a624-b4d82a34930a" d="M16.25,54.75c-.06,0-.13-.03-.18-.07-.04-.05-.07-.11-.07-.18,0-.06,.03-.12,.07-.17,.1-.1,.26-.1,.36,0,.05,.05,.07,.12,.07,.18,0,.07-.02,.13-.07,.18-.05,.05-.11,.07-.18,.07Z"/>
        <path class="uuid-bec64508-f4b6-4da8-a624-b4d82a34930a" d="M19.25,51c-.06,0-.13-.03-.17-.07-.05-.05-.08-.12-.08-.18,0-.07,.03-.13,.07-.18,.1-.09,.27-.09,.36,0,.04,.04,.07,.11,.07,.18s-.02,.13-.07,.18c-.05,.04-.11,.07-.18,.07Z"/>
        <path class="uuid-bec64508-f4b6-4da8-a624-b4d82a34930a" d="M19,47c-.06,0-.13-.03-.17-.07-.05-.05-.08-.12-.08-.18,0-.07,.03-.13,.07-.18,.1-.09,.26-.09,.36,0,.04,.05,.07,.11,.07,.18,0,.06-.02,.13-.07,.17-.05,.06-.11,.08-.18,.08Z"/>
        <path class="uuid-bec64508-f4b6-4da8-a624-b4d82a34930a" d="M16.25,47.25c-.07,0-.13-.03-.18-.07-.04-.05-.07-.12-.07-.18,0-.07,.03-.13,.07-.18,.09-.09,.26-.09,.36,0,.05,.05,.07,.11,.07,.18,0,.06-.02,.13-.07,.18-.05,.05-.11,.07-.18,.07Z"/>
        <path class="uuid-bec64508-f4b6-4da8-a624-b4d82a34930a" d="M21,45.25c-.06,0-.12-.02-.17-.07-.05-.05-.08-.11-.08-.18s.03-.13,.08-.18c.1-.09,.25-.09,.35,0,.05,.05,.07,.12,.07,.18s-.02,.12-.07,.17c-.05,.06-.11,.08-.18,.08Z"/>
        <path class="uuid-bec64508-f4b6-4da8-a624-b4d82a34930a" d="M28.5,51c-.06,0-.13-.03-.17-.07-.05-.05-.08-.11-.08-.18s.03-.13,.08-.18c.09-.09,.26-.09,.35,0,.05,.06,.07,.12,.07,.18s-.02,.13-.07,.18c-.05,.04-.11,.07-.18,.07Z"/>
        <path class="uuid-bec64508-f4b6-4da8-a624-b4d82a34930a" d="M32.5,50.75c-.06,0-.13-.03-.17-.07-.05-.05-.08-.11-.08-.18s.03-.13,.08-.18c.09-.09,.25-.09,.35,0,.05,.05,.07,.12,.07,.18s-.02,.13-.07,.18c-.05,.04-.11,.07-.18,.07Z"/>
        <path class="uuid-bec64508-f4b6-4da8-a624-b4d82a34930a" d="M27.25,54.25c-.07,0-.13-.03-.18-.08-.04-.04-.07-.1-.07-.17s.03-.14,.08-.18c.09-.09,.26-.09,.35,0,.05,.05,.07,.11,.07,.18,0,.06-.02,.13-.07,.18-.04,.04-.11,.07-.18,.07Z"/>
        <path class="uuid-bec64508-f4b6-4da8-a624-b4d82a34930a" d="M32,55.75c-.06,0-.12-.03-.17-.07-.05-.05-.08-.11-.08-.18,0-.06,.03-.13,.07-.17,.11-.11,.26-.1,.36,0,.05,.06,.07,.12,.07,.18,0,.07-.02,.13-.07,.18-.05,.04-.11,.07-.18,.07Z"/>
        <path class="uuid-bec64508-f4b6-4da8-a624-b4d82a34930a" d="M32,57.5c-.06,0-.12-.02-.17-.07-.05-.05-.08-.11-.08-.18,0-.06,.03-.13,.07-.17,.11-.11,.26-.1,.36,0,.05,.06,.07,.12,.07,.18s-.02,.13-.07,.18c-.05,.05-.11,.07-.18,.07Z"/>
        <path class="uuid-bec64508-f4b6-4da8-a624-b4d82a34930a" d="M34,58.25c-.07,0-.13-.03-.18-.08-.04-.04-.07-.1-.07-.17s.03-.14,.08-.18c.09-.09,.26-.09,.35,0,.05,.05,.07,.11,.07,.18,0,.06-.02,.13-.07,.18-.04,.04-.11,.07-.18,.07Z"/>
        <path class="uuid-bec64508-f4b6-4da8-a624-b4d82a34930a" d="M34,60.25c-.06,0-.12-.02-.17-.07-.05-.05-.08-.11-.08-.18s.03-.13,.08-.18c.09-.09,.26-.09,.35,0,.05,.06,.07,.12,.07,.18s-.02,.13-.07,.18c-.05,.04-.11,.07-.18,.07Z"/>
        <path class="uuid-bec64508-f4b6-4da8-a624-b4d82a34930a" d="M34.25,66.75c-.06,0-.13-.03-.17-.07-.05-.05-.08-.11-.08-.18s.03-.13,.08-.18c.09-.09,.25-.09,.35,0,.05,.05,.07,.12,.07,.18s-.02,.13-.07,.18c-.05,.04-.11,.07-.18,.07Z"/>
        <path class="uuid-bec64508-f4b6-4da8-a624-b4d82a34930a" d="M26,64.75c-.06,0-.12-.02-.17-.07-.05-.05-.08-.11-.08-.18s.03-.13,.08-.18c.09-.09,.26-.09,.35,0,.05,.04,.07,.11,.07,.17,0,.07-.02,.13-.07,.18-.05,.05-.11,.07-.18,.07Z"/>
        <path class="uuid-bec64508-f4b6-4da8-a624-b4d82a34930a" d="M37.25,57.5c-.06,0-.13-.03-.17-.07-.05-.05-.08-.11-.08-.18s.03-.13,.08-.18c.09-.09,.25-.09,.34,0,.06,.05,.08,.12,.08,.18s-.02,.12-.07,.17c-.05,.06-.11,.08-.18,.08Z"/>
        <path class="uuid-bec64508-f4b6-4da8-a624-b4d82a34930a" d="M39.25,56c-.06,0-.13-.03-.17-.07-.05-.05-.08-.11-.08-.18s.03-.13,.08-.18c.09-.09,.25-.09,.35,0,.05,.05,.07,.12,.07,.18s-.02,.12-.07,.17c-.05,.06-.11,.08-.18,.08Z"/>
        <path class="uuid-bec64508-f4b6-4da8-a624-b4d82a34930a" d="M41.75,55c-.06,0-.13-.03-.17-.07-.05-.05-.08-.11-.08-.18s.03-.14,.08-.18c.09-.09,.26-.09,.35,0,.05,.05,.07,.11,.07,.18,0,.06-.02,.12-.07,.17-.05,.05-.11,.08-.18,.08Z"/>
        <path class="uuid-bec64508-f4b6-4da8-a624-b4d82a34930a" d="M41.75,50.75c-.06,0-.12-.02-.17-.07-.05-.05-.08-.11-.08-.18s.03-.13,.08-.18c.09-.09,.26-.09,.35,0,.05,.05,.07,.11,.07,.18,0,.06-.02,.13-.07,.18-.05,.04-.11,.07-.18,.07Z"/>
        <path class="uuid-bec64508-f4b6-4da8-a624-b4d82a34930a" d="M43.5,44.75c-.06,0-.12-.03-.17-.07-.05-.05-.08-.11-.08-.18s.03-.13,.08-.18c.09-.09,.25-.09,.35,0,.05,.05,.07,.12,.07,.18s-.02,.13-.07,.18c-.05,.05-.12,.07-.18,.07Z"/>
        <path class="uuid-bec64508-f4b6-4da8-a624-b4d82a34930a" d="M51,50.5c-.06,0-.12-.03-.17-.07-.05-.05-.08-.11-.08-.18s.03-.13,.08-.18c.09-.09,.25-.09,.35,0,.05,.05,.07,.11,.07,.18s-.02,.13-.07,.18c-.05,.05-.11,.07-.18,.07Z"/>
        <path class="uuid-bec64508-f4b6-4da8-a624-b4d82a34930a" d="M52,46.5c-.06,0-.13-.03-.17-.07-.05-.05-.08-.11-.08-.18s.03-.13,.08-.18c.09-.09,.25-.09,.35,0,.05,.06,.07,.12,.07,.18s-.02,.12-.07,.17c-.05,.06-.11,.08-.18,.08Z"/>
        <path class="uuid-bec64508-f4b6-4da8-a624-b4d82a34930a" d="M55,47c-.06,0-.12-.02-.17-.07-.05-.05-.08-.11-.08-.18s.03-.13,.08-.18c.09-.09,.25-.09,.35,0,.05,.05,.07,.12,.07,.18s-.02,.13-.07,.18c-.05,.05-.11,.07-.18,.07Z"/>
        <path class="uuid-bec64508-f4b6-4da8-a624-b4d82a34930a" d="M55,54.25c-.06,0-.12-.03-.17-.07-.05-.05-.08-.11-.08-.18s.03-.13,.08-.18c.09-.09,.25-.09,.35,0,.05,.05,.07,.12,.07,.18s-.02,.13-.07,.18c-.05,.05-.11,.07-.18,.07Z"/>
        <path class="uuid-bec64508-f4b6-4da8-a624-b4d82a34930a" d="M51.25,56.25c-.06,0-.13-.03-.17-.07-.05-.05-.08-.11-.08-.18s.03-.13,.08-.18c.09-.09,.25-.09,.35,0,.05,.05,.07,.11,.07,.18s-.02,.13-.07,.18c-.05,.04-.11,.07-.18,.07Z"/>
        <path class="uuid-bec64508-f4b6-4da8-a624-b4d82a34930a" d="M52.25,59.75c-.06,0-.12-.02-.17-.07-.05-.05-.08-.11-.08-.18s.03-.13,.08-.18c.09-.09,.25-.09,.35,0,.05,.06,.07,.12,.07,.18s-.02,.12-.07,.17c-.05,.06-.11,.08-.18,.08Z"/>
        <path class="uuid-bec64508-f4b6-4da8-a624-b4d82a34930a" d="M51,63.75c-.06,0-.13-.03-.17-.07-.05-.05-.08-.11-.08-.18s.03-.13,.08-.18c.09-.09,.25-.09,.35,0,.05,.05,.07,.12,.07,.18s-.02,.13-.07,.17c-.05,.06-.11,.08-.18,.08Z"/>
        <path class="uuid-bec64508-f4b6-4da8-a624-b4d82a34930a" d="M53.25,63.75c-.06,0-.13-.03-.17-.07-.05-.05-.08-.12-.08-.18s.03-.13,.07-.17c.1-.1,.26-.1,.36,0,.05,.06,.07,.12,.07,.18s-.02,.12-.07,.17c-.05,.05-.11,.08-.18,.08Z"/>
        <path class="uuid-bec64508-f4b6-4da8-a624-b4d82a34930a" d="M55,65.25c-.06,0-.12-.03-.17-.07-.05-.05-.08-.11-.08-.18s.03-.13,.08-.18c.09-.09,.25-.09,.35,0,.05,.05,.07,.12,.07,.18s-.02,.13-.07,.18c-.05,.05-.11,.07-.18,.07Z"/>
        <path class="uuid-bec64508-f4b6-4da8-a624-b4d82a34930a" d="M56.25,64.25c-.06,0-.12-.03-.17-.07-.05-.05-.08-.11-.08-.18s.03-.13,.08-.18c.09-.09,.25-.09,.35,0,.05,.05,.07,.12,.07,.18,0,.07-.02,.13-.07,.18-.05,.05-.11,.07-.18,.07Z"/>
        <path class="uuid-bec64508-f4b6-4da8-a624-b4d82a34930a" d="M56.5,62c-.06,0-.13-.03-.17-.07-.05-.06-.08-.12-.08-.18,0-.07,.03-.13,.08-.18,.07-.08,.26-.09,.35,0,.05,.04,.07,.11,.07,.17s-.02,.12-.07,.17c-.05,.05-.11,.08-.18,.08Z"/>
        <path class="uuid-bec64508-f4b6-4da8-a624-b4d82a34930a" d="M58.25,61.5c-.06,0-.13-.03-.17-.07-.05-.05-.08-.12-.08-.18s.03-.13,.07-.17c.1-.1,.27-.1,.36,0,.05,.06,.07,.12,.07,.18s-.02,.12-.07,.17c-.04,.05-.11,.08-.18,.08Z"/>
        <path class="uuid-bec64508-f4b6-4da8-a624-b4d82a34930a" d="M21,27c-.06,0-.12-.02-.17-.07-.05-.05-.08-.11-.08-.18s.03-.13,.08-.18c.1-.09,.25-.09,.35,0,.05,.05,.07,.12,.07,.18s-.02,.13-.07,.18c-.05,.05-.12,.07-.18,.07Z"/>
        <path class="uuid-bec64508-f4b6-4da8-a624-b4d82a34930a" d="M22.75,24c-.07,0-.13-.03-.18-.07-.04-.05-.07-.11-.07-.18s.03-.13,.08-.18c.1-.09,.26-.09,.35,0,.05,.05,.07,.12,.07,.18s-.02,.13-.07,.18c-.04,.04-.11,.07-.18,.07Z"/>
        <path class="uuid-bec64508-f4b6-4da8-a624-b4d82a34930a" d="M25.25,24.5c-.06,0-.12-.03-.17-.07-.05-.05-.08-.11-.08-.18s.03-.13,.08-.18c.1-.09,.25-.09,.35,0,.05,.05,.07,.12,.07,.18s-.02,.13-.07,.18c-.05,.04-.11,.07-.18,.07Z"/>
        <path class="uuid-bec64508-f4b6-4da8-a624-b4d82a34930a" d="M35.25,23.25c-.06,0-.12-.02-.17-.07-.05-.05-.08-.11-.08-.18s.03-.13,.08-.18c.1-.09,.25-.09,.35,0,.05,.05,.07,.11,.07,.18s-.03,.13-.07,.18c-.05,.05-.11,.07-.18,.07Z"/>
        <path class="uuid-bec64508-f4b6-4da8-a624-b4d82a34930a" d="M39,24.75c-.06,0-.12-.02-.17-.07-.05-.05-.08-.11-.08-.18s.03-.13,.08-.18c.1-.09,.25-.09,.35,0,.05,.05,.07,.11,.07,.18s-.03,.13-.07,.18c-.05,.05-.12,.07-.18,.07Z"/>
        <path class="uuid-bec64508-f4b6-4da8-a624-b4d82a34930a" d="M45,29.5c-.06,0-.12-.02-.17-.07-.05-.05-.08-.11-.08-.18s.03-.13,.08-.18c.1-.09,.25-.09,.35,0,.05,.05,.07,.11,.07,.18s-.02,.13-.07,.18c-.05,.05-.12,.07-.18,.07Z"/>
        <path class="uuid-bec64508-f4b6-4da8-a624-b4d82a34930a" d="M46.25,29c-.06,0-.13-.03-.17-.07-.05-.05-.08-.11-.08-.18s.03-.13,.08-.18c.09-.09,.25-.09,.34,0,.06,.06,.08,.12,.08,.18s-.02,.12-.07,.17c-.05,.06-.11,.08-.18,.08Z"/>
        <path class="uuid-bec64508-f4b6-4da8-a624-b4d82a34930a" d="M55.25,28c-.06,0-.13-.03-.17-.07-.05-.05-.08-.11-.08-.18s.03-.13,.08-.18c.09-.09,.25-.09,.35,0,.05,.05,.07,.12,.07,.18s-.02,.13-.07,.18c-.05,.04-.11,.07-.18,.07Z"/>
        <path class="uuid-bec64508-f4b6-4da8-a624-b4d82a34930a" d="M51.25,25.25c-.06,0-.12-.02-.17-.07-.05-.05-.08-.11-.08-.18s.03-.13,.08-.18c.09-.09,.25-.09,.35,0,.05,.05,.07,.11,.07,.18s-.03,.13-.07,.18c-.05,.05-.11,.07-.18,.07Z"/>
        <path class="uuid-bec64508-f4b6-4da8-a624-b4d82a34930a" d="M52,29.5c-.06,0-.13-.03-.17-.07-.05-.05-.08-.11-.08-.18s.03-.13,.08-.18c.09-.09,.25-.09,.35,0,.05,.06,.07,.12,.07,.18s-.02,.12-.07,.17c-.05,.06-.11,.08-.18,.08Z"/>
        <path class="uuid-bec64508-f4b6-4da8-a624-b4d82a34930a" d="M62.5,35.5c-.06,0-.13-.03-.17-.07-.05-.05-.08-.11-.08-.18s.03-.13,.08-.18c.08-.08,.24-.09,.34,0,.06,.05,.08,.12,.08,.18s-.02,.13-.07,.18c-.05,.05-.12,.07-.18,.07Z"/>
        <path class="uuid-bec64508-f4b6-4da8-a624-b4d82a34930a" d="M58.25,38.25c-.07,0-.13-.03-.17-.07-.05-.05-.08-.12-.08-.18s.03-.13,.07-.17c.1-.1,.27-.1,.36,0,.05,.06,.07,.12,.07,.18s-.02,.12-.07,.17c-.04,.05-.11,.08-.18,.08Z"/>
        <path class="uuid-bec64508-f4b6-4da8-a624-b4d82a34930a" d="M49,39c-.07,0-.13-.03-.17-.07-.05-.05-.08-.12-.08-.18s.03-.13,.07-.17c.1-.1,.26-.1,.36,0,.05,.06,.07,.12,.07,.18s-.02,.12-.07,.17c-.05,.05-.11,.08-.18,.08Z"/>
        <path class="uuid-bec64508-f4b6-4da8-a624-b4d82a34930a" d="M48,41.25c-.06,0-.12-.02-.17-.07-.05-.05-.08-.11-.08-.18s.03-.13,.08-.18c.09-.09,.24-.09,.34,0,.06,.05,.08,.12,.08,.18s-.02,.12-.07,.17c-.06,.06-.11,.08-.18,.08Z"/>
        <path class="uuid-bec64508-f4b6-4da8-a624-b4d82a34930a" d="M52,43c-.07,0-.13-.03-.18-.08-.04-.04-.07-.1-.07-.17s.03-.13,.08-.18c.09-.09,.25-.09,.35,0,.05,.05,.07,.12,.07,.18s-.02,.13-.07,.18c-.05,.04-.11,.07-.18,.07Z"/>
        <path class="uuid-bec64508-f4b6-4da8-a624-b4d82a34930a" d="M53.5,45c-.06,0-.13-.03-.17-.07-.05-.05-.08-.11-.08-.18s.03-.13,.08-.18c.08-.09,.25-.09,.35,0,.05,.05,.07,.12,.07,.18s-.02,.13-.07,.18c-.05,.04-.11,.07-.18,.07Z"/>
        <path class="uuid-bec64508-f4b6-4da8-a624-b4d82a34930a" d="M62.25,48c-.06,0-.13-.03-.17-.07-.05-.05-.08-.12-.08-.18s.03-.13,.07-.17c.1-.1,.26-.1,.36,0,.05,.06,.07,.12,.07,.18s-.02,.12-.07,.17c-.05,.05-.11,.08-.18,.08Z"/>
        <path class="uuid-bec64508-f4b6-4da8-a624-b4d82a34930a" d="M65,51.75c-.06,0-.12-.03-.17-.07-.05-.05-.08-.11-.08-.18s.03-.14,.08-.18c.09-.08,.25-.09,.35,0,.04,.05,.07,.11,.07,.18s-.02,.13-.07,.18c-.05,.05-.11,.07-.18,.07Z"/>
        <path class="uuid-bec64508-f4b6-4da8-a624-b4d82a34930a" d="M67,51.75c-.06,0-.13-.03-.17-.07-.05-.05-.08-.11-.08-.18s.03-.13,.08-.18c.08-.08,.25-.09,.35,0,.05,.05,.07,.11,.07,.18s-.02,.13-.07,.18c-.05,.05-.11,.07-.18,.07Z"/>
        <path class="uuid-bec64508-f4b6-4da8-a624-b4d82a34930a" d="M69.5,45c-.06,0-.12-.03-.17-.07-.05-.05-.08-.11-.08-.18s.03-.13,.08-.18c.09-.09,.25-.09,.35,0,.05,.05,.07,.11,.07,.18s-.02,.13-.07,.18c-.05,.05-.11,.07-.18,.07Z"/>
        <path class="uuid-bec64508-f4b6-4da8-a624-b4d82a34930a" d="M60,39c-.06,0-.12-.02-.17-.07-.05-.05-.08-.11-.08-.18s.03-.13,.08-.18c.09-.09,.25-.09,.35,0,.04,.05,.07,.11,.07,.18s-.03,.13-.07,.18c-.05,.05-.11,.07-.18,.07Z"/>
        <path class="uuid-bec64508-f4b6-4da8-a624-b4d82a34930a" d="M47.25,47.75c-.06,0-.13-.03-.17-.07-.05-.05-.08-.11-.08-.18s.03-.14,.08-.18c.08-.08,.25-.09,.35,0,.04,.05,.07,.11,.07,.18s-.02,.13-.07,.18c-.05,.05-.11,.07-.18,.07Z"/>
        <path class="uuid-bec64508-f4b6-4da8-a624-b4d82a34930a" d="M32.5,47c-.06,0-.12-.03-.17-.07-.05-.05-.08-.11-.08-.18s.03-.13,.08-.18c.09-.09,.26-.09,.35,0,.05,.05,.07,.12,.07,.18s-.02,.13-.07,.18c-.05,.04-.11,.07-.18,.07Z"/>
        <path class="uuid-bec64508-f4b6-4da8-a624-b4d82a34930a" d="M37,44.5c-.06,0-.12-.03-.17-.07-.05-.05-.08-.12-.08-.18,0-.07,.03-.13,.07-.17,.11-.11,.26-.1,.36,0,.05,.05,.07,.12,.07,.18s-.02,.13-.07,.17c-.05,.05-.11,.08-.18,.08Z"/>
        <path class="uuid-bec64508-f4b6-4da8-a624-b4d82a34930a" d="M26.25,37.75c-.06,0-.12-.03-.17-.07-.05-.05-.08-.11-.08-.18s.03-.13,.08-.18c.1-.09,.25-.09,.35,0,.05,.05,.07,.12,.07,.18s-.02,.13-.07,.18c-.05,.04-.11,.07-.18,.07Z"/>
        <path class="uuid-bec64508-f4b6-4da8-a624-b4d82a34930a" d="M29.75,35.5c-.06,0-.12-.02-.17-.07-.05-.05-.08-.11-.08-.18s.03-.13,.08-.18c.1-.09,.25-.09,.35,0,.05,.05,.07,.12,.07,.18s-.02,.12-.07,.17c-.05,.06-.11,.08-.18,.08Z"/>
        <path class="uuid-bec64508-f4b6-4da8-a624-b4d82a34930a" d="M17,28.5c-.06,0-.12-.02-.17-.07-.05-.05-.08-.11-.08-.18,0-.06,.03-.12,.07-.17,.11-.11,.26-.1,.36,0,.05,.05,.07,.12,.07,.18,0,.07-.02,.13-.07,.18-.05,.05-.11,.07-.18,.07Z"/>
        <path class="uuid-bec64508-f4b6-4da8-a624-b4d82a34930a" d="M10.5,29.5c-.06,0-.12-.02-.17-.07-.05-.05-.08-.11-.08-.18,0-.06,.03-.12,.07-.17,.11-.11,.26-.1,.36,0,.05,.06,.07,.12,.07,.18s-.02,.13-.07,.18c-.05,.05-.11,.07-.18,.07Z"/>
        <path class="uuid-bec64508-f4b6-4da8-a624-b4d82a34930a" d="M6,31.5c-.06,0-.12-.02-.17-.07-.05-.05-.08-.11-.08-.18,0-.06,.03-.12,.07-.17,.12-.11,.26-.1,.36,0,.05,.06,.07,.12,.07,.18,0,.07-.02,.13-.07,.18-.05,.05-.11,.07-.18,.07Z"/>
        <path class="uuid-bec64508-f4b6-4da8-a624-b4d82a34930a" d="M2.5,35.25c-.07,0-.13-.03-.17-.07-.05-.05-.08-.12-.08-.18,0-.07,.03-.13,.08-.18,.08-.09,.24-.09,.34,0,.06,.05,.08,.11,.08,.18,0,.06-.02,.13-.07,.17-.05,.06-.11,.08-.18,.08Z"/>
        <path class="uuid-bec64508-f4b6-4da8-a624-b4d82a34930a" d="M11.25,36.75c-.07,0-.13-.03-.18-.07-.04-.05-.07-.12-.07-.18,0-.07,.03-.13,.07-.18,.1-.09,.25-.09,.36,0,.05,.05,.07,.11,.07,.18s-.02,.13-.07,.18c-.05,.05-.11,.07-.18,.07Z"/>
        <path class="uuid-bec64508-f4b6-4da8-a624-b4d82a34930a" d="M17,42c-.06,0-.12-.02-.17-.07-.05-.05-.08-.11-.08-.18,0-.06,.03-.13,.07-.18,.11-.09,.26-.09,.36,0,.05,.05,.07,.11,.07,.18s-.03,.13-.07,.18c-.05,.05-.11,.07-.18,.07Z"/>
        <path class="uuid-bec64508-f4b6-4da8-a624-b4d82a34930a" d="M12.75,36c-.06,0-.13-.03-.17-.07-.05-.05-.08-.11-.08-.18,0-.06,.03-.13,.07-.17,.1-.1,.26-.1,.36,0,.05,.05,.07,.11,.07,.18s-.02,.13-.07,.18c-.05,.05-.12,.07-.18,.07Z"/>
        <path class="uuid-bec64508-f4b6-4da8-a624-b4d82a34930a" d="M26.5,30.25c-.06,0-.12-.02-.17-.07-.05-.05-.08-.11-.08-.18s.03-.13,.08-.18c.1-.09,.25-.09,.35,0,.05,.05,.07,.12,.07,.18s-.02,.13-.07,.18c-.05,.05-.11,.07-.18,.07Z"/>
        <path class="uuid-bec64508-f4b6-4da8-a624-b4d82a34930a" d="M37.75,31c-.06,0-.12-.02-.17-.07-.05-.05-.08-.11-.08-.18s.03-.13,.08-.18c.1-.09,.25-.09,.35,0,.05,.05,.07,.11,.07,.18s-.02,.13-.07,.18c-.05,.05-.12,.07-.18,.07Z"/>
        <path class="uuid-bec64508-f4b6-4da8-a624-b4d82a34930a" d="M39.5,32.5c-.06,0-.12-.02-.17-.07-.05-.05-.08-.11-.08-.18s.03-.13,.08-.18c.08-.09,.26-.09,.35,0,.05,.04,.07,.11,.07,.17s-.02,.13-.07,.18c-.05,.04-.11,.07-.18,.07Z"/>
        <path class="uuid-bec64508-f4b6-4da8-a624-b4d82a34930a" d="M28,42c-.06,0-.12-.03-.17-.07-.05-.05-.08-.12-.08-.18s.03-.12,.07-.17c.11-.1,.26-.1,.35,0,.06,.06,.08,.12,.08,.18s-.02,.13-.07,.17c-.05,.06-.11,.08-.18,.08Z"/>
        <path class="uuid-bec64508-f4b6-4da8-a624-b4d82a34930a" d="M6.5,20.5c-.06,0-.13-.03-.17-.07-.05-.05-.08-.12-.08-.18,0-.07,.03-.13,.07-.18,.1-.09,.26-.09,.36,0,.05,.05,.07,.11,.07,.18,0,.06-.02,.13-.07,.17-.05,.06-.11,.08-.18,.08Z"/>
        <path class="uuid-bec64508-f4b6-4da8-a624-b4d82a34930a" d="M10.25,20.25c-.06,0-.13-.03-.17-.07-.05-.05-.08-.11-.08-.18s.03-.13,.07-.18c.1-.09,.26-.09,.36,0,.05,.05,.07,.11,.07,.18s-.02,.13-.07,.18c-.05,.05-.11,.07-.18,.07Z"/>
        <path class="uuid-bec64508-f4b6-4da8-a624-b4d82a34930a" d="M11.75,23.5c-.06,0-.12-.02-.17-.07-.05-.05-.08-.11-.08-.18,0-.06,.03-.12,.07-.17,.11-.11,.26-.1,.36,0,.05,.06,.07,.12,.07,.18s-.02,.13-.07,.18c-.05,.05-.12,.07-.18,.07Z"/>
        <path class="uuid-bec64508-f4b6-4da8-a624-b4d82a34930a" d="M3,25.75c-.06,0-.13-.03-.17-.07-.05-.05-.08-.11-.08-.18s.03-.13,.07-.18c.1-.09,.26-.09,.36,0,.05,.05,.07,.11,.07,.18s-.02,.13-.07,.18c-.05,.05-.12,.07-.18,.07Z"/>
        <path class="uuid-bec64508-f4b6-4da8-a624-b4d82a34930a" d="M64.25,29.5c-.06,0-.13-.03-.17-.07-.05-.05-.08-.12-.08-.18s.03-.13,.07-.17c.1-.1,.25-.1,.35,0,.06,.05,.08,.12,.08,.18s-.02,.13-.07,.17c-.05,.06-.11,.08-.18,.08Z"/>
        <path class="uuid-bec64508-f4b6-4da8-a624-b4d82a34930a" d="M67.5,30.75c-.06,0-.13-.03-.17-.07-.05-.05-.08-.11-.08-.18,0-.06,.03-.13,.07-.17,.1-.1,.26-.1,.36,0,.05,.06,.07,.12,.07,.18s-.02,.13-.07,.18c-.05,.04-.11,.07-.18,.07Z"/>
        <path class="uuid-bec64508-f4b6-4da8-a624-b4d82a34930a" d="M69.5,29.75c-.06,0-.13-.03-.17-.07-.05-.05-.08-.11-.08-.18s.03-.13,.08-.18c.09-.09,.25-.09,.35,0,.05,.05,.07,.11,.07,.18s-.02,.13-.07,.18c-.05,.04-.11,.07-.18,.07Z"/>
        <path class="uuid-bec64508-f4b6-4da8-a624-b4d82a34930a" d="M7.25,15.75c-.07,0-.13-.03-.18-.08-.04-.04-.07-.1-.07-.17s.03-.13,.07-.18c.1-.09,.26-.09,.36,0,.04,.05,.07,.11,.07,.18s-.03,.13-.07,.18c-.05,.04-.11,.07-.18,.07Z"/>
        <path class="uuid-bec64508-f4b6-4da8-a624-b4d82a34930a" d="M1.5,9c-.06,0-.13-.03-.18-.07-.04-.05-.07-.11-.07-.18s.03-.13,.07-.18c.09-.09,.26-.09,.36,0,.05,.05,.07,.12,.07,.18s-.02,.13-.07,.18c-.05,.04-.11,.07-.18,.07Z"/>
        <path class="uuid-bec64508-f4b6-4da8-a624-b4d82a34930a" d="M14.5,6.5c-.06,0-.12-.02-.17-.07-.05-.05-.08-.11-.08-.18,0-.06,.03-.13,.07-.17,.11-.11,.26-.1,.36,0,.05,.05,.07,.11,.07,.18s-.02,.13-.07,.18c-.05,.05-.11,.07-.18,.07Z"/>
        <path class="uuid-bec64508-f4b6-4da8-a624-b4d82a34930a" d="M8.5,5.25c-.06,0-.12-.02-.17-.07-.05-.05-.08-.11-.08-.18s.03-.13,.07-.18c.1-.09,.27-.09,.36,0,.05,.04,.07,.1,.07,.17,0,.06-.02,.13-.07,.18-.05,.05-.11,.07-.18,.07Z"/>
        <path class="uuid-bec64508-f4b6-4da8-a624-b4d82a34930a" d="M3.5,2.5c-.07,0-.13-.03-.18-.08-.04-.04-.07-.1-.07-.17s.03-.13,.08-.18c.08-.09,.25-.09,.35,0,.04,.05,.07,.11,.07,.18s-.03,.13-.07,.18c-.05,.04-.11,.07-.18,.07Z"/>
        <path class="uuid-bec64508-f4b6-4da8-a624-b4d82a34930a" d="M3.75,6c-.06,0-.13-.03-.17-.07-.05-.05-.08-.11-.08-.18,0-.06,.03-.13,.07-.18,.09-.09,.26-.09,.36,0,.05,.05,.07,.11,.07,.18s-.02,.13-.07,.18c-.05,.05-.12,.07-.18,.07Z"/>
        <path class="uuid-bec64508-f4b6-4da8-a624-b4d82a34930a" d="M12.75,14.25c-.06,0-.13-.03-.17-.07-.05-.05-.08-.12-.08-.18,0-.07,.03-.13,.07-.18,.1-.09,.26-.09,.36,0,.05,.05,.07,.11,.07,.18,0,.06-.02,.13-.07,.17-.05,.06-.11,.08-.18,.08Z"/>
        <path class="uuid-bec64508-f4b6-4da8-a624-b4d82a34930a" d="M18.5,19.25c-.06,0-.12-.02-.17-.07-.05-.05-.08-.11-.08-.18,0-.06,.03-.13,.07-.17,.11-.11,.27-.1,.36,0,.05,.06,.07,.12,.07,.18,0,.07-.02,.13-.07,.18-.05,.04-.11,.07-.18,.07Z"/>
        <path class="uuid-bec64508-f4b6-4da8-a624-b4d82a34930a" d="M21.25,37c-.06,0-.12-.02-.17-.07-.05-.05-.08-.12-.08-.18,0-.07,.03-.13,.07-.18,.11-.09,.26-.09,.36,0,.05,.05,.07,.11,.07,.18,0,.06-.02,.13-.07,.17-.05,.06-.11,.08-.18,.08Z"/>
        <path class="uuid-bec64508-f4b6-4da8-a624-b4d82a34930a" d="M.75,44.25c-.06,0-.13-.03-.17-.07-.05-.05-.08-.11-.08-.18s.03-.13,.08-.18c.07-.08,.25-.09,.35,0,.04,.04,.07,.1,.07,.17s-.03,.13-.07,.18c-.05,.04-.11,.07-.18,.07Z"/>
        <path class="uuid-bec64508-f4b6-4da8-a624-b4d82a34930a" d="M66.5,37.25c-.06,0-.13-.03-.17-.07-.05-.05-.08-.11-.08-.18s.03-.13,.08-.18c.09-.09,.25-.09,.35,0,.05,.05,.07,.12,.07,.18s-.02,.13-.07,.18c-.05,.04-.11,.07-.18,.07Z"/>
        <path class="uuid-bec64508-f4b6-4da8-a624-b4d82a34930a" d="M68,66c-.06,0-.13-.03-.17-.07-.05-.05-.08-.12-.08-.18,0-.07,.03-.13,.07-.18,.1-.09,.26-.09,.36,0,.05,.05,.07,.12,.07,.18s-.02,.12-.07,.17c-.05,.05-.11,.08-.18,.08Z"/>
        <path class="uuid-bec64508-f4b6-4da8-a624-b4d82a34930a" d="M59.75,69.75c-.07,0-.13-.03-.18-.08-.04-.04-.07-.1-.07-.17s.03-.13,.08-.18c.09-.09,.25-.09,.35,0,.05,.05,.07,.12,.07,.18,0,.07-.02,.13-.07,.18-.05,.04-.11,.07-.18,.07Z"/>
        <path class="uuid-bec64508-f4b6-4da8-a624-b4d82a34930a" d="M40.5,68c-.06,0-.12-.02-.17-.07-.05-.05-.08-.11-.08-.18s.03-.13,.08-.18c.09-.09,.25-.09,.35,0,.05,.05,.07,.12,.07,.18s-.02,.13-.07,.18c-.05,.05-.12,.07-.18,.07Z"/>
        <path class="uuid-bec64508-f4b6-4da8-a624-b4d82a34930a" d="M44,63c-.06,0-.12-.02-.17-.07-.05-.04-.08-.11-.08-.18s.03-.13,.08-.18c.09-.09,.25-.09,.35,0,.05,.05,.07,.12,.07,.18,0,.07-.02,.13-.07,.18-.05,.05-.11,.07-.18,.07Z"/>
        <path class="uuid-bec64508-f4b6-4da8-a624-b4d82a34930a" d="M25.75,70c-.06,0-.12-.02-.17-.07-.05-.05-.08-.11-.08-.18s.03-.13,.08-.18c.09-.09,.25-.09,.35,0,.05,.05,.07,.11,.07,.18,0,.06-.02,.12-.07,.17-.05,.06-.11,.08-.18,.08Z"/>
        <path class="uuid-bec64508-f4b6-4da8-a624-b4d82a34930a" d="M4.5,60c-.06,0-.12-.02-.17-.07-.05-.05-.08-.11-.08-.18,0-.06,.03-.13,.07-.17,.11-.11,.26-.1,.36,0,.05,.06,.07,.12,.07,.18s-.02,.13-.07,.18c-.05,.05-.12,.07-.18,.07Z"/>
        <path class="uuid-bec64508-f4b6-4da8-a624-b4d82a34930a" d="M26.5,59.5c-.06,0-.12-.02-.17-.07-.05-.05-.08-.11-.08-.18s.03-.13,.08-.18c.1-.09,.25-.09,.35,0,.05,.05,.07,.11,.07,.18,0,.06-.02,.13-.07,.18-.05,.05-.11,.07-.18,.07Z"/>
        <path class="uuid-bec64508-f4b6-4da8-a624-b4d82a34930a" d="M37.25,48.5c-.06,0-.12-.03-.17-.07-.05-.05-.08-.11-.08-.18s.03-.13,.08-.18c.09-.09,.24-.09,.34,0,.06,.05,.08,.12,.08,.18s-.02,.13-.07,.18c-.06,.05-.12,.07-.18,.07Z"/>
        <path class="uuid-bec64508-f4b6-4da8-a624-b4d82a34930a" d="M22,41.75c-.06,0-.12-.02-.17-.07-.05-.05-.08-.11-.08-.18s.03-.13,.08-.18c.1-.09,.25-.09,.35,0,.05,.05,.07,.12,.07,.18s-.02,.13-.07,.18c-.05,.05-.12,.07-.18,.07Z"/>
        <path class="uuid-bec64508-f4b6-4da8-a624-b4d82a34930a" d="M8.75,40.25c-.06,0-.13-.03-.17-.07-.05-.05-.08-.12-.08-.18,0-.07,.03-.13,.08-.18,.09-.09,.25-.09,.35,0,.04,.05,.07,.11,.07,.18s-.02,.13-.07,.18c-.05,.05-.11,.07-.18,.07Z"/>
        <path class="uuid-bec64508-f4b6-4da8-a624-b4d82a34930a" d="M24,29c-.06,0-.12-.02-.17-.07-.05-.05-.08-.11-.08-.18s.03-.13,.08-.18c.1-.09,.25-.09,.35,0,.05,.05,.07,.12,.07,.18s-.02,.12-.07,.17c-.05,.06-.11,.08-.18,.08Z"/>
        <path class="uuid-bec64508-f4b6-4da8-a624-b4d82a34930a" d="M41.5,34.5c-.06,0-.13-.03-.17-.07-.05-.05-.08-.11-.08-.18s.03-.13,.08-.18c.09-.09,.25-.09,.34,0,.06,.06,.08,.12,.08,.18s-.02,.12-.07,.17c-.05,.06-.11,.08-.18,.08Z"/>
        <path class="uuid-bec64508-f4b6-4da8-a624-b4d82a34930a" d="M51.5,37.5c-.06,0-.13-.03-.17-.07-.05-.05-.08-.11-.08-.18s.03-.13,.08-.18c.09-.09,.25-.09,.35,0,.05,.05,.07,.12,.07,.18s-.02,.13-.07,.17c-.05,.06-.11,.08-.18,.08Z"/>
        <path class="uuid-bec64508-f4b6-4da8-a624-b4d82a34930a" d="M60.75,46c-.06,0-.12-.03-.17-.07-.05-.05-.08-.11-.08-.18s.03-.14,.08-.18c.09-.09,.25-.09,.35,0,.05,.05,.07,.11,.07,.18s-.02,.13-.07,.18c-.05,.04-.11,.07-.18,.07Z"/>
        <path class="uuid-bec64508-f4b6-4da8-a624-b4d82a34930a" d="M67.5,43.75c-.06,0-.13-.03-.17-.07-.05-.05-.08-.11-.08-.18s.03-.13,.08-.18c.08-.08,.25-.09,.35,0,.05,.05,.07,.12,.07,.18s-.02,.13-.07,.18c-.05,.04-.11,.07-.18,.07Z"/>
        <path class="uuid-bec64508-f4b6-4da8-a624-b4d82a34930a" d="M51.25,66.25c-.06,0-.12-.02-.17-.07-.05-.05-.08-.11-.08-.18s.03-.13,.08-.18c.09-.09,.25-.09,.35,0,.05,.05,.07,.11,.07,.18s-.03,.13-.07,.18c-.05,.05-.11,.07-.18,.07Z"/>
        <path class="uuid-bec64508-f4b6-4da8-a624-b4d82a34930a" d="M40,37.75c-.06,0-.13-.03-.17-.07-.05-.05-.08-.11-.08-.18s.03-.13,.08-.18c.09-.09,.26-.09,.35,0,.05,.05,.07,.12,.07,.18s-.02,.12-.07,.17c-.05,.05-.11,.08-.18,.08Z"/>
        <path class="uuid-bec64508-f4b6-4da8-a624-b4d82a34930a" d="M53.25,15c-.06,0-.13-.03-.17-.07-.05-.05-.08-.11-.08-.18s.03-.13,.08-.18c.07-.08,.26-.09,.35,0,.05,.04,.07,.11,.07,.17s-.02,.13-.07,.18c-.05,.04-.11,.07-.18,.07Z"/>
        <path class="uuid-bec64508-f4b6-4da8-a624-b4d82a34930a" d="M34,16c-.07,0-.13-.03-.18-.08-.04-.04-.07-.1-.07-.17s.03-.14,.08-.18c.09-.09,.26-.09,.35,0,.05,.05,.07,.11,.07,.18,0,.06-.02,.13-.07,.18-.05,.04-.11,.07-.18,.07Z"/>
        <path class="uuid-bec64508-f4b6-4da8-a624-b4d82a34930a" d="M27.5,13.5c-.06,0-.12-.02-.17-.07-.05-.05-.08-.11-.08-.18s.03-.13,.07-.17c.11-.11,.26-.1,.36,0,.05,.05,.07,.12,.07,.18,0,.07-.02,.13-.07,.18-.05,.05-.11,.07-.18,.07Z"/>
        <path class="uuid-bec64508-f4b6-4da8-a624-b4d82a34930a" d="M12.75,19.25c-.06,0-.13-.03-.17-.07-.05-.05-.08-.11-.08-.18,0-.06,.03-.12,.07-.17,.1-.1,.26-.1,.36,0,.05,.05,.07,.12,.07,.18,0,.07-.02,.13-.07,.18-.05,.05-.11,.07-.18,.07Z"/>
        <path class="uuid-bec64508-f4b6-4da8-a624-b4d82a34930a" d="M19.75,26.5c-.06,0-.12-.02-.17-.07-.05-.05-.08-.11-.08-.18,0-.06,.03-.12,.07-.17,.11-.11,.26-.1,.36,0,.05,.05,.07,.12,.07,.18,0,.07-.02,.13-.07,.18-.05,.05-.12,.07-.18,.07Z"/>
        <path class="uuid-bec64508-f4b6-4da8-a624-b4d82a34930a" d="M49.5,4.5c-.06,0-.13-.03-.17-.07-.05-.04-.08-.11-.08-.18s.03-.14,.08-.18c.08-.08,.25-.09,.35,0,.05,.05,.07,.12,.07,.18s-.02,.13-.07,.18c-.05,.04-.11,.07-.18,.07Z"/>
        <path class="uuid-bec64508-f4b6-4da8-a624-b4d82a34930a" d="M11.75,1.75c-.06,0-.12-.02-.17-.07-.05-.05-.08-.11-.08-.18,0-.06,.03-.13,.07-.18,.1-.09,.27-.09,.36,0,.05,.05,.07,.12,.07,.18s-.02,.13-.07,.18c-.05,.05-.11,.07-.18,.07Z"/>
        <path class="uuid-bec64508-f4b6-4da8-a624-b4d82a34930a" d="M55.25,3.75c-.06,0-.13-.03-.17-.07-.05-.05-.08-.11-.08-.18s.03-.13,.08-.18c.08-.09,.25-.09,.35,0,.05,.05,.07,.12,.07,.18s-.02,.13-.07,.18c-.05,.04-.11,.07-.18,.07Z"/>
        <path class="uuid-bec64508-f4b6-4da8-a624-b4d82a34930a" d="M59,20.75c-.06,0-.13-.03-.17-.07-.05-.05-.08-.11-.08-.18s.03-.13,.08-.18c.08-.09,.25-.09,.35,0,.05,.06,.07,.12,.07,.18s-.02,.12-.07,.17c-.05,.06-.11,.08-.18,.08Z"/>
        <path class="uuid-bec64508-f4b6-4da8-a624-b4d82a34930a" d="M67.5,57.25c-.06,0-.13-.03-.17-.07-.05-.05-.08-.12-.08-.18,0-.07,.03-.13,.08-.18,.09-.09,.25-.09,.35,0,.05,.05,.07,.12,.07,.18s-.02,.12-.07,.17c-.05,.05-.11,.08-.18,.08Z"/>
        <path class="uuid-bec64508-f4b6-4da8-a624-b4d82a34930a" d="M47.25,69.75c-.06,0-.13-.03-.17-.07-.05-.04-.08-.11-.08-.18s.03-.14,.08-.18c.08-.08,.25-.09,.35,0,.04,.05,.07,.11,.07,.18s-.03,.13-.07,.18c-.05,.05-.11,.07-.18,.07Z"/>
        <path class="uuid-bec64508-f4b6-4da8-a624-b4d82a34930a" d="M5.25,69.75c-.06,0-.13-.03-.17-.07-.05-.05-.08-.11-.08-.18,0-.06,.03-.12,.07-.17,.1-.1,.26-.1,.36,0,.05,.05,.07,.12,.07,.18,0,.07-.02,.13-.07,.18s-.12,.07-.18,.07Z"/>
        <path class="uuid-bec64508-f4b6-4da8-a624-b4d82a34930a" d="M4.75,40.25c-.06,0-.13-.03-.18-.07-.04-.05-.07-.11-.07-.18s.03-.13,.07-.18c.09-.09,.26-.09,.36,0,.05,.05,.07,.12,.07,.18s-.02,.13-.07,.18c-.05,.04-.11,.07-.18,.07Z"/>
        <path class="uuid-bec64508-f4b6-4da8-a624-b4d82a34930a" d="M69.75,12.75c-.07,0-.13-.03-.17-.07-.05-.05-.08-.11-.08-.18s.03-.13,.08-.18c.09-.09,.25-.09,.35,0,.05,.05,.07,.12,.07,.18s-.02,.13-.07,.18c-.05,.04-.11,.07-.18,.07Z"/>
        <path class="uuid-bec64508-f4b6-4da8-a624-b4d82a34930a" d="M23.25,14c-.06,0-.12-.02-.17-.07-.05-.05-.08-.11-.08-.18s.03-.13,.07-.17c.11-.11,.26-.1,.36,0,.05,.06,.07,.12,.07,.18s-.02,.13-.07,.18c-.05,.05-.11,.07-.18,.07Z"/>
        <path class="uuid-bec64508-f4b6-4da8-a624-b4d82a34930a" d="M20.5,17.25c-.06,0-.13-.03-.17-.07-.05-.04-.08-.11-.08-.18s.03-.14,.08-.18c.07-.08,.26-.09,.35,0,.05,.04,.07,.11,.07,.17s-.02,.13-.07,.18c-.05,.04-.11,.07-.18,.07Z"/>
        <path class="uuid-bec64508-f4b6-4da8-a624-b4d82a34930a" d="M14.75,17.25c-.06,0-.12-.02-.17-.07-.05-.05-.08-.11-.08-.18,0-.06,.03-.13,.07-.18,.11-.09,.26-.09,.36,0,.05,.05,.07,.12,.07,.18s-.02,.13-.07,.18c-.05,.05-.11,.07-.18,.07Z"/>
        <path class="uuid-bec64508-f4b6-4da8-a624-b4d82a34930a" d="M2.75,13.25c-.07,0-.13-.03-.17-.07-.05-.05-.08-.12-.08-.18,0-.07,.03-.13,.08-.18,.09-.09,.25-.09,.35,0,.04,.05,.07,.11,.07,.18s-.02,.13-.07,.18c-.05,.04-.11,.07-.18,.07Z"/>
        <path class="uuid-bec64508-f4b6-4da8-a624-b4d82a34930a" d="M6,11.75c-.06,0-.12-.02-.17-.07-.05-.05-.08-.12-.08-.18,0-.07,.03-.13,.07-.18,.12-.1,.26-.09,.36,0,.05,.05,.07,.11,.07,.18,0,.06-.02,.12-.07,.17-.05,.06-.11,.08-.18,.08Z"/>
        <path class="uuid-bec64508-f4b6-4da8-a624-b4d82a34930a" d="M7,2.75c-.06,0-.12-.02-.17-.07-.05-.05-.08-.12-.08-.18,0-.07,.03-.13,.07-.18,.11-.09,.26-.09,.36,0,.05,.05,.07,.12,.07,.18s-.02,.12-.07,.17c-.05,.06-.11,.08-.18,.08Z"/>
        <path class="uuid-bec64508-f4b6-4da8-a624-b4d82a34930a" d="M10,8.25c-.07,0-.13-.03-.18-.07-.04-.05-.07-.12-.07-.18,0-.07,.03-.13,.07-.18,.09-.09,.26-.09,.36,0,.05,.05,.07,.11,.07,.18,0,.06-.02,.13-.07,.17-.05,.06-.11,.08-.18,.08Z"/>
        <path class="uuid-bec64508-f4b6-4da8-a624-b4d82a34930a" d="M16,8.25c-.06,0-.13-.03-.18-.07-.04-.05-.07-.11-.07-.18s.03-.13,.08-.18c.1-.09,.25-.09,.35,0,.05,.05,.07,.12,.07,.18s-.02,.13-.07,.18c-.05,.04-.11,.07-.18,.07Z"/>
        <path class="uuid-bec64508-f4b6-4da8-a624-b4d82a34930a" d="M16.5,3.25c-.06,0-.12-.02-.17-.07-.05-.05-.08-.11-.08-.18s.03-.13,.07-.18c.11-.1,.26-.09,.36,0,.05,.05,.07,.11,.07,.18s-.02,.13-.07,.18c-.05,.05-.12,.07-.18,.07Z"/>
        <path class="uuid-bec64508-f4b6-4da8-a624-b4d82a34930a" d="M25.75,7c-.06,0-.12-.02-.17-.07-.05-.05-.08-.11-.08-.18s.03-.13,.08-.18c.1-.09,.25-.09,.35,0,.05,.05,.07,.12,.07,.18s-.02,.13-.07,.18c-.05,.05-.11,.07-.18,.07Z"/>
        <path class="uuid-bec64508-f4b6-4da8-a624-b4d82a34930a" d="M37,7.5c-.06,0-.12-.02-.17-.07-.05-.05-.08-.11-.08-.18s.03-.13,.08-.18c.09-.09,.26-.09,.35,0,.05,.05,.07,.11,.07,.18s-.02,.13-.07,.18c-.05,.05-.12,.07-.18,.07Z"/>
        <path class="uuid-bec64508-f4b6-4da8-a624-b4d82a34930a" d="M40.5,4.5c-.06,0-.13-.03-.17-.07-.05-.04-.08-.11-.08-.18s.03-.13,.08-.18c.09-.09,.25-.09,.35,0,.05,.06,.07,.12,.07,.18,0,.07-.02,.13-.07,.18-.05,.04-.11,.07-.18,.07Z"/>
        <path class="uuid-bec64508-f4b6-4da8-a624-b4d82a34930a" d="M37.5,4.25c-.06,0-.13-.03-.17-.07-.05-.04-.08-.11-.08-.18s.03-.13,.08-.18c.08-.09,.25-.09,.35,0,.05,.06,.07,.12,.07,.18s-.02,.13-.07,.18c-.05,.05-.11,.07-.18,.07Z"/>
        <path class="uuid-bec64508-f4b6-4da8-a624-b4d82a34930a" d="M43.25,2.25c-.07,0-.13-.03-.18-.08-.04-.04-.07-.1-.07-.17s.03-.13,.08-.18c.09-.09,.25-.09,.35,0,.05,.05,.07,.12,.07,.18s-.02,.13-.07,.18c-.05,.04-.11,.07-.18,.07Z"/>
        <path class="uuid-bec64508-f4b6-4da8-a624-b4d82a34930a" d="M49.5,8.25c-.06,0-.13-.03-.17-.07-.05-.04-.08-.11-.08-.18s.03-.14,.08-.18c.08-.09,.25-.09,.35,0,.05,.05,.07,.12,.07,.18s-.02,.13-.07,.18c-.05,.04-.11,.07-.18,.07Z"/>
        <path class="uuid-bec64508-f4b6-4da8-a624-b4d82a34930a" d="M46,9.25c-.06,0-.13-.03-.17-.07-.05-.05-.08-.11-.08-.18s.03-.13,.08-.18c.08-.08,.25-.09,.35,0,.05,.05,.07,.12,.07,.18s-.02,.13-.07,.18c-.05,.04-.11,.07-.18,.07Z"/>
        <path class="uuid-bec64508-f4b6-4da8-a624-b4d82a34930a" d="M35.75,11c-.06,0-.13-.03-.17-.07-.05-.05-.08-.11-.08-.18s.03-.13,.08-.18c.09-.09,.25-.09,.35,0,.05,.05,.07,.12,.07,.18s-.02,.13-.07,.18c-.05,.04-.11,.07-.18,.07Z"/>
        <path class="uuid-bec64508-f4b6-4da8-a624-b4d82a34930a" d="M39.25,15c-.06,0-.12-.02-.17-.07-.05-.05-.08-.11-.08-.18s.03-.13,.08-.18c.09-.09,.25-.09,.35,0,.05,.06,.07,.12,.07,.18s-.02,.13-.07,.18c-.05,.05-.11,.07-.18,.07Z"/>
        <path class="uuid-bec64508-f4b6-4da8-a624-b4d82a34930a" d="M24.75,18c-.06,0-.12-.02-.17-.07-.05-.05-.08-.11-.08-.18s.03-.13,.07-.18c.1-.09,.27-.09,.36,0,.05,.05,.07,.11,.07,.18s-.02,.13-.07,.18c-.05,.05-.11,.07-.18,.07Z"/>
        <path class="uuid-bec64508-f4b6-4da8-a624-b4d82a34930a" d="M8.25,27.25c-.06,0-.12-.02-.17-.07-.05-.05-.08-.11-.08-.18s.03-.13,.07-.18c.12-.1,.26-.09,.36,0,.05,.05,.07,.12,.07,.18,0,.07-.02,.13-.07,.18-.05,.04-.11,.07-.18,.07Z"/>
        <path class="uuid-bec64508-f4b6-4da8-a624-b4d82a34930a" d="M16,31.75c-.06,0-.13-.03-.18-.07-.04-.05-.07-.11-.07-.18s.03-.13,.08-.18c.1-.09,.25-.09,.35,0,.05,.05,.07,.12,.07,.18s-.02,.13-.07,.18c-.05,.04-.11,.07-.18,.07Z"/>
        <path class="uuid-bec64508-f4b6-4da8-a624-b4d82a34930a" d="M10.5,33.5c-.06,0-.12-.02-.17-.07-.05-.05-.08-.12-.08-.18,0-.07,.03-.13,.07-.18,.11-.1,.26-.09,.36,0,.05,.05,.07,.12,.07,.18s-.02,.12-.07,.17c-.05,.06-.11,.08-.18,.08Z"/>
        <path class="uuid-bec64508-f4b6-4da8-a624-b4d82a34930a" d="M5.25,37c-.06,0-.13-.03-.17-.07-.05-.05-.08-.11-.08-.18,0-.06,.03-.12,.07-.17,.1-.1,.26-.1,.36,0,.05,.05,.07,.12,.07,.18,0,.07-.02,.13-.07,.18-.05,.05-.12,.07-.18,.07Z"/>
        <path class="uuid-bec64508-f4b6-4da8-a624-b4d82a34930a" d="M2.75,32c-.06,0-.13-.03-.17-.07-.05-.05-.08-.12-.08-.18,0-.07,.03-.13,.08-.18,.09-.09,.25-.09,.35,0,.04,.05,.07,.11,.07,.18s-.02,.13-.07,.18c-.05,.04-.11,.07-.18,.07Z"/>
        <path class="uuid-bec64508-f4b6-4da8-a624-b4d82a34930a" d="M7.5,25c-.07,0-.13-.03-.18-.07-.04-.05-.07-.11-.07-.18s.03-.13,.07-.18c.11-.09,.25-.09,.35,0,.06,.05,.08,.12,.08,.18s-.02,.13-.07,.18c-.05,.04-.11,.07-.18,.07Z"/>
        <path class="uuid-bec64508-f4b6-4da8-a624-b4d82a34930a" d="M3.25,20.5c-.06,0-.13-.03-.17-.07-.05-.05-.08-.11-.08-.18,0-.06,.03-.13,.07-.17,.1-.1,.26-.1,.36,0,.05,.05,.07,.12,.07,.18,0,.07-.02,.13-.07,.18-.05,.05-.12,.07-.18,.07Z"/>
        <path class="uuid-bec64508-f4b6-4da8-a624-b4d82a34930a" d="M20.5,30.75c-.06,0-.13-.03-.17-.07-.05-.05-.08-.11-.08-.18s.03-.13,.08-.18c.09-.09,.25-.09,.35,0,.05,.06,.07,.12,.07,.18s-.02,.12-.07,.17c-.05,.05-.11,.08-.18,.08Z"/>
        <path class="uuid-bec64508-f4b6-4da8-a624-b4d82a34930a" d="M17.5,35.5c-.06,0-.12-.03-.17-.07-.05-.06-.08-.12-.08-.18,0-.07,.03-.13,.07-.18,.11-.09,.26-.09,.36,0,.05,.05,.07,.11,.07,.18,0,.06-.02,.13-.07,.17-.05,.05-.11,.08-.18,.08Z"/>
        <path class="uuid-bec64508-f4b6-4da8-a624-b4d82a34930a" d="M16,39c-.06,0-.12-.02-.17-.07-.05-.05-.08-.11-.08-.18s.03-.13,.08-.18c.09-.09,.25-.09,.35,0,.05,.05,.07,.12,.07,.18s-.02,.13-.07,.18c-.05,.05-.12,.07-.18,.07Z"/>
        <path class="uuid-bec64508-f4b6-4da8-a624-b4d82a34930a" d="M12.75,41.25c-.06,0-.13-.03-.17-.07-.05-.05-.08-.11-.08-.18,0-.06,.03-.13,.07-.18,.1-.09,.26-.09,.36,0,.05,.05,.07,.11,.07,.18s-.02,.13-.07,.18c-.05,.04-.11,.07-.18,.07Z"/>
        <path class="uuid-bec64508-f4b6-4da8-a624-b4d82a34930a" d="M12.75,46.5c-.07,0-.13-.03-.17-.07-.05-.05-.08-.12-.08-.18,0-.07,.03-.13,.07-.18,.1-.09,.26-.09,.36,0,.05,.05,.07,.11,.07,.18s-.02,.13-.07,.18c-.05,.05-.11,.07-.18,.07Z"/>
        <path class="uuid-bec64508-f4b6-4da8-a624-b4d82a34930a" d="M4,46.75c-.06,0-.13-.03-.17-.07-.05-.05-.08-.11-.08-.18,0-.06,.03-.13,.07-.18,.1-.09,.26-.09,.35,0,.06,.05,.08,.12,.08,.18,0,.07-.02,.13-.07,.18-.05,.05-.12,.07-.18,.07Z"/>
        <path class="uuid-bec64508-f4b6-4da8-a624-b4d82a34930a" d="M5.75,48.5c-.07,0-.13-.03-.18-.08-.04-.04-.07-.1-.07-.17s.03-.13,.07-.18c.1-.09,.26-.09,.36,0,.05,.05,.07,.11,.07,.18s-.02,.13-.07,.18c-.05,.04-.11,.07-.18,.07Z"/>
        <path class="uuid-bec64508-f4b6-4da8-a624-b4d82a34930a" d="M11,50.5c-.06,0-.12-.02-.17-.07-.05-.05-.08-.11-.08-.18,0-.06,.03-.13,.07-.17,.11-.11,.26-.1,.36,0,.05,.06,.07,.12,.07,.18s-.02,.13-.07,.18c-.05,.05-.12,.07-.18,.07Z"/>
        <path class="uuid-bec64508-f4b6-4da8-a624-b4d82a34930a" d="M11,54.5c-.06,0-.13-.03-.18-.07-.04-.05-.07-.11-.07-.18s.03-.13,.07-.18c.11-.09,.26-.09,.36,0,.05,.05,.07,.12,.07,.18s-.02,.13-.07,.18c-.05,.04-.11,.07-.18,.07Z"/>
        <path class="uuid-bec64508-f4b6-4da8-a624-b4d82a34930a" d="M15.5,58.5c-.06,0-.12-.03-.17-.07-.05-.05-.08-.11-.08-.18s.03-.13,.07-.18c.11-.09,.26-.09,.36,0,.05,.05,.07,.12,.07,.18s-.02,.13-.07,.18c-.05,.04-.11,.07-.18,.07Z"/>
        <path class="uuid-bec64508-f4b6-4da8-a624-b4d82a34930a" d="M10,59.75c-.07,0-.13-.03-.18-.07-.04-.05-.07-.12-.07-.18,0-.07,.03-.13,.07-.18,.1-.09,.25-.09,.36,0,.05,.05,.07,.11,.07,.18,0,.06-.02,.13-.07,.18-.05,.05-.11,.07-.18,.07Z"/>
        <path class="uuid-bec64508-f4b6-4da8-a624-b4d82a34930a" d="M6,63.5c-.06,0-.12-.02-.17-.07-.05-.05-.08-.12-.08-.18,0-.07,.03-.13,.07-.18,.12-.1,.26-.09,.36,0,.05,.05,.07,.11,.07,.18,0,.06-.02,.12-.07,.17-.05,.06-.11,.08-.18,.08Z"/>
        <path class="uuid-bec64508-f4b6-4da8-a624-b4d82a34930a" d="M2.25,62c-.06,0-.12-.02-.17-.07-.05-.05-.08-.11-.08-.18s.03-.13,.07-.18c.11-.09,.25-.09,.35,0,.06,.05,.08,.12,.08,.18s-.02,.13-.07,.18c-.06,.05-.12,.07-.18,.07Z"/>
        <path class="uuid-bec64508-f4b6-4da8-a624-b4d82a34930a" d="M7.25,67.75c-.06,0-.13-.03-.17-.07-.05-.05-.08-.12-.08-.18,0-.07,.03-.13,.07-.18,.1-.09,.26-.09,.36,0,.04,.05,.07,.11,.07,.18s-.02,.13-.07,.17c-.05,.06-.11,.08-.18,.08Z"/>
        <path class="uuid-bec64508-f4b6-4da8-a624-b4d82a34930a" d="M13.5,69.5c-.06,0-.12-.02-.17-.07-.05-.05-.08-.12-.08-.18,0-.07,.03-.13,.07-.18,.11-.09,.26-.09,.36,0,.05,.05,.07,.12,.07,.18s-.02,.12-.07,.17c-.05,.06-.11,.08-.18,.08Z"/>
        <path class="uuid-bec64508-f4b6-4da8-a624-b4d82a34930a" d="M13.5,65.75c-.06,0-.12-.02-.17-.07-.05-.05-.08-.11-.08-.18,0-.06,.03-.13,.07-.17,.11-.11,.26-.1,.36,0,.05,.06,.07,.12,.07,.18s-.02,.13-.07,.18c-.05,.05-.11,.07-.18,.07Z"/>
        <path class="uuid-bec64508-f4b6-4da8-a624-b4d82a34930a" d="M21.5,68.5c-.06,0-.12-.02-.17-.07-.05-.05-.08-.11-.08-.18s.03-.13,.08-.18c.09-.09,.25-.09,.35,0,.05,.05,.07,.12,.07,.18s-.02,.12-.07,.17c-.05,.06-.11,.08-.18,.08Z"/>
        <path class="uuid-bec64508-f4b6-4da8-a624-b4d82a34930a" d="M23,65.75c-.06,0-.12-.02-.17-.07-.05-.05-.08-.11-.08-.18,0-.06,.03-.12,.07-.17,.11-.11,.26-.1,.36,0,.05,.05,.07,.12,.07,.18,0,.07-.02,.13-.07,.18-.05,.05-.11,.07-.18,.07Z"/>
        <path class="uuid-bec64508-f4b6-4da8-a624-b4d82a34930a" d="M22.25,60c-.06,0-.12-.02-.17-.07-.05-.05-.08-.11-.08-.18,0-.06,.03-.12,.07-.17,.11-.11,.26-.1,.36,0,.05,.05,.07,.12,.07,.18,0,.07-.02,.13-.07,.18-.05,.05-.12,.07-.18,.07Z"/>
        <path class="uuid-bec64508-f4b6-4da8-a624-b4d82a34930a" d="M24.25,57.5c-.06,0-.12-.02-.17-.07-.05-.05-.08-.11-.08-.18s.03-.13,.08-.18c.1-.09,.25-.09,.35,0,.05,.05,.07,.12,.07,.18s-.02,.13-.07,.18c-.05,.05-.11,.07-.18,.07Z"/>
        <path class="uuid-bec64508-f4b6-4da8-a624-b4d82a34930a" d="M22,53.25c-.06,0-.12-.02-.17-.07-.05-.05-.08-.11-.08-.18s.03-.13,.07-.17c.11-.11,.26-.1,.36,0,.05,.06,.07,.12,.07,.18s-.02,.13-.07,.18c-.05,.05-.11,.07-.18,.07Z"/>
        <path class="uuid-bec64508-f4b6-4da8-a624-b4d82a34930a" d="M26.25,47.75c-.06,0-.12-.02-.17-.07-.05-.05-.08-.11-.08-.18s.03-.13,.08-.18c.09-.09,.25-.09,.35,0,.05,.05,.07,.12,.07,.18s-.02,.13-.07,.18c-.05,.05-.11,.07-.18,.07Z"/>
        <path class="uuid-bec64508-f4b6-4da8-a624-b4d82a34930a" d="M25.75,43.5c-.06,0-.12-.02-.17-.07-.05-.05-.08-.11-.08-.18s.03-.13,.07-.18c.11-.09,.26-.09,.36,0,.05,.06,.07,.12,.07,.18,0,.07-.02,.13-.07,.18-.05,.05-.11,.07-.18,.07Z"/>
        <path class="uuid-bec64508-f4b6-4da8-a624-b4d82a34930a" d="M31.25,37.5c-.06,0-.12-.03-.17-.07-.05-.05-.08-.12-.08-.18s.03-.13,.07-.17c.11-.11,.26-.1,.36,0,.05,.06,.07,.12,.07,.18s-.02,.12-.07,.17c-.05,.05-.11,.08-.18,.08Z"/>
        <path class="uuid-bec64508-f4b6-4da8-a624-b4d82a34930a" d="M32.25,31c-.06,0-.12-.02-.17-.07-.05-.05-.08-.11-.08-.18,0-.06,.03-.12,.07-.17,.11-.11,.26-.1,.36,0,.05,.05,.07,.12,.07,.18,0,.07-.03,.13-.07,.18-.05,.05-.11,.07-.18,.07Z"/>
        <path class="uuid-bec64508-f4b6-4da8-a624-b4d82a34930a" d="M26,34c-.06,0-.12-.02-.17-.07-.05-.05-.08-.11-.08-.18s.03-.13,.08-.18c.1-.09,.25-.09,.35,0,.05,.05,.07,.12,.07,.18s-.02,.13-.07,.18c-.05,.05-.11,.07-.18,.07Z"/>
        <path class="uuid-bec64508-f4b6-4da8-a624-b4d82a34930a" d="M34.25,27.75c-.06,0-.13-.03-.17-.07-.05-.05-.08-.11-.08-.18s.03-.13,.08-.18c.09-.09,.25-.09,.35,0,.05,.06,.07,.12,.07,.18s-.02,.13-.07,.18c-.05,.04-.11,.07-.18,.07Z"/>
        <path class="uuid-bec64508-f4b6-4da8-a624-b4d82a34930a" d="M37.25,28.5c-.06,0-.13-.03-.17-.07-.05-.05-.08-.11-.08-.18s.03-.13,.08-.18c.09-.09,.25-.09,.34,0,.06,.05,.08,.12,.08,.18s-.02,.12-.07,.17c-.05,.06-.11,.08-.18,.08Z"/>
        <path class="uuid-bec64508-f4b6-4da8-a624-b4d82a34930a" d="M41.75,25.75c-.06,0-.12-.03-.17-.07-.05-.05-.08-.11-.08-.18s.03-.13,.08-.18c.09-.09,.26-.09,.35,0,.05,.06,.07,.12,.07,.18s-.02,.12-.07,.17c-.05,.05-.11,.08-.18,.08Z"/>
        <path class="uuid-bec64508-f4b6-4da8-a624-b4d82a34930a" d="M43,20.75c-.06,0-.12-.02-.17-.07-.05-.05-.08-.11-.08-.18s.03-.13,.08-.18c.09-.09,.25-.09,.35,0,.05,.05,.07,.12,.07,.18s-.02,.13-.07,.18c-.05,.05-.12,.07-.18,.07Z"/>
        <path class="uuid-bec64508-f4b6-4da8-a624-b4d82a34930a" d="M36.5,19.25c-.06,0-.13-.03-.17-.07-.05-.04-.08-.11-.08-.18s.03-.14,.08-.18c.08-.08,.25-.09,.35,0,.05,.05,.07,.12,.07,.18s-.02,.13-.07,.18c-.05,.05-.11,.07-.18,.07Z"/>
        <path class="uuid-bec64508-f4b6-4da8-a624-b4d82a34930a" d="M27.75,22.25c-.06,0-.12-.03-.17-.07-.05-.05-.08-.12-.08-.18s.03-.13,.07-.17c.11-.11,.26-.1,.36,0,.05,.05,.07,.11,.07,.18s-.02,.13-.07,.18c-.05,.04-.11,.07-.18,.07Z"/>
        <path class="uuid-bec64508-f4b6-4da8-a624-b4d82a34930a" d="M52,22c-.06,0-.13-.03-.17-.07-.05-.05-.08-.11-.08-.18s.03-.13,.08-.18c.09-.09,.25-.09,.35,0,.05,.06,.07,.12,.07,.18s-.02,.12-.07,.17c-.05,.05-.11,.08-.18,.08Z"/>
        <path class="uuid-bec64508-f4b6-4da8-a624-b4d82a34930a" d="M43.25,17.75c-.06,0-.13-.03-.17-.07-.05-.05-.08-.11-.08-.18,0-.06,.03-.13,.07-.18,.11-.09,.26-.09,.36,0,.05,.06,.07,.12,.07,.18s-.02,.12-.07,.17c-.05,.06-.11,.08-.18,.08Z"/>
        <path class="uuid-bec64508-f4b6-4da8-a624-b4d82a34930a" d="M50.5,18c-.06,0-.13-.03-.17-.07-.05-.05-.08-.11-.08-.18s.03-.13,.08-.18c.08-.09,.25-.09,.35,0,.05,.06,.07,.12,.07,.18s-.02,.12-.07,.17c-.05,.05-.11,.08-.18,.08Z"/>
        <path class="uuid-bec64508-f4b6-4da8-a624-b4d82a34930a" d="M59.5,17.25c-.06,0-.13-.03-.17-.07-.05-.05-.08-.11-.08-.18s.03-.13,.08-.18c.08-.09,.25-.09,.35,0,.05,.05,.07,.12,.07,.18s-.02,.13-.07,.18c-.05,.04-.11,.07-.18,.07Z"/>
        <path class="uuid-bec64508-f4b6-4da8-a624-b4d82a34930a" d="M58.25,14c-.06,0-.13-.03-.17-.07-.05-.05-.08-.11-.08-.18s.03-.13,.08-.18c.08-.09,.26-.09,.35,0,.05,.05,.07,.11,.07,.18,0,.06-.02,.13-.07,.18-.05,.04-.11,.07-.18,.07Z"/>
        <path class="uuid-bec64508-f4b6-4da8-a624-b4d82a34930a" d="M61.5,11c-.06,0-.12-.02-.17-.07-.05-.05-.08-.11-.08-.18s.03-.14,.08-.18c.09-.09,.25-.09,.35,0,.04,.05,.07,.11,.07,.18s-.03,.13-.07,.18c-.05,.05-.11,.07-.18,.07Z"/>
        <path class="uuid-bec64508-f4b6-4da8-a624-b4d82a34930a" d="M58.75,7.5c-.06,0-.12-.02-.17-.07-.05-.05-.08-.11-.08-.18s.03-.13,.08-.18c.09-.09,.25-.09,.35,0,.05,.05,.07,.11,.07,.18s-.02,.13-.07,.18c-.05,.05-.11,.07-.18,.07Z"/>
        <path class="uuid-bec64508-f4b6-4da8-a624-b4d82a34930a" d="M60,4.75c-.06,0-.13-.03-.17-.07-.05-.05-.08-.11-.08-.18s.03-.13,.07-.18c.11-.09,.26-.09,.36,0,.05,.05,.07,.11,.07,.18s-.02,.13-.07,.17c-.05,.06-.11,.08-.18,.08Z"/>
        <path class="uuid-bec64508-f4b6-4da8-a624-b4d82a34930a" d="M67.5,6c-.06,0-.13-.03-.17-.07-.05-.05-.08-.12-.08-.18s.03-.13,.07-.17c.1-.1,.26-.1,.36,0,.05,.06,.07,.12,.07,.18s-.02,.12-.07,.17c-.05,.05-.11,.08-.18,.08Z"/>
        <path class="uuid-bec64508-f4b6-4da8-a624-b4d82a34930a" d="M69.5,8c-.06,0-.12-.03-.17-.07-.05-.05-.08-.11-.08-.18,0-.06,.03-.13,.07-.18,.11-.09,.26-.09,.36,0,.05,.05,.07,.12,.07,.18,0,.07-.02,.13-.07,.18-.05,.05-.11,.07-.18,.07Z"/>
        <path class="uuid-bec64508-f4b6-4da8-a624-b4d82a34930a" d="M65.75,9.75c-.06,0-.13-.03-.17-.07-.05-.05-.08-.11-.08-.18s.03-.13,.08-.18c.08-.09,.26-.09,.35,0,.05,.05,.07,.12,.07,.18s-.02,.13-.07,.18c-.05,.04-.11,.07-.18,.07Z"/>
        <path class="uuid-bec64508-f4b6-4da8-a624-b4d82a34930a" d="M61.75,16.5c-.06,0-.13-.03-.17-.07-.05-.05-.08-.11-.08-.18s.03-.13,.08-.18c.09-.09,.25-.09,.35,0,.05,.05,.07,.12,.07,.18s-.02,.13-.07,.17c-.05,.06-.11,.08-.18,.08Z"/>
        <path class="uuid-bec64508-f4b6-4da8-a624-b4d82a34930a" d="M60.25,23.75c-.06,0-.12-.03-.17-.07-.05-.05-.08-.11-.08-.18s.03-.13,.08-.18c.09-.09,.25-.09,.35,0,.04,.05,.07,.11,.07,.18s-.02,.13-.07,.18c-.05,.05-.11,.07-.18,.07Z"/>
        <path class="uuid-bec64508-f4b6-4da8-a624-b4d82a34930a" d="M55.5,23.75c-.06,0-.13-.03-.17-.07-.05-.05-.08-.12-.08-.18s.03-.13,.08-.18c.09-.09,.25-.09,.35,0,.05,.05,.07,.12,.07,.18s-.02,.13-.07,.18c-.05,.04-.11,.07-.18,.07Z"/>
        <path class="uuid-bec64508-f4b6-4da8-a624-b4d82a34930a" d="M55.5,18.75c-.06,0-.13-.03-.17-.07-.05-.05-.08-.12-.08-.18s.03-.13,.08-.18c.09-.09,.25-.09,.35,0,.05,.05,.07,.12,.07,.18s-.02,.13-.07,.18c-.05,.04-.11,.07-.18,.07Z"/>
        <path class="uuid-bec64508-f4b6-4da8-a624-b4d82a34930a" d="M65,25.75c-.06,0-.12-.03-.17-.07-.05-.05-.08-.11-.08-.18s.03-.13,.08-.18c.09-.09,.25-.09,.35,0,.05,.05,.07,.12,.07,.18,0,.07-.02,.13-.07,.18-.05,.05-.11,.07-.18,.07Z"/>
        <path class="uuid-bec64508-f4b6-4da8-a624-b4d82a34930a" d="M61.25,27c-.06,0-.13-.03-.17-.07-.05-.05-.08-.11-.08-.18s.03-.13,.08-.18c.09-.09,.25-.09,.35,0,.05,.05,.07,.11,.07,.18s-.03,.13-.07,.18c-.05,.04-.11,.07-.18,.07Z"/>
        <path class="uuid-bec64508-f4b6-4da8-a624-b4d82a34930a" d="M57.75,30.75c-.06,0-.12-.02-.17-.07-.05-.05-.08-.11-.08-.18s.03-.13,.08-.18c.09-.09,.25-.09,.35,0,.05,.05,.07,.11,.07,.18s-.02,.13-.07,.17c-.05,.06-.11,.08-.18,.08Z"/>
        <path class="uuid-bec64508-f4b6-4da8-a624-b4d82a34930a" d="M52.75,32.75c-.06,0-.13-.03-.17-.07-.05-.05-.08-.11-.08-.18s.03-.13,.08-.18c.09-.09,.25-.09,.35,0,.05,.05,.07,.12,.07,.18s-.02,.13-.07,.17c-.05,.06-.11,.08-.18,.08Z"/>
        <path class="uuid-bec64508-f4b6-4da8-a624-b4d82a34930a" d="M47.5,33.75c-.06,0-.12-.03-.17-.07-.05-.05-.08-.11-.08-.18s.03-.13,.08-.18c.09-.09,.25-.09,.34,0,.06,.06,.08,.12,.08,.18s-.02,.12-.07,.17c-.06,.06-.11,.08-.18,.08Z"/>
        <path class="uuid-bec64508-f4b6-4da8-a624-b4d82a34930a" d="M44.25,39.25c-.06,0-.12-.03-.17-.07-.05-.05-.08-.11-.08-.18s.03-.13,.08-.18c.09-.09,.25-.09,.35,0,.05,.05,.07,.11,.07,.18s-.02,.13-.07,.18c-.05,.05-.12,.07-.18,.07Z"/>
        <path class="uuid-bec64508-f4b6-4da8-a624-b4d82a34930a" d="M34,41.5c-.06,0-.12-.02-.17-.07-.05-.05-.08-.11-.08-.18s.03-.13,.08-.18c.09-.09,.25-.09,.35,0,.05,.05,.07,.12,.07,.18s-.02,.13-.07,.18c-.05,.04-.11,.07-.18,.07Z"/>
        <path class="uuid-bec64508-f4b6-4da8-a624-b4d82a34930a" d="M40.75,48c-.06,0-.12-.02-.17-.07-.05-.05-.08-.11-.08-.18s.03-.13,.08-.18c.1-.09,.25-.09,.35,0,.04,.05,.07,.11,.07,.18s-.03,.13-.07,.18c-.05,.05-.11,.07-.18,.07Z"/>
        <path class="uuid-bec64508-f4b6-4da8-a624-b4d82a34930a" d="M45.75,52.25c-.06,0-.12-.02-.17-.07-.05-.05-.08-.11-.08-.18s.03-.13,.08-.18c.09-.09,.25-.09,.35,0,.05,.05,.07,.11,.07,.18s-.03,.13-.07,.18c-.05,.05-.11,.07-.18,.07Z"/>
        <path class="uuid-bec64508-f4b6-4da8-a624-b4d82a34930a" d="M46.5,56.75c-.06,0-.12-.03-.17-.07-.05-.05-.08-.11-.08-.18s.03-.13,.08-.18c.09-.09,.25-.09,.35,0,.05,.05,.07,.12,.07,.18s-.02,.13-.07,.17c-.05,.06-.11,.08-.18,.08Z"/>
        <path class="uuid-bec64508-f4b6-4da8-a624-b4d82a34930a" d="M42,59.5c-.06,0-.12-.02-.17-.07-.05-.05-.08-.11-.08-.18s.03-.13,.08-.18c.1-.09,.25-.09,.35,0,.04,.05,.07,.11,.07,.18s-.02,.13-.07,.18c-.05,.05-.12,.07-.18,.07Z"/>
        <path class="uuid-bec64508-f4b6-4da8-a624-b4d82a34930a" d="M40,62.75c-.06,0-.12-.03-.17-.07-.05-.05-.08-.11-.08-.18s.03-.14,.08-.18c.09-.09,.26-.09,.35,0,.05,.05,.07,.11,.07,.18,0,.06-.02,.13-.07,.18-.05,.04-.11,.07-.18,.07Z"/>
        <path class="uuid-bec64508-f4b6-4da8-a624-b4d82a34930a" d="M36,62.75c-.06,0-.12-.02-.17-.07-.05-.05-.08-.11-.08-.18s.03-.13,.08-.18c.1-.09,.26-.09,.35,0,.05,.06,.07,.12,.07,.18s-.02,.13-.07,.18c-.05,.04-.11,.07-.18,.07Z"/>
        <path class="uuid-bec64508-f4b6-4da8-a624-b4d82a34930a" d="M36.5,52.75c-.07,0-.13-.03-.17-.07-.05-.05-.08-.11-.08-.18s.03-.13,.08-.18c.09-.09,.25-.09,.35,0,.05,.06,.07,.12,.07,.18s-.02,.12-.07,.17c-.05,.05-.11,.08-.18,.08Z"/>
        <path class="uuid-bec64508-f4b6-4da8-a624-b4d82a34930a" d="M30,63.5c-.06,0-.13-.03-.17-.07-.05-.05-.08-.11-.08-.18s.03-.13,.08-.18c.09-.09,.25-.09,.35,0,.05,.05,.07,.12,.07,.18s-.02,.13-.07,.17c-.05,.05-.11,.08-.18,.08Z"/>
        <path class="uuid-bec64508-f4b6-4da8-a624-b4d82a34930a" d="M31.5,68.5c-.07,0-.13-.03-.18-.08-.04-.04-.07-.1-.07-.17s.03-.14,.08-.18c.09-.08,.25-.09,.34,0,.06,.05,.08,.11,.08,.18,0,.06-.02,.13-.07,.18-.05,.04-.11,.07-.18,.07Z"/>
        <path class="uuid-bec64508-f4b6-4da8-a624-b4d82a34930a" d="M37,71c-.06,0-.12-.02-.17-.07-.05-.05-.08-.11-.08-.18s.03-.13,.08-.18c.1-.09,.25-.09,.35,0,.05,.05,.07,.11,.07,.18s-.02,.13-.07,.18c-.05,.05-.11,.07-.18,.07Z"/>
        <path class="uuid-bec64508-f4b6-4da8-a624-b4d82a34930a" d="M58.75,57c-.06,0-.12-.02-.17-.07-.05-.05-.08-.11-.08-.18s.03-.13,.08-.18c.09-.09,.25-.09,.35,0,.05,.05,.07,.11,.07,.18s-.02,.13-.07,.18c-.05,.05-.11,.07-.18,.07Z"/>
        <path class="uuid-bec64508-f4b6-4da8-a624-b4d82a34930a" d="M63,57c-.06,0-.12-.03-.17-.07-.05-.05-.08-.11-.08-.18s.03-.13,.08-.18c.09-.09,.25-.09,.35,0,.05,.05,.07,.11,.07,.18s-.02,.13-.07,.17c-.05,.06-.11,.08-.18,.08Z"/>
        <path class="uuid-bec64508-f4b6-4da8-a624-b4d82a34930a" d="M60,50.75c-.06,0-.12-.03-.17-.07-.05-.05-.08-.11-.08-.18s.03-.14,.08-.18c.09-.09,.25-.09,.35,0,.04,.05,.07,.11,.07,.18s-.02,.13-.07,.18c-.05,.04-.11,.07-.18,.07Z"/>
        <path class="uuid-bec64508-f4b6-4da8-a624-b4d82a34930a" d="M54.5,50.5c-.07,0-.13-.03-.17-.07-.05-.05-.08-.12-.08-.18s.03-.13,.07-.17c.1-.1,.26-.1,.36,0,.05,.06,.07,.12,.07,.18s-.02,.12-.07,.17c-.05,.05-.11,.08-.18,.08Z"/>
        <path class="uuid-bec64508-f4b6-4da8-a624-b4d82a34930a" d="M59.25,44.25c-.06,0-.13-.03-.17-.07-.05-.05-.08-.12-.08-.18s.03-.13,.07-.17c.1-.1,.27-.1,.36,0,.05,.06,.07,.12,.07,.18s-.02,.12-.07,.17c-.04,.05-.11,.08-.18,.08Z"/>
        <path class="uuid-bec64508-f4b6-4da8-a624-b4d82a34930a" d="M54.75,41.75c-.06,0-.13-.03-.17-.07-.05-.05-.08-.12-.08-.18s.03-.13,.08-.18c.08-.09,.25-.09,.35,0,.05,.05,.07,.12,.07,.18s-.02,.13-.07,.18c-.05,.04-.11,.07-.18,.07Z"/>
        <path class="uuid-bec64508-f4b6-4da8-a624-b4d82a34930a" d="M55.75,35.5c-.06,0-.12-.02-.17-.07-.05-.05-.08-.11-.08-.18s.03-.13,.08-.18c.09-.09,.25-.09,.35,0,.05,.05,.07,.11,.07,.18s-.02,.13-.07,.18c-.05,.05-.11,.07-.18,.07Z"/>
        <path class="uuid-bec64508-f4b6-4da8-a624-b4d82a34930a" d="M62.5,42.25c-.06,0-.13-.03-.17-.07-.05-.05-.08-.11-.08-.18s.03-.13,.08-.18c.08-.08,.24-.09,.34,0,.06,.05,.08,.12,.08,.18s-.02,.13-.07,.18c-.05,.05-.12,.07-.18,.07Z"/>
        <path class="uuid-bec64508-f4b6-4da8-a624-b4d82a34930a" d="M67,47.5c-.06,0-.13-.03-.17-.07-.05-.05-.08-.11-.08-.18s.03-.13,.08-.18c.08-.08,.25-.09,.35,0,.05,.05,.07,.11,.07,.18s-.03,.13-.07,.18c-.05,.05-.11,.07-.18,.07Z"/>
        <path class="uuid-bec64508-f4b6-4da8-a624-b4d82a34930a" d="M69.5,54.25c-.06,0-.13-.03-.17-.07-.05-.05-.08-.11-.08-.18s.03-.13,.08-.18c.09-.09,.25-.09,.35,0,.05,.05,.07,.11,.07,.18s-.02,.13-.07,.18c-.05,.04-.11,.07-.18,.07Z"/>
        <path class="uuid-bec64508-f4b6-4da8-a624-b4d82a34930a" d="M63.5,61.75c-.06,0-.13-.03-.17-.07-.05-.05-.08-.12-.08-.18,0-.07,.03-.13,.08-.18,.07-.08,.25-.1,.35,0,.05,.05,.07,.12,.07,.18s-.02,.12-.07,.17c-.05,.06-.11,.08-.18,.08Z"/>
        <path class="uuid-bec64508-f4b6-4da8-a624-b4d82a34930a" d="M69.25,63.5c-.06,0-.12-.02-.17-.07-.05-.05-.08-.11-.08-.18s.03-.13,.08-.18c.09-.09,.25-.09,.35,0,.05,.05,.07,.12,.07,.18s-.02,.13-.07,.17c-.05,.06-.11,.08-.18,.08Z"/>
        <path class="uuid-bec64508-f4b6-4da8-a624-b4d82a34930a" d="M64.75,65.5c-.07,0-.13-.03-.17-.07-.05-.05-.08-.12-.08-.18s.03-.12,.07-.17c.1-.1,.27-.1,.36,0,.05,.06,.07,.12,.07,.18s-.02,.12-.07,.17c-.04,.05-.11,.08-.18,.08Z"/>
        <path class="uuid-bec64508-f4b6-4da8-a624-b4d82a34930a" d="M65.75,68.25c-.06,0-.13-.03-.17-.07-.05-.05-.08-.11-.08-.18s.03-.13,.08-.18c.08-.09,.26-.09,.35,0,.05,.05,.07,.12,.07,.18,0,.07-.02,.13-.07,.18-.05,.04-.11,.07-.18,.07Z"/>
        <path class="uuid-bec64508-f4b6-4da8-a624-b4d82a34930a" d="M69.25,70.5c-.06,0-.13-.03-.17-.07-.05-.05-.08-.12-.08-.18,0-.07,.03-.13,.08-.18,.09-.09,.25-.09,.35,0,.05,.05,.07,.11,.07,.18,0,.06-.02,.13-.07,.17-.05,.06-.11,.08-.18,.08Z"/>
        <path class="uuid-bec64508-f4b6-4da8-a624-b4d82a34930a" d="M62.5,70.25c-.06,0-.13-.03-.17-.07-.05-.05-.08-.11-.08-.18s.03-.13,.08-.18c.08-.08,.24-.1,.34,0,.06,.05,.08,.12,.08,.18s-.02,.13-.07,.18c-.06,.05-.12,.07-.18,.07Z"/>
        <path class="uuid-bec64508-f4b6-4da8-a624-b4d82a34930a" d="M60.75,65.75c-.06,0-.13-.03-.17-.07-.05-.05-.08-.11-.08-.18s.03-.13,.08-.18c.09-.09,.25-.09,.35,0,.05,.05,.07,.12,.07,.18s-.02,.13-.07,.17c-.05,.06-.11,.08-.18,.08Z"/>
        <path class="uuid-bec64508-f4b6-4da8-a624-b4d82a34930a" d="M52.75,69.75c-.06,0-.13-.03-.17-.07-.05-.05-.08-.11-.08-.18s.03-.13,.08-.18c.09-.09,.25-.09,.35,0,.05,.05,.07,.12,.07,.18s-.02,.13-.07,.17c-.05,.06-.11,.08-.18,.08Z"/>
        <path class="uuid-bec64508-f4b6-4da8-a624-b4d82a34930a" d="M44.75,66.5c-.07,0-.13-.03-.17-.07-.05-.05-.08-.11-.08-.18s.03-.13,.08-.18c.09-.09,.25-.09,.35,0,.05,.05,.07,.11,.07,.18,0,.06-.02,.13-.07,.17-.05,.05-.11,.08-.18,.08Z"/>
        <path class="uuid-bec64508-f4b6-4da8-a624-b4d82a34930a" d="M44.5,71.25c-.06,0-.12-.03-.17-.07-.05-.05-.08-.11-.08-.18s.03-.13,.08-.18c.09-.09,.25-.09,.35,0,.05,.05,.07,.11,.07,.18s-.02,.13-.07,.18c-.05,.05-.12,.07-.18,.07Z"/>
        <path class="uuid-bec64508-f4b6-4da8-a624-b4d82a34930a" d="M28.5,71.25c-.07,0-.13-.03-.18-.08-.04-.04-.07-.1-.07-.17s.03-.13,.08-.18c.09-.09,.25-.09,.35,0,.05,.05,.07,.12,.07,.18s-.02,.13-.07,.18c-.04,.04-.11,.07-.18,.07Z"/>
        <path class="uuid-bec64508-f4b6-4da8-a624-b4d82a34930a" d="M.75,29.5c-.06,0-.13-.03-.17-.07-.05-.05-.08-.12-.08-.18,0-.07,.03-.13,.08-.18,.08-.09,.24-.09,.35,0,.04,.05,.07,.11,.07,.18s-.02,.13-.07,.18c-.05,.05-.11,.07-.18,.07Z"/>
        <path class="uuid-bec64508-f4b6-4da8-a624-b4d82a34930a" d="M24.5,1c-.06,0-.12-.02-.17-.07-.05-.05-.08-.12-.08-.18,0-.07,.03-.13,.07-.18,.11-.09,.26-.09,.36,0,.04,.05,.07,.11,.07,.18s-.02,.13-.07,.17c-.05,.06-.11,.08-.18,.08Z"/>
        <path class="uuid-bec64508-f4b6-4da8-a624-b4d82a34930a" d="M13.25,5c-.07,0-.13-.03-.18-.07-.04-.05-.07-.12-.07-.18,0-.07,.03-.13,.07-.18,.09-.09,.26-.09,.36,0,.05,.05,.07,.11,.07,.18,0,.06-.02,.13-.07,.17-.05,.06-.11,.08-.18,.08Z"/>
        <path class="uuid-bec64508-f4b6-4da8-a624-b4d82a34930a" d="M71,35.25c-.06,0-.13-.03-.17-.07-.05-.05-.08-.11-.08-.18s.03-.13,.08-.18c.08-.08,.25-.09,.35,0,.05,.05,.07,.11,.07,.18s-.02,.13-.07,.18c-.05,.05-.11,.07-.18,.07Z"/>
      </g>
    </pattern>
  </defs>
  <g id="uuid-b4f73dde-c3f0-4770-b237-a1f1d8ab514c" data-name="fonds">
    <g>
      <path class="uuid-44f35133-2cc5-4f19-929a-d332648d7f57" d="M487.82,346.89c.91-1.05,1.48-2.36,1.36-3.78-.34-4.24-.71-8.49-1.08-12.73-.68-36.61-1.3-73.21-1.35-109.82-.05-41.05,1.39-82.02,2.36-123.05,.35-14.94,.41-29.91-.25-44.84,1.16-1.12,1.87-2.71,2.05-4.45,1.26-12.72,1.31-25.5,.17-38.23-.27-2.96-2.57-6.47-6.06-6.06-72.56,8.58-145.76,8.07-218.68,6.06-72.69-2-145.44-5.44-218.15-2.68-5.16,.2-10.31,.42-15.47,.68-4.66,.24-9.42,.24-14.02,1.1-4.32,.81-8.16,3.3-10.35,7.14-2.2,3.84-2.35,8.45-2.48,12.76-.15,4.75-.28,9.5-.42,14.25-2.79,15.79-3.39,31.83-1.42,47.77,.17,1.37,.66,2.66,1.42,3.69-.04,20.5-.09,41.01-.13,61.51,0,1.32,.36,2.39,.93,3.27,.02,30.5,.05,61.01,.07,91.51,0,9.39,.01,18.79,.02,28.18-.67,.59-1.21,1.3-1.55,2.1,.92,12.02,1.76,24.04,2,36.09,.03,.71,.07,1.42,.1,2.13-.02,.27-.04,.55-.06,.82,.01,.88,.03,1.76,.04,2.63,0,.7-.12,1.33-.33,1.88-.53,9.54-.51,19.11-.26,28.69-.23,5.18-.43,10.35-.63,15.53,.19,5.9,.31,11.8,.32,17.71,0,1.21-.38,2.21-1,2.99-.48,17.6-.71,35.21-.5,52.82,.15,12.82,.55,25.63,1.21,38.43-.89,.61-1.72,1.32-2.47,2.18,0,0,0,0,0,0,.26,3.11,.59,6.21,.92,9.31,.91,.63,2.03,1.02,3.36,1.03,78.47,.67,156.96,.5,235.43-.51,20.84-.27,41.68-.61,62.51-.99,16.98,1.1,33.98,1.72,51.05,1.36,27.76-.57,55.45-2.78,83.18-4.02,15.55-.7,31.12-1.07,46.69-.73,3.17,.07,6.21-2.83,6.06-6.06-2.07-45.21-3.58-90.44-4.59-135.68Z"/>
      <path class="uuid-da98fc3b-52e9-41a1-a406-747e5481b839" d="M493.84,466.62c0-.23,0-.45,.03-.66-.09-.01-.17-.04-.26-.05-.07-30.25-.15-60.5-.19-90.75-.03-19.97,.56-39.85,1.48-59.7-.27-4.49-.54-8.97-.76-13.46-2.2-19.8-.83-39.89,.48-59.91,.03-.82,.07-1.63,.1-2.45,.21-5.36,.49-10.73,.45-16.09-.02-2.52-.04-4.99,.16-7.45-.83-13.18-1.76-26.33-2.92-39.49-1.21-13.72-1.81-27.38,.28-41.05,.17-1.13,.81-2.01,1.68-2.62-1.26-17.79-1.87-35.62-1.94-53.46-.03-9.33,.08-18.66,.32-27.99-.48-16.18-.64-32.38-.28-48.58-3.99-2.06-9.02-2.03-12.72,.09C348.4,.22,216.99,2.24,85.8,9.05,62.89,7.37,40.02,4.89,17.18,1.33,7.09-.25,.8,9.44,2.16,16.87c2.49,26.02,1.13,52.23-.46,78.38,.28,4.37,.57,8.75,.85,13.12,.36,.64,.63,1.36,.73,2.19,2.24,17.33,.96,34.79-.25,52.15-1.21,17.33-1.74,34.64-1.51,52.01,.23,17.71,.92,35.43,2.23,53.09,1.36,18.36,3.04,36.7,3.1,55.13,0,2.57-1.56,4.1-3.46,4.64,1.33,19.7,2.53,39.41,2.57,59.17,0,1.92-.96,3.3-2.28,4.1-.24,8.55-1.1,17.07-1.81,25.6-.9,10.79-.85,21.48-.46,32.3,.39,11.1,.84,22.23,1.68,33.31,.37,4.92,.96,9.82,1.47,14.73,10.53-.61,21.05-1.25,31.61-1.29,1.6,0,2.8,.58,3.61,1.46,3.3-.11,6.58-.24,9.81-.28,20.82-.31,41.64-.63,62.46-.94,42.44-.64,84.88-1.28,127.32-1.92,76.68-1.15,153.36-2.31,230.04-3.46v.89c3.58-.76,7.42-.75,10.93-.78,3.83-.04,7.56-.36,11.26-.87,1.15-2.09,2.39-4.14,3.36-6.32,.16-.37,.39-.69,.65-.97-.69-5.26-1.69-10.53-1.78-15.67Zm-19.73-210.99c-2.5,39.1-4.98,77.93-4.93,117.14,.04,31.12,.12,62.24,.19,93.35-73.46,1.11-146.92,2.21-220.38,3.32-40.04,.6-80.08,1.21-120.12,1.81-20.02,.3-40.04,.6-60.06,.9l-28.83,.43c-5.57,.08-11.59,.66-17.33,.12,1.28-74.02-.29-148.05-.46-222.07-.09-39.1,.25-78.22,1.67-117.3,1.29-35.3,5.39-70.93,3.3-106.27,2.33,.31,4.65,.6,6.98,.89,1.32,4.43,5.01,7.92,11.1,7.56,14.35-.85,28.71-1.63,43.07-2.37,128.71,8.6,258.02-7.11,387.07-5.94,3.88,76.1,3.56,152.38-1.29,228.43Z"/>
      <line class="uuid-5ed75359-80de-468c-8576-73748192c6a2" x1="488.62" y1="468.35" x2="7.63" y2="468.35"/>
      <line class="uuid-5ed75359-80de-468c-8576-73748192c6a2" x1="488.62" y1="1" x2="7.63" y2="1"/>
      <line class="uuid-5ed75359-80de-468c-8576-73748192c6a2" x1="488.62" y1="29.43" x2="7.63" y2="29.43"/>
      <line class="uuid-5ed75359-80de-468c-8576-73748192c6a2" x1="23.56" y1="1" x2="23.56" y2="482"/>
      <line class="uuid-5ed75359-80de-468c-8576-73748192c6a2" x1="1" y1="14.97" x2="1" y2="495.97"/>
      <line class="uuid-5ed75359-80de-468c-8576-73748192c6a2" x1="495.97" y1="482" x2="495.97" y2="1"/>
      <line class="uuid-5ed75359-80de-468c-8576-73748192c6a2" x1="474.3" y1="488.98" x2="474.3" y2="7.98"/>
      <line class="uuid-5ed75359-80de-468c-8576-73748192c6a2" x1="495.97" y1="495.97" x2="21.59" y2="495.97"/>
    </g>
  </g>
  <g id="uuid-2db33166-e5b6-43f0-b64a-d95ada88fbde" data-name="dessin">
    <g>
      <path class="uuid-f9520cc4-1e23-478d-aa68-78705ab5dfb0" d="M150.78,100.72c-.16,1.45,2.02,3.3,4.51,3.52,19.35,1.76,38.84,2.76,58.39,3.16,35.15,.72,36.54-.29,71.65-1.1,35.18-.81,36.59-1.62,71.77-2.43,3.56-.08,5.5-1.61,5.85-3.25,1.41-.68,2.38-1.67,2.2-2.76-1.74-10.71-1.89-21.47-.63-32.19,6.59,.93,9.14-5.55,2.27-7.22-.65-.16-1.3-.28-1.96-.42-1.01-1.25-3.42-2.15-5.66-2.15-1.52,0-2.79,.32-3.78,.83-14.46-1.13,3.86,1.14-10.41,1.58-36.39,1.11-72.66-1.82-109.02-2.02-36.18-.19-38.52,2.86-74.69,1.12-3.48-.17-5.93,1.81-6.14,3.65-1.46,13.23-2.91,26.45-4.37,39.68Z"/>
      <g>
        <path class="uuid-f5b12581-5639-4e5d-8bda-f45e22bc4f07" d="M167.23,88.21c2.16,0,4.16-1.07,5.12-2.43v4.95c-1.2,.83-2.9,1.47-5.12,1.47-5.32,0-8.83-3.42-8.83-8.33s3.51-8.33,8.83-8.33c2.22,0,3.92,.64,5.12,1.47v4.95c-.96-1.36-2.96-2.43-5.12-2.43-2.35,0-4.31,1.53-4.31,4.34s1.96,4.34,4.31,4.34Z"/>
        <path class="uuid-f5b12581-5639-4e5d-8bda-f45e22bc4f07" d="M183.13,75.54c4.88,0,8.83,2.98,8.83,8.33s-3.84,8.33-8.83,8.33-8.83-2.98-8.83-8.33,4.05-8.33,8.83-8.33Zm0,12.75c2.35,0,4.18-1.73,4.18-4.43s-1.72-4.43-4.18-4.43-4.18,1.73-4.18,4.43,1.83,4.43,4.18,4.43Z"/>
        <path class="uuid-f5b12581-5639-4e5d-8bda-f45e22bc4f07" d="M208.4,76.2v16.1l-10.35-8.35v7.58h-4.14v-16.1l10.35,8.35v-7.58h4.14Z"/>
        <path class="uuid-f5b12581-5639-4e5d-8bda-f45e22bc4f07" d="M209.92,76.2h12.2v3.83h-3.92v11.5h-4.36v-11.5h-3.92v-3.83Z"/>
        <path class="uuid-f5b12581-5639-4e5d-8bda-f45e22bc4f07" d="M227.79,87.92h6.86v3.62h-11v-15.34h11v3.62h-6.86v2.19h6.43v3.29h-6.43v2.63Z"/>
        <path class="uuid-f5b12581-5639-4e5d-8bda-f45e22bc4f07" d="M245.98,90.11l-4.14-5.17-1.2,6.6h-4.25l2.83-16.54,6.75,9.16,6.75-9.16,2.83,16.54h-4.25l-1.2-6.6-4.14,5.17Z"/>
        <path class="uuid-f5b12581-5639-4e5d-8bda-f45e22bc4f07" d="M263.51,76.2c4.47,0,6.38,1.88,6.38,5.15s-1.92,5.15-6.38,5.15h-2.07v5.04h-3.92v-15.34h5.99Zm-2.07,6.68h2.07c1.5,0,2.24-.31,2.24-1.53s-.74-1.53-2.24-1.53h-2.07v3.07Z"/>
        <path class="uuid-f5b12581-5639-4e5d-8bda-f45e22bc4f07" d="M275.67,76.2v11.72h5.99v3.62h-10.13v-15.34h4.14Z"/>
        <path class="uuid-f5b12581-5639-4e5d-8bda-f45e22bc4f07" d="M299.85,91.54h-4.58l-1.05-2.19h-5.97l-1.05,2.19h-4.58l8.61-16.43,8.61,16.43Zm-10-5.48h2.79l-1.39-2.89-1.39,2.89Z"/>
        <path class="uuid-f5b12581-5639-4e5d-8bda-f45e22bc4f07" d="M298.21,76.2h12.2v3.83h-3.92v11.5h-4.36v-11.5h-3.92v-3.83Z"/>
        <path class="uuid-f5b12581-5639-4e5d-8bda-f45e22bc4f07" d="M316.4,76.2v15.34h-4.47v-15.34h4.47Z"/>
        <path class="uuid-f5b12581-5639-4e5d-8bda-f45e22bc4f07" d="M327.18,75.54c4.88,0,8.82,2.98,8.82,8.33s-3.83,8.33-8.82,8.33-8.83-2.98-8.83-8.33,4.05-8.33,8.83-8.33Zm0,12.75c2.35,0,4.18-1.73,4.18-4.43s-1.72-4.43-4.18-4.43-4.18,1.73-4.18,4.43,1.83,4.43,4.18,4.43Z"/>
        <path class="uuid-f5b12581-5639-4e5d-8bda-f45e22bc4f07" d="M352.45,76.2v16.1l-10.35-8.35v7.58h-4.14v-16.1l10.35,8.35v-7.58h4.14Z"/>
      </g>
      <line class="uuid-5ed75359-80de-468c-8576-73748192c6a2" x1="362.78" y1="57.54" x2="154.23" y2="57.54"/>
      <line class="uuid-5ed75359-80de-468c-8576-73748192c6a2" x1="359.91" y1="105.77" x2="161.73" y2="105.77"/>
      <line class="uuid-5ed75359-80de-468c-8576-73748192c6a2" x1="152.14" y1="60.05" x2="152.14" y2="108.28"/>
      <line class="uuid-5ed75359-80de-468c-8576-73748192c6a2" x1="361.56" y1="50.01" x2="361.56" y2="98.24"/>
      <g>
        <line class="uuid-95d4ec4d-9059-4458-88bc-1717e8acdbe3" x1="197.31" y1="27.4" x2="197.31" y2="27.4"/>
        <line class="uuid-b2e5601c-df5b-40aa-b357-6405a0636cb2" x1="197.31" y1="29.41" x2="197.31" y2="52.52"/>
        <line class="uuid-95d4ec4d-9059-4458-88bc-1717e8acdbe3" x1="197.31" y1="53.52" x2="197.31" y2="53.52"/>
      </g>
      <g>
        <line class="uuid-95d4ec4d-9059-4458-88bc-1717e8acdbe3" x1="326.27" y1="27.4" x2="326.27" y2="27.4"/>
        <line class="uuid-b2e5601c-df5b-40aa-b357-6405a0636cb2" x1="326.27" y1="29.41" x2="326.27" y2="46.49"/>
        <line class="uuid-95d4ec4d-9059-4458-88bc-1717e8acdbe3" x1="326.27" y1="47.49" x2="326.27" y2="47.49"/>
      </g>
    </g>
  </g>
</svg>