<?xml version="1.0" encoding="UTF-8"?>
<svg xmlns="http://www.w3.org/2000/svg" width="500" height="500" xmlns:xlink="http://www.w3.org/1999/xlink" viewBox="0 0 500 500">
  <defs>
    <style>
      .uuid-9efbb99b-27e9-4910-8a0c-765395d45cbc, .uuid-657cb77f-7c5f-42af-b109-a2ce4065717a, .uuid-d9e4f121-2a11-4cb4-ac5d-817dea7791c3 {
        fill: none;
      }

      .uuid-2358b4f5-2be2-4fa8-8107-40da7992bcdf {
        fill: url(#uuid-b1b215cf-41e1-4fe4-83c6-4bd8cf0b0577);
        opacity: .25;
      }

      .uuid-58a9dc71-d816-4b61-a24b-246ed017b350 {
        fill: #e6e6e6;
      }

      .uuid-e8400f1d-6112-4fa2-aba8-1ff490b22d2e {
        fill: #f78248;
      }

      .uuid-79e80efe-4a8f-4bd4-9f86-aa6414cd4824 {
        fill: #fff;
      }

      .uuid-f65ed41b-2276-4c22-a553-645cd0290334 {
        fill: #fbda6e;
      }

      .uuid-b88b91c5-b135-4cb6-b796-b2b4f1f87a7a {
        fill: #fbb099;
      }

      .uuid-72d1740e-b6a5-46e4-8179-a61a2b84be2d {
        fill: #faf7f5;
      }

      .uuid-e7a9a320-9d76-4c3e-b723-a45cf3bea8c7 {
        fill: #c2c0c6;
      }

      .uuid-f4eb060e-c645-49f2-bae2-486fd96b3885, .uuid-655553aa-5505-4e1b-9f12-c06fd2714314 {
        fill: #c40000;
      }

      .uuid-c7c4cccf-71d3-4821-b15c-f6ecfb24cb86 {
        fill: #736357;
      }

      .uuid-b9fd3c5b-3e25-4fb2-8407-b6bc5a5493cc {
        fill: #c9514a;
      }

      .uuid-cd57529a-b4a8-4e4f-af71-9d8fed2c610d {
        fill: #413f4b;
      }

      .uuid-23144c6b-1184-4066-8178-f1007320591f {
        fill: #1d1d1b;
      }

      .uuid-fc6eef0a-1420-4558-a9e1-007f746f6b81 {
        fill: #442f34;
      }

      .uuid-e79a6f24-f80c-4265-a97d-41ac66d0bf39 {
        fill: #457989;
      }

      .uuid-b196b804-111f-494d-8219-48e746d47212 {
        fill: #29abe2;
      }

      .uuid-4d7f6f90-faa1-40d5-baa6-a4bceb5edc92 {
        fill: #262631;
      }

      .uuid-8d5443eb-8519-43c4-a64e-9264ce047e58 {
        fill: #4fbbd1;
      }

      .uuid-87483f3e-c84c-42a5-a2e8-10290bbe15f9 {
        mix-blend-mode: color-burn;
      }

      .uuid-87483f3e-c84c-42a5-a2e8-10290bbe15f9, .uuid-a0e6f1b1-acc2-4bbd-8825-36c97644a05b {
        opacity: .19;
      }

      .uuid-655553aa-5505-4e1b-9f12-c06fd2714314 {
        mix-blend-mode: multiply;
        opacity: .2;
      }

      .uuid-657cb77f-7c5f-42af-b109-a2ce4065717a {
        stroke-width: .75px;
      }

      .uuid-657cb77f-7c5f-42af-b109-a2ce4065717a, .uuid-d9e4f121-2a11-4cb4-ac5d-817dea7791c3 {
        stroke: #262631;
        stroke-miterlimit: 10;
      }

      .uuid-6ddfbafa-cd5d-463c-83c0-adf66abb97fd {
        isolation: isolate;
      }

      .uuid-d9e4f121-2a11-4cb4-ac5d-817dea7791c3 {
        stroke-width: .94px;
      }
    </style>
    <pattern id="uuid-b1b215cf-41e1-4fe4-83c6-4bd8cf0b0577" data-name="Lac asséché sableux USGS 17" x="0" y="0" width="72" height="72" patternTransform="translate(9774.96 7736.8) scale(2.42)" patternUnits="userSpaceOnUse" viewBox="0 0 72 72">
      <g>
        <rect class="uuid-9efbb99b-27e9-4910-8a0c-765395d45cbc" width="72" height="72"/>
        <path class="uuid-23144c6b-1184-4066-8178-f1007320591f" d="M21,3c-.06,0-.12-.02-.17-.07-.05-.05-.08-.11-.08-.18s.03-.13,.08-.18c.09-.09,.25-.09,.35,0,.05,.05,.07,.11,.07,.18,0,.06-.02,.12-.07,.17-.05,.06-.11,.08-.18,.08Z"/>
        <path class="uuid-23144c6b-1184-4066-8178-f1007320591f" d="M20,8.25c-.06,0-.13-.03-.18-.07-.04-.05-.07-.11-.07-.18s.03-.13,.07-.18c.1-.09,.26-.09,.36,0,.04,.05,.07,.11,.07,.18s-.03,.13-.07,.18c-.05,.05-.11,.07-.18,.07Z"/>
        <path class="uuid-23144c6b-1184-4066-8178-f1007320591f" d="M20.25,10.5c-.06,0-.13-.03-.17-.07-.05-.05-.08-.11-.08-.18s.03-.13,.07-.18c.1-.09,.27-.09,.36,0,.04,.05,.07,.11,.07,.18s-.03,.14-.08,.18c-.04,.04-.1,.07-.17,.07Z"/>
        <path class="uuid-23144c6b-1184-4066-8178-f1007320591f" d="M18,12.75c-.06,0-.12-.03-.17-.07-.05-.05-.08-.11-.08-.18s.03-.13,.07-.18c.11-.09,.26-.09,.36,0,.05,.05,.07,.11,.07,.18s-.02,.13-.07,.18c-.05,.04-.11,.07-.18,.07Z"/>
        <path class="uuid-23144c6b-1184-4066-8178-f1007320591f" d="M15.25,10.5c-.06,0-.12-.02-.17-.07-.05-.05-.08-.12-.08-.18,0-.07,.03-.13,.07-.18,.12-.1,.26-.09,.36,0,.05,.05,.07,.11,.07,.18,0,.06-.02,.13-.07,.17-.05,.06-.11,.08-.18,.08Z"/>
        <path class="uuid-23144c6b-1184-4066-8178-f1007320591f" d="M22.75,20c-.06,0-.12-.02-.17-.07-.05-.05-.08-.11-.08-.18,0-.06,.03-.13,.07-.17,.11-.11,.27-.1,.36,0,.05,.06,.07,.12,.07,.18s-.02,.13-.07,.18c-.05,.04-.11,.07-.18,.07Z"/>
        <path class="uuid-23144c6b-1184-4066-8178-f1007320591f" d="M15.25,23c-.06,0-.12-.02-.17-.07-.05-.05-.08-.11-.08-.18,0-.06,.03-.12,.07-.17,.12-.11,.26-.1,.36,0,.05,.05,.07,.12,.07,.18,0,.07-.02,.13-.07,.18-.05,.05-.11,.07-.18,.07Z"/>
        <path class="uuid-23144c6b-1184-4066-8178-f1007320591f" d="M14,24c-.07,0-.13-.03-.18-.08-.04-.04-.07-.1-.07-.17s.03-.13,.07-.18c.11-.1,.26-.09,.36,0,.05,.05,.07,.12,.07,.18,0,.07-.02,.13-.07,.18-.05,.04-.11,.07-.18,.07Z"/>
        <path class="uuid-23144c6b-1184-4066-8178-f1007320591f" d="M24,27c-.06,0-.12-.02-.17-.07-.05-.05-.08-.11-.08-.18s.03-.13,.07-.17c.11-.11,.26-.1,.36,0,.05,.06,.07,.12,.07,.18,0,.07-.02,.13-.07,.18-.05,.05-.11,.07-.18,.07Z"/>
        <path class="uuid-23144c6b-1184-4066-8178-f1007320591f" d="M30.75,25.75c-.06,0-.12-.02-.17-.07-.05-.05-.08-.11-.08-.18s.03-.13,.08-.18c.1-.09,.25-.09,.35,0,.05,.05,.07,.12,.07,.18s-.02,.13-.07,.18c-.05,.05-.11,.07-.18,.07Z"/>
        <path class="uuid-23144c6b-1184-4066-8178-f1007320591f" d="M31.25,23.25c-.06,0-.12-.03-.17-.07-.05-.05-.08-.11-.08-.18,0-.06,.03-.13,.07-.17,.11-.11,.26-.1,.36,0,.05,.06,.07,.12,.07,.18,0,.07-.02,.13-.07,.18-.05,.04-.11,.07-.18,.07Z"/>
        <path class="uuid-23144c6b-1184-4066-8178-f1007320591f" d="M29.25,18.25c-.06,0-.12-.02-.17-.07-.05-.05-.08-.11-.08-.18s.03-.13,.08-.18c.1-.09,.25-.09,.35,0,.05,.05,.07,.11,.07,.18s-.03,.13-.07,.18c-.05,.05-.12,.07-.18,.07Z"/>
        <path class="uuid-23144c6b-1184-4066-8178-f1007320591f" d="M32.25,18.25c-.06,0-.12-.02-.17-.07-.05-.05-.08-.11-.08-.18s.03-.13,.07-.18c.11-.09,.26-.09,.36,0,.04,.05,.07,.11,.07,.18s-.03,.13-.07,.18c-.05,.05-.11,.07-.18,.07Z"/>
        <path class="uuid-23144c6b-1184-4066-8178-f1007320591f" d="M32.5,13.75c-.06,0-.13-.03-.17-.07-.05-.05-.08-.11-.08-.18s.03-.13,.08-.18c.09-.09,.26-.09,.35,0,.05,.05,.07,.12,.07,.18s-.02,.12-.07,.17c-.05,.05-.11,.08-.18,.08Z"/>
        <path class="uuid-23144c6b-1184-4066-8178-f1007320591f" d="M31.75,11.75c-.06,0-.12-.02-.17-.07-.05-.05-.08-.11-.08-.18s.03-.13,.08-.18c.1-.09,.25-.09,.35,0,.05,.05,.07,.11,.07,.18s-.03,.13-.07,.18c-.05,.05-.11,.07-.18,.07Z"/>
        <path class="uuid-23144c6b-1184-4066-8178-f1007320591f" d="M29.25,10.75c-.07,0-.13-.03-.18-.07-.04-.05-.07-.11-.07-.18s.03-.13,.08-.18c.1-.09,.25-.09,.35,0,.05,.05,.07,.11,.07,.18s-.02,.13-.07,.18c-.05,.04-.11,.07-.18,.07Z"/>
        <path class="uuid-23144c6b-1184-4066-8178-f1007320591f" d="M32.25,7c-.06,0-.12-.02-.17-.07-.05-.05-.08-.11-.08-.18s.03-.13,.07-.18c.11-.09,.26-.09,.36,0,.05,.05,.07,.11,.07,.18s-.03,.13-.07,.18c-.05,.05-.11,.07-.18,.07Z"/>
        <path class="uuid-23144c6b-1184-4066-8178-f1007320591f" d="M32,3c-.06,0-.12-.03-.17-.07-.05-.05-.08-.11-.08-.18s.03-.13,.08-.18c.1-.09,.25-.09,.35,0,.05,.05,.07,.12,.07,.18s-.02,.13-.07,.18c-.05,.04-.11,.07-.18,.07Z"/>
        <path class="uuid-23144c6b-1184-4066-8178-f1007320591f" d="M29.25,3.25c-.06,0-.12-.02-.17-.07-.05-.05-.08-.11-.08-.18s.03-.13,.08-.18c.09-.09,.25-.09,.35,0,.05,.05,.07,.11,.07,.18,0,.06-.02,.13-.07,.17-.05,.06-.11,.08-.18,.08Z"/>
        <path class="uuid-23144c6b-1184-4066-8178-f1007320591f" d="M34,1.25c-.06,0-.13-.03-.17-.07-.05-.05-.08-.11-.08-.18s.03-.14,.08-.18c.09-.09,.26-.09,.35,0,.05,.05,.07,.11,.07,.18,0,.06-.02,.12-.07,.17-.05,.05-.11,.08-.18,.08Z"/>
        <path class="uuid-23144c6b-1184-4066-8178-f1007320591f" d="M41.5,7c-.06,0-.13-.03-.17-.07-.05-.05-.08-.11-.08-.18s.03-.13,.08-.18c.09-.09,.24-.09,.34,0,.06,.06,.08,.12,.08,.18s-.02,.12-.07,.17c-.05,.06-.11,.08-.18,.08Z"/>
        <path class="uuid-23144c6b-1184-4066-8178-f1007320591f" d="M45.5,6.75c-.06,0-.12-.02-.17-.07-.05-.05-.08-.11-.08-.18s.03-.13,.08-.18c.09-.09,.25-.09,.35,0,.05,.05,.07,.12,.07,.18s-.02,.13-.07,.18c-.05,.05-.12,.07-.18,.07Z"/>
        <path class="uuid-23144c6b-1184-4066-8178-f1007320591f" d="M40.25,10.25c-.06,0-.12-.02-.17-.07-.05-.05-.08-.12-.08-.18,0-.07,.03-.13,.07-.18,.11-.09,.26-.09,.36,0,.05,.05,.07,.11,.07,.18,0,.06-.02,.13-.07,.17-.05,.06-.11,.08-.18,.08Z"/>
        <path class="uuid-23144c6b-1184-4066-8178-f1007320591f" d="M45,11.75c-.06,0-.12-.02-.17-.07-.05-.05-.08-.11-.08-.18s.03-.13,.08-.18c.1-.09,.25-.09,.35,0,.04,.05,.07,.11,.07,.18s-.02,.13-.07,.18c-.05,.05-.11,.07-.18,.07Z"/>
        <path class="uuid-23144c6b-1184-4066-8178-f1007320591f" d="M45,13.5c-.06,0-.12-.02-.17-.07-.05-.05-.08-.11-.08-.18s.03-.13,.08-.18c.08-.09,.26-.09,.35,0,.05,.04,.07,.1,.07,.17s-.02,.13-.07,.18c-.05,.05-.11,.07-.18,.07Z"/>
        <path class="uuid-23144c6b-1184-4066-8178-f1007320591f" d="M47,14.25c-.06,0-.12-.02-.17-.07-.05-.05-.08-.11-.08-.18s.03-.13,.08-.18c.09-.09,.25-.09,.35,0,.05,.05,.07,.12,.07,.18s-.02,.13-.07,.18c-.05,.05-.11,.07-.18,.07Z"/>
        <path class="uuid-23144c6b-1184-4066-8178-f1007320591f" d="M47,16.25c-.06,0-.13-.03-.17-.07-.05-.05-.08-.11-.08-.18s.03-.13,.08-.18c.08-.08,.26-.09,.35,0,.05,.04,.07,.11,.07,.17s-.02,.13-.07,.18c-.05,.04-.11,.07-.18,.07Z"/>
        <path class="uuid-23144c6b-1184-4066-8178-f1007320591f" d="M47.25,22.75c-.06,0-.13-.03-.17-.07-.05-.04-.08-.11-.08-.18s.03-.13,.08-.18c.08-.08,.25-.09,.35,0,.05,.05,.07,.11,.07,.18s-.03,.13-.07,.18c-.05,.05-.11,.07-.18,.07Z"/>
        <path class="uuid-23144c6b-1184-4066-8178-f1007320591f" d="M39,20.75c-.06,0-.12-.02-.17-.07-.05-.05-.08-.11-.08-.18s.03-.13,.08-.18c.1-.09,.25-.09,.35,0,.04,.05,.07,.11,.07,.18s-.03,.13-.07,.18c-.05,.05-.11,.07-.18,.07Z"/>
        <path class="uuid-23144c6b-1184-4066-8178-f1007320591f" d="M50.25,13.5c-.06,0-.13-.03-.17-.07-.05-.05-.08-.11-.08-.18s.03-.13,.08-.18c.1-.09,.26-.09,.35,0,.05,.05,.07,.12,.07,.18s-.02,.13-.07,.18c-.05,.04-.11,.07-.18,.07Z"/>
        <path class="uuid-23144c6b-1184-4066-8178-f1007320591f" d="M52.25,12c-.06,0-.12-.02-.17-.07-.05-.05-.08-.11-.08-.18s.03-.13,.08-.18c.09-.09,.25-.09,.35,0,.05,.05,.07,.12,.07,.18s-.02,.13-.07,.18c-.05,.05-.11,.07-.18,.07Z"/>
        <path class="uuid-23144c6b-1184-4066-8178-f1007320591f" d="M54.75,11c-.06,0-.13-.03-.17-.07-.05-.05-.08-.12-.08-.18,0-.07,.03-.13,.08-.18,.09-.09,.25-.09,.35,0,.05,.05,.07,.11,.07,.18,0,.06-.02,.13-.07,.18-.05,.04-.11,.07-.18,.07Z"/>
        <path class="uuid-23144c6b-1184-4066-8178-f1007320591f" d="M54.75,6.75c-.07,0-.13-.03-.17-.07-.05-.06-.08-.12-.08-.18s.03-.12,.07-.17c.1-.1,.26-.1,.36,0,.05,.06,.07,.12,.07,.18s-.02,.12-.07,.17c-.05,.05-.11,.08-.18,.08Z"/>
        <path class="uuid-23144c6b-1184-4066-8178-f1007320591f" d="M56.5,.75c-.06,0-.13-.03-.17-.07-.05-.05-.08-.12-.08-.18s.03-.13,.07-.18c.1-.09,.26-.09,.36,0,.05,.06,.07,.12,.07,.18s-.02,.12-.07,.17c-.05,.05-.11,.08-.18,.08Z"/>
        <path class="uuid-23144c6b-1184-4066-8178-f1007320591f" d="M64,6.5c-.06,0-.13-.03-.17-.07-.05-.05-.08-.12-.08-.18s.03-.13,.07-.17c.1-.1,.26-.1,.36,0,.05,.06,.07,.12,.07,.18s-.02,.12-.07,.17c-.05,.05-.11,.08-.18,.08Z"/>
        <path class="uuid-23144c6b-1184-4066-8178-f1007320591f" d="M65,2.5c-.06,0-.13-.03-.17-.07-.05-.05-.08-.11-.08-.18s.03-.13,.08-.18c.09-.09,.25-.09,.35,0,.05,.05,.07,.11,.07,.18s-.02,.13-.07,.17c-.05,.06-.11,.08-.18,.08Z"/>
        <path class="uuid-23144c6b-1184-4066-8178-f1007320591f" d="M68,3c-.06,0-.13-.03-.17-.07-.05-.05-.08-.11-.08-.18s.03-.13,.07-.18c.1-.09,.27-.09,.36,0,.05,.05,.07,.12,.07,.18s-.02,.13-.07,.18c-.05,.04-.11,.07-.18,.07Z"/>
        <path class="uuid-23144c6b-1184-4066-8178-f1007320591f" d="M68,10.25c-.06,0-.13-.03-.17-.07-.05-.05-.08-.11-.08-.18s.03-.13,.07-.18c.1-.09,.26-.09,.36,0,.05,.05,.07,.12,.07,.18s-.02,.13-.07,.18c-.05,.04-.11,.07-.18,.07Z"/>
        <path class="uuid-23144c6b-1184-4066-8178-f1007320591f" d="M64.25,12.25c-.06,0-.13-.03-.17-.07-.05-.05-.08-.12-.08-.18s.03-.13,.07-.17c.09-.1,.25-.1,.35,0,.06,.05,.08,.12,.08,.18s-.02,.13-.07,.17c-.05,.06-.11,.08-.18,.08Z"/>
        <path class="uuid-23144c6b-1184-4066-8178-f1007320591f" d="M65.25,15.75c-.07,0-.13-.03-.17-.07-.05-.05-.08-.11-.08-.18s.03-.13,.08-.18c.07-.08,.26-.09,.35,0,.05,.04,.07,.11,.07,.17s-.02,.12-.07,.17c-.04,.05-.11,.08-.18,.08Z"/>
        <path class="uuid-23144c6b-1184-4066-8178-f1007320591f" d="M64,19.75c-.06,0-.13-.03-.17-.07-.05-.05-.08-.11-.08-.18s.03-.13,.08-.18c.08-.09,.25-.09,.35,0,.05,.05,.07,.12,.07,.18s-.02,.13-.07,.18c-.05,.04-.11,.07-.18,.07Z"/>
        <path class="uuid-23144c6b-1184-4066-8178-f1007320591f" d="M66.25,19.75c-.07,0-.13-.03-.18-.08-.04-.04-.07-.1-.07-.17,0-.06,.03-.13,.07-.17,.09-.1,.26-.1,.36,0,.05,.05,.07,.12,.07,.18,0,.07-.02,.13-.07,.18-.05,.04-.11,.07-.18,.07Z"/>
        <path class="uuid-23144c6b-1184-4066-8178-f1007320591f" d="M68,21.25c-.06,0-.13-.03-.17-.07-.05-.05-.08-.12-.08-.18s.03-.12,.07-.17c.1-.1,.27-.1,.36,0,.05,.06,.07,.12,.07,.18s-.02,.12-.07,.17c-.05,.05-.11,.08-.18,.08Z"/>
        <path class="uuid-23144c6b-1184-4066-8178-f1007320591f" d="M69.25,20.25c-.06,0-.12-.02-.17-.07-.05-.05-.08-.11-.08-.18s.03-.13,.08-.18c.09-.09,.25-.09,.35,0,.05,.05,.07,.11,.07,.18s-.02,.13-.07,.18c-.05,.05-.11,.07-.18,.07Z"/>
        <path class="uuid-23144c6b-1184-4066-8178-f1007320591f" d="M69.5,18c-.06,0-.12-.02-.17-.07-.05-.05-.08-.11-.08-.18s.03-.13,.08-.18c.09-.09,.25-.09,.35,0,.05,.05,.07,.11,.07,.18s-.02,.13-.07,.18c-.05,.05-.11,.07-.18,.07Z"/>
        <path class="uuid-23144c6b-1184-4066-8178-f1007320591f" d="M71.25,17.5c-.06,0-.13-.03-.17-.07-.05-.05-.08-.12-.08-.18s.03-.12,.07-.17c.11-.1,.26-.1,.36,0,.05,.06,.07,.12,.07,.18s-.02,.12-.07,.17c-.05,.05-.11,.08-.18,.08Z"/>
        <path class="uuid-23144c6b-1184-4066-8178-f1007320591f" d="M8,47c-.06,0-.13-.03-.18-.07-.04-.06-.07-.12-.07-.18,0-.07,.03-.13,.07-.18,.09-.09,.26-.09,.36,0,.05,.05,.07,.11,.07,.18,0,.06-.02,.13-.07,.17-.05,.06-.11,.08-.18,.08Z"/>
        <path class="uuid-23144c6b-1184-4066-8178-f1007320591f" d="M7,52.25c-.06,0-.12-.02-.17-.07-.05-.05-.08-.11-.08-.18s.03-.13,.07-.18c.11-.09,.26-.09,.36,0,.05,.05,.07,.12,.07,.18,0,.07-.02,.13-.07,.18-.05,.05-.11,.07-.18,.07Z"/>
        <path class="uuid-23144c6b-1184-4066-8178-f1007320591f" d="M7.25,54.5c-.06,0-.13-.03-.17-.07-.05-.05-.08-.11-.08-.18,0-.06,.03-.13,.07-.18,.1-.09,.26-.09,.36,0,.04,.05,.07,.11,.07,.18s-.03,.13-.07,.18c-.05,.04-.11,.07-.18,.07Z"/>
        <path class="uuid-23144c6b-1184-4066-8178-f1007320591f" d="M5,56.75c-.06,0-.13-.03-.17-.07-.05-.05-.08-.11-.08-.18s.03-.13,.07-.17c.1-.1,.26-.1,.36,0,.05,.05,.07,.11,.07,.18s-.03,.13-.07,.18c-.05,.05-.12,.07-.18,.07Z"/>
        <path class="uuid-23144c6b-1184-4066-8178-f1007320591f" d="M2.25,54.5c-.06,0-.12-.02-.17-.07-.05-.05-.08-.11-.08-.18,0-.06,.03-.13,.07-.17,.11-.11,.26-.1,.35,0,.06,.06,.08,.12,.08,.18s-.02,.13-.07,.18c-.06,.05-.12,.07-.18,.07Z"/>
        <path class="uuid-23144c6b-1184-4066-8178-f1007320591f" d="M9.75,64c-.06,0-.12-.02-.17-.07-.05-.05-.08-.11-.08-.18s.03-.13,.07-.18c.11-.09,.26-.09,.36,0,.05,.05,.07,.11,.07,.18s-.02,.13-.07,.18-.11,.07-.18,.07Z"/>
        <path class="uuid-23144c6b-1184-4066-8178-f1007320591f" d="M2.25,67c-.06,0-.12-.03-.17-.07-.05-.05-.08-.11-.08-.18s.03-.13,.07-.18c.1-.09,.26-.09,.36,0,.05,.05,.07,.11,.07,.18,0,.06-.02,.13-.07,.18-.06,.05-.12,.07-.18,.07Z"/>
        <path class="uuid-23144c6b-1184-4066-8178-f1007320591f" d="M1,68c-.06,0-.13-.03-.18-.07-.04-.05-.07-.11-.07-.18,0-.06,.03-.13,.07-.18,.1-.09,.27-.09,.36,0,.05,.05,.07,.12,.07,.18s-.02,.13-.07,.18c-.05,.04-.11,.07-.18,.07Z"/>
        <path class="uuid-23144c6b-1184-4066-8178-f1007320591f" d="M11,71c-.06,0-.12-.02-.17-.07-.05-.05-.08-.11-.08-.18s.03-.13,.07-.18c.11-.09,.26-.09,.36,0,.05,.05,.07,.12,.07,.18s-.02,.13-.07,.18c-.05,.05-.12,.07-.18,.07Z"/>
        <path class="uuid-23144c6b-1184-4066-8178-f1007320591f" d="M17.75,69.75c-.06,0-.12-.02-.17-.07-.05-.05-.08-.11-.08-.18s.03-.13,.07-.18c.11-.09,.26-.09,.36,0,.05,.05,.07,.11,.07,.18s-.03,.13-.07,.18c-.05,.05-.12,.07-.18,.07Z"/>
        <path class="uuid-23144c6b-1184-4066-8178-f1007320591f" d="M18.25,67.25c-.06,0-.12-.03-.17-.07-.05-.06-.08-.12-.08-.18,0-.07,.03-.13,.07-.18,.11-.09,.26-.09,.36,0,.05,.05,.07,.11,.07,.18,0,.06-.02,.13-.07,.17-.05,.05-.11,.08-.18,.08Z"/>
        <path class="uuid-23144c6b-1184-4066-8178-f1007320591f" d="M16.25,62.25c-.07,0-.13-.03-.18-.08-.04-.04-.07-.1-.07-.17s.03-.13,.07-.18c.1-.09,.26-.09,.36,0,.05,.05,.07,.11,.07,.18s-.02,.13-.07,.18c-.05,.04-.11,.07-.18,.07Z"/>
        <path class="uuid-23144c6b-1184-4066-8178-f1007320591f" d="M19.25,62.25c-.06,0-.13-.03-.17-.07-.05-.05-.08-.11-.08-.18s.03-.13,.07-.18c.1-.09,.27-.09,.36,0,.04,.04,.07,.11,.07,.18s-.03,.14-.08,.18c-.04,.04-.1,.07-.17,.07Z"/>
        <path class="uuid-23144c6b-1184-4066-8178-f1007320591f" d="M19.5,57.75c-.06,0-.12-.02-.17-.07-.05-.05-.08-.11-.08-.18,0-.06,.03-.13,.07-.17,.11-.11,.26-.1,.36,0,.05,.06,.07,.12,.07,.18s-.02,.13-.07,.18c-.05,.05-.11,.07-.18,.07Z"/>
        <path class="uuid-23144c6b-1184-4066-8178-f1007320591f" d="M18.75,55.75c-.06,0-.12-.02-.17-.07-.05-.05-.08-.11-.08-.18s.03-.13,.08-.18c.1-.09,.26-.09,.35,0,.05,.05,.07,.12,.07,.18s-.02,.12-.07,.17c-.05,.05-.11,.08-.18,.08Z"/>
        <path class="uuid-23144c6b-1184-4066-8178-f1007320591f" d="M16.25,54.75c-.06,0-.13-.03-.18-.07-.04-.05-.07-.11-.07-.18,0-.06,.03-.12,.07-.17,.1-.1,.26-.1,.36,0,.05,.05,.07,.12,.07,.18,0,.07-.02,.13-.07,.18-.05,.05-.11,.07-.18,.07Z"/>
        <path class="uuid-23144c6b-1184-4066-8178-f1007320591f" d="M19.25,51c-.06,0-.13-.03-.17-.07-.05-.05-.08-.12-.08-.18,0-.07,.03-.13,.07-.18,.1-.09,.27-.09,.36,0,.04,.04,.07,.11,.07,.18s-.02,.13-.07,.18c-.05,.04-.11,.07-.18,.07Z"/>
        <path class="uuid-23144c6b-1184-4066-8178-f1007320591f" d="M19,47c-.06,0-.13-.03-.17-.07-.05-.05-.08-.12-.08-.18,0-.07,.03-.13,.07-.18,.1-.09,.26-.09,.36,0,.04,.05,.07,.11,.07,.18,0,.06-.02,.13-.07,.17-.05,.06-.11,.08-.18,.08Z"/>
        <path class="uuid-23144c6b-1184-4066-8178-f1007320591f" d="M16.25,47.25c-.07,0-.13-.03-.18-.07-.04-.05-.07-.12-.07-.18,0-.07,.03-.13,.07-.18,.09-.09,.26-.09,.36,0,.05,.05,.07,.11,.07,.18,0,.06-.02,.13-.07,.18-.05,.05-.11,.07-.18,.07Z"/>
        <path class="uuid-23144c6b-1184-4066-8178-f1007320591f" d="M21,45.25c-.06,0-.12-.02-.17-.07-.05-.05-.08-.11-.08-.18s.03-.13,.08-.18c.1-.09,.25-.09,.35,0,.05,.05,.07,.12,.07,.18s-.02,.12-.07,.17c-.05,.06-.11,.08-.18,.08Z"/>
        <path class="uuid-23144c6b-1184-4066-8178-f1007320591f" d="M28.5,51c-.06,0-.13-.03-.17-.07-.05-.05-.08-.11-.08-.18s.03-.13,.08-.18c.09-.09,.26-.09,.35,0,.05,.06,.07,.12,.07,.18s-.02,.13-.07,.18c-.05,.04-.11,.07-.18,.07Z"/>
        <path class="uuid-23144c6b-1184-4066-8178-f1007320591f" d="M32.5,50.75c-.06,0-.13-.03-.17-.07-.05-.05-.08-.11-.08-.18s.03-.13,.08-.18c.09-.09,.25-.09,.35,0,.05,.05,.07,.12,.07,.18s-.02,.13-.07,.18c-.05,.04-.11,.07-.18,.07Z"/>
        <path class="uuid-23144c6b-1184-4066-8178-f1007320591f" d="M27.25,54.25c-.07,0-.13-.03-.18-.08-.04-.04-.07-.1-.07-.17s.03-.14,.08-.18c.09-.09,.26-.09,.35,0,.05,.05,.07,.11,.07,.18,0,.06-.02,.13-.07,.18-.04,.04-.11,.07-.18,.07Z"/>
        <path class="uuid-23144c6b-1184-4066-8178-f1007320591f" d="M32,55.75c-.06,0-.12-.03-.17-.07-.05-.05-.08-.11-.08-.18,0-.06,.03-.13,.07-.17,.11-.11,.26-.1,.36,0,.05,.06,.07,.12,.07,.18,0,.07-.02,.13-.07,.18-.05,.04-.11,.07-.18,.07Z"/>
        <path class="uuid-23144c6b-1184-4066-8178-f1007320591f" d="M32,57.5c-.06,0-.12-.02-.17-.07-.05-.05-.08-.11-.08-.18,0-.06,.03-.13,.07-.17,.11-.11,.26-.1,.36,0,.05,.06,.07,.12,.07,.18s-.02,.13-.07,.18c-.05,.05-.11,.07-.18,.07Z"/>
        <path class="uuid-23144c6b-1184-4066-8178-f1007320591f" d="M34,58.25c-.07,0-.13-.03-.18-.08-.04-.04-.07-.1-.07-.17s.03-.14,.08-.18c.09-.09,.26-.09,.35,0,.05,.05,.07,.11,.07,.18,0,.06-.02,.13-.07,.18-.04,.04-.11,.07-.18,.07Z"/>
        <path class="uuid-23144c6b-1184-4066-8178-f1007320591f" d="M34,60.25c-.06,0-.12-.02-.17-.07-.05-.05-.08-.11-.08-.18s.03-.13,.08-.18c.09-.09,.26-.09,.35,0,.05,.06,.07,.12,.07,.18s-.02,.13-.07,.18c-.05,.04-.11,.07-.18,.07Z"/>
        <path class="uuid-23144c6b-1184-4066-8178-f1007320591f" d="M34.25,66.75c-.06,0-.13-.03-.17-.07-.05-.05-.08-.11-.08-.18s.03-.13,.08-.18c.09-.09,.25-.09,.35,0,.05,.05,.07,.12,.07,.18s-.02,.13-.07,.18c-.05,.04-.11,.07-.18,.07Z"/>
        <path class="uuid-23144c6b-1184-4066-8178-f1007320591f" d="M26,64.75c-.06,0-.12-.02-.17-.07-.05-.05-.08-.11-.08-.18s.03-.13,.08-.18c.09-.09,.26-.09,.35,0,.05,.04,.07,.11,.07,.17,0,.07-.02,.13-.07,.18-.05,.05-.11,.07-.18,.07Z"/>
        <path class="uuid-23144c6b-1184-4066-8178-f1007320591f" d="M37.25,57.5c-.06,0-.13-.03-.17-.07-.05-.05-.08-.11-.08-.18s.03-.13,.08-.18c.09-.09,.25-.09,.34,0,.06,.05,.08,.12,.08,.18s-.02,.12-.07,.17c-.05,.06-.11,.08-.18,.08Z"/>
        <path class="uuid-23144c6b-1184-4066-8178-f1007320591f" d="M39.25,56c-.06,0-.13-.03-.17-.07-.05-.05-.08-.11-.08-.18s.03-.13,.08-.18c.09-.09,.25-.09,.35,0,.05,.05,.07,.12,.07,.18s-.02,.12-.07,.17c-.05,.06-.11,.08-.18,.08Z"/>
        <path class="uuid-23144c6b-1184-4066-8178-f1007320591f" d="M41.75,55c-.06,0-.13-.03-.17-.07-.05-.05-.08-.11-.08-.18s.03-.14,.08-.18c.09-.09,.26-.09,.35,0,.05,.05,.07,.11,.07,.18,0,.06-.02,.12-.07,.17-.05,.05-.11,.08-.18,.08Z"/>
        <path class="uuid-23144c6b-1184-4066-8178-f1007320591f" d="M41.75,50.75c-.06,0-.12-.02-.17-.07-.05-.05-.08-.11-.08-.18s.03-.13,.08-.18c.09-.09,.26-.09,.35,0,.05,.05,.07,.11,.07,.18,0,.06-.02,.13-.07,.18-.05,.04-.11,.07-.18,.07Z"/>
        <path class="uuid-23144c6b-1184-4066-8178-f1007320591f" d="M43.5,44.75c-.06,0-.12-.03-.17-.07-.05-.05-.08-.11-.08-.18s.03-.13,.08-.18c.09-.09,.25-.09,.35,0,.05,.05,.07,.12,.07,.18s-.02,.13-.07,.18c-.05,.05-.12,.07-.18,.07Z"/>
        <path class="uuid-23144c6b-1184-4066-8178-f1007320591f" d="M51,50.5c-.06,0-.12-.03-.17-.07-.05-.05-.08-.11-.08-.18s.03-.13,.08-.18c.09-.09,.25-.09,.35,0,.05,.05,.07,.11,.07,.18s-.02,.13-.07,.18c-.05,.05-.11,.07-.18,.07Z"/>
        <path class="uuid-23144c6b-1184-4066-8178-f1007320591f" d="M52,46.5c-.06,0-.13-.03-.17-.07-.05-.05-.08-.11-.08-.18s.03-.13,.08-.18c.09-.09,.25-.09,.35,0,.05,.06,.07,.12,.07,.18s-.02,.12-.07,.17c-.05,.06-.11,.08-.18,.08Z"/>
        <path class="uuid-23144c6b-1184-4066-8178-f1007320591f" d="M55,47c-.06,0-.12-.02-.17-.07-.05-.05-.08-.11-.08-.18s.03-.13,.08-.18c.09-.09,.25-.09,.35,0,.05,.05,.07,.12,.07,.18s-.02,.13-.07,.18c-.05,.05-.11,.07-.18,.07Z"/>
        <path class="uuid-23144c6b-1184-4066-8178-f1007320591f" d="M55,54.25c-.06,0-.12-.03-.17-.07-.05-.05-.08-.11-.08-.18s.03-.13,.08-.18c.09-.09,.25-.09,.35,0,.05,.05,.07,.12,.07,.18s-.02,.13-.07,.18c-.05,.05-.11,.07-.18,.07Z"/>
        <path class="uuid-23144c6b-1184-4066-8178-f1007320591f" d="M51.25,56.25c-.06,0-.13-.03-.17-.07-.05-.05-.08-.11-.08-.18s.03-.13,.08-.18c.09-.09,.25-.09,.35,0,.05,.05,.07,.11,.07,.18s-.02,.13-.07,.18c-.05,.04-.11,.07-.18,.07Z"/>
        <path class="uuid-23144c6b-1184-4066-8178-f1007320591f" d="M52.25,59.75c-.06,0-.12-.02-.17-.07-.05-.05-.08-.11-.08-.18s.03-.13,.08-.18c.09-.09,.25-.09,.35,0,.05,.06,.07,.12,.07,.18s-.02,.12-.07,.17c-.05,.06-.11,.08-.18,.08Z"/>
        <path class="uuid-23144c6b-1184-4066-8178-f1007320591f" d="M51,63.75c-.06,0-.13-.03-.17-.07-.05-.05-.08-.11-.08-.18s.03-.13,.08-.18c.09-.09,.25-.09,.35,0,.05,.05,.07,.12,.07,.18s-.02,.13-.07,.17c-.05,.06-.11,.08-.18,.08Z"/>
        <path class="uuid-23144c6b-1184-4066-8178-f1007320591f" d="M53.25,63.75c-.06,0-.13-.03-.17-.07-.05-.05-.08-.12-.08-.18s.03-.13,.07-.17c.1-.1,.26-.1,.36,0,.05,.06,.07,.12,.07,.18s-.02,.12-.07,.17c-.05,.05-.11,.08-.18,.08Z"/>
        <path class="uuid-23144c6b-1184-4066-8178-f1007320591f" d="M55,65.25c-.06,0-.12-.03-.17-.07-.05-.05-.08-.11-.08-.18s.03-.13,.08-.18c.09-.09,.25-.09,.35,0,.05,.05,.07,.12,.07,.18s-.02,.13-.07,.18c-.05,.05-.11,.07-.18,.07Z"/>
        <path class="uuid-23144c6b-1184-4066-8178-f1007320591f" d="M56.25,64.25c-.06,0-.12-.03-.17-.07-.05-.05-.08-.11-.08-.18s.03-.13,.08-.18c.09-.09,.25-.09,.35,0,.05,.05,.07,.12,.07,.18,0,.07-.02,.13-.07,.18-.05,.05-.11,.07-.18,.07Z"/>
        <path class="uuid-23144c6b-1184-4066-8178-f1007320591f" d="M56.5,62c-.06,0-.13-.03-.17-.07-.05-.06-.08-.12-.08-.18,0-.07,.03-.13,.08-.18,.07-.08,.26-.09,.35,0,.05,.04,.07,.11,.07,.17s-.02,.12-.07,.17c-.05,.05-.11,.08-.18,.08Z"/>
        <path class="uuid-23144c6b-1184-4066-8178-f1007320591f" d="M58.25,61.5c-.06,0-.13-.03-.17-.07-.05-.05-.08-.12-.08-.18s.03-.13,.07-.17c.1-.1,.27-.1,.36,0,.05,.06,.07,.12,.07,.18s-.02,.12-.07,.17c-.04,.05-.11,.08-.18,.08Z"/>
        <path class="uuid-23144c6b-1184-4066-8178-f1007320591f" d="M21,27c-.06,0-.12-.02-.17-.07-.05-.05-.08-.11-.08-.18s.03-.13,.08-.18c.1-.09,.25-.09,.35,0,.05,.05,.07,.12,.07,.18s-.02,.13-.07,.18c-.05,.05-.12,.07-.18,.07Z"/>
        <path class="uuid-23144c6b-1184-4066-8178-f1007320591f" d="M22.75,24c-.07,0-.13-.03-.18-.07-.04-.05-.07-.11-.07-.18s.03-.13,.08-.18c.1-.09,.26-.09,.35,0,.05,.05,.07,.12,.07,.18s-.02,.13-.07,.18c-.04,.04-.11,.07-.18,.07Z"/>
        <path class="uuid-23144c6b-1184-4066-8178-f1007320591f" d="M25.25,24.5c-.06,0-.12-.03-.17-.07-.05-.05-.08-.11-.08-.18s.03-.13,.08-.18c.1-.09,.25-.09,.35,0,.05,.05,.07,.12,.07,.18s-.02,.13-.07,.18c-.05,.04-.11,.07-.18,.07Z"/>
        <path class="uuid-23144c6b-1184-4066-8178-f1007320591f" d="M35.25,23.25c-.06,0-.12-.02-.17-.07-.05-.05-.08-.11-.08-.18s.03-.13,.08-.18c.1-.09,.25-.09,.35,0,.05,.05,.07,.11,.07,.18s-.03,.13-.07,.18c-.05,.05-.11,.07-.18,.07Z"/>
        <path class="uuid-23144c6b-1184-4066-8178-f1007320591f" d="M39,24.75c-.06,0-.12-.02-.17-.07-.05-.05-.08-.11-.08-.18s.03-.13,.08-.18c.1-.09,.25-.09,.35,0,.05,.05,.07,.11,.07,.18s-.03,.13-.07,.18c-.05,.05-.12,.07-.18,.07Z"/>
        <path class="uuid-23144c6b-1184-4066-8178-f1007320591f" d="M45,29.5c-.06,0-.12-.02-.17-.07-.05-.05-.08-.11-.08-.18s.03-.13,.08-.18c.1-.09,.25-.09,.35,0,.05,.05,.07,.11,.07,.18s-.02,.13-.07,.18c-.05,.05-.12,.07-.18,.07Z"/>
        <path class="uuid-23144c6b-1184-4066-8178-f1007320591f" d="M46.25,29c-.06,0-.13-.03-.17-.07-.05-.05-.08-.11-.08-.18s.03-.13,.08-.18c.09-.09,.25-.09,.34,0,.06,.06,.08,.12,.08,.18s-.02,.12-.07,.17c-.05,.06-.11,.08-.18,.08Z"/>
        <path class="uuid-23144c6b-1184-4066-8178-f1007320591f" d="M55.25,28c-.06,0-.13-.03-.17-.07-.05-.05-.08-.11-.08-.18s.03-.13,.08-.18c.09-.09,.25-.09,.35,0,.05,.05,.07,.12,.07,.18s-.02,.13-.07,.18c-.05,.04-.11,.07-.18,.07Z"/>
        <path class="uuid-23144c6b-1184-4066-8178-f1007320591f" d="M51.25,25.25c-.06,0-.12-.02-.17-.07-.05-.05-.08-.11-.08-.18s.03-.13,.08-.18c.09-.09,.25-.09,.35,0,.05,.05,.07,.11,.07,.18s-.03,.13-.07,.18c-.05,.05-.11,.07-.18,.07Z"/>
        <path class="uuid-23144c6b-1184-4066-8178-f1007320591f" d="M52,29.5c-.06,0-.13-.03-.17-.07-.05-.05-.08-.11-.08-.18s.03-.13,.08-.18c.09-.09,.25-.09,.35,0,.05,.06,.07,.12,.07,.18s-.02,.12-.07,.17c-.05,.06-.11,.08-.18,.08Z"/>
        <path class="uuid-23144c6b-1184-4066-8178-f1007320591f" d="M62.5,35.5c-.06,0-.13-.03-.17-.07-.05-.05-.08-.11-.08-.18s.03-.13,.08-.18c.08-.08,.24-.09,.34,0,.06,.05,.08,.12,.08,.18s-.02,.13-.07,.18c-.05,.05-.12,.07-.18,.07Z"/>
        <path class="uuid-23144c6b-1184-4066-8178-f1007320591f" d="M58.25,38.25c-.07,0-.13-.03-.17-.07-.05-.05-.08-.12-.08-.18s.03-.13,.07-.17c.1-.1,.27-.1,.36,0,.05,.06,.07,.12,.07,.18s-.02,.12-.07,.17c-.04,.05-.11,.08-.18,.08Z"/>
        <path class="uuid-23144c6b-1184-4066-8178-f1007320591f" d="M49,39c-.07,0-.13-.03-.17-.07-.05-.05-.08-.12-.08-.18s.03-.13,.07-.17c.1-.1,.26-.1,.36,0,.05,.06,.07,.12,.07,.18s-.02,.12-.07,.17c-.05,.05-.11,.08-.18,.08Z"/>
        <path class="uuid-23144c6b-1184-4066-8178-f1007320591f" d="M48,41.25c-.06,0-.12-.02-.17-.07-.05-.05-.08-.11-.08-.18s.03-.13,.08-.18c.09-.09,.24-.09,.34,0,.06,.05,.08,.12,.08,.18s-.02,.12-.07,.17c-.06,.06-.11,.08-.18,.08Z"/>
        <path class="uuid-23144c6b-1184-4066-8178-f1007320591f" d="M52,43c-.07,0-.13-.03-.18-.08-.04-.04-.07-.1-.07-.17s.03-.13,.08-.18c.09-.09,.25-.09,.35,0,.05,.05,.07,.12,.07,.18s-.02,.13-.07,.18c-.05,.04-.11,.07-.18,.07Z"/>
        <path class="uuid-23144c6b-1184-4066-8178-f1007320591f" d="M53.5,45c-.06,0-.13-.03-.17-.07-.05-.05-.08-.11-.08-.18s.03-.13,.08-.18c.08-.09,.25-.09,.35,0,.05,.05,.07,.12,.07,.18s-.02,.13-.07,.18c-.05,.04-.11,.07-.18,.07Z"/>
        <path class="uuid-23144c6b-1184-4066-8178-f1007320591f" d="M62.25,48c-.06,0-.13-.03-.17-.07-.05-.05-.08-.12-.08-.18s.03-.13,.07-.17c.1-.1,.26-.1,.36,0,.05,.06,.07,.12,.07,.18s-.02,.12-.07,.17c-.05,.05-.11,.08-.18,.08Z"/>
        <path class="uuid-23144c6b-1184-4066-8178-f1007320591f" d="M65,51.75c-.06,0-.12-.03-.17-.07-.05-.05-.08-.11-.08-.18s.03-.14,.08-.18c.09-.08,.25-.09,.35,0,.04,.05,.07,.11,.07,.18s-.02,.13-.07,.18c-.05,.05-.11,.07-.18,.07Z"/>
        <path class="uuid-23144c6b-1184-4066-8178-f1007320591f" d="M67,51.75c-.06,0-.13-.03-.17-.07-.05-.05-.08-.11-.08-.18s.03-.13,.08-.18c.08-.08,.25-.09,.35,0,.05,.05,.07,.11,.07,.18s-.02,.13-.07,.18c-.05,.05-.11,.07-.18,.07Z"/>
        <path class="uuid-23144c6b-1184-4066-8178-f1007320591f" d="M69.5,45c-.06,0-.12-.03-.17-.07-.05-.05-.08-.11-.08-.18s.03-.13,.08-.18c.09-.09,.25-.09,.35,0,.05,.05,.07,.11,.07,.18s-.02,.13-.07,.18c-.05,.05-.11,.07-.18,.07Z"/>
        <path class="uuid-23144c6b-1184-4066-8178-f1007320591f" d="M60,39c-.06,0-.12-.02-.17-.07-.05-.05-.08-.11-.08-.18s.03-.13,.08-.18c.09-.09,.25-.09,.35,0,.04,.05,.07,.11,.07,.18s-.03,.13-.07,.18c-.05,.05-.11,.07-.18,.07Z"/>
        <path class="uuid-23144c6b-1184-4066-8178-f1007320591f" d="M47.25,47.75c-.06,0-.13-.03-.17-.07-.05-.05-.08-.11-.08-.18s.03-.14,.08-.18c.08-.08,.25-.09,.35,0,.04,.05,.07,.11,.07,.18s-.02,.13-.07,.18c-.05,.05-.11,.07-.18,.07Z"/>
        <path class="uuid-23144c6b-1184-4066-8178-f1007320591f" d="M32.5,47c-.06,0-.12-.03-.17-.07-.05-.05-.08-.11-.08-.18s.03-.13,.08-.18c.09-.09,.26-.09,.35,0,.05,.05,.07,.12,.07,.18s-.02,.13-.07,.18c-.05,.04-.11,.07-.18,.07Z"/>
        <path class="uuid-23144c6b-1184-4066-8178-f1007320591f" d="M37,44.5c-.06,0-.12-.03-.17-.07-.05-.05-.08-.12-.08-.18,0-.07,.03-.13,.07-.17,.11-.11,.26-.1,.36,0,.05,.05,.07,.12,.07,.18s-.02,.13-.07,.17c-.05,.05-.11,.08-.18,.08Z"/>
        <path class="uuid-23144c6b-1184-4066-8178-f1007320591f" d="M26.25,37.75c-.06,0-.12-.03-.17-.07-.05-.05-.08-.11-.08-.18s.03-.13,.08-.18c.1-.09,.25-.09,.35,0,.05,.05,.07,.12,.07,.18s-.02,.13-.07,.18c-.05,.04-.11,.07-.18,.07Z"/>
        <path class="uuid-23144c6b-1184-4066-8178-f1007320591f" d="M29.75,35.5c-.06,0-.12-.02-.17-.07-.05-.05-.08-.11-.08-.18s.03-.13,.08-.18c.1-.09,.25-.09,.35,0,.05,.05,.07,.12,.07,.18s-.02,.12-.07,.17c-.05,.06-.11,.08-.18,.08Z"/>
        <path class="uuid-23144c6b-1184-4066-8178-f1007320591f" d="M17,28.5c-.06,0-.12-.02-.17-.07-.05-.05-.08-.11-.08-.18,0-.06,.03-.12,.07-.17,.11-.11,.26-.1,.36,0,.05,.05,.07,.12,.07,.18,0,.07-.02,.13-.07,.18-.05,.05-.11,.07-.18,.07Z"/>
        <path class="uuid-23144c6b-1184-4066-8178-f1007320591f" d="M10.5,29.5c-.06,0-.12-.02-.17-.07-.05-.05-.08-.11-.08-.18,0-.06,.03-.12,.07-.17,.11-.11,.26-.1,.36,0,.05,.06,.07,.12,.07,.18s-.02,.13-.07,.18c-.05,.05-.11,.07-.18,.07Z"/>
        <path class="uuid-23144c6b-1184-4066-8178-f1007320591f" d="M6,31.5c-.06,0-.12-.02-.17-.07-.05-.05-.08-.11-.08-.18,0-.06,.03-.12,.07-.17,.12-.11,.26-.1,.36,0,.05,.06,.07,.12,.07,.18,0,.07-.02,.13-.07,.18-.05,.05-.11,.07-.18,.07Z"/>
        <path class="uuid-23144c6b-1184-4066-8178-f1007320591f" d="M2.5,35.25c-.07,0-.13-.03-.17-.07-.05-.05-.08-.12-.08-.18,0-.07,.03-.13,.08-.18,.08-.09,.24-.09,.34,0,.06,.05,.08,.11,.08,.18,0,.06-.02,.13-.07,.17-.05,.06-.11,.08-.18,.08Z"/>
        <path class="uuid-23144c6b-1184-4066-8178-f1007320591f" d="M11.25,36.75c-.07,0-.13-.03-.18-.07-.04-.05-.07-.12-.07-.18,0-.07,.03-.13,.07-.18,.1-.09,.25-.09,.36,0,.05,.05,.07,.11,.07,.18s-.02,.13-.07,.18c-.05,.05-.11,.07-.18,.07Z"/>
        <path class="uuid-23144c6b-1184-4066-8178-f1007320591f" d="M17,42c-.06,0-.12-.02-.17-.07-.05-.05-.08-.11-.08-.18,0-.06,.03-.13,.07-.18,.11-.09,.26-.09,.36,0,.05,.05,.07,.11,.07,.18s-.03,.13-.07,.18c-.05,.05-.11,.07-.18,.07Z"/>
        <path class="uuid-23144c6b-1184-4066-8178-f1007320591f" d="M12.75,36c-.06,0-.13-.03-.17-.07-.05-.05-.08-.11-.08-.18,0-.06,.03-.13,.07-.17,.1-.1,.26-.1,.36,0,.05,.05,.07,.11,.07,.18s-.02,.13-.07,.18c-.05,.05-.12,.07-.18,.07Z"/>
        <path class="uuid-23144c6b-1184-4066-8178-f1007320591f" d="M26.5,30.25c-.06,0-.12-.02-.17-.07-.05-.05-.08-.11-.08-.18s.03-.13,.08-.18c.1-.09,.25-.09,.35,0,.05,.05,.07,.12,.07,.18s-.02,.13-.07,.18c-.05,.05-.11,.07-.18,.07Z"/>
        <path class="uuid-23144c6b-1184-4066-8178-f1007320591f" d="M37.75,31c-.06,0-.12-.02-.17-.07-.05-.05-.08-.11-.08-.18s.03-.13,.08-.18c.1-.09,.25-.09,.35,0,.05,.05,.07,.11,.07,.18s-.02,.13-.07,.18c-.05,.05-.12,.07-.18,.07Z"/>
        <path class="uuid-23144c6b-1184-4066-8178-f1007320591f" d="M39.5,32.5c-.06,0-.12-.02-.17-.07-.05-.05-.08-.11-.08-.18s.03-.13,.08-.18c.08-.09,.26-.09,.35,0,.05,.04,.07,.11,.07,.17s-.02,.13-.07,.18c-.05,.04-.11,.07-.18,.07Z"/>
        <path class="uuid-23144c6b-1184-4066-8178-f1007320591f" d="M28,42c-.06,0-.12-.03-.17-.07-.05-.05-.08-.12-.08-.18s.03-.12,.07-.17c.11-.1,.26-.1,.35,0,.06,.06,.08,.12,.08,.18s-.02,.13-.07,.17c-.05,.06-.11,.08-.18,.08Z"/>
        <path class="uuid-23144c6b-1184-4066-8178-f1007320591f" d="M6.5,20.5c-.06,0-.13-.03-.17-.07-.05-.05-.08-.12-.08-.18,0-.07,.03-.13,.07-.18,.1-.09,.26-.09,.36,0,.05,.05,.07,.11,.07,.18,0,.06-.02,.13-.07,.17-.05,.06-.11,.08-.18,.08Z"/>
        <path class="uuid-23144c6b-1184-4066-8178-f1007320591f" d="M10.25,20.25c-.06,0-.13-.03-.17-.07-.05-.05-.08-.11-.08-.18s.03-.13,.07-.18c.1-.09,.26-.09,.36,0,.05,.05,.07,.11,.07,.18s-.02,.13-.07,.18c-.05,.05-.11,.07-.18,.07Z"/>
        <path class="uuid-23144c6b-1184-4066-8178-f1007320591f" d="M11.75,23.5c-.06,0-.12-.02-.17-.07-.05-.05-.08-.11-.08-.18,0-.06,.03-.12,.07-.17,.11-.11,.26-.1,.36,0,.05,.06,.07,.12,.07,.18s-.02,.13-.07,.18c-.05,.05-.12,.07-.18,.07Z"/>
        <path class="uuid-23144c6b-1184-4066-8178-f1007320591f" d="M3,25.75c-.06,0-.13-.03-.17-.07-.05-.05-.08-.11-.08-.18s.03-.13,.07-.18c.1-.09,.26-.09,.36,0,.05,.05,.07,.11,.07,.18s-.02,.13-.07,.18c-.05,.05-.12,.07-.18,.07Z"/>
        <path class="uuid-23144c6b-1184-4066-8178-f1007320591f" d="M64.25,29.5c-.06,0-.13-.03-.17-.07-.05-.05-.08-.12-.08-.18s.03-.13,.07-.17c.1-.1,.25-.1,.35,0,.06,.05,.08,.12,.08,.18s-.02,.13-.07,.17c-.05,.06-.11,.08-.18,.08Z"/>
        <path class="uuid-23144c6b-1184-4066-8178-f1007320591f" d="M67.5,30.75c-.06,0-.13-.03-.17-.07-.05-.05-.08-.11-.08-.18,0-.06,.03-.13,.07-.17,.1-.1,.26-.1,.36,0,.05,.06,.07,.12,.07,.18s-.02,.13-.07,.18c-.05,.04-.11,.07-.18,.07Z"/>
        <path class="uuid-23144c6b-1184-4066-8178-f1007320591f" d="M69.5,29.75c-.06,0-.13-.03-.17-.07-.05-.05-.08-.11-.08-.18s.03-.13,.08-.18c.09-.09,.25-.09,.35,0,.05,.05,.07,.11,.07,.18s-.02,.13-.07,.18c-.05,.04-.11,.07-.18,.07Z"/>
        <path class="uuid-23144c6b-1184-4066-8178-f1007320591f" d="M7.25,15.75c-.07,0-.13-.03-.18-.08-.04-.04-.07-.1-.07-.17s.03-.13,.07-.18c.1-.09,.26-.09,.36,0,.04,.05,.07,.11,.07,.18s-.03,.13-.07,.18c-.05,.04-.11,.07-.18,.07Z"/>
        <path class="uuid-23144c6b-1184-4066-8178-f1007320591f" d="M1.5,9c-.06,0-.13-.03-.18-.07-.04-.05-.07-.11-.07-.18s.03-.13,.07-.18c.09-.09,.26-.09,.36,0,.05,.05,.07,.12,.07,.18s-.02,.13-.07,.18c-.05,.04-.11,.07-.18,.07Z"/>
        <path class="uuid-23144c6b-1184-4066-8178-f1007320591f" d="M14.5,6.5c-.06,0-.12-.02-.17-.07-.05-.05-.08-.11-.08-.18,0-.06,.03-.13,.07-.17,.11-.11,.26-.1,.36,0,.05,.05,.07,.11,.07,.18s-.02,.13-.07,.18c-.05,.05-.11,.07-.18,.07Z"/>
        <path class="uuid-23144c6b-1184-4066-8178-f1007320591f" d="M8.5,5.25c-.06,0-.12-.02-.17-.07-.05-.05-.08-.11-.08-.18s.03-.13,.07-.18c.1-.09,.27-.09,.36,0,.05,.04,.07,.1,.07,.17,0,.06-.02,.13-.07,.18-.05,.05-.11,.07-.18,.07Z"/>
        <path class="uuid-23144c6b-1184-4066-8178-f1007320591f" d="M3.5,2.5c-.07,0-.13-.03-.18-.08-.04-.04-.07-.1-.07-.17s.03-.13,.08-.18c.08-.09,.25-.09,.35,0,.04,.05,.07,.11,.07,.18s-.03,.13-.07,.18c-.05,.04-.11,.07-.18,.07Z"/>
        <path class="uuid-23144c6b-1184-4066-8178-f1007320591f" d="M3.75,6c-.06,0-.13-.03-.17-.07-.05-.05-.08-.11-.08-.18,0-.06,.03-.13,.07-.18,.09-.09,.26-.09,.36,0,.05,.05,.07,.11,.07,.18s-.02,.13-.07,.18c-.05,.05-.12,.07-.18,.07Z"/>
        <path class="uuid-23144c6b-1184-4066-8178-f1007320591f" d="M12.75,14.25c-.06,0-.13-.03-.17-.07-.05-.05-.08-.12-.08-.18,0-.07,.03-.13,.07-.18,.1-.09,.26-.09,.36,0,.05,.05,.07,.11,.07,.18,0,.06-.02,.13-.07,.17-.05,.06-.11,.08-.18,.08Z"/>
        <path class="uuid-23144c6b-1184-4066-8178-f1007320591f" d="M18.5,19.25c-.06,0-.12-.02-.17-.07-.05-.05-.08-.11-.08-.18,0-.06,.03-.13,.07-.17,.11-.11,.27-.1,.36,0,.05,.06,.07,.12,.07,.18,0,.07-.02,.13-.07,.18-.05,.04-.11,.07-.18,.07Z"/>
        <path class="uuid-23144c6b-1184-4066-8178-f1007320591f" d="M21.25,37c-.06,0-.12-.02-.17-.07-.05-.05-.08-.12-.08-.18,0-.07,.03-.13,.07-.18,.11-.09,.26-.09,.36,0,.05,.05,.07,.11,.07,.18,0,.06-.02,.13-.07,.17-.05,.06-.11,.08-.18,.08Z"/>
        <path class="uuid-23144c6b-1184-4066-8178-f1007320591f" d="M.75,44.25c-.06,0-.13-.03-.17-.07-.05-.05-.08-.11-.08-.18s.03-.13,.08-.18c.07-.08,.25-.09,.35,0,.04,.04,.07,.1,.07,.17s-.03,.13-.07,.18c-.05,.04-.11,.07-.18,.07Z"/>
        <path class="uuid-23144c6b-1184-4066-8178-f1007320591f" d="M66.5,37.25c-.06,0-.13-.03-.17-.07-.05-.05-.08-.11-.08-.18s.03-.13,.08-.18c.09-.09,.25-.09,.35,0,.05,.05,.07,.12,.07,.18s-.02,.13-.07,.18c-.05,.04-.11,.07-.18,.07Z"/>
        <path class="uuid-23144c6b-1184-4066-8178-f1007320591f" d="M68,66c-.06,0-.13-.03-.17-.07-.05-.05-.08-.12-.08-.18,0-.07,.03-.13,.07-.18,.1-.09,.26-.09,.36,0,.05,.05,.07,.12,.07,.18s-.02,.12-.07,.17c-.05,.05-.11,.08-.18,.08Z"/>
        <path class="uuid-23144c6b-1184-4066-8178-f1007320591f" d="M59.75,69.75c-.07,0-.13-.03-.18-.08-.04-.04-.07-.1-.07-.17s.03-.13,.08-.18c.09-.09,.25-.09,.35,0,.05,.05,.07,.12,.07,.18,0,.07-.02,.13-.07,.18-.05,.04-.11,.07-.18,.07Z"/>
        <path class="uuid-23144c6b-1184-4066-8178-f1007320591f" d="M40.5,68c-.06,0-.12-.02-.17-.07-.05-.05-.08-.11-.08-.18s.03-.13,.08-.18c.09-.09,.25-.09,.35,0,.05,.05,.07,.12,.07,.18s-.02,.13-.07,.18c-.05,.05-.12,.07-.18,.07Z"/>
        <path class="uuid-23144c6b-1184-4066-8178-f1007320591f" d="M44,63c-.06,0-.12-.02-.17-.07-.05-.04-.08-.11-.08-.18s.03-.13,.08-.18c.09-.09,.25-.09,.35,0,.05,.05,.07,.12,.07,.18,0,.07-.02,.13-.07,.18-.05,.05-.11,.07-.18,.07Z"/>
        <path class="uuid-23144c6b-1184-4066-8178-f1007320591f" d="M25.75,70c-.06,0-.12-.02-.17-.07-.05-.05-.08-.11-.08-.18s.03-.13,.08-.18c.09-.09,.25-.09,.35,0,.05,.05,.07,.11,.07,.18,0,.06-.02,.12-.07,.17-.05,.06-.11,.08-.18,.08Z"/>
        <path class="uuid-23144c6b-1184-4066-8178-f1007320591f" d="M4.5,60c-.06,0-.12-.02-.17-.07-.05-.05-.08-.11-.08-.18,0-.06,.03-.13,.07-.17,.11-.11,.26-.1,.36,0,.05,.06,.07,.12,.07,.18s-.02,.13-.07,.18c-.05,.05-.12,.07-.18,.07Z"/>
        <path class="uuid-23144c6b-1184-4066-8178-f1007320591f" d="M26.5,59.5c-.06,0-.12-.02-.17-.07-.05-.05-.08-.11-.08-.18s.03-.13,.08-.18c.1-.09,.25-.09,.35,0,.05,.05,.07,.11,.07,.18,0,.06-.02,.13-.07,.18-.05,.05-.11,.07-.18,.07Z"/>
        <path class="uuid-23144c6b-1184-4066-8178-f1007320591f" d="M37.25,48.5c-.06,0-.12-.03-.17-.07-.05-.05-.08-.11-.08-.18s.03-.13,.08-.18c.09-.09,.24-.09,.34,0,.06,.05,.08,.12,.08,.18s-.02,.13-.07,.18c-.06,.05-.12,.07-.18,.07Z"/>
        <path class="uuid-23144c6b-1184-4066-8178-f1007320591f" d="M22,41.75c-.06,0-.12-.02-.17-.07-.05-.05-.08-.11-.08-.18s.03-.13,.08-.18c.1-.09,.25-.09,.35,0,.05,.05,.07,.12,.07,.18s-.02,.13-.07,.18c-.05,.05-.12,.07-.18,.07Z"/>
        <path class="uuid-23144c6b-1184-4066-8178-f1007320591f" d="M8.75,40.25c-.06,0-.13-.03-.17-.07-.05-.05-.08-.12-.08-.18,0-.07,.03-.13,.08-.18,.09-.09,.25-.09,.35,0,.04,.05,.07,.11,.07,.18s-.02,.13-.07,.18c-.05,.05-.11,.07-.18,.07Z"/>
        <path class="uuid-23144c6b-1184-4066-8178-f1007320591f" d="M24,29c-.06,0-.12-.02-.17-.07-.05-.05-.08-.11-.08-.18s.03-.13,.08-.18c.1-.09,.25-.09,.35,0,.05,.05,.07,.12,.07,.18s-.02,.12-.07,.17c-.05,.06-.11,.08-.18,.08Z"/>
        <path class="uuid-23144c6b-1184-4066-8178-f1007320591f" d="M41.5,34.5c-.06,0-.13-.03-.17-.07-.05-.05-.08-.11-.08-.18s.03-.13,.08-.18c.09-.09,.25-.09,.34,0,.06,.06,.08,.12,.08,.18s-.02,.12-.07,.17c-.05,.06-.11,.08-.18,.08Z"/>
        <path class="uuid-23144c6b-1184-4066-8178-f1007320591f" d="M51.5,37.5c-.06,0-.13-.03-.17-.07-.05-.05-.08-.11-.08-.18s.03-.13,.08-.18c.09-.09,.25-.09,.35,0,.05,.05,.07,.12,.07,.18s-.02,.13-.07,.17c-.05,.06-.11,.08-.18,.08Z"/>
        <path class="uuid-23144c6b-1184-4066-8178-f1007320591f" d="M60.75,46c-.06,0-.12-.03-.17-.07-.05-.05-.08-.11-.08-.18s.03-.14,.08-.18c.09-.09,.25-.09,.35,0,.05,.05,.07,.11,.07,.18s-.02,.13-.07,.18c-.05,.04-.11,.07-.18,.07Z"/>
        <path class="uuid-23144c6b-1184-4066-8178-f1007320591f" d="M67.5,43.75c-.06,0-.13-.03-.17-.07-.05-.05-.08-.11-.08-.18s.03-.13,.08-.18c.08-.08,.25-.09,.35,0,.05,.05,.07,.12,.07,.18s-.02,.13-.07,.18c-.05,.04-.11,.07-.18,.07Z"/>
        <path class="uuid-23144c6b-1184-4066-8178-f1007320591f" d="M51.25,66.25c-.06,0-.12-.02-.17-.07-.05-.05-.08-.11-.08-.18s.03-.13,.08-.18c.09-.09,.25-.09,.35,0,.05,.05,.07,.11,.07,.18s-.03,.13-.07,.18c-.05,.05-.11,.07-.18,.07Z"/>
        <path class="uuid-23144c6b-1184-4066-8178-f1007320591f" d="M40,37.75c-.06,0-.13-.03-.17-.07-.05-.05-.08-.11-.08-.18s.03-.13,.08-.18c.09-.09,.26-.09,.35,0,.05,.05,.07,.12,.07,.18s-.02,.12-.07,.17c-.05,.05-.11,.08-.18,.08Z"/>
        <path class="uuid-23144c6b-1184-4066-8178-f1007320591f" d="M53.25,15c-.06,0-.13-.03-.17-.07-.05-.05-.08-.11-.08-.18s.03-.13,.08-.18c.07-.08,.26-.09,.35,0,.05,.04,.07,.11,.07,.17s-.02,.13-.07,.18c-.05,.04-.11,.07-.18,.07Z"/>
        <path class="uuid-23144c6b-1184-4066-8178-f1007320591f" d="M34,16c-.07,0-.13-.03-.18-.08-.04-.04-.07-.1-.07-.17s.03-.14,.08-.18c.09-.09,.26-.09,.35,0,.05,.05,.07,.11,.07,.18,0,.06-.02,.13-.07,.18-.05,.04-.11,.07-.18,.07Z"/>
        <path class="uuid-23144c6b-1184-4066-8178-f1007320591f" d="M27.5,13.5c-.06,0-.12-.02-.17-.07-.05-.05-.08-.11-.08-.18s.03-.13,.07-.17c.11-.11,.26-.1,.36,0,.05,.05,.07,.12,.07,.18,0,.07-.02,.13-.07,.18-.05,.05-.11,.07-.18,.07Z"/>
        <path class="uuid-23144c6b-1184-4066-8178-f1007320591f" d="M12.75,19.25c-.06,0-.13-.03-.17-.07-.05-.05-.08-.11-.08-.18,0-.06,.03-.12,.07-.17,.1-.1,.26-.1,.36,0,.05,.05,.07,.12,.07,.18,0,.07-.02,.13-.07,.18-.05,.05-.11,.07-.18,.07Z"/>
        <path class="uuid-23144c6b-1184-4066-8178-f1007320591f" d="M19.75,26.5c-.06,0-.12-.02-.17-.07-.05-.05-.08-.11-.08-.18,0-.06,.03-.12,.07-.17,.11-.11,.26-.1,.36,0,.05,.05,.07,.12,.07,.18,0,.07-.02,.13-.07,.18-.05,.05-.12,.07-.18,.07Z"/>
        <path class="uuid-23144c6b-1184-4066-8178-f1007320591f" d="M49.5,4.5c-.06,0-.13-.03-.17-.07-.05-.04-.08-.11-.08-.18s.03-.14,.08-.18c.08-.08,.25-.09,.35,0,.05,.05,.07,.12,.07,.18s-.02,.13-.07,.18c-.05,.04-.11,.07-.18,.07Z"/>
        <path class="uuid-23144c6b-1184-4066-8178-f1007320591f" d="M11.75,1.75c-.06,0-.12-.02-.17-.07-.05-.05-.08-.11-.08-.18,0-.06,.03-.13,.07-.18,.1-.09,.27-.09,.36,0,.05,.05,.07,.12,.07,.18s-.02,.13-.07,.18c-.05,.05-.11,.07-.18,.07Z"/>
        <path class="uuid-23144c6b-1184-4066-8178-f1007320591f" d="M55.25,3.75c-.06,0-.13-.03-.17-.07-.05-.05-.08-.11-.08-.18s.03-.13,.08-.18c.08-.09,.25-.09,.35,0,.05,.05,.07,.12,.07,.18s-.02,.13-.07,.18c-.05,.04-.11,.07-.18,.07Z"/>
        <path class="uuid-23144c6b-1184-4066-8178-f1007320591f" d="M59,20.75c-.06,0-.13-.03-.17-.07-.05-.05-.08-.11-.08-.18s.03-.13,.08-.18c.08-.09,.25-.09,.35,0,.05,.06,.07,.12,.07,.18s-.02,.12-.07,.17c-.05,.06-.11,.08-.18,.08Z"/>
        <path class="uuid-23144c6b-1184-4066-8178-f1007320591f" d="M67.5,57.25c-.06,0-.13-.03-.17-.07-.05-.05-.08-.12-.08-.18,0-.07,.03-.13,.08-.18,.09-.09,.25-.09,.35,0,.05,.05,.07,.12,.07,.18s-.02,.12-.07,.17c-.05,.05-.11,.08-.18,.08Z"/>
        <path class="uuid-23144c6b-1184-4066-8178-f1007320591f" d="M47.25,69.75c-.06,0-.13-.03-.17-.07-.05-.04-.08-.11-.08-.18s.03-.14,.08-.18c.08-.08,.25-.09,.35,0,.04,.05,.07,.11,.07,.18s-.03,.13-.07,.18c-.05,.05-.11,.07-.18,.07Z"/>
        <path class="uuid-23144c6b-1184-4066-8178-f1007320591f" d="M5.25,69.75c-.06,0-.13-.03-.17-.07-.05-.05-.08-.11-.08-.18,0-.06,.03-.12,.07-.17,.1-.1,.26-.1,.36,0,.05,.05,.07,.12,.07,.18,0,.07-.02,.13-.07,.18s-.12,.07-.18,.07Z"/>
        <path class="uuid-23144c6b-1184-4066-8178-f1007320591f" d="M4.75,40.25c-.06,0-.13-.03-.18-.07-.04-.05-.07-.11-.07-.18s.03-.13,.07-.18c.09-.09,.26-.09,.36,0,.05,.05,.07,.12,.07,.18s-.02,.13-.07,.18c-.05,.04-.11,.07-.18,.07Z"/>
        <path class="uuid-23144c6b-1184-4066-8178-f1007320591f" d="M69.75,12.75c-.07,0-.13-.03-.17-.07-.05-.05-.08-.11-.08-.18s.03-.13,.08-.18c.09-.09,.25-.09,.35,0,.05,.05,.07,.12,.07,.18s-.02,.13-.07,.18c-.05,.04-.11,.07-.18,.07Z"/>
        <path class="uuid-23144c6b-1184-4066-8178-f1007320591f" d="M23.25,14c-.06,0-.12-.02-.17-.07-.05-.05-.08-.11-.08-.18s.03-.13,.07-.17c.11-.11,.26-.1,.36,0,.05,.06,.07,.12,.07,.18s-.02,.13-.07,.18c-.05,.05-.11,.07-.18,.07Z"/>
        <path class="uuid-23144c6b-1184-4066-8178-f1007320591f" d="M20.5,17.25c-.06,0-.13-.03-.17-.07-.05-.04-.08-.11-.08-.18s.03-.14,.08-.18c.07-.08,.26-.09,.35,0,.05,.04,.07,.11,.07,.17s-.02,.13-.07,.18c-.05,.04-.11,.07-.18,.07Z"/>
        <path class="uuid-23144c6b-1184-4066-8178-f1007320591f" d="M14.75,17.25c-.06,0-.12-.02-.17-.07-.05-.05-.08-.11-.08-.18,0-.06,.03-.13,.07-.18,.11-.09,.26-.09,.36,0,.05,.05,.07,.12,.07,.18s-.02,.13-.07,.18c-.05,.05-.11,.07-.18,.07Z"/>
        <path class="uuid-23144c6b-1184-4066-8178-f1007320591f" d="M2.75,13.25c-.07,0-.13-.03-.17-.07-.05-.05-.08-.12-.08-.18,0-.07,.03-.13,.08-.18,.09-.09,.25-.09,.35,0,.04,.05,.07,.11,.07,.18s-.02,.13-.07,.18c-.05,.04-.11,.07-.18,.07Z"/>
        <path class="uuid-23144c6b-1184-4066-8178-f1007320591f" d="M6,11.75c-.06,0-.12-.02-.17-.07-.05-.05-.08-.12-.08-.18,0-.07,.03-.13,.07-.18,.12-.1,.26-.09,.36,0,.05,.05,.07,.11,.07,.18,0,.06-.02,.12-.07,.17-.05,.06-.11,.08-.18,.08Z"/>
        <path class="uuid-23144c6b-1184-4066-8178-f1007320591f" d="M7,2.75c-.06,0-.12-.02-.17-.07-.05-.05-.08-.12-.08-.18,0-.07,.03-.13,.07-.18,.11-.09,.26-.09,.36,0,.05,.05,.07,.12,.07,.18s-.02,.12-.07,.17c-.05,.06-.11,.08-.18,.08Z"/>
        <path class="uuid-23144c6b-1184-4066-8178-f1007320591f" d="M10,8.25c-.07,0-.13-.03-.18-.07-.04-.05-.07-.12-.07-.18,0-.07,.03-.13,.07-.18,.09-.09,.26-.09,.36,0,.05,.05,.07,.11,.07,.18,0,.06-.02,.13-.07,.17-.05,.06-.11,.08-.18,.08Z"/>
        <path class="uuid-23144c6b-1184-4066-8178-f1007320591f" d="M16,8.25c-.06,0-.13-.03-.18-.07-.04-.05-.07-.11-.07-.18s.03-.13,.08-.18c.1-.09,.25-.09,.35,0,.05,.05,.07,.12,.07,.18s-.02,.13-.07,.18c-.05,.04-.11,.07-.18,.07Z"/>
        <path class="uuid-23144c6b-1184-4066-8178-f1007320591f" d="M16.5,3.25c-.06,0-.12-.02-.17-.07-.05-.05-.08-.11-.08-.18s.03-.13,.07-.18c.11-.1,.26-.09,.36,0,.05,.05,.07,.11,.07,.18s-.02,.13-.07,.18c-.05,.05-.12,.07-.18,.07Z"/>
        <path class="uuid-23144c6b-1184-4066-8178-f1007320591f" d="M25.75,7c-.06,0-.12-.02-.17-.07-.05-.05-.08-.11-.08-.18s.03-.13,.08-.18c.1-.09,.25-.09,.35,0,.05,.05,.07,.12,.07,.18s-.02,.13-.07,.18c-.05,.05-.11,.07-.18,.07Z"/>
        <path class="uuid-23144c6b-1184-4066-8178-f1007320591f" d="M37,7.5c-.06,0-.12-.02-.17-.07-.05-.05-.08-.11-.08-.18s.03-.13,.08-.18c.09-.09,.26-.09,.35,0,.05,.05,.07,.11,.07,.18s-.02,.13-.07,.18c-.05,.05-.12,.07-.18,.07Z"/>
        <path class="uuid-23144c6b-1184-4066-8178-f1007320591f" d="M40.5,4.5c-.06,0-.13-.03-.17-.07-.05-.04-.08-.11-.08-.18s.03-.13,.08-.18c.09-.09,.25-.09,.35,0,.05,.06,.07,.12,.07,.18,0,.07-.02,.13-.07,.18-.05,.04-.11,.07-.18,.07Z"/>
        <path class="uuid-23144c6b-1184-4066-8178-f1007320591f" d="M37.5,4.25c-.06,0-.13-.03-.17-.07-.05-.04-.08-.11-.08-.18s.03-.13,.08-.18c.08-.09,.25-.09,.35,0,.05,.06,.07,.12,.07,.18s-.02,.13-.07,.18c-.05,.05-.11,.07-.18,.07Z"/>
        <path class="uuid-23144c6b-1184-4066-8178-f1007320591f" d="M43.25,2.25c-.07,0-.13-.03-.18-.08-.04-.04-.07-.1-.07-.17s.03-.13,.08-.18c.09-.09,.25-.09,.35,0,.05,.05,.07,.12,.07,.18s-.02,.13-.07,.18c-.05,.04-.11,.07-.18,.07Z"/>
        <path class="uuid-23144c6b-1184-4066-8178-f1007320591f" d="M49.5,8.25c-.06,0-.13-.03-.17-.07-.05-.04-.08-.11-.08-.18s.03-.14,.08-.18c.08-.09,.25-.09,.35,0,.05,.05,.07,.12,.07,.18s-.02,.13-.07,.18c-.05,.04-.11,.07-.18,.07Z"/>
        <path class="uuid-23144c6b-1184-4066-8178-f1007320591f" d="M46,9.25c-.06,0-.13-.03-.17-.07-.05-.05-.08-.11-.08-.18s.03-.13,.08-.18c.08-.08,.25-.09,.35,0,.05,.05,.07,.12,.07,.18s-.02,.13-.07,.18c-.05,.04-.11,.07-.18,.07Z"/>
        <path class="uuid-23144c6b-1184-4066-8178-f1007320591f" d="M35.75,11c-.06,0-.13-.03-.17-.07-.05-.05-.08-.11-.08-.18s.03-.13,.08-.18c.09-.09,.25-.09,.35,0,.05,.05,.07,.12,.07,.18s-.02,.13-.07,.18c-.05,.04-.11,.07-.18,.07Z"/>
        <path class="uuid-23144c6b-1184-4066-8178-f1007320591f" d="M39.25,15c-.06,0-.12-.02-.17-.07-.05-.05-.08-.11-.08-.18s.03-.13,.08-.18c.09-.09,.25-.09,.35,0,.05,.06,.07,.12,.07,.18s-.02,.13-.07,.18c-.05,.05-.11,.07-.18,.07Z"/>
        <path class="uuid-23144c6b-1184-4066-8178-f1007320591f" d="M24.75,18c-.06,0-.12-.02-.17-.07-.05-.05-.08-.11-.08-.18s.03-.13,.07-.18c.1-.09,.27-.09,.36,0,.05,.05,.07,.11,.07,.18s-.02,.13-.07,.18c-.05,.05-.11,.07-.18,.07Z"/>
        <path class="uuid-23144c6b-1184-4066-8178-f1007320591f" d="M8.25,27.25c-.06,0-.12-.02-.17-.07-.05-.05-.08-.11-.08-.18s.03-.13,.07-.18c.12-.1,.26-.09,.36,0,.05,.05,.07,.12,.07,.18,0,.07-.02,.13-.07,.18-.05,.04-.11,.07-.18,.07Z"/>
        <path class="uuid-23144c6b-1184-4066-8178-f1007320591f" d="M16,31.75c-.06,0-.13-.03-.18-.07-.04-.05-.07-.11-.07-.18s.03-.13,.08-.18c.1-.09,.25-.09,.35,0,.05,.05,.07,.12,.07,.18s-.02,.13-.07,.18c-.05,.04-.11,.07-.18,.07Z"/>
        <path class="uuid-23144c6b-1184-4066-8178-f1007320591f" d="M10.5,33.5c-.06,0-.12-.02-.17-.07-.05-.05-.08-.12-.08-.18,0-.07,.03-.13,.07-.18,.11-.1,.26-.09,.36,0,.05,.05,.07,.12,.07,.18s-.02,.12-.07,.17c-.05,.06-.11,.08-.18,.08Z"/>
        <path class="uuid-23144c6b-1184-4066-8178-f1007320591f" d="M5.25,37c-.06,0-.13-.03-.17-.07-.05-.05-.08-.11-.08-.18,0-.06,.03-.12,.07-.17,.1-.1,.26-.1,.36,0,.05,.05,.07,.12,.07,.18,0,.07-.02,.13-.07,.18-.05,.05-.12,.07-.18,.07Z"/>
        <path class="uuid-23144c6b-1184-4066-8178-f1007320591f" d="M2.75,32c-.06,0-.13-.03-.17-.07-.05-.05-.08-.12-.08-.18,0-.07,.03-.13,.08-.18,.09-.09,.25-.09,.35,0,.04,.05,.07,.11,.07,.18s-.02,.13-.07,.18c-.05,.04-.11,.07-.18,.07Z"/>
        <path class="uuid-23144c6b-1184-4066-8178-f1007320591f" d="M7.5,25c-.07,0-.13-.03-.18-.07-.04-.05-.07-.11-.07-.18s.03-.13,.07-.18c.11-.09,.25-.09,.35,0,.06,.05,.08,.12,.08,.18s-.02,.13-.07,.18c-.05,.04-.11,.07-.18,.07Z"/>
        <path class="uuid-23144c6b-1184-4066-8178-f1007320591f" d="M3.25,20.5c-.06,0-.13-.03-.17-.07-.05-.05-.08-.11-.08-.18,0-.06,.03-.13,.07-.17,.1-.1,.26-.1,.36,0,.05,.05,.07,.12,.07,.18,0,.07-.02,.13-.07,.18-.05,.05-.12,.07-.18,.07Z"/>
        <path class="uuid-23144c6b-1184-4066-8178-f1007320591f" d="M20.5,30.75c-.06,0-.13-.03-.17-.07-.05-.05-.08-.11-.08-.18s.03-.13,.08-.18c.09-.09,.25-.09,.35,0,.05,.06,.07,.12,.07,.18s-.02,.12-.07,.17c-.05,.05-.11,.08-.18,.08Z"/>
        <path class="uuid-23144c6b-1184-4066-8178-f1007320591f" d="M17.5,35.5c-.06,0-.12-.03-.17-.07-.05-.06-.08-.12-.08-.18,0-.07,.03-.13,.07-.18,.11-.09,.26-.09,.36,0,.05,.05,.07,.11,.07,.18,0,.06-.02,.13-.07,.17-.05,.05-.11,.08-.18,.08Z"/>
        <path class="uuid-23144c6b-1184-4066-8178-f1007320591f" d="M16,39c-.06,0-.12-.02-.17-.07-.05-.05-.08-.11-.08-.18s.03-.13,.08-.18c.09-.09,.25-.09,.35,0,.05,.05,.07,.12,.07,.18s-.02,.13-.07,.18c-.05,.05-.12,.07-.18,.07Z"/>
        <path class="uuid-23144c6b-1184-4066-8178-f1007320591f" d="M12.75,41.25c-.06,0-.13-.03-.17-.07-.05-.05-.08-.11-.08-.18,0-.06,.03-.13,.07-.18,.1-.09,.26-.09,.36,0,.05,.05,.07,.11,.07,.18s-.02,.13-.07,.18c-.05,.04-.11,.07-.18,.07Z"/>
        <path class="uuid-23144c6b-1184-4066-8178-f1007320591f" d="M12.75,46.5c-.07,0-.13-.03-.17-.07-.05-.05-.08-.12-.08-.18,0-.07,.03-.13,.07-.18,.1-.09,.26-.09,.36,0,.05,.05,.07,.11,.07,.18s-.02,.13-.07,.18c-.05,.05-.11,.07-.18,.07Z"/>
        <path class="uuid-23144c6b-1184-4066-8178-f1007320591f" d="M4,46.75c-.06,0-.13-.03-.17-.07-.05-.05-.08-.11-.08-.18,0-.06,.03-.13,.07-.18,.1-.09,.26-.09,.35,0,.06,.05,.08,.12,.08,.18,0,.07-.02,.13-.07,.18-.05,.05-.12,.07-.18,.07Z"/>
        <path class="uuid-23144c6b-1184-4066-8178-f1007320591f" d="M5.75,48.5c-.07,0-.13-.03-.18-.08-.04-.04-.07-.1-.07-.17s.03-.13,.07-.18c.1-.09,.26-.09,.36,0,.05,.05,.07,.11,.07,.18s-.02,.13-.07,.18c-.05,.04-.11,.07-.18,.07Z"/>
        <path class="uuid-23144c6b-1184-4066-8178-f1007320591f" d="M11,50.5c-.06,0-.12-.02-.17-.07-.05-.05-.08-.11-.08-.18,0-.06,.03-.13,.07-.17,.11-.11,.26-.1,.36,0,.05,.06,.07,.12,.07,.18s-.02,.13-.07,.18c-.05,.05-.12,.07-.18,.07Z"/>
        <path class="uuid-23144c6b-1184-4066-8178-f1007320591f" d="M11,54.5c-.06,0-.13-.03-.18-.07-.04-.05-.07-.11-.07-.18s.03-.13,.07-.18c.11-.09,.26-.09,.36,0,.05,.05,.07,.12,.07,.18s-.02,.13-.07,.18c-.05,.04-.11,.07-.18,.07Z"/>
        <path class="uuid-23144c6b-1184-4066-8178-f1007320591f" d="M15.5,58.5c-.06,0-.12-.03-.17-.07-.05-.05-.08-.11-.08-.18s.03-.13,.07-.18c.11-.09,.26-.09,.36,0,.05,.05,.07,.12,.07,.18s-.02,.13-.07,.18c-.05,.04-.11,.07-.18,.07Z"/>
        <path class="uuid-23144c6b-1184-4066-8178-f1007320591f" d="M10,59.75c-.07,0-.13-.03-.18-.07-.04-.05-.07-.12-.07-.18,0-.07,.03-.13,.07-.18,.1-.09,.25-.09,.36,0,.05,.05,.07,.11,.07,.18,0,.06-.02,.13-.07,.18-.05,.05-.11,.07-.18,.07Z"/>
        <path class="uuid-23144c6b-1184-4066-8178-f1007320591f" d="M6,63.5c-.06,0-.12-.02-.17-.07-.05-.05-.08-.12-.08-.18,0-.07,.03-.13,.07-.18,.12-.1,.26-.09,.36,0,.05,.05,.07,.11,.07,.18,0,.06-.02,.12-.07,.17-.05,.06-.11,.08-.18,.08Z"/>
        <path class="uuid-23144c6b-1184-4066-8178-f1007320591f" d="M2.25,62c-.06,0-.12-.02-.17-.07-.05-.05-.08-.11-.08-.18s.03-.13,.07-.18c.11-.09,.25-.09,.35,0,.06,.05,.08,.12,.08,.18s-.02,.13-.07,.18c-.06,.05-.12,.07-.18,.07Z"/>
        <path class="uuid-23144c6b-1184-4066-8178-f1007320591f" d="M7.25,67.75c-.06,0-.13-.03-.17-.07-.05-.05-.08-.12-.08-.18,0-.07,.03-.13,.07-.18,.1-.09,.26-.09,.36,0,.04,.05,.07,.11,.07,.18s-.02,.13-.07,.17c-.05,.06-.11,.08-.18,.08Z"/>
        <path class="uuid-23144c6b-1184-4066-8178-f1007320591f" d="M13.5,69.5c-.06,0-.12-.02-.17-.07-.05-.05-.08-.12-.08-.18,0-.07,.03-.13,.07-.18,.11-.09,.26-.09,.36,0,.05,.05,.07,.12,.07,.18s-.02,.12-.07,.17c-.05,.06-.11,.08-.18,.08Z"/>
        <path class="uuid-23144c6b-1184-4066-8178-f1007320591f" d="M13.5,65.75c-.06,0-.12-.02-.17-.07-.05-.05-.08-.11-.08-.18,0-.06,.03-.13,.07-.17,.11-.11,.26-.1,.36,0,.05,.06,.07,.12,.07,.18s-.02,.13-.07,.18c-.05,.05-.11,.07-.18,.07Z"/>
        <path class="uuid-23144c6b-1184-4066-8178-f1007320591f" d="M21.5,68.5c-.06,0-.12-.02-.17-.07-.05-.05-.08-.11-.08-.18s.03-.13,.08-.18c.09-.09,.25-.09,.35,0,.05,.05,.07,.12,.07,.18s-.02,.12-.07,.17c-.05,.06-.11,.08-.18,.08Z"/>
        <path class="uuid-23144c6b-1184-4066-8178-f1007320591f" d="M23,65.75c-.06,0-.12-.02-.17-.07-.05-.05-.08-.11-.08-.18,0-.06,.03-.12,.07-.17,.11-.11,.26-.1,.36,0,.05,.05,.07,.12,.07,.18,0,.07-.02,.13-.07,.18-.05,.05-.11,.07-.18,.07Z"/>
        <path class="uuid-23144c6b-1184-4066-8178-f1007320591f" d="M22.25,60c-.06,0-.12-.02-.17-.07-.05-.05-.08-.11-.08-.18,0-.06,.03-.12,.07-.17,.11-.11,.26-.1,.36,0,.05,.05,.07,.12,.07,.18,0,.07-.02,.13-.07,.18-.05,.05-.12,.07-.18,.07Z"/>
        <path class="uuid-23144c6b-1184-4066-8178-f1007320591f" d="M24.25,57.5c-.06,0-.12-.02-.17-.07-.05-.05-.08-.11-.08-.18s.03-.13,.08-.18c.1-.09,.25-.09,.35,0,.05,.05,.07,.12,.07,.18s-.02,.13-.07,.18c-.05,.05-.11,.07-.18,.07Z"/>
        <path class="uuid-23144c6b-1184-4066-8178-f1007320591f" d="M22,53.25c-.06,0-.12-.02-.17-.07-.05-.05-.08-.11-.08-.18s.03-.13,.07-.17c.11-.11,.26-.1,.36,0,.05,.06,.07,.12,.07,.18s-.02,.13-.07,.18c-.05,.05-.11,.07-.18,.07Z"/>
        <path class="uuid-23144c6b-1184-4066-8178-f1007320591f" d="M26.25,47.75c-.06,0-.12-.02-.17-.07-.05-.05-.08-.11-.08-.18s.03-.13,.08-.18c.09-.09,.25-.09,.35,0,.05,.05,.07,.12,.07,.18s-.02,.13-.07,.18c-.05,.05-.11,.07-.18,.07Z"/>
        <path class="uuid-23144c6b-1184-4066-8178-f1007320591f" d="M25.75,43.5c-.06,0-.12-.02-.17-.07-.05-.05-.08-.11-.08-.18s.03-.13,.07-.18c.11-.09,.26-.09,.36,0,.05,.06,.07,.12,.07,.18,0,.07-.02,.13-.07,.18-.05,.05-.11,.07-.18,.07Z"/>
        <path class="uuid-23144c6b-1184-4066-8178-f1007320591f" d="M31.25,37.5c-.06,0-.12-.03-.17-.07-.05-.05-.08-.12-.08-.18s.03-.13,.07-.17c.11-.11,.26-.1,.36,0,.05,.06,.07,.12,.07,.18s-.02,.12-.07,.17c-.05,.05-.11,.08-.18,.08Z"/>
        <path class="uuid-23144c6b-1184-4066-8178-f1007320591f" d="M32.25,31c-.06,0-.12-.02-.17-.07-.05-.05-.08-.11-.08-.18,0-.06,.03-.12,.07-.17,.11-.11,.26-.1,.36,0,.05,.05,.07,.12,.07,.18,0,.07-.03,.13-.07,.18-.05,.05-.11,.07-.18,.07Z"/>
        <path class="uuid-23144c6b-1184-4066-8178-f1007320591f" d="M26,34c-.06,0-.12-.02-.17-.07-.05-.05-.08-.11-.08-.18s.03-.13,.08-.18c.1-.09,.25-.09,.35,0,.05,.05,.07,.12,.07,.18s-.02,.13-.07,.18c-.05,.05-.11,.07-.18,.07Z"/>
        <path class="uuid-23144c6b-1184-4066-8178-f1007320591f" d="M34.25,27.75c-.06,0-.13-.03-.17-.07-.05-.05-.08-.11-.08-.18s.03-.13,.08-.18c.09-.09,.25-.09,.35,0,.05,.06,.07,.12,.07,.18s-.02,.13-.07,.18c-.05,.04-.11,.07-.18,.07Z"/>
        <path class="uuid-23144c6b-1184-4066-8178-f1007320591f" d="M37.25,28.5c-.06,0-.13-.03-.17-.07-.05-.05-.08-.11-.08-.18s.03-.13,.08-.18c.09-.09,.25-.09,.34,0,.06,.05,.08,.12,.08,.18s-.02,.12-.07,.17c-.05,.06-.11,.08-.18,.08Z"/>
        <path class="uuid-23144c6b-1184-4066-8178-f1007320591f" d="M41.75,25.75c-.06,0-.12-.03-.17-.07-.05-.05-.08-.11-.08-.18s.03-.13,.08-.18c.09-.09,.26-.09,.35,0,.05,.06,.07,.12,.07,.18s-.02,.12-.07,.17c-.05,.05-.11,.08-.18,.08Z"/>
        <path class="uuid-23144c6b-1184-4066-8178-f1007320591f" d="M43,20.75c-.06,0-.12-.02-.17-.07-.05-.05-.08-.11-.08-.18s.03-.13,.08-.18c.09-.09,.25-.09,.35,0,.05,.05,.07,.12,.07,.18s-.02,.13-.07,.18c-.05,.05-.12,.07-.18,.07Z"/>
        <path class="uuid-23144c6b-1184-4066-8178-f1007320591f" d="M36.5,19.25c-.06,0-.13-.03-.17-.07-.05-.04-.08-.11-.08-.18s.03-.14,.08-.18c.08-.08,.25-.09,.35,0,.05,.05,.07,.12,.07,.18s-.02,.13-.07,.18c-.05,.05-.11,.07-.18,.07Z"/>
        <path class="uuid-23144c6b-1184-4066-8178-f1007320591f" d="M27.75,22.25c-.06,0-.12-.03-.17-.07-.05-.05-.08-.12-.08-.18s.03-.13,.07-.17c.11-.11,.26-.1,.36,0,.05,.05,.07,.11,.07,.18s-.02,.13-.07,.18c-.05,.04-.11,.07-.18,.07Z"/>
        <path class="uuid-23144c6b-1184-4066-8178-f1007320591f" d="M52,22c-.06,0-.13-.03-.17-.07-.05-.05-.08-.11-.08-.18s.03-.13,.08-.18c.09-.09,.25-.09,.35,0,.05,.06,.07,.12,.07,.18s-.02,.12-.07,.17c-.05,.05-.11,.08-.18,.08Z"/>
        <path class="uuid-23144c6b-1184-4066-8178-f1007320591f" d="M43.25,17.75c-.06,0-.13-.03-.17-.07-.05-.05-.08-.11-.08-.18,0-.06,.03-.13,.07-.18,.11-.09,.26-.09,.36,0,.05,.06,.07,.12,.07,.18s-.02,.12-.07,.17c-.05,.06-.11,.08-.18,.08Z"/>
        <path class="uuid-23144c6b-1184-4066-8178-f1007320591f" d="M50.5,18c-.06,0-.13-.03-.17-.07-.05-.05-.08-.11-.08-.18s.03-.13,.08-.18c.08-.09,.25-.09,.35,0,.05,.06,.07,.12,.07,.18s-.02,.12-.07,.17c-.05,.05-.11,.08-.18,.08Z"/>
        <path class="uuid-23144c6b-1184-4066-8178-f1007320591f" d="M59.5,17.25c-.06,0-.13-.03-.17-.07-.05-.05-.08-.11-.08-.18s.03-.13,.08-.18c.08-.09,.25-.09,.35,0,.05,.05,.07,.12,.07,.18s-.02,.13-.07,.18c-.05,.04-.11,.07-.18,.07Z"/>
        <path class="uuid-23144c6b-1184-4066-8178-f1007320591f" d="M58.25,14c-.06,0-.13-.03-.17-.07-.05-.05-.08-.11-.08-.18s.03-.13,.08-.18c.08-.09,.26-.09,.35,0,.05,.05,.07,.11,.07,.18,0,.06-.02,.13-.07,.18-.05,.04-.11,.07-.18,.07Z"/>
        <path class="uuid-23144c6b-1184-4066-8178-f1007320591f" d="M61.5,11c-.06,0-.12-.02-.17-.07-.05-.05-.08-.11-.08-.18s.03-.14,.08-.18c.09-.09,.25-.09,.35,0,.04,.05,.07,.11,.07,.18s-.03,.13-.07,.18c-.05,.05-.11,.07-.18,.07Z"/>
        <path class="uuid-23144c6b-1184-4066-8178-f1007320591f" d="M58.75,7.5c-.06,0-.12-.02-.17-.07-.05-.05-.08-.11-.08-.18s.03-.13,.08-.18c.09-.09,.25-.09,.35,0,.05,.05,.07,.11,.07,.18s-.02,.13-.07,.18c-.05,.05-.11,.07-.18,.07Z"/>
        <path class="uuid-23144c6b-1184-4066-8178-f1007320591f" d="M60,4.75c-.06,0-.13-.03-.17-.07-.05-.05-.08-.11-.08-.18s.03-.13,.07-.18c.11-.09,.26-.09,.36,0,.05,.05,.07,.11,.07,.18s-.02,.13-.07,.17c-.05,.06-.11,.08-.18,.08Z"/>
        <path class="uuid-23144c6b-1184-4066-8178-f1007320591f" d="M67.5,6c-.06,0-.13-.03-.17-.07-.05-.05-.08-.12-.08-.18s.03-.13,.07-.17c.1-.1,.26-.1,.36,0,.05,.06,.07,.12,.07,.18s-.02,.12-.07,.17c-.05,.05-.11,.08-.18,.08Z"/>
        <path class="uuid-23144c6b-1184-4066-8178-f1007320591f" d="M69.5,8c-.06,0-.12-.03-.17-.07-.05-.05-.08-.11-.08-.18,0-.06,.03-.13,.07-.18,.11-.09,.26-.09,.36,0,.05,.05,.07,.12,.07,.18,0,.07-.02,.13-.07,.18-.05,.05-.11,.07-.18,.07Z"/>
        <path class="uuid-23144c6b-1184-4066-8178-f1007320591f" d="M65.75,9.75c-.06,0-.13-.03-.17-.07-.05-.05-.08-.11-.08-.18s.03-.13,.08-.18c.08-.09,.26-.09,.35,0,.05,.05,.07,.12,.07,.18s-.02,.13-.07,.18c-.05,.04-.11,.07-.18,.07Z"/>
        <path class="uuid-23144c6b-1184-4066-8178-f1007320591f" d="M61.75,16.5c-.06,0-.13-.03-.17-.07-.05-.05-.08-.11-.08-.18s.03-.13,.08-.18c.09-.09,.25-.09,.35,0,.05,.05,.07,.12,.07,.18s-.02,.13-.07,.17c-.05,.06-.11,.08-.18,.08Z"/>
        <path class="uuid-23144c6b-1184-4066-8178-f1007320591f" d="M60.25,23.75c-.06,0-.12-.03-.17-.07-.05-.05-.08-.11-.08-.18s.03-.13,.08-.18c.09-.09,.25-.09,.35,0,.04,.05,.07,.11,.07,.18s-.02,.13-.07,.18c-.05,.05-.11,.07-.18,.07Z"/>
        <path class="uuid-23144c6b-1184-4066-8178-f1007320591f" d="M55.5,23.75c-.06,0-.13-.03-.17-.07-.05-.05-.08-.12-.08-.18s.03-.13,.08-.18c.09-.09,.25-.09,.35,0,.05,.05,.07,.12,.07,.18s-.02,.13-.07,.18c-.05,.04-.11,.07-.18,.07Z"/>
        <path class="uuid-23144c6b-1184-4066-8178-f1007320591f" d="M55.5,18.75c-.06,0-.13-.03-.17-.07-.05-.05-.08-.12-.08-.18s.03-.13,.08-.18c.09-.09,.25-.09,.35,0,.05,.05,.07,.12,.07,.18s-.02,.13-.07,.18c-.05,.04-.11,.07-.18,.07Z"/>
        <path class="uuid-23144c6b-1184-4066-8178-f1007320591f" d="M65,25.75c-.06,0-.12-.03-.17-.07-.05-.05-.08-.11-.08-.18s.03-.13,.08-.18c.09-.09,.25-.09,.35,0,.05,.05,.07,.12,.07,.18,0,.07-.02,.13-.07,.18-.05,.05-.11,.07-.18,.07Z"/>
        <path class="uuid-23144c6b-1184-4066-8178-f1007320591f" d="M61.25,27c-.06,0-.13-.03-.17-.07-.05-.05-.08-.11-.08-.18s.03-.13,.08-.18c.09-.09,.25-.09,.35,0,.05,.05,.07,.11,.07,.18s-.03,.13-.07,.18c-.05,.04-.11,.07-.18,.07Z"/>
        <path class="uuid-23144c6b-1184-4066-8178-f1007320591f" d="M57.75,30.75c-.06,0-.12-.02-.17-.07-.05-.05-.08-.11-.08-.18s.03-.13,.08-.18c.09-.09,.25-.09,.35,0,.05,.05,.07,.11,.07,.18s-.02,.13-.07,.17c-.05,.06-.11,.08-.18,.08Z"/>
        <path class="uuid-23144c6b-1184-4066-8178-f1007320591f" d="M52.75,32.75c-.06,0-.13-.03-.17-.07-.05-.05-.08-.11-.08-.18s.03-.13,.08-.18c.09-.09,.25-.09,.35,0,.05,.05,.07,.12,.07,.18s-.02,.13-.07,.17c-.05,.06-.11,.08-.18,.08Z"/>
        <path class="uuid-23144c6b-1184-4066-8178-f1007320591f" d="M47.5,33.75c-.06,0-.12-.03-.17-.07-.05-.05-.08-.11-.08-.18s.03-.13,.08-.18c.09-.09,.25-.09,.34,0,.06,.06,.08,.12,.08,.18s-.02,.12-.07,.17c-.06,.06-.11,.08-.18,.08Z"/>
        <path class="uuid-23144c6b-1184-4066-8178-f1007320591f" d="M44.25,39.25c-.06,0-.12-.03-.17-.07-.05-.05-.08-.11-.08-.18s.03-.13,.08-.18c.09-.09,.25-.09,.35,0,.05,.05,.07,.11,.07,.18s-.02,.13-.07,.18c-.05,.05-.12,.07-.18,.07Z"/>
        <path class="uuid-23144c6b-1184-4066-8178-f1007320591f" d="M34,41.5c-.06,0-.12-.02-.17-.07-.05-.05-.08-.11-.08-.18s.03-.13,.08-.18c.09-.09,.25-.09,.35,0,.05,.05,.07,.12,.07,.18s-.02,.13-.07,.18c-.05,.04-.11,.07-.18,.07Z"/>
        <path class="uuid-23144c6b-1184-4066-8178-f1007320591f" d="M40.75,48c-.06,0-.12-.02-.17-.07-.05-.05-.08-.11-.08-.18s.03-.13,.08-.18c.1-.09,.25-.09,.35,0,.04,.05,.07,.11,.07,.18s-.03,.13-.07,.18c-.05,.05-.11,.07-.18,.07Z"/>
        <path class="uuid-23144c6b-1184-4066-8178-f1007320591f" d="M45.75,52.25c-.06,0-.12-.02-.17-.07-.05-.05-.08-.11-.08-.18s.03-.13,.08-.18c.09-.09,.25-.09,.35,0,.05,.05,.07,.11,.07,.18s-.03,.13-.07,.18c-.05,.05-.11,.07-.18,.07Z"/>
        <path class="uuid-23144c6b-1184-4066-8178-f1007320591f" d="M46.5,56.75c-.06,0-.12-.03-.17-.07-.05-.05-.08-.11-.08-.18s.03-.13,.08-.18c.09-.09,.25-.09,.35,0,.05,.05,.07,.12,.07,.18s-.02,.13-.07,.17c-.05,.06-.11,.08-.18,.08Z"/>
        <path class="uuid-23144c6b-1184-4066-8178-f1007320591f" d="M42,59.5c-.06,0-.12-.02-.17-.07-.05-.05-.08-.11-.08-.18s.03-.13,.08-.18c.1-.09,.25-.09,.35,0,.04,.05,.07,.11,.07,.18s-.02,.13-.07,.18c-.05,.05-.12,.07-.18,.07Z"/>
        <path class="uuid-23144c6b-1184-4066-8178-f1007320591f" d="M40,62.75c-.06,0-.12-.03-.17-.07-.05-.05-.08-.11-.08-.18s.03-.14,.08-.18c.09-.09,.26-.09,.35,0,.05,.05,.07,.11,.07,.18,0,.06-.02,.13-.07,.18-.05,.04-.11,.07-.18,.07Z"/>
        <path class="uuid-23144c6b-1184-4066-8178-f1007320591f" d="M36,62.75c-.06,0-.12-.02-.17-.07-.05-.05-.08-.11-.08-.18s.03-.13,.08-.18c.1-.09,.26-.09,.35,0,.05,.06,.07,.12,.07,.18s-.02,.13-.07,.18c-.05,.04-.11,.07-.18,.07Z"/>
        <path class="uuid-23144c6b-1184-4066-8178-f1007320591f" d="M36.5,52.75c-.07,0-.13-.03-.17-.07-.05-.05-.08-.11-.08-.18s.03-.13,.08-.18c.09-.09,.25-.09,.35,0,.05,.06,.07,.12,.07,.18s-.02,.12-.07,.17c-.05,.05-.11,.08-.18,.08Z"/>
        <path class="uuid-23144c6b-1184-4066-8178-f1007320591f" d="M30,63.5c-.06,0-.13-.03-.17-.07-.05-.05-.08-.11-.08-.18s.03-.13,.08-.18c.09-.09,.25-.09,.35,0,.05,.05,.07,.12,.07,.18s-.02,.13-.07,.17c-.05,.05-.11,.08-.18,.08Z"/>
        <path class="uuid-23144c6b-1184-4066-8178-f1007320591f" d="M31.5,68.5c-.07,0-.13-.03-.18-.08-.04-.04-.07-.1-.07-.17s.03-.14,.08-.18c.09-.08,.25-.09,.34,0,.06,.05,.08,.11,.08,.18,0,.06-.02,.13-.07,.18-.05,.04-.11,.07-.18,.07Z"/>
        <path class="uuid-23144c6b-1184-4066-8178-f1007320591f" d="M37,71c-.06,0-.12-.02-.17-.07-.05-.05-.08-.11-.08-.18s.03-.13,.08-.18c.1-.09,.25-.09,.35,0,.05,.05,.07,.11,.07,.18s-.02,.13-.07,.18c-.05,.05-.11,.07-.18,.07Z"/>
        <path class="uuid-23144c6b-1184-4066-8178-f1007320591f" d="M58.75,57c-.06,0-.12-.02-.17-.07-.05-.05-.08-.11-.08-.18s.03-.13,.08-.18c.09-.09,.25-.09,.35,0,.05,.05,.07,.11,.07,.18s-.02,.13-.07,.18c-.05,.05-.11,.07-.18,.07Z"/>
        <path class="uuid-23144c6b-1184-4066-8178-f1007320591f" d="M63,57c-.06,0-.12-.03-.17-.07-.05-.05-.08-.11-.08-.18s.03-.13,.08-.18c.09-.09,.25-.09,.35,0,.05,.05,.07,.11,.07,.18s-.02,.13-.07,.17c-.05,.06-.11,.08-.18,.08Z"/>
        <path class="uuid-23144c6b-1184-4066-8178-f1007320591f" d="M60,50.75c-.06,0-.12-.03-.17-.07-.05-.05-.08-.11-.08-.18s.03-.14,.08-.18c.09-.09,.25-.09,.35,0,.04,.05,.07,.11,.07,.18s-.02,.13-.07,.18c-.05,.04-.11,.07-.18,.07Z"/>
        <path class="uuid-23144c6b-1184-4066-8178-f1007320591f" d="M54.5,50.5c-.07,0-.13-.03-.17-.07-.05-.05-.08-.12-.08-.18s.03-.13,.07-.17c.1-.1,.26-.1,.36,0,.05,.06,.07,.12,.07,.18s-.02,.12-.07,.17c-.05,.05-.11,.08-.18,.08Z"/>
        <path class="uuid-23144c6b-1184-4066-8178-f1007320591f" d="M59.25,44.25c-.06,0-.13-.03-.17-.07-.05-.05-.08-.12-.08-.18s.03-.13,.07-.17c.1-.1,.27-.1,.36,0,.05,.06,.07,.12,.07,.18s-.02,.12-.07,.17c-.04,.05-.11,.08-.18,.08Z"/>
        <path class="uuid-23144c6b-1184-4066-8178-f1007320591f" d="M54.75,41.75c-.06,0-.13-.03-.17-.07-.05-.05-.08-.12-.08-.18s.03-.13,.08-.18c.08-.09,.25-.09,.35,0,.05,.05,.07,.12,.07,.18s-.02,.13-.07,.18c-.05,.04-.11,.07-.18,.07Z"/>
        <path class="uuid-23144c6b-1184-4066-8178-f1007320591f" d="M55.75,35.5c-.06,0-.12-.02-.17-.07-.05-.05-.08-.11-.08-.18s.03-.13,.08-.18c.09-.09,.25-.09,.35,0,.05,.05,.07,.11,.07,.18s-.02,.13-.07,.18c-.05,.05-.11,.07-.18,.07Z"/>
        <path class="uuid-23144c6b-1184-4066-8178-f1007320591f" d="M62.5,42.25c-.06,0-.13-.03-.17-.07-.05-.05-.08-.11-.08-.18s.03-.13,.08-.18c.08-.08,.24-.09,.34,0,.06,.05,.08,.12,.08,.18s-.02,.13-.07,.18c-.05,.05-.12,.07-.18,.07Z"/>
        <path class="uuid-23144c6b-1184-4066-8178-f1007320591f" d="M67,47.5c-.06,0-.13-.03-.17-.07-.05-.05-.08-.11-.08-.18s.03-.13,.08-.18c.08-.08,.25-.09,.35,0,.05,.05,.07,.11,.07,.18s-.03,.13-.07,.18c-.05,.05-.11,.07-.18,.07Z"/>
        <path class="uuid-23144c6b-1184-4066-8178-f1007320591f" d="M69.5,54.25c-.06,0-.13-.03-.17-.07-.05-.05-.08-.11-.08-.18s.03-.13,.08-.18c.09-.09,.25-.09,.35,0,.05,.05,.07,.11,.07,.18s-.02,.13-.07,.18c-.05,.04-.11,.07-.18,.07Z"/>
        <path class="uuid-23144c6b-1184-4066-8178-f1007320591f" d="M63.5,61.75c-.06,0-.13-.03-.17-.07-.05-.05-.08-.12-.08-.18,0-.07,.03-.13,.08-.18,.07-.08,.25-.1,.35,0,.05,.05,.07,.12,.07,.18s-.02,.12-.07,.17c-.05,.06-.11,.08-.18,.08Z"/>
        <path class="uuid-23144c6b-1184-4066-8178-f1007320591f" d="M69.25,63.5c-.06,0-.12-.02-.17-.07-.05-.05-.08-.11-.08-.18s.03-.13,.08-.18c.09-.09,.25-.09,.35,0,.05,.05,.07,.12,.07,.18s-.02,.13-.07,.17c-.05,.06-.11,.08-.18,.08Z"/>
        <path class="uuid-23144c6b-1184-4066-8178-f1007320591f" d="M64.75,65.5c-.07,0-.13-.03-.17-.07-.05-.05-.08-.12-.08-.18s.03-.12,.07-.17c.1-.1,.27-.1,.36,0,.05,.06,.07,.12,.07,.18s-.02,.12-.07,.17c-.04,.05-.11,.08-.18,.08Z"/>
        <path class="uuid-23144c6b-1184-4066-8178-f1007320591f" d="M65.75,68.25c-.06,0-.13-.03-.17-.07-.05-.05-.08-.11-.08-.18s.03-.13,.08-.18c.08-.09,.26-.09,.35,0,.05,.05,.07,.12,.07,.18,0,.07-.02,.13-.07,.18-.05,.04-.11,.07-.18,.07Z"/>
        <path class="uuid-23144c6b-1184-4066-8178-f1007320591f" d="M69.25,70.5c-.06,0-.13-.03-.17-.07-.05-.05-.08-.12-.08-.18,0-.07,.03-.13,.08-.18,.09-.09,.25-.09,.35,0,.05,.05,.07,.11,.07,.18,0,.06-.02,.13-.07,.17-.05,.06-.11,.08-.18,.08Z"/>
        <path class="uuid-23144c6b-1184-4066-8178-f1007320591f" d="M62.5,70.25c-.06,0-.13-.03-.17-.07-.05-.05-.08-.11-.08-.18s.03-.13,.08-.18c.08-.08,.24-.1,.34,0,.06,.05,.08,.12,.08,.18s-.02,.13-.07,.18c-.06,.05-.12,.07-.18,.07Z"/>
        <path class="uuid-23144c6b-1184-4066-8178-f1007320591f" d="M60.75,65.75c-.06,0-.13-.03-.17-.07-.05-.05-.08-.11-.08-.18s.03-.13,.08-.18c.09-.09,.25-.09,.35,0,.05,.05,.07,.12,.07,.18s-.02,.13-.07,.17c-.05,.06-.11,.08-.18,.08Z"/>
        <path class="uuid-23144c6b-1184-4066-8178-f1007320591f" d="M52.75,69.75c-.06,0-.13-.03-.17-.07-.05-.05-.08-.11-.08-.18s.03-.13,.08-.18c.09-.09,.25-.09,.35,0,.05,.05,.07,.12,.07,.18s-.02,.13-.07,.17c-.05,.06-.11,.08-.18,.08Z"/>
        <path class="uuid-23144c6b-1184-4066-8178-f1007320591f" d="M44.75,66.5c-.07,0-.13-.03-.17-.07-.05-.05-.08-.11-.08-.18s.03-.13,.08-.18c.09-.09,.25-.09,.35,0,.05,.05,.07,.11,.07,.18,0,.06-.02,.13-.07,.17-.05,.05-.11,.08-.18,.08Z"/>
        <path class="uuid-23144c6b-1184-4066-8178-f1007320591f" d="M44.5,71.25c-.06,0-.12-.03-.17-.07-.05-.05-.08-.11-.08-.18s.03-.13,.08-.18c.09-.09,.25-.09,.35,0,.05,.05,.07,.11,.07,.18s-.02,.13-.07,.18c-.05,.05-.12,.07-.18,.07Z"/>
        <path class="uuid-23144c6b-1184-4066-8178-f1007320591f" d="M28.5,71.25c-.07,0-.13-.03-.18-.08-.04-.04-.07-.1-.07-.17s.03-.13,.08-.18c.09-.09,.25-.09,.35,0,.05,.05,.07,.12,.07,.18s-.02,.13-.07,.18c-.04,.04-.11,.07-.18,.07Z"/>
        <path class="uuid-23144c6b-1184-4066-8178-f1007320591f" d="M.75,29.5c-.06,0-.13-.03-.17-.07-.05-.05-.08-.12-.08-.18,0-.07,.03-.13,.08-.18,.08-.09,.24-.09,.35,0,.04,.05,.07,.11,.07,.18s-.02,.13-.07,.18c-.05,.05-.11,.07-.18,.07Z"/>
        <path class="uuid-23144c6b-1184-4066-8178-f1007320591f" d="M24.5,1c-.06,0-.12-.02-.17-.07-.05-.05-.08-.12-.08-.18,0-.07,.03-.13,.07-.18,.11-.09,.26-.09,.36,0,.04,.05,.07,.11,.07,.18s-.02,.13-.07,.17c-.05,.06-.11,.08-.18,.08Z"/>
        <path class="uuid-23144c6b-1184-4066-8178-f1007320591f" d="M13.25,5c-.07,0-.13-.03-.18-.07-.04-.05-.07-.12-.07-.18,0-.07,.03-.13,.07-.18,.09-.09,.26-.09,.36,0,.05,.05,.07,.11,.07,.18,0,.06-.02,.13-.07,.17-.05,.06-.11,.08-.18,.08Z"/>
        <path class="uuid-23144c6b-1184-4066-8178-f1007320591f" d="M71,35.25c-.06,0-.13-.03-.17-.07-.05-.05-.08-.11-.08-.18s.03-.13,.08-.18c.08-.08,.25-.09,.35,0,.05,.05,.07,.11,.07,.18s-.02,.13-.07,.18c-.05,.05-.11,.07-.18,.07Z"/>
      </g>
    </pattern>
  </defs>
  <g class="uuid-6ddfbafa-cd5d-463c-83c0-adf66abb97fd">
    <g id="uuid-82bd17a2-967c-40c9-998f-aab9d3ccd86d" data-name="fonds">
      <g>
        <path class="uuid-72d1740e-b6a5-46e4-8179-a61a2b84be2d" d="M487.82,346.89c.91-1.05,1.48-2.36,1.36-3.78-.34-4.24-.71-8.49-1.08-12.73-.68-36.61-1.3-73.21-1.35-109.82-.05-41.05,1.39-82.02,2.36-123.05,.35-14.94,.41-29.91-.25-44.84,1.16-1.12,1.87-2.71,2.05-4.45,1.26-12.72,1.31-25.5,.17-38.23-.27-2.96-2.57-6.47-6.06-6.06-72.56,8.58-145.76,8.07-218.68,6.06-72.69-2-145.44-5.44-218.15-2.68-5.16,.2-10.31,.42-15.47,.68-4.66,.24-9.42,.24-14.02,1.1-4.32,.81-8.16,3.3-10.35,7.14-2.2,3.84-2.35,8.45-2.48,12.76-.15,4.75-.28,9.5-.42,14.25-2.79,15.79-3.39,31.83-1.42,47.77,.17,1.37,.66,2.66,1.42,3.69-.04,20.5-.09,41.01-.13,61.51,0,1.32,.36,2.39,.93,3.27,.02,30.5,.05,61.01,.07,91.51,0,9.39,.01,18.79,.02,28.18-.67,.59-1.21,1.3-1.55,2.1,.92,12.02,1.76,24.04,2,36.09,.03,.71,.07,1.42,.1,2.13-.02,.27-.04,.55-.06,.82,.01,.88,.03,1.76,.04,2.63,0,.7-.12,1.33-.33,1.88-.53,9.54-.51,19.11-.26,28.69-.23,5.18-.43,10.35-.63,15.53,.19,5.9,.31,11.8,.32,17.71,0,1.21-.38,2.21-1,2.99-.48,17.6-.71,35.21-.5,52.82,.15,12.82,.55,25.63,1.21,38.43-.89,.61-1.72,1.32-2.47,2.18,0,0,0,0,0,0,.26,3.11,.59,6.21,.92,9.31,.91,.63,2.03,1.02,3.36,1.03,78.47,.67,156.96,.5,235.43-.51,20.84-.27,41.68-.61,62.51-.99,16.98,1.1,33.98,1.72,51.05,1.36,27.76-.57,55.45-2.78,83.18-4.02,15.55-.7,31.12-1.07,46.69-.73,3.17,.07,6.21-2.83,6.06-6.06-2.07-45.21-3.58-90.44-4.59-135.68Z"/>
        <path class="uuid-2358b4f5-2be2-4fa8-8107-40da7992bcdf" d="M493.84,466.62c0-.23,0-.45,.03-.66-.09-.01-.17-.04-.26-.05-.07-30.25-.15-60.5-.19-90.75-.03-19.97,.56-39.85,1.48-59.7-.27-4.49-.54-8.97-.76-13.46-2.2-19.8-.83-39.89,.48-59.91,.03-.82,.07-1.63,.1-2.45,.21-5.36,.49-10.73,.45-16.09-.02-2.52-.04-4.99,.16-7.45-.83-13.18-1.76-26.33-2.92-39.49-1.21-13.72-1.81-27.38,.28-41.05,.17-1.13,.81-2.01,1.68-2.62-1.26-17.79-1.87-35.62-1.94-53.46-.03-9.33,.08-18.66,.32-27.99-.48-16.18-.64-32.38-.28-48.58-3.99-2.06-9.02-2.03-12.72,.09C348.4,.22,216.99,2.24,85.8,9.05,62.89,7.37,40.02,4.89,17.18,1.33,7.09-.25,.8,9.44,2.16,16.87c2.49,26.02,1.13,52.23-.46,78.38,.28,4.37,.57,8.75,.85,13.12,.36,.64,.63,1.36,.73,2.19,2.24,17.33,.96,34.79-.25,52.15-1.21,17.33-1.74,34.64-1.51,52.01,.23,17.71,.92,35.43,2.23,53.09,1.36,18.36,3.04,36.7,3.1,55.13,0,2.57-1.56,4.1-3.46,4.64,1.33,19.7,2.53,39.41,2.57,59.17,0,1.92-.96,3.3-2.28,4.1-.24,8.55-1.1,17.07-1.81,25.6-.9,10.79-.85,21.48-.46,32.3,.39,11.1,.84,22.23,1.68,33.31,.37,4.92,.96,9.82,1.47,14.73,10.53-.61,21.05-1.25,31.61-1.29,1.6,0,2.8,.58,3.61,1.46,3.3-.11,6.58-.24,9.81-.28,20.82-.31,41.64-.63,62.46-.94,42.44-.64,84.88-1.28,127.32-1.92,76.68-1.15,153.36-2.31,230.04-3.46v.89c3.58-.76,7.42-.75,10.93-.78,3.83-.04,7.56-.36,11.26-.87,1.15-2.09,2.39-4.14,3.36-6.32,.16-.37,.39-.69,.65-.97-.69-5.26-1.69-10.53-1.78-15.67Zm-19.73-210.99c-2.5,39.1-4.98,77.93-4.93,117.14,.04,31.12,.12,62.24,.19,93.35-73.46,1.11-146.92,2.21-220.38,3.32-40.04,.6-80.08,1.21-120.12,1.81-20.02,.3-40.04,.6-60.06,.9l-28.83,.43c-5.57,.08-11.59,.66-17.33,.12,1.28-74.02-.29-148.05-.46-222.07-.09-39.1,.25-78.22,1.67-117.3,1.29-35.3,5.39-70.93,3.3-106.27,2.33,.31,4.65,.6,6.98,.89,1.32,4.43,5.01,7.92,11.1,7.56,14.35-.85,28.71-1.63,43.07-2.37,128.71,8.6,258.02-7.11,387.07-5.94,3.88,76.1,3.56,152.38-1.29,228.43Z"/>
        <line class="uuid-657cb77f-7c5f-42af-b109-a2ce4065717a" x1="488.62" y1="468.35" x2="7.63" y2="468.35"/>
        <line class="uuid-657cb77f-7c5f-42af-b109-a2ce4065717a" x1="488.62" y1="1" x2="7.63" y2="1"/>
        <line class="uuid-657cb77f-7c5f-42af-b109-a2ce4065717a" x1="488.62" y1="29.43" x2="7.63" y2="29.43"/>
        <line class="uuid-657cb77f-7c5f-42af-b109-a2ce4065717a" x1="23.56" y1="1" x2="23.56" y2="482"/>
        <line class="uuid-657cb77f-7c5f-42af-b109-a2ce4065717a" x1="1" y1="14.97" x2="1" y2="495.97"/>
        <line class="uuid-657cb77f-7c5f-42af-b109-a2ce4065717a" x1="495.97" y1="482" x2="495.97" y2="1"/>
        <line class="uuid-657cb77f-7c5f-42af-b109-a2ce4065717a" x1="474.3" y1="488.98" x2="474.3" y2="7.98"/>
        <line class="uuid-657cb77f-7c5f-42af-b109-a2ce4065717a" x1="495.97" y1="495.97" x2="21.59" y2="495.97"/>
      </g>
    </g>
    <g id="uuid-03d8ab0f-70b8-4a1a-935a-b7e4974825f3" data-name="dessin">
      <g>
        <path class="uuid-e7a9a320-9d76-4c3e-b723-a45cf3bea8c7" d="M287.14,236.72c-1.18,16.28-.89,32.8-1.33,49.12-.07,2.65,2.35,5.12,4.99,5.02,3.12-.11,6.24-.22,9.36-.33,.86,.44,1.85,.77,2.96,1,11.32,2.31,23.26,2.61,34.72,1.36,3.66-.4,8.28-1.05,9.38-4.97,2.77-2.25,2.75-7.31-1.25-8.65-.1-.17-.24-.39-.43-.68-.57-1.17-1.13-2.34-1.7-3.51-.85-1.76-1.7-3.52-2.55-5.27-1.7-3.52-3.4-7.03-5.1-10.54-.66-1.37-1.32-2.74-1.99-4.11-.72-1.6-1.43-3.2-2.15-4.79,3.63,.05,7.47-3.8,4.85-7.45-2.91-4.05-6.24-7.38-10.33-10.12-.02-2.5-1.63-5.04-4.82-5.15-8.2-.29-16.52-1.01-24.72-.87-6.29,.1-9.48,3.82-9.92,9.96Zm31.07,43.14c-1.25,.04-2.5,.09-3.76,.13,.65-.63,1.13-1.41,1.48-2.31,.73,.79,1.49,1.53,2.28,2.18Z"/>
        <path class="uuid-e7a9a320-9d76-4c3e-b723-a45cf3bea8c7" d="M40.02,218.22c-.11,.94,.07,1.96,.67,3,1.84,3.24,3.97,6.32,6.33,9.19-.27,.16-.52,.35-.77,.59-1.21,1.2-1.66,3-1.76,4.92-.23,4.36-.06,8.8-.09,13.17-.03,4.5-.06,9-.09,13.5-.06,9-.11,18.01-.17,27.01-.01,2.25,1.45,4.06,3.15,4.11,24.58,.65,49.15-.41,73.72-1.05,12.18-.32,24.36-.53,36.54-.38,6.14,.08,12.28,.25,18.41,.55,3.02,.15,6.09,.62,9.1,.53,2.05-.06,3.79-1.45,4.48-3.59,1.28-.35,2.37-1.63,2.31-3.86-.21-8.23-.42-16.46-.63-24.69,.18-2.14,.29-4.28,.34-6.41,1.1-1.75,1.09-4.21-.04-5.91,0-.01,0-.02,0-.03,0,0-.01,0-.02,0-.79-1.17-2.1-1.98-3.94-1.95-13.94,.18-27.88,.14-41.82-.13-6.81-.13-13.61-.32-20.42-.56-2.82-.1-6.25-.66-9.21-.16,.02-.1,.04-.19,.06-.29,.32-2.74,.32-5.37,0-8.11,0-.07-.03-.14-.04-.21,.04-.49,.08-.97,.12-1.46,.88-.96,1.88-1.84,3.13-2.11,.31-.07,.62-.1,.94-.11,.12-1.4,.34-2.8,.93-4.02,.16-.33,.37-.62,.61-.89-.14,0-.27,0-.41,0,2.23-1.97,4.46-3.93,6.7-5.9,4.85-4.27-2.24-11.35-7.06-7.1-.68,.6-1.36,1.2-2.04,1.8-.77-1.45-2.2-2.49-4.19-2.36-2.59,.16-4.79,.73-6.91,2.26-1.57,1.14-2.43,2.9-2.4,4.61-.99,.77-2.02,1.5-3.09,2.18-.49,.12-.96,.3-1.37,.51-1.68,.88-2.36,2.24-2.7,3.91-.98-.05-1.96-.1-2.94-.14-.1-.12-.21-.22-.31-.33-3.72-5.5-7.82-10.74-12.3-15.63-1.5-1.64-3.32-1.87-4.89-1.28-.45-.11-.94-.17-1.49-.15-10.73,.44-21.44,.22-32.15-.67-3.88-.32-6.11,4.59-4.29,7.63Z"/>
      </g>
      <g>
        <g>
          <line class="uuid-d9e4f121-2a11-4cb4-ac5d-817dea7791c3" x1="191.86" y1="291.32" x2="191.86" y2="243"/>
          <line class="uuid-d9e4f121-2a11-4cb4-ac5d-817dea7791c3" x1="95.25" y1="291.32" x2="95.25" y2="230.15"/>
          <line class="uuid-d9e4f121-2a11-4cb4-ac5d-817dea7791c3" x1="118.24" y1="245.57" x2="118.24" y2="230.15"/>
          <line class="uuid-d9e4f121-2a11-4cb4-ac5d-817dea7791c3" x1="44.14" y1="291.32" x2="44.14" y2="229.95"/>
          <line class="uuid-d9e4f121-2a11-4cb4-ac5d-817dea7791c3" x1="124.99" y1="291.32" x2="124.99" y2="246.48"/>
          <line class="uuid-d9e4f121-2a11-4cb4-ac5d-817dea7791c3" x1="107.65" y1="291.32" x2="107.65" y2="246.48"/>
          <line class="uuid-d9e4f121-2a11-4cb4-ac5d-817dea7791c3" x1="118.24" y1="230.15" x2="41.45" y2="230.15"/>
          <line class="uuid-d9e4f121-2a11-4cb4-ac5d-817dea7791c3" x1="364.03" y1="291.32" x2="364.03" y2="268.9"/>
          <line class="uuid-d9e4f121-2a11-4cb4-ac5d-817dea7791c3" x1="324.44" y1="291.32" x2="324.44" y2="268.69"/>
          <line class="uuid-d9e4f121-2a11-4cb4-ac5d-817dea7791c3" x1="306.01" y1="291.32" x2="306.01" y2="259.45"/>
          <line class="uuid-d9e4f121-2a11-4cb4-ac5d-817dea7791c3" x1="368.28" y1="264.6" x2="310.94" y2="264.6"/>
          <line class="uuid-d9e4f121-2a11-4cb4-ac5d-817dea7791c3" x1="195.36" y1="245.57" x2="105.66" y2="245.57"/>
          <line class="uuid-d9e4f121-2a11-4cb4-ac5d-817dea7791c3" x1="324.44" y1="258.38" x2="324.44" y2="225.58"/>
          <line class="uuid-d9e4f121-2a11-4cb4-ac5d-817dea7791c3" x1="284.85" y1="227.1" x2="284.85" y2="291.32"/>
          <line class="uuid-d9e4f121-2a11-4cb4-ac5d-817dea7791c3" x1="330.05" y1="225.58" x2="290.31" y2="225.58"/>
          <line class="uuid-d9e4f121-2a11-4cb4-ac5d-817dea7791c3" x1="35.34" y1="211.54" x2="44.14" y2="228.05"/>
          <line class="uuid-d9e4f121-2a11-4cb4-ac5d-817dea7791c3" x1="86.62" y1="213.76" x2="95.25" y2="228.72"/>
          <line class="uuid-d9e4f121-2a11-4cb4-ac5d-817dea7791c3" x1="83.75" y1="210.61" x2="37.47" y2="210.61"/>
          <line class="uuid-d9e4f121-2a11-4cb4-ac5d-817dea7791c3" x1="130.79" y1="217.47" x2="119.24" y2="230.73"/>
          <line class="uuid-d9e4f121-2a11-4cb4-ac5d-817dea7791c3" x1="107.65" y1="217.47" x2="96.58" y2="229.16"/>
          <line class="uuid-d9e4f121-2a11-4cb4-ac5d-817dea7791c3" x1="129.13" y1="216.35" x2="108.54" y2="216.35"/>
        </g>
        <path class="uuid-cd57529a-b4a8-4e4f-af71-9d8fed2c610d" d="M222.25,458.12c-1.64-7.81-3.18-15.15-4.6-21.96l4.6-50.46c-.94,1.64-.39,47.07-.13,48.53,1.55,8.84,3,17.73,5.25,26.39,.23,.88,.34,1.61,.38,2.27-.23-2.28-3.33-4.72-5.5-4.77Z"/>
        <path class="uuid-cd57529a-b4a8-4e4f-af71-9d8fed2c610d" d="M106.06,441.79c3.26-17.87,7.5-78.46,10.11-96.44,6.21-.22,22.6-.22,37.14-.16l.28,1.48c-10.97,.88-21.77,1.58-33.44,2.39-3.63,20.37-7.18,80.55-10.75,100.54-.85,4.74-1.54,9.53-2.7,14.19-.45,1.8-2.03,3.32-3.1,4.96-.79-.33-1.59-.67-2.38-1,1.61-8.66,3.26-17.31,4.84-25.97Z"/>
        <path class="uuid-cd57529a-b4a8-4e4f-af71-9d8fed2c610d" d="M264.47,273.2c1.19-1.63,4.21-1.57,5.93-.98,1.73,.6,2.37,.05,2.7-.43,.32-.49-2.32-2.01-3.78-2.61-1.46-.6-3.13-.54-6.26-1.68-.16-2.69-.28-4.69-.44-7.45,6.76,0,15.59,0,20.6,0,1.07,8.87,.64,22.59,1.62,30.78h-22.52s.7-10.44,.7-10.44l.47-5.01s-.22-.56,.97-2.19Z"/>
        <g>
          <path class="uuid-4d7f6f90-faa1-40d5-baa6-a4bceb5edc92" d="M370.46,200.98c.42,.6,.75,1.28,1.01,1.96-.32-.68-.65-1.35-1.01-1.96Z"/>
          <path class="uuid-b196b804-111f-494d-8219-48e746d47212" d="M370.46,200.98c.36,.61,.69,1.28,1.01,1.96-.26-.68-.59-1.36-1.01-1.96h0Z"/>
        </g>
        <g>
          <path class="uuid-e8400f1d-6112-4fa2-aba8-1ff490b22d2e" d="M179.47,345.35l.42,40.36h42.36s-4.6,50.46-4.6,50.46c-2.25,3.07-4.47,6.11-6.8,9.28-2.57,1.59-18.07,4.59-22.68-.61-.97,7.73-4.5,8.2-4.5,8.2,0,0-10.07,3.76-17.34,1.01-4.11-1.56-7.48-6.63-9.64-10.74,6.37-19.02,1.18-77.86-3.11-96.64l-.28-1.48c13.92,.06,26.16,.16,26.16,.16Z"/>
          <path class="uuid-e8400f1d-6112-4fa2-aba8-1ff490b22d2e" d="M211.63,171.76c-1.73-6.66-5.46-11.9-12.03-14.55-3.56-1.44-7.16-2.88-10.87-3.79-3.04-.75-5.97,.14-8.18,2.68-.58,.67-1.24,1.4-2.02,1.74-8.31,3.62-10.49,11.63-13.43,19.04-.75,1.9-1.23,3.94-1.52,5.97-.01,.07-.03,.14-.04,.21-.24,1.73-1.02,4.27-.98,6.79,0,.1-.08,.22-.11,.33,3.08,6.31,8.5,15.72,14.91,19.15,9.09,4.87,16.35,2.28,19.06,1.22-.72-.96-1.17-2.23-1.23-4.24-.06-3.17,1.66-7.55,6.88-6.4,2.86,.63,3.68-1.19,4.43-3.98,.92-3.4,.37-7.46,3.54-10.22,.48-.42,.04-2.56-.59-3.49-1.51-2.26-1.63-3.91,.4-5.67,.18-.16,.27-.31,.48-.47,.99-.73,1.64-3.03,1.3-4.32Z"/>
          <path class="uuid-e8400f1d-6112-4fa2-aba8-1ff490b22d2e" d="M244.66,265.38c1.16-2.69,1.44-6.05,1.39-9.06,4.54,3.14,9.12,6.22,13.38,9.73,.75,.62,1.88,.77,3.64,1.45,3.13,1.14,4.8,1.08,6.26,1.68,1.46,.6,4.1,2.12,3.78,2.61-.32,.49-.97,1.03-2.7,.43-1.73-.6-4.75-.65-5.93,.98-1.19,1.63-.97,2.19-.97,2.19l-.47,5.01s-9.55-2.18-11.67-3.14c-1.23-.56-8.18-2.22-14.48-4.14,2.56-1.38,6.13-3.88,7.8-7.74Z"/>
          <path class="uuid-8d5443eb-8519-43c4-a64e-9264ce047e58" d="M153.2,199.27c2.42-3.05,8.63-6.88,9.23-9.1,3.08,6.31,8.5,15.72,14.91,19.15,9.09,4.87,16.35,2.28,19.06,1.22,1.4,1.87,3.91,2.46,7.14,4.39,2.17,1.3,3.95,3.33,5.7,5.22,6.61,7.15,13.36,14.18,19.64,21.62,4.95,5.86,11.01,10.27,17.17,14.54,.05,3.01-.23,6.37-1.39,9.06-1.67,3.86-5.24,6.36-7.8,7.74-4.56-1.38-8.79-2.9-10.27-4.22-3.54-3.15-7.55-6.34-15.74-10.52-8.2-4.18-13.73-11.9-13.73-11.9,0,0,5.89,11.33,6.13,15.15,.24,3.82,8.72,9.23,10.61,13.76,1.26,3.02,1.58,10.14,1.96,15.45h-23.96v-25.57s0-20.51,0-20.51H121.53c6.2-19.71,20.24-32.29,31.67-45.48Z"/>
          <g class="uuid-87483f3e-c84c-42a5-a2e8-10290bbe15f9">
            <path class="uuid-f4eb060e-c645-49f2-bae2-486fd96b3885" d="M179.47,345.35l.42,40.36h42.36s-4.6,50.46-4.6,50.46c-2.25,3.07-4.47,6.11-6.8,9.28-2.57,1.59-18.07,4.59-22.68-.61-.97,7.73-4.5,8.2-4.5,8.2,0,0-10.07,3.76-17.34,1.01-4.11-1.56-7.48-6.63-9.64-10.74,6.37-19.02,1.18-77.86-3.11-96.64l-.28-1.48c13.92,.06,26.16,.16,26.16,.16Z"/>
            <path class="uuid-f4eb060e-c645-49f2-bae2-486fd96b3885" d="M248.28,273.52c4.16,.93,10.9,1.27,15.23,1.56-.03,.19-.01,.3-.01,.3l-.47,5.01s-9.55-2.18-11.67-3.14c-1.23-.56-8.18-2.22-14.48-4.14,1.21-.65,2.64-1.58,3.99-2.75,2.51,1.39,5.21,2.67,7.42,3.16Z"/>
            <path class="uuid-f4eb060e-c645-49f2-bae2-486fd96b3885" d="M153.2,199.27c2.42-3.05,8.63-6.88,9.23-9.1,1.54,3.16,3.67,7.09,6.21,10.66-.68,2.37-1.61,4.21-2.95,4.72-3.98,1.52-20.15,28.01-21.7,39.19h-22.46c6.2-19.71,20.24-32.29,31.67-45.48Z"/>
            <path class="uuid-f4eb060e-c645-49f2-bae2-486fd96b3885" d="M198.86,249.98c-.96-1.6-1.64-2.9-1.74-3.5,0,0,.76,1.47,1.74,3.5Z"/>
            <path class="uuid-f4eb060e-c645-49f2-bae2-486fd96b3885" d="M197.12,240.51s6.05,8.47,9.07,9.56c3.02,1.09,20.07,10.83,23.52,13.12l3.45,2.3s3.58,2.6,7.69,4.87c-1.35,1.18-2.78,2.1-3.99,2.75-4.56-1.38-8.79-2.9-10.27-4.22-3.54-3.15-7.55-6.34-15.74-10.52-8.2-4.18-13.73-11.9-13.73-11.9-.42-2.49,0-5.98,0-5.98Z"/>
          </g>
        </g>
        <g>
          <path class="uuid-b88b91c5-b135-4cb6-b796-b2b4f1f87a7a" d="M309.34,210.06c-2.3-.55-4.16-3.85-6.79-7.93,0,0-.54-1.22-.74-2.29,0,0,.41,.82,1.31,1.11,0,0-.57-1.4-.04-2.55,0,0,.86,.7,1.84,1.15,0,0-1.11-2.43,.1-5.36,.27-.65,.49-1.19,.7-1.69,3.66,1.68,7.42,4.16,9.5,6.29,3.7,3.79,21.39,17,19.58,24.29-1.81,7.3-4.57,3.83-4.57,3.83,0,0,2.1-3.39,1.52-5.95-.58-2.55-3.55-4.89-4.28-4.38-.73,.51-1.31,3.21-3.48,2.26-2.18-.95-4.29-2.96-7.44-3.3-2.96-.88-4.92-4.95-7.22-5.51Z"/>
          <path class="uuid-f65ed41b-2276-4c22-a553-645cd0290334" d="M284.35,291.76c2.34-1.03,11.53-11.01,13.6-13.21,2.08-2.2,7.7-12.77,12.23-16.59,4.52-3.82,8.35-10.72,9.99-13.36,1.64-2.64,2.96-15.19,2.41-20.92-.55-5.73-3.06-11.23-6.02-12.11,3.15,.35,5.26,2.35,7.44,3.3,2.17,.95,2.75-1.75,3.48-2.26,.72-.51,3.7,1.82,4.28,4.38,.58,2.55-1.52,5.95-1.52,5.95,0,0,2.76,3.47,4.57-3.83,1.81-7.3-15.88-20.5-19.58-24.29-2.08-2.14-5.84-4.61-9.5-6.29h0c-2.84-1.31-5.62-2.15-7.51-1.9,0-3.23,8.17-15.56,9.92-17.03,1.75-1.47,7.59-5.58,12.55-5.58s14.88,5.87,20.14,8.51c5.25,2.64,12.55,8.22,15.18,11.74,2.63,3.52,25.68,10.57,29.77,13.8,4.09,3.23,18.39,13.51,22.18,17.91,3.79,4.4,2.33,4.11,7.3,9.1,4.96,4.99,6.42,10.86,9.63,17.03,3.21,6.17,4.96,9.98,4.96,9.98,0,0,6.13,11.74,10.51,19.96,2.35,4.42,4.94,16.06,6.82,25.87,1.62,8.42,2.72,15.5,2.72,15.5,.64,4.08,2.42,12.36,3.15,16.32,.73,3.96,2.92,32.74,2.77,37.43-.15,4.7,5.69,61.63,7.59,70.73,0,0-3.5,3.96-7.15,3.82-3.65-.15-6.42,1.47-11.97,1.47-5.54,0-3.17-.03-8.42-.62-9.39-2.12-16.01-.67-19.78-1.37,0,0-8.53-1.67-11.88-1.38-3.36,.29-5.41,.14-9.06,.43-2.47-.34-5.91,.77-9.96,.98-4.05,.2-9.17-.37-11.93,.45-2.77,.59-3.83-.84-7.33-.98-3.5-.15-5.4,1.76-5.4,1.76,0,0-.73-6.9-1.75-9.98-1.02-3.08-1.46-54.73-1.46-60.16s-1.17-15.85-2.92-19.67c-1.75-3.82-3.36-29.65-4.38-36.26-1.02-6.61-8.46-23.19-10.21-26.72-1.75-3.52-1.46-8.37-2.63-17.03-5.25,3.52-14.45,2.64-18.97,7.19-2.82,2.83-8.92,6.24-13.12,8.4l-21.69-.02c.32-.17,.64-.32,.95-.46Z"/>
          <path class="uuid-fc6eef0a-1420-4558-a9e1-007f746f6b81" d="M305.02,194.2c-1.21,2.93-.1,5.36-.1,5.36-.98-.45-1.84-1.15-1.84-1.15-.53,1.15,.04,2.55,.04,2.55-.9-.29-1.31-1.11-1.31-1.11,.2,1.07,.74,2.29,.74,2.29,.36,.61,.7,1.29,1.02,1.97,.89,2.31,.93,4.53,.48,2.94-.58-2.06-5.25-7.05-5.84-8.51s0-4.7,0-7.93c1.89-.24,4.67,.6,7.51,1.9-.21,.5-.43,1.04-.7,1.69Z"/>
          <g class="uuid-a0e6f1b1-acc2-4bbd-8825-36c97644a05b">
            <path class="uuid-f4eb060e-c645-49f2-bae2-486fd96b3885" d="M334.8,223.1c-1.81,7.3-4.57,3.83-4.57,3.83,0,0,2.1-3.39,1.52-5.95-.58-2.55-3.55-4.89-4.28-4.38,.77-.82,2.14-1.97,3.33-2.87,2.79,3.41,4.64,6.76,4,9.36Z"/>
            <path class="uuid-f4eb060e-c645-49f2-bae2-486fd96b3885" d="M303.12,200.96s-.57-1.4-.04-2.55c0,0,.72,.57,1.59,1.02,.41,.85,.82,1.72,1.3,2.71,1.36,2.76,4.41,6.54,6.26,6.26,1.85-.27,4.84-1.15,6.58,1.64,1.74,2.79,1.96,5.64,3.7,5.69s3.68,2.24,4.97,.88c-.73,.51-1.31,3.21-3.48,2.26-2.18-.95-4.29-2.96-7.44-3.3-2.96-.88-4.92-4.95-7.22-5.51-2.3-.55-4.16-3.85-6.79-7.93,0,0-.54-1.22-.74-2.29,0,0,.41,.82,1.31,1.11Z"/>
            <path class="uuid-9efbb99b-27e9-4910-8a0c-765395d45cbc" d="M334.8,223.1c-.51,2.07-1.1,3.21-1.68,3.87,1.29-1.86-.04-4.02-.04-4.02,0,0-2.31-7.56-2.95-10.03,3.17,3.68,5.37,7.37,4.67,10.17Z"/>
            <path d="M320.53,247.85s-.06,.06-.08,.09c1.51-3.52,2.65-14.86,2.13-20.26-.55-5.73-3.06-11.23-6.02-12.11,3.15,.35,5.26,2.35,7.44,3.3,2.17,.95,2.75-1.75,3.48-2.26,.72-.51,3.7,1.82,4.28,4.38,.58,2.55-1.52,5.95-1.52,5.95,0,0,1.42,1.72,2.89,.04-.02,.03-.01,.06-.03,.08-1.39,1.88-9.58,17.01-12.55,20.79Z"/>
            <path d="M366.51,236.96c.54,15.21-2.83,11.82-4.9,18.38-2.07,6.57-20.67,12.37-15.88,24.08,4.79,11.71,17.51,3.39,19.15,18.71,1.63,15.32,1.63,35.89,2.72,43.44,1.09,7.55,7.72,10.77,10.22,22.29,2.5,11.52,1.27,72.51,2.37,77.98,.28,1.37,.97,2.46,1.87,3.42-3.3-.03-6.73-.21-8.82,.41-2.77,.59-3.83-.84-7.33-.98-3.5-.15-5.4,1.76-5.4,1.76,0,0-.73-6.9-1.75-9.98-1.02-3.08-1.46-54.73-1.46-60.16s-1.17-15.85-2.92-19.67c-1.75-3.82-3.36-29.65-4.38-36.26-1.02-6.61-8.46-23.19-10.21-26.72-1.75-3.52-1.46-8.37-2.63-17.03,1.93-7.28,12.48-24.03,13.57-27.53,1.09-3.5,14.11-7.8,15.77-12.15Z"/>
            <path d="M304.65,186.33c1.09,1.09,24.84,24.13,25.47,26.58,0,0,0,.01,0,.02-5.07-5.89-12.63-11.79-14.91-14.12-2.08-2.14-5.84-4.61-9.5-6.29-2.84-1.31-5.62-2.15-7.51-1.9,0-3.23,8.17-15.56,9.92-17.03-.73,1.95-4.57,11.65-3.48,12.75Z"/>
          </g>
        </g>
      </g>
      <path class="uuid-58a9dc71-d816-4b61-a24b-246ed017b350" d="M472.52,362.86c-.09-9.18-.17-18.36-.26-27.55-.08-8.91,.41-17.98-.28-26.86-.3-3.91-1.7-7.58-5.38-10.03-3.58-2.39-7.89-2.52-12.23-2.69-9.25-.36-18.49-.71-27.74-1.04-18.5-.66-37-1.21-55.51-1.48-1.67-.02-3.34-.04-5.01-.05-1.21,.44-2.43,.83-3.69,1.04-.55,.09-1.12,.08-1.67,0-1.84,.65-4.16,.28-5.65-1.1-21.49-.04-42.94,.45-64.38,1.48-78.38-.73-156.76-1.46-235.14-2.19-3.33-.03-5.76,1.16-7.29,2.92-2.66-.31-5.33-.62-7.99-.95-5.16-.64-10.3,1.03-11.82,5.85-.76,2.41-.01,5.45,1.84,7.61-2.14,.92-3.82,2.6-4.37,5.13-3.39,15.66-4.08,31.38-2.05,47.13-.64,16.79-1.27,73.77-1.91,90.55-.17,4.55,3.14,7.17,7.06,7.88,2.1,4.37,7.42,7.21,13.68,7.33,9.2,.17,18.59-.78,27.8-1.09,18.73-.61,37.48-.97,56.22-1.13,37.19-.32,74.38,.12,111.56,.77,75.03,1.31,150.06,3.47,225.11,2.14,5.17-.09,9.65-3.78,9.61-8.38-.17-18.36-.35-76.92-.52-95.29Z"/>
      <line class="uuid-657cb77f-7c5f-42af-b109-a2ce4065717a" x1="472.66" y1="292.24" x2="27.2" y2="292.24"/>
      <line class="uuid-657cb77f-7c5f-42af-b109-a2ce4065717a" x1="469.66" y1="300.91" x2="24.2" y2="300.91"/>
      <polygon class="uuid-f4eb060e-c645-49f2-bae2-486fd96b3885" points="82.92 257.77 73.41 257.77 73.41 241.98 65.2 241.98 65.2 257.77 55.7 257.77 55.7 271.42 65.2 271.42 65.2 287.22 73.41 287.22 73.41 271.42 82.92 271.42 82.92 257.77"/>
      <g>
        <path class="uuid-79e80efe-4a8f-4bd4-9f86-aa6414cd4824" d="M140.78,375.45c-.16,1.45,2.02,3.3,4.51,3.52,19.35,1.76,38.84,2.76,58.39,3.16,35.15,.72,36.54-.29,71.65-1.1,35.18-.81,36.59-1.62,71.77-2.43,3.56-.08,5.5-1.61,5.85-3.25,1.41-.68,2.38-1.67,2.2-2.76-1.74-10.71-1.89-21.47-.63-32.19,6.59,.93,9.14-5.55,2.27-7.22-.65-.16-1.3-.28-1.96-.42-1.01-1.25-3.42-2.15-5.66-2.15-1.52,0-2.79,.32-3.78,.83-14.46-1.13,3.86,1.14-10.41,1.58-36.39,1.11-72.66-1.82-109.02-2.02-36.18-.19-38.52,2.86-74.69,1.12-3.48-.17-5.93,1.81-6.14,3.65-1.46,13.23-2.91,26.45-4.37,39.68Z"/>
        <g>
          <path class="uuid-b9fd3c5b-3e25-4fb2-8407-b6bc5a5493cc" d="M176.26,346.86v5.48h5.88v-5.48h4.36v15.34h-4.36v-6.03h-5.88v6.03h-4.36v-15.34h4.36Z"/>
          <path class="uuid-b9fd3c5b-3e25-4fb2-8407-b6bc5a5493cc" d="M193.47,346.86v10.3c0,1.23,.61,2.08,2.14,2.08s2.13-.85,2.13-2.08v-10.3h4.36v10.3c0,4.36-2.9,5.92-6.49,5.92s-6.49-1.56-6.49-5.92v-10.3h4.36Z"/>
          <path class="uuid-b9fd3c5b-3e25-4fb2-8407-b6bc5a5493cc" d="M213.64,360.77l-4.14-5.17-1.2,6.6h-4.25l2.83-16.54,6.75,9.16,6.75-9.16,2.83,16.54h-4.25l-1.2-6.6-4.14,5.17Z"/>
          <path class="uuid-b9fd3c5b-3e25-4fb2-8407-b6bc5a5493cc" d="M240.98,362.2h-4.58l-1.05-2.19h-5.97l-1.05,2.19h-4.58l8.61-16.43,8.61,16.43Zm-10-5.48h2.79l-1.39-2.89-1.39,2.89Z"/>
          <path class="uuid-b9fd3c5b-3e25-4fb2-8407-b6bc5a5493cc" d="M256.67,346.86v16.1l-10.35-8.35v7.58h-4.14v-16.11l10.35,8.35v-7.58h4.14Z"/>
          <path class="uuid-b9fd3c5b-3e25-4fb2-8407-b6bc5a5493cc" d="M263.74,346.86v15.34h-4.47v-15.34h4.47Z"/>
          <path class="uuid-b9fd3c5b-3e25-4fb2-8407-b6bc5a5493cc" d="M265.27,346.86h12.2v3.83h-3.92v11.5h-4.36v-11.5h-3.92v-3.83Z"/>
          <path class="uuid-b9fd3c5b-3e25-4fb2-8407-b6bc5a5493cc" d="M293.04,362.2h-4.58l-1.05-2.19h-5.97l-1.05,2.19h-4.58l8.61-16.43,8.61,16.43Zm-10-5.48h2.79l-1.39-2.89-1.39,2.89Z"/>
          <path class="uuid-b9fd3c5b-3e25-4fb2-8407-b6bc5a5493cc" d="M298.71,346.86v15.34h-4.47v-15.34h4.47Z"/>
          <path class="uuid-b9fd3c5b-3e25-4fb2-8407-b6bc5a5493cc" d="M307.31,346.86c4.47,0,6.38,1.88,6.38,5.15,0,2.3-.96,3.92-3.07,4.67l3.77,5.52h-4.9l-3.44-5.04h-.81v5.04h-3.92v-15.34h5.99Zm-2.07,6.9h2.07c1.5,0,2.24-.53,2.24-1.75s-.74-1.53-2.24-1.53h-2.07v3.29Z"/>
          <path class="uuid-b9fd3c5b-3e25-4fb2-8407-b6bc5a5493cc" d="M319.51,358.58h6.86v3.62h-11v-15.34h11v3.62h-6.86v2.19h6.43v3.29h-6.43v2.63Z"/>
        </g>
        <line class="uuid-657cb77f-7c5f-42af-b109-a2ce4065717a" x1="352.79" y1="328.2" x2="144.24" y2="328.2"/>
        <line class="uuid-657cb77f-7c5f-42af-b109-a2ce4065717a" x1="349.91" y1="376.43" x2="151.74" y2="376.43"/>
        <line class="uuid-657cb77f-7c5f-42af-b109-a2ce4065717a" x1="142.14" y1="330.71" x2="142.14" y2="378.94"/>
        <line class="uuid-657cb77f-7c5f-42af-b109-a2ce4065717a" x1="351.56" y1="320.67" x2="351.56" y2="368.9"/>
      </g>
      <g>
        <path class="uuid-c7c4cccf-71d3-4821-b15c-f6ecfb24cb86" d="M207.83,149.91c-2.24-2.75-5.02-4.99-8.13-6.54-11.2,2.18-22.58,8.07-23.72,15.48-1.19,7.69-2.89,29.37-3.72,38.32,4.67,.26,9.34,.28,13.99-.51,2-.34,4.96-.48,5.43-2.91,.48-2.49-.34-4.98-.38-7.46-.09-5.1,2.81-10.06,4.98-14.5,.06-.12,.12-.24,.17-.35l.93-.03c5.14-.15,10.35-.52,15.47,.18,.72,.1,1.41-.61,1.43-1.3,.19-7.29-1.81-14.68-6.45-20.38Z"/>
        <path class="uuid-c7c4cccf-71d3-4821-b15c-f6ecfb24cb86" d="M199.7,143.38c-3.06-1.53-6.43-2.4-9.92-2.45-7.44-.12-14.45,2.99-20.2,7.58-2.81,2.25-5.42,4.85-7.65,7.68-2.46,3.12-2.94,7.33-3.83,11.1-2.18,9.26-4.13,18.61-4.79,28.13-.09,1.27,1.3,1.69,2.13,1.17,.36,0,.72-.13,1.02-.44,5.26,.13,10.54,.73,15.81,1.03,.82-8.96,2.53-30.63,3.72-38.32,1.14-7.41,12.52-13.3,23.72-15.48Z"/>
        <path class="uuid-655553aa-5505-4e1b-9f12-c06fd2714314" d="M189.77,140.92c-7.44-.12-14.45,2.99-20.2,7.58-2.81,2.25-5.42,4.85-7.65,7.68-2.46,3.12-2.94,7.33-3.83,11.1-2.18,9.26-4.13,18.61-4.79,28.13-.09,1.27,1.3,1.69,2.13,1.17,.36,0,.72-.13,1.02-.44,5.26,.13,10.54,.73,15.81,1.03,.82-8.96,2.53-30.63,3.72-38.32,1.14-7.41,12.52-13.3,23.72-15.48-3.06-1.53-6.43-2.4-9.92-2.45Z"/>
      </g>
      <path class="uuid-e79a6f24-f80c-4265-a97d-41ac66d0bf39" d="M169.43,270.24c0,3.22,0,6.44,0,9.65,0,2.87-1.54,4.57-4.14,4.57-5.81,0-11.61,0-17.42,0-2.59,0-4.14-1.71-4.15-4.56,0-6.44,0-12.87,0-19.31,0-2.78,1.54-4.52,4.04-4.52,5.87-.01,11.74-.01,17.61,0,2.51,0,4.04,1.73,4.04,4.52,0,3.22,0,6.44,0,9.65Zm-21.84,10.7c-.17,1.18-.11,1.26,.9,1.12,2.31-.33,3.87-1.74,4.46-4.2,.3-1.25,.27-2.6,.34-3.91,.05-.85,0-1.71,0-2.57-.31-.03-.53-.05-.74-.08-2.69-.3-3.9-1.78-3.91-4.77,0-1.39,0-2.78,0-4.18,0-.88,0-1.76,0-2.53h10.14c0,2.52,.09,5.11-.03,7.69-.09,1.99-1.09,3.11-2.86,3.6-.54,.15-1.1,.2-1.65,.3,0,1.8-.14,3.59,.05,5.34,.12,1.09,.6,2.22,1.17,3.14,1.03,1.67,2.62,2.23,4.45,2.2v-1.14c-.18-.06-.35-.1-.51-.16-1.42-.49-2.69-1.27-3.53-2.67-1.04-1.74-.33-3.68-.57-5.51,.46-.08,.81-.14,1.15-.2,1.51-.27,2.56-1.21,3.04-2.79,.26-.87,.42-1.82,.44-2.74,.06-2.54,.02-5.09,.02-7.63,0-.26,0-.51,0-.78h-12.45c0,.64,0,1.24,0,1.83,.02,2.47-.03,4.95,.07,7.42,.08,1.89,.73,3.54,2.42,4.36,.64,.31,1.37,.4,2.15,.61,0,1.07-.02,2.22,0,3.36,.03,1.05-.31,1.92-.95,2.67-1,1.16-2.24,1.86-3.63,2.23Zm16.49,1.07c0-.32,0-.61,0-.89,0-3.79,0-7.59,0-11.38,0-.42,.1-.69,.41-.96,.8-.69,1.18-1.6,1.16-2.75-.04-2.28,0-4.56-.01-6.84,0-.23-.02-.47-.03-.71h-1.08c0,.34,0,.63,0,.91,0,2.21,0,4.42,0,6.63,0,.9-.29,1.63-1.04,1.99-.43,.21-.5,.48-.5,.93,0,4.06-.01,8.12-.02,12.17,0,1.11,.01,1.13,1.12,.9Zm-2.59-23.57v6.27h1v-6.27h-1Zm1.54,.02v6.25h1.02v-6.25h-1.02Z"/>
    </g>
  </g>
</svg>