<?xml version="1.0" encoding="UTF-8" standalone="no"?>
<svg
   version="1.1"
   style="shape-rendering:geometricPrecision; text-rendering:geometricPrecision; image-rendering:optimizeQuality; fill-rule:evenodd; clip-rule:evenodd"
   viewBox="0 0 1000 1000"
   id="svg534"
   sodipodi:docname="THEME_VIERGE.svg"
   inkscape:version="1.2.1 (9c6d41e410, 2022-07-14)"
   xmlns:inkscape="http://www.inkscape.org/namespaces/inkscape"
   xmlns:sodipodi="http://sodipodi.sourceforge.net/DTD/sodipodi-0.dtd"
   xmlns="http://www.w3.org/2000/svg"
   xmlns:svg="http://www.w3.org/2000/svg">
  <defs
     id="defs538" />
  <sodipodi:namedview
     id="namedview536"
     pagecolor="#ffffff"
     bordercolor="#666666"
     borderopacity="1.0"
     inkscape:showpageshadow="2"
     inkscape:pageopacity="0.0"
     inkscape:pagecheckerboard="0"
     inkscape:deskcolor="#d1d1d1"
     showgrid="false"
     inkscape:zoom="0.60816823"
     inkscape:cx="478.48603"
     inkscape:cy="408.60405"
     inkscape:window-width="1920"
     inkscape:window-height="1046"
     inkscape:window-x="0"
     inkscape:window-y="0"
     inkscape:window-maximized="1"
     inkscape:current-layer="svg534" />
  <g
     id="g352">
    <path
       style="opacity:1"
       fill="#fefefe"
       d="m -0.5,-0.5 c 333.33333,0 666.66667,0 1000,0 0,333.33333 0,666.66667 0,1000 -333.33333,0 -666.66667,0 -1000,0 0,-333.33333 0,-666.66667 0,-1000 z"
       id="path350" />
  </g>
  <g
     id="g356">
    <path
       style="opacity:1"
       fill="#5c5c63"
       d="M 47.5,2.5 C 30.366522,3.0096217 -0.59254664,0.92653172 37.046897,1.4084473 350.19633,0.16739982 663.35081,0.19791898 976.5,1.5 666.83453,2.4999989 357.16691,2.8333305 47.5,2.5 Z"
       id="path354" />
  </g>
  <g
     id="g360">
    <path
       style="opacity:1"
       fill="#5c5b63"
       d="m 990.5,1.5 c 3.06453,320.65945 1.6447,641.33353 1,962 -1,-320.66551 -1.333,-641.3331 -1,-962 z"
       id="path358" />
  </g>
  <g
     id="g364">
    <path
       style="opacity:1"
       fill="#faf6f3"
       d="m 949.5,976.5 c -3.75077,-18.3631 -1.22436,-53.10416 27,-40 -57.91939,-7.67112 -12.29472,-87.77557 -26.95589,-126.98941 0.0143,-250.00353 0.0473,-500.00366 -0.0441,-750.01059 45.75195,-1.524454 -19.13272,5.32732 -1.18835,-27.734492 -3.0803,-25.9488311 9.82406,44.831289 -22.09641,26.21562 C 633.45325,56.862783 340.38206,57.81757 47.49998,57.5 29.236786,-10.470621 112.54994,21.257225 151.55471,12.642274 426.18308,8.9130826 701.46002,37.036072 975.5,8 c 21.45136,54.439905 -5.42246,113.00846 2.93338,169.47577 -1.59071,83.49608 -6.28499,167.88913 -4.13214,250.79722 -1.88544,88.6955 0.3856,177.96385 3.08666,266.43408 -2.86123,85.98321 4.71605,172.12404 6.6974,258.1701 9.40978,24.44009 -18.2384,26.51692 -34.5853,23.62283 z"
       id="path362" />
  </g>
  <g
     id="g368">
    <path
       style="opacity:1"
       fill="#929195"
       d="M 45.5,2.5 C 48.139634,18.62235 45.406212,84.168878 44.718884,33.394048 43.035446,23.341571 46.830573,13.163503 45.5,2.5 Z"
       id="path366" />
  </g>
  <g
     id="g372">
    <path
       style="opacity:1"
       fill="#c2c0c1"
       d="m 976.5,58.5 c -53.88406,-4.437512 -15.40619,79.13515 -26.9597,115.39842 0.0393,149.53386 0.0259,299.06773 -0.0403,448.60158 -1.00088,-187.99803 -1.33271,-375.99961 -1,-564 9.33333,0 18.66667,0 28,0 z"
       id="path370" />
  </g>
  <g
     id="g376">
    <path
       style="opacity:1"
       fill="#8e8d92"
       d="M 14.5,58.5 C 56.941921,46.004198 47.064259,85.929702 46.585353,116.40836 46.75198,273.43953 46.391102,430.47127 45.5,587.5 c 0,-176 0,-352 0,-528 -10.340394,0.322829 -20.70297,0.0089 -31,-1 z"
       id="path374" />
  </g>
  <g
     id="g380">
    <path
       style="opacity:1"
       fill="#5c5b63"
       d="m 0.5,29.5 c 3.0647689,320.65945 1.6445354,641.33353 1,962 C 0.500002,670.83449 0.16666758,350.1669 0.5,29.5 Z"
       id="path378" />
  </g>
  <g
     id="g384">
    <path
       style="opacity:1"
       fill="#c3c1c2"
       d="m 955.5,623.5 c -14.0101,48.46805 -1.91969,119.05058 -5.95496,175.99842 -0.0549,33.97759 0.081,133.66382 -0.13675,126.26684 C 948.47935,825.01335 948.1779,724.25567 948.5,623.5 c 2.33333,0 4.66667,0 7,0 z"
       id="path382" />
  </g>
  <g
     id="g388">
    <path
       style="opacity:1"
       fill="#8f8e93"
       d="m 42.5,622.5 c 9.541203,52.59862 1.483403,118.8129 3.929308,176.62403 -0.108619,38.75889 -0.686551,113.12948 -0.871411,129.73768 0.908222,-99.42928 -2.896016,-198.77437 0.04853,-298.14696 C 56.246861,621.64772 37.020332,626.14524 42.5,622.5 Z"
       id="path386" />
  </g>
  <g
     id="g392">
    <path
       style="opacity:1"
       fill="#262631"
       d="m 47.5,2.5 c 0,18.333333 0,36.666667 0,55 300,0 600,0 900,0 -0.0876,-20.547441 0.68531,-59.6797106 0.87508,-18.375 -10.74299,30.277691 51.1738,16.03371 5.4975,19.375 -12.81957,39.013418 -1.77083,101.88788 -5.49695,149.91023 0.0153,138.03059 0.38952,276.06114 1.12437,414.08977 -0.4376,23.24427 -1.98805,103.493 -1.02881,147.37551 4.70356,52.82484 -8.54561,124.31123 7.88119,165.50315 47.04262,6.75222 -22.75052,-11.85123 -7.85238,18.0919 0.6897,28.20847 -1.70792,24.34343 -1,-1.42641 -0.15179,-35.515 -65.52106,-5.87829 -91.45197,-15.625 C 586.53166,936.24161 317.01493,936.60112 47.5,937.5 c -5.099107,43.36244 6.508552,8.24179 -6.656855,-1 -30.292072,0.67348 -26.836146,-1.24168 4.656855,-1 1.001089,-103.99643 1.332272,-207.99929 1,-312 1.161484,-1.84137 -0.263761,-50.36923 -7.509563,-35.99937 C 54.380083,550.94759 41.695391,486.21938 46.185359,438.82029 46.634781,312.04745 46.739181,185.2734 46.5,58.5 27.653045,58.726654 -1.8349823,58.406361 37.648661,57.378234 55.755414,59.087133 41.408818,11.243419 47.5,2.5 Z"
       id="path390" />
  </g>
  <g
     id="g396">
    <path
       style="opacity:1"
       fill="#adabae"
       d="m 47.5,624.5 c 299.99876,-1.00055 599.99975,-1.33282 900,-1 0.33247,104.00071 5.9e-4,208.00356 -1,312 0,-103.66667 0,-207.33333 0,-311 -299.66667,0 -599.33333,0 -899,0 z"
       id="path394" />
  </g>
  <g
     id="g400">
    <path
       style="opacity:1"
       fill="#faf6f4"
       d="m 47.5,624.5 c 299.66667,0 599.33333,0 899,0 0,103.66667 0,207.33333 0,311 -299.66667,-10e-4 -599.33333,-10e-4 -899,0 0,-103.66667 0,-207.33333 0,-311 z"
       id="path398" />
  </g>
  <g
     id="g404">
    <path
       style="opacity:1"
       fill="#faf7f4"
       d="m 47.5,589.5 c 299.66667,0 599.33333,0 899,0 -0.0786,17.52106 5.95532,41.15465 -19.79899,33 -293.067,0 -586.13401,0 -879.20101,0 0,-11 0,-22 0,-33 z"
       id="path402" />
  </g>
  <g
     id="g408">
    <path
       style="opacity:1"
       fill="#b9b7b9"
       d="m 47.5,59.5 c 299.99876,-1.000353 599.99975,-1.332916 900,-1 0.33271,188.00039 8.8e-4,376.00197 -1,564 -0.0786,-17.52106 5.95532,-41.15465 -19.79899,-33 -293.067,0 -586.13401,0 -879.20101,0 299.66599,-0.83346 599.3329,-1.33309 899,-1.5 -299.6671,-0.16691 -599.33401,-0.66654 -899,-1.5 299.66667,0 599.33333,0 899,0 0,-175.66667 0,-351.33333 0,-527 -299.66667,0 -599.33333,0 -899,0 z"
       id="path406" />
  </g>
  <g
     id="g412">
    <path
       style="opacity:1"
       fill="#faf7f4"
       d="m 47.5,59.5 c 299.66667,0 599.33333,0 899,0 0,175.66667 0,351.33333 0,527 -299.66667,0 -599.33333,0 -899,0 0,-175.66667 0,-351.33333 0,-527 z"
       id="path410" />
  </g>
  <g
     id="g416">
    <path
       style="opacity:1"
       fill="#6b6b72"
       d="m 359.5,229.5 c 110.62581,0.66518 221.5793,-1.33135 332,1 -140.32911,1.33299 -280.67089,1.33299 -421,0 29.65419,-0.99993 59.33084,-1.33304 89,-1 z"
       id="path414" />
  </g>
  <g
     id="g420">
    <path
       style="opacity:1"
       fill="#fefefe"
       d="m 297.5,136.5 c 131.33333,0 262.66667,0 394,0 2.53705,32.23376 28.79693,105.06506 -26.62742,93 -118.4503,-1.14037 -237.02761,2.59236 -355.37258,-2.5 -14.73201,-23.05531 -6.23268,-70.13743 -12,-90.5 z"
       id="path418" />
  </g>
  <g
     id="g424">
    <path
       style="opacity:1"
       fill="#6b6a72"
       d="m 691.5,136.5 c -137.65053,-0.64162 -275.43625,1.29949 -413,-1 147.66266,-1.33299 295.33734,-1.33299 443,0 -9.96308,0.99836 -19.99256,1.33237 -30,1 z"
       id="path422" />
  </g>
  <g
     id="g428">
    <path
       style="opacity:1"
       fill="#727077"
       d="m 623.5,125.5 c 3.79456,-1.14437 -0.26988,5.43876 0,0 z"
       id="path426" />
  </g>
  <g
     id="g432">
    <path
       style="opacity:1"
       fill="#757379"
       d="m 623.5,121.5 c 3.79456,-1.14437 -0.26988,5.43876 0,0 z"
       id="path430" />
  </g>
  <g
     id="g436">
    <path
       style="opacity:1"
       fill="#757479"
       d="m 623.5,117.5 c 3.79456,-1.14437 -0.26988,5.43876 0,0 z"
       id="path434" />
  </g>
  <g
     id="g440">
    <path
       style="opacity:1"
       fill="#757379"
       d="m 623.5,113.5 c 3.79456,-1.14437 -0.26988,5.43876 0,0 z"
       id="path438" />
  </g>
  <g
     id="g444">
    <path
       style="opacity:1"
       fill="#747479"
       d="m 362.5,110.5 c 3.79456,-1.14437 -0.26988,5.43876 0,0 z"
       id="path442" />
  </g>
  <g
     id="g448">
    <path
       style="opacity:1"
       fill="#757479"
       d="m 623.5,109.5 c 3.79456,-1.14437 -0.26988,5.43876 0,0 z"
       id="path446" />
  </g>
  <g
     id="g452">
    <path
       style="opacity:1"
       fill="#747479"
       d="m 362.5,106.5 c 3.79456,-1.14437 -0.26988,5.43876 0,0 z"
       id="path450" />
  </g>
  <g
     id="g456">
    <path
       style="opacity:1"
       fill="#757379"
       d="m 623.5,105.5 c 3.79456,-1.14437 -0.26988,5.43876 0,0 z"
       id="path454" />
  </g>
  <g
     id="g460">
    <path
       style="opacity:1"
       fill="#747479"
       d="m 362.5,102.5 c 3.79456,-1.14437 -0.26988,5.43876 0,0 z"
       id="path458" />
  </g>
  <g
     id="g464">
    <path
       style="opacity:1"
       fill="#757479"
       d="m 623.5,101.5 c 3.79456,-1.14437 -0.26988,5.43876 0,0 z"
       id="path462" />
  </g>
  <g
     id="g468">
    <path
       style="opacity:1"
       fill="#747479"
       d="m 362.5,98.5 c 3.7946,-1.144049 -0.26999,5.43862 0,0 z"
       id="path466" />
  </g>
  <g
     id="g472">
    <path
       style="opacity:1"
       fill="#757379"
       d="m 623.5,97.5 c 3.7946,-1.144049 -0.26999,5.43862 0,0 z"
       id="path470" />
  </g>
  <g
     id="g476">
    <path
       style="opacity:1"
       fill="#757379"
       d="m 362.5,94.5 c 3.7946,-1.144049 -0.26999,5.438617 0,0 z"
       id="path474" />
  </g>
  <g
     id="g480">
    <path
       style="opacity:1"
       fill="#757479"
       d="m 623.5,93.5 c 3.7946,-1.144049 -0.26999,5.438617 0,0 z"
       id="path478" />
  </g>
  <g
     id="g484">
    <path
       style="opacity:1"
       fill="#757379"
       d="m 623.5,89.5 c 3.7946,-1.144049 -0.26999,5.438617 0,0 z"
       id="path482" />
  </g>
  <g
     id="g488">
    <path
       style="opacity:1"
       fill="#757479"
       d="m 623.5,85.5 c 3.7946,-1.144049 -0.26999,5.438617 0,0 z"
       id="path486" />
  </g>
  <g
     id="g492">
    <path
       style="opacity:1"
       fill="#757379"
       d="m 623.5,81.5 c 3.7946,-1.144049 -0.26999,5.438617 0,0 z"
       id="path490" />
  </g>
  <g
     id="g496">
    <path
       style="opacity:1"
       fill="#747379"
       d="m 362.5,81.5 c 3.7946,-1.144049 -0.26999,5.438617 0,0 z"
       id="path494" />
  </g>
  <g
     id="g500">
    <path
       style="opacity:1"
       fill="#757379"
       d="m 623.5,77.5 c 3.7946,-1.144049 -0.26999,5.438617 0,0 z"
       id="path498" />
  </g>
  <g
     id="g504">
    <path
       style="opacity:1"
       fill="#757379"
       d="m 362.5,77.5 c 3.7946,-1.144049 -0.26999,5.438617 0,0 z"
       id="path502" />
  </g>
  <g
     id="g508">
    <path
       style="opacity:1"
       fill="#5c5a62"
       d="m 623.5,73.5 c 3.7946,-1.144049 -0.26999,5.438617 0,0 z"
       id="path506" />
  </g>
  <g
     id="g512">
    <path
       style="opacity:1"
       fill="#74737b"
       d="m 362.5,73.5 c 3.7946,-1.144049 -0.26999,5.438617 0,0 z"
       id="path510" />
  </g>
  <g
     id="g516">
    <path
       style="opacity:1"
       fill="#8e8d92"
       d="m 14.5,936.5 c 17.413478,-0.14715 40.197657,-5.665 32,19.79899 0.125877,14.5787 3.015992,-37.80793 -24.35133,-19.17727 z"
       id="path514" />
  </g>
  <g
     id="g520">
    <path
       style="opacity:1"
       fill="#faf6f3"
       d="m 45.5,16.5 c 0.607383,26.484991 4.731945,50.225305 -31,42 37.258763,-10.891184 31.788898,17.779701 31,43.42641 0,161.85786 0,323.71573 0,485.57359 -22.453583,-5.07515 12.266804,4.85101 1,26.45585 -5.08711,18.23678 2.122336,50.04835 -1.526446,78.70655 C 42.471848,773.53773 47.559328,854.54855 45.5,935.5 c -44.80453024,3.38904 -15.6697,-5.24658 -0.121091,8.60261 0.179244,39.82073 -3.50124,-24.79766 30.405364,-6.60261 290.238577,0 580.477147,0 870.715727,0 1.65776,24.54413 4.3829,50.04453 -29.71655,39.80669 -108.81887,3.19658 -217.57061,13.99762 -326.45766,6.34142 C 439.38376,986.5128 288.46542,989.2016 137.5,987.5 113.7661,988.92197 60.194486,986.51647 26.078254,986.42309 -13.852559,983.44471 20.909844,918.05019 8.553674,886.60688 5.6420896,825.69435 12.455827,765.04377 11.242834,702.84509 11.379661,663.35078 11.957102,643.5147 11.704715,603.4008 7.0385616,565.41487 14.888522,529.52514 12.558564,490.81351 9.4344592,452.83872 13.237018,414.70057 12.5,373.5 9.0522105,311.79387 8.6897985,250.4905 10,188.5 -4.4666862,156.09415 12.880078,100.43039 10.5,58 8.6358069,36.839423 20.68903,15.647395 45.5,16.5 Z"
       id="path518" />
  </g>
  <g
     id="g524">
    <path
       style="opacity:1"
       fill="#aaa8ab"
       d="m 47.5,937.5 c 299.99876,-1.00055 599.99975,-1.33282 900,-1 -0.0725,8.1352 0.47276,54.10583 -1,31.51472 2.04739,-19.76144 2.45502,-37.88311 -22.62742,-30.51472 -292.12419,0 -584.24839,0 -876.37258,0 z"
       id="path522" />
  </g>
  <g
     id="g528">
    <path
       style="opacity:1"
       fill="#b4b3b5"
       d="m 976.5,936.5 c -35.10604,-10.16561 -25.43434,19.21963 -28,41 4.24191,-13.19599 -10.39364,-45.26944 11.31371,-41 5.5621,0 11.12419,0 16.68629,0 z"
       id="path526" />
  </g>
  <g
     id="g532">
    <path
       style="opacity:1"
       fill="#5c5b63"
       d="m 135.5,990.5 c 285.33359,-0.33142 570.66797,-0.004 856,1 -316.33146,1.333 -632.66854,1.333 -949,0 30.988055,-0.99993 61.99761,-1.33304 93,-1 z"
       id="path530" />
  </g>
</svg>
