<?xml version="1.0" encoding="UTF-8"?>
<svg xmlns="http://www.w3.org/2000/svg" xmlns:xlink="http://www.w3.org/1999/xlink" viewBox="0 0 500 500">
  <defs>
    <pattern id="uuid-8e50c8d7-0191-455e-826a-5b73ccd0923f" data-name="Lac asséché sableux USGS 17" x="0" y="0" width="72" height="72" patternTransform="translate(12341.44 7218.01) scale(2.42)" patternUnits="userSpaceOnUse" viewBox="0 0 72 72">
      <g>
        <rect width="72" height="72" style="fill: none;"/>
        <path d="M21,3c-.06,0-.12-.02-.17-.07-.05-.05-.08-.11-.08-.18s.03-.13,.08-.18c.09-.09,.25-.09,.35,0,.05,.05,.07,.11,.07,.18,0,.06-.02,.12-.07,.17-.05,.06-.11,.08-.18,.08Z" style="fill: #1d1d1b;"/>
        <path d="M20,8.25c-.06,0-.13-.03-.18-.07-.04-.05-.07-.11-.07-.18s.03-.13,.07-.18c.1-.09,.26-.09,.36,0,.04,.05,.07,.11,.07,.18s-.03,.13-.07,.18c-.05,.05-.11,.07-.18,.07Z" style="fill: #1d1d1b;"/>
        <path d="M20.25,10.5c-.06,0-.13-.03-.17-.07-.05-.05-.08-.11-.08-.18s.03-.13,.07-.18c.1-.09,.27-.09,.36,0,.04,.05,.07,.11,.07,.18s-.03,.14-.08,.18c-.04,.04-.1,.07-.17,.07Z" style="fill: #1d1d1b;"/>
        <path d="M18,12.75c-.06,0-.12-.03-.17-.07-.05-.05-.08-.11-.08-.18s.03-.13,.07-.18c.11-.09,.26-.09,.36,0,.05,.05,.07,.11,.07,.18s-.02,.13-.07,.18c-.05,.04-.11,.07-.18,.07Z" style="fill: #1d1d1b;"/>
        <path d="M15.25,10.5c-.06,0-.12-.02-.17-.07-.05-.05-.08-.12-.08-.18,0-.07,.03-.13,.07-.18,.12-.1,.26-.09,.36,0,.05,.05,.07,.11,.07,.18,0,.06-.02,.13-.07,.17-.05,.06-.11,.08-.18,.08Z" style="fill: #1d1d1b;"/>
        <path d="M22.75,20c-.06,0-.12-.02-.17-.07-.05-.05-.08-.11-.08-.18,0-.06,.03-.13,.07-.17,.11-.11,.27-.1,.36,0,.05,.06,.07,.12,.07,.18s-.02,.13-.07,.18c-.05,.04-.11,.07-.18,.07Z" style="fill: #1d1d1b;"/>
        <path d="M15.25,23c-.06,0-.12-.02-.17-.07-.05-.05-.08-.11-.08-.18,0-.06,.03-.12,.07-.17,.12-.11,.26-.1,.36,0,.05,.05,.07,.12,.07,.18,0,.07-.02,.13-.07,.18-.05,.05-.11,.07-.18,.07Z" style="fill: #1d1d1b;"/>
        <path d="M14,24c-.07,0-.13-.03-.18-.08-.04-.04-.07-.1-.07-.17s.03-.13,.07-.18c.11-.1,.26-.09,.36,0,.05,.05,.07,.12,.07,.18,0,.07-.02,.13-.07,.18-.05,.04-.11,.07-.18,.07Z" style="fill: #1d1d1b;"/>
        <path d="M24,27c-.06,0-.12-.02-.17-.07-.05-.05-.08-.11-.08-.18s.03-.13,.07-.17c.11-.11,.26-.1,.36,0,.05,.06,.07,.12,.07,.18,0,.07-.02,.13-.07,.18-.05,.05-.11,.07-.18,.07Z" style="fill: #1d1d1b;"/>
        <path d="M30.75,25.75c-.06,0-.12-.02-.17-.07-.05-.05-.08-.11-.08-.18s.03-.13,.08-.18c.1-.09,.25-.09,.35,0,.05,.05,.07,.12,.07,.18s-.02,.13-.07,.18c-.05,.05-.11,.07-.18,.07Z" style="fill: #1d1d1b;"/>
        <path d="M31.25,23.25c-.06,0-.12-.03-.17-.07-.05-.05-.08-.11-.08-.18,0-.06,.03-.13,.07-.17,.11-.11,.26-.1,.36,0,.05,.06,.07,.12,.07,.18,0,.07-.02,.13-.07,.18-.05,.04-.11,.07-.18,.07Z" style="fill: #1d1d1b;"/>
        <path d="M29.25,18.25c-.06,0-.12-.02-.17-.07-.05-.05-.08-.11-.08-.18s.03-.13,.08-.18c.1-.09,.25-.09,.35,0,.05,.05,.07,.11,.07,.18s-.03,.13-.07,.18c-.05,.05-.12,.07-.18,.07Z" style="fill: #1d1d1b;"/>
        <path d="M32.25,18.25c-.06,0-.12-.02-.17-.07-.05-.05-.08-.11-.08-.18s.03-.13,.07-.18c.11-.09,.26-.09,.36,0,.04,.05,.07,.11,.07,.18s-.03,.13-.07,.18c-.05,.05-.11,.07-.18,.07Z" style="fill: #1d1d1b;"/>
        <path d="M32.5,13.75c-.06,0-.13-.03-.17-.07-.05-.05-.08-.11-.08-.18s.03-.13,.08-.18c.09-.09,.26-.09,.35,0,.05,.05,.07,.12,.07,.18s-.02,.12-.07,.17c-.05,.05-.11,.08-.18,.08Z" style="fill: #1d1d1b;"/>
        <path d="M31.75,11.75c-.06,0-.12-.02-.17-.07-.05-.05-.08-.11-.08-.18s.03-.13,.08-.18c.1-.09,.25-.09,.35,0,.05,.05,.07,.11,.07,.18s-.03,.13-.07,.18c-.05,.05-.11,.07-.18,.07Z" style="fill: #1d1d1b;"/>
        <path d="M29.25,10.75c-.07,0-.13-.03-.18-.07-.04-.05-.07-.11-.07-.18s.03-.13,.08-.18c.1-.09,.25-.09,.35,0,.05,.05,.07,.11,.07,.18s-.02,.13-.07,.18c-.05,.04-.11,.07-.18,.07Z" style="fill: #1d1d1b;"/>
        <path d="M32.25,7c-.06,0-.12-.02-.17-.07-.05-.05-.08-.11-.08-.18s.03-.13,.07-.18c.11-.09,.26-.09,.36,0,.05,.05,.07,.11,.07,.18s-.03,.13-.07,.18c-.05,.05-.11,.07-.18,.07Z" style="fill: #1d1d1b;"/>
        <path d="M32,3c-.06,0-.12-.03-.17-.07-.05-.05-.08-.11-.08-.18s.03-.13,.08-.18c.1-.09,.25-.09,.35,0,.05,.05,.07,.12,.07,.18s-.02,.13-.07,.18c-.05,.04-.11,.07-.18,.07Z" style="fill: #1d1d1b;"/>
        <path d="M29.25,3.25c-.06,0-.12-.02-.17-.07-.05-.05-.08-.11-.08-.18s.03-.13,.08-.18c.09-.09,.25-.09,.35,0,.05,.05,.07,.11,.07,.18,0,.06-.02,.13-.07,.17-.05,.06-.11,.08-.18,.08Z" style="fill: #1d1d1b;"/>
        <path d="M34,1.25c-.06,0-.13-.03-.17-.07-.05-.05-.08-.11-.08-.18s.03-.14,.08-.18c.09-.09,.26-.09,.35,0,.05,.05,.07,.11,.07,.18,0,.06-.02,.12-.07,.17-.05,.05-.11,.08-.18,.08Z" style="fill: #1d1d1b;"/>
        <path d="M41.5,7c-.06,0-.13-.03-.17-.07-.05-.05-.08-.11-.08-.18s.03-.13,.08-.18c.09-.09,.24-.09,.34,0,.06,.06,.08,.12,.08,.18s-.02,.12-.07,.17c-.05,.06-.11,.08-.18,.08Z" style="fill: #1d1d1b;"/>
        <path d="M45.5,6.75c-.06,0-.12-.02-.17-.07-.05-.05-.08-.11-.08-.18s.03-.13,.08-.18c.09-.09,.25-.09,.35,0,.05,.05,.07,.12,.07,.18s-.02,.13-.07,.18c-.05,.05-.12,.07-.18,.07Z" style="fill: #1d1d1b;"/>
        <path d="M40.25,10.25c-.06,0-.12-.02-.17-.07-.05-.05-.08-.12-.08-.18,0-.07,.03-.13,.07-.18,.11-.09,.26-.09,.36,0,.05,.05,.07,.11,.07,.18,0,.06-.02,.13-.07,.17-.05,.06-.11,.08-.18,.08Z" style="fill: #1d1d1b;"/>
        <path d="M45,11.75c-.06,0-.12-.02-.17-.07-.05-.05-.08-.11-.08-.18s.03-.13,.08-.18c.1-.09,.25-.09,.35,0,.04,.05,.07,.11,.07,.18s-.02,.13-.07,.18c-.05,.05-.11,.07-.18,.07Z" style="fill: #1d1d1b;"/>
        <path d="M45,13.5c-.06,0-.12-.02-.17-.07-.05-.05-.08-.11-.08-.18s.03-.13,.08-.18c.08-.09,.26-.09,.35,0,.05,.04,.07,.1,.07,.17s-.02,.13-.07,.18c-.05,.05-.11,.07-.18,.07Z" style="fill: #1d1d1b;"/>
        <path d="M47,14.25c-.06,0-.12-.02-.17-.07-.05-.05-.08-.11-.08-.18s.03-.13,.08-.18c.09-.09,.25-.09,.35,0,.05,.05,.07,.12,.07,.18s-.02,.13-.07,.18c-.05,.05-.11,.07-.18,.07Z" style="fill: #1d1d1b;"/>
        <path d="M47,16.25c-.06,0-.13-.03-.17-.07-.05-.05-.08-.11-.08-.18s.03-.13,.08-.18c.08-.08,.26-.09,.35,0,.05,.04,.07,.11,.07,.17s-.02,.13-.07,.18c-.05,.04-.11,.07-.18,.07Z" style="fill: #1d1d1b;"/>
        <path d="M47.25,22.75c-.06,0-.13-.03-.17-.07-.05-.04-.08-.11-.08-.18s.03-.13,.08-.18c.08-.08,.25-.09,.35,0,.05,.05,.07,.11,.07,.18s-.03,.13-.07,.18c-.05,.05-.11,.07-.18,.07Z" style="fill: #1d1d1b;"/>
        <path d="M39,20.75c-.06,0-.12-.02-.17-.07-.05-.05-.08-.11-.08-.18s.03-.13,.08-.18c.1-.09,.25-.09,.35,0,.04,.05,.07,.11,.07,.18s-.03,.13-.07,.18c-.05,.05-.11,.07-.18,.07Z" style="fill: #1d1d1b;"/>
        <path d="M50.25,13.5c-.06,0-.13-.03-.17-.07-.05-.05-.08-.11-.08-.18s.03-.13,.08-.18c.1-.09,.26-.09,.35,0,.05,.05,.07,.12,.07,.18s-.02,.13-.07,.18c-.05,.04-.11,.07-.18,.07Z" style="fill: #1d1d1b;"/>
        <path d="M52.25,12c-.06,0-.12-.02-.17-.07-.05-.05-.08-.11-.08-.18s.03-.13,.08-.18c.09-.09,.25-.09,.35,0,.05,.05,.07,.12,.07,.18s-.02,.13-.07,.18c-.05,.05-.11,.07-.18,.07Z" style="fill: #1d1d1b;"/>
        <path d="M54.75,11c-.06,0-.13-.03-.17-.07-.05-.05-.08-.12-.08-.18,0-.07,.03-.13,.08-.18,.09-.09,.25-.09,.35,0,.05,.05,.07,.11,.07,.18,0,.06-.02,.13-.07,.18-.05,.04-.11,.07-.18,.07Z" style="fill: #1d1d1b;"/>
        <path d="M54.75,6.75c-.07,0-.13-.03-.17-.07-.05-.06-.08-.12-.08-.18s.03-.12,.07-.17c.1-.1,.26-.1,.36,0,.05,.06,.07,.12,.07,.18s-.02,.12-.07,.17c-.05,.05-.11,.08-.18,.08Z" style="fill: #1d1d1b;"/>
        <path d="M56.5,.75c-.06,0-.13-.03-.17-.07-.05-.05-.08-.12-.08-.18s.03-.13,.07-.18c.1-.09,.26-.09,.36,0,.05,.06,.07,.12,.07,.18s-.02,.12-.07,.17c-.05,.05-.11,.08-.18,.08Z" style="fill: #1d1d1b;"/>
        <path d="M64,6.5c-.06,0-.13-.03-.17-.07-.05-.05-.08-.12-.08-.18s.03-.13,.07-.17c.1-.1,.26-.1,.36,0,.05,.06,.07,.12,.07,.18s-.02,.12-.07,.17c-.05,.05-.11,.08-.18,.08Z" style="fill: #1d1d1b;"/>
        <path d="M65,2.5c-.06,0-.13-.03-.17-.07-.05-.05-.08-.11-.08-.18s.03-.13,.08-.18c.09-.09,.25-.09,.35,0,.05,.05,.07,.11,.07,.18s-.02,.13-.07,.17c-.05,.06-.11,.08-.18,.08Z" style="fill: #1d1d1b;"/>
        <path d="M68,3c-.06,0-.13-.03-.17-.07-.05-.05-.08-.11-.08-.18s.03-.13,.07-.18c.1-.09,.27-.09,.36,0,.05,.05,.07,.12,.07,.18s-.02,.13-.07,.18c-.05,.04-.11,.07-.18,.07Z" style="fill: #1d1d1b;"/>
        <path d="M68,10.25c-.06,0-.13-.03-.17-.07-.05-.05-.08-.11-.08-.18s.03-.13,.07-.18c.1-.09,.26-.09,.36,0,.05,.05,.07,.12,.07,.18s-.02,.13-.07,.18c-.05,.04-.11,.07-.18,.07Z" style="fill: #1d1d1b;"/>
        <path d="M64.25,12.25c-.06,0-.13-.03-.17-.07-.05-.05-.08-.12-.08-.18s.03-.13,.07-.17c.09-.1,.25-.1,.35,0,.06,.05,.08,.12,.08,.18s-.02,.13-.07,.17c-.05,.06-.11,.08-.18,.08Z" style="fill: #1d1d1b;"/>
        <path d="M65.25,15.75c-.07,0-.13-.03-.17-.07-.05-.05-.08-.11-.08-.18s.03-.13,.08-.18c.07-.08,.26-.09,.35,0,.05,.04,.07,.11,.07,.17s-.02,.12-.07,.17c-.04,.05-.11,.08-.18,.08Z" style="fill: #1d1d1b;"/>
        <path d="M64,19.75c-.06,0-.13-.03-.17-.07-.05-.05-.08-.11-.08-.18s.03-.13,.08-.18c.08-.09,.25-.09,.35,0,.05,.05,.07,.12,.07,.18s-.02,.13-.07,.18c-.05,.04-.11,.07-.18,.07Z" style="fill: #1d1d1b;"/>
        <path d="M66.25,19.75c-.07,0-.13-.03-.18-.08-.04-.04-.07-.1-.07-.17,0-.06,.03-.13,.07-.17,.09-.1,.26-.1,.36,0,.05,.05,.07,.12,.07,.18,0,.07-.02,.13-.07,.18-.05,.04-.11,.07-.18,.07Z" style="fill: #1d1d1b;"/>
        <path d="M68,21.25c-.06,0-.13-.03-.17-.07-.05-.05-.08-.12-.08-.18s.03-.12,.07-.17c.1-.1,.27-.1,.36,0,.05,.06,.07,.12,.07,.18s-.02,.12-.07,.17c-.05,.05-.11,.08-.18,.08Z" style="fill: #1d1d1b;"/>
        <path d="M69.25,20.25c-.06,0-.12-.02-.17-.07-.05-.05-.08-.11-.08-.18s.03-.13,.08-.18c.09-.09,.25-.09,.35,0,.05,.05,.07,.11,.07,.18s-.02,.13-.07,.18c-.05,.05-.11,.07-.18,.07Z" style="fill: #1d1d1b;"/>
        <path d="M69.5,18c-.06,0-.12-.02-.17-.07-.05-.05-.08-.11-.08-.18s.03-.13,.08-.18c.09-.09,.25-.09,.35,0,.05,.05,.07,.11,.07,.18s-.02,.13-.07,.18c-.05,.05-.11,.07-.18,.07Z" style="fill: #1d1d1b;"/>
        <path d="M71.25,17.5c-.06,0-.13-.03-.17-.07-.05-.05-.08-.12-.08-.18s.03-.12,.07-.17c.11-.1,.26-.1,.36,0,.05,.06,.07,.12,.07,.18s-.02,.12-.07,.17c-.05,.05-.11,.08-.18,.08Z" style="fill: #1d1d1b;"/>
        <path d="M8,47c-.06,0-.13-.03-.18-.07-.04-.06-.07-.12-.07-.18,0-.07,.03-.13,.07-.18,.09-.09,.26-.09,.36,0,.05,.05,.07,.11,.07,.18,0,.06-.02,.13-.07,.17-.05,.06-.11,.08-.18,.08Z" style="fill: #1d1d1b;"/>
        <path d="M7,52.25c-.06,0-.12-.02-.17-.07-.05-.05-.08-.11-.08-.18s.03-.13,.07-.18c.11-.09,.26-.09,.36,0,.05,.05,.07,.12,.07,.18,0,.07-.02,.13-.07,.18-.05,.05-.11,.07-.18,.07Z" style="fill: #1d1d1b;"/>
        <path d="M7.25,54.5c-.06,0-.13-.03-.17-.07-.05-.05-.08-.11-.08-.18,0-.06,.03-.13,.07-.18,.1-.09,.26-.09,.36,0,.04,.05,.07,.11,.07,.18s-.03,.13-.07,.18c-.05,.04-.11,.07-.18,.07Z" style="fill: #1d1d1b;"/>
        <path d="M5,56.75c-.06,0-.13-.03-.17-.07-.05-.05-.08-.11-.08-.18s.03-.13,.07-.17c.1-.1,.26-.1,.36,0,.05,.05,.07,.11,.07,.18s-.03,.13-.07,.18c-.05,.05-.12,.07-.18,.07Z" style="fill: #1d1d1b;"/>
        <path d="M2.25,54.5c-.06,0-.12-.02-.17-.07-.05-.05-.08-.11-.08-.18,0-.06,.03-.13,.07-.17,.11-.11,.26-.1,.35,0,.06,.06,.08,.12,.08,.18s-.02,.13-.07,.18c-.06,.05-.12,.07-.18,.07Z" style="fill: #1d1d1b;"/>
        <path d="M9.75,64c-.06,0-.12-.02-.17-.07-.05-.05-.08-.11-.08-.18s.03-.13,.07-.18c.11-.09,.26-.09,.36,0,.05,.05,.07,.11,.07,.18s-.02,.13-.07,.18-.11,.07-.18,.07Z" style="fill: #1d1d1b;"/>
        <path d="M2.25,67c-.06,0-.12-.03-.17-.07-.05-.05-.08-.11-.08-.18s.03-.13,.07-.18c.1-.09,.26-.09,.36,0,.05,.05,.07,.11,.07,.18,0,.06-.02,.13-.07,.18-.06,.05-.12,.07-.18,.07Z" style="fill: #1d1d1b;"/>
        <path d="M1,68c-.06,0-.13-.03-.18-.07-.04-.05-.07-.11-.07-.18,0-.06,.03-.13,.07-.18,.1-.09,.27-.09,.36,0,.05,.05,.07,.12,.07,.18s-.02,.13-.07,.18c-.05,.04-.11,.07-.18,.07Z" style="fill: #1d1d1b;"/>
        <path d="M11,71c-.06,0-.12-.02-.17-.07-.05-.05-.08-.11-.08-.18s.03-.13,.07-.18c.11-.09,.26-.09,.36,0,.05,.05,.07,.12,.07,.18s-.02,.13-.07,.18c-.05,.05-.12,.07-.18,.07Z" style="fill: #1d1d1b;"/>
        <path d="M17.75,69.75c-.06,0-.12-.02-.17-.07-.05-.05-.08-.11-.08-.18s.03-.13,.07-.18c.11-.09,.26-.09,.36,0,.05,.05,.07,.11,.07,.18s-.03,.13-.07,.18c-.05,.05-.12,.07-.18,.07Z" style="fill: #1d1d1b;"/>
        <path d="M18.25,67.25c-.06,0-.12-.03-.17-.07-.05-.06-.08-.12-.08-.18,0-.07,.03-.13,.07-.18,.11-.09,.26-.09,.36,0,.05,.05,.07,.11,.07,.18,0,.06-.02,.13-.07,.17-.05,.05-.11,.08-.18,.08Z" style="fill: #1d1d1b;"/>
        <path d="M16.25,62.25c-.07,0-.13-.03-.18-.08-.04-.04-.07-.1-.07-.17s.03-.13,.07-.18c.1-.09,.26-.09,.36,0,.05,.05,.07,.11,.07,.18s-.02,.13-.07,.18c-.05,.04-.11,.07-.18,.07Z" style="fill: #1d1d1b;"/>
        <path d="M19.25,62.25c-.06,0-.13-.03-.17-.07-.05-.05-.08-.11-.08-.18s.03-.13,.07-.18c.1-.09,.27-.09,.36,0,.04,.04,.07,.11,.07,.18s-.03,.14-.08,.18c-.04,.04-.1,.07-.17,.07Z" style="fill: #1d1d1b;"/>
        <path d="M19.5,57.75c-.06,0-.12-.02-.17-.07-.05-.05-.08-.11-.08-.18,0-.06,.03-.13,.07-.17,.11-.11,.26-.1,.36,0,.05,.06,.07,.12,.07,.18s-.02,.13-.07,.18c-.05,.05-.11,.07-.18,.07Z" style="fill: #1d1d1b;"/>
        <path d="M18.75,55.75c-.06,0-.12-.02-.17-.07-.05-.05-.08-.11-.08-.18s.03-.13,.08-.18c.1-.09,.26-.09,.35,0,.05,.05,.07,.12,.07,.18s-.02,.12-.07,.17c-.05,.05-.11,.08-.18,.08Z" style="fill: #1d1d1b;"/>
        <path d="M16.25,54.75c-.06,0-.13-.03-.18-.07-.04-.05-.07-.11-.07-.18,0-.06,.03-.12,.07-.17,.1-.1,.26-.1,.36,0,.05,.05,.07,.12,.07,.18,0,.07-.02,.13-.07,.18-.05,.05-.11,.07-.18,.07Z" style="fill: #1d1d1b;"/>
        <path d="M19.25,51c-.06,0-.13-.03-.17-.07-.05-.05-.08-.12-.08-.18,0-.07,.03-.13,.07-.18,.1-.09,.27-.09,.36,0,.04,.04,.07,.11,.07,.18s-.02,.13-.07,.18c-.05,.04-.11,.07-.18,.07Z" style="fill: #1d1d1b;"/>
        <path d="M19,47c-.06,0-.13-.03-.17-.07-.05-.05-.08-.12-.08-.18,0-.07,.03-.13,.07-.18,.1-.09,.26-.09,.36,0,.04,.05,.07,.11,.07,.18,0,.06-.02,.13-.07,.17-.05,.06-.11,.08-.18,.08Z" style="fill: #1d1d1b;"/>
        <path d="M16.25,47.25c-.07,0-.13-.03-.18-.07-.04-.05-.07-.12-.07-.18,0-.07,.03-.13,.07-.18,.09-.09,.26-.09,.36,0,.05,.05,.07,.11,.07,.18,0,.06-.02,.13-.07,.18-.05,.05-.11,.07-.18,.07Z" style="fill: #1d1d1b;"/>
        <path d="M21,45.25c-.06,0-.12-.02-.17-.07-.05-.05-.08-.11-.08-.18s.03-.13,.08-.18c.1-.09,.25-.09,.35,0,.05,.05,.07,.12,.07,.18s-.02,.12-.07,.17c-.05,.06-.11,.08-.18,.08Z" style="fill: #1d1d1b;"/>
        <path d="M28.5,51c-.06,0-.13-.03-.17-.07-.05-.05-.08-.11-.08-.18s.03-.13,.08-.18c.09-.09,.26-.09,.35,0,.05,.06,.07,.12,.07,.18s-.02,.13-.07,.18c-.05,.04-.11,.07-.18,.07Z" style="fill: #1d1d1b;"/>
        <path d="M32.5,50.75c-.06,0-.13-.03-.17-.07-.05-.05-.08-.11-.08-.18s.03-.13,.08-.18c.09-.09,.25-.09,.35,0,.05,.05,.07,.12,.07,.18s-.02,.13-.07,.18c-.05,.04-.11,.07-.18,.07Z" style="fill: #1d1d1b;"/>
        <path d="M27.25,54.25c-.07,0-.13-.03-.18-.08-.04-.04-.07-.1-.07-.17s.03-.14,.08-.18c.09-.09,.26-.09,.35,0,.05,.05,.07,.11,.07,.18,0,.06-.02,.13-.07,.18-.04,.04-.11,.07-.18,.07Z" style="fill: #1d1d1b;"/>
        <path d="M32,55.75c-.06,0-.12-.03-.17-.07-.05-.05-.08-.11-.08-.18,0-.06,.03-.13,.07-.17,.11-.11,.26-.1,.36,0,.05,.06,.07,.12,.07,.18,0,.07-.02,.13-.07,.18-.05,.04-.11,.07-.18,.07Z" style="fill: #1d1d1b;"/>
        <path d="M32,57.5c-.06,0-.12-.02-.17-.07-.05-.05-.08-.11-.08-.18,0-.06,.03-.13,.07-.17,.11-.11,.26-.1,.36,0,.05,.06,.07,.12,.07,.18s-.02,.13-.07,.18c-.05,.05-.11,.07-.18,.07Z" style="fill: #1d1d1b;"/>
        <path d="M34,58.25c-.07,0-.13-.03-.18-.08-.04-.04-.07-.1-.07-.17s.03-.14,.08-.18c.09-.09,.26-.09,.35,0,.05,.05,.07,.11,.07,.18,0,.06-.02,.13-.07,.18-.04,.04-.11,.07-.18,.07Z" style="fill: #1d1d1b;"/>
        <path d="M34,60.25c-.06,0-.12-.02-.17-.07-.05-.05-.08-.11-.08-.18s.03-.13,.08-.18c.09-.09,.26-.09,.35,0,.05,.06,.07,.12,.07,.18s-.02,.13-.07,.18c-.05,.04-.11,.07-.18,.07Z" style="fill: #1d1d1b;"/>
        <path d="M34.25,66.75c-.06,0-.13-.03-.17-.07-.05-.05-.08-.11-.08-.18s.03-.13,.08-.18c.09-.09,.25-.09,.35,0,.05,.05,.07,.12,.07,.18s-.02,.13-.07,.18c-.05,.04-.11,.07-.18,.07Z" style="fill: #1d1d1b;"/>
        <path d="M26,64.75c-.06,0-.12-.02-.17-.07-.05-.05-.08-.11-.08-.18s.03-.13,.08-.18c.09-.09,.26-.09,.35,0,.05,.04,.07,.11,.07,.17,0,.07-.02,.13-.07,.18-.05,.05-.11,.07-.18,.07Z" style="fill: #1d1d1b;"/>
        <path d="M37.25,57.5c-.06,0-.13-.03-.17-.07-.05-.05-.08-.11-.08-.18s.03-.13,.08-.18c.09-.09,.25-.09,.34,0,.06,.05,.08,.12,.08,.18s-.02,.12-.07,.17c-.05,.06-.11,.08-.18,.08Z" style="fill: #1d1d1b;"/>
        <path d="M39.25,56c-.06,0-.13-.03-.17-.07-.05-.05-.08-.11-.08-.18s.03-.13,.08-.18c.09-.09,.25-.09,.35,0,.05,.05,.07,.12,.07,.18s-.02,.12-.07,.17c-.05,.06-.11,.08-.18,.08Z" style="fill: #1d1d1b;"/>
        <path d="M41.75,55c-.06,0-.13-.03-.17-.07-.05-.05-.08-.11-.08-.18s.03-.14,.08-.18c.09-.09,.26-.09,.35,0,.05,.05,.07,.11,.07,.18,0,.06-.02,.12-.07,.17-.05,.05-.11,.08-.18,.08Z" style="fill: #1d1d1b;"/>
        <path d="M41.75,50.75c-.06,0-.12-.02-.17-.07-.05-.05-.08-.11-.08-.18s.03-.13,.08-.18c.09-.09,.26-.09,.35,0,.05,.05,.07,.11,.07,.18,0,.06-.02,.13-.07,.18-.05,.04-.11,.07-.18,.07Z" style="fill: #1d1d1b;"/>
        <path d="M43.5,44.75c-.06,0-.12-.03-.17-.07-.05-.05-.08-.11-.08-.18s.03-.13,.08-.18c.09-.09,.25-.09,.35,0,.05,.05,.07,.12,.07,.18s-.02,.13-.07,.18c-.05,.05-.12,.07-.18,.07Z" style="fill: #1d1d1b;"/>
        <path d="M51,50.5c-.06,0-.12-.03-.17-.07-.05-.05-.08-.11-.08-.18s.03-.13,.08-.18c.09-.09,.25-.09,.35,0,.05,.05,.07,.11,.07,.18s-.02,.13-.07,.18c-.05,.05-.11,.07-.18,.07Z" style="fill: #1d1d1b;"/>
        <path d="M52,46.5c-.06,0-.13-.03-.17-.07-.05-.05-.08-.11-.08-.18s.03-.13,.08-.18c.09-.09,.25-.09,.35,0,.05,.06,.07,.12,.07,.18s-.02,.12-.07,.17c-.05,.06-.11,.08-.18,.08Z" style="fill: #1d1d1b;"/>
        <path d="M55,47c-.06,0-.12-.02-.17-.07-.05-.05-.08-.11-.08-.18s.03-.13,.08-.18c.09-.09,.25-.09,.35,0,.05,.05,.07,.12,.07,.18s-.02,.13-.07,.18c-.05,.05-.11,.07-.18,.07Z" style="fill: #1d1d1b;"/>
        <path d="M55,54.25c-.06,0-.12-.03-.17-.07-.05-.05-.08-.11-.08-.18s.03-.13,.08-.18c.09-.09,.25-.09,.35,0,.05,.05,.07,.12,.07,.18s-.02,.13-.07,.18c-.05,.05-.11,.07-.18,.07Z" style="fill: #1d1d1b;"/>
        <path d="M51.25,56.25c-.06,0-.13-.03-.17-.07-.05-.05-.08-.11-.08-.18s.03-.13,.08-.18c.09-.09,.25-.09,.35,0,.05,.05,.07,.11,.07,.18s-.02,.13-.07,.18c-.05,.04-.11,.07-.18,.07Z" style="fill: #1d1d1b;"/>
        <path d="M52.25,59.75c-.06,0-.12-.02-.17-.07-.05-.05-.08-.11-.08-.18s.03-.13,.08-.18c.09-.09,.25-.09,.35,0,.05,.06,.07,.12,.07,.18s-.02,.12-.07,.17c-.05,.06-.11,.08-.18,.08Z" style="fill: #1d1d1b;"/>
        <path d="M51,63.75c-.06,0-.13-.03-.17-.07-.05-.05-.08-.11-.08-.18s.03-.13,.08-.18c.09-.09,.25-.09,.35,0,.05,.05,.07,.12,.07,.18s-.02,.13-.07,.17c-.05,.06-.11,.08-.18,.08Z" style="fill: #1d1d1b;"/>
        <path d="M53.25,63.75c-.06,0-.13-.03-.17-.07-.05-.05-.08-.12-.08-.18s.03-.13,.07-.17c.1-.1,.26-.1,.36,0,.05,.06,.07,.12,.07,.18s-.02,.12-.07,.17c-.05,.05-.11,.08-.18,.08Z" style="fill: #1d1d1b;"/>
        <path d="M55,65.25c-.06,0-.12-.03-.17-.07-.05-.05-.08-.11-.08-.18s.03-.13,.08-.18c.09-.09,.25-.09,.35,0,.05,.05,.07,.12,.07,.18s-.02,.13-.07,.18c-.05,.05-.11,.07-.18,.07Z" style="fill: #1d1d1b;"/>
        <path d="M56.25,64.25c-.06,0-.12-.03-.17-.07-.05-.05-.08-.11-.08-.18s.03-.13,.08-.18c.09-.09,.25-.09,.35,0,.05,.05,.07,.12,.07,.18,0,.07-.02,.13-.07,.18-.05,.05-.11,.07-.18,.07Z" style="fill: #1d1d1b;"/>
        <path d="M56.5,62c-.06,0-.13-.03-.17-.07-.05-.06-.08-.12-.08-.18,0-.07,.03-.13,.08-.18,.07-.08,.26-.09,.35,0,.05,.04,.07,.11,.07,.17s-.02,.12-.07,.17c-.05,.05-.11,.08-.18,.08Z" style="fill: #1d1d1b;"/>
        <path d="M58.25,61.5c-.06,0-.13-.03-.17-.07-.05-.05-.08-.12-.08-.18s.03-.13,.07-.17c.1-.1,.27-.1,.36,0,.05,.06,.07,.12,.07,.18s-.02,.12-.07,.17c-.04,.05-.11,.08-.18,.08Z" style="fill: #1d1d1b;"/>
        <path d="M21,27c-.06,0-.12-.02-.17-.07-.05-.05-.08-.11-.08-.18s.03-.13,.08-.18c.1-.09,.25-.09,.35,0,.05,.05,.07,.12,.07,.18s-.02,.13-.07,.18c-.05,.05-.12,.07-.18,.07Z" style="fill: #1d1d1b;"/>
        <path d="M22.75,24c-.07,0-.13-.03-.18-.07-.04-.05-.07-.11-.07-.18s.03-.13,.08-.18c.1-.09,.26-.09,.35,0,.05,.05,.07,.12,.07,.18s-.02,.13-.07,.18c-.04,.04-.11,.07-.18,.07Z" style="fill: #1d1d1b;"/>
        <path d="M25.25,24.5c-.06,0-.12-.03-.17-.07-.05-.05-.08-.11-.08-.18s.03-.13,.08-.18c.1-.09,.25-.09,.35,0,.05,.05,.07,.12,.07,.18s-.02,.13-.07,.18c-.05,.04-.11,.07-.18,.07Z" style="fill: #1d1d1b;"/>
        <path d="M35.25,23.25c-.06,0-.12-.02-.17-.07-.05-.05-.08-.11-.08-.18s.03-.13,.08-.18c.1-.09,.25-.09,.35,0,.05,.05,.07,.11,.07,.18s-.03,.13-.07,.18c-.05,.05-.11,.07-.18,.07Z" style="fill: #1d1d1b;"/>
        <path d="M39,24.75c-.06,0-.12-.02-.17-.07-.05-.05-.08-.11-.08-.18s.03-.13,.08-.18c.1-.09,.25-.09,.35,0,.05,.05,.07,.11,.07,.18s-.03,.13-.07,.18c-.05,.05-.12,.07-.18,.07Z" style="fill: #1d1d1b;"/>
        <path d="M45,29.5c-.06,0-.12-.02-.17-.07-.05-.05-.08-.11-.08-.18s.03-.13,.08-.18c.1-.09,.25-.09,.35,0,.05,.05,.07,.11,.07,.18s-.02,.13-.07,.18c-.05,.05-.12,.07-.18,.07Z" style="fill: #1d1d1b;"/>
        <path d="M46.25,29c-.06,0-.13-.03-.17-.07-.05-.05-.08-.11-.08-.18s.03-.13,.08-.18c.09-.09,.25-.09,.34,0,.06,.06,.08,.12,.08,.18s-.02,.12-.07,.17c-.05,.06-.11,.08-.18,.08Z" style="fill: #1d1d1b;"/>
        <path d="M55.25,28c-.06,0-.13-.03-.17-.07-.05-.05-.08-.11-.08-.18s.03-.13,.08-.18c.09-.09,.25-.09,.35,0,.05,.05,.07,.12,.07,.18s-.02,.13-.07,.18c-.05,.04-.11,.07-.18,.07Z" style="fill: #1d1d1b;"/>
        <path d="M51.25,25.25c-.06,0-.12-.02-.17-.07-.05-.05-.08-.11-.08-.18s.03-.13,.08-.18c.09-.09,.25-.09,.35,0,.05,.05,.07,.11,.07,.18s-.03,.13-.07,.18c-.05,.05-.11,.07-.18,.07Z" style="fill: #1d1d1b;"/>
        <path d="M52,29.5c-.06,0-.13-.03-.17-.07-.05-.05-.08-.11-.08-.18s.03-.13,.08-.18c.09-.09,.25-.09,.35,0,.05,.06,.07,.12,.07,.18s-.02,.12-.07,.17c-.05,.06-.11,.08-.18,.08Z" style="fill: #1d1d1b;"/>
        <path d="M62.5,35.5c-.06,0-.13-.03-.17-.07-.05-.05-.08-.11-.08-.18s.03-.13,.08-.18c.08-.08,.24-.09,.34,0,.06,.05,.08,.12,.08,.18s-.02,.13-.07,.18c-.05,.05-.12,.07-.18,.07Z" style="fill: #1d1d1b;"/>
        <path d="M58.25,38.25c-.07,0-.13-.03-.17-.07-.05-.05-.08-.12-.08-.18s.03-.13,.07-.17c.1-.1,.27-.1,.36,0,.05,.06,.07,.12,.07,.18s-.02,.12-.07,.17c-.04,.05-.11,.08-.18,.08Z" style="fill: #1d1d1b;"/>
        <path d="M49,39c-.07,0-.13-.03-.17-.07-.05-.05-.08-.12-.08-.18s.03-.13,.07-.17c.1-.1,.26-.1,.36,0,.05,.06,.07,.12,.07,.18s-.02,.12-.07,.17c-.05,.05-.11,.08-.18,.08Z" style="fill: #1d1d1b;"/>
        <path d="M48,41.25c-.06,0-.12-.02-.17-.07-.05-.05-.08-.11-.08-.18s.03-.13,.08-.18c.09-.09,.24-.09,.34,0,.06,.05,.08,.12,.08,.18s-.02,.12-.07,.17c-.06,.06-.11,.08-.18,.08Z" style="fill: #1d1d1b;"/>
        <path d="M52,43c-.07,0-.13-.03-.18-.08-.04-.04-.07-.1-.07-.17s.03-.13,.08-.18c.09-.09,.25-.09,.35,0,.05,.05,.07,.12,.07,.18s-.02,.13-.07,.18c-.05,.04-.11,.07-.18,.07Z" style="fill: #1d1d1b;"/>
        <path d="M53.5,45c-.06,0-.13-.03-.17-.07-.05-.05-.08-.11-.08-.18s.03-.13,.08-.18c.08-.09,.25-.09,.35,0,.05,.05,.07,.12,.07,.18s-.02,.13-.07,.18c-.05,.04-.11,.07-.18,.07Z" style="fill: #1d1d1b;"/>
        <path d="M62.25,48c-.06,0-.13-.03-.17-.07-.05-.05-.08-.12-.08-.18s.03-.13,.07-.17c.1-.1,.26-.1,.36,0,.05,.06,.07,.12,.07,.18s-.02,.12-.07,.17c-.05,.05-.11,.08-.18,.08Z" style="fill: #1d1d1b;"/>
        <path d="M65,51.75c-.06,0-.12-.03-.17-.07-.05-.05-.08-.11-.08-.18s.03-.14,.08-.18c.09-.08,.25-.09,.35,0,.04,.05,.07,.11,.07,.18s-.02,.13-.07,.18c-.05,.05-.11,.07-.18,.07Z" style="fill: #1d1d1b;"/>
        <path d="M67,51.75c-.06,0-.13-.03-.17-.07-.05-.05-.08-.11-.08-.18s.03-.13,.08-.18c.08-.08,.25-.09,.35,0,.05,.05,.07,.11,.07,.18s-.02,.13-.07,.18c-.05,.05-.11,.07-.18,.07Z" style="fill: #1d1d1b;"/>
        <path d="M69.5,45c-.06,0-.12-.03-.17-.07-.05-.05-.08-.11-.08-.18s.03-.13,.08-.18c.09-.09,.25-.09,.35,0,.05,.05,.07,.11,.07,.18s-.02,.13-.07,.18c-.05,.05-.11,.07-.18,.07Z" style="fill: #1d1d1b;"/>
        <path d="M60,39c-.06,0-.12-.02-.17-.07-.05-.05-.08-.11-.08-.18s.03-.13,.08-.18c.09-.09,.25-.09,.35,0,.04,.05,.07,.11,.07,.18s-.03,.13-.07,.18c-.05,.05-.11,.07-.18,.07Z" style="fill: #1d1d1b;"/>
        <path d="M47.25,47.75c-.06,0-.13-.03-.17-.07-.05-.05-.08-.11-.08-.18s.03-.14,.08-.18c.08-.08,.25-.09,.35,0,.04,.05,.07,.11,.07,.18s-.02,.13-.07,.18c-.05,.05-.11,.07-.18,.07Z" style="fill: #1d1d1b;"/>
        <path d="M32.5,47c-.06,0-.12-.03-.17-.07-.05-.05-.08-.11-.08-.18s.03-.13,.08-.18c.09-.09,.26-.09,.35,0,.05,.05,.07,.12,.07,.18s-.02,.13-.07,.18c-.05,.04-.11,.07-.18,.07Z" style="fill: #1d1d1b;"/>
        <path d="M37,44.5c-.06,0-.12-.03-.17-.07-.05-.05-.08-.12-.08-.18,0-.07,.03-.13,.07-.17,.11-.11,.26-.1,.36,0,.05,.05,.07,.12,.07,.18s-.02,.13-.07,.17c-.05,.05-.11,.08-.18,.08Z" style="fill: #1d1d1b;"/>
        <path d="M26.25,37.75c-.06,0-.12-.03-.17-.07-.05-.05-.08-.11-.08-.18s.03-.13,.08-.18c.1-.09,.25-.09,.35,0,.05,.05,.07,.12,.07,.18s-.02,.13-.07,.18c-.05,.04-.11,.07-.18,.07Z" style="fill: #1d1d1b;"/>
        <path d="M29.75,35.5c-.06,0-.12-.02-.17-.07-.05-.05-.08-.11-.08-.18s.03-.13,.08-.18c.1-.09,.25-.09,.35,0,.05,.05,.07,.12,.07,.18s-.02,.12-.07,.17c-.05,.06-.11,.08-.18,.08Z" style="fill: #1d1d1b;"/>
        <path d="M17,28.5c-.06,0-.12-.02-.17-.07-.05-.05-.08-.11-.08-.18,0-.06,.03-.12,.07-.17,.11-.11,.26-.1,.36,0,.05,.05,.07,.12,.07,.18,0,.07-.02,.13-.07,.18-.05,.05-.11,.07-.18,.07Z" style="fill: #1d1d1b;"/>
        <path d="M10.5,29.5c-.06,0-.12-.02-.17-.07-.05-.05-.08-.11-.08-.18,0-.06,.03-.12,.07-.17,.11-.11,.26-.1,.36,0,.05,.06,.07,.12,.07,.18s-.02,.13-.07,.18c-.05,.05-.11,.07-.18,.07Z" style="fill: #1d1d1b;"/>
        <path d="M6,31.5c-.06,0-.12-.02-.17-.07-.05-.05-.08-.11-.08-.18,0-.06,.03-.12,.07-.17,.12-.11,.26-.1,.36,0,.05,.06,.07,.12,.07,.18,0,.07-.02,.13-.07,.18-.05,.05-.11,.07-.18,.07Z" style="fill: #1d1d1b;"/>
        <path d="M2.5,35.25c-.07,0-.13-.03-.17-.07-.05-.05-.08-.12-.08-.18,0-.07,.03-.13,.08-.18,.08-.09,.24-.09,.34,0,.06,.05,.08,.11,.08,.18,0,.06-.02,.13-.07,.17-.05,.06-.11,.08-.18,.08Z" style="fill: #1d1d1b;"/>
        <path d="M11.25,36.75c-.07,0-.13-.03-.18-.07-.04-.05-.07-.12-.07-.18,0-.07,.03-.13,.07-.18,.1-.09,.25-.09,.36,0,.05,.05,.07,.11,.07,.18s-.02,.13-.07,.18c-.05,.05-.11,.07-.18,.07Z" style="fill: #1d1d1b;"/>
        <path d="M17,42c-.06,0-.12-.02-.17-.07-.05-.05-.08-.11-.08-.18,0-.06,.03-.13,.07-.18,.11-.09,.26-.09,.36,0,.05,.05,.07,.11,.07,.18s-.03,.13-.07,.18c-.05,.05-.11,.07-.18,.07Z" style="fill: #1d1d1b;"/>
        <path d="M12.75,36c-.06,0-.13-.03-.17-.07-.05-.05-.08-.11-.08-.18,0-.06,.03-.13,.07-.17,.1-.1,.26-.1,.36,0,.05,.05,.07,.11,.07,.18s-.02,.13-.07,.18c-.05,.05-.12,.07-.18,.07Z" style="fill: #1d1d1b;"/>
        <path d="M26.5,30.25c-.06,0-.12-.02-.17-.07-.05-.05-.08-.11-.08-.18s.03-.13,.08-.18c.1-.09,.25-.09,.35,0,.05,.05,.07,.12,.07,.18s-.02,.13-.07,.18c-.05,.05-.11,.07-.18,.07Z" style="fill: #1d1d1b;"/>
        <path d="M37.75,31c-.06,0-.12-.02-.17-.07-.05-.05-.08-.11-.08-.18s.03-.13,.08-.18c.1-.09,.25-.09,.35,0,.05,.05,.07,.11,.07,.18s-.02,.13-.07,.18c-.05,.05-.12,.07-.18,.07Z" style="fill: #1d1d1b;"/>
        <path d="M39.5,32.5c-.06,0-.12-.02-.17-.07-.05-.05-.08-.11-.08-.18s.03-.13,.08-.18c.08-.09,.26-.09,.35,0,.05,.04,.07,.11,.07,.17s-.02,.13-.07,.18c-.05,.04-.11,.07-.18,.07Z" style="fill: #1d1d1b;"/>
        <path d="M28,42c-.06,0-.12-.03-.17-.07-.05-.05-.08-.12-.08-.18s.03-.12,.07-.17c.11-.1,.26-.1,.35,0,.06,.06,.08,.12,.08,.18s-.02,.13-.07,.17c-.05,.06-.11,.08-.18,.08Z" style="fill: #1d1d1b;"/>
        <path d="M6.5,20.5c-.06,0-.13-.03-.17-.07-.05-.05-.08-.12-.08-.18,0-.07,.03-.13,.07-.18,.1-.09,.26-.09,.36,0,.05,.05,.07,.11,.07,.18,0,.06-.02,.13-.07,.17-.05,.06-.11,.08-.18,.08Z" style="fill: #1d1d1b;"/>
        <path d="M10.25,20.25c-.06,0-.13-.03-.17-.07-.05-.05-.08-.11-.08-.18s.03-.13,.07-.18c.1-.09,.26-.09,.36,0,.05,.05,.07,.11,.07,.18s-.02,.13-.07,.18c-.05,.05-.11,.07-.18,.07Z" style="fill: #1d1d1b;"/>
        <path d="M11.75,23.5c-.06,0-.12-.02-.17-.07-.05-.05-.08-.11-.08-.18,0-.06,.03-.12,.07-.17,.11-.11,.26-.1,.36,0,.05,.06,.07,.12,.07,.18s-.02,.13-.07,.18c-.05,.05-.12,.07-.18,.07Z" style="fill: #1d1d1b;"/>
        <path d="M3,25.75c-.06,0-.13-.03-.17-.07-.05-.05-.08-.11-.08-.18s.03-.13,.07-.18c.1-.09,.26-.09,.36,0,.05,.05,.07,.11,.07,.18s-.02,.13-.07,.18c-.05,.05-.12,.07-.18,.07Z" style="fill: #1d1d1b;"/>
        <path d="M64.25,29.5c-.06,0-.13-.03-.17-.07-.05-.05-.08-.12-.08-.18s.03-.13,.07-.17c.1-.1,.25-.1,.35,0,.06,.05,.08,.12,.08,.18s-.02,.13-.07,.17c-.05,.06-.11,.08-.18,.08Z" style="fill: #1d1d1b;"/>
        <path d="M67.5,30.75c-.06,0-.13-.03-.17-.07-.05-.05-.08-.11-.08-.18,0-.06,.03-.13,.07-.17,.1-.1,.26-.1,.36,0,.05,.06,.07,.12,.07,.18s-.02,.13-.07,.18c-.05,.04-.11,.07-.18,.07Z" style="fill: #1d1d1b;"/>
        <path d="M69.5,29.75c-.06,0-.13-.03-.17-.07-.05-.05-.08-.11-.08-.18s.03-.13,.08-.18c.09-.09,.25-.09,.35,0,.05,.05,.07,.11,.07,.18s-.02,.13-.07,.18c-.05,.04-.11,.07-.18,.07Z" style="fill: #1d1d1b;"/>
        <path d="M7.25,15.75c-.07,0-.13-.03-.18-.08-.04-.04-.07-.1-.07-.17s.03-.13,.07-.18c.1-.09,.26-.09,.36,0,.04,.05,.07,.11,.07,.18s-.03,.13-.07,.18c-.05,.04-.11,.07-.18,.07Z" style="fill: #1d1d1b;"/>
        <path d="M1.5,9c-.06,0-.13-.03-.18-.07-.04-.05-.07-.11-.07-.18s.03-.13,.07-.18c.09-.09,.26-.09,.36,0,.05,.05,.07,.12,.07,.18s-.02,.13-.07,.18c-.05,.04-.11,.07-.18,.07Z" style="fill: #1d1d1b;"/>
        <path d="M14.5,6.5c-.06,0-.12-.02-.17-.07-.05-.05-.08-.11-.08-.18,0-.06,.03-.13,.07-.17,.11-.11,.26-.1,.36,0,.05,.05,.07,.11,.07,.18s-.02,.13-.07,.18c-.05,.05-.11,.07-.18,.07Z" style="fill: #1d1d1b;"/>
        <path d="M8.5,5.25c-.06,0-.12-.02-.17-.07-.05-.05-.08-.11-.08-.18s.03-.13,.07-.18c.1-.09,.27-.09,.36,0,.05,.04,.07,.1,.07,.17,0,.06-.02,.13-.07,.18-.05,.05-.11,.07-.18,.07Z" style="fill: #1d1d1b;"/>
        <path d="M3.5,2.5c-.07,0-.13-.03-.18-.08-.04-.04-.07-.1-.07-.17s.03-.13,.08-.18c.08-.09,.25-.09,.35,0,.04,.05,.07,.11,.07,.18s-.03,.13-.07,.18c-.05,.04-.11,.07-.18,.07Z" style="fill: #1d1d1b;"/>
        <path d="M3.75,6c-.06,0-.13-.03-.17-.07-.05-.05-.08-.11-.08-.18,0-.06,.03-.13,.07-.18,.09-.09,.26-.09,.36,0,.05,.05,.07,.11,.07,.18s-.02,.13-.07,.18c-.05,.05-.12,.07-.18,.07Z" style="fill: #1d1d1b;"/>
        <path d="M12.75,14.25c-.06,0-.13-.03-.17-.07-.05-.05-.08-.12-.08-.18,0-.07,.03-.13,.07-.18,.1-.09,.26-.09,.36,0,.05,.05,.07,.11,.07,.18,0,.06-.02,.13-.07,.17-.05,.06-.11,.08-.18,.08Z" style="fill: #1d1d1b;"/>
        <path d="M18.5,19.25c-.06,0-.12-.02-.17-.07-.05-.05-.08-.11-.08-.18,0-.06,.03-.13,.07-.17,.11-.11,.27-.1,.36,0,.05,.06,.07,.12,.07,.18,0,.07-.02,.13-.07,.18-.05,.04-.11,.07-.18,.07Z" style="fill: #1d1d1b;"/>
        <path d="M21.25,37c-.06,0-.12-.02-.17-.07-.05-.05-.08-.12-.08-.18,0-.07,.03-.13,.07-.18,.11-.09,.26-.09,.36,0,.05,.05,.07,.11,.07,.18,0,.06-.02,.13-.07,.17-.05,.06-.11,.08-.18,.08Z" style="fill: #1d1d1b;"/>
        <path d="M.75,44.25c-.06,0-.13-.03-.17-.07-.05-.05-.08-.11-.08-.18s.03-.13,.08-.18c.07-.08,.25-.09,.35,0,.04,.04,.07,.1,.07,.17s-.03,.13-.07,.18c-.05,.04-.11,.07-.18,.07Z" style="fill: #1d1d1b;"/>
        <path d="M66.5,37.25c-.06,0-.13-.03-.17-.07-.05-.05-.08-.11-.08-.18s.03-.13,.08-.18c.09-.09,.25-.09,.35,0,.05,.05,.07,.12,.07,.18s-.02,.13-.07,.18c-.05,.04-.11,.07-.18,.07Z" style="fill: #1d1d1b;"/>
        <path d="M68,66c-.06,0-.13-.03-.17-.07-.05-.05-.08-.12-.08-.18,0-.07,.03-.13,.07-.18,.1-.09,.26-.09,.36,0,.05,.05,.07,.12,.07,.18s-.02,.12-.07,.17c-.05,.05-.11,.08-.18,.08Z" style="fill: #1d1d1b;"/>
        <path d="M59.75,69.75c-.07,0-.13-.03-.18-.08-.04-.04-.07-.1-.07-.17s.03-.13,.08-.18c.09-.09,.25-.09,.35,0,.05,.05,.07,.12,.07,.18,0,.07-.02,.13-.07,.18-.05,.04-.11,.07-.18,.07Z" style="fill: #1d1d1b;"/>
        <path d="M40.5,68c-.06,0-.12-.02-.17-.07-.05-.05-.08-.11-.08-.18s.03-.13,.08-.18c.09-.09,.25-.09,.35,0,.05,.05,.07,.12,.07,.18s-.02,.13-.07,.18c-.05,.05-.12,.07-.18,.07Z" style="fill: #1d1d1b;"/>
        <path d="M44,63c-.06,0-.12-.02-.17-.07-.05-.04-.08-.11-.08-.18s.03-.13,.08-.18c.09-.09,.25-.09,.35,0,.05,.05,.07,.12,.07,.18,0,.07-.02,.13-.07,.18-.05,.05-.11,.07-.18,.07Z" style="fill: #1d1d1b;"/>
        <path d="M25.75,70c-.06,0-.12-.02-.17-.07-.05-.05-.08-.11-.08-.18s.03-.13,.08-.18c.09-.09,.25-.09,.35,0,.05,.05,.07,.11,.07,.18,0,.06-.02,.12-.07,.17-.05,.06-.11,.08-.18,.08Z" style="fill: #1d1d1b;"/>
        <path d="M4.5,60c-.06,0-.12-.02-.17-.07-.05-.05-.08-.11-.08-.18,0-.06,.03-.13,.07-.17,.11-.11,.26-.1,.36,0,.05,.06,.07,.12,.07,.18s-.02,.13-.07,.18c-.05,.05-.12,.07-.18,.07Z" style="fill: #1d1d1b;"/>
        <path d="M26.5,59.5c-.06,0-.12-.02-.17-.07-.05-.05-.08-.11-.08-.18s.03-.13,.08-.18c.1-.09,.25-.09,.35,0,.05,.05,.07,.11,.07,.18,0,.06-.02,.13-.07,.18-.05,.05-.11,.07-.18,.07Z" style="fill: #1d1d1b;"/>
        <path d="M37.25,48.5c-.06,0-.12-.03-.17-.07-.05-.05-.08-.11-.08-.18s.03-.13,.08-.18c.09-.09,.24-.09,.34,0,.06,.05,.08,.12,.08,.18s-.02,.13-.07,.18c-.06,.05-.12,.07-.18,.07Z" style="fill: #1d1d1b;"/>
        <path d="M22,41.75c-.06,0-.12-.02-.17-.07-.05-.05-.08-.11-.08-.18s.03-.13,.08-.18c.1-.09,.25-.09,.35,0,.05,.05,.07,.12,.07,.18s-.02,.13-.07,.18c-.05,.05-.12,.07-.18,.07Z" style="fill: #1d1d1b;"/>
        <path d="M8.75,40.25c-.06,0-.13-.03-.17-.07-.05-.05-.08-.12-.08-.18,0-.07,.03-.13,.08-.18,.09-.09,.25-.09,.35,0,.04,.05,.07,.11,.07,.18s-.02,.13-.07,.18c-.05,.05-.11,.07-.18,.07Z" style="fill: #1d1d1b;"/>
        <path d="M24,29c-.06,0-.12-.02-.17-.07-.05-.05-.08-.11-.08-.18s.03-.13,.08-.18c.1-.09,.25-.09,.35,0,.05,.05,.07,.12,.07,.18s-.02,.12-.07,.17c-.05,.06-.11,.08-.18,.08Z" style="fill: #1d1d1b;"/>
        <path d="M41.5,34.5c-.06,0-.13-.03-.17-.07-.05-.05-.08-.11-.08-.18s.03-.13,.08-.18c.09-.09,.25-.09,.34,0,.06,.06,.08,.12,.08,.18s-.02,.12-.07,.17c-.05,.06-.11,.08-.18,.08Z" style="fill: #1d1d1b;"/>
        <path d="M51.5,37.5c-.06,0-.13-.03-.17-.07-.05-.05-.08-.11-.08-.18s.03-.13,.08-.18c.09-.09,.25-.09,.35,0,.05,.05,.07,.12,.07,.18s-.02,.13-.07,.17c-.05,.06-.11,.08-.18,.08Z" style="fill: #1d1d1b;"/>
        <path d="M60.75,46c-.06,0-.12-.03-.17-.07-.05-.05-.08-.11-.08-.18s.03-.14,.08-.18c.09-.09,.25-.09,.35,0,.05,.05,.07,.11,.07,.18s-.02,.13-.07,.18c-.05,.04-.11,.07-.18,.07Z" style="fill: #1d1d1b;"/>
        <path d="M67.5,43.75c-.06,0-.13-.03-.17-.07-.05-.05-.08-.11-.08-.18s.03-.13,.08-.18c.08-.08,.25-.09,.35,0,.05,.05,.07,.12,.07,.18s-.02,.13-.07,.18c-.05,.04-.11,.07-.18,.07Z" style="fill: #1d1d1b;"/>
        <path d="M51.25,66.25c-.06,0-.12-.02-.17-.07-.05-.05-.08-.11-.08-.18s.03-.13,.08-.18c.09-.09,.25-.09,.35,0,.05,.05,.07,.11,.07,.18s-.03,.13-.07,.18c-.05,.05-.11,.07-.18,.07Z" style="fill: #1d1d1b;"/>
        <path d="M40,37.75c-.06,0-.13-.03-.17-.07-.05-.05-.08-.11-.08-.18s.03-.13,.08-.18c.09-.09,.26-.09,.35,0,.05,.05,.07,.12,.07,.18s-.02,.12-.07,.17c-.05,.05-.11,.08-.18,.08Z" style="fill: #1d1d1b;"/>
        <path d="M53.25,15c-.06,0-.13-.03-.17-.07-.05-.05-.08-.11-.08-.18s.03-.13,.08-.18c.07-.08,.26-.09,.35,0,.05,.04,.07,.11,.07,.17s-.02,.13-.07,.18c-.05,.04-.11,.07-.18,.07Z" style="fill: #1d1d1b;"/>
        <path d="M34,16c-.07,0-.13-.03-.18-.08-.04-.04-.07-.1-.07-.17s.03-.14,.08-.18c.09-.09,.26-.09,.35,0,.05,.05,.07,.11,.07,.18,0,.06-.02,.13-.07,.18-.05,.04-.11,.07-.18,.07Z" style="fill: #1d1d1b;"/>
        <path d="M27.5,13.5c-.06,0-.12-.02-.17-.07-.05-.05-.08-.11-.08-.18s.03-.13,.07-.17c.11-.11,.26-.1,.36,0,.05,.05,.07,.12,.07,.18,0,.07-.02,.13-.07,.18-.05,.05-.11,.07-.18,.07Z" style="fill: #1d1d1b;"/>
        <path d="M12.75,19.25c-.06,0-.13-.03-.17-.07-.05-.05-.08-.11-.08-.18,0-.06,.03-.12,.07-.17,.1-.1,.26-.1,.36,0,.05,.05,.07,.12,.07,.18,0,.07-.02,.13-.07,.18-.05,.05-.11,.07-.18,.07Z" style="fill: #1d1d1b;"/>
        <path d="M19.75,26.5c-.06,0-.12-.02-.17-.07-.05-.05-.08-.11-.08-.18,0-.06,.03-.12,.07-.17,.11-.11,.26-.1,.36,0,.05,.05,.07,.12,.07,.18,0,.07-.02,.13-.07,.18-.05,.05-.12,.07-.18,.07Z" style="fill: #1d1d1b;"/>
        <path d="M49.5,4.5c-.06,0-.13-.03-.17-.07-.05-.04-.08-.11-.08-.18s.03-.14,.08-.18c.08-.08,.25-.09,.35,0,.05,.05,.07,.12,.07,.18s-.02,.13-.07,.18c-.05,.04-.11,.07-.18,.07Z" style="fill: #1d1d1b;"/>
        <path d="M11.75,1.75c-.06,0-.12-.02-.17-.07-.05-.05-.08-.11-.08-.18,0-.06,.03-.13,.07-.18,.1-.09,.27-.09,.36,0,.05,.05,.07,.12,.07,.18s-.02,.13-.07,.18c-.05,.05-.11,.07-.18,.07Z" style="fill: #1d1d1b;"/>
        <path d="M55.25,3.75c-.06,0-.13-.03-.17-.07-.05-.05-.08-.11-.08-.18s.03-.13,.08-.18c.08-.09,.25-.09,.35,0,.05,.05,.07,.12,.07,.18s-.02,.13-.07,.18c-.05,.04-.11,.07-.18,.07Z" style="fill: #1d1d1b;"/>
        <path d="M59,20.75c-.06,0-.13-.03-.17-.07-.05-.05-.08-.11-.08-.18s.03-.13,.08-.18c.08-.09,.25-.09,.35,0,.05,.06,.07,.12,.07,.18s-.02,.12-.07,.17c-.05,.06-.11,.08-.18,.08Z" style="fill: #1d1d1b;"/>
        <path d="M67.5,57.25c-.06,0-.13-.03-.17-.07-.05-.05-.08-.12-.08-.18,0-.07,.03-.13,.08-.18,.09-.09,.25-.09,.35,0,.05,.05,.07,.12,.07,.18s-.02,.12-.07,.17c-.05,.05-.11,.08-.18,.08Z" style="fill: #1d1d1b;"/>
        <path d="M47.25,69.75c-.06,0-.13-.03-.17-.07-.05-.04-.08-.11-.08-.18s.03-.14,.08-.18c.08-.08,.25-.09,.35,0,.04,.05,.07,.11,.07,.18s-.03,.13-.07,.18c-.05,.05-.11,.07-.18,.07Z" style="fill: #1d1d1b;"/>
        <path d="M5.25,69.75c-.06,0-.13-.03-.17-.07-.05-.05-.08-.11-.08-.18,0-.06,.03-.12,.07-.17,.1-.1,.26-.1,.36,0,.05,.05,.07,.12,.07,.18,0,.07-.02,.13-.07,.18s-.12,.07-.18,.07Z" style="fill: #1d1d1b;"/>
        <path d="M4.75,40.25c-.06,0-.13-.03-.18-.07-.04-.05-.07-.11-.07-.18s.03-.13,.07-.18c.09-.09,.26-.09,.36,0,.05,.05,.07,.12,.07,.18s-.02,.13-.07,.18c-.05,.04-.11,.07-.18,.07Z" style="fill: #1d1d1b;"/>
        <path d="M69.75,12.75c-.07,0-.13-.03-.17-.07-.05-.05-.08-.11-.08-.18s.03-.13,.08-.18c.09-.09,.25-.09,.35,0,.05,.05,.07,.12,.07,.18s-.02,.13-.07,.18c-.05,.04-.11,.07-.18,.07Z" style="fill: #1d1d1b;"/>
        <path d="M23.25,14c-.06,0-.12-.02-.17-.07-.05-.05-.08-.11-.08-.18s.03-.13,.07-.17c.11-.11,.26-.1,.36,0,.05,.06,.07,.12,.07,.18s-.02,.13-.07,.18c-.05,.05-.11,.07-.18,.07Z" style="fill: #1d1d1b;"/>
        <path d="M20.5,17.25c-.06,0-.13-.03-.17-.07-.05-.04-.08-.11-.08-.18s.03-.14,.08-.18c.07-.08,.26-.09,.35,0,.05,.04,.07,.11,.07,.17s-.02,.13-.07,.18c-.05,.04-.11,.07-.18,.07Z" style="fill: #1d1d1b;"/>
        <path d="M14.75,17.25c-.06,0-.12-.02-.17-.07-.05-.05-.08-.11-.08-.18,0-.06,.03-.13,.07-.18,.11-.09,.26-.09,.36,0,.05,.05,.07,.12,.07,.18s-.02,.13-.07,.18c-.05,.05-.11,.07-.18,.07Z" style="fill: #1d1d1b;"/>
        <path d="M2.75,13.25c-.07,0-.13-.03-.17-.07-.05-.05-.08-.12-.08-.18,0-.07,.03-.13,.08-.18,.09-.09,.25-.09,.35,0,.04,.05,.07,.11,.07,.18s-.02,.13-.07,.18c-.05,.04-.11,.07-.18,.07Z" style="fill: #1d1d1b;"/>
        <path d="M6,11.75c-.06,0-.12-.02-.17-.07-.05-.05-.08-.12-.08-.18,0-.07,.03-.13,.07-.18,.12-.1,.26-.09,.36,0,.05,.05,.07,.11,.07,.18,0,.06-.02,.12-.07,.17-.05,.06-.11,.08-.18,.08Z" style="fill: #1d1d1b;"/>
        <path d="M7,2.75c-.06,0-.12-.02-.17-.07-.05-.05-.08-.12-.08-.18,0-.07,.03-.13,.07-.18,.11-.09,.26-.09,.36,0,.05,.05,.07,.12,.07,.18s-.02,.12-.07,.17c-.05,.06-.11,.08-.18,.08Z" style="fill: #1d1d1b;"/>
        <path d="M10,8.25c-.07,0-.13-.03-.18-.07-.04-.05-.07-.12-.07-.18,0-.07,.03-.13,.07-.18,.09-.09,.26-.09,.36,0,.05,.05,.07,.11,.07,.18,0,.06-.02,.13-.07,.17-.05,.06-.11,.08-.18,.08Z" style="fill: #1d1d1b;"/>
        <path d="M16,8.25c-.06,0-.13-.03-.18-.07-.04-.05-.07-.11-.07-.18s.03-.13,.08-.18c.1-.09,.25-.09,.35,0,.05,.05,.07,.12,.07,.18s-.02,.13-.07,.18c-.05,.04-.11,.07-.18,.07Z" style="fill: #1d1d1b;"/>
        <path d="M16.5,3.25c-.06,0-.12-.02-.17-.07-.05-.05-.08-.11-.08-.18s.03-.13,.07-.18c.11-.1,.26-.09,.36,0,.05,.05,.07,.11,.07,.18s-.02,.13-.07,.18c-.05,.05-.12,.07-.18,.07Z" style="fill: #1d1d1b;"/>
        <path d="M25.75,7c-.06,0-.12-.02-.17-.07-.05-.05-.08-.11-.08-.18s.03-.13,.08-.18c.1-.09,.25-.09,.35,0,.05,.05,.07,.12,.07,.18s-.02,.13-.07,.18c-.05,.05-.11,.07-.18,.07Z" style="fill: #1d1d1b;"/>
        <path d="M37,7.5c-.06,0-.12-.02-.17-.07-.05-.05-.08-.11-.08-.18s.03-.13,.08-.18c.09-.09,.26-.09,.35,0,.05,.05,.07,.11,.07,.18s-.02,.13-.07,.18c-.05,.05-.12,.07-.18,.07Z" style="fill: #1d1d1b;"/>
        <path d="M40.5,4.5c-.06,0-.13-.03-.17-.07-.05-.04-.08-.11-.08-.18s.03-.13,.08-.18c.09-.09,.25-.09,.35,0,.05,.06,.07,.12,.07,.18,0,.07-.02,.13-.07,.18-.05,.04-.11,.07-.18,.07Z" style="fill: #1d1d1b;"/>
        <path d="M37.5,4.25c-.06,0-.13-.03-.17-.07-.05-.04-.08-.11-.08-.18s.03-.13,.08-.18c.08-.09,.25-.09,.35,0,.05,.06,.07,.12,.07,.18s-.02,.13-.07,.18c-.05,.05-.11,.07-.18,.07Z" style="fill: #1d1d1b;"/>
        <path d="M43.25,2.25c-.07,0-.13-.03-.18-.08-.04-.04-.07-.1-.07-.17s.03-.13,.08-.18c.09-.09,.25-.09,.35,0,.05,.05,.07,.12,.07,.18s-.02,.13-.07,.18c-.05,.04-.11,.07-.18,.07Z" style="fill: #1d1d1b;"/>
        <path d="M49.5,8.25c-.06,0-.13-.03-.17-.07-.05-.04-.08-.11-.08-.18s.03-.14,.08-.18c.08-.09,.25-.09,.35,0,.05,.05,.07,.12,.07,.18s-.02,.13-.07,.18c-.05,.04-.11,.07-.18,.07Z" style="fill: #1d1d1b;"/>
        <path d="M46,9.25c-.06,0-.13-.03-.17-.07-.05-.05-.08-.11-.08-.18s.03-.13,.08-.18c.08-.08,.25-.09,.35,0,.05,.05,.07,.12,.07,.18s-.02,.13-.07,.18c-.05,.04-.11,.07-.18,.07Z" style="fill: #1d1d1b;"/>
        <path d="M35.75,11c-.06,0-.13-.03-.17-.07-.05-.05-.08-.11-.08-.18s.03-.13,.08-.18c.09-.09,.25-.09,.35,0,.05,.05,.07,.12,.07,.18s-.02,.13-.07,.18c-.05,.04-.11,.07-.18,.07Z" style="fill: #1d1d1b;"/>
        <path d="M39.25,15c-.06,0-.12-.02-.17-.07-.05-.05-.08-.11-.08-.18s.03-.13,.08-.18c.09-.09,.25-.09,.35,0,.05,.06,.07,.12,.07,.18s-.02,.13-.07,.18c-.05,.05-.11,.07-.18,.07Z" style="fill: #1d1d1b;"/>
        <path d="M24.75,18c-.06,0-.12-.02-.17-.07-.05-.05-.08-.11-.08-.18s.03-.13,.07-.18c.1-.09,.27-.09,.36,0,.05,.05,.07,.11,.07,.18s-.02,.13-.07,.18c-.05,.05-.11,.07-.18,.07Z" style="fill: #1d1d1b;"/>
        <path d="M8.25,27.25c-.06,0-.12-.02-.17-.07-.05-.05-.08-.11-.08-.18s.03-.13,.07-.18c.12-.1,.26-.09,.36,0,.05,.05,.07,.12,.07,.18,0,.07-.02,.13-.07,.18-.05,.04-.11,.07-.18,.07Z" style="fill: #1d1d1b;"/>
        <path d="M16,31.75c-.06,0-.13-.03-.18-.07-.04-.05-.07-.11-.07-.18s.03-.13,.08-.18c.1-.09,.25-.09,.35,0,.05,.05,.07,.12,.07,.18s-.02,.13-.07,.18c-.05,.04-.11,.07-.18,.07Z" style="fill: #1d1d1b;"/>
        <path d="M10.5,33.5c-.06,0-.12-.02-.17-.07-.05-.05-.08-.12-.08-.18,0-.07,.03-.13,.07-.18,.11-.1,.26-.09,.36,0,.05,.05,.07,.12,.07,.18s-.02,.12-.07,.17c-.05,.06-.11,.08-.18,.08Z" style="fill: #1d1d1b;"/>
        <path d="M5.25,37c-.06,0-.13-.03-.17-.07-.05-.05-.08-.11-.08-.18,0-.06,.03-.12,.07-.17,.1-.1,.26-.1,.36,0,.05,.05,.07,.12,.07,.18,0,.07-.02,.13-.07,.18-.05,.05-.12,.07-.18,.07Z" style="fill: #1d1d1b;"/>
        <path d="M2.75,32c-.06,0-.13-.03-.17-.07-.05-.05-.08-.12-.08-.18,0-.07,.03-.13,.08-.18,.09-.09,.25-.09,.35,0,.04,.05,.07,.11,.07,.18s-.02,.13-.07,.18c-.05,.04-.11,.07-.18,.07Z" style="fill: #1d1d1b;"/>
        <path d="M7.5,25c-.07,0-.13-.03-.18-.07-.04-.05-.07-.11-.07-.18s.03-.13,.07-.18c.11-.09,.25-.09,.35,0,.06,.05,.08,.12,.08,.18s-.02,.13-.07,.18c-.05,.04-.11,.07-.18,.07Z" style="fill: #1d1d1b;"/>
        <path d="M3.25,20.5c-.06,0-.13-.03-.17-.07-.05-.05-.08-.11-.08-.18,0-.06,.03-.13,.07-.17,.1-.1,.26-.1,.36,0,.05,.05,.07,.12,.07,.18,0,.07-.02,.13-.07,.18-.05,.05-.12,.07-.18,.07Z" style="fill: #1d1d1b;"/>
        <path d="M20.5,30.75c-.06,0-.13-.03-.17-.07-.05-.05-.08-.11-.08-.18s.03-.13,.08-.18c.09-.09,.25-.09,.35,0,.05,.06,.07,.12,.07,.18s-.02,.12-.07,.17c-.05,.05-.11,.08-.18,.08Z" style="fill: #1d1d1b;"/>
        <path d="M17.5,35.5c-.06,0-.12-.03-.17-.07-.05-.06-.08-.12-.08-.18,0-.07,.03-.13,.07-.18,.11-.09,.26-.09,.36,0,.05,.05,.07,.11,.07,.18,0,.06-.02,.13-.07,.17-.05,.05-.11,.08-.18,.08Z" style="fill: #1d1d1b;"/>
        <path d="M16,39c-.06,0-.12-.02-.17-.07-.05-.05-.08-.11-.08-.18s.03-.13,.08-.18c.09-.09,.25-.09,.35,0,.05,.05,.07,.12,.07,.18s-.02,.13-.07,.18c-.05,.05-.12,.07-.18,.07Z" style="fill: #1d1d1b;"/>
        <path d="M12.75,41.25c-.06,0-.13-.03-.17-.07-.05-.05-.08-.11-.08-.18,0-.06,.03-.13,.07-.18,.1-.09,.26-.09,.36,0,.05,.05,.07,.11,.07,.18s-.02,.13-.07,.18c-.05,.04-.11,.07-.18,.07Z" style="fill: #1d1d1b;"/>
        <path d="M12.75,46.5c-.07,0-.13-.03-.17-.07-.05-.05-.08-.12-.08-.18,0-.07,.03-.13,.07-.18,.1-.09,.26-.09,.36,0,.05,.05,.07,.11,.07,.18s-.02,.13-.07,.18c-.05,.05-.11,.07-.18,.07Z" style="fill: #1d1d1b;"/>
        <path d="M4,46.75c-.06,0-.13-.03-.17-.07-.05-.05-.08-.11-.08-.18,0-.06,.03-.13,.07-.18,.1-.09,.26-.09,.35,0,.06,.05,.08,.12,.08,.18,0,.07-.02,.13-.07,.18-.05,.05-.12,.07-.18,.07Z" style="fill: #1d1d1b;"/>
        <path d="M5.75,48.5c-.07,0-.13-.03-.18-.08-.04-.04-.07-.1-.07-.17s.03-.13,.07-.18c.1-.09,.26-.09,.36,0,.05,.05,.07,.11,.07,.18s-.02,.13-.07,.18c-.05,.04-.11,.07-.18,.07Z" style="fill: #1d1d1b;"/>
        <path d="M11,50.5c-.06,0-.12-.02-.17-.07-.05-.05-.08-.11-.08-.18,0-.06,.03-.13,.07-.17,.11-.11,.26-.1,.36,0,.05,.06,.07,.12,.07,.18s-.02,.13-.07,.18c-.05,.05-.12,.07-.18,.07Z" style="fill: #1d1d1b;"/>
        <path d="M11,54.5c-.06,0-.13-.03-.18-.07-.04-.05-.07-.11-.07-.18s.03-.13,.07-.18c.11-.09,.26-.09,.36,0,.05,.05,.07,.12,.07,.18s-.02,.13-.07,.18c-.05,.04-.11,.07-.18,.07Z" style="fill: #1d1d1b;"/>
        <path d="M15.5,58.5c-.06,0-.12-.03-.17-.07-.05-.05-.08-.11-.08-.18s.03-.13,.07-.18c.11-.09,.26-.09,.36,0,.05,.05,.07,.12,.07,.18s-.02,.13-.07,.18c-.05,.04-.11,.07-.18,.07Z" style="fill: #1d1d1b;"/>
        <path d="M10,59.75c-.07,0-.13-.03-.18-.07-.04-.05-.07-.12-.07-.18,0-.07,.03-.13,.07-.18,.1-.09,.25-.09,.36,0,.05,.05,.07,.11,.07,.18,0,.06-.02,.13-.07,.18-.05,.05-.11,.07-.18,.07Z" style="fill: #1d1d1b;"/>
        <path d="M6,63.5c-.06,0-.12-.02-.17-.07-.05-.05-.08-.12-.08-.18,0-.07,.03-.13,.07-.18,.12-.1,.26-.09,.36,0,.05,.05,.07,.11,.07,.18,0,.06-.02,.12-.07,.17-.05,.06-.11,.08-.18,.08Z" style="fill: #1d1d1b;"/>
        <path d="M2.25,62c-.06,0-.12-.02-.17-.07-.05-.05-.08-.11-.08-.18s.03-.13,.07-.18c.11-.09,.25-.09,.35,0,.06,.05,.08,.12,.08,.18s-.02,.13-.07,.18c-.06,.05-.12,.07-.18,.07Z" style="fill: #1d1d1b;"/>
        <path d="M7.25,67.75c-.06,0-.13-.03-.17-.07-.05-.05-.08-.12-.08-.18,0-.07,.03-.13,.07-.18,.1-.09,.26-.09,.36,0,.04,.05,.07,.11,.07,.18s-.02,.13-.07,.17c-.05,.06-.11,.08-.18,.08Z" style="fill: #1d1d1b;"/>
        <path d="M13.5,69.5c-.06,0-.12-.02-.17-.07-.05-.05-.08-.12-.08-.18,0-.07,.03-.13,.07-.18,.11-.09,.26-.09,.36,0,.05,.05,.07,.12,.07,.18s-.02,.12-.07,.17c-.05,.06-.11,.08-.18,.08Z" style="fill: #1d1d1b;"/>
        <path d="M13.5,65.75c-.06,0-.12-.02-.17-.07-.05-.05-.08-.11-.08-.18,0-.06,.03-.13,.07-.17,.11-.11,.26-.1,.36,0,.05,.06,.07,.12,.07,.18s-.02,.13-.07,.18c-.05,.05-.11,.07-.18,.07Z" style="fill: #1d1d1b;"/>
        <path d="M21.5,68.5c-.06,0-.12-.02-.17-.07-.05-.05-.08-.11-.08-.18s.03-.13,.08-.18c.09-.09,.25-.09,.35,0,.05,.05,.07,.12,.07,.18s-.02,.12-.07,.17c-.05,.06-.11,.08-.18,.08Z" style="fill: #1d1d1b;"/>
        <path d="M23,65.75c-.06,0-.12-.02-.17-.07-.05-.05-.08-.11-.08-.18,0-.06,.03-.12,.07-.17,.11-.11,.26-.1,.36,0,.05,.05,.07,.12,.07,.18,0,.07-.02,.13-.07,.18-.05,.05-.11,.07-.18,.07Z" style="fill: #1d1d1b;"/>
        <path d="M22.25,60c-.06,0-.12-.02-.17-.07-.05-.05-.08-.11-.08-.18,0-.06,.03-.12,.07-.17,.11-.11,.26-.1,.36,0,.05,.05,.07,.12,.07,.18,0,.07-.02,.13-.07,.18-.05,.05-.12,.07-.18,.07Z" style="fill: #1d1d1b;"/>
        <path d="M24.25,57.5c-.06,0-.12-.02-.17-.07-.05-.05-.08-.11-.08-.18s.03-.13,.08-.18c.1-.09,.25-.09,.35,0,.05,.05,.07,.12,.07,.18s-.02,.13-.07,.18c-.05,.05-.11,.07-.18,.07Z" style="fill: #1d1d1b;"/>
        <path d="M22,53.25c-.06,0-.12-.02-.17-.07-.05-.05-.08-.11-.08-.18s.03-.13,.07-.17c.11-.11,.26-.1,.36,0,.05,.06,.07,.12,.07,.18s-.02,.13-.07,.18c-.05,.05-.11,.07-.18,.07Z" style="fill: #1d1d1b;"/>
        <path d="M26.25,47.75c-.06,0-.12-.02-.17-.07-.05-.05-.08-.11-.08-.18s.03-.13,.08-.18c.09-.09,.25-.09,.35,0,.05,.05,.07,.12,.07,.18s-.02,.13-.07,.18c-.05,.05-.11,.07-.18,.07Z" style="fill: #1d1d1b;"/>
        <path d="M25.75,43.5c-.06,0-.12-.02-.17-.07-.05-.05-.08-.11-.08-.18s.03-.13,.07-.18c.11-.09,.26-.09,.36,0,.05,.06,.07,.12,.07,.18,0,.07-.02,.13-.07,.18-.05,.05-.11,.07-.18,.07Z" style="fill: #1d1d1b;"/>
        <path d="M31.25,37.5c-.06,0-.12-.03-.17-.07-.05-.05-.08-.12-.08-.18s.03-.13,.07-.17c.11-.11,.26-.1,.36,0,.05,.06,.07,.12,.07,.18s-.02,.12-.07,.17c-.05,.05-.11,.08-.18,.08Z" style="fill: #1d1d1b;"/>
        <path d="M32.25,31c-.06,0-.12-.02-.17-.07-.05-.05-.08-.11-.08-.18,0-.06,.03-.12,.07-.17,.11-.11,.26-.1,.36,0,.05,.05,.07,.12,.07,.18,0,.07-.03,.13-.07,.18-.05,.05-.11,.07-.18,.07Z" style="fill: #1d1d1b;"/>
        <path d="M26,34c-.06,0-.12-.02-.17-.07-.05-.05-.08-.11-.08-.18s.03-.13,.08-.18c.1-.09,.25-.09,.35,0,.05,.05,.07,.12,.07,.18s-.02,.13-.07,.18c-.05,.05-.11,.07-.18,.07Z" style="fill: #1d1d1b;"/>
        <path d="M34.25,27.75c-.06,0-.13-.03-.17-.07-.05-.05-.08-.11-.08-.18s.03-.13,.08-.18c.09-.09,.25-.09,.35,0,.05,.06,.07,.12,.07,.18s-.02,.13-.07,.18c-.05,.04-.11,.07-.18,.07Z" style="fill: #1d1d1b;"/>
        <path d="M37.25,28.5c-.06,0-.13-.03-.17-.07-.05-.05-.08-.11-.08-.18s.03-.13,.08-.18c.09-.09,.25-.09,.34,0,.06,.05,.08,.12,.08,.18s-.02,.12-.07,.17c-.05,.06-.11,.08-.18,.08Z" style="fill: #1d1d1b;"/>
        <path d="M41.75,25.75c-.06,0-.12-.03-.17-.07-.05-.05-.08-.11-.08-.18s.03-.13,.08-.18c.09-.09,.26-.09,.35,0,.05,.06,.07,.12,.07,.18s-.02,.12-.07,.17c-.05,.05-.11,.08-.18,.08Z" style="fill: #1d1d1b;"/>
        <path d="M43,20.75c-.06,0-.12-.02-.17-.07-.05-.05-.08-.11-.08-.18s.03-.13,.08-.18c.09-.09,.25-.09,.35,0,.05,.05,.07,.12,.07,.18s-.02,.13-.07,.18c-.05,.05-.12,.07-.18,.07Z" style="fill: #1d1d1b;"/>
        <path d="M36.5,19.25c-.06,0-.13-.03-.17-.07-.05-.04-.08-.11-.08-.18s.03-.14,.08-.18c.08-.08,.25-.09,.35,0,.05,.05,.07,.12,.07,.18s-.02,.13-.07,.18c-.05,.05-.11,.07-.18,.07Z" style="fill: #1d1d1b;"/>
        <path d="M27.75,22.25c-.06,0-.12-.03-.17-.07-.05-.05-.08-.12-.08-.18s.03-.13,.07-.17c.11-.11,.26-.1,.36,0,.05,.05,.07,.11,.07,.18s-.02,.13-.07,.18c-.05,.04-.11,.07-.18,.07Z" style="fill: #1d1d1b;"/>
        <path d="M52,22c-.06,0-.13-.03-.17-.07-.05-.05-.08-.11-.08-.18s.03-.13,.08-.18c.09-.09,.25-.09,.35,0,.05,.06,.07,.12,.07,.18s-.02,.12-.07,.17c-.05,.05-.11,.08-.18,.08Z" style="fill: #1d1d1b;"/>
        <path d="M43.25,17.75c-.06,0-.13-.03-.17-.07-.05-.05-.08-.11-.08-.18,0-.06,.03-.13,.07-.18,.11-.09,.26-.09,.36,0,.05,.06,.07,.12,.07,.18s-.02,.12-.07,.17c-.05,.06-.11,.08-.18,.08Z" style="fill: #1d1d1b;"/>
        <path d="M50.5,18c-.06,0-.13-.03-.17-.07-.05-.05-.08-.11-.08-.18s.03-.13,.08-.18c.08-.09,.25-.09,.35,0,.05,.06,.07,.12,.07,.18s-.02,.12-.07,.17c-.05,.05-.11,.08-.18,.08Z" style="fill: #1d1d1b;"/>
        <path d="M59.5,17.25c-.06,0-.13-.03-.17-.07-.05-.05-.08-.11-.08-.18s.03-.13,.08-.18c.08-.09,.25-.09,.35,0,.05,.05,.07,.12,.07,.18s-.02,.13-.07,.18c-.05,.04-.11,.07-.18,.07Z" style="fill: #1d1d1b;"/>
        <path d="M58.25,14c-.06,0-.13-.03-.17-.07-.05-.05-.08-.11-.08-.18s.03-.13,.08-.18c.08-.09,.26-.09,.35,0,.05,.05,.07,.11,.07,.18,0,.06-.02,.13-.07,.18-.05,.04-.11,.07-.18,.07Z" style="fill: #1d1d1b;"/>
        <path d="M61.5,11c-.06,0-.12-.02-.17-.07-.05-.05-.08-.11-.08-.18s.03-.14,.08-.18c.09-.09,.25-.09,.35,0,.04,.05,.07,.11,.07,.18s-.03,.13-.07,.18c-.05,.05-.11,.07-.18,.07Z" style="fill: #1d1d1b;"/>
        <path d="M58.75,7.5c-.06,0-.12-.02-.17-.07-.05-.05-.08-.11-.08-.18s.03-.13,.08-.18c.09-.09,.25-.09,.35,0,.05,.05,.07,.11,.07,.18s-.02,.13-.07,.18c-.05,.05-.11,.07-.18,.07Z" style="fill: #1d1d1b;"/>
        <path d="M60,4.75c-.06,0-.13-.03-.17-.07-.05-.05-.08-.11-.08-.18s.03-.13,.07-.18c.11-.09,.26-.09,.36,0,.05,.05,.07,.11,.07,.18s-.02,.13-.07,.17c-.05,.06-.11,.08-.18,.08Z" style="fill: #1d1d1b;"/>
        <path d="M67.5,6c-.06,0-.13-.03-.17-.07-.05-.05-.08-.12-.08-.18s.03-.13,.07-.17c.1-.1,.26-.1,.36,0,.05,.06,.07,.12,.07,.18s-.02,.12-.07,.17c-.05,.05-.11,.08-.18,.08Z" style="fill: #1d1d1b;"/>
        <path d="M69.5,8c-.06,0-.12-.03-.17-.07-.05-.05-.08-.11-.08-.18,0-.06,.03-.13,.07-.18,.11-.09,.26-.09,.36,0,.05,.05,.07,.12,.07,.18,0,.07-.02,.13-.07,.18-.05,.05-.11,.07-.18,.07Z" style="fill: #1d1d1b;"/>
        <path d="M65.75,9.75c-.06,0-.13-.03-.17-.07-.05-.05-.08-.11-.08-.18s.03-.13,.08-.18c.08-.09,.26-.09,.35,0,.05,.05,.07,.12,.07,.18s-.02,.13-.07,.18c-.05,.04-.11,.07-.18,.07Z" style="fill: #1d1d1b;"/>
        <path d="M61.75,16.5c-.06,0-.13-.03-.17-.07-.05-.05-.08-.11-.08-.18s.03-.13,.08-.18c.09-.09,.25-.09,.35,0,.05,.05,.07,.12,.07,.18s-.02,.13-.07,.17c-.05,.06-.11,.08-.18,.08Z" style="fill: #1d1d1b;"/>
        <path d="M60.25,23.75c-.06,0-.12-.03-.17-.07-.05-.05-.08-.11-.08-.18s.03-.13,.08-.18c.09-.09,.25-.09,.35,0,.04,.05,.07,.11,.07,.18s-.02,.13-.07,.18c-.05,.05-.11,.07-.18,.07Z" style="fill: #1d1d1b;"/>
        <path d="M55.5,23.75c-.06,0-.13-.03-.17-.07-.05-.05-.08-.12-.08-.18s.03-.13,.08-.18c.09-.09,.25-.09,.35,0,.05,.05,.07,.12,.07,.18s-.02,.13-.07,.18c-.05,.04-.11,.07-.18,.07Z" style="fill: #1d1d1b;"/>
        <path d="M55.5,18.75c-.06,0-.13-.03-.17-.07-.05-.05-.08-.12-.08-.18s.03-.13,.08-.18c.09-.09,.25-.09,.35,0,.05,.05,.07,.12,.07,.18s-.02,.13-.07,.18c-.05,.04-.11,.07-.18,.07Z" style="fill: #1d1d1b;"/>
        <path d="M65,25.75c-.06,0-.12-.03-.17-.07-.05-.05-.08-.11-.08-.18s.03-.13,.08-.18c.09-.09,.25-.09,.35,0,.05,.05,.07,.12,.07,.18,0,.07-.02,.13-.07,.18-.05,.05-.11,.07-.18,.07Z" style="fill: #1d1d1b;"/>
        <path d="M61.25,27c-.06,0-.13-.03-.17-.07-.05-.05-.08-.11-.08-.18s.03-.13,.08-.18c.09-.09,.25-.09,.35,0,.05,.05,.07,.11,.07,.18s-.03,.13-.07,.18c-.05,.04-.11,.07-.18,.07Z" style="fill: #1d1d1b;"/>
        <path d="M57.75,30.75c-.06,0-.12-.02-.17-.07-.05-.05-.08-.11-.08-.18s.03-.13,.08-.18c.09-.09,.25-.09,.35,0,.05,.05,.07,.11,.07,.18s-.02,.13-.07,.17c-.05,.06-.11,.08-.18,.08Z" style="fill: #1d1d1b;"/>
        <path d="M52.75,32.75c-.06,0-.13-.03-.17-.07-.05-.05-.08-.11-.08-.18s.03-.13,.08-.18c.09-.09,.25-.09,.35,0,.05,.05,.07,.12,.07,.18s-.02,.13-.07,.17c-.05,.06-.11,.08-.18,.08Z" style="fill: #1d1d1b;"/>
        <path d="M47.5,33.75c-.06,0-.12-.03-.17-.07-.05-.05-.08-.11-.08-.18s.03-.13,.08-.18c.09-.09,.25-.09,.34,0,.06,.06,.08,.12,.08,.18s-.02,.12-.07,.17c-.06,.06-.11,.08-.18,.08Z" style="fill: #1d1d1b;"/>
        <path d="M44.25,39.25c-.06,0-.12-.03-.17-.07-.05-.05-.08-.11-.08-.18s.03-.13,.08-.18c.09-.09,.25-.09,.35,0,.05,.05,.07,.11,.07,.18s-.02,.13-.07,.18c-.05,.05-.12,.07-.18,.07Z" style="fill: #1d1d1b;"/>
        <path d="M34,41.5c-.06,0-.12-.02-.17-.07-.05-.05-.08-.11-.08-.18s.03-.13,.08-.18c.09-.09,.25-.09,.35,0,.05,.05,.07,.12,.07,.18s-.02,.13-.07,.18c-.05,.04-.11,.07-.18,.07Z" style="fill: #1d1d1b;"/>
        <path d="M40.75,48c-.06,0-.12-.02-.17-.07-.05-.05-.08-.11-.08-.18s.03-.13,.08-.18c.1-.09,.25-.09,.35,0,.04,.05,.07,.11,.07,.18s-.03,.13-.07,.18c-.05,.05-.11,.07-.18,.07Z" style="fill: #1d1d1b;"/>
        <path d="M45.75,52.25c-.06,0-.12-.02-.17-.07-.05-.05-.08-.11-.08-.18s.03-.13,.08-.18c.09-.09,.25-.09,.35,0,.05,.05,.07,.11,.07,.18s-.03,.13-.07,.18c-.05,.05-.11,.07-.18,.07Z" style="fill: #1d1d1b;"/>
        <path d="M46.5,56.75c-.06,0-.12-.03-.17-.07-.05-.05-.08-.11-.08-.18s.03-.13,.08-.18c.09-.09,.25-.09,.35,0,.05,.05,.07,.12,.07,.18s-.02,.13-.07,.17c-.05,.06-.11,.08-.18,.08Z" style="fill: #1d1d1b;"/>
        <path d="M42,59.5c-.06,0-.12-.02-.17-.07-.05-.05-.08-.11-.08-.18s.03-.13,.08-.18c.1-.09,.25-.09,.35,0,.04,.05,.07,.11,.07,.18s-.02,.13-.07,.18c-.05,.05-.12,.07-.18,.07Z" style="fill: #1d1d1b;"/>
        <path d="M40,62.75c-.06,0-.12-.03-.17-.07-.05-.05-.08-.11-.08-.18s.03-.14,.08-.18c.09-.09,.26-.09,.35,0,.05,.05,.07,.11,.07,.18,0,.06-.02,.13-.07,.18-.05,.04-.11,.07-.18,.07Z" style="fill: #1d1d1b;"/>
        <path d="M36,62.75c-.06,0-.12-.02-.17-.07-.05-.05-.08-.11-.08-.18s.03-.13,.08-.18c.1-.09,.26-.09,.35,0,.05,.06,.07,.12,.07,.18s-.02,.13-.07,.18c-.05,.04-.11,.07-.18,.07Z" style="fill: #1d1d1b;"/>
        <path d="M36.5,52.75c-.07,0-.13-.03-.17-.07-.05-.05-.08-.11-.08-.18s.03-.13,.08-.18c.09-.09,.25-.09,.35,0,.05,.06,.07,.12,.07,.18s-.02,.12-.07,.17c-.05,.05-.11,.08-.18,.08Z" style="fill: #1d1d1b;"/>
        <path d="M30,63.5c-.06,0-.13-.03-.17-.07-.05-.05-.08-.11-.08-.18s.03-.13,.08-.18c.09-.09,.25-.09,.35,0,.05,.05,.07,.12,.07,.18s-.02,.13-.07,.17c-.05,.05-.11,.08-.18,.08Z" style="fill: #1d1d1b;"/>
        <path d="M31.5,68.5c-.07,0-.13-.03-.18-.08-.04-.04-.07-.1-.07-.17s.03-.14,.08-.18c.09-.08,.25-.09,.34,0,.06,.05,.08,.11,.08,.18,0,.06-.02,.13-.07,.18-.05,.04-.11,.07-.18,.07Z" style="fill: #1d1d1b;"/>
        <path d="M37,71c-.06,0-.12-.02-.17-.07-.05-.05-.08-.11-.08-.18s.03-.13,.08-.18c.1-.09,.25-.09,.35,0,.05,.05,.07,.11,.07,.18s-.02,.13-.07,.18c-.05,.05-.11,.07-.18,.07Z" style="fill: #1d1d1b;"/>
        <path d="M58.75,57c-.06,0-.12-.02-.17-.07-.05-.05-.08-.11-.08-.18s.03-.13,.08-.18c.09-.09,.25-.09,.35,0,.05,.05,.07,.11,.07,.18s-.02,.13-.07,.18c-.05,.05-.11,.07-.18,.07Z" style="fill: #1d1d1b;"/>
        <path d="M63,57c-.06,0-.12-.03-.17-.07-.05-.05-.08-.11-.08-.18s.03-.13,.08-.18c.09-.09,.25-.09,.35,0,.05,.05,.07,.11,.07,.18s-.02,.13-.07,.17c-.05,.06-.11,.08-.18,.08Z" style="fill: #1d1d1b;"/>
        <path d="M60,50.75c-.06,0-.12-.03-.17-.07-.05-.05-.08-.11-.08-.18s.03-.14,.08-.18c.09-.09,.25-.09,.35,0,.04,.05,.07,.11,.07,.18s-.02,.13-.07,.18c-.05,.04-.11,.07-.18,.07Z" style="fill: #1d1d1b;"/>
        <path d="M54.5,50.5c-.07,0-.13-.03-.17-.07-.05-.05-.08-.12-.08-.18s.03-.13,.07-.17c.1-.1,.26-.1,.36,0,.05,.06,.07,.12,.07,.18s-.02,.12-.07,.17c-.05,.05-.11,.08-.18,.08Z" style="fill: #1d1d1b;"/>
        <path d="M59.25,44.25c-.06,0-.13-.03-.17-.07-.05-.05-.08-.12-.08-.18s.03-.13,.07-.17c.1-.1,.27-.1,.36,0,.05,.06,.07,.12,.07,.18s-.02,.12-.07,.17c-.04,.05-.11,.08-.18,.08Z" style="fill: #1d1d1b;"/>
        <path d="M54.75,41.75c-.06,0-.13-.03-.17-.07-.05-.05-.08-.12-.08-.18s.03-.13,.08-.18c.08-.09,.25-.09,.35,0,.05,.05,.07,.12,.07,.18s-.02,.13-.07,.18c-.05,.04-.11,.07-.18,.07Z" style="fill: #1d1d1b;"/>
        <path d="M55.75,35.5c-.06,0-.12-.02-.17-.07-.05-.05-.08-.11-.08-.18s.03-.13,.08-.18c.09-.09,.25-.09,.35,0,.05,.05,.07,.11,.07,.18s-.02,.13-.07,.18c-.05,.05-.11,.07-.18,.07Z" style="fill: #1d1d1b;"/>
        <path d="M62.5,42.25c-.06,0-.13-.03-.17-.07-.05-.05-.08-.11-.08-.18s.03-.13,.08-.18c.08-.08,.24-.09,.34,0,.06,.05,.08,.12,.08,.18s-.02,.13-.07,.18c-.05,.05-.12,.07-.18,.07Z" style="fill: #1d1d1b;"/>
        <path d="M67,47.5c-.06,0-.13-.03-.17-.07-.05-.05-.08-.11-.08-.18s.03-.13,.08-.18c.08-.08,.25-.09,.35,0,.05,.05,.07,.11,.07,.18s-.03,.13-.07,.18c-.05,.05-.11,.07-.18,.07Z" style="fill: #1d1d1b;"/>
        <path d="M69.5,54.25c-.06,0-.13-.03-.17-.07-.05-.05-.08-.11-.08-.18s.03-.13,.08-.18c.09-.09,.25-.09,.35,0,.05,.05,.07,.11,.07,.18s-.02,.13-.07,.18c-.05,.04-.11,.07-.18,.07Z" style="fill: #1d1d1b;"/>
        <path d="M63.5,61.75c-.06,0-.13-.03-.17-.07-.05-.05-.08-.12-.08-.18,0-.07,.03-.13,.08-.18,.07-.08,.25-.1,.35,0,.05,.05,.07,.12,.07,.18s-.02,.12-.07,.17c-.05,.06-.11,.08-.18,.08Z" style="fill: #1d1d1b;"/>
        <path d="M69.25,63.5c-.06,0-.12-.02-.17-.07-.05-.05-.08-.11-.08-.18s.03-.13,.08-.18c.09-.09,.25-.09,.35,0,.05,.05,.07,.12,.07,.18s-.02,.13-.07,.17c-.05,.06-.11,.08-.18,.08Z" style="fill: #1d1d1b;"/>
        <path d="M64.75,65.5c-.07,0-.13-.03-.17-.07-.05-.05-.08-.12-.08-.18s.03-.12,.07-.17c.1-.1,.27-.1,.36,0,.05,.06,.07,.12,.07,.18s-.02,.12-.07,.17c-.04,.05-.11,.08-.18,.08Z" style="fill: #1d1d1b;"/>
        <path d="M65.75,68.25c-.06,0-.13-.03-.17-.07-.05-.05-.08-.11-.08-.18s.03-.13,.08-.18c.08-.09,.26-.09,.35,0,.05,.05,.07,.12,.07,.18,0,.07-.02,.13-.07,.18-.05,.04-.11,.07-.18,.07Z" style="fill: #1d1d1b;"/>
        <path d="M69.25,70.5c-.06,0-.13-.03-.17-.07-.05-.05-.08-.12-.08-.18,0-.07,.03-.13,.08-.18,.09-.09,.25-.09,.35,0,.05,.05,.07,.11,.07,.18,0,.06-.02,.13-.07,.17-.05,.06-.11,.08-.18,.08Z" style="fill: #1d1d1b;"/>
        <path d="M62.5,70.25c-.06,0-.13-.03-.17-.07-.05-.05-.08-.11-.08-.18s.03-.13,.08-.18c.08-.08,.24-.1,.34,0,.06,.05,.08,.12,.08,.18s-.02,.13-.07,.18c-.06,.05-.12,.07-.18,.07Z" style="fill: #1d1d1b;"/>
        <path d="M60.75,65.75c-.06,0-.13-.03-.17-.07-.05-.05-.08-.11-.08-.18s.03-.13,.08-.18c.09-.09,.25-.09,.35,0,.05,.05,.07,.12,.07,.18s-.02,.13-.07,.17c-.05,.06-.11,.08-.18,.08Z" style="fill: #1d1d1b;"/>
        <path d="M52.75,69.75c-.06,0-.13-.03-.17-.07-.05-.05-.08-.11-.08-.18s.03-.13,.08-.18c.09-.09,.25-.09,.35,0,.05,.05,.07,.12,.07,.18s-.02,.13-.07,.17c-.05,.06-.11,.08-.18,.08Z" style="fill: #1d1d1b;"/>
        <path d="M44.75,66.5c-.07,0-.13-.03-.17-.07-.05-.05-.08-.11-.08-.18s.03-.13,.08-.18c.09-.09,.25-.09,.35,0,.05,.05,.07,.11,.07,.18,0,.06-.02,.13-.07,.17-.05,.05-.11,.08-.18,.08Z" style="fill: #1d1d1b;"/>
        <path d="M44.5,71.25c-.06,0-.12-.03-.17-.07-.05-.05-.08-.11-.08-.18s.03-.13,.08-.18c.09-.09,.25-.09,.35,0,.05,.05,.07,.11,.07,.18s-.02,.13-.07,.18c-.05,.05-.12,.07-.18,.07Z" style="fill: #1d1d1b;"/>
        <path d="M28.5,71.25c-.07,0-.13-.03-.18-.08-.04-.04-.07-.1-.07-.17s.03-.13,.08-.18c.09-.09,.25-.09,.35,0,.05,.05,.07,.12,.07,.18s-.02,.13-.07,.18c-.04,.04-.11,.07-.18,.07Z" style="fill: #1d1d1b;"/>
        <path d="M.75,29.5c-.06,0-.13-.03-.17-.07-.05-.05-.08-.12-.08-.18,0-.07,.03-.13,.08-.18,.08-.09,.24-.09,.35,0,.04,.05,.07,.11,.07,.18s-.02,.13-.07,.18c-.05,.05-.11,.07-.18,.07Z" style="fill: #1d1d1b;"/>
        <path d="M24.5,1c-.06,0-.12-.02-.17-.07-.05-.05-.08-.12-.08-.18,0-.07,.03-.13,.07-.18,.11-.09,.26-.09,.36,0,.04,.05,.07,.11,.07,.18s-.02,.13-.07,.17c-.05,.06-.11,.08-.18,.08Z" style="fill: #1d1d1b;"/>
        <path d="M13.25,5c-.07,0-.13-.03-.18-.07-.04-.05-.07-.12-.07-.18,0-.07,.03-.13,.07-.18,.09-.09,.26-.09,.36,0,.05,.05,.07,.11,.07,.18,0,.06-.02,.13-.07,.17-.05,.06-.11,.08-.18,.08Z" style="fill: #1d1d1b;"/>
        <path d="M71,35.25c-.06,0-.13-.03-.17-.07-.05-.05-.08-.11-.08-.18s.03-.13,.08-.18c.08-.08,.25-.09,.35,0,.05,.05,.07,.11,.07,.18s-.02,.13-.07,.18c-.05,.05-.11,.07-.18,.07Z" style="fill: #1d1d1b;"/>
      </g>
    </pattern>
    <clipPath id="uuid-2747d43e-49fa-477f-8dfa-cd020637b80f">
      <rect x="151.65" y="124.61" width="186.81" height="168.64" style="fill: none;"/>
    </clipPath>
  </defs>
  <g style="isolation: isolate;">
    <g id="uuid-f6ef2847-5623-4e9e-be05-9297c99c9ca4" data-name="FIL et SILHOUETTES">
      <g>
        <path d="M487.82,346.89c.91-1.05,1.48-2.36,1.36-3.78-.34-4.24-.71-8.49-1.08-12.73-.68-36.61-1.3-73.21-1.35-109.82-.05-41.05,1.39-82.02,2.36-123.05,.35-14.94,.41-29.91-.25-44.84,1.16-1.12,1.87-2.71,2.05-4.45,1.26-12.72,1.31-25.5,.17-38.23-.27-2.96-2.57-6.47-6.06-6.06-72.56,8.58-145.76,8.07-218.68,6.06-72.69-2-145.44-5.44-218.15-2.68-5.16,.2-10.31,.42-15.47,.68-4.66,.24-9.42,.24-14.02,1.1-4.32,.81-8.16,3.3-10.35,7.14-2.2,3.84-2.35,8.45-2.48,12.76-.15,4.75-.28,9.5-.42,14.25-2.79,15.79-3.39,31.83-1.42,47.77,.17,1.37,.66,2.66,1.42,3.69-.04,20.5-.09,41.01-.13,61.51,0,1.32,.36,2.39,.93,3.27,.02,30.5,.05,61.01,.07,91.51,0,9.39,.01,18.79,.02,28.18-.67,.59-1.21,1.3-1.55,2.1,.92,12.02,1.76,24.04,2,36.09,.03,.71,.07,1.42,.1,2.13-.02,.27-.04,.55-.06,.82,.01,.88,.03,1.76,.04,2.63,0,.7-.12,1.33-.33,1.88-.53,9.54-.51,19.11-.26,28.69-.23,5.18-.43,10.35-.63,15.53,.19,5.9,.31,11.8,.32,17.71,0,1.21-.38,2.21-1,2.99-.48,17.6-.71,35.21-.5,52.82,.15,12.82,.55,25.63,1.21,38.43-.89,.61-1.72,1.32-2.47,2.18h0c.26,3.11,.59,6.21,.92,9.31,.91,.63,2.03,1.02,3.36,1.03,78.47,.67,156.96,.5,235.43-.51,20.84-.27,41.68-.61,62.51-.99,16.98,1.1,33.98,1.72,51.05,1.36,27.76-.57,55.45-2.78,83.18-4.02,15.55-.7,31.12-1.07,46.69-.73,3.17,.07,6.21-2.83,6.06-6.06-2.07-45.21-3.58-90.44-4.59-135.68Z" style="fill: #faf7f5;"/>
        <path d="M493.84,466.62c0-.23,0-.45,.03-.66-.09-.01-.17-.04-.26-.05-.07-30.25-.15-60.5-.19-90.75-.03-19.97,.56-39.85,1.48-59.7-.27-4.49-.54-8.97-.76-13.46-2.2-19.8-.83-39.89,.48-59.91,.03-.82,.07-1.63,.1-2.45,.21-5.36,.49-10.73,.45-16.09-.02-2.52-.04-4.99,.16-7.45-.83-13.18-1.76-26.33-2.92-39.49-1.21-13.72-1.81-27.38,.28-41.05,.17-1.13,.81-2.01,1.68-2.62-1.26-17.79-1.87-35.62-1.94-53.46-.03-9.33,.08-18.66,.32-27.99-.48-16.18-.64-32.38-.28-48.58-3.99-2.06-9.02-2.03-12.72,.09C348.4,.22,216.99,2.24,85.8,9.05,62.89,7.37,40.02,4.89,17.18,1.33,7.09-.25,.8,9.44,2.16,16.87c2.49,26.02,1.13,52.23-.46,78.38,.28,4.37,.57,8.75,.85,13.12,.36,.64,.63,1.36,.73,2.19,2.24,17.33,.96,34.79-.25,52.15-1.21,17.33-1.74,34.64-1.51,52.01,.23,17.71,.92,35.43,2.23,53.09,1.36,18.36,3.04,36.7,3.1,55.13,0,2.57-1.56,4.1-3.46,4.64,1.33,19.7,2.53,39.41,2.57,59.17,0,1.92-.96,3.3-2.28,4.1-.24,8.55-1.1,17.07-1.81,25.6-.9,10.79-.85,21.48-.46,32.3,.39,11.1,.84,22.23,1.68,33.31,.37,4.92,.96,9.82,1.47,14.73,10.53-.61,21.05-1.25,31.61-1.29,1.6,0,2.8,.58,3.61,1.46,3.3-.11,6.58-.24,9.81-.28,20.82-.31,41.64-.63,62.46-.94,42.44-.64,84.88-1.28,127.32-1.92,76.68-1.15,153.36-2.31,230.04-3.46v.89c3.58-.76,7.42-.75,10.93-.78,3.83-.04,7.56-.36,11.26-.87,1.15-2.09,2.39-4.14,3.36-6.32,.16-.37,.39-.69,.65-.97-.69-5.26-1.69-10.53-1.78-15.67Zm-19.73-210.99c-2.5,39.1-4.98,77.93-4.93,117.14,.04,31.12,.12,62.24,.19,93.35-73.46,1.11-146.92,2.21-220.38,3.32-40.04,.6-80.08,1.21-120.12,1.81-20.02,.3-40.04,.6-60.06,.9l-28.83,.43c-5.57,.08-11.59,.66-17.33,.12,1.28-74.02-.29-148.05-.46-222.07-.09-39.1,.25-78.22,1.67-117.3,1.29-35.3,5.39-70.93,3.3-106.27,2.33,.31,4.65,.6,6.98,.89,1.32,4.43,5.01,7.92,11.1,7.56,14.35-.85,28.71-1.63,43.07-2.37,128.71,8.6,258.02-7.11,387.07-5.94,3.88,76.1,3.56,152.38-1.29,228.43Z" style="fill: url(#uuid-8e50c8d7-0191-455e-826a-5b73ccd0923f); opacity: .25;"/>
        <line x1="488.62" y1="468.35" x2="7.63" y2="468.35" style="fill: none; stroke: #262631; stroke-miterlimit: 10; stroke-width: .75px;"/>
        <line x1="488.62" y1="1" x2="7.63" y2="1" style="fill: none; stroke: #262631; stroke-miterlimit: 10; stroke-width: .75px;"/>
        <line x1="488.62" y1="29.43" x2="7.63" y2="29.43" style="fill: none; stroke: #262631; stroke-miterlimit: 10; stroke-width: .75px;"/>
        <line x1="23.56" y1="1" x2="23.56" y2="482" style="fill: none; stroke: #262631; stroke-miterlimit: 10; stroke-width: .75px;"/>
        <line x1="1" y1="14.97" x2="1" y2="495.97" style="fill: none; stroke: #262631; stroke-miterlimit: 10; stroke-width: .75px;"/>
        <line x1="495.97" y1="482" x2="495.97" y2="1" style="fill: none; stroke: #262631; stroke-miterlimit: 10; stroke-width: .75px;"/>
        <line x1="474.3" y1="488.98" x2="474.3" y2="7.98" style="fill: none; stroke: #262631; stroke-miterlimit: 10; stroke-width: .75px;"/>
        <g>
          <path d="M347.24,71.23c-.14-1.84-1.88-3.8-4.35-3.63-25.63,1.73-51.21-1.31-76.84-1.11-25.76,.19-51.46,3.11-77.24,2.01-10.11-.43-21.06-2.7-31.3-1.57-.71-.51-1.6-.83-2.68-.83-1.58,0-3.29,.89-4.01,2.14-.46,.14-.93,.26-1.39,.42-4.87,1.66-3.06,8.11,1.61,7.19,.89,10.67,.79,21.38-.44,32.04-.13,1.08,.56,2.07,1.56,2.74,.25,1.63,1.62,3.16,4.14,3.24,24.93,.81,49.85,1.61,74.78,2.42,24.88,.81,49.79,1.81,74.69,1.1,13.86-.4,27.66-1.39,41.37-3.15,1.76-.22,3.31-2.06,3.19-3.51-1.03-13.16-2.06-26.32-3.1-39.49Z" style="fill: #fff;"/>
          <g>
            <text transform="translate(167.68 101.58)" style="fill: #c9514a; font-family: Renner* Bold; font-size: 21.81px;"><tspan x="0" y="0">CONVIVIALITÉ</tspan></text>
            <line x1="139.62" y1="67.87" x2="360.92" y2="67.87" style="fill: none; stroke: #262631; stroke-miterlimit: 10; stroke-width: .75px;"/>
            <line x1="135.85" y1="115.38" x2="345.92" y2="115.38" style="fill: none; stroke: #262631; stroke-miterlimit: 10; stroke-width: .75px;"/>
            <line x1="352.87" y1="70.4" x2="352.87" y2="118.06" style="fill: none; stroke: #262631; stroke-miterlimit: 10; stroke-width: .75px;"/>
            <line x1="145.62" y1="60.6" x2="145.62" y2="108.01" style="fill: none; stroke: #262631; stroke-miterlimit: 10; stroke-width: .75px;"/>
            <g>
              <line x1="312.52" y1="37.49" x2="312.52" y2="37.49" style="fill: none; stroke: #262631; stroke-linecap: round; stroke-miterlimit: 10;"/>
              <line x1="312.52" y1="39.48" x2="312.52" y2="62.34" style="fill: none; stroke: #262631; stroke-dasharray: 0 0 0 1.99; stroke-linecap: round; stroke-miterlimit: 10;"/>
              <line x1="312.52" y1="63.33" x2="312.52" y2="63.33" style="fill: none; stroke: #262631; stroke-linecap: round; stroke-miterlimit: 10;"/>
            </g>
            <g>
              <line x1="181.85" y1="37.49" x2="181.85" y2="37.49" style="fill: none; stroke: #262631; stroke-linecap: round; stroke-miterlimit: 10;"/>
              <line x1="181.85" y1="39.56" x2="181.85" y2="57.19" style="fill: none; stroke: #262631; stroke-dasharray: 0 0 0 2.07; stroke-linecap: round; stroke-miterlimit: 10;"/>
              <line x1="181.85" y1="58.23" x2="181.85" y2="58.23" style="fill: none; stroke: #262631; stroke-linecap: round; stroke-miterlimit: 10;"/>
            </g>
          </g>
        </g>
        <line x1="16.68" y1="294.24" x2="473.42" y2="294.24" style="fill: none; stroke: #262631; stroke-miterlimit: 10; stroke-width: .75px;"/>
        <line x1="21.31" y1="311.91" x2="478.05" y2="311.91" style="fill: none; stroke: #262631; stroke-miterlimit: 10; stroke-width: .75px;"/>
        <line x1="495.97" y1="495.97" x2="21.59" y2="495.97" style="fill: none; stroke: #262631; stroke-miterlimit: 10; stroke-width: .75px;"/>
        <g style="clip-path: url(#uuid-2747d43e-49fa-477f-8dfa-cd020637b80f);">
          <g>
            <path d="M284.8,263.05c1.21,2.32,4.04,.71,4.44,3.23,0,0,2.22,9.49,3.09,11.79,4.08,2.45,7.13,5.32,9.3,8.58,3.03-1.33,7.08-2.03,10.67-2.14-.04-.19-.11-.37-.15-.56-1.1-5.6-3.62-11.18-.64-16.88-3.05-3.77-4.93-7.74-5.54-12.22-.2-1.5-.62-3.92-1.13-5.35-3.53-9.87-7.56-19.59-10.64-29.6-2.63-8.56-7.75-14.85-14.34-19.99l-3-2.19c-1.4-.97-2.84-1.91-4.34-2.81-.76-.46-1.59-.82-2.39-1.19-2.34-1.1-3.83-2.69-3.51-5.34-1.66,.16-3.46,.72-5.07,.92s-4.78,5.85-5.85,9.42c-1.08,3.57-.67,6.8-.67,6.8,0,0-1.55-3.43-1.48-6.8,.07-3.36-6.66-10.36-8.21-11.44-1.55-1.08-2.96-1.08-3.83-3.22-.73,.65-1.75,1.12-2.02,1.86-2.19,6.1-7.74,8.53-12.58,11.74-2.08,1.38-4.38,2.54-6.13,4.26-1.89,1.86-3.71,4.05-4.75,6.45-6.53,15.04-10.76,30.87-15.45,46.54-1.17,3.92-3.61,10.15-5.93,13.52-2.14,3.11-2.77,6.73-1.72,10.2,.51,1.67,.5,3.13,.27,4.57,2.58,1.69,8.12,3.96,10.31,4.14h0c.26-.49,.52-.97,.78-1.46,1.47-2.73,3.81-4.26,7.61-3.42-1.02,4.24-1.85,8.17-2.91,12.04-1.09,3.96-.49,7.25,2.71,9.87,.44,.36,.81,.79,1.2,1.2,.05,.03,.09,.03,.14,.06,6.34,3.51,32.85,5.05,43.41,3.94l28.37-1.82s6.27-5.3,4.28-9.63-4.28-35.09-4.28-35.09" style="fill: #662d91;"/>
            <path d="M255.7,198.72c-1.08,3.57-.67,6.8-.67,6.8,0,0-1.55-3.43-1.48-6.8,.07-3.36-6.66-10.36-8.21-11.44-1.55-1.08-2.96-1.08-3.83-3.22-2.43-10.66-2.04-20.32,3.31-29.42,2.08-3.53,5.6-4.53,9.2-5,8.79-1.13,18.63,6.65,19.01,15.66,.24,5.79-.68,11.72-1.83,17.44-.42,2.1-2.98,3.76-4.57,5.63-1.66,.16-3.46,.72-5.07,.92s-4.78,5.85-5.85,9.42Z" style="fill: #aa7455;"/>
            <path d="M315.18,292.95c1.48,5.35-.97,10.37-6.63,13.56-2.63,1.49-3.38-1.58-3.16-4.6,.43-5.8-.84-10.88-3.76-15.26,3.03-1.33,7.08-2.03,10.67-2.14,.67,2.87,2.08,5.58,2.88,8.44Z" style="fill: #aa7455;"/>
            <path d="M192.34,317.86c-1.82-.3-3.73,4.64-3.73,6.36s-2.12,.81-2.92-.68c-2.1-6.58-1.48-13.07,1.18-19.65,2.36-5.85,3.85-12.05,5.71-18.1,.27-.88,.47-1.72,.6-2.58,2.58,1.69,8.12,3.96,10.31,4.14h0c-4.35,8.11-8.38,16.32-8.21,25.96,.05,2.88-.77,5.78-1.11,8.67,.16-1.93-.03-3.82-1.84-4.12Z" style="fill: #aa7455;"/>
            <path d="M239.99,438.99c2.93-.71,2.83-2.52,2.83-2.52,0,0,6.77,.51,15.45-1.41,1.91,2.42,3.96,5.07,6.06,7.68,.85,1.06,1.99,1.92,2.66,3.07,1.82,3.13,.46,6.11-3.22,6.28-4.91,.23-9.88,.13-14.76-.43-2.69-.31-5.39-.31-8.09-.01-6.06,.68-12.22,.66-18.33,.54-3.41-.07-5.11-3.19-2.89-5.61,2.23-2.44,2.71-4.81,2.68-7.53,3.92,.15,15.2,.53,17.61-.06Z" style="fill: #8b4324;"/>
            <path d="M159.09,389.21c1.72-6.04,4.1-11.94,6.74-17.65,2.48-5.36,4.79-10.5,5.23-16.64,.63-8.77,5.37-16.24,9.65-23.72,1.46-2.55,3.2-4.94,4.98-7.65,.8,1.49,2.92,2.4,2.92,.68s1.92-6.66,3.73-6.36c1.82,.3,2,2.19,1.84,4.12-1.14,9.75,2.49,18.75,4.58,27.96,3.55,15.64,7.59,31.15,13.91,45.97,.7,1.64,1.1,3.4,1.56,4.83-.38,.75-.48,1.41-.79,1.53-6.38,2.49-12.44,6.01-19.71,5.43-6.6-.52-12.83-2.16-19.13-4.22-4.55-1.49-9.68-1.21-15.2-1.79-1.75-3.62-1.53-8.25-.32-12.48Z" style="fill: #fbf6c1;"/>
            <path d="M256.44,309.59c-10.57,1.11-37.08-.44-43.41-3.94-.05-.03-.09-.03-.14-.06,2.22,2.32,3.71,5.32,4.49,8.46,2.73,11.04,3.1,22.32,3.58,33.51,.67,15.6,1.45,31.27-.72,46.86-.21,1.52,.23,3.14,.4,4.71,.5,4.49,1.35,8.98,1.46,13.48,.21,7.82-.49,15.68,.11,23.45,.08,1.05,.15,2.04,.16,2.98,3.92,.15,15.2,.53,17.61-.06,2.93-.71,2.83-2.52,2.83-2.52,0,0,6.77,.51,15.45-1.41,1.41-5.16,2.57-9.73,3.92-14.25,1.29-4.33,3.18-8.51,4.12-12.91,3.34-15.68,6.5-31.4,9.49-47.15,2.03-10.66,3.92-21.34,4.49-32.25,.3-5.75,.44-15.93,4.53-20.73l-28.37,1.82Z" style="fill: #b07e09;"/>
            <g style="mix-blend-mode: color-burn;">
              <path d="M159.09,389.21c1.72-6.04,4.1-11.94,6.74-17.65,2.48-5.36,4.79-10.5,5.23-16.64,.63-8.77,5.37-16.24,9.65-23.72,1.46-2.55,3.2-4.94,4.98-7.65-2.1-6.58-1.48-13.07,1.18-19.65,2.36-5.85,3.85-12.05,5.71-18.1,.27-.88,.47-1.72,.6-2.58,.23-1.44,.23-2.9-.27-4.57-1.05-3.47-.42-7.09,1.72-10.2,2.32-3.37,4.76-9.6,5.93-13.52,4.69-15.66,8.92-31.49,15.45-46.54,1.04-2.4,2.87-4.59,4.75-6.45,1.75-1.72,4.05-2.88,6.13-4.26,4.85-3.21,10.39-5.64,12.58-11.74,.27-.74,1.29-1.21,2.02-1.86-2.43-10.66-2.04-20.32,3.31-29.42,2.08-3.53,5.6-4.53,9.2-5-5.55,1.55-9.78,13.19-5.17,33.06,.78,3.36-.22,7.78-.22,7.78,0,0-2.04-.62-2.32-.14l-.28,.48s-3.17-2.82-4.23-2.17c-1.06,.66,.3,3.58-2.37,5.5-2.67,1.92-11.46,5.16-16.7,13.78-5.25,8.61-3.5,23.96-6.86,30.95-3.36,7-2.83,12.79-6.86,18.44-4.04,5.65-9.83,10.77-11.84,14.8-2.02,4.04-3.23,8.48-1.88,9.02,1.35,.54,2.29,1.35,2.29,1.35,0,0-.28,1.04-.72,2.63-1.56,5.62-5.24,18.52-6.82,20.46-1.98,2.44-3.81,17.68-1.71,19.34,.04,.03,.06,.08,.1,.1-.28,1.88-3.38,5.92-7.55,16.15-4.17,10.23,8.59,16.55,3.56,25.3-5.04,8.75-13.52,2.42-16.07,9.69-2.56,7.27-6.46,13.73-5.52,16.69,.94,2.96,1.48,6.46,4.04,7,2.54,.54,14.97,3.34,23.31,7.42-5.3-.74-10.43-2.11-15.57-3.8-4.55-1.49-9.68-1.21-15.2-1.79-1.75-3.62-1.53-8.25-.32-12.48Z" style="fill: #c40000; mix-blend-mode: color-burn; opacity: .19;"/>
              <path d="M258.47,313.72c.07,.03,.14,.05,.21,.08h-.02s-.08-.03-.19-.08Z" style="fill: #c40000; mix-blend-mode: color-burn; opacity: .19;"/>
              <path d="M281.13,230.96l3.67,6.73c3.67,6.73,2.25,7.94,2.25,7.94l3.5,9.15c3.5,9.15-.27,9.42,.94,11.98,1.21,2.56,3.5,6.46,8.61,8.61,2.85,1.2,5.29,5.28,7.13,9.68,1.47,3.51,2.56,7.21,3.09,9.83,1.21,5.92-2.69,9.69-3.36,11.96-1.36-.33-1.75-2.64-1.58-4.93,.43-5.8-.84-10.88-3.76-15.26-2.17-3.25-5.22-6.13-9.3-8.58-.87-2.3-3.09-11.79-3.09-11.79-.4-2.52-3.23-.91-4.44-3.23-1.21-2.32-9.69-44.51-9.08-49.16,1.85,1.78,5.42,17.06,5.42,17.06Z" style="fill: #c40000; mix-blend-mode: color-burn; opacity: .19;"/>
              <path d="M242.81,436.46c2.12-4.84-.3-17.97,1.72-23.82,2.02-5.85,3.03-18.37,5.45-26.24,2.42-7.87-1.82-17.97,1.82-29.47,3.63-11.51,2.22-33.91,2.22-33.91,3.23,9.49,2.22,28.36,2.22,28.36l1.92,15.95c1.92,15.95-1.51,13.93-1.72,24.12-.2,10.19-6.06,19.99-7.59,34.82-.53,5.13-.69,8.24-.68,10.16,.02,2.23,.26,2.82,.46,2.92-1.01,.23-6.86,1.34-5.98-2.2,.06-.23,.04-.41,.16-.68Z" style="fill: #c40000; mix-blend-mode: color-burn; opacity: .19;"/>
              <path d="M211.9,282.47c3.46-1.15,9.52-4.28,10.83-12.65,1.31-8.38,7.17-14.51,7.27-26.54,.1-12.02,2.52-25.24,2.52-25.75s0,11,0,18.27,7.08,16.35,2.12,24.83c-4.95,8.48-3.24,17.08-7.68,22.57-4.44,5.49-6.98,11.8-6.26,20.12,.2,2.32-1.58,3,1.55,4.77,0,0,.01,0,.02,.01,3.17,1.78,7.31,1.6,6,6.13l-1.31,4.53s2.83,28.26,1.62,37.55c-1.21,9.29,6.26,27.86,3.23,33.01-3.03,5.15-1.21,32.6-3.03,35.83-1.82,3.23,.61,10.19,.3,12.52-.06,.44,.04,.99,.17,1.57,.55,2.52,1.87,6.04-4.11,7.51-6.03,1.49-5.14,3.77-2.86,5.39-3.2-.24-4.75-3.22-2.6-5.57,2.23-2.44,2.71-4.81,2.68-7.53-.01-.95-.08-1.93-.16-2.98-.6-7.77,.09-15.63-.11-23.45-.12-4.5-.96-8.99-1.46-13.48-.17-1.57-.61-3.19-.4-4.71,2.17-15.59,1.39-31.26,.72-46.86-.48-11.19-.85-22.47-3.58-33.51-.78-3.14-2.27-6.14-4.49-8.46-.39-.41-.76-.84-1.2-1.2-3.2-2.62-3.8-5.91-2.71-9.87,1.06-3.87,1.9-7.8,2.91-12.04Z" style="fill: #c40000; mix-blend-mode: color-burn; opacity: .19;"/>
            </g>
          </g>
        </g>
        <line x1="95.3" y1="337" x2="95.3" y2="468.35" style="fill: none; stroke: #262631; stroke-miterlimit: 10; stroke-width: 10px;"/>
        <line x1="401.92" y1="337" x2="401.92" y2="468.35" style="fill: none; stroke: #262631; stroke-miterlimit: 10; stroke-width: 10px;"/>
        <line x1="377.1" y1="343.17" x2="426.74" y2="343.17" style="fill: none; stroke: #262631; stroke-linecap: round; stroke-miterlimit: 10; stroke-width: 10px;"/>
        <line x1="68.14" y1="334.85" x2="117.78" y2="334.85" style="fill: none; stroke: #262631; stroke-linecap: round; stroke-miterlimit: 10; stroke-width: 10px;"/>
        <g>
          <path d="M177.49,274.72h0c-3.17,0-5.87-2-6.92-4.81-.43-1.17-.48-2.44-.29-3.67h14.42c.19,1.23,.14,2.51-.29,3.67-1.05,2.81-3.75,4.81-6.92,4.81Z" style="fill: #d9e021;"/>
          <path d="M177.49,274.72h0c-3.17,0-5.87-2-6.92-4.81-.43-1.17-.48-2.44-.29-3.67l1.83-11.75h10.76l1.83,11.75c.19,1.23,.14,2.51-.29,3.67-1.05,2.81-3.75,4.81-6.92,4.81Z" style="fill: none; stroke: #262631; stroke-miterlimit: 10; stroke-width: .75px;"/>
          <line x1="177.49" y1="274.72" x2="177.49" y2="293.87" style="fill: none; stroke: #262631; stroke-miterlimit: 10; stroke-width: .75px;"/>
          <line x1="184.87" y1="293.87" x2="170.11" y2="293.87" style="fill: none; stroke: #262631; stroke-miterlimit: 10; stroke-width: .75px;"/>
        </g>
        <g>
          <path d="M339.34,261.09c-.43,4.05-4.06,7-8.11,6.57h0c-4.05-.43-7-4.06-6.57-8.11l.2-1.95c8.07,1.35,14.8,.41,15.03-1.81l-.56,5.3Z" style="fill: #9e005d;"/>
          <path d="M324.9,247.49h14.76v12.85c0,4.07-3.31,7.38-7.38,7.38h0c-4.07,0-7.38-3.31-7.38-7.38v-12.85h0Z" transform="translate(28.68 -33.25) rotate(5.99)" style="fill: none; stroke: #262631; stroke-miterlimit: 10; stroke-width: .75px;"/>
          <line x1="331.23" y1="267.66" x2="329.23" y2="286.71" style="fill: none; stroke: #262631; stroke-miterlimit: 10; stroke-width: .75px;"/>
          <line x1="336.57" y1="287.48" x2="321.89" y2="285.94" style="fill: none; stroke: #262631; stroke-miterlimit: 10; stroke-width: .75px;"/>
        </g>
        <g>
          <path d="M117,212.1c-.01,.63,.06,1.68,.19,2.89,4.31,.08,6.16,.2,6.69,0s.97-1.78,1.37-1.89c.21-.06,1.09-.24,1.86-.14v-1.76c-.77-.15-1.63-.34-2.75-.55-1.93-.36-7.32-1.01-7.36,1.45Z" style="fill: #fbd4c1;"/>
          <path d="M103.01,200.76c-1.57-1.81-3.1-3.64-5.82-3.92-2.11,.79-3.74,2.21-4.23,4.28,.5,3.21,3.58,3.48,5.43,5.47,1.83-1.13,6.81-3.81,6.81-3.81-.71-.65-1.53-1.27-2.19-2.02Z" style="fill: #fbda6e;"/>
          <path d="M128.38,269.11c.1,2.14-.64,5.21-.74,7.86,.78,.57,1.55,1.14,2.31,1.73,3.3,2.52,7.21,3.67,11.01,5.06,5.19,1.9,10.45,3.6,15.68,5.41,.58,.2,1.09,.6,1.8,1,7.05,2.68,3.92,3.93,7.9,5.23,3.35-1.32,7.21-1.32,9.77-3.55l6.44-7.91c.46-.57,.49-1.37,.06-1.97l-.8-1.13c-.21-.3-.54-.49-.9-.52-1.65-.14-3.37-.31-5.08-.4-1.2-.07-2.41-.08-3.6,.03-1.9,.17-3.61-.42-5.33-1.05-7.41-2.71-14.82-5.42-22.23-8.15-1.4-.52-2.76-1.1-4.1-1.76-2.78-1.37-5.56-2.74-8.29-4.2-.22-.12-.41-.27-.62-.4-1.56,1.1-3.36,2.79-3.26,4.72Z" style="fill: #fbd4c1;"/>
          <path d="M165.79,304c-.32-.29-.64-.59-1.09-1.01-4.16-2.05-4.04-6.95-15.99-6.49-1.24,.05-2.35,.03-3.38,0-2.38,.26-4.75,.83-7.12,1.28-5.28,1-10.53,2.2-16.73,1.66-.02-.04-.37-.6-.71-1.16-1.95-3.21-3.79-6.48-5.87-9.6-1.42-2.13-1.82-4.55-2.34-6.92-.35-1.59-.17-3.12,1.67-4.13,2.49-1.36,4.59-3.23,5.32-6.5,2.84,2.06,5.51,3.95,8.09,5.85,.11-2.64,.84-5.72,.74-7.86-.09-1.93,1.7-3.62,3.26-4.72-.77-.48-1.5-1.03-2.17-1.63-.89-.8-1.59-1.79-2.46-2.61-1.67-1.57-2.96-3.5-4.03-5.53-1.38-2.63-2.97-5.16-4.44-7.75-1.26-2.22-2.5-4.45-3.72-6.64-3.71-.78-4.8-2.55-7.81-3.07-3.02-.52-5.79,.44-6.92-1.05-.86-1.14-.27-2.61-1.01-3.49-.12,.09-.24,.19-.37,.28-2.86,1.78-4.67,4.48-6.53,7.1-2.85,4.03-5.5,8.21-8.14,12.39-2.18,3.44-4.02,7.03-5.07,11.03-.77,2.91-.8,5.73-.24,8.63,.14,.73,.37,1.51,.25,2.22-.5,3.04-.79,6.16-2.24,8.96-1.64,3.17-1.51,4.19,1.34,6.59,.15,.12,.18,.38,.32,.69-.54,2.27-.96,4.7-1.69,7.02-1.49,4.76-2.26,9.61-2.17,14.58,.05,2.36,.11,4.79,.72,7.05,.56,2.11,.25,4.54,1.66,6.01l3.92,1.74c4.04,.42,13.91,8.21,14.44,10.09,1.98,2.45,3.98,4.92,5.98,7.38l15.06,18.02c3.29,2.24,6.91,3.77,10.67,5,.39,.13,.76,.34,1.27,.57,10.97-.36,17.19-3.64,21.04-7.52,5.98-6.02,6.25-13.48,9.6-13.77,.61-.05,1.31-.19,2.07-.37,.5-1.8,1.09-3.58,1.8-5.32l4.88-14.67c1.05-4.15,2.55-8.01,2.43-12.26-.11-3.99-1.35-7.36-4.31-10.06Z" style="fill: #6e9e75;"/>
          <path d="M116.94,201.37c-1.96-.21-3.93-.22-5.91,0,1.24,1.36,2.48,3.26,1.78,4.08-1.09,1.29-5.87,.18-6.68,1.58s-3.66,5.18-6.24,5.18-1.5,.05-2.7,.47q-1.38,3.01-1.03,8.23c.75,1.81,1.31,3.43,2.08,4.95,.82,1.64,3.24,1.81,3.82,3.92,3.1,.39,4.43-3.69,6-5.34,1.57-1.65-.4-5.31,1.65-6.76,2.05-1.45,4.55-.36,4.63,1.17,.08,1.53,1.17,2.33,1.73,3.74,.56,1.41,3.38,1.85,3.38,1.85-.86-.84-1.66-4.77-2.1-8.09h0l-.02-.16c-.05-.38-.09-.75-.13-1.11v-.1h-.01c-.13-1.22-.2-2.26-.19-2.89,.04-2.45,5.43-1.81,7.36-1.45,1.12,.21,1.97,.4,2.75,.55v-2.8c-2.04-4.96-5.85-6.57-10.17-7.03Z" style="fill: #fbda6e;"/>
          <path d="M107.02,237.17c3.02,.52,4.1,2.29,7.81,3.07,.52-.88,.76-1.68,1.3-2.14,2.73-2.32,5.96-3.75,9.34-4.97l.19-3.49c2.24-1.35,.47-5.31,2.91-5.78l.15-1.82-1.3-2.44c-.19,.44-.41,.85-.69,1.15-1.33,1.49-2.41,.68-2.25-.44,.16-1.13,1.49-3.58,.24-3.66-1.25-.08-7.35-.29-7.37-.29,.44,3.32,1.23,7.25,2.1,8.09,0,0-2.82-.44-3.38-1.85-.56-1.41-1.65-2.21-1.73-3.74-.08-1.53-2.58-2.62-4.63-1.17-2.05,1.45-.08,5.11-1.65,6.76-1.57,1.65-2.9,5.72-6,5.34-1,.95-1.89,2.06-2.98,2.84,.74,.88,.14,2.35,1.01,3.49,1.13,1.49,3.9,.52,6.92,1.05Z" style="fill: #fbd4c1;"/>
          <path d="M149.32,360.45c-3.85,3.88-10.07,7.16-21.04,7.52-2.27,4.61-2.06,9.57-2.11,15.25-.64,7.16,2.06,23.38,1.88,30.9l16.62-2.45c-.14-.76-.17-1.55-.13-2.37-.93-2.9-.09-12.27,1.01-20.85,.29-2.28,.6-4.5,.91-6.53,.22-1.51,.44-2.91,.64-4.15,.45-2.74,.81-4.7,.97-5.26,.68-2.41-1.17-7.24,1.26-12.06h0Z" style="fill: #fbd4c1;"/>
          <path d="M80.85,326.91c-.52,2.31,.04,4.2,1.05,5.72,1.97,2.96,4.26,5.73,8.19,6.11l5.21-1.73c-.54-1.88-10.41-9.67-14.44-10.09Z" style="fill: #262631;"/>
          <path d="M144.66,411.67l-16.62,2.45c-.03,1.25-.14,2.27-.35,2.96-1.15,3.43-1.69,6.94-2.17,10.76,2.62,.63,5.08,1.21,7.65,1.83,2.43,.6,6.61,.24,8.68,1.54,2.91,1.31,5.73,2.58,8.45,3.81,4.34,.22,8.46-.28,12.7-1.56l.61-4.15c-1.22-.33-2.14-.58-3.06-.83-2.79-.75-5.71-1.22-7.63-3.73-1.56-2.03-3.1-4.08-4.75-6.24-1.16-1.53-1.62-2.5-2.07-3.92-.8-.87-1.24-1.86-1.44-2.92Z" style="fill: #736357;"/>
          <path d="M148.06,372.51c-.16,.55-.52,2.51-.97,5.26,2.09,.84,5,2.07,6.76,3.07,5.38,2.59,11.16,3.43,17.17,4.78l4.57-1.8c.38-1.67-1.37-3.84-1.37-3.84-1.56-.4-3.17-.96-4.83-1.19-1.78-.25-2.99-1.25-4.02-2.52-2.58-3.19-4.43-6.84-6.34-10.44-.59-1.12-.91-2.38-1.44-3.8l-8.28-1.58c-2.43,4.82-.57,9.64-1.26,12.06Z" style="fill: #736357;"/>
          <path d="M158.91,346.68c-3.35,.29-3.62,7.76-9.6,13.77h0l8.28,1.58c1.18-5.14,1.93-10.5,3.39-15.72-.76,.18-1.46,.31-2.07,.37Z" style="fill: #fbd4c1;"/>
          <path d="M174.22,379.98c-1.56-.4-3.17-.96-4.83-1.19-1.78-.25-2.99-1.25-4.02-2.52-2.58-3.19-4.43-6.84-6.34-10.44-.59-1.12-.91-2.38-1.43-3.8,1.18-5.14,1.93-10.5,3.39-15.72-.76,.18-1.46,.31-2.07,.37-3.35,.29-3.62,7.76-9.6,13.77h0c-2.43,4.82-.57,9.64-1.26,12.06-.16,.55-.52,2.51-.97,5.26,2.09,.84,5,2.07,6.76,3.07,5.38,2.59,11.16,3.43,17.17,4.78l4.57-1.8c.38-1.67-1.37-3.84-1.37-3.84Z" style="fill: #c40000; mix-blend-mode: color-burn; opacity: .19;"/>
          <path d="M111.03,201.38c-.7-.77-1.41-1.38-1.76-1.51-.97-.36-4.07,2.91-4.07,2.91,0,0-4.98,2.68-6.81,3.81-1.83,1.13-4.57-.25-4.57-.25-1.49-.52-.52,4.39-1.09,5.79-.56,1.41,3.26,.97,4.46,.55,1.2-.42,.13-.47,2.7-.47s5.43-3.78,6.24-5.18,5.59-.29,6.68-1.58c.69-.82-.55-2.72-1.78-4.08Z" style="fill: #6e9e75;"/>
          <path d="M127.11,212.96c-.77-.09-1.65,.08-1.86,.14-.4,.11-.85,1.7-1.37,1.89s-2.37,.08-6.69,0v.1l.14,1.11c0,.05,.01,.11,.02,.16,.02,0,6.12,.21,7.37,.29,1.25,.08-.08,2.53-.24,3.66-.16,1.13,.93,1.93,2.25,.44,.27-.31,.49-.71,.69-1.15,.75-1.71,.96-4.18,.96-5.5,0-.77-.6-1.06-1.27-1.14Z" style="fill: #442f34;"/>
          <path d="M133.95,385.92c-.13-.57-.3-1.12-.47-1.67,1.04-5.58,1.98-11.17,2.62-16.77,.91-7.94,.15-16.16-5.12-22.24-.85-9.48-4.77-18.26-13.16-22.71-5.12-2.71-10.78-4.72-16.1-7.03-2.12-.92-4.8-1.74-6.77-2.97-3.16-1.97-2.98-3.28-3.01-6.8-.05-5.84-1.65-9.85-4.99-12.72,.55-.61,1.03-1.21,1.29-1.8,.96-2.2,.66-3.13,.83-5.4,.35-4.73,3.04-9.32,4-14.22,2.38-12.15,3.45-23.32,9.88-34.28,2.66-4.53,5.74-8.63,5.01-14.2-.25-1.92-.75-3.55-1.75-5.24-.66-.91-1.33-1.8-2.03-2.68,.1-.34,.22-.86,.39-1.6,.51-7.94-2.94-12.94-8.75-16.09-1.43,.83-2.48,2.04-2.86,3.63,.5,3.21,3.58,3.48,5.43,5.47-1.83,1.13-4.57-.25-4.57-.25-1.49-.52-.52,4.39-1.09,5.79-.56,1.41,3.26,.97,4.46,.55q-1.38,3.01-1.03,8.23c.75,1.81,1.31,3.43,2.08,4.95,.82,1.64,3.24,1.81,3.82,3.92-1,.95-1.89,2.06-2.98,2.84-.12,.09-.24,.19-.37,.28-2.86,1.78-4.67,4.48-6.53,7.1-2.85,4.03-5.5,8.21-8.14,12.39-1.7,2.68-3.18,5.46-4.25,8.45-.44,2.47-.89,4.92-1.42,7.37,0,1.27,.11,2.55,.36,3.84,.14,.73,.37,1.51,.25,2.22-.5,3.04-.79,6.16-2.24,8.96-1.64,3.17-1.51,4.19,1.34,6.59,.15,.12,.18,.38,.32,.69-.54,2.27-.96,4.7-1.69,7.02-1.49,4.76-2.26,9.61-2.17,14.58,.05,2.36,.11,4.79,.72,7.05,.56,2.11,.25,4.54,1.66,6.01l3.92,1.74c-.52,2.31,.04,4.2,1.05,5.72,1.97,2.96,4.26,5.73,8.19,6.11l5.21-1.73c1.98,2.45,3.98,4.92,5.98,7.38l15.06,18.02c3.29,2.24,6.91,3.77,10.67,5,.39,.13,.76,.34,1.27,.57-2.27,4.61-2.06,9.57-2.11,15.25-.64,7.16,2.06,23.38,1.88,30.9-.03,1.25-.14,2.27-.35,2.96-1.15,3.43-1.69,6.94-2.17,10.76,2.51,.6,4.89,1.17,7.36,1.76,2.67-6.74,4.32-13.65,4.52-21.03,.16-5.86-.25-13.29-2.76-19.12-.2-1.18-.42-2.35-.68-3.53Z" style="fill: #c40000; mix-blend-mode: color-burn; opacity: .19;"/>
          <g style="mix-blend-mode: color-burn; opacity: .19;">
            <path d="M150.86,282.07c-5.03-1.53-11.71-3.22-15.89-5.75-4.18-2.53-7.72-3.94-10.58-5.79-2.86-1.85-4.84,.6-4.84,.6l-4.27-5.55c-4.03,2.41-2.44,8.58-1.11,12.09,.02-.01,.04-.03,.06-.04,2.49-1.36,4.59-3.23,5.32-6.5,2.84,2.06,5.51,3.95,8.09,5.85,.78,.57,1.55,1.14,2.31,1.73,3.3,2.52,7.21,3.67,11.01,5.06,5.19,1.9,10.45,3.6,15.68,5.41,.58,.2,1.09,.6,1.8,1,7.05,2.68,3.92,3.93,7.9,5.23,3.35-1.32,7.21-1.32,9.77-3.55l.81-.99c-3.34-1.17-9.2-3.16-11.11-3.33-2.74-.24-9.9-3.94-14.93-5.47Z" style="fill: #c40000;"/>
          </g>
        </g>
        <g>
          <path d="M374,376.83c.19,.31,.43,.38,1.13,.17-.42-.16-.79-.2-1.13-.17Z" style="fill: #be7265;"/>
          <path d="M362.02,373.57c.15,.13,.27,.21,.34,.23,.01-.08,.03-.16,.04-.25-.12,0-.25,.01-.39,.02Z" style="fill: #be7265;"/>
          <path d="M337.8,277.77c-.13-1.38,.69-4.85,1.23-6.78-1.57-.1-3.11-.33-4.62-.92-2.1-.82-7.23-1.91-7.66-.44-4.31,1.74-3.4,8.29-2.22,10.64,1.46,2.91,5.27,3.73,8.2,3.52,1.45-.11,2.87-.69,4.41-1.08,1.32-1.22,.85-3.06,.67-4.93Z" style="fill: #fbb099;"/>
          <path d="M362.41,373.56c-.01,.08-.03,.16-.04,.25,.1,.02,.12-.05,.04-.25Z" style="fill: #be7265;"/>
          <path d="M401.92,235.33c-.64-1.03-3.66-6.85-4.35-11.82-.48-5-3.04-11.11-4.89-15.23-.76-1.7-3.55-4.78-5.24-5.64-3.48-1.77-9.29-.45-12.85,.7-4.81,1.55-7.49,3.53-9.86,8.07-.47,.91-.89,2.38-.83,4.23,.06,2,1.24,3.39,1,5.19-.23,1.71-.15,3.11,1.44,4.23,.46,.32,.55,1.31,.63,2.02,.37,3.4,.97,6.74,2.29,9.92,1.95,4.71,2.19,4.88,7.05,4.33,.3,.67,.28,1.28,.11,1.86,6.02-.18,17.81-1.27,20.66-3.31,1.87-1.34,3.64-3.17,4.86-4.54Z" style="fill: #fbb099;"/>
          <path d="M375.13,376.99c-1.51,3.37-3.78,6.18-5.82,9.14-1.08,1.56-2.02,3.26-2.78,5-.57,1.32-.07,2.21,1.22,2.88,1.71,.9,3.53,.85,5.3,.3,4.15-1.29,7.89-3.42,10.8-6.61,4.01-4.42,7.77-9.07,11.54-13.7,.61-.75,1.16-2.05,.94-2.88-.78-2.97-1.63-6.05-5.1-7.17-.28-.09-.75-.27-.77-.44-1.1,1.1-5.87,4.61-7.39,6.14-1.53,1.53-6.6,6.93-7.93,7.33Z" style="fill: #442f34;"/>
          <path d="M362.41,373.56c.08,.2,.05,.27-.04,.25-.53,3.52-1.79,6.51-5.02,8.55-1.2,.76-2.1,2.11-2.9,3.34-.72,1.11-.07,2.18,1.27,2.2,.82,.02,1.73-.16,2.46-.53,1.89-.97,3.8-1.95,5.53-3.18,2.78-1.97,5.43-4.13,8.14-6.2,.66-.5,1.3-1.08,2.17-1.16-.17-.28-.3-.76-.68-1.45-.8-1.45-7.99-1.95-10.92-1.82Z" style="fill: #442f34;"/>
          <path d="M420.16,305.3c.03-2.4-.34-4.64-1.33-6.82-1.57-3.47-2.25-7.12-1.75-10.91,.61-4.64,1.24-9.28,2.07-13.89,.8-4.43,1.17-8.86,1.13-13.35-.03-3.75-1.12-7.18-3.11-10.27-1.43-2.23-3.15-4.29-4.89-6.3-2.44-2.82-7.73-5.52-10.26-8.26-.02-.02-.06-.08-.11-.16-1.21,1.37-2.99,3.2-4.86,4.54-2.85,2.03-14.64,3.12-20.66,3.31-.18,.59-.51,1.15-.84,1.7-.75,1.27-.9,2.47-.42,3.93,.6,1.8,1.42,3.78,1.2,5.56-.52,4.2-1.29,8.42-3.09,12.34-.91,1.99-2.3,3.37-4.52,3.6-4.12,.43-8.26,.98-12.39,1.07-5.11,.11-10.23-.27-15.35-.32-.66,0-1.32-.03-1.97-.07-.54,1.93-1.36,5.39-1.23,6.78,.18,1.87,.65,3.71-.67,4.93,.23,.57,21.56,3.81,26.53,3.26,1.22-.14,2.48-.02,3.64-.02,.13,.4,.26,.6,.25,.8-.23,4.79-.49,9.58-.7,14.37-.06,1.42-.91,1.96-2.08,2.47-1.64,.72-3.24,1.57-4.72,2.57-1.37,.92-1.71,2.4-1.28,3.99,.3,1.11,.7,2.2,1.08,3.38,4.22,1.19,7.93,6.5,14.2,6.01s17.86-2.41,22.29-.97,8.37,.64,10.46,1.77c2.09,1.13,6.55,5.48,13.33,5.27,0-6.88-.06-13.6,.03-20.31Z" style="fill: #fbda6e;"/>
          <path d="M396.33,318.57c-4.43-1.45-16.01,.48-22.29,.97s-9.98-4.83-14.2-6.01c-4.47,.77-8.78,1.39-13.04,2.27-4.8,.98-9.58,2.12-13.95,4.48-3.62,1.95-4.28,3.15-3.8,7.16,.15,1.26,.5,2.5,.72,3.76,.25,1.44,.9,1.98,1.47,4.03,1.84,3.91,4.17,5.85,7.54,9.27,1.04,1.05,9.92,10.58,12.24,13.72,1.56,2.12,3.32,4.1,4.98,6.13,1.77,4.32,4.87,8.24,6.01,9.23,.13,0,.27-.01,.39-.02,2.92-.13,10.11,.37,10.92,1.82,.38,.69,.51,1.17,.68,1.45,.34-.03,.71,0,1.13,.17,1.33-.4,6.4-5.8,7.93-7.33,1.53-1.53,6.3-5.05,7.39-6.14-.18-1.88-1.95-2.13-3.08-2.93-4.79-3.38-8.83-6.78-13.69-10.07-1.96-1.11-.25-2.14,.63-2.45,6.94-2.48,15.13-3.43,22.21-4.63,4.6-.3,16.78-5.87,19.6-9.88,1.36-1.94,2.04-3.32,4-7.95-6.78,.2-11.24-4.15-13.33-5.27-2.09-1.13-6.03-.32-10.46-1.77Z" style="fill: #457989;"/>
          <path d="M397.33,217.23c-.14-.24-.36-.37-.43-.65-.07-.28,0-.6-.04-.89-.13-1.13-1.04-1.77-1.41-2.78-.34-.91-.14-1.77-1.19-2.21-.28-.12-.24-.08-.45-.29-.17-.16-.27-.3-.51-.39-.47-.18-.8,.04-1.26,.13-.54,.1-.75-.39-1.2-.65-.48-.28-1.07-.35-1.62-.32-.54,.03-1.06,.19-1.59,.29-.84,.16-1.45-.14-2.25-.31-1.2-.25-2.01,.46-3.1,.81-.49,.16-.99,.34-1.37,.7-.16,.15-.31,.33-.41,.52-.08,.14-.1,.54-.17,.62-.08,.09-.48,.16-.64,.25-.19,.12-.36,.28-.47,.49-.27,.5-.13,1.02-.56,1.45-.8,.79-2,1.17-2.26,2.39-.13,.62,.12,1.06,.39,1.59,.36,.69,.21,1.33,.38,2.04,.14,.59,.54,.84,.96,.84,.2,.23,.52,.34,.85,.12,.23-.15,.38-.32,.47-.49,.24-.1,.43-.3,.47-.61,.09-.71,.78-1.24,1.5-1.09,.57,.12,1.13,.73,1.62,1.05,1.17,.77,1.3,2.35,1.61,3.6,.25,1.01,1.18,1.53,2.16,1.63,.38,.04,.76,.03,1.07-.24,.42-.37,.24-.8,.93-.67,.95,.19,1.74,.38,2.46-.42,.04-.05,.11-.24,.16-.26-.06,.03,0,.12,.08,.1,.25-.05,.52,.07,.79-.01,.2-.06,.35-.2,.53-.3,.31-.18,.32-.13,.68-.13,1.01,.02,2.15-.79,2.89-1.43,.95-.83,.95-1.98,1.08-3.15,.05-.49,.11-.92-.15-1.35Z" style="fill: #f2f2f2;"/>
          <g>
            <path d="M393.5,223.18c1.01,.02,2.15-.79,2.89-1.43,.35-.3,.56-.65,.71-1.02-.77-3.6-2.25-7.43-3.6-10.57-.06-.05-.12-.09-.2-.12-.47-.18-.8,.04-1.26,.13-.54,.1-.75-.39-1.2-.65-.48-.28-1.07-.35-1.62-.32-.54,.03-1.06,.19-1.59,.29-.26,.05-.5,.05-.73,.03,.84,1.06,1.53,2.18,1.96,3.33,1.13,3.05,2.72,7.37,3.57,10.7,.14-.07,.26-.16,.4-.24,.31-.18,.32-.13,.68-.13Z" style="fill: #f2f2f2;"/>
            <path d="M418.83,298.47c-1.57-3.47-2.25-7.12-1.75-10.91,.61-4.64,1.24-9.28,2.07-13.89,.8-4.43,1.17-8.86,1.13-13.35-.03-3.75-1.12-7.18-3.11-10.27-1.43-2.23-3.15-4.29-4.89-6.3-2.44-2.82-7.73-5.52-10.26-8.26-.02-.02-.06-.08-.11-.16-.64-1.03-3.66-6.85-4.35-11.82-.09-.9-.26-1.84-.46-2.79,.26-.65,.29-1.39,.37-2.13,.05-.49,.11-.92-.15-1.35-.14-.24-.36-.37-.43-.65-.07-.28,0-.6-.04-.89-.13-1.13-1.04-1.77-1.41-2.78-.34-.91-.14-1.77-1.19-2.21-.28-.12-.24-.08-.45-.29-.11-.1-.2-.19-.31-.27-.28-.66-.56-1.29-.82-1.87-.76-1.7-3.55-4.78-5.24-5.64-3.08-1.57-7.97-.72-11.53,.3,3.04-.09,8.02,2.83,10.99,6.57,.84,1.06,1.53,2.18,1.96,3.33,1.13,3.05,2.72,7.37,3.57,10.7,.6,2.34,.84,4.2,.29,4.75-1.33,1.33-2.9,4.68-1.69,7.05,1.21,2.37,1.4,4.39,2.81,5.79,1.41,1.4,10.1,2.97,12.03,5.99,1.93,3.02,6.76,16.05,3.62,20.88-3.14,4.83-19.31,15.26-22.45,15.84-3.14,.58-4.14,.58-4.14,.58,0,0,9.81,.72,13.07,0,3.26-.72,9.54-3.33,10.38-.58,.85,2.75-1.09,8.3,.12,13.01,1.21,4.71-1.57,11.59,0,14.6,1.57,3.02,3.66,6.07,.32,8.89-3.34,2.82,1.49,3.76-1.53,5.28-3.02,1.52-10.38,.55-12.07,1.88-.81,.63-3.54,1.49-6.58,2.32-3.33,.92-7.04,1.82-8.99,2.38-3.74,1.09-20.88,4.1-20.4,7.12,.48,3.02,9.41,10.74,12.79,14.12,3.38,3.38,14.79,12.39,15.42,14.16,.51,1.45,6.22,5.03,7.92,8.87l.04-.05c.66-.81,1.31-1.61,1.97-2.42,.61-.75,1.16-2.05,.94-2.88-.75-2.85-1.58-5.77-4.7-7-.14-.05-.25-.12-.4-.17-.28-.09-.75-.27-.77-.44-.18-1.88-1.95-2.13-3.08-2.93-4.79-3.38-8.83-6.78-13.69-10.07-1.96-1.11-.25-2.14,.63-2.45,4.51-1.61,9.55-2.57,14.47-3.38,2.65-.44,5.27-.83,7.75-1.25,4.6-.3,16.78-5.87,19.6-9.88,1.36-1.94,2.04-3.32,4-7.95,0-6.88-.06-13.6,.03-20.31,.03-2.4-.34-4.64-1.33-6.82Z" style="fill: #c40000; mix-blend-mode: color-burn; opacity: .19;"/>
          </g>
        </g>
      </g>
    </g>
  </g>
</svg>
