<?xml version="1.0" encoding="UTF-8"?>
<svg xmlns="http://www.w3.org/2000/svg" xmlns:xlink="http://www.w3.org/1999/xlink" viewBox="0 0 500 500">
  <defs>
    <pattern id="uuid-6ead7e94-c8fe-45d0-863c-bad54748866e" data-name="Lac asséché sableux USGS 17" x="0" y="0" width="72" height="72" patternTransform="translate(14086.21 7741.44) scale(2.42)" patternUnits="userSpaceOnUse" viewBox="0 0 72 72">
      <g>
        <rect width="72" height="72" style="fill: none;"/>
        <path d="M21,3c-.06,0-.12-.02-.17-.07-.05-.05-.08-.11-.08-.18s.03-.13,.08-.18c.09-.09,.25-.09,.35,0,.05,.05,.07,.11,.07,.18,0,.06-.02,.12-.07,.17-.05,.06-.11,.08-.18,.08Z" style="fill: #1d1d1b;"/>
        <path d="M20,8.25c-.06,0-.13-.03-.18-.07-.04-.05-.07-.11-.07-.18s.03-.13,.07-.18c.1-.09,.26-.09,.36,0,.04,.05,.07,.11,.07,.18s-.03,.13-.07,.18c-.05,.05-.11,.07-.18,.07Z" style="fill: #1d1d1b;"/>
        <path d="M20.25,10.5c-.06,0-.13-.03-.17-.07-.05-.05-.08-.11-.08-.18s.03-.13,.07-.18c.1-.09,.27-.09,.36,0,.04,.05,.07,.11,.07,.18s-.03,.14-.08,.18c-.04,.04-.1,.07-.17,.07Z" style="fill: #1d1d1b;"/>
        <path d="M18,12.75c-.06,0-.12-.03-.17-.07-.05-.05-.08-.11-.08-.18s.03-.13,.07-.18c.11-.09,.26-.09,.36,0,.05,.05,.07,.11,.07,.18s-.02,.13-.07,.18c-.05,.04-.11,.07-.18,.07Z" style="fill: #1d1d1b;"/>
        <path d="M15.25,10.5c-.06,0-.12-.02-.17-.07-.05-.05-.08-.12-.08-.18,0-.07,.03-.13,.07-.18,.12-.1,.26-.09,.36,0,.05,.05,.07,.11,.07,.18,0,.06-.02,.13-.07,.17-.05,.06-.11,.08-.18,.08Z" style="fill: #1d1d1b;"/>
        <path d="M22.75,20c-.06,0-.12-.02-.17-.07-.05-.05-.08-.11-.08-.18,0-.06,.03-.13,.07-.17,.11-.11,.27-.1,.36,0,.05,.06,.07,.12,.07,.18s-.02,.13-.07,.18c-.05,.04-.11,.07-.18,.07Z" style="fill: #1d1d1b;"/>
        <path d="M15.25,23c-.06,0-.12-.02-.17-.07-.05-.05-.08-.11-.08-.18,0-.06,.03-.12,.07-.17,.12-.11,.26-.1,.36,0,.05,.05,.07,.12,.07,.18,0,.07-.02,.13-.07,.18-.05,.05-.11,.07-.18,.07Z" style="fill: #1d1d1b;"/>
        <path d="M14,24c-.07,0-.13-.03-.18-.08-.04-.04-.07-.1-.07-.17s.03-.13,.07-.18c.11-.1,.26-.09,.36,0,.05,.05,.07,.12,.07,.18,0,.07-.02,.13-.07,.18-.05,.04-.11,.07-.18,.07Z" style="fill: #1d1d1b;"/>
        <path d="M24,27c-.06,0-.12-.02-.17-.07-.05-.05-.08-.11-.08-.18s.03-.13,.07-.17c.11-.11,.26-.1,.36,0,.05,.06,.07,.12,.07,.18,0,.07-.02,.13-.07,.18-.05,.05-.11,.07-.18,.07Z" style="fill: #1d1d1b;"/>
        <path d="M30.75,25.75c-.06,0-.12-.02-.17-.07-.05-.05-.08-.11-.08-.18s.03-.13,.08-.18c.1-.09,.25-.09,.35,0,.05,.05,.07,.12,.07,.18s-.02,.13-.07,.18c-.05,.05-.11,.07-.18,.07Z" style="fill: #1d1d1b;"/>
        <path d="M31.25,23.25c-.06,0-.12-.03-.17-.07-.05-.05-.08-.11-.08-.18,0-.06,.03-.13,.07-.17,.11-.11,.26-.1,.36,0,.05,.06,.07,.12,.07,.18,0,.07-.02,.13-.07,.18-.05,.04-.11,.07-.18,.07Z" style="fill: #1d1d1b;"/>
        <path d="M29.25,18.25c-.06,0-.12-.02-.17-.07-.05-.05-.08-.11-.08-.18s.03-.13,.08-.18c.1-.09,.25-.09,.35,0,.05,.05,.07,.11,.07,.18s-.03,.13-.07,.18c-.05,.05-.12,.07-.18,.07Z" style="fill: #1d1d1b;"/>
        <path d="M32.25,18.25c-.06,0-.12-.02-.17-.07-.05-.05-.08-.11-.08-.18s.03-.13,.07-.18c.11-.09,.26-.09,.36,0,.04,.05,.07,.11,.07,.18s-.03,.13-.07,.18c-.05,.05-.11,.07-.18,.07Z" style="fill: #1d1d1b;"/>
        <path d="M32.5,13.75c-.06,0-.13-.03-.17-.07-.05-.05-.08-.11-.08-.18s.03-.13,.08-.18c.09-.09,.26-.09,.35,0,.05,.05,.07,.12,.07,.18s-.02,.12-.07,.17c-.05,.05-.11,.08-.18,.08Z" style="fill: #1d1d1b;"/>
        <path d="M31.75,11.75c-.06,0-.12-.02-.17-.07-.05-.05-.08-.11-.08-.18s.03-.13,.08-.18c.1-.09,.25-.09,.35,0,.05,.05,.07,.11,.07,.18s-.03,.13-.07,.18c-.05,.05-.11,.07-.18,.07Z" style="fill: #1d1d1b;"/>
        <path d="M29.25,10.75c-.07,0-.13-.03-.18-.07-.04-.05-.07-.11-.07-.18s.03-.13,.08-.18c.1-.09,.25-.09,.35,0,.05,.05,.07,.11,.07,.18s-.02,.13-.07,.18c-.05,.04-.11,.07-.18,.07Z" style="fill: #1d1d1b;"/>
        <path d="M32.25,7c-.06,0-.12-.02-.17-.07-.05-.05-.08-.11-.08-.18s.03-.13,.07-.18c.11-.09,.26-.09,.36,0,.05,.05,.07,.11,.07,.18s-.03,.13-.07,.18c-.05,.05-.11,.07-.18,.07Z" style="fill: #1d1d1b;"/>
        <path d="M32,3c-.06,0-.12-.03-.17-.07-.05-.05-.08-.11-.08-.18s.03-.13,.08-.18c.1-.09,.25-.09,.35,0,.05,.05,.07,.12,.07,.18s-.02,.13-.07,.18c-.05,.04-.11,.07-.18,.07Z" style="fill: #1d1d1b;"/>
        <path d="M29.25,3.25c-.06,0-.12-.02-.17-.07-.05-.05-.08-.11-.08-.18s.03-.13,.08-.18c.09-.09,.25-.09,.35,0,.05,.05,.07,.11,.07,.18,0,.06-.02,.13-.07,.17-.05,.06-.11,.08-.18,.08Z" style="fill: #1d1d1b;"/>
        <path d="M34,1.25c-.06,0-.13-.03-.17-.07-.05-.05-.08-.11-.08-.18s.03-.14,.08-.18c.09-.09,.26-.09,.35,0,.05,.05,.07,.11,.07,.18,0,.06-.02,.12-.07,.17-.05,.05-.11,.08-.18,.08Z" style="fill: #1d1d1b;"/>
        <path d="M41.5,7c-.06,0-.13-.03-.17-.07-.05-.05-.08-.11-.08-.18s.03-.13,.08-.18c.09-.09,.24-.09,.34,0,.06,.06,.08,.12,.08,.18s-.02,.12-.07,.17c-.05,.06-.11,.08-.18,.08Z" style="fill: #1d1d1b;"/>
        <path d="M45.5,6.75c-.06,0-.12-.02-.17-.07-.05-.05-.08-.11-.08-.18s.03-.13,.08-.18c.09-.09,.25-.09,.35,0,.05,.05,.07,.12,.07,.18s-.02,.13-.07,.18c-.05,.05-.12,.07-.18,.07Z" style="fill: #1d1d1b;"/>
        <path d="M40.25,10.25c-.06,0-.12-.02-.17-.07-.05-.05-.08-.12-.08-.18,0-.07,.03-.13,.07-.18,.11-.09,.26-.09,.36,0,.05,.05,.07,.11,.07,.18,0,.06-.02,.13-.07,.17-.05,.06-.11,.08-.18,.08Z" style="fill: #1d1d1b;"/>
        <path d="M45,11.75c-.06,0-.12-.02-.17-.07-.05-.05-.08-.11-.08-.18s.03-.13,.08-.18c.1-.09,.25-.09,.35,0,.04,.05,.07,.11,.07,.18s-.02,.13-.07,.18c-.05,.05-.11,.07-.18,.07Z" style="fill: #1d1d1b;"/>
        <path d="M45,13.5c-.06,0-.12-.02-.17-.07-.05-.05-.08-.11-.08-.18s.03-.13,.08-.18c.08-.09,.26-.09,.35,0,.05,.04,.07,.1,.07,.17s-.02,.13-.07,.18c-.05,.05-.11,.07-.18,.07Z" style="fill: #1d1d1b;"/>
        <path d="M47,14.25c-.06,0-.12-.02-.17-.07-.05-.05-.08-.11-.08-.18s.03-.13,.08-.18c.09-.09,.25-.09,.35,0,.05,.05,.07,.12,.07,.18s-.02,.13-.07,.18c-.05,.05-.11,.07-.18,.07Z" style="fill: #1d1d1b;"/>
        <path d="M47,16.25c-.06,0-.13-.03-.17-.07-.05-.05-.08-.11-.08-.18s.03-.13,.08-.18c.08-.08,.26-.09,.35,0,.05,.04,.07,.11,.07,.17s-.02,.13-.07,.18c-.05,.04-.11,.07-.18,.07Z" style="fill: #1d1d1b;"/>
        <path d="M47.25,22.75c-.06,0-.13-.03-.17-.07-.05-.04-.08-.11-.08-.18s.03-.13,.08-.18c.08-.08,.25-.09,.35,0,.05,.05,.07,.11,.07,.18s-.03,.13-.07,.18c-.05,.05-.11,.07-.18,.07Z" style="fill: #1d1d1b;"/>
        <path d="M39,20.75c-.06,0-.12-.02-.17-.07-.05-.05-.08-.11-.08-.18s.03-.13,.08-.18c.1-.09,.25-.09,.35,0,.04,.05,.07,.11,.07,.18s-.03,.13-.07,.18c-.05,.05-.11,.07-.18,.07Z" style="fill: #1d1d1b;"/>
        <path d="M50.25,13.5c-.06,0-.13-.03-.17-.07-.05-.05-.08-.11-.08-.18s.03-.13,.08-.18c.1-.09,.26-.09,.35,0,.05,.05,.07,.12,.07,.18s-.02,.13-.07,.18c-.05,.04-.11,.07-.18,.07Z" style="fill: #1d1d1b;"/>
        <path d="M52.25,12c-.06,0-.12-.02-.17-.07-.05-.05-.08-.11-.08-.18s.03-.13,.08-.18c.09-.09,.25-.09,.35,0,.05,.05,.07,.12,.07,.18s-.02,.13-.07,.18c-.05,.05-.11,.07-.18,.07Z" style="fill: #1d1d1b;"/>
        <path d="M54.75,11c-.06,0-.13-.03-.17-.07-.05-.05-.08-.12-.08-.18,0-.07,.03-.13,.08-.18,.09-.09,.25-.09,.35,0,.05,.05,.07,.11,.07,.18,0,.06-.02,.13-.07,.18-.05,.04-.11,.07-.18,.07Z" style="fill: #1d1d1b;"/>
        <path d="M54.75,6.75c-.07,0-.13-.03-.17-.07-.05-.06-.08-.12-.08-.18s.03-.12,.07-.17c.1-.1,.26-.1,.36,0,.05,.06,.07,.12,.07,.18s-.02,.12-.07,.17c-.05,.05-.11,.08-.18,.08Z" style="fill: #1d1d1b;"/>
        <path d="M56.5,.75c-.06,0-.13-.03-.17-.07-.05-.05-.08-.12-.08-.18s.03-.13,.07-.18c.1-.09,.26-.09,.36,0,.05,.06,.07,.12,.07,.18s-.02,.12-.07,.17c-.05,.05-.11,.08-.18,.08Z" style="fill: #1d1d1b;"/>
        <path d="M64,6.5c-.06,0-.13-.03-.17-.07-.05-.05-.08-.12-.08-.18s.03-.13,.07-.17c.1-.1,.26-.1,.36,0,.05,.06,.07,.12,.07,.18s-.02,.12-.07,.17c-.05,.05-.11,.08-.18,.08Z" style="fill: #1d1d1b;"/>
        <path d="M65,2.5c-.06,0-.13-.03-.17-.07-.05-.05-.08-.11-.08-.18s.03-.13,.08-.18c.09-.09,.25-.09,.35,0,.05,.05,.07,.11,.07,.18s-.02,.13-.07,.17c-.05,.06-.11,.08-.18,.08Z" style="fill: #1d1d1b;"/>
        <path d="M68,3c-.06,0-.13-.03-.17-.07-.05-.05-.08-.11-.08-.18s.03-.13,.07-.18c.1-.09,.27-.09,.36,0,.05,.05,.07,.12,.07,.18s-.02,.13-.07,.18c-.05,.04-.11,.07-.18,.07Z" style="fill: #1d1d1b;"/>
        <path d="M68,10.25c-.06,0-.13-.03-.17-.07-.05-.05-.08-.11-.08-.18s.03-.13,.07-.18c.1-.09,.26-.09,.36,0,.05,.05,.07,.12,.07,.18s-.02,.13-.07,.18c-.05,.04-.11,.07-.18,.07Z" style="fill: #1d1d1b;"/>
        <path d="M64.25,12.25c-.06,0-.13-.03-.17-.07-.05-.05-.08-.12-.08-.18s.03-.13,.07-.17c.09-.1,.25-.1,.35,0,.06,.05,.08,.12,.08,.18s-.02,.13-.07,.17c-.05,.06-.11,.08-.18,.08Z" style="fill: #1d1d1b;"/>
        <path d="M65.25,15.75c-.07,0-.13-.03-.17-.07-.05-.05-.08-.11-.08-.18s.03-.13,.08-.18c.07-.08,.26-.09,.35,0,.05,.04,.07,.11,.07,.17s-.02,.12-.07,.17c-.04,.05-.11,.08-.18,.08Z" style="fill: #1d1d1b;"/>
        <path d="M64,19.75c-.06,0-.13-.03-.17-.07-.05-.05-.08-.11-.08-.18s.03-.13,.08-.18c.08-.09,.25-.09,.35,0,.05,.05,.07,.12,.07,.18s-.02,.13-.07,.18c-.05,.04-.11,.07-.18,.07Z" style="fill: #1d1d1b;"/>
        <path d="M66.25,19.75c-.07,0-.13-.03-.18-.08-.04-.04-.07-.1-.07-.17,0-.06,.03-.13,.07-.17,.09-.1,.26-.1,.36,0,.05,.05,.07,.12,.07,.18,0,.07-.02,.13-.07,.18-.05,.04-.11,.07-.18,.07Z" style="fill: #1d1d1b;"/>
        <path d="M68,21.25c-.06,0-.13-.03-.17-.07-.05-.05-.08-.12-.08-.18s.03-.12,.07-.17c.1-.1,.27-.1,.36,0,.05,.06,.07,.12,.07,.18s-.02,.12-.07,.17c-.05,.05-.11,.08-.18,.08Z" style="fill: #1d1d1b;"/>
        <path d="M69.25,20.25c-.06,0-.12-.02-.17-.07-.05-.05-.08-.11-.08-.18s.03-.13,.08-.18c.09-.09,.25-.09,.35,0,.05,.05,.07,.11,.07,.18s-.02,.13-.07,.18c-.05,.05-.11,.07-.18,.07Z" style="fill: #1d1d1b;"/>
        <path d="M69.5,18c-.06,0-.12-.02-.17-.07-.05-.05-.08-.11-.08-.18s.03-.13,.08-.18c.09-.09,.25-.09,.35,0,.05,.05,.07,.11,.07,.18s-.02,.13-.07,.18c-.05,.05-.11,.07-.18,.07Z" style="fill: #1d1d1b;"/>
        <path d="M71.25,17.5c-.06,0-.13-.03-.17-.07-.05-.05-.08-.12-.08-.18s.03-.12,.07-.17c.11-.1,.26-.1,.36,0,.05,.06,.07,.12,.07,.18s-.02,.12-.07,.17c-.05,.05-.11,.08-.18,.08Z" style="fill: #1d1d1b;"/>
        <path d="M8,47c-.06,0-.13-.03-.18-.07-.04-.06-.07-.12-.07-.18,0-.07,.03-.13,.07-.18,.09-.09,.26-.09,.36,0,.05,.05,.07,.11,.07,.18,0,.06-.02,.13-.07,.17-.05,.06-.11,.08-.18,.08Z" style="fill: #1d1d1b;"/>
        <path d="M7,52.25c-.06,0-.12-.02-.17-.07-.05-.05-.08-.11-.08-.18s.03-.13,.07-.18c.11-.09,.26-.09,.36,0,.05,.05,.07,.12,.07,.18,0,.07-.02,.13-.07,.18-.05,.05-.11,.07-.18,.07Z" style="fill: #1d1d1b;"/>
        <path d="M7.25,54.5c-.06,0-.13-.03-.17-.07-.05-.05-.08-.11-.08-.18,0-.06,.03-.13,.07-.18,.1-.09,.26-.09,.36,0,.04,.05,.07,.11,.07,.18s-.03,.13-.07,.18c-.05,.04-.11,.07-.18,.07Z" style="fill: #1d1d1b;"/>
        <path d="M5,56.75c-.06,0-.13-.03-.17-.07-.05-.05-.08-.11-.08-.18s.03-.13,.07-.17c.1-.1,.26-.1,.36,0,.05,.05,.07,.11,.07,.18s-.03,.13-.07,.18c-.05,.05-.12,.07-.18,.07Z" style="fill: #1d1d1b;"/>
        <path d="M2.25,54.5c-.06,0-.12-.02-.17-.07-.05-.05-.08-.11-.08-.18,0-.06,.03-.13,.07-.17,.11-.11,.26-.1,.35,0,.06,.06,.08,.12,.08,.18s-.02,.13-.07,.18c-.06,.05-.12,.07-.18,.07Z" style="fill: #1d1d1b;"/>
        <path d="M9.75,64c-.06,0-.12-.02-.17-.07-.05-.05-.08-.11-.08-.18s.03-.13,.07-.18c.11-.09,.26-.09,.36,0,.05,.05,.07,.11,.07,.18s-.02,.13-.07,.18-.11,.07-.18,.07Z" style="fill: #1d1d1b;"/>
        <path d="M2.25,67c-.06,0-.12-.03-.17-.07-.05-.05-.08-.11-.08-.18s.03-.13,.07-.18c.1-.09,.26-.09,.36,0,.05,.05,.07,.11,.07,.18,0,.06-.02,.13-.07,.18-.06,.05-.12,.07-.18,.07Z" style="fill: #1d1d1b;"/>
        <path d="M1,68c-.06,0-.13-.03-.18-.07-.04-.05-.07-.11-.07-.18,0-.06,.03-.13,.07-.18,.1-.09,.27-.09,.36,0,.05,.05,.07,.12,.07,.18s-.02,.13-.07,.18c-.05,.04-.11,.07-.18,.07Z" style="fill: #1d1d1b;"/>
        <path d="M11,71c-.06,0-.12-.02-.17-.07-.05-.05-.08-.11-.08-.18s.03-.13,.07-.18c.11-.09,.26-.09,.36,0,.05,.05,.07,.12,.07,.18s-.02,.13-.07,.18c-.05,.05-.12,.07-.18,.07Z" style="fill: #1d1d1b;"/>
        <path d="M17.75,69.75c-.06,0-.12-.02-.17-.07-.05-.05-.08-.11-.08-.18s.03-.13,.07-.18c.11-.09,.26-.09,.36,0,.05,.05,.07,.11,.07,.18s-.03,.13-.07,.18c-.05,.05-.12,.07-.18,.07Z" style="fill: #1d1d1b;"/>
        <path d="M18.25,67.25c-.06,0-.12-.03-.17-.07-.05-.06-.08-.12-.08-.18,0-.07,.03-.13,.07-.18,.11-.09,.26-.09,.36,0,.05,.05,.07,.11,.07,.18,0,.06-.02,.13-.07,.17-.05,.05-.11,.08-.18,.08Z" style="fill: #1d1d1b;"/>
        <path d="M16.25,62.25c-.07,0-.13-.03-.18-.08-.04-.04-.07-.1-.07-.17s.03-.13,.07-.18c.1-.09,.26-.09,.36,0,.05,.05,.07,.11,.07,.18s-.02,.13-.07,.18c-.05,.04-.11,.07-.18,.07Z" style="fill: #1d1d1b;"/>
        <path d="M19.25,62.25c-.06,0-.13-.03-.17-.07-.05-.05-.08-.11-.08-.18s.03-.13,.07-.18c.1-.09,.27-.09,.36,0,.04,.04,.07,.11,.07,.18s-.03,.14-.08,.18c-.04,.04-.1,.07-.17,.07Z" style="fill: #1d1d1b;"/>
        <path d="M19.5,57.75c-.06,0-.12-.02-.17-.07-.05-.05-.08-.11-.08-.18,0-.06,.03-.13,.07-.17,.11-.11,.26-.1,.36,0,.05,.06,.07,.12,.07,.18s-.02,.13-.07,.18c-.05,.05-.11,.07-.18,.07Z" style="fill: #1d1d1b;"/>
        <path d="M18.75,55.75c-.06,0-.12-.02-.17-.07-.05-.05-.08-.11-.08-.18s.03-.13,.08-.18c.1-.09,.26-.09,.35,0,.05,.05,.07,.12,.07,.18s-.02,.12-.07,.17c-.05,.05-.11,.08-.18,.08Z" style="fill: #1d1d1b;"/>
        <path d="M16.25,54.75c-.06,0-.13-.03-.18-.07-.04-.05-.07-.11-.07-.18,0-.06,.03-.12,.07-.17,.1-.1,.26-.1,.36,0,.05,.05,.07,.12,.07,.18,0,.07-.02,.13-.07,.18-.05,.05-.11,.07-.18,.07Z" style="fill: #1d1d1b;"/>
        <path d="M19.25,51c-.06,0-.13-.03-.17-.07-.05-.05-.08-.12-.08-.18,0-.07,.03-.13,.07-.18,.1-.09,.27-.09,.36,0,.04,.04,.07,.11,.07,.18s-.02,.13-.07,.18c-.05,.04-.11,.07-.18,.07Z" style="fill: #1d1d1b;"/>
        <path d="M19,47c-.06,0-.13-.03-.17-.07-.05-.05-.08-.12-.08-.18,0-.07,.03-.13,.07-.18,.1-.09,.26-.09,.36,0,.04,.05,.07,.11,.07,.18,0,.06-.02,.13-.07,.17-.05,.06-.11,.08-.18,.08Z" style="fill: #1d1d1b;"/>
        <path d="M16.25,47.25c-.07,0-.13-.03-.18-.07-.04-.05-.07-.12-.07-.18,0-.07,.03-.13,.07-.18,.09-.09,.26-.09,.36,0,.05,.05,.07,.11,.07,.18,0,.06-.02,.13-.07,.18-.05,.05-.11,.07-.18,.07Z" style="fill: #1d1d1b;"/>
        <path d="M21,45.25c-.06,0-.12-.02-.17-.07-.05-.05-.08-.11-.08-.18s.03-.13,.08-.18c.1-.09,.25-.09,.35,0,.05,.05,.07,.12,.07,.18s-.02,.12-.07,.17c-.05,.06-.11,.08-.18,.08Z" style="fill: #1d1d1b;"/>
        <path d="M28.5,51c-.06,0-.13-.03-.17-.07-.05-.05-.08-.11-.08-.18s.03-.13,.08-.18c.09-.09,.26-.09,.35,0,.05,.06,.07,.12,.07,.18s-.02,.13-.07,.18c-.05,.04-.11,.07-.18,.07Z" style="fill: #1d1d1b;"/>
        <path d="M32.5,50.75c-.06,0-.13-.03-.17-.07-.05-.05-.08-.11-.08-.18s.03-.13,.08-.18c.09-.09,.25-.09,.35,0,.05,.05,.07,.12,.07,.18s-.02,.13-.07,.18c-.05,.04-.11,.07-.18,.07Z" style="fill: #1d1d1b;"/>
        <path d="M27.25,54.25c-.07,0-.13-.03-.18-.08-.04-.04-.07-.1-.07-.17s.03-.14,.08-.18c.09-.09,.26-.09,.35,0,.05,.05,.07,.11,.07,.18,0,.06-.02,.13-.07,.18-.04,.04-.11,.07-.18,.07Z" style="fill: #1d1d1b;"/>
        <path d="M32,55.75c-.06,0-.12-.03-.17-.07-.05-.05-.08-.11-.08-.18,0-.06,.03-.13,.07-.17,.11-.11,.26-.1,.36,0,.05,.06,.07,.12,.07,.18,0,.07-.02,.13-.07,.18-.05,.04-.11,.07-.18,.07Z" style="fill: #1d1d1b;"/>
        <path d="M32,57.5c-.06,0-.12-.02-.17-.07-.05-.05-.08-.11-.08-.18,0-.06,.03-.13,.07-.17,.11-.11,.26-.1,.36,0,.05,.06,.07,.12,.07,.18s-.02,.13-.07,.18c-.05,.05-.11,.07-.18,.07Z" style="fill: #1d1d1b;"/>
        <path d="M34,58.25c-.07,0-.13-.03-.18-.08-.04-.04-.07-.1-.07-.17s.03-.14,.08-.18c.09-.09,.26-.09,.35,0,.05,.05,.07,.11,.07,.18,0,.06-.02,.13-.07,.18-.04,.04-.11,.07-.18,.07Z" style="fill: #1d1d1b;"/>
        <path d="M34,60.25c-.06,0-.12-.02-.17-.07-.05-.05-.08-.11-.08-.18s.03-.13,.08-.18c.09-.09,.26-.09,.35,0,.05,.06,.07,.12,.07,.18s-.02,.13-.07,.18c-.05,.04-.11,.07-.18,.07Z" style="fill: #1d1d1b;"/>
        <path d="M34.25,66.75c-.06,0-.13-.03-.17-.07-.05-.05-.08-.11-.08-.18s.03-.13,.08-.18c.09-.09,.25-.09,.35,0,.05,.05,.07,.12,.07,.18s-.02,.13-.07,.18c-.05,.04-.11,.07-.18,.07Z" style="fill: #1d1d1b;"/>
        <path d="M26,64.75c-.06,0-.12-.02-.17-.07-.05-.05-.08-.11-.08-.18s.03-.13,.08-.18c.09-.09,.26-.09,.35,0,.05,.04,.07,.11,.07,.17,0,.07-.02,.13-.07,.18-.05,.05-.11,.07-.18,.07Z" style="fill: #1d1d1b;"/>
        <path d="M37.25,57.5c-.06,0-.13-.03-.17-.07-.05-.05-.08-.11-.08-.18s.03-.13,.08-.18c.09-.09,.25-.09,.34,0,.06,.05,.08,.12,.08,.18s-.02,.12-.07,.17c-.05,.06-.11,.08-.18,.08Z" style="fill: #1d1d1b;"/>
        <path d="M39.25,56c-.06,0-.13-.03-.17-.07-.05-.05-.08-.11-.08-.18s.03-.13,.08-.18c.09-.09,.25-.09,.35,0,.05,.05,.07,.12,.07,.18s-.02,.12-.07,.17c-.05,.06-.11,.08-.18,.08Z" style="fill: #1d1d1b;"/>
        <path d="M41.75,55c-.06,0-.13-.03-.17-.07-.05-.05-.08-.11-.08-.18s.03-.14,.08-.18c.09-.09,.26-.09,.35,0,.05,.05,.07,.11,.07,.18,0,.06-.02,.12-.07,.17-.05,.05-.11,.08-.18,.08Z" style="fill: #1d1d1b;"/>
        <path d="M41.75,50.75c-.06,0-.12-.02-.17-.07-.05-.05-.08-.11-.08-.18s.03-.13,.08-.18c.09-.09,.26-.09,.35,0,.05,.05,.07,.11,.07,.18,0,.06-.02,.13-.07,.18-.05,.04-.11,.07-.18,.07Z" style="fill: #1d1d1b;"/>
        <path d="M43.5,44.75c-.06,0-.12-.03-.17-.07-.05-.05-.08-.11-.08-.18s.03-.13,.08-.18c.09-.09,.25-.09,.35,0,.05,.05,.07,.12,.07,.18s-.02,.13-.07,.18c-.05,.05-.12,.07-.18,.07Z" style="fill: #1d1d1b;"/>
        <path d="M51,50.5c-.06,0-.12-.03-.17-.07-.05-.05-.08-.11-.08-.18s.03-.13,.08-.18c.09-.09,.25-.09,.35,0,.05,.05,.07,.11,.07,.18s-.02,.13-.07,.18c-.05,.05-.11,.07-.18,.07Z" style="fill: #1d1d1b;"/>
        <path d="M52,46.5c-.06,0-.13-.03-.17-.07-.05-.05-.08-.11-.08-.18s.03-.13,.08-.18c.09-.09,.25-.09,.35,0,.05,.06,.07,.12,.07,.18s-.02,.12-.07,.17c-.05,.06-.11,.08-.18,.08Z" style="fill: #1d1d1b;"/>
        <path d="M55,47c-.06,0-.12-.02-.17-.07-.05-.05-.08-.11-.08-.18s.03-.13,.08-.18c.09-.09,.25-.09,.35,0,.05,.05,.07,.12,.07,.18s-.02,.13-.07,.18c-.05,.05-.11,.07-.18,.07Z" style="fill: #1d1d1b;"/>
        <path d="M55,54.25c-.06,0-.12-.03-.17-.07-.05-.05-.08-.11-.08-.18s.03-.13,.08-.18c.09-.09,.25-.09,.35,0,.05,.05,.07,.12,.07,.18s-.02,.13-.07,.18c-.05,.05-.11,.07-.18,.07Z" style="fill: #1d1d1b;"/>
        <path d="M51.25,56.25c-.06,0-.13-.03-.17-.07-.05-.05-.08-.11-.08-.18s.03-.13,.08-.18c.09-.09,.25-.09,.35,0,.05,.05,.07,.11,.07,.18s-.02,.13-.07,.18c-.05,.04-.11,.07-.18,.07Z" style="fill: #1d1d1b;"/>
        <path d="M52.25,59.75c-.06,0-.12-.02-.17-.07-.05-.05-.08-.11-.08-.18s.03-.13,.08-.18c.09-.09,.25-.09,.35,0,.05,.06,.07,.12,.07,.18s-.02,.12-.07,.17c-.05,.06-.11,.08-.18,.08Z" style="fill: #1d1d1b;"/>
        <path d="M51,63.75c-.06,0-.13-.03-.17-.07-.05-.05-.08-.11-.08-.18s.03-.13,.08-.18c.09-.09,.25-.09,.35,0,.05,.05,.07,.12,.07,.18s-.02,.13-.07,.17c-.05,.06-.11,.08-.18,.08Z" style="fill: #1d1d1b;"/>
        <path d="M53.25,63.75c-.06,0-.13-.03-.17-.07-.05-.05-.08-.12-.08-.18s.03-.13,.07-.17c.1-.1,.26-.1,.36,0,.05,.06,.07,.12,.07,.18s-.02,.12-.07,.17c-.05,.05-.11,.08-.18,.08Z" style="fill: #1d1d1b;"/>
        <path d="M55,65.25c-.06,0-.12-.03-.17-.07-.05-.05-.08-.11-.08-.18s.03-.13,.08-.18c.09-.09,.25-.09,.35,0,.05,.05,.07,.12,.07,.18s-.02,.13-.07,.18c-.05,.05-.11,.07-.18,.07Z" style="fill: #1d1d1b;"/>
        <path d="M56.25,64.25c-.06,0-.12-.03-.17-.07-.05-.05-.08-.11-.08-.18s.03-.13,.08-.18c.09-.09,.25-.09,.35,0,.05,.05,.07,.12,.07,.18,0,.07-.02,.13-.07,.18-.05,.05-.11,.07-.18,.07Z" style="fill: #1d1d1b;"/>
        <path d="M56.5,62c-.06,0-.13-.03-.17-.07-.05-.06-.08-.12-.08-.18,0-.07,.03-.13,.08-.18,.07-.08,.26-.09,.35,0,.05,.04,.07,.11,.07,.17s-.02,.12-.07,.17c-.05,.05-.11,.08-.18,.08Z" style="fill: #1d1d1b;"/>
        <path d="M58.25,61.5c-.06,0-.13-.03-.17-.07-.05-.05-.08-.12-.08-.18s.03-.13,.07-.17c.1-.1,.27-.1,.36,0,.05,.06,.07,.12,.07,.18s-.02,.12-.07,.17c-.04,.05-.11,.08-.18,.08Z" style="fill: #1d1d1b;"/>
        <path d="M21,27c-.06,0-.12-.02-.17-.07-.05-.05-.08-.11-.08-.18s.03-.13,.08-.18c.1-.09,.25-.09,.35,0,.05,.05,.07,.12,.07,.18s-.02,.13-.07,.18c-.05,.05-.12,.07-.18,.07Z" style="fill: #1d1d1b;"/>
        <path d="M22.75,24c-.07,0-.13-.03-.18-.07-.04-.05-.07-.11-.07-.18s.03-.13,.08-.18c.1-.09,.26-.09,.35,0,.05,.05,.07,.12,.07,.18s-.02,.13-.07,.18c-.04,.04-.11,.07-.18,.07Z" style="fill: #1d1d1b;"/>
        <path d="M25.25,24.5c-.06,0-.12-.03-.17-.07-.05-.05-.08-.11-.08-.18s.03-.13,.08-.18c.1-.09,.25-.09,.35,0,.05,.05,.07,.12,.07,.18s-.02,.13-.07,.18c-.05,.04-.11,.07-.18,.07Z" style="fill: #1d1d1b;"/>
        <path d="M35.25,23.25c-.06,0-.12-.02-.17-.07-.05-.05-.08-.11-.08-.18s.03-.13,.08-.18c.1-.09,.25-.09,.35,0,.05,.05,.07,.11,.07,.18s-.03,.13-.07,.18c-.05,.05-.11,.07-.18,.07Z" style="fill: #1d1d1b;"/>
        <path d="M39,24.75c-.06,0-.12-.02-.17-.07-.05-.05-.08-.11-.08-.18s.03-.13,.08-.18c.1-.09,.25-.09,.35,0,.05,.05,.07,.11,.07,.18s-.03,.13-.07,.18c-.05,.05-.12,.07-.18,.07Z" style="fill: #1d1d1b;"/>
        <path d="M45,29.5c-.06,0-.12-.02-.17-.07-.05-.05-.08-.11-.08-.18s.03-.13,.08-.18c.1-.09,.25-.09,.35,0,.05,.05,.07,.11,.07,.18s-.02,.13-.07,.18c-.05,.05-.12,.07-.18,.07Z" style="fill: #1d1d1b;"/>
        <path d="M46.25,29c-.06,0-.13-.03-.17-.07-.05-.05-.08-.11-.08-.18s.03-.13,.08-.18c.09-.09,.25-.09,.34,0,.06,.06,.08,.12,.08,.18s-.02,.12-.07,.17c-.05,.06-.11,.08-.18,.08Z" style="fill: #1d1d1b;"/>
        <path d="M55.25,28c-.06,0-.13-.03-.17-.07-.05-.05-.08-.11-.08-.18s.03-.13,.08-.18c.09-.09,.25-.09,.35,0,.05,.05,.07,.12,.07,.18s-.02,.13-.07,.18c-.05,.04-.11,.07-.18,.07Z" style="fill: #1d1d1b;"/>
        <path d="M51.25,25.25c-.06,0-.12-.02-.17-.07-.05-.05-.08-.11-.08-.18s.03-.13,.08-.18c.09-.09,.25-.09,.35,0,.05,.05,.07,.11,.07,.18s-.03,.13-.07,.18c-.05,.05-.11,.07-.18,.07Z" style="fill: #1d1d1b;"/>
        <path d="M52,29.5c-.06,0-.13-.03-.17-.07-.05-.05-.08-.11-.08-.18s.03-.13,.08-.18c.09-.09,.25-.09,.35,0,.05,.06,.07,.12,.07,.18s-.02,.12-.07,.17c-.05,.06-.11,.08-.18,.08Z" style="fill: #1d1d1b;"/>
        <path d="M62.5,35.5c-.06,0-.13-.03-.17-.07-.05-.05-.08-.11-.08-.18s.03-.13,.08-.18c.08-.08,.24-.09,.34,0,.06,.05,.08,.12,.08,.18s-.02,.13-.07,.18c-.05,.05-.12,.07-.18,.07Z" style="fill: #1d1d1b;"/>
        <path d="M58.25,38.25c-.07,0-.13-.03-.17-.07-.05-.05-.08-.12-.08-.18s.03-.13,.07-.17c.1-.1,.27-.1,.36,0,.05,.06,.07,.12,.07,.18s-.02,.12-.07,.17c-.04,.05-.11,.08-.18,.08Z" style="fill: #1d1d1b;"/>
        <path d="M49,39c-.07,0-.13-.03-.17-.07-.05-.05-.08-.12-.08-.18s.03-.13,.07-.17c.1-.1,.26-.1,.36,0,.05,.06,.07,.12,.07,.18s-.02,.12-.07,.17c-.05,.05-.11,.08-.18,.08Z" style="fill: #1d1d1b;"/>
        <path d="M48,41.25c-.06,0-.12-.02-.17-.07-.05-.05-.08-.11-.08-.18s.03-.13,.08-.18c.09-.09,.24-.09,.34,0,.06,.05,.08,.12,.08,.18s-.02,.12-.07,.17c-.06,.06-.11,.08-.18,.08Z" style="fill: #1d1d1b;"/>
        <path d="M52,43c-.07,0-.13-.03-.18-.08-.04-.04-.07-.1-.07-.17s.03-.13,.08-.18c.09-.09,.25-.09,.35,0,.05,.05,.07,.12,.07,.18s-.02,.13-.07,.18c-.05,.04-.11,.07-.18,.07Z" style="fill: #1d1d1b;"/>
        <path d="M53.5,45c-.06,0-.13-.03-.17-.07-.05-.05-.08-.11-.08-.18s.03-.13,.08-.18c.08-.09,.25-.09,.35,0,.05,.05,.07,.12,.07,.18s-.02,.13-.07,.18c-.05,.04-.11,.07-.18,.07Z" style="fill: #1d1d1b;"/>
        <path d="M62.25,48c-.06,0-.13-.03-.17-.07-.05-.05-.08-.12-.08-.18s.03-.13,.07-.17c.1-.1,.26-.1,.36,0,.05,.06,.07,.12,.07,.18s-.02,.12-.07,.17c-.05,.05-.11,.08-.18,.08Z" style="fill: #1d1d1b;"/>
        <path d="M65,51.75c-.06,0-.12-.03-.17-.07-.05-.05-.08-.11-.08-.18s.03-.14,.08-.18c.09-.08,.25-.09,.35,0,.04,.05,.07,.11,.07,.18s-.02,.13-.07,.18c-.05,.05-.11,.07-.18,.07Z" style="fill: #1d1d1b;"/>
        <path d="M67,51.75c-.06,0-.13-.03-.17-.07-.05-.05-.08-.11-.08-.18s.03-.13,.08-.18c.08-.08,.25-.09,.35,0,.05,.05,.07,.11,.07,.18s-.02,.13-.07,.18c-.05,.05-.11,.07-.18,.07Z" style="fill: #1d1d1b;"/>
        <path d="M69.5,45c-.06,0-.12-.03-.17-.07-.05-.05-.08-.11-.08-.18s.03-.13,.08-.18c.09-.09,.25-.09,.35,0,.05,.05,.07,.11,.07,.18s-.02,.13-.07,.18c-.05,.05-.11,.07-.18,.07Z" style="fill: #1d1d1b;"/>
        <path d="M60,39c-.06,0-.12-.02-.17-.07-.05-.05-.08-.11-.08-.18s.03-.13,.08-.18c.09-.09,.25-.09,.35,0,.04,.05,.07,.11,.07,.18s-.03,.13-.07,.18c-.05,.05-.11,.07-.18,.07Z" style="fill: #1d1d1b;"/>
        <path d="M47.25,47.75c-.06,0-.13-.03-.17-.07-.05-.05-.08-.11-.08-.18s.03-.14,.08-.18c.08-.08,.25-.09,.35,0,.04,.05,.07,.11,.07,.18s-.02,.13-.07,.18c-.05,.05-.11,.07-.18,.07Z" style="fill: #1d1d1b;"/>
        <path d="M32.5,47c-.06,0-.12-.03-.17-.07-.05-.05-.08-.11-.08-.18s.03-.13,.08-.18c.09-.09,.26-.09,.35,0,.05,.05,.07,.12,.07,.18s-.02,.13-.07,.18c-.05,.04-.11,.07-.18,.07Z" style="fill: #1d1d1b;"/>
        <path d="M37,44.5c-.06,0-.12-.03-.17-.07-.05-.05-.08-.12-.08-.18,0-.07,.03-.13,.07-.17,.11-.11,.26-.1,.36,0,.05,.05,.07,.12,.07,.18s-.02,.13-.07,.17c-.05,.05-.11,.08-.18,.08Z" style="fill: #1d1d1b;"/>
        <path d="M26.25,37.75c-.06,0-.12-.03-.17-.07-.05-.05-.08-.11-.08-.18s.03-.13,.08-.18c.1-.09,.25-.09,.35,0,.05,.05,.07,.12,.07,.18s-.02,.13-.07,.18c-.05,.04-.11,.07-.18,.07Z" style="fill: #1d1d1b;"/>
        <path d="M29.75,35.5c-.06,0-.12-.02-.17-.07-.05-.05-.08-.11-.08-.18s.03-.13,.08-.18c.1-.09,.25-.09,.35,0,.05,.05,.07,.12,.07,.18s-.02,.12-.07,.17c-.05,.06-.11,.08-.18,.08Z" style="fill: #1d1d1b;"/>
        <path d="M17,28.5c-.06,0-.12-.02-.17-.07-.05-.05-.08-.11-.08-.18,0-.06,.03-.12,.07-.17,.11-.11,.26-.1,.36,0,.05,.05,.07,.12,.07,.18,0,.07-.02,.13-.07,.18-.05,.05-.11,.07-.18,.07Z" style="fill: #1d1d1b;"/>
        <path d="M10.5,29.5c-.06,0-.12-.02-.17-.07-.05-.05-.08-.11-.08-.18,0-.06,.03-.12,.07-.17,.11-.11,.26-.1,.36,0,.05,.06,.07,.12,.07,.18s-.02,.13-.07,.18c-.05,.05-.11,.07-.18,.07Z" style="fill: #1d1d1b;"/>
        <path d="M6,31.5c-.06,0-.12-.02-.17-.07-.05-.05-.08-.11-.08-.18,0-.06,.03-.12,.07-.17,.12-.11,.26-.1,.36,0,.05,.06,.07,.12,.07,.18,0,.07-.02,.13-.07,.18-.05,.05-.11,.07-.18,.07Z" style="fill: #1d1d1b;"/>
        <path d="M2.5,35.25c-.07,0-.13-.03-.17-.07-.05-.05-.08-.12-.08-.18,0-.07,.03-.13,.08-.18,.08-.09,.24-.09,.34,0,.06,.05,.08,.11,.08,.18,0,.06-.02,.13-.07,.17-.05,.06-.11,.08-.18,.08Z" style="fill: #1d1d1b;"/>
        <path d="M11.25,36.75c-.07,0-.13-.03-.18-.07-.04-.05-.07-.12-.07-.18,0-.07,.03-.13,.07-.18,.1-.09,.25-.09,.36,0,.05,.05,.07,.11,.07,.18s-.02,.13-.07,.18c-.05,.05-.11,.07-.18,.07Z" style="fill: #1d1d1b;"/>
        <path d="M17,42c-.06,0-.12-.02-.17-.07-.05-.05-.08-.11-.08-.18,0-.06,.03-.13,.07-.18,.11-.09,.26-.09,.36,0,.05,.05,.07,.11,.07,.18s-.03,.13-.07,.18c-.05,.05-.11,.07-.18,.07Z" style="fill: #1d1d1b;"/>
        <path d="M12.75,36c-.06,0-.13-.03-.17-.07-.05-.05-.08-.11-.08-.18,0-.06,.03-.13,.07-.17,.1-.1,.26-.1,.36,0,.05,.05,.07,.11,.07,.18s-.02,.13-.07,.18c-.05,.05-.12,.07-.18,.07Z" style="fill: #1d1d1b;"/>
        <path d="M26.5,30.25c-.06,0-.12-.02-.17-.07-.05-.05-.08-.11-.08-.18s.03-.13,.08-.18c.1-.09,.25-.09,.35,0,.05,.05,.07,.12,.07,.18s-.02,.13-.07,.18c-.05,.05-.11,.07-.18,.07Z" style="fill: #1d1d1b;"/>
        <path d="M37.75,31c-.06,0-.12-.02-.17-.07-.05-.05-.08-.11-.08-.18s.03-.13,.08-.18c.1-.09,.25-.09,.35,0,.05,.05,.07,.11,.07,.18s-.02,.13-.07,.18c-.05,.05-.12,.07-.18,.07Z" style="fill: #1d1d1b;"/>
        <path d="M39.5,32.5c-.06,0-.12-.02-.17-.07-.05-.05-.08-.11-.08-.18s.03-.13,.08-.18c.08-.09,.26-.09,.35,0,.05,.04,.07,.11,.07,.17s-.02,.13-.07,.18c-.05,.04-.11,.07-.18,.07Z" style="fill: #1d1d1b;"/>
        <path d="M28,42c-.06,0-.12-.03-.17-.07-.05-.05-.08-.12-.08-.18s.03-.12,.07-.17c.11-.1,.26-.1,.35,0,.06,.06,.08,.12,.08,.18s-.02,.13-.07,.17c-.05,.06-.11,.08-.18,.08Z" style="fill: #1d1d1b;"/>
        <path d="M6.5,20.5c-.06,0-.13-.03-.17-.07-.05-.05-.08-.12-.08-.18,0-.07,.03-.13,.07-.18,.1-.09,.26-.09,.36,0,.05,.05,.07,.11,.07,.18,0,.06-.02,.13-.07,.17-.05,.06-.11,.08-.18,.08Z" style="fill: #1d1d1b;"/>
        <path d="M10.25,20.25c-.06,0-.13-.03-.17-.07-.05-.05-.08-.11-.08-.18s.03-.13,.07-.18c.1-.09,.26-.09,.36,0,.05,.05,.07,.11,.07,.18s-.02,.13-.07,.18c-.05,.05-.11,.07-.18,.07Z" style="fill: #1d1d1b;"/>
        <path d="M11.75,23.5c-.06,0-.12-.02-.17-.07-.05-.05-.08-.11-.08-.18,0-.06,.03-.12,.07-.17,.11-.11,.26-.1,.36,0,.05,.06,.07,.12,.07,.18s-.02,.13-.07,.18c-.05,.05-.12,.07-.18,.07Z" style="fill: #1d1d1b;"/>
        <path d="M3,25.75c-.06,0-.13-.03-.17-.07-.05-.05-.08-.11-.08-.18s.03-.13,.07-.18c.1-.09,.26-.09,.36,0,.05,.05,.07,.11,.07,.18s-.02,.13-.07,.18c-.05,.05-.12,.07-.18,.07Z" style="fill: #1d1d1b;"/>
        <path d="M64.25,29.5c-.06,0-.13-.03-.17-.07-.05-.05-.08-.12-.08-.18s.03-.13,.07-.17c.1-.1,.25-.1,.35,0,.06,.05,.08,.12,.08,.18s-.02,.13-.07,.17c-.05,.06-.11,.08-.18,.08Z" style="fill: #1d1d1b;"/>
        <path d="M67.5,30.75c-.06,0-.13-.03-.17-.07-.05-.05-.08-.11-.08-.18,0-.06,.03-.13,.07-.17,.1-.1,.26-.1,.36,0,.05,.06,.07,.12,.07,.18s-.02,.13-.07,.18c-.05,.04-.11,.07-.18,.07Z" style="fill: #1d1d1b;"/>
        <path d="M69.5,29.75c-.06,0-.13-.03-.17-.07-.05-.05-.08-.11-.08-.18s.03-.13,.08-.18c.09-.09,.25-.09,.35,0,.05,.05,.07,.11,.07,.18s-.02,.13-.07,.18c-.05,.04-.11,.07-.18,.07Z" style="fill: #1d1d1b;"/>
        <path d="M7.25,15.75c-.07,0-.13-.03-.18-.08-.04-.04-.07-.1-.07-.17s.03-.13,.07-.18c.1-.09,.26-.09,.36,0,.04,.05,.07,.11,.07,.18s-.03,.13-.07,.18c-.05,.04-.11,.07-.18,.07Z" style="fill: #1d1d1b;"/>
        <path d="M1.5,9c-.06,0-.13-.03-.18-.07-.04-.05-.07-.11-.07-.18s.03-.13,.07-.18c.09-.09,.26-.09,.36,0,.05,.05,.07,.12,.07,.18s-.02,.13-.07,.18c-.05,.04-.11,.07-.18,.07Z" style="fill: #1d1d1b;"/>
        <path d="M14.5,6.5c-.06,0-.12-.02-.17-.07-.05-.05-.08-.11-.08-.18,0-.06,.03-.13,.07-.17,.11-.11,.26-.1,.36,0,.05,.05,.07,.11,.07,.18s-.02,.13-.07,.18c-.05,.05-.11,.07-.18,.07Z" style="fill: #1d1d1b;"/>
        <path d="M8.5,5.25c-.06,0-.12-.02-.17-.07-.05-.05-.08-.11-.08-.18s.03-.13,.07-.18c.1-.09,.27-.09,.36,0,.05,.04,.07,.1,.07,.17,0,.06-.02,.13-.07,.18-.05,.05-.11,.07-.18,.07Z" style="fill: #1d1d1b;"/>
        <path d="M3.5,2.5c-.07,0-.13-.03-.18-.08-.04-.04-.07-.1-.07-.17s.03-.13,.08-.18c.08-.09,.25-.09,.35,0,.04,.05,.07,.11,.07,.18s-.03,.13-.07,.18c-.05,.04-.11,.07-.18,.07Z" style="fill: #1d1d1b;"/>
        <path d="M3.75,6c-.06,0-.13-.03-.17-.07-.05-.05-.08-.11-.08-.18,0-.06,.03-.13,.07-.18,.09-.09,.26-.09,.36,0,.05,.05,.07,.11,.07,.18s-.02,.13-.07,.18c-.05,.05-.12,.07-.18,.07Z" style="fill: #1d1d1b;"/>
        <path d="M12.75,14.25c-.06,0-.13-.03-.17-.07-.05-.05-.08-.12-.08-.18,0-.07,.03-.13,.07-.18,.1-.09,.26-.09,.36,0,.05,.05,.07,.11,.07,.18,0,.06-.02,.13-.07,.17-.05,.06-.11,.08-.18,.08Z" style="fill: #1d1d1b;"/>
        <path d="M18.5,19.25c-.06,0-.12-.02-.17-.07-.05-.05-.08-.11-.08-.18,0-.06,.03-.13,.07-.17,.11-.11,.27-.1,.36,0,.05,.06,.07,.12,.07,.18,0,.07-.02,.13-.07,.18-.05,.04-.11,.07-.18,.07Z" style="fill: #1d1d1b;"/>
        <path d="M21.25,37c-.06,0-.12-.02-.17-.07-.05-.05-.08-.12-.08-.18,0-.07,.03-.13,.07-.18,.11-.09,.26-.09,.36,0,.05,.05,.07,.11,.07,.18,0,.06-.02,.13-.07,.17-.05,.06-.11,.08-.18,.08Z" style="fill: #1d1d1b;"/>
        <path d="M.75,44.25c-.06,0-.13-.03-.17-.07-.05-.05-.08-.11-.08-.18s.03-.13,.08-.18c.07-.08,.25-.09,.35,0,.04,.04,.07,.1,.07,.17s-.03,.13-.07,.18c-.05,.04-.11,.07-.18,.07Z" style="fill: #1d1d1b;"/>
        <path d="M66.5,37.25c-.06,0-.13-.03-.17-.07-.05-.05-.08-.11-.08-.18s.03-.13,.08-.18c.09-.09,.25-.09,.35,0,.05,.05,.07,.12,.07,.18s-.02,.13-.07,.18c-.05,.04-.11,.07-.18,.07Z" style="fill: #1d1d1b;"/>
        <path d="M68,66c-.06,0-.13-.03-.17-.07-.05-.05-.08-.12-.08-.18,0-.07,.03-.13,.07-.18,.1-.09,.26-.09,.36,0,.05,.05,.07,.12,.07,.18s-.02,.12-.07,.17c-.05,.05-.11,.08-.18,.08Z" style="fill: #1d1d1b;"/>
        <path d="M59.75,69.75c-.07,0-.13-.03-.18-.08-.04-.04-.07-.1-.07-.17s.03-.13,.08-.18c.09-.09,.25-.09,.35,0,.05,.05,.07,.12,.07,.18,0,.07-.02,.13-.07,.18-.05,.04-.11,.07-.18,.07Z" style="fill: #1d1d1b;"/>
        <path d="M40.5,68c-.06,0-.12-.02-.17-.07-.05-.05-.08-.11-.08-.18s.03-.13,.08-.18c.09-.09,.25-.09,.35,0,.05,.05,.07,.12,.07,.18s-.02,.13-.07,.18c-.05,.05-.12,.07-.18,.07Z" style="fill: #1d1d1b;"/>
        <path d="M44,63c-.06,0-.12-.02-.17-.07-.05-.04-.08-.11-.08-.18s.03-.13,.08-.18c.09-.09,.25-.09,.35,0,.05,.05,.07,.12,.07,.18,0,.07-.02,.13-.07,.18-.05,.05-.11,.07-.18,.07Z" style="fill: #1d1d1b;"/>
        <path d="M25.75,70c-.06,0-.12-.02-.17-.07-.05-.05-.08-.11-.08-.18s.03-.13,.08-.18c.09-.09,.25-.09,.35,0,.05,.05,.07,.11,.07,.18,0,.06-.02,.12-.07,.17-.05,.06-.11,.08-.18,.08Z" style="fill: #1d1d1b;"/>
        <path d="M4.5,60c-.06,0-.12-.02-.17-.07-.05-.05-.08-.11-.08-.18,0-.06,.03-.13,.07-.17,.11-.11,.26-.1,.36,0,.05,.06,.07,.12,.07,.18s-.02,.13-.07,.18c-.05,.05-.12,.07-.18,.07Z" style="fill: #1d1d1b;"/>
        <path d="M26.5,59.5c-.06,0-.12-.02-.17-.07-.05-.05-.08-.11-.08-.18s.03-.13,.08-.18c.1-.09,.25-.09,.35,0,.05,.05,.07,.11,.07,.18,0,.06-.02,.13-.07,.18-.05,.05-.11,.07-.18,.07Z" style="fill: #1d1d1b;"/>
        <path d="M37.25,48.5c-.06,0-.12-.03-.17-.07-.05-.05-.08-.11-.08-.18s.03-.13,.08-.18c.09-.09,.24-.09,.34,0,.06,.05,.08,.12,.08,.18s-.02,.13-.07,.18c-.06,.05-.12,.07-.18,.07Z" style="fill: #1d1d1b;"/>
        <path d="M22,41.75c-.06,0-.12-.02-.17-.07-.05-.05-.08-.11-.08-.18s.03-.13,.08-.18c.1-.09,.25-.09,.35,0,.05,.05,.07,.12,.07,.18s-.02,.13-.07,.18c-.05,.05-.12,.07-.18,.07Z" style="fill: #1d1d1b;"/>
        <path d="M8.75,40.25c-.06,0-.13-.03-.17-.07-.05-.05-.08-.12-.08-.18,0-.07,.03-.13,.08-.18,.09-.09,.25-.09,.35,0,.04,.05,.07,.11,.07,.18s-.02,.13-.07,.18c-.05,.05-.11,.07-.18,.07Z" style="fill: #1d1d1b;"/>
        <path d="M24,29c-.06,0-.12-.02-.17-.07-.05-.05-.08-.11-.08-.18s.03-.13,.08-.18c.1-.09,.25-.09,.35,0,.05,.05,.07,.12,.07,.18s-.02,.12-.07,.17c-.05,.06-.11,.08-.18,.08Z" style="fill: #1d1d1b;"/>
        <path d="M41.5,34.5c-.06,0-.13-.03-.17-.07-.05-.05-.08-.11-.08-.18s.03-.13,.08-.18c.09-.09,.25-.09,.34,0,.06,.06,.08,.12,.08,.18s-.02,.12-.07,.17c-.05,.06-.11,.08-.18,.08Z" style="fill: #1d1d1b;"/>
        <path d="M51.5,37.5c-.06,0-.13-.03-.17-.07-.05-.05-.08-.11-.08-.18s.03-.13,.08-.18c.09-.09,.25-.09,.35,0,.05,.05,.07,.12,.07,.18s-.02,.13-.07,.17c-.05,.06-.11,.08-.18,.08Z" style="fill: #1d1d1b;"/>
        <path d="M60.75,46c-.06,0-.12-.03-.17-.07-.05-.05-.08-.11-.08-.18s.03-.14,.08-.18c.09-.09,.25-.09,.35,0,.05,.05,.07,.11,.07,.18s-.02,.13-.07,.18c-.05,.04-.11,.07-.18,.07Z" style="fill: #1d1d1b;"/>
        <path d="M67.5,43.75c-.06,0-.13-.03-.17-.07-.05-.05-.08-.11-.08-.18s.03-.13,.08-.18c.08-.08,.25-.09,.35,0,.05,.05,.07,.12,.07,.18s-.02,.13-.07,.18c-.05,.04-.11,.07-.18,.07Z" style="fill: #1d1d1b;"/>
        <path d="M51.25,66.25c-.06,0-.12-.02-.17-.07-.05-.05-.08-.11-.08-.18s.03-.13,.08-.18c.09-.09,.25-.09,.35,0,.05,.05,.07,.11,.07,.18s-.03,.13-.07,.18c-.05,.05-.11,.07-.18,.07Z" style="fill: #1d1d1b;"/>
        <path d="M40,37.75c-.06,0-.13-.03-.17-.07-.05-.05-.08-.11-.08-.18s.03-.13,.08-.18c.09-.09,.26-.09,.35,0,.05,.05,.07,.12,.07,.18s-.02,.12-.07,.17c-.05,.05-.11,.08-.18,.08Z" style="fill: #1d1d1b;"/>
        <path d="M53.25,15c-.06,0-.13-.03-.17-.07-.05-.05-.08-.11-.08-.18s.03-.13,.08-.18c.07-.08,.26-.09,.35,0,.05,.04,.07,.11,.07,.17s-.02,.13-.07,.18c-.05,.04-.11,.07-.18,.07Z" style="fill: #1d1d1b;"/>
        <path d="M34,16c-.07,0-.13-.03-.18-.08-.04-.04-.07-.1-.07-.17s.03-.14,.08-.18c.09-.09,.26-.09,.35,0,.05,.05,.07,.11,.07,.18,0,.06-.02,.13-.07,.18-.05,.04-.11,.07-.18,.07Z" style="fill: #1d1d1b;"/>
        <path d="M27.5,13.5c-.06,0-.12-.02-.17-.07-.05-.05-.08-.11-.08-.18s.03-.13,.07-.17c.11-.11,.26-.1,.36,0,.05,.05,.07,.12,.07,.18,0,.07-.02,.13-.07,.18-.05,.05-.11,.07-.18,.07Z" style="fill: #1d1d1b;"/>
        <path d="M12.75,19.25c-.06,0-.13-.03-.17-.07-.05-.05-.08-.11-.08-.18,0-.06,.03-.12,.07-.17,.1-.1,.26-.1,.36,0,.05,.05,.07,.12,.07,.18,0,.07-.02,.13-.07,.18-.05,.05-.11,.07-.18,.07Z" style="fill: #1d1d1b;"/>
        <path d="M19.75,26.5c-.06,0-.12-.02-.17-.07-.05-.05-.08-.11-.08-.18,0-.06,.03-.12,.07-.17,.11-.11,.26-.1,.36,0,.05,.05,.07,.12,.07,.18,0,.07-.02,.13-.07,.18-.05,.05-.12,.07-.18,.07Z" style="fill: #1d1d1b;"/>
        <path d="M49.5,4.5c-.06,0-.13-.03-.17-.07-.05-.04-.08-.11-.08-.18s.03-.14,.08-.18c.08-.08,.25-.09,.35,0,.05,.05,.07,.12,.07,.18s-.02,.13-.07,.18c-.05,.04-.11,.07-.18,.07Z" style="fill: #1d1d1b;"/>
        <path d="M11.75,1.75c-.06,0-.12-.02-.17-.07-.05-.05-.08-.11-.08-.18,0-.06,.03-.13,.07-.18,.1-.09,.27-.09,.36,0,.05,.05,.07,.12,.07,.18s-.02,.13-.07,.18c-.05,.05-.11,.07-.18,.07Z" style="fill: #1d1d1b;"/>
        <path d="M55.25,3.75c-.06,0-.13-.03-.17-.07-.05-.05-.08-.11-.08-.18s.03-.13,.08-.18c.08-.09,.25-.09,.35,0,.05,.05,.07,.12,.07,.18s-.02,.13-.07,.18c-.05,.04-.11,.07-.18,.07Z" style="fill: #1d1d1b;"/>
        <path d="M59,20.75c-.06,0-.13-.03-.17-.07-.05-.05-.08-.11-.08-.18s.03-.13,.08-.18c.08-.09,.25-.09,.35,0,.05,.06,.07,.12,.07,.18s-.02,.12-.07,.17c-.05,.06-.11,.08-.18,.08Z" style="fill: #1d1d1b;"/>
        <path d="M67.5,57.25c-.06,0-.13-.03-.17-.07-.05-.05-.08-.12-.08-.18,0-.07,.03-.13,.08-.18,.09-.09,.25-.09,.35,0,.05,.05,.07,.12,.07,.18s-.02,.12-.07,.17c-.05,.05-.11,.08-.18,.08Z" style="fill: #1d1d1b;"/>
        <path d="M47.25,69.75c-.06,0-.13-.03-.17-.07-.05-.04-.08-.11-.08-.18s.03-.14,.08-.18c.08-.08,.25-.09,.35,0,.04,.05,.07,.11,.07,.18s-.03,.13-.07,.18c-.05,.05-.11,.07-.18,.07Z" style="fill: #1d1d1b;"/>
        <path d="M5.25,69.75c-.06,0-.13-.03-.17-.07-.05-.05-.08-.11-.08-.18,0-.06,.03-.12,.07-.17,.1-.1,.26-.1,.36,0,.05,.05,.07,.12,.07,.18,0,.07-.02,.13-.07,.18s-.12,.07-.18,.07Z" style="fill: #1d1d1b;"/>
        <path d="M4.75,40.25c-.06,0-.13-.03-.18-.07-.04-.05-.07-.11-.07-.18s.03-.13,.07-.18c.09-.09,.26-.09,.36,0,.05,.05,.07,.12,.07,.18s-.02,.13-.07,.18c-.05,.04-.11,.07-.18,.07Z" style="fill: #1d1d1b;"/>
        <path d="M69.75,12.75c-.07,0-.13-.03-.17-.07-.05-.05-.08-.11-.08-.18s.03-.13,.08-.18c.09-.09,.25-.09,.35,0,.05,.05,.07,.12,.07,.18s-.02,.13-.07,.18c-.05,.04-.11,.07-.18,.07Z" style="fill: #1d1d1b;"/>
        <path d="M23.25,14c-.06,0-.12-.02-.17-.07-.05-.05-.08-.11-.08-.18s.03-.13,.07-.17c.11-.11,.26-.1,.36,0,.05,.06,.07,.12,.07,.18s-.02,.13-.07,.18c-.05,.05-.11,.07-.18,.07Z" style="fill: #1d1d1b;"/>
        <path d="M20.5,17.25c-.06,0-.13-.03-.17-.07-.05-.04-.08-.11-.08-.18s.03-.14,.08-.18c.07-.08,.26-.09,.35,0,.05,.04,.07,.11,.07,.17s-.02,.13-.07,.18c-.05,.04-.11,.07-.18,.07Z" style="fill: #1d1d1b;"/>
        <path d="M14.75,17.25c-.06,0-.12-.02-.17-.07-.05-.05-.08-.11-.08-.18,0-.06,.03-.13,.07-.18,.11-.09,.26-.09,.36,0,.05,.05,.07,.12,.07,.18s-.02,.13-.07,.18c-.05,.05-.11,.07-.18,.07Z" style="fill: #1d1d1b;"/>
        <path d="M2.75,13.25c-.07,0-.13-.03-.17-.07-.05-.05-.08-.12-.08-.18,0-.07,.03-.13,.08-.18,.09-.09,.25-.09,.35,0,.04,.05,.07,.11,.07,.18s-.02,.13-.07,.18c-.05,.04-.11,.07-.18,.07Z" style="fill: #1d1d1b;"/>
        <path d="M6,11.75c-.06,0-.12-.02-.17-.07-.05-.05-.08-.12-.08-.18,0-.07,.03-.13,.07-.18,.12-.1,.26-.09,.36,0,.05,.05,.07,.11,.07,.18,0,.06-.02,.12-.07,.17-.05,.06-.11,.08-.18,.08Z" style="fill: #1d1d1b;"/>
        <path d="M7,2.75c-.06,0-.12-.02-.17-.07-.05-.05-.08-.12-.08-.18,0-.07,.03-.13,.07-.18,.11-.09,.26-.09,.36,0,.05,.05,.07,.12,.07,.18s-.02,.12-.07,.17c-.05,.06-.11,.08-.18,.08Z" style="fill: #1d1d1b;"/>
        <path d="M10,8.25c-.07,0-.13-.03-.18-.07-.04-.05-.07-.12-.07-.18,0-.07,.03-.13,.07-.18,.09-.09,.26-.09,.36,0,.05,.05,.07,.11,.07,.18,0,.06-.02,.13-.07,.17-.05,.06-.11,.08-.18,.08Z" style="fill: #1d1d1b;"/>
        <path d="M16,8.25c-.06,0-.13-.03-.18-.07-.04-.05-.07-.11-.07-.18s.03-.13,.08-.18c.1-.09,.25-.09,.35,0,.05,.05,.07,.12,.07,.18s-.02,.13-.07,.18c-.05,.04-.11,.07-.18,.07Z" style="fill: #1d1d1b;"/>
        <path d="M16.5,3.25c-.06,0-.12-.02-.17-.07-.05-.05-.08-.11-.08-.18s.03-.13,.07-.18c.11-.1,.26-.09,.36,0,.05,.05,.07,.11,.07,.18s-.02,.13-.07,.18c-.05,.05-.12,.07-.18,.07Z" style="fill: #1d1d1b;"/>
        <path d="M25.75,7c-.06,0-.12-.02-.17-.07-.05-.05-.08-.11-.08-.18s.03-.13,.08-.18c.1-.09,.25-.09,.35,0,.05,.05,.07,.12,.07,.18s-.02,.13-.07,.18c-.05,.05-.11,.07-.18,.07Z" style="fill: #1d1d1b;"/>
        <path d="M37,7.5c-.06,0-.12-.02-.17-.07-.05-.05-.08-.11-.08-.18s.03-.13,.08-.18c.09-.09,.26-.09,.35,0,.05,.05,.07,.11,.07,.18s-.02,.13-.07,.18c-.05,.05-.12,.07-.18,.07Z" style="fill: #1d1d1b;"/>
        <path d="M40.5,4.5c-.06,0-.13-.03-.17-.07-.05-.04-.08-.11-.08-.18s.03-.13,.08-.18c.09-.09,.25-.09,.35,0,.05,.06,.07,.12,.07,.18,0,.07-.02,.13-.07,.18-.05,.04-.11,.07-.18,.07Z" style="fill: #1d1d1b;"/>
        <path d="M37.5,4.25c-.06,0-.13-.03-.17-.07-.05-.04-.08-.11-.08-.18s.03-.13,.08-.18c.08-.09,.25-.09,.35,0,.05,.06,.07,.12,.07,.18s-.02,.13-.07,.18c-.05,.05-.11,.07-.18,.07Z" style="fill: #1d1d1b;"/>
        <path d="M43.25,2.25c-.07,0-.13-.03-.18-.08-.04-.04-.07-.1-.07-.17s.03-.13,.08-.18c.09-.09,.25-.09,.35,0,.05,.05,.07,.12,.07,.18s-.02,.13-.07,.18c-.05,.04-.11,.07-.18,.07Z" style="fill: #1d1d1b;"/>
        <path d="M49.5,8.25c-.06,0-.13-.03-.17-.07-.05-.04-.08-.11-.08-.18s.03-.14,.08-.18c.08-.09,.25-.09,.35,0,.05,.05,.07,.12,.07,.18s-.02,.13-.07,.18c-.05,.04-.11,.07-.18,.07Z" style="fill: #1d1d1b;"/>
        <path d="M46,9.25c-.06,0-.13-.03-.17-.07-.05-.05-.08-.11-.08-.18s.03-.13,.08-.18c.08-.08,.25-.09,.35,0,.05,.05,.07,.12,.07,.18s-.02,.13-.07,.18c-.05,.04-.11,.07-.18,.07Z" style="fill: #1d1d1b;"/>
        <path d="M35.75,11c-.06,0-.13-.03-.17-.07-.05-.05-.08-.11-.08-.18s.03-.13,.08-.18c.09-.09,.25-.09,.35,0,.05,.05,.07,.12,.07,.18s-.02,.13-.07,.18c-.05,.04-.11,.07-.18,.07Z" style="fill: #1d1d1b;"/>
        <path d="M39.25,15c-.06,0-.12-.02-.17-.07-.05-.05-.08-.11-.08-.18s.03-.13,.08-.18c.09-.09,.25-.09,.35,0,.05,.06,.07,.12,.07,.18s-.02,.13-.07,.18c-.05,.05-.11,.07-.18,.07Z" style="fill: #1d1d1b;"/>
        <path d="M24.75,18c-.06,0-.12-.02-.17-.07-.05-.05-.08-.11-.08-.18s.03-.13,.07-.18c.1-.09,.27-.09,.36,0,.05,.05,.07,.11,.07,.18s-.02,.13-.07,.18c-.05,.05-.11,.07-.18,.07Z" style="fill: #1d1d1b;"/>
        <path d="M8.25,27.25c-.06,0-.12-.02-.17-.07-.05-.05-.08-.11-.08-.18s.03-.13,.07-.18c.12-.1,.26-.09,.36,0,.05,.05,.07,.12,.07,.18,0,.07-.02,.13-.07,.18-.05,.04-.11,.07-.18,.07Z" style="fill: #1d1d1b;"/>
        <path d="M16,31.75c-.06,0-.13-.03-.18-.07-.04-.05-.07-.11-.07-.18s.03-.13,.08-.18c.1-.09,.25-.09,.35,0,.05,.05,.07,.12,.07,.18s-.02,.13-.07,.18c-.05,.04-.11,.07-.18,.07Z" style="fill: #1d1d1b;"/>
        <path d="M10.5,33.5c-.06,0-.12-.02-.17-.07-.05-.05-.08-.12-.08-.18,0-.07,.03-.13,.07-.18,.11-.1,.26-.09,.36,0,.05,.05,.07,.12,.07,.18s-.02,.12-.07,.17c-.05,.06-.11,.08-.18,.08Z" style="fill: #1d1d1b;"/>
        <path d="M5.25,37c-.06,0-.13-.03-.17-.07-.05-.05-.08-.11-.08-.18,0-.06,.03-.12,.07-.17,.1-.1,.26-.1,.36,0,.05,.05,.07,.12,.07,.18,0,.07-.02,.13-.07,.18-.05,.05-.12,.07-.18,.07Z" style="fill: #1d1d1b;"/>
        <path d="M2.75,32c-.06,0-.13-.03-.17-.07-.05-.05-.08-.12-.08-.18,0-.07,.03-.13,.08-.18,.09-.09,.25-.09,.35,0,.04,.05,.07,.11,.07,.18s-.02,.13-.07,.18c-.05,.04-.11,.07-.18,.07Z" style="fill: #1d1d1b;"/>
        <path d="M7.5,25c-.07,0-.13-.03-.18-.07-.04-.05-.07-.11-.07-.18s.03-.13,.07-.18c.11-.09,.25-.09,.35,0,.06,.05,.08,.12,.08,.18s-.02,.13-.07,.18c-.05,.04-.11,.07-.18,.07Z" style="fill: #1d1d1b;"/>
        <path d="M3.25,20.5c-.06,0-.13-.03-.17-.07-.05-.05-.08-.11-.08-.18,0-.06,.03-.13,.07-.17,.1-.1,.26-.1,.36,0,.05,.05,.07,.12,.07,.18,0,.07-.02,.13-.07,.18-.05,.05-.12,.07-.18,.07Z" style="fill: #1d1d1b;"/>
        <path d="M20.5,30.75c-.06,0-.13-.03-.17-.07-.05-.05-.08-.11-.08-.18s.03-.13,.08-.18c.09-.09,.25-.09,.35,0,.05,.06,.07,.12,.07,.18s-.02,.12-.07,.17c-.05,.05-.11,.08-.18,.08Z" style="fill: #1d1d1b;"/>
        <path d="M17.5,35.5c-.06,0-.12-.03-.17-.07-.05-.06-.08-.12-.08-.18,0-.07,.03-.13,.07-.18,.11-.09,.26-.09,.36,0,.05,.05,.07,.11,.07,.18,0,.06-.02,.13-.07,.17-.05,.05-.11,.08-.18,.08Z" style="fill: #1d1d1b;"/>
        <path d="M16,39c-.06,0-.12-.02-.17-.07-.05-.05-.08-.11-.08-.18s.03-.13,.08-.18c.09-.09,.25-.09,.35,0,.05,.05,.07,.12,.07,.18s-.02,.13-.07,.18c-.05,.05-.12,.07-.18,.07Z" style="fill: #1d1d1b;"/>
        <path d="M12.75,41.25c-.06,0-.13-.03-.17-.07-.05-.05-.08-.11-.08-.18,0-.06,.03-.13,.07-.18,.1-.09,.26-.09,.36,0,.05,.05,.07,.11,.07,.18s-.02,.13-.07,.18c-.05,.04-.11,.07-.18,.07Z" style="fill: #1d1d1b;"/>
        <path d="M12.75,46.5c-.07,0-.13-.03-.17-.07-.05-.05-.08-.12-.08-.18,0-.07,.03-.13,.07-.18,.1-.09,.26-.09,.36,0,.05,.05,.07,.11,.07,.18s-.02,.13-.07,.18c-.05,.05-.11,.07-.18,.07Z" style="fill: #1d1d1b;"/>
        <path d="M4,46.75c-.06,0-.13-.03-.17-.07-.05-.05-.08-.11-.08-.18,0-.06,.03-.13,.07-.18,.1-.09,.26-.09,.35,0,.06,.05,.08,.12,.08,.18,0,.07-.02,.13-.07,.18-.05,.05-.12,.07-.18,.07Z" style="fill: #1d1d1b;"/>
        <path d="M5.75,48.5c-.07,0-.13-.03-.18-.08-.04-.04-.07-.1-.07-.17s.03-.13,.07-.18c.1-.09,.26-.09,.36,0,.05,.05,.07,.11,.07,.18s-.02,.13-.07,.18c-.05,.04-.11,.07-.18,.07Z" style="fill: #1d1d1b;"/>
        <path d="M11,50.5c-.06,0-.12-.02-.17-.07-.05-.05-.08-.11-.08-.18,0-.06,.03-.13,.07-.17,.11-.11,.26-.1,.36,0,.05,.06,.07,.12,.07,.18s-.02,.13-.07,.18c-.05,.05-.12,.07-.18,.07Z" style="fill: #1d1d1b;"/>
        <path d="M11,54.5c-.06,0-.13-.03-.18-.07-.04-.05-.07-.11-.07-.18s.03-.13,.07-.18c.11-.09,.26-.09,.36,0,.05,.05,.07,.12,.07,.18s-.02,.13-.07,.18c-.05,.04-.11,.07-.18,.07Z" style="fill: #1d1d1b;"/>
        <path d="M15.5,58.5c-.06,0-.12-.03-.17-.07-.05-.05-.08-.11-.08-.18s.03-.13,.07-.18c.11-.09,.26-.09,.36,0,.05,.05,.07,.12,.07,.18s-.02,.13-.07,.18c-.05,.04-.11,.07-.18,.07Z" style="fill: #1d1d1b;"/>
        <path d="M10,59.75c-.07,0-.13-.03-.18-.07-.04-.05-.07-.12-.07-.18,0-.07,.03-.13,.07-.18,.1-.09,.25-.09,.36,0,.05,.05,.07,.11,.07,.18,0,.06-.02,.13-.07,.18-.05,.05-.11,.07-.18,.07Z" style="fill: #1d1d1b;"/>
        <path d="M6,63.5c-.06,0-.12-.02-.17-.07-.05-.05-.08-.12-.08-.18,0-.07,.03-.13,.07-.18,.12-.1,.26-.09,.36,0,.05,.05,.07,.11,.07,.18,0,.06-.02,.12-.07,.17-.05,.06-.11,.08-.18,.08Z" style="fill: #1d1d1b;"/>
        <path d="M2.25,62c-.06,0-.12-.02-.17-.07-.05-.05-.08-.11-.08-.18s.03-.13,.07-.18c.11-.09,.25-.09,.35,0,.06,.05,.08,.12,.08,.18s-.02,.13-.07,.18c-.06,.05-.12,.07-.18,.07Z" style="fill: #1d1d1b;"/>
        <path d="M7.25,67.75c-.06,0-.13-.03-.17-.07-.05-.05-.08-.12-.08-.18,0-.07,.03-.13,.07-.18,.1-.09,.26-.09,.36,0,.04,.05,.07,.11,.07,.18s-.02,.13-.07,.17c-.05,.06-.11,.08-.18,.08Z" style="fill: #1d1d1b;"/>
        <path d="M13.5,69.5c-.06,0-.12-.02-.17-.07-.05-.05-.08-.12-.08-.18,0-.07,.03-.13,.07-.18,.11-.09,.26-.09,.36,0,.05,.05,.07,.12,.07,.18s-.02,.12-.07,.17c-.05,.06-.11,.08-.18,.08Z" style="fill: #1d1d1b;"/>
        <path d="M13.5,65.75c-.06,0-.12-.02-.17-.07-.05-.05-.08-.11-.08-.18,0-.06,.03-.13,.07-.17,.11-.11,.26-.1,.36,0,.05,.06,.07,.12,.07,.18s-.02,.13-.07,.18c-.05,.05-.11,.07-.18,.07Z" style="fill: #1d1d1b;"/>
        <path d="M21.5,68.5c-.06,0-.12-.02-.17-.07-.05-.05-.08-.11-.08-.18s.03-.13,.08-.18c.09-.09,.25-.09,.35,0,.05,.05,.07,.12,.07,.18s-.02,.12-.07,.17c-.05,.06-.11,.08-.18,.08Z" style="fill: #1d1d1b;"/>
        <path d="M23,65.75c-.06,0-.12-.02-.17-.07-.05-.05-.08-.11-.08-.18,0-.06,.03-.12,.07-.17,.11-.11,.26-.1,.36,0,.05,.05,.07,.12,.07,.18,0,.07-.02,.13-.07,.18-.05,.05-.11,.07-.18,.07Z" style="fill: #1d1d1b;"/>
        <path d="M22.25,60c-.06,0-.12-.02-.17-.07-.05-.05-.08-.11-.08-.18,0-.06,.03-.12,.07-.17,.11-.11,.26-.1,.36,0,.05,.05,.07,.12,.07,.18,0,.07-.02,.13-.07,.18-.05,.05-.12,.07-.18,.07Z" style="fill: #1d1d1b;"/>
        <path d="M24.25,57.5c-.06,0-.12-.02-.17-.07-.05-.05-.08-.11-.08-.18s.03-.13,.08-.18c.1-.09,.25-.09,.35,0,.05,.05,.07,.12,.07,.18s-.02,.13-.07,.18c-.05,.05-.11,.07-.18,.07Z" style="fill: #1d1d1b;"/>
        <path d="M22,53.25c-.06,0-.12-.02-.17-.07-.05-.05-.08-.11-.08-.18s.03-.13,.07-.17c.11-.11,.26-.1,.36,0,.05,.06,.07,.12,.07,.18s-.02,.13-.07,.18c-.05,.05-.11,.07-.18,.07Z" style="fill: #1d1d1b;"/>
        <path d="M26.25,47.75c-.06,0-.12-.02-.17-.07-.05-.05-.08-.11-.08-.18s.03-.13,.08-.18c.09-.09,.25-.09,.35,0,.05,.05,.07,.12,.07,.18s-.02,.13-.07,.18c-.05,.05-.11,.07-.18,.07Z" style="fill: #1d1d1b;"/>
        <path d="M25.75,43.5c-.06,0-.12-.02-.17-.07-.05-.05-.08-.11-.08-.18s.03-.13,.07-.18c.11-.09,.26-.09,.36,0,.05,.06,.07,.12,.07,.18,0,.07-.02,.13-.07,.18-.05,.05-.11,.07-.18,.07Z" style="fill: #1d1d1b;"/>
        <path d="M31.25,37.5c-.06,0-.12-.03-.17-.07-.05-.05-.08-.12-.08-.18s.03-.13,.07-.17c.11-.11,.26-.1,.36,0,.05,.06,.07,.12,.07,.18s-.02,.12-.07,.17c-.05,.05-.11,.08-.18,.08Z" style="fill: #1d1d1b;"/>
        <path d="M32.25,31c-.06,0-.12-.02-.17-.07-.05-.05-.08-.11-.08-.18,0-.06,.03-.12,.07-.17,.11-.11,.26-.1,.36,0,.05,.05,.07,.12,.07,.18,0,.07-.03,.13-.07,.18-.05,.05-.11,.07-.18,.07Z" style="fill: #1d1d1b;"/>
        <path d="M26,34c-.06,0-.12-.02-.17-.07-.05-.05-.08-.11-.08-.18s.03-.13,.08-.18c.1-.09,.25-.09,.35,0,.05,.05,.07,.12,.07,.18s-.02,.13-.07,.18c-.05,.05-.11,.07-.18,.07Z" style="fill: #1d1d1b;"/>
        <path d="M34.25,27.75c-.06,0-.13-.03-.17-.07-.05-.05-.08-.11-.08-.18s.03-.13,.08-.18c.09-.09,.25-.09,.35,0,.05,.06,.07,.12,.07,.18s-.02,.13-.07,.18c-.05,.04-.11,.07-.18,.07Z" style="fill: #1d1d1b;"/>
        <path d="M37.25,28.5c-.06,0-.13-.03-.17-.07-.05-.05-.08-.11-.08-.18s.03-.13,.08-.18c.09-.09,.25-.09,.34,0,.06,.05,.08,.12,.08,.18s-.02,.12-.07,.17c-.05,.06-.11,.08-.18,.08Z" style="fill: #1d1d1b;"/>
        <path d="M41.75,25.75c-.06,0-.12-.03-.17-.07-.05-.05-.08-.11-.08-.18s.03-.13,.08-.18c.09-.09,.26-.09,.35,0,.05,.06,.07,.12,.07,.18s-.02,.12-.07,.17c-.05,.05-.11,.08-.18,.08Z" style="fill: #1d1d1b;"/>
        <path d="M43,20.75c-.06,0-.12-.02-.17-.07-.05-.05-.08-.11-.08-.18s.03-.13,.08-.18c.09-.09,.25-.09,.35,0,.05,.05,.07,.12,.07,.18s-.02,.13-.07,.18c-.05,.05-.12,.07-.18,.07Z" style="fill: #1d1d1b;"/>
        <path d="M36.5,19.25c-.06,0-.13-.03-.17-.07-.05-.04-.08-.11-.08-.18s.03-.14,.08-.18c.08-.08,.25-.09,.35,0,.05,.05,.07,.12,.07,.18s-.02,.13-.07,.18c-.05,.05-.11,.07-.18,.07Z" style="fill: #1d1d1b;"/>
        <path d="M27.75,22.25c-.06,0-.12-.03-.17-.07-.05-.05-.08-.12-.08-.18s.03-.13,.07-.17c.11-.11,.26-.1,.36,0,.05,.05,.07,.11,.07,.18s-.02,.13-.07,.18c-.05,.04-.11,.07-.18,.07Z" style="fill: #1d1d1b;"/>
        <path d="M52,22c-.06,0-.13-.03-.17-.07-.05-.05-.08-.11-.08-.18s.03-.13,.08-.18c.09-.09,.25-.09,.35,0,.05,.06,.07,.12,.07,.18s-.02,.12-.07,.17c-.05,.05-.11,.08-.18,.08Z" style="fill: #1d1d1b;"/>
        <path d="M43.25,17.75c-.06,0-.13-.03-.17-.07-.05-.05-.08-.11-.08-.18,0-.06,.03-.13,.07-.18,.11-.09,.26-.09,.36,0,.05,.06,.07,.12,.07,.18s-.02,.12-.07,.17c-.05,.06-.11,.08-.18,.08Z" style="fill: #1d1d1b;"/>
        <path d="M50.5,18c-.06,0-.13-.03-.17-.07-.05-.05-.08-.11-.08-.18s.03-.13,.08-.18c.08-.09,.25-.09,.35,0,.05,.06,.07,.12,.07,.18s-.02,.12-.07,.17c-.05,.05-.11,.08-.18,.08Z" style="fill: #1d1d1b;"/>
        <path d="M59.5,17.25c-.06,0-.13-.03-.17-.07-.05-.05-.08-.11-.08-.18s.03-.13,.08-.18c.08-.09,.25-.09,.35,0,.05,.05,.07,.12,.07,.18s-.02,.13-.07,.18c-.05,.04-.11,.07-.18,.07Z" style="fill: #1d1d1b;"/>
        <path d="M58.25,14c-.06,0-.13-.03-.17-.07-.05-.05-.08-.11-.08-.18s.03-.13,.08-.18c.08-.09,.26-.09,.35,0,.05,.05,.07,.11,.07,.18,0,.06-.02,.13-.07,.18-.05,.04-.11,.07-.18,.07Z" style="fill: #1d1d1b;"/>
        <path d="M61.5,11c-.06,0-.12-.02-.17-.07-.05-.05-.08-.11-.08-.18s.03-.14,.08-.18c.09-.09,.25-.09,.35,0,.04,.05,.07,.11,.07,.18s-.03,.13-.07,.18c-.05,.05-.11,.07-.18,.07Z" style="fill: #1d1d1b;"/>
        <path d="M58.75,7.5c-.06,0-.12-.02-.17-.07-.05-.05-.08-.11-.08-.18s.03-.13,.08-.18c.09-.09,.25-.09,.35,0,.05,.05,.07,.11,.07,.18s-.02,.13-.07,.18c-.05,.05-.11,.07-.18,.07Z" style="fill: #1d1d1b;"/>
        <path d="M60,4.75c-.06,0-.13-.03-.17-.07-.05-.05-.08-.11-.08-.18s.03-.13,.07-.18c.11-.09,.26-.09,.36,0,.05,.05,.07,.11,.07,.18s-.02,.13-.07,.17c-.05,.06-.11,.08-.18,.08Z" style="fill: #1d1d1b;"/>
        <path d="M67.5,6c-.06,0-.13-.03-.17-.07-.05-.05-.08-.12-.08-.18s.03-.13,.07-.17c.1-.1,.26-.1,.36,0,.05,.06,.07,.12,.07,.18s-.02,.12-.07,.17c-.05,.05-.11,.08-.18,.08Z" style="fill: #1d1d1b;"/>
        <path d="M69.5,8c-.06,0-.12-.03-.17-.07-.05-.05-.08-.11-.08-.18,0-.06,.03-.13,.07-.18,.11-.09,.26-.09,.36,0,.05,.05,.07,.12,.07,.18,0,.07-.02,.13-.07,.18-.05,.05-.11,.07-.18,.07Z" style="fill: #1d1d1b;"/>
        <path d="M65.75,9.75c-.06,0-.13-.03-.17-.07-.05-.05-.08-.11-.08-.18s.03-.13,.08-.18c.08-.09,.26-.09,.35,0,.05,.05,.07,.12,.07,.18s-.02,.13-.07,.18c-.05,.04-.11,.07-.18,.07Z" style="fill: #1d1d1b;"/>
        <path d="M61.75,16.5c-.06,0-.13-.03-.17-.07-.05-.05-.08-.11-.08-.18s.03-.13,.08-.18c.09-.09,.25-.09,.35,0,.05,.05,.07,.12,.07,.18s-.02,.13-.07,.17c-.05,.06-.11,.08-.18,.08Z" style="fill: #1d1d1b;"/>
        <path d="M60.25,23.75c-.06,0-.12-.03-.17-.07-.05-.05-.08-.11-.08-.18s.03-.13,.08-.18c.09-.09,.25-.09,.35,0,.04,.05,.07,.11,.07,.18s-.02,.13-.07,.18c-.05,.05-.11,.07-.18,.07Z" style="fill: #1d1d1b;"/>
        <path d="M55.5,23.75c-.06,0-.13-.03-.17-.07-.05-.05-.08-.12-.08-.18s.03-.13,.08-.18c.09-.09,.25-.09,.35,0,.05,.05,.07,.12,.07,.18s-.02,.13-.07,.18c-.05,.04-.11,.07-.18,.07Z" style="fill: #1d1d1b;"/>
        <path d="M55.5,18.75c-.06,0-.13-.03-.17-.07-.05-.05-.08-.12-.08-.18s.03-.13,.08-.18c.09-.09,.25-.09,.35,0,.05,.05,.07,.12,.07,.18s-.02,.13-.07,.18c-.05,.04-.11,.07-.18,.07Z" style="fill: #1d1d1b;"/>
        <path d="M65,25.75c-.06,0-.12-.03-.17-.07-.05-.05-.08-.11-.08-.18s.03-.13,.08-.18c.09-.09,.25-.09,.35,0,.05,.05,.07,.12,.07,.18,0,.07-.02,.13-.07,.18-.05,.05-.11,.07-.18,.07Z" style="fill: #1d1d1b;"/>
        <path d="M61.25,27c-.06,0-.13-.03-.17-.07-.05-.05-.08-.11-.08-.18s.03-.13,.08-.18c.09-.09,.25-.09,.35,0,.05,.05,.07,.11,.07,.18s-.03,.13-.07,.18c-.05,.04-.11,.07-.18,.07Z" style="fill: #1d1d1b;"/>
        <path d="M57.75,30.75c-.06,0-.12-.02-.17-.07-.05-.05-.08-.11-.08-.18s.03-.13,.08-.18c.09-.09,.25-.09,.35,0,.05,.05,.07,.11,.07,.18s-.02,.13-.07,.17c-.05,.06-.11,.08-.18,.08Z" style="fill: #1d1d1b;"/>
        <path d="M52.75,32.75c-.06,0-.13-.03-.17-.07-.05-.05-.08-.11-.08-.18s.03-.13,.08-.18c.09-.09,.25-.09,.35,0,.05,.05,.07,.12,.07,.18s-.02,.13-.07,.17c-.05,.06-.11,.08-.18,.08Z" style="fill: #1d1d1b;"/>
        <path d="M47.5,33.75c-.06,0-.12-.03-.17-.07-.05-.05-.08-.11-.08-.18s.03-.13,.08-.18c.09-.09,.25-.09,.34,0,.06,.06,.08,.12,.08,.18s-.02,.12-.07,.17c-.06,.06-.11,.08-.18,.08Z" style="fill: #1d1d1b;"/>
        <path d="M44.25,39.25c-.06,0-.12-.03-.17-.07-.05-.05-.08-.11-.08-.18s.03-.13,.08-.18c.09-.09,.25-.09,.35,0,.05,.05,.07,.11,.07,.18s-.02,.13-.07,.18c-.05,.05-.12,.07-.18,.07Z" style="fill: #1d1d1b;"/>
        <path d="M34,41.5c-.06,0-.12-.02-.17-.07-.05-.05-.08-.11-.08-.18s.03-.13,.08-.18c.09-.09,.25-.09,.35,0,.05,.05,.07,.12,.07,.18s-.02,.13-.07,.18c-.05,.04-.11,.07-.18,.07Z" style="fill: #1d1d1b;"/>
        <path d="M40.75,48c-.06,0-.12-.02-.17-.07-.05-.05-.08-.11-.08-.18s.03-.13,.08-.18c.1-.09,.25-.09,.35,0,.04,.05,.07,.11,.07,.18s-.03,.13-.07,.18c-.05,.05-.11,.07-.18,.07Z" style="fill: #1d1d1b;"/>
        <path d="M45.75,52.25c-.06,0-.12-.02-.17-.07-.05-.05-.08-.11-.08-.18s.03-.13,.08-.18c.09-.09,.25-.09,.35,0,.05,.05,.07,.11,.07,.18s-.03,.13-.07,.18c-.05,.05-.11,.07-.18,.07Z" style="fill: #1d1d1b;"/>
        <path d="M46.5,56.75c-.06,0-.12-.03-.17-.07-.05-.05-.08-.11-.08-.18s.03-.13,.08-.18c.09-.09,.25-.09,.35,0,.05,.05,.07,.12,.07,.18s-.02,.13-.07,.17c-.05,.06-.11,.08-.18,.08Z" style="fill: #1d1d1b;"/>
        <path d="M42,59.5c-.06,0-.12-.02-.17-.07-.05-.05-.08-.11-.08-.18s.03-.13,.08-.18c.1-.09,.25-.09,.35,0,.04,.05,.07,.11,.07,.18s-.02,.13-.07,.18c-.05,.05-.12,.07-.18,.07Z" style="fill: #1d1d1b;"/>
        <path d="M40,62.75c-.06,0-.12-.03-.17-.07-.05-.05-.08-.11-.08-.18s.03-.14,.08-.18c.09-.09,.26-.09,.35,0,.05,.05,.07,.11,.07,.18,0,.06-.02,.13-.07,.18-.05,.04-.11,.07-.18,.07Z" style="fill: #1d1d1b;"/>
        <path d="M36,62.75c-.06,0-.12-.02-.17-.07-.05-.05-.08-.11-.08-.18s.03-.13,.08-.18c.1-.09,.26-.09,.35,0,.05,.06,.07,.12,.07,.18s-.02,.13-.07,.18c-.05,.04-.11,.07-.18,.07Z" style="fill: #1d1d1b;"/>
        <path d="M36.5,52.75c-.07,0-.13-.03-.17-.07-.05-.05-.08-.11-.08-.18s.03-.13,.08-.18c.09-.09,.25-.09,.35,0,.05,.06,.07,.12,.07,.18s-.02,.12-.07,.17c-.05,.05-.11,.08-.18,.08Z" style="fill: #1d1d1b;"/>
        <path d="M30,63.5c-.06,0-.13-.03-.17-.07-.05-.05-.08-.11-.08-.18s.03-.13,.08-.18c.09-.09,.25-.09,.35,0,.05,.05,.07,.12,.07,.18s-.02,.13-.07,.17c-.05,.05-.11,.08-.18,.08Z" style="fill: #1d1d1b;"/>
        <path d="M31.5,68.5c-.07,0-.13-.03-.18-.08-.04-.04-.07-.1-.07-.17s.03-.14,.08-.18c.09-.08,.25-.09,.34,0,.06,.05,.08,.11,.08,.18,0,.06-.02,.13-.07,.18-.05,.04-.11,.07-.18,.07Z" style="fill: #1d1d1b;"/>
        <path d="M37,71c-.06,0-.12-.02-.17-.07-.05-.05-.08-.11-.08-.18s.03-.13,.08-.18c.1-.09,.25-.09,.35,0,.05,.05,.07,.11,.07,.18s-.02,.13-.07,.18c-.05,.05-.11,.07-.18,.07Z" style="fill: #1d1d1b;"/>
        <path d="M58.75,57c-.06,0-.12-.02-.17-.07-.05-.05-.08-.11-.08-.18s.03-.13,.08-.18c.09-.09,.25-.09,.35,0,.05,.05,.07,.11,.07,.18s-.02,.13-.07,.18c-.05,.05-.11,.07-.18,.07Z" style="fill: #1d1d1b;"/>
        <path d="M63,57c-.06,0-.12-.03-.17-.07-.05-.05-.08-.11-.08-.18s.03-.13,.08-.18c.09-.09,.25-.09,.35,0,.05,.05,.07,.11,.07,.18s-.02,.13-.07,.17c-.05,.06-.11,.08-.18,.08Z" style="fill: #1d1d1b;"/>
        <path d="M60,50.75c-.06,0-.12-.03-.17-.07-.05-.05-.08-.11-.08-.18s.03-.14,.08-.18c.09-.09,.25-.09,.35,0,.04,.05,.07,.11,.07,.18s-.02,.13-.07,.18c-.05,.04-.11,.07-.18,.07Z" style="fill: #1d1d1b;"/>
        <path d="M54.5,50.5c-.07,0-.13-.03-.17-.07-.05-.05-.08-.12-.08-.18s.03-.13,.07-.17c.1-.1,.26-.1,.36,0,.05,.06,.07,.12,.07,.18s-.02,.12-.07,.17c-.05,.05-.11,.08-.18,.08Z" style="fill: #1d1d1b;"/>
        <path d="M59.25,44.25c-.06,0-.13-.03-.17-.07-.05-.05-.08-.12-.08-.18s.03-.13,.07-.17c.1-.1,.27-.1,.36,0,.05,.06,.07,.12,.07,.18s-.02,.12-.07,.17c-.04,.05-.11,.08-.18,.08Z" style="fill: #1d1d1b;"/>
        <path d="M54.75,41.75c-.06,0-.13-.03-.17-.07-.05-.05-.08-.12-.08-.18s.03-.13,.08-.18c.08-.09,.25-.09,.35,0,.05,.05,.07,.12,.07,.18s-.02,.13-.07,.18c-.05,.04-.11,.07-.18,.07Z" style="fill: #1d1d1b;"/>
        <path d="M55.75,35.5c-.06,0-.12-.02-.17-.07-.05-.05-.08-.11-.08-.18s.03-.13,.08-.18c.09-.09,.25-.09,.35,0,.05,.05,.07,.11,.07,.18s-.02,.13-.07,.18c-.05,.05-.11,.07-.18,.07Z" style="fill: #1d1d1b;"/>
        <path d="M62.5,42.25c-.06,0-.13-.03-.17-.07-.05-.05-.08-.11-.08-.18s.03-.13,.08-.18c.08-.08,.24-.09,.34,0,.06,.05,.08,.12,.08,.18s-.02,.13-.07,.18c-.05,.05-.12,.07-.18,.07Z" style="fill: #1d1d1b;"/>
        <path d="M67,47.5c-.06,0-.13-.03-.17-.07-.05-.05-.08-.11-.08-.18s.03-.13,.08-.18c.08-.08,.25-.09,.35,0,.05,.05,.07,.11,.07,.18s-.03,.13-.07,.18c-.05,.05-.11,.07-.18,.07Z" style="fill: #1d1d1b;"/>
        <path d="M69.5,54.25c-.06,0-.13-.03-.17-.07-.05-.05-.08-.11-.08-.18s.03-.13,.08-.18c.09-.09,.25-.09,.35,0,.05,.05,.07,.11,.07,.18s-.02,.13-.07,.18c-.05,.04-.11,.07-.18,.07Z" style="fill: #1d1d1b;"/>
        <path d="M63.5,61.75c-.06,0-.13-.03-.17-.07-.05-.05-.08-.12-.08-.18,0-.07,.03-.13,.08-.18,.07-.08,.25-.1,.35,0,.05,.05,.07,.12,.07,.18s-.02,.12-.07,.17c-.05,.06-.11,.08-.18,.08Z" style="fill: #1d1d1b;"/>
        <path d="M69.25,63.5c-.06,0-.12-.02-.17-.07-.05-.05-.08-.11-.08-.18s.03-.13,.08-.18c.09-.09,.25-.09,.35,0,.05,.05,.07,.12,.07,.18s-.02,.13-.07,.17c-.05,.06-.11,.08-.18,.08Z" style="fill: #1d1d1b;"/>
        <path d="M64.75,65.5c-.07,0-.13-.03-.17-.07-.05-.05-.08-.12-.08-.18s.03-.12,.07-.17c.1-.1,.27-.1,.36,0,.05,.06,.07,.12,.07,.18s-.02,.12-.07,.17c-.04,.05-.11,.08-.18,.08Z" style="fill: #1d1d1b;"/>
        <path d="M65.75,68.25c-.06,0-.13-.03-.17-.07-.05-.05-.08-.11-.08-.18s.03-.13,.08-.18c.08-.09,.26-.09,.35,0,.05,.05,.07,.12,.07,.18,0,.07-.02,.13-.07,.18-.05,.04-.11,.07-.18,.07Z" style="fill: #1d1d1b;"/>
        <path d="M69.25,70.5c-.06,0-.13-.03-.17-.07-.05-.05-.08-.12-.08-.18,0-.07,.03-.13,.08-.18,.09-.09,.25-.09,.35,0,.05,.05,.07,.11,.07,.18,0,.06-.02,.13-.07,.17-.05,.06-.11,.08-.18,.08Z" style="fill: #1d1d1b;"/>
        <path d="M62.5,70.25c-.06,0-.13-.03-.17-.07-.05-.05-.08-.11-.08-.18s.03-.13,.08-.18c.08-.08,.24-.1,.34,0,.06,.05,.08,.12,.08,.18s-.02,.13-.07,.18c-.06,.05-.12,.07-.18,.07Z" style="fill: #1d1d1b;"/>
        <path d="M60.75,65.75c-.06,0-.13-.03-.17-.07-.05-.05-.08-.11-.08-.18s.03-.13,.08-.18c.09-.09,.25-.09,.35,0,.05,.05,.07,.12,.07,.18s-.02,.13-.07,.17c-.05,.06-.11,.08-.18,.08Z" style="fill: #1d1d1b;"/>
        <path d="M52.75,69.75c-.06,0-.13-.03-.17-.07-.05-.05-.08-.11-.08-.18s.03-.13,.08-.18c.09-.09,.25-.09,.35,0,.05,.05,.07,.12,.07,.18s-.02,.13-.07,.17c-.05,.06-.11,.08-.18,.08Z" style="fill: #1d1d1b;"/>
        <path d="M44.75,66.5c-.07,0-.13-.03-.17-.07-.05-.05-.08-.11-.08-.18s.03-.13,.08-.18c.09-.09,.25-.09,.35,0,.05,.05,.07,.11,.07,.18,0,.06-.02,.13-.07,.17-.05,.05-.11,.08-.18,.08Z" style="fill: #1d1d1b;"/>
        <path d="M44.5,71.25c-.06,0-.12-.03-.17-.07-.05-.05-.08-.11-.08-.18s.03-.13,.08-.18c.09-.09,.25-.09,.35,0,.05,.05,.07,.11,.07,.18s-.02,.13-.07,.18c-.05,.05-.12,.07-.18,.07Z" style="fill: #1d1d1b;"/>
        <path d="M28.5,71.25c-.07,0-.13-.03-.18-.08-.04-.04-.07-.1-.07-.17s.03-.13,.08-.18c.09-.09,.25-.09,.35,0,.05,.05,.07,.12,.07,.18s-.02,.13-.07,.18c-.04,.04-.11,.07-.18,.07Z" style="fill: #1d1d1b;"/>
        <path d="M.75,29.5c-.06,0-.13-.03-.17-.07-.05-.05-.08-.12-.08-.18,0-.07,.03-.13,.08-.18,.08-.09,.24-.09,.35,0,.04,.05,.07,.11,.07,.18s-.02,.13-.07,.18c-.05,.05-.11,.07-.18,.07Z" style="fill: #1d1d1b;"/>
        <path d="M24.5,1c-.06,0-.12-.02-.17-.07-.05-.05-.08-.12-.08-.18,0-.07,.03-.13,.07-.18,.11-.09,.26-.09,.36,0,.04,.05,.07,.11,.07,.18s-.02,.13-.07,.17c-.05,.06-.11,.08-.18,.08Z" style="fill: #1d1d1b;"/>
        <path d="M13.25,5c-.07,0-.13-.03-.18-.07-.04-.05-.07-.12-.07-.18,0-.07,.03-.13,.07-.18,.09-.09,.26-.09,.36,0,.05,.05,.07,.11,.07,.18,0,.06-.02,.13-.07,.17-.05,.06-.11,.08-.18,.08Z" style="fill: #1d1d1b;"/>
        <path d="M71,35.25c-.06,0-.13-.03-.17-.07-.05-.05-.08-.11-.08-.18s.03-.13,.08-.18c.08-.08,.25-.09,.35,0,.05,.05,.07,.11,.07,.18s-.02,.13-.07,.18c-.05,.05-.11,.07-.18,.07Z" style="fill: #1d1d1b;"/>
      </g>
    </pattern>
  </defs>
  <g style="isolation: isolate;">
    <g id="uuid-bbdcafd6-5c4b-4505-a066-587cdebcf718" data-name="FIL et SILHOUETTES">
      <path d="M215.89,198.18c-1.06-25.56-3.33-51.13-.99-76.69,.26-2.8-2.5-4.85-5-5-32.76-1.95-65.56-2.96-98.38-3.04-1.37,0-2.45,.45-3.24,1.17-2.11,.38-3.93,1.95-3.86,4.73,.87,35.25,3.02,70.75,1.99,106-.25,8.5-.98,16.98-1.34,25.48-.34,8.11-1.08,17.78,1.17,25.67,2.12,7.42,11.65,5.54,17.62,5.53,8.55-.02,17.11-.33,25.65-.69,20.03-.85,40.08-1.91,60.1-.32,3.45,.27,5.43-3.4,4.82-6.33-2.6-12.6,.38-25.55,1.27-38.18,.9-12.75,.7-25.55,.17-38.32Z" style="fill: #8f8c95;"/>
      <line x1="214.61" y1="119.01" x2="214.61" y2="279.08" style="fill: none; stroke: #262631; stroke-miterlimit: 10; stroke-width: .75px;"/>
      <line x1="90.91" y1="115.25" x2="222.59" y2="115.25" style="fill: none; stroke: #262631; stroke-miterlimit: 10; stroke-width: .75px;"/>
      <line x1="105.88" y1="108.58" x2="225.59" y2="108.58" style="fill: none; stroke: #262631; stroke-miterlimit: 10; stroke-width: .75px;"/>
      <line x1="83.28" y1="280.7" x2="226.13" y2="280.7" style="fill: none; stroke: #262631; stroke-miterlimit: 10; stroke-width: .75px;"/>
      <line x1="88.27" y1="293.02" x2="235.09" y2="293.02" style="fill: none; stroke: #262631; stroke-miterlimit: 10; stroke-width: .75px;"/>
      <line x1="228.1" y1="275.72" x2="228.1" y2="291.16" style="fill: none; stroke: #262631; stroke-miterlimit: 10; stroke-width: .75px;"/>
      <g>
        <path d="M487.82,346.89c.91-1.05,1.48-2.36,1.36-3.78-.34-4.24-.71-8.49-1.08-12.73-.68-36.61-1.3-73.21-1.35-109.82-.05-41.05,1.39-82.02,2.36-123.05,.35-14.94,.41-29.91-.25-44.84,1.16-1.12,1.87-2.71,2.05-4.45,1.26-12.72,1.31-25.5,.17-38.23-.27-2.96-2.57-6.47-6.06-6.06-72.56,8.58-145.76,8.07-218.68,6.06-72.69-2-145.44-5.44-218.15-2.68-5.16,.2-10.31,.42-15.47,.68-4.66,.24-9.42,.24-14.02,1.1-4.32,.81-8.16,3.3-10.35,7.14-2.2,3.84-2.35,8.45-2.48,12.76-.15,4.75-.28,9.5-.42,14.25-2.79,15.79-3.39,31.83-1.42,47.77,.17,1.37,.66,2.66,1.42,3.69-.04,20.5-.09,41.01-.13,61.51,0,1.32,.36,2.39,.93,3.27,.02,30.5,.05,61.01,.07,91.51,0,9.39,.01,18.79,.02,28.18-.67,.59-1.21,1.3-1.55,2.1,.92,12.02,1.76,24.04,2,36.09,.03,.71,.07,1.42,.1,2.13-.02,.27-.04,.55-.06,.82,.01,.88,.03,1.76,.04,2.63,0,.7-.12,1.33-.33,1.88-.53,9.54-.51,19.11-.26,28.69-.23,5.18-.43,10.35-.63,15.53,.19,5.9,.31,11.8,.32,17.71,0,1.21-.38,2.21-1,2.99-.48,17.6-.71,35.21-.5,52.82,.15,12.82,.55,25.63,1.21,38.43-.89,.61-1.72,1.32-2.47,2.18h0c.26,3.11,.59,6.21,.92,9.31,.91,.63,2.03,1.02,3.36,1.03,78.47,.67,156.96,.5,235.43-.51,20.84-.27,41.68-.61,62.51-.99,16.98,1.1,33.98,1.72,51.05,1.36,27.76-.57,55.45-2.78,83.18-4.02,15.55-.7,31.12-1.07,46.69-.73,3.17,.07,6.21-2.83,6.06-6.06-2.07-45.21-3.58-90.44-4.59-135.68Z" style="fill: #faf7f5;"/>
        <line x1="300.07" y1="396.78" x2="49.94" y2="396.78" style="fill: none; stroke: #262631; stroke-miterlimit: 10; stroke-width: .75px;"/>
        <line x1="305.55" y1="403.07" x2="36.8" y2="403.07" style="fill: none; stroke: #262631; stroke-miterlimit: 10; stroke-width: .75px;"/>
        <line x1="301.52" y1="467" x2="301.52" y2="395.22" style="fill: none; stroke: #262631; stroke-miterlimit: 10; stroke-width: .75px;"/>
        <line x1="39.82" y1="396.78" x2="39.82" y2="468.35" style="fill: none; stroke: #262631; stroke-miterlimit: 10; stroke-width: .75px;"/>
        <line x1="49.44" y1="399.28" x2="49.44" y2="468.35" style="fill: none; stroke: #262631; stroke-miterlimit: 10; stroke-width: .75px;"/>
        <line x1="294.09" y1="401.91" x2="294.09" y2="468.35" style="fill: none; stroke: #262631; stroke-miterlimit: 10; stroke-width: .75px;"/>
        <g>
          <g>
            <path d="M279.42,315.07c-4.33,1.41-8.66-23.97-16.32-29.11-.11-.07-.2-.13-.31-.21,2.78-2,3.05-4.23,1.68-7.47-1.03-2.43-1.56-5.01-2.2-7.54-.39-1.57,.04-3.49-.95-4.71,2.56,3.65,9.33,.45,13.09-1.3,3.76-1.75,12.96,.47,12.96,.47-1.15-1.01-1.27-4.77-1.27-4.77,0,0,.2,1.95,4.3,5.79h.01c-.09,.44-.1,.94-.08,1.34,.21,3.97-1.56,7.52-3.53,11.03-.51,.9-1.13,1.76-1.59,2.68-1.31,2.61-.9,4.27,1.95,5.8,.23,.12,.47,.23,.71,.35-.84,1.07-1.86,2.85-2.6,5.69-1.51,5.74-1.51,20.55-5.84,21.96Z" style="fill: #fbf6c1;"/>
            <path d="M317.7,452.13c3.61-1.87,1.48-4.61,.55-7.85,0-.01,0-.02,0-.03,1.93,1.99,4.13,3.82,6.69,5.43,.73,.46,1.48,.93,2.04,1.5,1.94,2.01,1.51,3.85-1.05,5.36-1,.6-1.85,1.36-2.87,2.12,1.25,1.4,2.24,2.5,3.42,3.81-.9,.5-1.68,.94-2.4,1.34-1.74-1.35-3.24-2.51-4.6-3.57-.81,.23-1.19,.32-1.55,.44-3.13,1-3.9,.91-5.49-1.38-1.15-1.66-1.96-3.49-2.7-5.3-.86-2.12-1.18-4.41-2.27-6.44-.26-.49-.55-.97-.82-1.45,.38,.03,.82,.12,1.31,.41,1.17,.7,6.13,7.47,9.73,5.61Z" style="fill: #4eb570;"/>
            <path d="M286.1,260.44s.12,3.76,1.27,4.77c0,0-9.19-2.22-12.96-.47-3.76,1.75-10.53,4.94-13.09,1.3-1.85-2.28-1.1-4.52-.63-6.7,.6-2.78,1.56-5.55,2.86-8.17,3.26-6.56,17.53-9.19,23.56-1.64,2.63,3.29,4.5,6.69,5.16,10.58,.34,1.99,1.12,3.87-1.45,5.39-.23,.13-.35,.42-.42,.75h-.01c-4.1-3.86-4.3-5.81-4.3-5.81Z"/>
            <path d="M279.23,463.89c2.86-1.02,3.89-3.73,4.91-5.85,.49,1.66,1.21,3.27,1.32,4.26,.17,1.65,4.08,7.5,0,7.79-4.08,.29-12.51,.64-12.51,.64,0,0-.12-4.42-.58-6.82-.19-1.25,.16-2.55,.24-3.83,.07-1.12,.17-2.24,.27-3.37h0c2.67,.24,1.5,8.92,6.36,7.18Z" style="fill: #4eb570;"/>
            <path d="M235.21,323.41c.86-4.05,1.51-8.06,1.38-12.16-.06-1.86-.06-3.72,.05-5.57,.38-6.2,3.69-10.89,10.95-13.46,1.26-.45,2.59-.78,3.82-1.28,3.28-1.34,6.68-2.54,9.74-4.16,.63-.33,1.16-.68,1.64-1.02,.11,.07,.2,.13,.31,.21,7.66,5.14,11.99,30.52,16.32,29.11,4.33-1.41,4.33-16.22,5.84-21.96,.75-2.84,1.76-4.61,2.6-5.69,1.83,.91,3.83,1.67,5.88,2.14,4.12,.93,8.34,1.59,12.55,2.22,2.46,.37,3.79,1.43,4.25,3.35,.56,2.3,1.26,4.58,1.7,6.89,.75,3.9,2.21,8.38,3.31,12.21,1.3,4.54,2.07,8.46,3.8,13.06,1.56,4.1,3.17,11.05-.26,12.46-3.42,1.41-12.79,3.32-12.79,3.32,0,0,1.26,17.83,3.44,20.07-7.47-5.45-34.74-3.44-44.14-2.77-9.4,.67-14,2.49-15.3,5.18,0,0,0,.01-.01,.02,.66-1.73,1.33-16.24,.54-18.7-1.59,1.11-2.91,2.09-4.31,2.99-4.09,2.64-7.3,2.11-9.6-1.63-.61-.99-1.04-2.06-1.39-3.13-2.36-7.21-1.87-14.49-.34-21.71Z" style="fill: #4eb570;"/>
            <path d="M264.57,389.2c1.04-9.57,10.66-15.11,18.19-16.73,7.53-1.62,3.94,6.37,11.12,6.95,7.18,.58,7.88,17.96,8.25,20.89,0,0,.39,1.23,1.01,2.65,1.54,3.55,2.54,7.38,2.83,10.72,.62,7.16,2.08,14.21,5.44,20.88,1.77,3.5,3.99,6.78,6.83,9.7,0,.01,0,.02,0,.03,.93,3.24,3.06,5.98-.55,7.85-3.61,1.87-8.56-4.91-9.73-5.61-.48-.29-.93-.38-1.31-.41-4.04-7.11-9.47-13.57-15.83-20.07-.3,9.36-3.22,17.85-6.5,26.27-.31,.81-.49,1.68-.61,2.49-.14,.98,.09,2.11,.42,3.22-1.02,2.12-2.05,4.83-4.91,5.85-4.87,1.74-3.69-6.94-6.36-7.18h0c.17-1.96,.32-3.92,.17-5.87-.29-3.93-1.08-7.84-1.78-11.74-.93-5.21-1.15-10.47-.28-15.64,1.34-7.97,1.47-15.95,1.44-23.96,0-.5-.19-1-.32-1.68-2.78,0-5.38,.05-7.97-.03-.06-1.94,.02-4.71,.45-8.61Z" style="fill: #fbf6c1;"/>
            <path d="M265.62,360.41c9.4-.67,36.67-2.69,44.14,2.77,1.35,1.44,2.49,5.49,2.19,7.3-.54,10.76-.85,7.09-2.01,13.72-.52,2.96-2.37,7.59-4.35,10.22-1.02,1.36-1.77,2.85-2.7,4.26-.37,.56-.61,1.11-.75,1.66-.37-2.93-1.07-20.31-8.25-20.89-7.18-.58-3.59-8.57-11.12-6.95-7.53,1.62-17.15,7.16-18.19,16.73-.42,3.9-.5,6.67-.45,8.61-.03,0-.07,0-.1,0-.99-.03-2.18-.16-2.91-.62-3.66-2.28-7.34-4.56-10.74-7.07-5.18-3.83-5.83-9-5.03-14.15,.41-2.65,2.29-5.18,3.69-7.71,.49-.88,.94-1.77,1.28-2.67,0,0,0-.01,.01-.02,1.3-2.69,5.89-4.51,15.3-5.18Z" style="fill: #96619d;"/>
          </g>
          <path d="M267.15,290.81c.44-.12,.85-.21,1.16-.23,3.7-.13,5.83-3.63,5.97-4.83,.13-1.2-2.55-2.56-3.77-3.46-1.21-.9-1.2-7.02-2.2-10.78-.21-.78-.25-2.32-.18-4.28-2.74,.74-5.4,.8-6.8-1.19,.98,1.21,.55,3.14,.95,4.71,.63,2.53,1.17,5.11,2.2,7.54,1.37,3.23,1.1,5.47-1.68,7.47,.11,.07,.2,.13,.31,.21,1.46,.98,2.81,2.71,4.05,4.85Z" style="fill: #c40000; mix-blend-mode: color-burn; opacity: .19;"/>
          <path d="M317.42,453.48c-.25-.22-.59-.6-.97-1.04-3.42,.11-7.44-5.3-8.49-5.91-.48-.29-.93-.38-1.31-.41,.27,.48,.56,.96,.82,1.45,1.09,2.03,1.41,4.32,2.27,6.44,.74,1.81,1.55,3.64,2.7,5.3,1.58,2.29,2.36,2.37,5.49,1.38,.36-.11,.73-.21,1.55-.44,1.37,1.06,2.86,2.22,4.6,3.57,.38-.21,.79-.44,1.21-.68-1.57-2.2-5.47-7.54-7.87-9.66Z" style="fill: #c40000; mix-blend-mode: color-burn; opacity: .19;"/>
          <path d="M268.12,267.23c.2-5.6,1.43-14.86,3.06-21.54-3.45,1-6.37,2.94-7.63,5.48-1.3,2.62-2.26,5.39-2.86,8.17-.47,2.18-1.22,4.42,.63,6.7,1.4,2,4.06,1.94,6.8,1.19Z" style="fill: #c40000; mix-blend-mode: color-burn; opacity: .19;"/>
          <path d="M274.41,264.74c3.76-1.75,12.96,.47,12.96,.47-1.15-1.01-1.27-4.77-1.27-4.77,0,0,.2,1.95,4.3,5.79h.01c.07-.32,.19-.61,.42-.74,2.56-1.51,1.78-3.4,1.45-5.39-.66-3.89-2.53-7.29-5.16-10.58-3.7-4.63-10.48-5.42-15.93-3.84-1.63,6.68-2.85,15.94-3.06,21.54,2.27-.62,4.59-1.7,6.29-2.49Z" style="fill: #c40000; mix-blend-mode: color-burn; opacity: .19;"/>
          <path d="M272.86,456.71h0c-.1,1.12-.2,2.25-.27,3.37-.08,1.28-.43,2.58-.24,3.83,.46,2.39,.58,6.82,.58,6.82,0,0,3.15-.13,6.53-.3-.28-1.61-.55-3.83-.74-6.42-4.27,.96-3.29-7.07-5.87-7.3Z" style="fill: #c40000; mix-blend-mode: color-burn; opacity: .19;"/>
          <path d="M250.77,332.08s-1.07-13.97-.81-23.37c.25-8.62,12.32-16.54,17.19-17.91-1.24-2.14-2.59-3.86-4.05-4.85-.11-.07-.2-.13-.31-.21-.48,.34-1.01,.68-1.64,1.02-3.06,1.62-6.46,2.82-9.74,4.16-1.23,.5-2.55,.84-3.82,1.28-7.26,2.57-10.57,7.26-10.95,13.46-.11,1.85-.11,3.72-.05,5.57,.14,4.1-.52,8.11-1.38,12.16-1.53,7.22-2.02,14.5,.34,21.71,.35,1.07,.78,2.14,1.39,3.13,2.3,3.74,5.5,4.27,9.6,1.63,1.4-.9,2.72-1.88,4.31-2.99,.79,2.46,.12,16.97-.54,18.7,0,0,0-.01,.01-.02,.68-1.42,2.3-2.58,5.02-3.47,.74-6.22,3.15-11.74,3.49-16.31,.54-7.25-8.06-13.7-8.06-13.7Z" style="fill: #c40000; mix-blend-mode: color-burn; opacity: .19;"/>
          <path d="M316.45,452.44c-4.26-5.04-16.02-23.4-19.48-29.57-3.76-6.72-7.66-17.86-5.78-28.34,1.88-10.48-6.18-4.7-19.61-5.64-2.97-.21-5.13-.54-6.79-1.03-.09,.45-.18,.89-.23,1.36-.32,2.92-.44,5.21-.46,6.99,0,.59,0,1.12,.01,1.6,2.59,.08,5.19,.03,7.97,.03,3.26-.01,11.52-1.47,12.12,0,.6,1.47-2.25,16.42,6.61,28.22,6.37,6.5,11.79,12.96,15.83,20.07,.38,.03,.82,.12,1.31,.41,1.04,.62,5.07,6.03,8.49,5.91Z" style="fill: #c40000; mix-blend-mode: color-burn; opacity: .19;"/>
          <path d="M278.73,464.01c-.48-6.47-.46-15.11,1.07-21.67,2.39-10.21,2.63-25.92,2.04-30.49-.45-3.47-5.65-5.7-9.46-6.15-.09,5.93-.42,11.85-1.41,17.76-.87,5.16-.65,10.43,.28,15.64,.7,3.9,1.49,7.81,1.78,11.74,.14,1.95,0,3.91-.17,5.87h0c2.58,.23,1.6,8.26,5.87,7.3Z" style="fill: #c40000; mix-blend-mode: color-burn; opacity: .19;"/>
          <path d="M264.57,389.2c.05-.46,.14-.9,.22-1.33-5.85-1.73-5.11-5.57-8.25-14.15-1.49-4.07-1.63-7.95-1.21-11.6-2.72,.89-4.34,2.05-5.02,3.47,0,0,0,.01-.01,.02-.35,.91-.8,1.79-1.28,2.67-1.4,2.52-3.27,5.05-3.69,7.71-.8,5.15-.15,10.32,5.03,14.15,3.41,2.51,7.09,4.79,10.74,7.07,.74,.46,1.92,.59,2.91,.62,.03,0,.07,0,.1,0-.01-.49-.02-1.03-.01-1.62,.02-1.78,.14-4.08,.46-7.01Z" style="fill: #c40000; mix-blend-mode: color-burn; opacity: .19;"/>
        </g>
        <g>
          <path d="M139.72,449.74c-.23,.37-.51,.45-1.34,.2,.5-.19,.94-.23,1.34-.2Z" style="fill: #be7265;"/>
          <path d="M153.98,445.86c-.18,.16-.32,.25-.41,.28-.02-.1-.04-.19-.05-.29,.14,0,.3,.01,.46,.02Z" style="fill: #be7265;"/>
          <path d="M182.82,331.8c.16-1.65-.82-5.77-1.46-8.07,1.87-.12,3.71-.39,5.5-1.1,2.5-.98,8.61-2.28,9.12-.53,5.13,2.08,4.04,9.87,2.64,12.66-1.74,3.46-6.27,4.45-9.76,4.19-1.73-.13-3.42-.82-5.25-1.29-1.57-1.46-1.02-3.64-.8-5.87Z" style="fill: #be7265;"/>
          <path d="M153.52,445.85c.01,.1,.04,.19,.05,.29-.11,.03-.14-.06-.05-.29Z" style="fill: #be7265;"/>
          <path d="M106.48,281.28c.77-1.23,4.36-8.15,5.18-14.08,.58-5.96,3.61-13.23,5.82-18.14,.91-2.02,4.22-5.69,6.24-6.71,4.15-2.11,11.06-.54,15.3,.83,5.73,1.85,8.92,4.21,11.73,9.61,.56,1.08,1.06,2.83,.99,5.03-.07,2.38-1.48,4.04-1.19,6.18,.28,2.03,.18,3.71-1.71,5.04-.55,.39-.66,1.56-.75,2.4-.44,4.05-1.15,8.02-2.72,11.82-2.32,5.61-2.61,5.81-8.39,5.15-.36,.79-.33,1.52-.13,2.21-7.17-.22-21.21-1.51-24.6-3.94-2.23-1.59-4.34-3.77-5.78-5.4Z" style="fill: #be7265;"/>
          <path d="M138.37,449.94c1.8,4.02,4.5,7.36,6.93,10.88,1.29,1.86,2.4,3.88,3.31,5.96,.68,1.57,.09,2.63-1.45,3.43-2.04,1.07-4.2,1.01-6.31,.36-4.94-1.54-9.39-4.07-12.85-7.88-4.78-5.26-9.25-10.79-13.74-16.31-.73-.89-1.38-2.44-1.12-3.43,.93-3.54,1.94-7.2,6.08-8.54,.34-.11,.89-.32,.91-.52,1.3,1.3,6.98,5.49,8.8,7.31,1.82,1.82,7.86,8.25,9.44,8.72Z" style="fill: #442f34;"/>
          <path d="M153.52,445.85c-.09,.24-.06,.32,.05,.29,.64,4.19,2.13,7.76,5.98,10.18,1.43,.9,2.5,2.51,3.46,3.98,.85,1.32,.08,2.59-1.51,2.62-.98,.02-2.06-.19-2.92-.64-2.25-1.15-4.53-2.33-6.59-3.78-3.32-2.34-6.46-4.92-9.69-7.38-.78-.6-1.55-1.29-2.58-1.38,.2-.33,.36-.91,.81-1.72,.96-1.72,9.52-2.32,13-2.17Z" style="fill: #442f34;"/>
          <path d="M84.76,364.58c-.04-2.86,.4-5.53,1.58-8.13,1.87-4.13,2.68-8.48,2.09-12.99-.73-5.53-1.48-11.05-2.46-16.54-.95-5.27-1.39-10.55-1.35-15.89,.04-4.46,1.34-8.55,3.7-12.23,1.7-2.66,3.75-5.11,5.82-7.51,2.9-3.35,9.2-6.57,12.21-9.84,.02-.03,.07-.09,.13-.19,1.45,1.63,3.56,3.81,5.78,5.4,3.39,2.42,17.43,3.72,24.6,3.94,.21,.71,.61,1.37,1,2.02,.9,1.52,1.08,2.95,.5,4.68-.72,2.15-1.7,4.5-1.43,6.62,.62,5.01,1.54,10.02,3.68,14.69,1.09,2.37,2.73,4.02,5.38,4.29,4.91,.51,9.83,1.17,14.75,1.27,6.08,.13,12.18-.32,18.27-.38,.79,0,1.57-.04,2.34-.08,.64,2.3,1.62,6.42,1.46,8.07-.22,2.23-.77,4.42,.8,5.87-.27,.68-25.67,4.54-31.59,3.88-1.46-.16-2.95-.02-4.33-.02-.16,.48-.31,.72-.3,.95,.27,5.7,.58,11.4,.83,17.1,.07,1.69,1.08,2.33,2.48,2.95,1.95,.86,3.86,1.87,5.62,3.06,1.63,1.1,2.04,2.86,1.52,4.75-.36,1.32-.83,2.62-1.29,4.02-5.03,1.41-9.44,7.74-16.91,7.16-7.47-.57-21.27-2.87-26.54-1.15-5.27,1.72-9.96,.77-12.45,2.11-2.49,1.34-7.79,6.52-15.87,6.28,0-8.19,.07-16.19-.04-24.19Z" style="fill: #be4c58;"/>
          <path d="M113.13,380.38c5.27-1.72,19.06,.57,26.54,1.15,7.47,.57,11.88-5.75,16.91-7.16,5.32,.91,10.45,1.66,15.53,2.7,5.72,1.17,11.4,2.53,16.61,5.34,4.31,2.33,5.1,3.75,4.52,8.52-.18,1.5-.59,2.98-.86,4.48-.3,1.71-1.07,2.36-1.75,4.8-2.19,4.65-4.96,6.97-8.98,11.04-1.24,1.25-11.81,12.59-14.58,16.34-1.86,2.52-3.95,4.88-5.93,7.3-2.11,5.15-5.8,9.81-7.15,10.99-.16,0-.32-.01-.46-.02-3.48-.16-12.04,.44-13,2.17-.45,.82-.61,1.39-.81,1.72-.4-.04-.84,0-1.34,.2-1.58-.47-7.62-6.9-9.44-8.72-1.82-1.82-7.5-6.01-8.8-7.31,.21-2.24,2.32-2.54,3.66-3.49,5.7-4.03,10.52-8.07,16.3-11.99,2.33-1.32,.3-2.55-.75-2.92-8.26-2.95-18.01-4.08-26.45-5.51-5.48-.36-19.98-6.99-23.34-11.76-1.62-2.31-2.42-3.95-4.76-9.46,8.08,.24,13.38-4.94,15.87-6.28,2.49-1.34,7.19-.38,12.45-2.11Z" style="fill: #457989;"/>
          <path d="M111.77,261.34c.15,1.4,.16,2.77,1.29,3.76,.88,.77,2.24,1.73,3.44,1.71,.43,0,.44-.06,.81,.15,.21,.12,.39,.28,.63,.36,.32,.09,.64-.04,.94,.01,.1,.02,.17-.09,.09-.12,.06,.02,.14,.25,.19,.31,.85,.94,1.79,.72,2.93,.49,.83-.16,.61,.36,1.11,.79,.36,.32,.82,.33,1.27,.29,1.17-.12,2.27-.74,2.57-1.94,.37-1.48,.53-3.36,1.92-4.28,.58-.38,1.25-1.11,1.93-1.25,.86-.19,1.68,.44,1.79,1.29,.05,.37,.28,.61,.57,.73,.11,.2,.28,.4,.56,.58,.4,.26,.77,.13,1.01-.14,.49,0,.97-.3,1.14-1,.21-.84,.03-1.6,.46-2.42,.33-.64,.62-1.15,.47-1.89-.31-1.46-1.73-1.91-2.69-2.85-.52-.51-.35-1.13-.67-1.72-.13-.24-.33-.44-.56-.58-.19-.12-.67-.19-.77-.3-.08-.09-.12-.57-.21-.74-.12-.23-.3-.44-.49-.62-.45-.43-1.05-.65-1.63-.84-1.29-.42-2.26-1.27-3.69-.97-.95,.2-1.68,.56-2.68,.37-.63-.12-1.25-.31-1.9-.35-.65-.04-1.36,.05-1.93,.38-.53,.31-.78,.89-1.43,.77-.54-.1-.93-.37-1.49-.15-.28,.11-.4,.28-.61,.47-.26,.24-.21,.2-.54,.34-1.25,.52-1.02,1.54-1.42,2.63-.44,1.2-1.53,1.96-1.68,3.31-.04,.34,.04,.73-.04,1.06-.08,.33-.34,.48-.51,.77-.31,.52-.24,1.03-.17,1.61Z" style="fill: #f2f2f2;"/>
          <g>
            <path d="M116.5,266.8c-1.2,.02-2.57-.94-3.44-1.71-.41-.36-.67-.77-.85-1.22,.92-4.28,2.68-8.85,4.29-12.58,.07-.05,.14-.11,.24-.15,.56-.21,.96,.05,1.49,.15,.65,.12,.9-.46,1.43-.77,.58-.33,1.28-.42,1.93-.38,.65,.04,1.26,.23,1.9,.35,.31,.06,.59,.06,.87,.03-1,1.26-1.82,2.6-2.33,3.96-1.35,3.63-3.24,8.78-4.25,12.74-.17-.08-.31-.19-.48-.28-.36-.21-.38-.16-.81-.15Z" style="fill: #f2f2f2;"/>
            <path d="M86.35,356.45c1.87-4.13,2.68-8.48,2.09-12.99-.73-5.53-1.48-11.05-2.46-16.54-.95-5.27-1.39-10.55-1.35-15.89,.04-4.46,1.34-8.55,3.7-12.23,1.7-2.66,3.75-5.11,5.82-7.51,2.9-3.35,9.2-6.57,12.21-9.84,.02-.03,.07-.09,.13-.19,.77-1.23,4.36-8.15,5.18-14.08,.1-1.07,.31-2.19,.55-3.32-.3-.78-.35-1.65-.44-2.54-.06-.58-.13-1.09,.17-1.61,.17-.29,.43-.44,.51-.77,.08-.33,0-.72,.04-1.06,.15-1.35,1.24-2.11,1.68-3.31,.4-1.08,.17-2.11,1.42-2.63,.33-.14,.29-.1,.54-.34,.13-.12,.24-.23,.37-.32,.34-.78,.67-1.54,.98-2.23,.91-2.02,4.22-5.69,6.24-6.71,3.67-1.86,9.49-.85,13.73,.35-3.62-.11-9.55,3.37-13.09,7.82-1,1.26-1.82,2.6-2.33,3.96-1.35,3.63-3.24,8.78-4.25,12.74-.71,2.79-1,5-.35,5.65,1.58,1.58,3.45,5.57,2.01,8.39-1.44,2.82-1.67,5.23-3.35,6.9-1.68,1.67-12.03,3.54-14.33,7.13-2.3,3.59-8.05,19.11-4.31,24.86,3.74,5.75,22.99,18.17,26.73,18.86,3.74,.69,4.93,.69,4.93,.69,0,0-11.68,.86-15.56,0-3.88-.86-11.35-3.96-12.36-.69-1.01,3.27,1.29,9.89-.14,15.49-1.44,5.6,1.87,13.8,0,17.39-1.87,3.59-4.36,7.23-.38,10.59,3.98,3.35-1.77,4.48,1.82,6.29,3.59,1.81,12.36,.66,14.37,2.24,.96,.75,4.21,1.77,7.83,2.77,3.97,1.09,8.38,2.16,10.71,2.84,4.45,1.29,24.86,4.89,24.29,8.48-.57,3.59-11.21,12.79-15.23,16.81-4.02,4.02-17.61,14.75-18.36,16.86-.61,1.72-7.4,5.99-9.43,10.57-.02-.02-.03-.04-.05-.06-.78-.96-1.57-1.92-2.35-2.88-.73-.89-1.38-2.44-1.12-3.43,.89-3.39,1.89-6.87,5.6-8.33,.16-.06,.3-.15,.47-.2,.34-.11,.89-.32,.91-.52,.21-2.24,2.32-2.54,3.66-3.49,5.7-4.03,10.52-8.07,16.3-11.99,2.33-1.32,.3-2.55-.75-2.92-5.37-1.92-11.37-3.06-17.22-4.03-3.15-.52-6.27-.99-9.22-1.49-5.48-.36-19.98-6.99-23.34-11.76-1.62-2.31-2.42-3.95-4.76-9.46,0-8.19,.07-16.19-.04-24.19-.04-2.86,.4-5.53,1.58-8.13Z" style="fill: #c40000; mix-blend-mode: color-burn; opacity: .19;"/>
          </g>
        </g>
        <path d="M60.41,407.21c.01,17.86,.05,35.72,.11,53.58,.02,3.93,3.86,6.89,7.67,5.84,1.24-.34,1.81-.36,3.05-.03,3.65,.97,7.86-1.85,7.67-5.84-.88-17.92-1.11-35.87-.75-53.8l.34-12.12c.39-10.94,1-21.88,1.85-32.8,33.38-.41,66.76-.59,100.15-.56,.17,10.76,.35,21.52,.52,32.28l.2,12.14c.3,18.47,.6,36.95,.9,55.42,.07,4.19,3.8,6.56,7.67,5.84,1.29-.24,2.69-.27,3.99-.04,3.8,.67,7.69-1.61,7.67-5.84-.11-18.5-.21-37-.32-55.5l-.07-12.17-.16-27.87c-.01-1.84-.7-3.25-1.74-4.22,35.91,.13,71.81,.48,107.72,1.12,18.85,.34,37.71,.76,56.56,1.24,.33,33.39,.62,66.77,.86,100.16,.03,4.41,6.48,4.67,7.2,.76,.72,1.54,1.96,2.6,4.35,2.62,7.61,.09,7.06-9.22,7.08-14.34,.06-15.52,.11-31.03,.17-46.55,.06-17.53,.13-35.06,.19-52.59,.02-4.52-6.75-4.67-7.22-.44-.95-.88-2.23-1.48-3.88-1.52-17.35-.46-34.71-.84-52.07-1.18,.04-.51,.08-1.02,.12-1.53,.05-.27,.06-.52,.06-.79,.1-1.18,.21-2.35,.33-3.52l3.39-.05c6.88-.1,13.91,.2,20.76-.36,5.64-.46,8.41-4.38,9.6-9.57,3.32-14.44,5.4-29.26,6.96-43.98,.27-2.52-2.52-3.92-4.6-3.51-24.11,4.87-49.02,5.62-73.37,2.15-1.33-2.54-5.83-2.98-6.76,.58-3.44,13.14-6.92,26.27-10.33,39.42-1.1,4.23-2.13,9.69,1.11,13.31,3.73,4.16,10.85,2.66,15.81,2.59,10.05-.15,20.1-.31,30.16-.46-.1,.97-.19,1.94-.28,2.91-.3,.87-.43,1.77-.41,2.68-30.16-.56-60.33-.93-90.5-1.14v-4.33c8.75-.2,17.47-.85,26.01-2.2,3.75-.59,6.08-2.72,6.67-6.5,.71-4.59,1.15-9.23,1.71-13.83,1.2-9.75,2.4-19.5,3.6-29.24,.24-1.93-1.86-3.66-3.63-3.63-13.08,.21-26.17,.42-39.25,.63-6.29,.1-12.57,.26-18.86,.29-5.62,.03-11.38-.17-16.49-2.75-3.23-1.63-6.15,1.76-5.36,4.36-.14,.34-.24,.71-.28,1.13-.93,11.17-3.76,21.54-6.75,32.28-.94,3.39-1.46,6.97-.68,10.35-2.73,1.04-3.66,4.62-.8,6.5,2.34,1.54,4.98,2,7.7,2.01,1.44,.6,3.01,.87,4.63,.69,1.03-.12,1.89-.64,2.53-1.33,.9-.12,1.8-.24,2.67-.33,1.02-.11,2.05-.19,3.07-.29,.54,.43,1.23,.72,2.07,.79,7.95,.67,16.05,1.08,24.16,1.14v4.24c-25.37-.14-50.73-.18-76.1-.07-21.77,.1-43.54,.29-65.3,.58-2.58,.03-4.29,1.39-5.16,3.18-3.49-.96-7.86,.89-7.87,5.59-.03,12.11-.02,24.23-.03,36.34v12.11Zm310.34-36.57c-.02-2.19-.03-4.38-.06-6.58,.31,0,.63,.02,.94,.02-.31,2.18-.62,4.37-.89,6.55Z" style="fill: #c2c0c6;"/>
        <path d="M222.99,346.33c-.04-2.03-.08-4.06-.12-6.09-.15-7.78-.3-15.56-.45-23.34-.09-4.67-7.36-4.69-7.27,0l.33,16.91c.05,2.71,.11,5.41,.16,8.12l.08,4.06c.02,.79,.03,1.58,.05,2.37v.22s-.01,.02-.02,.04c-.85,1.97-.7,4.23,1.35,5.4,2.2,1.26,4.93,.03,5.69-2.31,.55-1.67,.24-3.65,.21-5.39Z" style="fill: #8f8c95;"/>
        <path d="M322.97,317.91c-.06-1.96-1.63-3.63-3.63-3.63s-3.7,1.66-3.63,3.63c.26,8.24,.31,16.48,.13,24.72-.04,1.96,1.7,3.63,3.63,3.63s3.59-1.66,3.63-3.63c.18-8.24,.13-16.48-.13-24.72Z" style="fill: #8f8c95;"/>
        <path d="M371.19,361.43c-.15-4.67-7.42-4.69-7.27,0,1.04,33.14,.55,66.32-1.46,99.42-.28,4.67,6.99,4.66,7.27,0,2.01-33.1,2.49-66.27,1.46-99.42Z" style="fill: #8f8c95;"/>
        <path d="M78.97,365.19c-.13-4.67-7.4-4.69-7.27,0,.95,33.13,.87,66.29-.25,99.41-.16,4.68,7.11,4.67,7.27,0,1.12-33.13,1.2-66.28,.25-99.41Z" style="fill: #8f8c95;"/>
        <path d="M217.07,71.23c-.12-1.84-1.57-3.8-3.63-3.63-21.42,1.73-42.81-1.31-64.24-1.11-21.53,.19-43.01,3.11-64.57,2.01-8.45-.43-17.6-2.7-26.17-1.57-.59-.51-1.34-.83-2.24-.83-1.32,0-2.75,.89-3.35,2.14-.39,.14-.78,.26-1.16,.42-4.07,1.66-2.56,8.11,1.34,7.19,.75,10.67,.66,21.38-.37,32.04-.1,1.08,.47,2.07,1.3,2.74,.21,1.63,1.36,3.16,3.46,3.24,20.84,.81,41.67,1.61,62.51,2.42,20.8,.81,41.62,1.81,62.44,1.1,11.58-.4,23.13-1.39,34.58-3.15,1.47-.22,2.76-2.06,2.67-3.51-.86-13.16-1.72-26.32-2.59-39.49Z" style="fill: #fff;"/>
        <path d="M493.84,466.62c0-.23,0-.45,.03-.66-.09-.01-.17-.04-.26-.05-.07-30.25-.15-60.5-.19-90.75-.03-19.97,.56-39.85,1.48-59.7-.27-4.49-.54-8.97-.76-13.46-2.2-19.8-.83-39.89,.48-59.91,.03-.82,.07-1.63,.1-2.45,.21-5.36,.49-10.73,.45-16.09-.02-2.52-.04-4.99,.16-7.45-.83-13.18-1.76-26.33-2.92-39.49-1.21-13.72-1.81-27.38,.28-41.05,.17-1.13,.81-2.01,1.68-2.62-1.26-17.79-1.87-35.62-1.94-53.46-.03-9.33,.08-18.66,.32-27.99-.48-16.18-.64-32.38-.28-48.58-3.99-2.06-9.02-2.03-12.72,.09C348.4,.22,216.99,2.24,85.8,9.05,62.89,7.37,40.02,4.89,17.18,1.33,7.09-.25,.8,9.44,2.16,16.87c2.49,26.02,1.13,52.23-.46,78.38,.28,4.37,.57,8.75,.85,13.12,.36,.64,.63,1.36,.73,2.19,2.24,17.33,.96,34.79-.25,52.15-1.21,17.33-1.74,34.64-1.51,52.01,.23,17.71,.92,35.43,2.23,53.09,1.36,18.36,3.04,36.7,3.1,55.13,0,2.57-1.56,4.1-3.46,4.64,1.33,19.7,2.53,39.41,2.57,59.17,0,1.92-.96,3.3-2.28,4.1-.24,8.55-1.1,17.07-1.81,25.6-.9,10.79-.85,21.48-.46,32.3,.39,11.1,.84,22.23,1.68,33.31,.37,4.92,.96,9.82,1.47,14.73,10.53-.61,21.05-1.25,31.61-1.29,1.6,0,2.8,.58,3.61,1.46,3.3-.11,6.58-.24,9.81-.28,20.82-.31,41.64-.63,62.46-.94,42.44-.64,84.88-1.28,127.32-1.92,76.68-1.15,153.36-2.31,230.04-3.46v.89c3.58-.76,7.42-.75,10.93-.78,3.83-.04,7.56-.36,11.26-.87,1.15-2.09,2.39-4.14,3.36-6.32,.16-.37,.39-.69,.65-.97-.69-5.26-1.69-10.53-1.78-15.67Zm-19.73-210.99c-2.5,39.1-4.98,77.93-4.93,117.14,.04,31.12,.12,62.24,.19,93.35-73.46,1.11-146.92,2.21-220.38,3.32-40.04,.6-80.08,1.21-120.12,1.81-20.02,.3-40.04,.6-60.06,.9l-28.83,.43c-5.57,.08-11.59,.66-17.33,.12,1.28-74.02-.29-148.05-.46-222.07-.09-39.1,.25-78.22,1.67-117.3,1.29-35.3,5.39-70.93,3.3-106.27,2.33,.31,4.65,.6,6.98,.89,1.32,4.43,5.01,7.92,11.1,7.56,14.35-.85,28.71-1.63,43.07-2.37,128.71,8.6,258.02-7.11,387.07-5.94,3.88,76.1,3.56,152.38-1.29,228.43Z" style="fill: url(#uuid-6ead7e94-c8fe-45d0-863c-bad54748866e); opacity: .25;"/>
        <line x1="488.62" y1="468.35" x2="7.63" y2="468.35" style="fill: none; stroke: #262631; stroke-miterlimit: 10; stroke-width: .75px;"/>
        <line x1="488.62" y1="1" x2="7.63" y2="1" style="fill: none; stroke: #262631; stroke-miterlimit: 10; stroke-width: .75px;"/>
        <line x1="488.62" y1="29.43" x2="7.63" y2="29.43" style="fill: none; stroke: #262631; stroke-miterlimit: 10; stroke-width: .75px;"/>
        <line x1="23.56" y1="1" x2="23.56" y2="482" style="fill: none; stroke: #262631; stroke-miterlimit: 10; stroke-width: .75px;"/>
        <line x1="1" y1="14.97" x2="1" y2="495.97" style="fill: none; stroke: #262631; stroke-miterlimit: 10; stroke-width: .75px;"/>
        <line x1="495.97" y1="482" x2="495.97" y2="1" style="fill: none; stroke: #262631; stroke-miterlimit: 10; stroke-width: .75px;"/>
        <line x1="474.3" y1="488.98" x2="474.3" y2="7.98" style="fill: none; stroke: #262631; stroke-miterlimit: 10; stroke-width: .75px;"/>
        <g>
          <text transform="translate(59.74 101.58)" style="fill: #c9514a; font-family: Renner* Bold; font-size: 21.81px;"><tspan x="5" y="0">COWORKING</tspan></text>
          <line x1="46.59" y1="67.87" x2="225.31" y2="67.87" style="fill: none; stroke: #262631; stroke-miterlimit: 10; stroke-width: .75px;"/>
          <line x1="43.55" y1="115.38" x2="213.2" y2="115.38" style="fill: none; stroke: #262631; stroke-miterlimit: 10; stroke-width: .75px;"/>
          <line x1="218.81" y1="70.4" x2="218.81" y2="118.06" style="fill: none; stroke: #262631; stroke-miterlimit: 10; stroke-width: .75px;"/>
          <line x1="51.44" y1="60.6" x2="51.44" y2="108.01" style="fill: none; stroke: #262631; stroke-miterlimit: 10; stroke-width: .75px;"/>
          <g>
            <line x1="198.57" y1="37.49" x2="198.57" y2="37.49" style="fill: none; stroke: #262631; stroke-linecap: round; stroke-miterlimit: 10;"/>
            <line x1="198.57" y1="39.48" x2="198.57" y2="62.34" style="fill: none; stroke: #262631; stroke-dasharray: 0 0 0 1.99; stroke-linecap: round; stroke-miterlimit: 10;"/>
            <line x1="198.57" y1="63.33" x2="198.57" y2="63.33" style="fill: none; stroke: #262631; stroke-linecap: round; stroke-miterlimit: 10;"/>
          </g>
          <g>
            <line x1="67.89" y1="37.49" x2="67.89" y2="37.49" style="fill: none; stroke: #262631; stroke-linecap: round; stroke-miterlimit: 10;"/>
            <line x1="67.89" y1="39.56" x2="67.89" y2="57.19" style="fill: none; stroke: #262631; stroke-dasharray: 0 0 0 2.07; stroke-linecap: round; stroke-miterlimit: 10;"/>
            <line x1="67.89" y1="58.23" x2="67.89" y2="58.23" style="fill: none; stroke: #262631; stroke-linecap: round; stroke-miterlimit: 10;"/>
          </g>
        </g>
        <line x1="57.88" y1="352.71" x2="375.87" y2="352.71" style="fill: none; stroke: #262631; stroke-miterlimit: 10; stroke-width: .75px;"/>
        <line x1="61.11" y1="360.36" x2="379.09" y2="360.36" style="fill: none; stroke: #262631; stroke-miterlimit: 10; stroke-width: .75px;"/>
        <line x1="59.06" y1="355.13" x2="59.06" y2="466.2" style="fill: none; stroke: #262631; stroke-miterlimit: 10; stroke-width: .75px;"/>
        <line x1="195.41" y1="355.13" x2="195.41" y2="467" style="fill: none; stroke: #262631; stroke-miterlimit: 10; stroke-width: .75px;"/>
        <line x1="70.24" y1="362.51" x2="70.24" y2="466.2" style="fill: none; stroke: #262631; stroke-miterlimit: 10; stroke-width: .75px;"/>
        <line x1="181.98" y1="362.51" x2="181.98" y2="466.2" style="fill: none; stroke: #262631; stroke-miterlimit: 10; stroke-width: .75px;"/>
        <line x1="203.74" y1="362.51" x2="203.74" y2="466.2" style="fill: none; stroke: #262631; stroke-miterlimit: 10; stroke-width: .75px;"/>
        <line x1="80.98" y1="362.51" x2="80.98" y2="466.2" style="fill: none; stroke: #262631; stroke-miterlimit: 10; stroke-width: .75px;"/>
        <line x1="382.1" y1="352.71" x2="382.1" y2="464.05" style="fill: none; stroke: #262631; stroke-miterlimit: 10; stroke-width: .75px;"/>
        <line x1="371.89" y1="360.36" x2="371.89" y2="471.3" style="fill: none; stroke: #262631; stroke-miterlimit: 10; stroke-width: .75px;"/>
        <line x1="362.22" y1="362.51" x2="362.22" y2="466.2" style="fill: none; stroke: #262631; stroke-miterlimit: 10; stroke-width: .75px;"/>
        <g>
          <line x1="177.34" y1="289.05" x2="166.75" y2="343.36" style="fill: none; stroke: #262631; stroke-miterlimit: 10; stroke-width: .75px;"/>
          <line x1="186.02" y1="290.74" x2="175.44" y2="345.05" style="fill: none; stroke: #262631; stroke-miterlimit: 10; stroke-width: .75px;"/>
          <line x1="177.34" y1="289.05" x2="259.81" y2="289.05" style="fill: none; stroke: #262631; stroke-miterlimit: 10; stroke-width: .75px;"/>
          <line x1="262.24" y1="288.04" x2="252.3" y2="344.05" style="fill: none; stroke: #262631; stroke-miterlimit: 10; stroke-width: .75px;"/>
          <line x1="175.14" y1="345.25" x2="213.39" y2="345.25" style="fill: none; stroke: #262631; stroke-miterlimit: 10; stroke-width: .75px;"/>
          <line x1="223.09" y1="345.25" x2="249.21" y2="345.25" style="fill: none; stroke: #262631; stroke-miterlimit: 10; stroke-width: .75px;"/>
          <line x1="223.09" y1="312.82" x2="223.09" y2="352.71" style="fill: none; stroke: #262631; stroke-miterlimit: 10; stroke-width: .75px;"/>
          <line x1="214.83" y1="313.83" x2="214.83" y2="352.71" style="fill: none; stroke: #262631; stroke-miterlimit: 10; stroke-width: .75px;"/>
          <line x1="211.4" y1="311.41" x2="226.65" y2="311.41" style="fill: none; stroke: #262631; stroke-miterlimit: 10; stroke-width: .75px;"/>
          <line x1="166.75" y1="343.36" x2="175.14" y2="345.25" style="fill: none; stroke: #262631; stroke-miterlimit: 10; stroke-width: .75px;"/>
        </g>
        <g>
          <line x1="276.73" y1="289.05" x2="266.15" y2="343.36" style="fill: none; stroke: #262631; stroke-miterlimit: 10; stroke-width: .75px;"/>
          <line x1="285.42" y1="290.74" x2="274.83" y2="345.05" style="fill: none; stroke: #262631; stroke-miterlimit: 10; stroke-width: .75px;"/>
          <line x1="276.73" y1="289.05" x2="359.21" y2="289.05" style="fill: none; stroke: #262631; stroke-miterlimit: 10; stroke-width: .75px;"/>
          <line x1="361.63" y1="288.04" x2="351.69" y2="344.05" style="fill: none; stroke: #262631; stroke-miterlimit: 10; stroke-width: .75px;"/>
          <line x1="274.54" y1="345.25" x2="312.78" y2="345.25" style="fill: none; stroke: #262631; stroke-miterlimit: 10; stroke-width: .75px;"/>
          <line x1="322.48" y1="345.25" x2="348.61" y2="345.25" style="fill: none; stroke: #262631; stroke-miterlimit: 10; stroke-width: .75px;"/>
          <line x1="322.48" y1="312.82" x2="322.48" y2="352.71" style="fill: none; stroke: #262631; stroke-miterlimit: 10; stroke-width: .75px;"/>
          <line x1="314.22" y1="313.83" x2="314.22" y2="352.71" style="fill: none; stroke: #262631; stroke-miterlimit: 10; stroke-width: .75px;"/>
          <line x1="310.79" y1="311.41" x2="326.04" y2="311.41" style="fill: none; stroke: #262631; stroke-miterlimit: 10; stroke-width: .75px;"/>
          <line x1="266.15" y1="343.36" x2="274.54" y2="345.25" style="fill: none; stroke: #262631; stroke-miterlimit: 10; stroke-width: .75px;"/>
        </g>
        <line x1="495.97" y1="495.97" x2="21.59" y2="495.97" style="fill: none; stroke: #262631; stroke-miterlimit: 10; stroke-width: .75px;"/>
      </g>
    </g>
  </g>
</svg>
