<?xml version="1.0" encoding="UTF-8" standalone="no"?>
<svg
   xmlns:dc="http://purl.org/dc/elements/1.1/"
   xmlns:cc="http://creativecommons.org/ns#"
   xmlns:rdf="http://www.w3.org/1999/02/22-rdf-syntax-ns#"
   xmlns:svg="http://www.w3.org/2000/svg"
   xmlns="http://www.w3.org/2000/svg"
   xmlns:sodipodi="http://sodipodi.sourceforge.net/DTD/sodipodi-0.dtd"
   xmlns:inkscape="http://www.inkscape.org/namespaces/inkscape"
   inkscape:version="1.0 (4035a4fb49, 2020-05-01)"
   sodipodi:docname="acteurs.svg"
   id="svg2874"
   version="1.1"
   viewBox="0 0 21.121326 49.022633"
   height="49.022633mm"
   width="21.121326mm">
  <defs
     id="defs2868" />
  <sodipodi:namedview
     inkscape:window-maximized="1"
     inkscape:window-y="0"
     inkscape:window-x="0"
     inkscape:window-height="1012"
     inkscape:window-width="1920"
     showgrid="false"
     inkscape:document-rotation="0"
     inkscape:current-layer="g161"
     inkscape:document-units="mm"
     inkscape:cy="-386.82195"
     inkscape:cx="-290.66829"
     inkscape:zoom="0.35"
     inkscape:pageshadow="2"
     inkscape:pageopacity="0.0"
     borderopacity="1.0"
     bordercolor="#666666"
     pagecolor="#ffffff"
     id="base" />
  <metadata
     id="metadata2871">
    <rdf:RDF>
      <cc:Work
         rdf:about="">
        <dc:format>image/svg+xml</dc:format>
        <dc:type
           rdf:resource="http://purl.org/dc/dcmitype/StillImage" />
      </cc:Work>
    </rdf:RDF>
  </metadata>
  <g
     transform="translate(-91.369659,-125.25665)"
     id="layer1"
     inkscape:groupmode="layer"
     inkscape:label="Calque 1">
    <g
       transform="matrix(0.26458333,0,0,0.26458333,78.18808,110.01163)"
       id="g161">
      <path
         fill-rule="evenodd"
         clip-rule="evenodd"
         d="m 127.668,165.505 c -0.61,0.828 -1.113,1.51 -1.616,2.192 -0.542,-0.591 -1.085,-1.183 -1.443,-1.573 -0.351,0.833 -0.798,1.896 -1.246,2.958 -0.63,-0.295 -1.26,-0.59 -2.016,-0.945 -1.776,1.138 -2.043,1.052 -2.428,-1.268 -0.283,-1.706 -0.412,-3.437 -0.623,-5.154 -0.062,-0.513 -0.167,-1.02 -0.684,-1.639 -0.327,0.635 -0.554,1.356 -1.008,1.881 -0.53,0.613 -1.258,1.055 -1.9,1.571 -0.364,-0.696 -1.049,-1.404 -1.025,-2.086 0.055,-1.516 0.184,-3.146 0.791,-4.501 1.156,-2.583 1.061,-4.842 -0.015,-7.507 -1.439,-3.565 -2.091,-7.439 -3.287,-11.114 -1.252,-3.849 -2.815,-7.596 -4.11,-11.432 -0.656,-1.943 -1.022,-3.985 -1.946,-5.919 0.144,1.345 0.279,2.691 0.433,4.035 0.603,5.277 1.288,10.545 1.788,15.832 0.321,3.39 0.44,6.805 0.527,10.212 0.179,7.009 0.352,14.021 0.364,21.031 0.004,2.432 -0.768,4.875 -0.676,7.294 0.29,7.653 0.812,15.298 1.26,22.944 0.25,4.245 0.557,8.486 0.787,12.732 0.097,1.798 0.85,3.035 2.539,3.757 4.173,1.786 8.309,3.659 12.49,5.425 2.198,0.929 2.932,2.134 1.916,3.948 -0.366,0.653 -1.284,1.068 -2.034,1.408 -0.438,0.199 -1.041,0.036 -1.543,0.036 -0.58,2.506 -0.58,2.506 -3.318,2.314 -1.236,2.888 -0.321,2.392 -4.117,2.114 0,0.704 0.081,1.406 -0.03,2.075 -0.067,0.402 -0.367,0.977 -0.685,1.075 -0.416,0.127 -1.033,-0.016 -1.417,-0.268 -0.482,-0.317 -0.916,-0.806 -1.198,-1.317 -1.819,-3.293 -4.92,-4.756 -8.269,-5.86 -2.892,-0.954 -5.787,-1.906 -8.708,-2.765 -1.789,-0.525 -2.323,-1.524 -2.325,-3.421 -0.006,-3.872 -0.385,-7.743 -0.642,-11.613 -0.237,-3.581 -0.573,-7.156 -0.761,-10.739 -0.326,-6.216 -0.546,-12.438 -0.902,-18.652 -0.026,-0.451 -0.723,-0.978 -1.227,-1.249 -0.373,-0.202 -0.948,0.014 -1.417,-0.061 -1.462,-0.231 -1.826,0.464 -1.881,1.813 -0.125,3.043 -0.214,6.109 -0.666,9.114 -0.859,5.714 -1.871,11.41 -2.99,17.079 -1.071,5.421 -1.472,10.881 -1.467,16.387 0.003,3.615 -1.054,5.068 -4.347,6.383 -4.826,1.927 -8.75,5.028 -11.667,9.358 -0.066,0.099 -0.091,0.243 -0.179,0.309 -0.593,0.444 -1.26,1.277 -1.782,1.197 -0.562,-0.086 -0.993,-1.033 -1.566,-1.703 -0.445,0.251 -1.174,0.663 -2.336,1.319 0.114,-1.302 0.187,-2.138 0.275,-3.153 -0.9,0.47 -1.636,1.043 -2.44,1.164 -0.251,0.038 -0.685,-1.15 -0.976,-1.672 -0.892,0.04 -1.896,0.085 -2.899,0.131 0.106,-0.607 0.213,-1.214 0.346,-1.969 -0.341,0.049 -0.739,0.219 -1.066,0.129 -0.792,-0.216 -1.907,-0.337 -2.246,-0.892 -0.596,-0.973 -0.016,-1.961 1.021,-2.51 1.738,-0.92 3.533,-1.74 5.229,-2.732 2.515,-1.472 5.065,-2.922 7.388,-4.664 0.851,-0.638 1.452,-2.047 1.562,-3.164 0.965,-9.818 1.89,-19.643 2.625,-29.48 0.454,-6.075 0.606,-12.175 0.806,-18.266 0.27,-8.232 0.053,-16.508 0.882,-24.68 0.313,-3.083 -0.636,-4.559 -2.532,-6.223 -3.1,-2.721 -6.259,-5.385 -9.209,-8.261 -1.283,-1.251 -2.241,-2.903 -3.076,-4.513 -0.308,-0.593 -0.033,-1.687 0.313,-2.386 1.961,-3.957 4.009,-7.871 6.056,-11.784 2.289,-4.378 4.513,-8.794 6.947,-13.091 1.663,-2.935 3.55,-5.755 5.495,-8.515 1.99,-2.825 5.379,-2.996 8.309,-4.012 1.18,-0.409 2.465,-0.655 3.499,-1.301 0.687,-0.429 1.215,-1.379 1.447,-2.2 0.268,-0.949 -0.41,-1.492 -1.333,-1.955 -4.272,-2.143 -7.817,-8.784 -7.558,-13.542 0.17,-3.115 0.944,-5.947 2.548,-8.642 1.778,-2.987 4.558,-4.495 7.658,-5.421 2.316,-0.693 4.896,-1.587 7.148,-1.192 5.01,0.879 8.676,3.97 10.824,8.713 1.807,3.991 2.042,8.105 -0.158,11.845 -1.434,2.437 -3.625,4.537 -5.818,6.384 -1.695,1.427 -3.918,2.227 -6.056,3.387 0.113,1.44 0.438,2.538 2.537,2.53 2.365,-0.009 4.761,0.307 7.089,0.757 2.903,0.562 4.707,2.751 5.648,5.287 1.633,4.396 2.95,8.921 4.198,13.447 1.818,6.594 3.431,13.244 5.183,19.857 1.389,5.246 2.628,10.548 4.353,15.685 1.557,4.641 3.754,9.062 5.515,13.64 0.591,1.536 0.844,3.241 1.002,4.894 0.183,1.922 -0.113,2.049 -1.934,1.363 z M 77.373,152.17 c -2.265,0.976 -3.069,-1.512 -4.883,-1.625 -0.086,0.868 -0.214,1.691 -0.242,2.517 -0.195,5.859 -0.407,11.719 -0.503,17.581 -0.013,0.75 0.397,1.809 0.973,2.217 3.277,2.324 6.866,4.034 10.822,4.918 1.236,0.276 2.334,0.403 2.976,-1.082 0,0.482 0,0.965 0,1.572 2.482,0 4.915,0.32 7.224,-0.078 3.148,-0.543 6.257,-1.477 9.274,-2.549 1.881,-0.668 3.069,-2.17 2.671,-4.451 -0.123,-0.701 -0.041,-1.436 -0.08,-2.154 -0.442,-8.129 -0.872,-16.26 -1.343,-24.387 -0.192,-3.324 -0.478,-6.642 -0.727,-10.043 -2.58,0.358 -4.937,0.674 -7.289,1.018 -1.089,0.159 -0.896,0.733 -0.589,1.55 0.724,1.925 1.369,3.887 1.886,5.876 0.111,0.428 -0.454,1.032 -0.707,1.556 -0.435,-0.403 -1.06,-0.728 -1.261,-1.225 -0.352,-0.868 -0.335,-1.883 -0.669,-2.762 -0.577,-1.515 -1.24,-3.027 -3.441,-3.918 0.55,2.174 1.074,3.916 1.389,5.695 0.09,0.512 -0.422,1.132 -0.658,1.702 -0.469,-0.249 -1.133,-0.383 -1.362,-0.772 -0.378,-0.642 -0.549,-1.437 -0.675,-2.189 -0.338,-2.022 -0.605,-4.057 -0.896,-6.055 -4.155,0.527 -8.162,-0.592 -12.205,-1.322 -1.684,-0.303 -3.041,-0.008 -3.948,1.564 1.768,1.055 3.512,1.951 5.074,3.094 0.688,0.504 1.18,1.468 1.398,2.315 0.07,0.274 -1.017,0.845 -1.663,1.35 0.166,0.148 0.542,0.375 0.767,0.705 0.598,0.877 1.13,1.798 1.689,2.702 -0.95,0.164 -1.9,0.327 -2.804,0.482 1.641,4.072 1.64,4.088 -0.388,4.392 0.06,0.582 0.122,1.162 0.19,1.806 z m -26.388,82.878 c 0.083,0.255 0.167,0.51 0.251,0.765 1.445,-0.316 2.891,-0.631 4.982,-1.088 -0.583,1.265 -0.958,2.077 -1.408,3.052 0.907,-0.412 1.774,-0.806 2.862,-1.3 0,0.863 0,1.517 0,2.303 0.952,-0.534 1.796,-1.008 2.762,-1.55 0.116,0.7 0.201,1.209 0.317,1.906 2.073,-0.962 2.194,0.513 2.303,1.865 0.245,0 0.38,0.038 0.475,-0.009 0.15,-0.074 0.316,-0.177 0.401,-0.313 3.189,-5.139 7.983,-8.236 13.376,-10.6 2.287,-1.002 2.728,-1.934 2.394,-4.501 -0.045,-0.351 0.006,-0.713 0,-1.07 -0.148,-9.479 2.897,-18.51 3.906,-27.826 0.507,-4.685 0.978,-9.374 1.501,-14.057 0.136,-1.216 -0.35,-1.65 -1.531,-1.863 -4.887,-0.878 -9.229,-3.075 -13.62,-5.864 0,1.324 0.08,2.552 -0.014,3.765 -0.401,5.167 -0.872,10.329 -1.28,15.495 -0.267,3.378 -0.47,6.761 -0.705,10.141 -0.459,6.606 -0.884,13.215 -1.424,19.815 -0.069,0.849 -0.532,1.895 -1.167,2.422 -1.649,1.369 -3.421,2.63 -5.281,3.696 -2.975,1.706 -6.061,3.221 -9.1,4.816 z m 54.879,-57.832 c -0.526,0.224 -0.933,0.338 -1.277,0.553 -3.328,2.075 -7.124,2.822 -10.874,3.343 -1.924,0.267 -2.092,0.919 -1.972,2.435 0.38,4.761 0.688,9.527 1.046,14.29 0.416,5.531 0.9,11.057 1.264,16.591 0.159,2.426 0.215,4.873 0.09,7.298 -0.122,2.364 0.104,2.974 2.347,3.701 2.73,0.885 5.56,1.514 8.202,2.604 3.727,1.537 7.484,3.179 9.211,7.243 0.467,-1.139 0.609,-2.491 1.266,-2.824 0.775,-0.393 1.998,0.095 2.829,0.181 0.267,-0.855 0.285,-1.902 0.769,-2.207 0.576,-0.362 1.553,-0.085 2.521,-0.085 -0.524,-1.827 0.47,-2.309 2.128,-2.154 0.41,0.039 0.854,-0.008 1.246,-0.131 0.354,-0.111 0.899,-0.347 0.932,-0.586 0.056,-0.415 -0.098,-0.993 -0.385,-1.284 -0.354,-0.357 -0.928,-0.503 -1.417,-0.717 -4.161,-1.815 -8.321,-3.631 -12.487,-5.433 -1.551,-0.671 -2.509,-1.773 -2.671,-3.494 -0.358,-3.805 -0.821,-7.604 -1.052,-11.416 -0.549,-9.071 -0.988,-18.149 -1.478,-27.225 -0.009,-0.164 -0.109,-0.321 -0.238,-0.683 z M 87.977,133.012 c 0.068,-1.069 0.067,-1.726 0.158,-2.37 0.36,-2.583 1.873,-3.253 3.988,-1.782 0.196,0.136 0.346,0.382 0.557,0.443 0.776,0.228 1.588,0.617 2.35,0.547 1.664,-0.155 2.884,0.385 3.391,1.938 0.307,0.939 0.711,1.117 1.551,0.887 0.75,-0.205 1.545,-0.28 2.259,-0.565 0.348,-0.139 0.794,-0.633 0.787,-0.958 -0.042,-1.851 -0.182,-3.701 -0.336,-5.547 -0.357,-4.285 -0.715,-8.569 -1.128,-12.849 -0.183,-1.894 -0.5,-3.775 -0.76,-5.662 -0.203,-1.476 -1.029,-1.934 -2.492,-1.738 -5.438,0.729 -10.89,1.353 -16.329,2.077 -3.688,0.49 -3.675,0.535 -3.972,4.394 -0.183,2.377 -0.404,4.751 -0.583,7.127 -0.268,3.573 -0.548,7.146 -0.73,10.724 -0.026,0.517 0.384,1.462 0.726,1.529 3.438,0.672 6.903,1.202 10.563,1.805 z m 14.027,-40.043 c 0,3.356 -0.002,6.454 0.006,9.552 0,0.174 0.048,0.365 0.127,0.52 1.573,3.065 2.029,6.343 2.544,9.74 0.77,5.076 2.439,10.031 3.916,14.98 1.055,3.536 2.51,6.951 3.623,10.472 1.239,3.92 1.964,8.036 3.532,11.81 1.222,2.94 0.883,5.307 -0.44,7.958 -0.528,1.059 -0.377,2.457 -0.535,3.7 0.133,0.009 0.267,0.018 0.4,0.027 0.979,-1.207 1.958,-2.412 2.937,-3.618 0.204,0.098 0.408,0.195 0.612,0.292 0.387,2.964 0.774,5.928 1.162,8.892 0.267,-0.026 0.533,-0.052 0.799,-0.078 -0.123,-2.785 -0.245,-5.569 -0.368,-8.353 0.203,-0.025 0.405,-0.051 0.608,-0.076 0.222,0.521 0.566,1.026 0.646,1.569 0.286,1.951 0.447,3.92 0.733,5.871 0.085,0.579 0.428,1.119 0.652,1.677 0.174,-0.061 0.348,-0.122 0.522,-0.183 -0.439,-3.163 -0.878,-6.325 -1.317,-9.488 0.293,-0.065 0.586,-0.13 0.878,-0.195 0.906,2.713 1.812,5.426 2.718,8.139 0.147,-0.036 0.294,-0.071 0.442,-0.107 -0.102,-2.735 -2.047,-5.212 -1.739,-8.004 0.166,-0.042 0.332,-0.085 0.497,-0.127 0.98,1.938 1.961,3.877 2.941,5.816 0.153,-0.06 0.307,-0.12 0.459,-0.179 -0.073,-0.568 -0.036,-1.179 -0.237,-1.697 -0.948,-2.438 -2.04,-4.821 -2.933,-7.277 -1.702,-4.678 -3.434,-9.352 -4.907,-14.104 -1.162,-3.751 -1.908,-7.628 -2.919,-11.428 -1.665,-6.255 -3.339,-12.509 -5.114,-18.733 -1.191,-4.175 -2.427,-8.348 -3.903,-12.428 -0.973,-2.698 -2.88,-4.63 -6.342,-4.94 z M 79.23,73.962 c 0.09,0.761 -0.106,1.968 0.386,2.732 1.576,2.444 3.258,4.856 5.179,7.033 2.246,2.545 5.239,2.837 8.524,2.405 3.647,-0.479 6.167,-2.547 8.656,-4.947 4.449,-4.288 4.763,-11.073 1.585,-15.886 -3.958,-5.996 -11.471,-7.385 -17.793,-3.599 -4.639,2.779 -6.07,7.065 -6.537,12.262 z m -5.548,58.318 c -1.036,0 -1.802,0.049 -2.559,-0.014 -0.772,-0.064 -1.542,-0.208 -2.301,-0.37 -2.771,-0.591 -3.576,-1.906 -2.926,-4.621 0.848,-3.544 2.932,-6.458 4.664,-9.575 1.702,-3.064 4.623,-5.496 4.95,-9.321 0.035,-0.408 0.837,-0.724 1.228,-1.135 0.849,-0.895 2.203,-1.726 2.39,-2.756 0.581,-3.215 0.713,-6.511 1.024,-9.774 0.098,-1.029 -0.496,-1.204 -1.199,-0.797 -1.737,1.004 -3.633,1.881 -5.067,3.231 -3.182,2.996 -4.866,7.01 -6.779,10.864 -3.314,6.677 -6.766,13.286 -10.133,19.937 -1.656,3.272 -1.481,4.428 1.101,6.92 1.582,1.527 3.281,2.932 4.901,4.421 3.156,2.903 6.279,5.841 9.445,8.733 1.056,0.963 2.202,1.828 3.307,2.738 0.144,-0.146 0.287,-0.292 0.43,-0.439 -0.895,-1.054 -1.833,-2.075 -2.674,-3.17 -0.863,-1.125 -1.632,-2.322 -2.442,-3.487 0.234,-0.197 0.468,-0.395 0.702,-0.592 0.917,0.961 1.718,2.09 2.786,2.835 1.009,0.704 1.356,2.425 2.873,2.376 0.131,-0.153 0.263,-0.307 0.394,-0.46 -1.919,-2.21 -3.839,-4.421 -5.758,-6.631 0.109,-0.172 0.219,-0.344 0.329,-0.517 2.146,1.425 4.293,2.851 6.44,4.276 0.136,-0.198 0.272,-0.396 0.408,-0.594 -2.287,-1.972 -4.573,-3.944 -6.86,-5.916 0.138,-0.172 0.276,-0.343 0.414,-0.515 1.779,0.807 3.557,1.613 5.336,2.419 0.114,-0.259 0.228,-0.517 0.341,-0.776 -1.327,-0.565 -2.749,-0.979 -3.951,-1.741 -1.106,-0.701 -2.061,-1.711 -2.854,-2.758 -0.114,-0.151 1.056,-1.267 1.619,-1.946 0.104,-0.125 0.154,-0.301 0.421,-0.845 z m 7.71,-27.966 c 0.507,0.079 0.806,0.192 1.087,0.158 5.339,-0.65 10.68,-1.291 16.006,-2.033 0.411,-0.057 0.991,-0.827 1.029,-1.303 0.183,-2.266 0.13,-4.55 0.31,-6.816 0.126,-1.586 -0.399,-2.109 -2.004,-2.017 -2.401,0.137 -4.534,-0.297 -4.896,-3.35 -0.044,-0.377 -0.867,-0.879 -1.375,-0.941 -1.159,-0.141 -2.347,-0.044 -3.666,-0.044 0.194,2.666 -0.964,4.174 -3.811,4.475 -0.933,0.099 -1.794,0.907 -1.865,2.26 -0.167,3.156 -0.523,6.303 -0.815,9.611 z m -6.319,9.094 c -0.183,-0.057 -0.366,-0.114 -0.549,-0.171 -1.419,2.188 -2.987,4.297 -4.216,6.587 -1.335,2.489 -2.396,5.129 -3.495,7.738 -0.562,1.335 0.05,2.258 1.414,2.513 1.619,0.303 3.268,0.443 5.061,0.674 0.614,-5.967 1.2,-11.654 1.785,-17.341 z m 21.273,19.137 c -0.079,-0.169 -0.157,-0.338 -0.236,-0.507 -1.654,-0.338 -2.235,0.905 -2.94,1.965 0.086,0.133 0.172,0.266 0.258,0.399 0.973,-0.618 1.946,-1.237 2.918,-1.857 z m -6.069,-2.092 c -0.163,0.166 -0.327,0.333 -0.49,0.499 0.37,0.589 0.74,1.179 1.109,1.769 0.441,-0.35 0.883,-0.699 1.589,-1.258 -1.002,-0.46 -1.605,-0.735 -2.208,-1.01 z"
         id="path125" />
      <path
         fill-rule="evenodd"
         clip-rule="evenodd"
         fill="#ffffff"
         d="m 77.373,152.17 c -0.068,-0.645 -0.129,-1.224 -0.19,-1.806 2.027,-0.303 2.029,-0.319 0.388,-4.392 0.903,-0.155 1.854,-0.318 2.804,-0.482 -0.559,-0.903 -1.091,-1.825 -1.689,-2.702 -0.225,-0.33 -0.601,-0.557 -0.767,-0.705 0.646,-0.504 1.733,-1.076 1.663,-1.35 -0.218,-0.848 -0.709,-1.811 -1.398,-2.315 -1.562,-1.143 -3.306,-2.039 -5.074,-3.094 0.907,-1.572 2.265,-1.867 3.948,-1.564 4.043,0.729 8.05,1.849 12.205,1.322 0.291,1.998 0.558,4.032 0.896,6.055 0.125,0.752 0.297,1.547 0.675,2.189 0.229,0.39 0.894,0.524 1.362,0.772 0.236,-0.57 0.748,-1.19 0.658,-1.702 -0.314,-1.779 -0.838,-3.521 -1.389,-5.695 2.202,0.891 2.864,2.404 3.441,3.918 0.334,0.878 0.317,1.894 0.669,2.762 0.202,0.497 0.827,0.822 1.261,1.225 0.253,-0.523 0.818,-1.127 0.707,-1.556 -0.517,-1.989 -1.162,-3.951 -1.886,-5.876 -0.307,-0.816 -0.5,-1.391 0.589,-1.55 2.353,-0.343 4.709,-0.659 7.289,-1.018 0.249,3.401 0.534,6.719 0.727,10.043 0.472,8.127 0.901,16.258 1.343,24.387 0.039,0.718 -0.043,1.453 0.08,2.154 0.398,2.28 -0.79,3.782 -2.671,4.451 -3.017,1.072 -6.126,2.005 -9.274,2.549 -2.309,0.398 -4.742,0.078 -7.224,0.078 0,-0.607 0,-1.09 0,-1.572 -0.642,1.485 -1.74,1.358 -2.976,1.082 -3.956,-0.884 -7.544,-2.594 -10.822,-4.918 -0.575,-0.408 -0.985,-1.467 -0.973,-2.217 0.096,-5.862 0.308,-11.722 0.503,-17.581 0.028,-0.826 0.156,-1.648 0.242,-2.517 1.813,0.113 2.618,2.601 4.883,1.625 z"
         id="path127" />
      <path
         fill-rule="evenodd"
         clip-rule="evenodd"
         fill="#ffffff"
         d="m 50.985,235.048 c 3.039,-1.595 6.125,-3.109 9.101,-4.816 1.859,-1.066 3.631,-2.327 5.281,-3.696 0.635,-0.527 1.098,-1.574 1.167,-2.422 0.54,-6.6 0.965,-13.208 1.424,-19.815 0.235,-3.38 0.438,-6.763 0.705,-10.141 0.409,-5.166 0.879,-10.328 1.28,-15.495 0.094,-1.213 0.014,-2.441 0.014,-3.765 4.39,2.789 8.733,4.985 13.62,5.864 1.181,0.212 1.667,0.647 1.531,1.863 -0.523,4.683 -0.994,9.372 -1.501,14.057 -1.009,9.316 -4.054,18.347 -3.906,27.826 0.006,0.357 -0.046,0.719 0,1.07 0.333,2.567 -0.107,3.499 -2.394,4.501 -5.394,2.364 -10.188,5.461 -13.376,10.6 -0.085,0.137 -0.251,0.24 -0.401,0.313 -0.095,0.046 -0.23,0.009 -0.475,0.009 -0.109,-1.352 -0.23,-2.827 -2.303,-1.865 -0.116,-0.697 -0.201,-1.207 -0.317,-1.906 -0.965,0.542 -1.81,1.016 -2.762,1.55 0,-0.786 0,-1.44 0,-2.303 -1.087,0.494 -1.955,0.888 -2.862,1.3 0.45,-0.976 0.825,-1.788 1.408,-3.052 -2.091,0.457 -3.537,0.772 -4.982,1.088 -0.085,-0.255 -0.169,-0.51 -0.252,-0.765 z"
         id="path129" />
      <path
         fill-rule="evenodd"
         clip-rule="evenodd"
         fill="#ffffff"
         d="m 105.864,177.216 c 0.129,0.362 0.229,0.52 0.238,0.682 0.49,9.075 0.929,18.153 1.478,27.225 0.231,3.812 0.693,7.611 1.052,11.416 0.162,1.721 1.12,2.823 2.671,3.494 4.166,1.802 8.327,3.618 12.487,5.433 0.489,0.213 1.063,0.359 1.417,0.717 0.288,0.291 0.441,0.869 0.385,1.284 -0.032,0.239 -0.578,0.475 -0.932,0.586 -0.392,0.123 -0.836,0.17 -1.246,0.131 -1.658,-0.155 -2.652,0.327 -2.128,2.154 -0.968,0 -1.945,-0.277 -2.521,0.085 -0.484,0.304 -0.502,1.352 -0.769,2.207 -0.832,-0.086 -2.054,-0.574 -2.829,-0.181 -0.657,0.333 -0.799,1.685 -1.266,2.824 -1.727,-4.063 -5.485,-5.706 -9.211,-7.243 -2.642,-1.09 -5.472,-1.719 -8.202,-2.604 -2.243,-0.727 -2.469,-1.337 -2.347,-3.701 0.125,-2.425 0.069,-4.872 -0.09,-7.298 -0.363,-5.534 -0.848,-11.06 -1.264,-16.591 -0.358,-4.763 -0.667,-9.529 -1.046,-14.29 -0.12,-1.515 0.048,-2.167 1.972,-2.435 3.75,-0.521 7.545,-1.268 10.874,-3.343 0.344,-0.214 0.751,-0.328 1.277,-0.552 z"
         id="path131" />
      <path
         fill-rule="evenodd"
         clip-rule="evenodd"
         fill="#ffffff"
         d="m 87.977,133.012 c -3.66,-0.603 -7.125,-1.132 -10.563,-1.804 -0.341,-0.066 -0.752,-1.012 -0.726,-1.529 0.182,-3.578 0.462,-7.151 0.73,-10.724 0.178,-2.376 0.399,-4.75 0.583,-7.127 0.297,-3.858 0.284,-3.903 3.972,-4.394 5.439,-0.724 10.891,-1.348 16.329,-2.077 1.462,-0.196 2.289,0.262 2.492,1.738 0.26,1.887 0.577,3.768 0.76,5.662 0.413,4.279 0.771,8.564 1.128,12.849 0.154,1.846 0.294,3.696 0.336,5.547 0.007,0.324 -0.439,0.819 -0.787,0.958 -0.714,0.286 -1.509,0.36 -2.259,0.565 -0.84,0.23 -1.244,0.052 -1.551,-0.887 -0.507,-1.554 -1.727,-2.093 -3.391,-1.938 -0.762,0.07 -1.574,-0.319 -2.35,-0.547 -0.21,-0.062 -0.361,-0.308 -0.557,-0.443 -2.115,-1.471 -3.627,-0.801 -3.988,1.782 -0.091,0.643 -0.09,1.3 -0.158,2.369 z M 87.734,118.5 c -0.231,-1.31 -1.13,-1.159 -2.016,-0.857 -1.583,0.54 -3.095,0.707 -4.65,-0.179 -0.356,-0.203 -1.016,0.128 -1.537,0.214 0.216,0.537 0.277,1.279 0.673,1.578 2.051,1.546 5.105,1.195 7.53,-0.756 z m 10.26,-1.768 c -0.566,-0.223 -1.039,-0.52 -1.541,-0.584 -1.112,-0.143 -2.241,-0.243 -3.359,-0.209 -0.51,0.015 -1.262,0.266 -1.441,0.634 -0.174,0.358 0.091,1.16 0.432,1.497 1.656,1.638 3.822,1.182 5.909,-1.338 z"
         id="path133" />
      <path
         fill-rule="evenodd"
         clip-rule="evenodd"
         fill="#ffffff"
         d="m 102.004,92.969 c 3.462,0.31 5.369,2.242 6.344,4.939 1.476,4.08 2.712,8.253 3.903,12.428 1.775,6.225 3.45,12.479 5.114,18.733 1.011,3.8 1.758,7.677 2.919,11.428 1.473,4.752 3.205,9.426 4.907,14.104 0.893,2.456 1.985,4.839 2.933,7.277 0.201,0.518 0.164,1.129 0.237,1.697 -0.153,0.06 -0.306,0.119 -0.459,0.179 -0.98,-1.938 -1.961,-3.877 -2.941,-5.816 -0.166,0.042 -0.331,0.085 -0.497,0.127 -0.308,2.792 1.638,5.269 1.739,8.004 -0.147,0.036 -0.294,0.071 -0.442,0.107 -0.906,-2.713 -1.812,-5.426 -2.718,-8.139 -0.292,0.065 -0.585,0.13 -0.878,0.195 0.439,3.163 0.878,6.325 1.317,9.488 -0.174,0.061 -0.348,0.122 -0.522,0.183 -0.225,-0.558 -0.567,-1.098 -0.652,-1.677 -0.287,-1.951 -0.448,-3.92 -0.733,-5.871 -0.08,-0.543 -0.423,-1.047 -0.646,-1.569 -0.203,0.025 -0.405,0.051 -0.608,0.076 0.123,2.784 0.245,5.568 0.368,8.353 -0.267,0.026 -0.533,0.052 -0.799,0.078 -0.387,-2.964 -0.774,-5.927 -1.162,-8.892 -0.204,-0.097 -0.408,-0.195 -0.612,-0.292 -0.979,1.206 -1.958,2.412 -2.937,3.618 -0.133,-0.009 -0.267,-0.018 -0.4,-0.027 0.158,-1.243 0.006,-2.641 0.535,-3.7 1.323,-2.651 1.662,-5.018 0.44,-7.958 -1.567,-3.774 -2.293,-7.889 -3.532,-11.81 -1.113,-3.521 -2.568,-6.936 -3.623,-10.472 -1.476,-4.95 -3.146,-9.904 -3.916,-14.98 -0.515,-3.397 -0.971,-6.675 -2.544,-9.74 -0.08,-0.155 -0.127,-0.346 -0.127,-0.52 -0.01,-3.097 -0.008,-6.195 -0.008,-9.551 z"
         id="path135" />
      <path
         fill-rule="evenodd"
         clip-rule="evenodd"
         fill="#ffffff"
         d="m 79.23,73.962 c 0.467,-5.197 1.898,-9.483 6.539,-12.262 6.322,-3.786 13.834,-2.397 17.793,3.599 3.177,4.812 2.863,11.598 -1.585,15.886 -2.49,2.4 -5.009,4.468 -8.656,4.947 -3.286,0.432 -6.279,0.14 -8.524,-2.405 C 82.876,81.55 81.194,79.138 79.618,76.694 79.124,75.93 79.32,74.723 79.23,73.962 Z m 6.942,3.044 c -0.497,1.451 -0.412,1.571 1.903,3.191 3.374,2.362 7.423,2.261 10.463,-0.261 1.929,-1.6 2.616,-3.59 1.668,-5.777 -0.777,3.439 -2.52,5.621 -5.873,6.075 -3.212,0.436 -5.799,-0.867 -8.161,-3.228 z m 6.59,-2.215 c 2.72,0.748 4.498,-0.299 5.178,-2.536 0.359,-1.183 -0.652,-3.178 -2.047,-3.265 -1.583,-0.098 -3.219,0.367 -4.799,0.727 -0.304,0.069 -0.46,0.788 -0.684,1.207 0.432,0.042 0.879,0.175 1.294,0.109 0.864,-0.137 1.734,-0.598 2.56,-0.515 0.76,0.077 1.465,0.693 2.195,1.071 -0.487,0.69 -0.89,1.469 -1.488,2.043 -0.463,0.445 -1.172,0.635 -2.209,1.159 z m -4.1,-7.291 c -0.575,-0.453 -1.138,-1.007 -1.22,-0.943 -0.501,0.39 -0.894,0.921 -1.322,1.405 0.337,0.272 0.793,0.839 0.987,0.76 0.521,-0.213 0.931,-0.701 1.555,-1.222 z m 9.929,-3.688 c -0.524,0.826 -0.94,1.238 -1.023,1.71 -0.047,0.265 0.458,0.627 0.713,0.946 0.384,-0.344 0.946,-0.626 1.092,-1.052 0.103,-0.299 -0.361,-0.792 -0.782,-1.604 z"
         id="path137" />
      <path
         fill-rule="evenodd"
         clip-rule="evenodd"
         fill="#ffffff"
         d="m 73.682,132.28 c -0.268,0.544 -0.317,0.72 -0.423,0.848 -0.563,0.679 -1.733,1.795 -1.619,1.946 0.793,1.047 1.748,2.057 2.854,2.758 1.202,0.761 2.625,1.175 3.951,1.741 -0.114,0.259 -0.228,0.517 -0.341,0.776 -1.779,-0.807 -3.557,-1.613 -5.336,-2.419 -0.138,0.172 -0.276,0.343 -0.414,0.515 2.287,1.972 4.573,3.944 6.86,5.916 -0.136,0.198 -0.272,0.396 -0.408,0.594 -2.147,-1.425 -4.293,-2.851 -6.44,-4.276 -0.109,0.172 -0.219,0.344 -0.329,0.517 1.919,2.21 3.838,4.42 5.758,6.631 -0.131,0.153 -0.262,0.307 -0.394,0.46 -1.517,0.049 -1.864,-1.673 -2.873,-2.376 -1.068,-0.745 -1.869,-1.874 -2.786,-2.835 -0.234,0.197 -0.468,0.395 -0.702,0.592 0.81,1.165 1.579,2.362 2.442,3.487 0.841,1.095 1.779,2.116 2.674,3.17 -0.143,0.146 -0.286,0.293 -0.43,0.439 -1.104,-0.91 -2.251,-1.774 -3.307,-2.738 -3.167,-2.892 -6.289,-5.83 -9.445,-8.733 -1.62,-1.49 -3.319,-2.894 -4.901,-4.421 -2.582,-2.493 -2.757,-3.648 -1.101,-6.92 3.367,-6.651 6.819,-13.26 10.133,-19.937 1.913,-3.854 3.597,-7.868 6.779,-10.864 1.435,-1.35 3.331,-2.227 5.067,-3.231 0.703,-0.406 1.297,-0.231 1.199,0.797 -0.312,3.264 -0.443,6.56 -1.024,9.774 -0.187,1.031 -1.541,1.862 -2.39,2.756 -0.391,0.412 -1.193,0.727 -1.228,1.135 -0.328,3.825 -3.248,6.256 -4.95,9.321 -1.731,3.117 -3.816,6.031 -4.664,9.575 -0.65,2.715 0.155,4.03 2.926,4.621 0.759,0.162 1.529,0.306 2.301,0.37 0.759,0.061 1.525,0.011 2.561,0.011 z"
         id="path139" />
      <path
         fill-rule="evenodd"
         clip-rule="evenodd"
         fill="#ffffff"
         d="m 81.392,104.314 c 0.292,-3.308 0.648,-6.455 0.814,-9.611 0.071,-1.353 0.932,-2.161 1.865,-2.26 2.847,-0.301 4.005,-1.81 3.811,-4.475 1.319,0 2.507,-0.097 3.666,0.044 0.508,0.062 1.331,0.563 1.375,0.941 0.362,3.053 2.495,3.487 4.896,3.35 1.605,-0.092 2.13,0.431 2.004,2.017 -0.18,2.266 -0.127,4.551 -0.31,6.816 -0.038,0.476 -0.619,1.246 -1.029,1.303 -5.327,0.742 -10.667,1.383 -16.006,2.033 -0.28,0.034 -0.58,-0.079 -1.086,-0.158 z"
         id="path141" />
      <path
         fill-rule="evenodd"
         clip-rule="evenodd"
         fill="#ffffff"
         d="m 75.073,113.408 c -0.585,5.688 -1.171,11.375 -1.786,17.341 -1.793,-0.231 -3.442,-0.372 -5.061,-0.674 -1.364,-0.254 -1.977,-1.178 -1.414,-2.513 1.1,-2.609 2.16,-5.25 3.495,-7.738 1.229,-2.291 2.797,-4.399 4.216,-6.587 0.185,0.056 0.367,0.114 0.55,0.171 z"
         id="path143" />
      <path
         fill-rule="evenodd"
         clip-rule="evenodd"
         fill="#ffffff"
         d="m 96.346,132.545 c -0.972,0.62 -1.945,1.239 -2.917,1.858 -0.086,-0.133 -0.172,-0.267 -0.258,-0.399 0.705,-1.061 1.286,-2.304 2.94,-1.965 0.078,0.168 0.157,0.337 0.235,0.506 z"
         id="path145" />
      <path
         fill-rule="evenodd"
         clip-rule="evenodd"
         fill="#ffffff"
         d="m 90.277,130.453 c 0.603,0.275 1.206,0.551 2.208,1.01 -0.706,0.559 -1.147,0.908 -1.589,1.258 -0.37,-0.589 -0.74,-1.179 -1.109,-1.769 0.164,-0.167 0.327,-0.333 0.49,-0.499 z"
         id="path147" />
      <path
         fill-rule="evenodd"
         clip-rule="evenodd"
         d="m 87.734,118.5 c -2.425,1.951 -5.479,2.302 -7.529,0.756 -0.396,-0.299 -0.457,-1.041 -0.673,-1.578 0.521,-0.086 1.181,-0.417 1.537,-0.214 1.555,0.886 3.067,0.719 4.65,0.179 0.885,-0.303 1.783,-0.453 2.015,0.857 z"
         id="path149" />
      <path
         fill-rule="evenodd"
         clip-rule="evenodd"
         d="m 97.994,116.732 c -2.086,2.52 -4.252,2.975 -5.91,1.337 -0.34,-0.336 -0.605,-1.139 -0.432,-1.497 0.179,-0.369 0.931,-0.619 1.441,-0.634 1.118,-0.034 2.247,0.066 3.359,0.209 0.503,0.066 0.975,0.362 1.542,0.585 z"
         id="path151" />
      <path
         fill-rule="evenodd"
         clip-rule="evenodd"
         d="m 86.172,77.006 c 2.361,2.361 4.948,3.664 8.161,3.229 3.353,-0.454 5.096,-2.636 5.873,-6.075 0.948,2.188 0.261,4.178 -1.668,5.777 -3.04,2.522 -7.089,2.623 -10.463,0.261 -2.314,-1.621 -2.399,-1.741 -1.903,-3.192 z"
         id="path153" />
      <path
         fill-rule="evenodd"
         clip-rule="evenodd"
         d="m 92.762,74.791 c 1.037,-0.524 1.746,-0.714 2.209,-1.159 0.599,-0.574 1.001,-1.353 1.488,-2.043 -0.729,-0.378 -1.435,-0.994 -2.195,-1.071 -0.826,-0.083 -1.696,0.378 -2.56,0.515 -0.416,0.066 -0.862,-0.067 -1.294,-0.109 0.224,-0.419 0.38,-1.137 0.684,-1.207 1.581,-0.36 3.216,-0.825 4.799,-0.727 1.395,0.086 2.406,2.082 2.047,3.265 -0.68,2.237 -2.458,3.284 -5.178,2.536 z"
         id="path155" />
      <path
         fill-rule="evenodd"
         clip-rule="evenodd"
         d="m 88.662,67.5 c -0.625,0.521 -1.034,1.01 -1.555,1.223 -0.194,0.079 -0.65,-0.488 -0.987,-0.76 0.429,-0.484 0.821,-1.015 1.322,-1.405 0.082,-0.065 0.645,0.489 1.22,0.942 z"
         id="path157" />
      <path
         fill-rule="evenodd"
         clip-rule="evenodd"
         d="m 98.591,63.812 c 0.421,0.812 0.885,1.305 0.782,1.604 -0.146,0.426 -0.708,0.708 -1.092,1.052 -0.256,-0.318 -0.76,-0.681 -0.713,-0.946 0.082,-0.472 0.499,-0.884 1.023,-1.71 z"
         id="path159" />
    </g>
  </g>
</svg>
