<?xml version="1.0" encoding="UTF-8" standalone="no"?>
<!-- Created with Inkscape (http://www.inkscape.org/) -->

<svg
   xmlns:dc="http://purl.org/dc/elements/1.1/"
   xmlns:cc="http://creativecommons.org/ns#"
   xmlns:rdf="http://www.w3.org/1999/02/22-rdf-syntax-ns#"
   xmlns:svg="http://www.w3.org/2000/svg"
   xmlns="http://www.w3.org/2000/svg"
   xmlns:sodipodi="http://sodipodi.sourceforge.net/DTD/sodipodi-0.dtd"
   xmlns:inkscape="http://www.inkscape.org/namespaces/inkscape"
   width="34mm"
   height="31mm"
   viewBox="0 0 34 31"
   version="1.1"
   id="svg2565"
   inkscape:version="0.92.3 (2405546, 2018-03-11)"
   sodipodi:docname="arrow.svg">
  <defs
     id="defs2559" />
  <sodipodi:namedview
     id="base"
     pagecolor="#ffffff"
     bordercolor="#666666"
     borderopacity="1.0"
     inkscape:pageopacity="0.0"
     inkscape:pageshadow="2"
     inkscape:zoom="0.22190352"
     inkscape:cx="719.59671"
     inkscape:cy="392.01857"
     inkscape:document-units="mm"
     inkscape:current-layer="layer2"
     showgrid="false"
     inkscape:window-width="1920"
     inkscape:window-height="1051"
     inkscape:window-x="1920"
     inkscape:window-y="0"
     inkscape:window-maximized="1" />
  <metadata
     id="metadata2562">
    <rdf:RDF>
      <cc:Work
         rdf:about="">
        <dc:format>image/svg+xml</dc:format>
        <dc:type
           rdf:resource="http://purl.org/dc/dcmitype/StillImage" />
        <dc:title></dc:title>
      </cc:Work>
    </rdf:RDF>
  </metadata>
  <g
     inkscape:label="Calque 1"
     inkscape:groupmode="layer"
     id="layer1"
     transform="translate(0,-266)" />
  <g
     inkscape:groupmode="layer"
     id="layer2"
     inkscape:label="Calque 2"
     transform="translate(0,-266)">
    <path
       style="clip-rule:evenodd;fill-rule:evenodd;stroke-width:0.26458332"
       d="m 23.792476,283.82286 c -1.52572,-0.95095 -3.01087,-2.08862 -4.83489,-2.38165 -2.03437,-0.47788 -4.3006,-0.26687 -6.02681,0.98851 -1.68842,1.02535 -3.2259499,2.29297 -4.4817799,3.82222 -0.63791,0.4585 -0.97603,1.72663 -1.8725,1.52612 -0.80144,-0.39894 -1.60586,-0.82086 -2.3344,-1.33809 0.0296,-0.70303 0.69929,-1.24381 1.09158,-1.80862 0.90953,-1.0808 1.80873,-2.17691 2.92737,-3.05325 1.18896,-0.96406 2.2581399,-2.13806 3.7010799,-2.72788 1.92107,-1.07793 4.15859,-1.53266 6.34811,-1.29269 2.06109,0.14894 3.96822,1.14919 5.54485,2.43656 0.62693,0.59069 1.22336,1.21549 1.86561,1.78866 0.69051,-0.002 1.56044,-1.64562 2.22723,-0.67617 0.18729,1.72383 0.36341,3.4539 0.52875,5.18156 0.24388,1.1408 -1.08841,0.81493 -1.69527,0.50484 -1.21791,-0.37676 -2.49085,-0.74351 -3.77717,-0.60251 -1.09392,-0.18243 0.041,-1.26445 0.33828,-1.73153 0.15011,-0.2119 0.29953,-0.42498 0.44996,-0.63608 z m 3.35865,-1.93664 c -0.6831,0.41561 -1.52121,1.5191 -2.20448,0.41344 -1.25938,-1.27353 -2.57694,-2.56276 -4.27036,-3.23963 -2.97537,-1.23077 -6.53516,-0.81839 -9.20475,0.96419 -1.7384099,1.1703 -3.3017399,2.60375 -4.7112999,4.14982 -0.47991,0.59375 -0.95983,1.18752 -1.43975,1.78127 0.51781,0.30406 1.03563,0.60812 1.55344,0.91217 1.32391,-1.30781 2.42385,-2.86379 3.9961699,-3.90503 1.39818,-0.9943 2.79261,-2.17575 4.55956,-2.40099 2.47824,-0.41671 5.07066,0.12703 7.19231,1.46749 0.66756,0.54472 1.83378,0.85692 1.97884,1.79001 -0.10135,0.619 -1.39374,1.65373 -0.0964,1.52001 1.02143,0.11345 2.00156,0.48943 3.01038,0.63405 0.11051,-0.89217 -0.15504,-1.88265 -0.20039,-2.81107 -0.0499,-0.42577 -0.10963,-0.8508 -0.16332,-1.27573 z"
       id="path1658-3-7"
       inkscape:connector-curvature="0" />
  </g>
</svg>
