<?xml version="1.0" encoding="UTF-8" standalone="no"?>
<svg
   xmlns:dc="http://purl.org/dc/elements/1.1/"
   xmlns:cc="http://creativecommons.org/ns#"
   xmlns:rdf="http://www.w3.org/1999/02/22-rdf-syntax-ns#"
   xmlns:svg="http://www.w3.org/2000/svg"
   xmlns="http://www.w3.org/2000/svg"
   xmlns:sodipodi="http://sodipodi.sourceforge.net/DTD/sodipodi-0.dtd"
   xmlns:inkscape="http://www.inkscape.org/namespaces/inkscape"
   sodipodi:docname="difficulties.svg"
   inkscape:version="1.0 (4035a4fb49, 2020-05-01)"
   id="svg3021"
   version="1.1"
   viewBox="0 0 56.593307 44.63612"
   height="44.63612mm"
   width="56.593307mm">
  <defs
     id="defs3015" />
  <sodipodi:namedview
     inkscape:window-maximized="1"
     inkscape:window-y="0"
     inkscape:window-x="0"
     inkscape:window-height="1012"
     inkscape:window-width="1920"
     showgrid="false"
     inkscape:document-rotation="0"
     inkscape:current-layer="g8087"
     inkscape:document-units="mm"
     inkscape:cy="72.882811"
     inkscape:cx="34.775756"
     inkscape:zoom="0.35"
     inkscape:pageshadow="2"
     inkscape:pageopacity="0.0"
     borderopacity="1.0"
     bordercolor="#666666"
     pagecolor="#ffffff"
     id="base" />
  <metadata
     id="metadata3018">
    <rdf:RDF>
      <cc:Work
         rdf:about="">
        <dc:format>image/svg+xml</dc:format>
        <dc:type
           rdf:resource="http://purl.org/dc/dcmitype/StillImage" />
        <dc:title></dc:title>
      </cc:Work>
    </rdf:RDF>
  </metadata>
  <g
     transform="translate(-96.632248,-128.88309)"
     id="layer1"
     inkscape:groupmode="layer"
     inkscape:label="Calque 1">
    <g
       id="g8089"
       transform="matrix(0.26458333,0,0,0.26458333,-273.64631,-0.39649519)">
      <g
         id="g8087">
        <path
           fill-rule="evenodd"
           clip-rule="evenodd"
           d="m 1489.471,629.604 c -0.687,4.764 -3.426,7.684 -6.918,10.257 -4.895,3.607 -7.057,8.903 -8.233,14.686 -0.121,0.596 -0.387,1.208 -0.741,1.699 -1.032,1.426 -1.663,1.415 -2.736,0.062 -0.318,-0.402 -0.629,-0.811 -0.814,-1.051 -0.691,0.647 -1.282,1.2 -1.873,1.753 -0.489,-0.966 -0.979,-1.932 -1.56,-3.079 -0.247,0.295 -0.519,0.827 -0.954,1.087 -0.542,0.323 -1.219,0.421 -1.838,0.616 -0.21,-0.693 -0.654,-1.416 -0.572,-2.073 0.102,-0.814 0.639,-1.574 0.999,-2.384 -0.265,-0.067 -0.38,-0.135 -0.477,-0.115 -1.083,0.214 -2.254,0.797 -3.217,0.553 -0.802,-0.203 0.018,-3.536 1.029,-4.679 2.524,-2.85 5.093,-5.667 7.463,-8.641 2.928,-3.673 4.35,-7.904 3.979,-12.656 -0.01,-0.119 -0.047,-0.254 -0.01,-0.357 1.219,-3.19 -1.055,-4.194 -3.259,-5.296 -1.057,-0.528 -1.542,-0.432 -1.547,0.877 -0.01,1.733 -0.088,3.469 -0.19,5.2 -0.24,4.046 -2.068,7.119 -5.812,8.803 -4.505,2.027 -6.587,5.94 -8.361,10.178 -0.594,1.417 -1.309,2.799 -2.122,4.101 -0.288,0.461 -1.331,1.016 -1.512,0.873 -0.535,-0.424 -0.907,-1.139 -1.159,-1.809 -0.171,-0.455 -0.033,-1.026 -0.033,-1.442 -1.163,0 -2.56,0.385 -3.015,-0.104 -0.494,-0.531 -0.112,-1.878 -0.112,-2.687 -0.886,0.275 -1.807,0.562 -2.728,0.847 0,-1.029 0,-2.06 0,-3.467 0.032,0.009 -0.458,-0.096 -0.92,-0.276 -1.869,-0.729 -2.141,-2.213 -0.58,-3.491 0.82,-0.673 1.718,-1.329 2.689,-1.728 3.771,-1.545 6.759,-4.162 9.581,-6.966 0.624,-0.62 0.994,-1.821 0.952,-2.729 -0.177,-3.817 -0.837,-7.631 -0.761,-11.435 0.053,-2.651 -1.44,-3.368 -3.308,-4.12 -0.665,-0.268 -1.335,-0.522 -1.985,-0.822 -1.41,-0.65 -1.401,-1.388 -0.391,-2.473 0.555,-0.595 0.832,-1.639 0.866,-2.494 0.27,-6.72 0.442,-13.442 0.661,-20.164 0.147,-4.537 0.317,-9.073 0.486,-13.609 0.026,-0.709 0.098,-1.417 0.148,-2.126 0.164,-0.098 0.328,-0.194 0.492,-0.292 0.302,0.42 0.876,0.847 0.863,1.257 -0.152,5.018 -0.415,10.031 -0.599,15.048 -0.103,2.815 -0.101,5.634 -0.166,8.451 -0.09,3.825 -0.16,7.651 -0.316,11.474 -0.078,1.918 0.896,2.835 2.854,3.33 0,-1.198 0.066,-2.297 -0.012,-3.384 -0.293,-4.052 -0.704,-8.096 -0.938,-12.15 -0.293,-5.077 0.727,-10.014 2.325,-14.771 0.554,-1.647 2.166,-2.942 3.307,-4.388 0.248,-0.314 0.55,-0.585 0.95,-1.004 -2.894,-1.574 -5.65,-3.073 -8.407,-4.573 0.016,-0.199 0.03,-0.398 0.046,-0.599 3.646,-1.634 7.292,-3.269 11.119,-4.984 -5.244,-3.981 -10.404,-7.898 -15.799,-11.994 -0.286,2.281 -1.325,3.417 -3.608,3.262 -0.31,-1.469 -0.623,-2.961 -0.988,-4.694 -1.365,-0.084 -2.898,-0.146 -4.428,-0.278 -2.771,-0.238 -3.363,-1.202 -2.334,-3.716 -2.502,-1.295 -2.813,-2.437 -1.084,-4.016 -0.336,-0.675 -0.676,-1.354 -1.04,-2.085 0.51,-0.45 0.948,-0.837 1.384,-1.221 -0.848,-1.737 0.684,-3.514 3.214,-3.666 1.125,-0.067 2.257,-0.011 3.472,-0.011 0.112,-1.634 0.31,-3.27 0.301,-4.905 0,-0.774 -0.412,-1.403 -1.49,-1.333 -6.027,0.396 -12.06,0.7 -18.087,1.091 -4.954,0.321 -9.903,0.717 -14.854,1.087 -0.715,0.053 -1.428,0.132 -2.139,0.223 -2.254,0.291 -3.207,-0.882 -3.123,-3.155 0.094,-2.562 -0.217,-5.139 -0.359,-7.709 -0.314,-5.68 -0.61,-11.361 -0.965,-17.039 -0.143,-2.278 -0.34,-4.56 -0.665,-6.818 -0.178,-1.237 0.354,-1.339 1.351,-1.447 4.742,-0.514 9.473,-1.146 14.214,-1.677 9.376,-1.049 18.681,-2.624 28.202,-2.402 6.014,0.141 12.055,-0.685 18.073,-1.2 1.254,-0.107 1.534,0.219 1.341,1.313 -1.884,10.7 -2.36,21.49 -2.013,32.326 0.024,0.781 0.475,1.578 0.841,2.312 0.443,0.889 -0.112,1.728 -1.419,1.835 -4.177,0.345 -8.357,0.644 -12.537,0.945 -0.587,0.042 -1.181,0.006 -1.979,0.006 0,2.952 -0.052,5.745 0.057,8.532 0.017,0.415 0.727,1.03 1.219,1.161 2.526,0.67 4.222,2.282 4.374,4.795 0.314,5.184 3.919,7.377 7.937,9.021 3.56,1.456 7.338,2.378 11.02,3.536 1.236,0.388 1.91,-0.113 2.248,-1.322 1.069,-3.833 2.08,-7.686 3.298,-11.472 1.072,-3.334 2.304,-6.625 3.631,-9.866 1.223,-2.988 2.667,-5.887 4.157,-9.135 0.228,0.351 0.834,0.858 0.775,1.272 -0.167,1.162 -0.385,2.418 -0.975,3.401 -4.346,7.244 -6.452,15.265 -8.328,23.38 -0.253,1.096 -0.585,2.19 -1.031,3.221 -1.25,2.886 -1.379,2.791 -4.432,2.247 -5.359,-0.955 -10.281,-2.952 -14.872,-5.805 -1.309,-0.812 -2.782,-1.644 -3.613,-2.854 -0.72,-1.05 -0.496,-2.699 -0.945,-3.994 -0.53,-1.53 -0.986,-3.421 -2.132,-4.299 -0.923,-0.708 -2.822,-0.144 -4.3,0.074 1.495,0.718 3.814,-0.27 4.29,2.044 0.241,1.171 0.651,2.767 -1.332,3.928 -0.122,-1.361 -0.222,-2.468 -0.32,-3.575 -0.134,0.004 -0.267,0.008 -0.399,0.011 0,2.013 -0.025,4.025 0.029,6.036 0.01,0.276 0.367,0.603 0.64,0.805 5.212,3.877 10.387,7.809 15.679,11.573 2.413,1.717 5.018,3.185 7.618,4.613 3.697,2.031 7.893,-0.222 10.016,-2.407 3.956,-4.073 6.363,-8.845 7.044,-14.503 0.088,-0.731 0.632,-1.408 0.966,-2.111 0.19,0.038 0.382,0.075 0.573,0.112 0.052,0.623 0.255,1.278 0.131,1.864 -1.131,5.33 -2.88,10.388 -6.485,14.637 -2.151,2.536 -4.816,4.167 -8.034,4.929 -0.173,0.041 -0.381,0.098 -0.533,0.04 -3.488,-1.306 -5.759,1.276 -8.263,2.757 -3.337,1.974 -6.34,4.524 -8.396,7.836 -1.064,1.716 -1.54,3.879 -1.937,5.906 -0.464,2.38 -0.834,4.843 -0.743,7.251 0.174,4.581 0.772,9.145 1.063,13.724 0.217,3.402 0.107,6.828 0.359,10.227 0.26,3.507 0.727,7.002 1.211,10.487 0.241,1.74 -0.149,3.192 -1.35,4.436 -2.846,2.947 -6.075,5.369 -9.757,7.19 -1.1,0.545 -2.129,1.234 -3.19,1.857 0.03,0.153 0.061,0.307 0.091,0.459 0.412,0.097 0.821,0.235 1.239,0.279 0.71,0.074 1.427,0.088 2.141,0.127 -0.093,0.745 -0.186,1.492 -0.279,2.241 0.632,0.071 1.647,-0.1 2.079,0.323 0.348,0.342 -0.01,1.402 -0.052,2.127 1.931,-0.191 1.931,-0.191 3.101,3.596 0.721,-1.669 1.563,-3.297 2.138,-5.015 1.388,-4.154 3.851,-7.434 7.819,-9.293 3.65,-1.71 5.499,-4.55 5.5,-8.376 0,-7.839 -0.23,-15.68 -0.453,-23.517 -0.152,-5.332 -0.106,-10.603 1.962,-15.661 1.345,-3.288 4.127,-5.025 6.999,-6.568 2.979,-1.602 6.176,-2.795 9.2,-4.317 6.161,-3.103 9.61,-8.363 11.362,-14.848 1.402,-5.193 2.724,-10.396 2.978,-15.828 0.221,-4.701 0.736,-9.389 1.133,-14.082 0.03,-0.353 0.065,-0.756 0.254,-1.028 0.193,-0.28 0.578,-0.429 0.879,-0.634 0.196,0.314 0.586,0.646 0.562,0.942 -0.546,6.541 -0.775,13.139 -1.83,19.601 -0.903,5.538 -2.326,11.09 -4.354,16.312 -1.289,3.319 -3.943,6.178 -6.268,9.012 -3.93,4.79 -8.146,9.344 -12.112,14.104 -1.845,2.215 -3.865,4.399 -4.418,7.414 -0.05,0.273 -0.01,0.563 0.297,0.987 0.752,-1.234 1.433,-2.522 2.291,-3.679 0.388,-0.521 1.357,-1.23 1.671,-1.073 1.024,0.513 0.471,1.395 0,2.072 -1.321,1.902 -1.663,4.056 -1.646,6.327 0.618,-1.424 1.245,-2.845 1.854,-4.272 1.11,-2.608 1.106,-2.61 4.186,-2.105 -0.153,2.103 -0.309,4.221 -0.463,6.34 0.178,0.03 0.354,0.061 0.531,0.091 0.197,-1.089 0.438,-2.171 0.582,-3.267 0.311,-2.375 0.404,-4.79 0.891,-7.126 0.752,-3.612 3.321,-6.085 5.852,-8.547 1.824,-1.774 3.607,-3.592 5.381,-5.417 1.975,-2.035 3.814,-4.213 5.896,-6.129 3.656,-3.366 5.697,-7.622 7.228,-12.214 1.448,-4.344 2.302,-8.811 2.219,-13.381 -0.071,-3.874 -0.515,-7.739 -0.723,-11.613 -0.033,-0.626 0.305,-1.272 0.472,-1.91 0.232,0.018 0.464,0.034 0.695,0.052 0.298,1.837 0.798,3.669 0.852,5.514 0.126,4.369 0.178,8.75 -0.021,13.114 -0.095,2.092 -0.73,4.18 -1.289,6.224 -0.647,2.366 -1.225,4.808 -2.298,6.987 -1.205,2.448 -2.646,4.902 -4.484,6.892 -4.785,5.178 -9.875,10.07 -14.779,15.14 -2.25,2.325 -3.622,5.047 -3.806,8.422 -0.138,2.532 -0.793,5.039 -1.27,7.548 -0.3,1.575 -1.045,2.584 -2.829,1.756 -0.667,1.097 -1.287,2.117 -2.104,3.462 -0.707,-1.151 -1.188,-1.935 -1.869,-3.042 -0.177,1.712 -0.421,3.131 -0.45,4.555 -0.07,3.358 -0.066,6.72 -0.021,10.079 0.01,0.663 0.339,1.322 0.513,1.984 0.072,0.272 0.209,0.564 0.169,0.825 -0.375,2.437 -1.188,4.885 -1.094,7.298 0.18,4.558 -2.023,8.036 -4.501,11.382 -2.15,2.904 -4.687,5.523 -7.021,8.294 -0.474,0.562 -0.809,1.241 -1.207,1.867 0.101,0.137 0.201,0.273 0.302,0.41 0.632,-0.186 1.256,-0.407 1.897,-0.545 0.475,-0.103 1.292,-0.278 1.397,-0.098 0.252,0.437 0.308,1.091 0.2,1.606 -0.128,0.61 -0.51,1.167 -0.915,2.034 1.444,-0.089 3.233,-2.352 3.821,0.601 1.921,-1.343 2.363,-1.027 3.15,2.667 0.631,-0.981 1.25,-1.532 1.352,-2.167 1.131,-7.021 4.092,-12.927 10.117,-17.019 3.431,-2.33 4.408,-5.851 4.814,-9.682 0.712,-6.717 1.326,-13.447 2.21,-20.142 1.105,-8.378 5.586,-15.054 11.264,-21.01 1.368,-1.436 2.86,-3.098 4.626,-3.729 2.514,-0.898 5.365,-1.426 8.018,-1.253 6.891,0.448 14.124,-4.887 16.27,-10.298 0.314,-0.791 0.316,-1.739 0.319,-2.614 0.013,-3.403 -0.151,-6.811 -0.03,-10.208 0.186,-5.19 -0.314,-10.301 -1.728,-15.274 -1.71,-6.018 -3.897,-11.833 -7.537,-17.04 -3.501,-5.01 -8.274,-7.767 -14.2,-8.665 -3.009,-0.456 -6.059,-0.649 -9.063,-1.127 -1.197,-0.19 -2.324,-0.828 -3.696,-1.343 -1.57,5.599 -5.991,6.946 -11.091,6.949 -3.905,0.003 -7.384,-0.997 -9.32,-4.951 -0.731,-1.494 -2.372,-2.697 -2.674,-4.216 -0.741,-3.729 -0.944,-7.565 -1.139,-11.401 2.239,1.518 0.263,4.162 1.811,6.026 0.643,-0.546 1.247,-1.234 2.004,-1.632 0.407,-0.214 1.076,0.073 1.627,0.135 -0.272,0.396 -0.458,0.932 -0.832,1.16 -1.734,1.058 -2.825,4.746 -1.677,6.411 0.312,0.454 1.361,0.817 1.862,0.637 0.972,-0.351 1.782,-1.135 2.686,-1.7 0.475,-0.297 1.002,-0.511 1.812,-0.914 -0.272,2.973 -2.645,3.487 -4.067,4.804 2.288,3.978 6.754,4.234 11.535,3.526 4.22,-0.625 5.701,-3.696 6.633,-7.211 0.562,-2.116 0.761,-4.325 1.204,-6.477 0.886,-4.289 -1.35,-9.946 -4.963,-12.417 -3.866,-2.645 -11.197,-1.788 -14.272,1.701 -0.28,0.318 -0.59,1.101 -0.473,1.205 1.511,1.352 0.031,1.696 -0.699,2.34 -0.484,0.427 -0.964,0.903 -1.296,1.449 -0.83,1.36 -1.514,1.02 -2.067,0.219 0.615,-1.562 0.865,-3.127 1.732,-4.19 1.362,-1.669 2.932,-3.371 4.78,-4.403 5.102,-2.85 11.597,-1.964 15.296,2.232 3.18,3.604 4.16,8.097 3.471,12.882 -0.23,1.595 -0.604,3.169 -0.847,4.764 -0.178,1.172 1.204,2.472 3.03,2.698 2.491,0.31 5.015,0.365 7.5,0.71 7.538,1.043 13.649,4.38 17.529,11.189 0.109,0.192 0.35,0.311 0.665,0.579 0.996,-3.751 4.696,-4.702 7.022,-7.065 3.125,-3.175 7.085,-4.56 11.133,-3.986 1.478,-3.197 2.349,-6.45 4.242,-8.919 5.381,-7.012 12.113,-9.209 20.718,-6.149 5.192,1.846 7.216,5.991 7.679,11.044 0.439,4.793 -0.731,9.291 -3.855,13.021 -2.426,2.895 -5.785,4.431 -9.525,4.589 -5.39,0.229 -10.379,-1.045 -14.654,-4.64 -0.706,-0.594 -2.07,-0.494 -3.129,-0.487 -0.164,10e-4 -0.645,1.402 -0.404,1.849 0.349,0.649 1.152,1.174 1.878,1.478 1.523,0.641 3.185,0.972 4.675,1.671 2.19,1.026 3.444,2.972 4.635,5.028 1.586,2.738 2.327,5.939 4.991,8.108 3.107,2.531 6.299,2.607 10.031,1.772 3.215,-0.719 5.269,-2.908 7.696,-4.659 3.617,-2.607 6.314,-2.809 9.955,-0.411 1.276,0.841 2.615,1.746 3.535,2.926 0.974,1.249 1.363,2.769 2.939,3.785 0.806,0.519 0.587,2.759 0.676,4.229 0.152,2.531 0.01,2.498 -2.471,2.851 -2.707,0.385 -5.378,1.023 -8.246,1.587 3.427,1.328 5.917,3.542 8.018,6.416 1.67,2.285 2.198,4.838 2.692,7.438 1.16,6.112 1.019,12.241 0.089,18.382 -0.603,3.989 2.485,7.023 6.776,6.338 2.411,-0.385 4.941,-0.124 7.407,0.022 0.457,0.027 0.864,0.899 1.295,1.382 -0.116,0.15 -0.232,0.302 -0.348,0.453 1.15,0.431 2.302,0.862 3.453,1.293 0.064,0.18 0.129,0.359 0.193,0.539 -1.062,0.717 -2.123,1.433 -3.266,2.203 0.21,0.125 0.5,0.258 0.744,0.449 0.573,0.45 1.125,0.928 1.686,1.395 -0.756,0.694 -1.407,1.661 -2.299,2.001 -0.803,0.307 -1.887,0.021 -2.812,-0.169 -3.57,-0.732 -6.85,-0.072 -9.989,1.737 -1.386,0.8 -2.893,1.417 -4.401,1.957 -0.536,0.192 -1.311,0.068 -1.856,-0.178 -2.21,-0.997 -2.688,-1.037 -3.897,0.839 -2.353,3.652 -5.657,5.954 -9.634,7.513 -3.576,1.401 -7.159,2.664 -11.075,2.483 -5.761,-0.266 -9.536,-3.382 -11.818,-8.461 -0.885,-1.971 -1.478,-4.074 -2.113,-5.861 0,4.979 0,10.202 0,15.129 1.312,0.551 2.393,0.767 3.145,1.382 0.915,0.749 0.972,1.689 -0.301,2.417 -5.52,3.158 -11.071,6.266 -16.499,9.577 -3.851,2.349 -7.524,4.988 -11.271,7.509 -1.582,1.064 -3.156,2.139 -4.707,3.246 -0.473,0.337 -1.029,0.721 -1.249,1.216 -0.808,1.822 -2.036,1.695 -3.503,0.955 -6.277,-3.169 -12.563,-6.324 -18.841,-9.494 -3.24,-1.638 -6.463,-3.295 -9.95,-5.073 z m -28.586,-138.948 c -20.438,0.124 -40.539,1.544 -60.459,5.097 0.186,0.414 0.387,0.669 0.408,0.938 0.508,6.176 1.019,12.352 1.479,18.531 0.305,4.09 0.512,8.187 0.839,12.274 0.024,0.303 0.677,0.795 1.035,0.793 2.562,-0.013 5.132,-0.041 7.686,-0.232 5.417,-0.407 10.822,-0.99 16.241,-1.358 3.934,-0.268 7.89,-0.214 11.824,-0.469 5.605,-0.363 11.199,-0.914 16.803,-1.313 2.441,-0.175 2.438,-0.096 2.451,-2.493 0.04,-7.998 -0.474,-16.012 0.739,-23.977 0.382,-2.519 0.624,-5.059 0.954,-7.791 z m 89.893,88.941 c -0.641,0.302 -0.978,0.427 -1.281,0.607 -5.374,3.192 -10.751,6.381 -16.114,9.592 -4.337,2.595 -8.646,5.239 -12.995,7.812 -1.053,0.624 -1.47,1.397 -1.454,2.627 0.037,2.789 0.133,5.602 -0.146,8.368 -0.823,8.118 0.882,16.081 1.279,24.12 0.098,1.988 0.327,3.971 0.508,6.09 0.434,-0.197 0.717,-0.279 0.949,-0.438 6.083,-4.166 12.123,-8.396 18.257,-12.489 3.506,-2.34 7.169,-4.445 10.739,-6.69 0.346,-0.218 0.742,-0.668 0.765,-1.031 0.066,-1.117 -0.071,-2.245 -0.069,-3.368 0.013,-8.729 0.08,-17.459 0.039,-26.188 -0.016,-2.911 -0.3,-5.819 -0.477,-9.012 z m -32.103,60.877 c 0.128,-0.643 0.346,-1.178 0.318,-1.701 -0.139,-2.686 -0.293,-5.372 -0.531,-8.051 -0.385,-4.341 -1.049,-8.668 -1.214,-13.015 -0.224,-5.885 -0.042,-11.784 -0.165,-17.675 -0.015,-0.685 -0.713,-1.652 -1.354,-1.979 -5.156,-2.635 -10.375,-5.147 -15.548,-7.684 -2.625,2.481 -6.415,9.213 -7.289,12.755 -1.141,4.62 -2.271,9.233 -2.044,14.055 0.024,0.52 -0.226,1.047 -0.265,1.577 -0.16,2.139 -0.629,4.341 -0.262,6.39 0.15,0.843 2.124,1.364 3.276,2.019 0.253,0.144 0.546,0.216 0.808,0.348 4.992,2.495 10.021,4.919 14.957,7.519 3.097,1.63 6.054,3.525 9.313,5.442 z m 74.819,-60.386 c 0.132,-5.224 0.122,-10.485 -1.797,-15.397 -1.631,-4.172 -4.548,-7.292 -9.121,-8.573 -4.791,-1.343 -9.316,0.159 -13.947,0.936 -3.631,0.608 -6.404,2.756 -8.575,5.239 -3.539,4.047 -5.113,9.204 -5.802,14.513 -0.453,3.489 -0.465,7.034 -0.81,10.54 -0.647,6.571 -0.054,12.967 2.219,19.203 2.072,5.687 6.868,9.415 12.819,8.662 2.696,-0.342 5.447,-0.841 7.977,-1.792 6.062,-2.276 10.413,-6.555 13.155,-12.424 3.099,-6.629 3.731,-13.729 3.882,-20.907 z m -20.332,-64.695 c 1.098,-5.657 -1.126,-10.814 -5.537,-12.572 -2.771,-1.104 -5.85,-1.493 -8.823,-2.015 -1.084,-0.189 -2.382,-0.108 -3.38,0.32 -5.012,2.152 -8.432,5.829 -10.375,10.987 -1.665,4.419 -0.243,7.772 2.264,10.304 2.993,3.02 6.717,4.721 11.079,5.24 6.744,0.803 12.02,-1.828 14.458,-8.824 0.206,-0.59 0.138,-1.84 -0.117,-1.935 -1.857,-0.686 -1.405,-2.625 -2.224,-3.843 -0.141,-0.211 0.339,-0.838 0.532,-1.272 0.349,0.285 0.834,0.501 1.021,0.869 0.442,0.876 0.744,1.823 1.102,2.741 z m -22.194,62.158 c -6.194,-3.528 -11.749,-7.226 -18.326,-9.217 -0.484,1.738 -0.63,3.428 -1.386,4.772 -3.511,6.249 -8.846,9.639 -16.123,9.766 -1.253,0.021 -2.501,0.229 -3.754,0.29 -4.267,0.206 -7.484,2.253 -10.088,5.681 0.693,0.451 1.3,0.954 1.99,1.278 4.531,2.124 9.07,4.229 13.633,6.283 0.547,0.246 1.382,0.401 1.859,0.158 2.389,-1.214 4.738,-2.516 7.035,-3.896 4.123,-2.479 8.178,-5.072 12.299,-7.553 4.122,-2.48 8.292,-4.88 12.861,-7.562 z m 37.816,-34.865 c -2.705,-3.033 -4.232,-3.962 -6.949,-3.352 -1.825,0.411 -3.501,1.607 -5.165,2.587 -2.126,1.252 -4.04,2.952 -6.281,3.903 -4.503,1.911 -8.935,1.356 -12.354,-2.269 -1.777,-1.885 -2.9,-4.435 -4.118,-6.788 -2.131,-4.121 -4.838,-7.334 -10.11,-7.337 0.433,3.572 0.453,7.109 -1.587,10.426 1.913,0.605 3.666,0.997 5.278,1.707 2.809,1.238 3.224,4.007 3.727,6.595 0.191,0.984 0.554,1.427 1.461,1.922 4.097,2.238 8.398,1.744 12.579,0.827 3.755,-0.822 7.379,-2.273 11.022,-3.554 1.799,-0.632 3.466,-1.657 5.281,-2.213 1.275,-0.39 1.999,-1.549 2.122,-2.284 0.298,-1.771 1.127,-1.523 2.251,-1.152 0.792,0.263 1.579,0.545 2.843,0.982 z m -104.53,34.94 c -0.113,-0.115 -0.227,-0.23 -0.341,-0.347 -3.155,1.506 -6.373,2.897 -9.446,4.555 -2.15,1.16 -4.152,2.663 -5.101,5.083 -1.328,3.386 -1.896,6.924 -1.835,10.554 0.079,4.671 0.228,9.342 0.309,14.013 0.059,3.406 2.075,5.691 5.989,6.276 -0.225,-6.119 -0.447,-12.158 -0.67,-18.212 -2.124,0.154 -3.094,-0.601 -2.725,-2.307 0.446,-2.055 1.027,-4.24 2.177,-5.948 1.921,-2.854 4.308,-5.402 6.558,-8.028 1.646,-1.922 3.387,-3.762 5.085,-5.639 z m 125.808,19.621 c -1.199,-1.02 -2.286,-1.975 -3.415,-2.875 -0.197,-0.157 -0.577,-0.14 -0.867,-0.118 -0.952,0.069 -1.899,0.196 -2.852,0.268 -3.212,0.24 -6.546,0.954 -8.641,-2.071 -1.244,3.381 -2.435,6.806 -3.784,10.166 -0.396,0.987 -0.207,1.397 0.655,1.795 1.631,0.751 3.006,0.01 4.361,-0.724 3.608,-1.953 7.253,-3.557 11.544,-2.528 1.118,0.268 2.355,0.04 3.538,0.04 -0.512,-0.387 -1.082,-0.44 -1.527,-0.704 -0.675,-0.4 -1.263,-0.946 -1.887,-1.431 0.528,-0.439 1.027,-0.923 1.598,-1.302 0.379,-0.253 0.858,-0.353 1.277,-0.516 z m -17.214,-45.853 c -0.603,-3.146 -0.666,-3.146 -3.095,-2.492 -2.473,0.667 -4.956,1.312 -7.466,1.815 -4.672,0.937 -9.381,1.688 -14.043,2.665 -2.387,0.501 -4.707,1.316 -7.054,2.003 -1.245,0.364 -1.312,1.373 -0.932,2.284 0.112,0.27 1.225,0.357 1.754,0.172 1.476,-0.518 2.875,-1.244 4.323,-1.844 1.09,-0.451 2.179,-1.044 3.32,-1.211 4.721,-0.691 9.469,-1.197 14.193,-1.864 2.983,-0.42 5.941,-1.003 9,-1.528 z m -52.456,-26.236 c 1.241,-0.976 2.3,-1.805 3.354,-2.641 0.222,-0.176 0.533,-0.34 0.614,-0.575 0.335,-0.978 -1.713,-4.319 -2.769,-4.315 -1.76,0.006 -3.607,-0.033 -5.257,0.473 -2.258,0.691 -4.434,1.779 -5.97,4.097 3.856,-0.027 7.32,0.488 10.028,2.961 z m -71.79,40.779 c -2.26,-0.7 -3.516,-2.636 -5.789,-1.815 -2.947,1.062 -5.903,2.099 -9.382,3.332 2.608,1.469 4.694,2.686 6.835,3.796 0.274,0.143 0.891,-0.186 1.253,-0.435 1.412,-0.973 2.774,-2.017 4.178,-3.003 0.802,-0.563 1.647,-1.066 2.905,-1.875 z m 86.821,1.569 c 1.013,-1.769 2.064,-3.472 2.964,-5.252 0.289,-0.572 0.177,-1.348 0.248,-2.029 -0.959,-0.074 -2.167,-0.559 -2.835,-0.153 -3.055,1.855 -3.185,4.818 -0.377,7.434 z m -3.089,-13.772 c -0.145,0.192 -0.289,0.384 -0.435,0.576 0.473,0.971 0.696,2.399 1.468,2.816 1.642,0.888 3.568,1.25 5.377,1.827 0.114,-0.177 0.229,-0.354 0.342,-0.53 -0.279,-0.873 -0.312,-2.24 -0.887,-2.53 -1.846,-0.934 -3.894,-1.47 -5.865,-2.159 z m 31.731,-4.867 c -1.771,-2.384 -1.768,-2.374 -4.268,-1.335 -1.203,0.5 -2.443,0.916 -3.633,1.444 -1.142,0.506 -2.239,1.109 -3.356,1.67 0.055,0.12 0.109,0.24 0.165,0.36 3.64,-0.702 7.279,-1.404 11.092,-2.139 z m -142.988,-4.604 c 0.112,-0.215 0.225,-0.431 0.337,-0.646 -0.93,-0.493 -1.828,-1.06 -2.794,-1.463 -1.348,-0.562 -2.692,-0.605 -4.409,0.797 2.606,0.499 4.736,0.905 6.866,1.312 z m 0.826,1.774 c -0.835,-0.117 -1.521,-0.203 -2.204,-0.312 -0.755,-0.119 -1.54,-0.45 -2.249,-0.327 -0.517,0.089 -0.931,0.765 -1.566,1.337 5.173,0.692 5.528,0.651 6.019,-0.698 z m 144.312,0.435 c 0.435,0.498 0.916,1.453 1.293,1.413 1.574,-0.166 3.116,-0.631 4.67,-0.985 0,-0.186 0.01,-0.37 0.014,-0.556 -0.694,-0.15 -1.869,-0.615 -2.008,-0.402 -1.154,1.759 -2.427,0.474 -3.969,0.53 z m -144.418,-9.173 c -1.881,-2.097 -3.812,-2.434 -6.283,-1.032 2.278,0.374 4.064,0.667 6.283,1.032 z m 121.937,15.902 c -2.835,0 -5.413,0 -7.925,0 2.523,1.654 5.097,0.866 7.925,0 z m -123.427,-14.306 c -1.695,0.117 -3.303,-1.358 -4.506,0.608 2.871,1.365 3.111,1.345 4.506,-0.608 z m 38.386,59.839 c -0.178,-0.028 -0.355,-0.056 -0.532,-0.084 -0.474,1.489 -1.415,2.914 -0.306,4.62 0.28,-1.512 0.559,-3.023 0.838,-4.536 z m 73.338,-37.08 c 0.729,-0.847 1.286,-1.492 1.924,-2.231 -2.161,-0.502 -2.469,-0.153 -1.924,2.231 z"
           id="path7959" />
        <path
           fill-rule="evenodd"
           clip-rule="evenodd"
           d="m 1488.641,515.477 c -1.784,0.671 -3.361,1.287 -4.957,1.851 -0.543,0.192 -1.131,0.319 -1.702,0.34 -0.268,0.01 -0.547,-0.303 -0.821,-0.469 0.206,-0.304 0.343,-0.753 0.628,-0.888 1.489,-0.704 3.015,-1.331 4.528,-1.98 1.521,-0.652 2.181,-0.284 2.324,1.146 z"
           id="path7961" />
        <path
           fill-rule="evenodd"
           clip-rule="evenodd"
           d="m 1485.041,499.219 c 0,0.289 0,0.755 0,1.271 -0.236,0 -0.423,0.052 -0.561,-0.009 -1.197,-0.521 -2.426,-0.993 -3.555,-1.638 -0.404,-0.23 -0.562,-0.893 -0.831,-1.358 0.581,-0.042 1.25,-0.287 1.728,-0.084 1.063,0.452 2.03,1.128 3.219,1.818 z"
           id="path7963" />
        <path
           fill-rule="evenodd"
           clip-rule="evenodd"
           d="m 1473.381,504.656 c -0.477,-0.529 -0.794,-0.881 -1.111,-1.232 0.416,-0.373 0.783,-0.911 1.266,-1.05 0.258,-0.074 0.715,0.543 1.081,0.848 -0.357,0.413 -0.715,0.828 -1.236,1.434 z"
           id="path7965" />
        <path
           fill-rule="evenodd"
           clip-rule="evenodd"
           d="m 1481.478,503.201 c -0.513,0.479 -0.82,0.764 -1.127,1.05 -0.351,-0.41 -0.777,-0.784 -0.997,-1.255 -0.058,-0.122 0.585,-0.818 0.809,-0.773 0.408,0.082 0.743,0.523 1.315,0.978 z"
           id="path7967" />
        <path
           fill-rule="evenodd"
           clip-rule="evenodd"
           fill="#ffffff"
           d="m 1460.885,490.656 c -0.33,2.732 -0.571,5.272 -0.954,7.791 -1.213,7.965 -0.699,15.979 -0.739,23.977 -0.013,2.397 -0.01,2.318 -2.451,2.493 -5.604,0.399 -11.197,0.95 -16.803,1.313 -3.935,0.255 -7.891,0.201 -11.824,0.469 -5.419,0.368 -10.824,0.951 -16.241,1.358 -2.554,0.191 -5.123,0.22 -7.686,0.232 -0.358,0.002 -1.011,-0.49 -1.035,-0.793 -0.327,-4.088 -0.534,-8.185 -0.839,-12.274 -0.46,-6.18 -0.971,-12.355 -1.479,-18.531 -0.021,-0.27 -0.223,-0.524 -0.408,-0.938 19.92,-3.553 40.021,-4.973 60.459,-5.097 z m -6.035,20.761 c 1.202,-0.917 2.272,-1.499 2.994,-2.368 0.485,-0.584 0.862,-1.766 0.584,-2.336 -0.301,-0.614 -1.406,-1.12 -2.188,-1.162 -2.737,-0.146 -5.437,1.854 -6.355,4.45 -0.26,0.735 -0.568,1.453 -0.931,2.373 -0.548,-1.062 -0.879,-1.883 -1.378,-2.584 -0.203,-0.286 -0.771,-0.313 -1.172,-0.459 -0.038,0.373 -0.221,0.81 -0.089,1.108 0.718,1.631 1.453,3.262 2.325,4.812 0.216,0.383 0.964,0.464 1.6,0.741 0.081,-3.393 1.591,-7.372 3.223,-8.006 0,1.478 0.01,2.823 -10e-4,4.169 -0.016,2.851 0.057,3.016 1.598,3.284 -0.079,-1.473 -0.154,-2.932 -0.21,-4.022 z m -21.99,-13.494 c -0.045,-0.175 -0.09,-0.349 -0.135,-0.523 -0.192,-0.104 -0.4,-0.322 -0.574,-0.298 -2.281,0.323 -4.568,0.626 -6.821,1.091 -0.327,0.066 -0.677,0.94 -0.691,1.45 -0.054,1.965 0.025,3.934 0.051,5.901 0.012,0.938 0.379,1.533 1.41,1.332 2.036,-0.397 4.079,-0.781 6.083,-1.306 0.609,-0.16 1.102,-0.766 1.647,-1.168 -0.093,-0.151 -0.186,-0.304 -0.278,-0.456 -2.342,0.268 -4.684,0.534 -7.018,0.801 -0.224,-1.829 -0.208,-1.771 1.289,-2.17 1.065,-0.284 2.381,-0.276 2.938,-1.975 -1.319,0.178 -2.417,0.373 -3.523,0.445 -0.343,0.022 -0.707,-0.289 -1.062,-0.448 0.212,-0.312 0.365,-0.816 0.646,-0.902 1.076,-0.33 2.206,-0.478 3.29,-0.785 0.935,-0.264 1.833,-0.654 2.748,-0.989 z m 9.28,-0.812 c 0.027,0.132 0.054,0.265 0.081,0.396 -1.682,1.752 -3.375,3.493 -5.035,5.266 -0.374,0.399 -0.633,0.907 -0.944,1.364 0.58,0.185 1.194,0.598 1.733,0.515 2.211,-0.338 4.398,-0.825 6.733,-1.286 0.021,-0.404 0.046,-0.897 0.081,-1.593 -1.796,0.272 -3.413,0.518 -5.256,0.797 1.77,-2.479 4.979,-3.436 5.354,-7.189 -2.899,0.523 -5.461,0.938 -7.995,1.481 -0.53,0.113 -0.959,0.696 -1.435,1.062 0.593,0.135 1.223,0.468 1.772,0.368 1.654,-0.303 3.276,-0.775 4.911,-1.181 z m -36.464,13.871 c 0.262,0.062 0.523,0.124 0.785,0.186 0.389,-1.487 0.776,-2.975 1.197,-4.586 1.226,-0.565 2.424,-0.889 2.913,1.184 0.111,0.471 0.853,0.793 1.304,1.184 0.05,-0.618 0.28,-1.288 0.118,-1.844 -0.769,-2.627 -1.62,-5.229 -2.502,-7.82 -0.167,-0.489 -0.609,-0.885 -0.925,-1.324 -0.396,0.391 -1.058,0.729 -1.146,1.178 -0.689,3.541 -1.279,7.101 -1.868,10.659 -0.062,0.376 0.078,0.787 0.124,1.183 z m 10.822,-12.37 c 0.243,1.609 0.455,2.97 0.65,4.332 0.118,0.82 0.067,1.698 0.354,2.451 0.297,0.78 0.908,1.441 1.382,2.154 0.567,-0.382 1.232,-0.673 1.679,-1.164 0.831,-0.914 1.648,-1.877 2.264,-2.939 1.217,-2.102 0.33,-4.31 -2.021,-4.782 -1.401,-0.283 -2.905,-0.052 -4.308,-0.052 z m -2.722,17.111 c -0.182,0.165 -0.362,0.33 -0.543,0.495 -0.307,-0.492 -0.561,-1.027 -0.931,-1.467 -0.729,-0.866 -1.445,-1.771 -2.312,-2.484 -0.739,-0.609 -1.67,-0.682 -1.776,0.619 -0.131,1.593 -0.134,3.204 -0.068,4.802 0.019,0.458 0.462,0.898 0.71,1.347 0.225,-0.428 0.564,-0.832 0.651,-1.285 0.188,-0.986 0.247,-1.997 0.358,-2.998 0.323,-0.183 0.646,-0.365 0.968,-0.548 1.243,1.555 2.485,3.109 3.729,4.664 0.198,-0.047 0.397,-0.094 0.597,-0.14 0,-2.596 0,-5.191 0,-7.892 -0.139,0.027 -0.837,0.055 -0.856,0.184 -0.234,1.56 -0.367,3.133 -0.527,4.703 z m 28.131,-5.292 c 0.078,-0.205 0.157,-0.41 0.235,-0.615 0.536,0.028 1.079,0.123 1.605,0.063 0.446,-0.05 0.872,-0.279 1.307,-0.429 -0.283,-0.378 -0.492,-0.961 -0.863,-1.097 -1.251,-0.455 -2.534,-0.727 -3.337,0.843 -0.797,1.556 0.136,2.445 1.214,3.267 1.02,0.776 2.077,1.502 3.117,2.25 -0.033,0.239 -0.066,0.478 -0.1,0.717 -0.759,0.098 -1.521,0.184 -2.277,0.299 -0.382,0.058 -0.78,0.117 -1.117,0.286 -0.085,0.042 0.014,0.733 0.074,0.74 1.118,0.136 2.382,0.572 3.329,0.206 1.084,-0.421 1.83,-1.705 1.03,-2.953 -0.544,-0.85 -1.474,-1.463 -2.271,-2.135 -0.616,-0.518 -1.294,-0.963 -1.946,-1.442 z m -21.701,7.17 c 1.764,-0.025 3.628,-1.943 3.634,-3.738 0,-1.469 -1.433,-3.352 -2.575,-3.373 -2.033,-0.039 -3.731,1.918 -3.685,4.244 0.028,1.429 1.363,2.886 2.626,2.867 z m 16.462,-8.455 c -0.425,-0.328 -1.051,-1.098 -1.342,-0.987 -1.396,0.531 -2.75,1.225 -3.995,2.049 -0.245,0.162 -0.026,1.177 0.144,1.749 0.076,0.255 0.547,0.421 0.865,0.569 0.534,0.249 1.245,0.313 1.599,0.708 0.475,0.53 0.68,1.301 1,1.969 -0.671,0.154 -1.336,0.35 -2.015,0.447 -0.304,0.043 -0.635,-0.111 -1.155,-0.217 0.154,0.521 0.162,1.032 0.354,1.114 0.845,0.362 1.911,1.032 2.577,0.771 0.774,-0.303 1.465,-1.39 1.712,-2.271 0.166,-0.59 -0.326,-1.602 -0.84,-2.092 -0.809,-0.771 -1.884,-1.262 -2.847,-1.871 0.014,-0.209 0.027,-0.418 0.041,-0.626 1.145,-0.385 2.291,-0.77 3.902,-1.312 z m -9.834,7.015 c -0.289,-1.571 -0.639,-2.869 -0.739,-4.187 -0.114,-1.482 -0.853,-1.525 -2.009,-1.237 0.207,0.924 0.344,1.73 0.574,2.509 0.341,1.152 0.607,2.363 1.177,3.4 0.405,0.738 1.193,1.379 2.229,0.617 1.764,-1.298 2.503,-5.569 1.092,-7.617 -1.614,1.828 0.291,4.778 -2.324,6.515 z m 27.179,-18.002 c -2.201,0.165 -4.079,0.279 -5.948,0.475 -0.261,0.027 -0.571,0.415 -0.684,0.704 -0.065,0.169 0.227,0.689 0.34,0.685 1.89,-0.089 3.779,-0.207 5.658,-0.416 0.189,-0.023 0.309,-0.675 0.634,-1.448 z m -38.754,7.04 c -0.287,-2.031 -0.486,-3.61 -0.757,-5.177 -0.045,-0.254 -0.411,-0.452 -0.628,-0.677 -0.262,0.315 -0.76,0.643 -0.743,0.942 0.086,1.593 0.244,3.189 0.513,4.762 0.07,0.412 0.624,0.742 0.956,1.109 0.296,-0.429 0.591,-0.86 0.659,-0.959 z m 19.244,16.042 c -0.519,0.584 -1.077,0.94 -1.122,1.352 -0.035,0.318 0.738,1.062 0.868,1.001 0.531,-0.244 0.952,-0.726 1.414,-1.12 -0.316,-0.337 -0.633,-0.673 -1.16,-1.233 z m -2.912,1.592 c -0.628,-0.523 -1.087,-1.062 -1.221,-0.991 -0.51,0.272 -0.913,0.741 -1.356,1.137 0.315,0.277 0.659,0.808 0.94,0.776 0.461,-0.052 0.881,-0.468 1.637,-0.922 z m -4.682,-0.382 c -0.16,-0.21 -0.32,-0.42 -0.48,-0.63 -0.593,0.285 -1.187,0.57 -1.779,0.854 0.328,0.417 0.655,0.834 0.983,1.251 0.426,-0.492 0.85,-0.983 1.276,-1.475 z"
           id="path7969" />
        <path
           fill-rule="evenodd"
           clip-rule="evenodd"
           fill="#ffffff"
           d="m 1550.778,579.597 c 0.177,3.192 0.461,6.101 0.476,9.011 0.041,8.729 -0.026,17.459 -0.039,26.188 0,1.123 0.136,2.251 0.069,3.368 -0.022,0.363 -0.419,0.813 -0.765,1.031 -3.57,2.245 -7.233,4.351 -10.739,6.69 -6.134,4.093 -12.174,8.323 -18.257,12.489 -0.232,0.159 -0.516,0.241 -0.949,0.438 -0.181,-2.119 -0.41,-4.102 -0.508,-6.09 -0.397,-8.039 -2.103,-16.002 -1.279,-24.12 0.279,-2.767 0.184,-5.579 0.146,-8.368 -0.016,-1.229 0.401,-2.003 1.454,-2.627 4.35,-2.573 8.658,-5.218 12.995,-7.812 5.363,-3.211 10.74,-6.399 16.114,-9.592 0.305,-0.179 0.642,-0.304 1.282,-0.606 z"
           id="path7971" />
        <path
           fill-rule="evenodd"
           clip-rule="evenodd"
           fill="#ffffff"
           d="m 1518.675,640.474 c -3.259,-1.917 -6.216,-3.812 -9.312,-5.443 -4.937,-2.6 -9.965,-5.023 -14.957,-7.519 -0.262,-0.132 -0.555,-0.204 -0.808,-0.348 -1.152,-0.654 -3.126,-1.176 -3.276,-2.019 -0.367,-2.049 0.102,-4.251 0.262,-6.39 0.039,-0.53 0.289,-1.058 0.265,-1.577 -0.228,-4.821 0.903,-9.435 2.044,-14.055 0.874,-3.542 4.664,-10.273 7.289,-12.755 5.173,2.536 10.392,5.049 15.548,7.684 0.642,0.327 1.34,1.295 1.354,1.979 0.123,5.891 -0.059,11.79 0.165,17.675 0.165,4.347 0.829,8.674 1.214,13.015 0.238,2.679 0.393,5.365 0.531,8.051 0.027,0.524 -0.191,1.06 -0.319,1.702 z"
           id="path7973" />
        <path
           fill-rule="evenodd"
           clip-rule="evenodd"
           fill="#ffffff"
           d="m 1593.494,580.088 c -0.151,7.178 -0.783,14.277 -3.882,20.906 -2.742,5.869 -7.093,10.147 -13.155,12.424 -2.529,0.951 -5.28,1.45 -7.977,1.792 -5.951,0.753 -10.747,-2.976 -12.819,-8.662 -2.272,-6.236 -2.866,-12.632 -2.219,-19.203 0.345,-3.506 0.356,-7.051 0.81,-10.54 0.688,-5.309 2.263,-10.466 5.802,-14.513 2.171,-2.483 4.944,-4.631 8.575,-5.239 4.631,-0.776 9.156,-2.278 13.947,-0.936 4.573,1.281 7.49,4.401 9.121,8.573 1.919,4.913 1.929,10.175 1.797,15.398 z m -33.649,28.053 c 0.396,0.284 1.233,0.759 1.915,1.4 4.046,3.813 8.482,4.764 12.646,2.056 2.283,-1.485 4.352,-3.575 5.925,-5.809 2.038,-2.895 3.539,-6.178 5.179,-9.341 3.471,-6.692 5.126,-13.84 4.646,-21.356 -0.146,-2.281 -0.979,-4.605 -1.908,-6.73 -1.538,-3.517 -4.56,-5.75 -7.812,-7.531 -1.565,-0.857 -3.585,-1.869 -5.153,-1.561 -5.407,1.064 -10.731,2.613 -13.17,8.484 -0.652,1.57 -1.483,3.07 -2.281,4.576 -1.82,3.44 -2.877,7.097 -3.291,10.963 -0.207,1.923 -0.777,3.829 -0.786,5.745 -0.01,2.022 0.351,4.067 0.739,6.065 0.565,2.903 1.267,5.782 1.98,8.654 0.343,1.39 0.849,2.738 1.371,4.385 z"
           id="path7975" />
        <path
           fill-rule="evenodd"
           clip-rule="evenodd"
           fill="#ffffff"
           d="m 1573.162,515.393 c -0.358,-0.918 -0.66,-1.865 -1.103,-2.74 -0.187,-0.368 -0.672,-0.584 -1.021,-0.869 -0.193,0.435 -0.673,1.062 -0.532,1.272 0.818,1.218 0.366,3.157 2.224,3.843 0.255,0.095 0.323,1.345 0.117,1.935 -2.438,6.996 -7.714,9.627 -14.458,8.824 -4.362,-0.52 -8.086,-2.221 -11.079,-5.24 -2.507,-2.531 -3.929,-5.885 -2.264,-10.304 1.943,-5.158 5.363,-8.835 10.375,-10.987 0.998,-0.429 2.296,-0.51 3.38,-0.32 2.974,0.521 6.052,0.91 8.823,2.015 4.412,1.757 6.636,6.914 5.538,12.571 z m -6.37,-1.53 c -0.191,-0.074 -0.383,-0.148 -0.574,-0.222 -0.236,0.568 -0.699,1.149 -0.669,1.703 0.145,2.673 -0.139,2.938 -2.813,2.634 -0.518,-0.06 -1.094,0.396 -1.644,0.615 0.437,0.389 0.914,1.143 1.302,1.099 1.355,-0.153 3.074,-0.176 3.922,-1.002 1.257,-1.225 1.131,-3.139 0.476,-4.827 z m -4.362,-6.416 c 1.783,1.426 3.244,2.745 5.678,2.54 -0.828,-2.106 -2.652,-2.522 -4.136,-3.297 -0.265,-0.138 -0.892,0.421 -1.542,0.757 z m -3.74,16.809 c 0.254,-1.829 -1.328,-3.992 -2.913,-4.111 -0.354,-0.027 -0.787,0.197 -1.075,0.437 -0.134,0.111 -0.122,0.687 0.02,0.795 1.275,0.976 2.594,1.895 3.968,2.879 z m 2.352,-13.883 c -0.379,0.599 -0.852,1.105 -0.761,1.244 0.396,0.605 0.878,1.251 1.492,1.573 0.264,0.139 0.922,-0.473 1.401,-0.743 -0.632,-0.615 -1.266,-1.232 -2.132,-2.074 z m 9.497,9.405 c -0.634,-0.548 -1.08,-1.155 -1.303,-1.081 -0.481,0.157 -0.848,0.664 -1.261,1.028 0.324,0.366 0.638,1.013 0.977,1.027 0.417,0.018 0.857,-0.493 1.587,-0.974 z"
           id="path7977" />
        <path
           fill-rule="evenodd"
           clip-rule="evenodd"
           fill="#ffffff"
           d="m 1550.968,577.551 c -4.568,2.682 -8.738,5.082 -12.86,7.562 -4.121,2.48 -8.176,5.073 -12.299,7.553 -2.297,1.381 -4.646,2.683 -7.035,3.896 -0.478,0.243 -1.312,0.088 -1.859,-0.158 -4.562,-2.054 -9.102,-4.159 -13.633,-6.283 -0.69,-0.324 -1.297,-0.827 -1.99,-1.278 2.604,-3.428 5.821,-5.475 10.088,-5.681 1.253,-0.061 2.501,-0.269 3.754,-0.29 7.277,-0.127 12.612,-3.517 16.123,-9.766 0.756,-1.345 0.901,-3.034 1.386,-4.772 6.576,1.992 12.13,5.689 18.325,9.217 z"
           id="path7979" />
        <path
           fill-rule="evenodd"
           clip-rule="evenodd"
           fill="#ffffff"
           d="m 1588.784,542.686 c -1.265,-0.438 -2.051,-0.719 -2.843,-0.981 -1.124,-0.371 -1.953,-0.618 -2.251,1.152 -0.123,0.735 -0.847,1.895 -2.122,2.284 -1.815,0.556 -3.482,1.581 -5.281,2.213 -3.644,1.28 -7.268,2.731 -11.022,3.554 -4.181,0.917 -8.482,1.411 -12.579,-0.827 -0.907,-0.495 -1.27,-0.938 -1.461,-1.922 -0.503,-2.588 -0.918,-5.356 -3.727,-6.595 -1.612,-0.71 -3.365,-1.102 -5.278,-1.707 2.04,-3.316 2.02,-6.854 1.587,-10.426 5.272,0.003 7.979,3.216 10.11,7.337 1.218,2.354 2.341,4.903 4.118,6.788 3.419,3.625 7.851,4.18 12.354,2.269 2.241,-0.951 4.155,-2.651 6.281,-3.903 1.664,-0.979 3.34,-2.176 5.165,-2.587 2.717,-0.611 4.244,0.318 6.949,3.351 z"
           id="path7981" />
        <path
           fill-rule="evenodd"
           clip-rule="evenodd"
           fill="#ffffff"
           d="m 1484.254,577.626 c -1.698,1.877 -3.438,3.717 -5.085,5.639 -2.25,2.626 -4.637,5.174 -6.558,8.028 -1.149,1.708 -1.73,3.894 -2.177,5.948 -0.369,1.706 0.601,2.461 2.725,2.307 0.223,6.054 0.445,12.093 0.67,18.212 -3.914,-0.585 -5.931,-2.87 -5.989,-6.276 -0.081,-4.671 -0.229,-9.342 -0.309,-14.013 -0.062,-3.63 0.507,-7.168 1.835,-10.554 0.948,-2.42 2.95,-3.923 5.101,-5.083 3.073,-1.657 6.291,-3.049 9.446,-4.555 0.114,0.117 0.228,0.232 0.341,0.347 z"
           id="path7983" />
        <path
           fill-rule="evenodd"
           clip-rule="evenodd"
           fill="#ffffff"
           d="m 1610.062,597.247 c -0.419,0.163 -0.897,0.264 -1.276,0.516 -0.57,0.379 -1.069,0.862 -1.598,1.302 0.624,0.484 1.212,1.03 1.887,1.431 0.445,0.264 1.016,0.317 1.527,0.704 -1.183,0 -2.42,0.228 -3.538,-0.04 -4.291,-1.028 -7.936,0.575 -11.544,2.528 -1.355,0.733 -2.73,1.475 -4.361,0.724 -0.862,-0.397 -1.052,-0.808 -0.655,-1.795 1.35,-3.36 2.54,-6.785 3.784,-10.166 2.095,3.025 5.429,2.312 8.641,2.071 0.952,-0.071 1.899,-0.198 2.852,-0.268 0.29,-0.021 0.67,-0.039 0.867,0.118 1.127,0.9 2.214,1.855 3.414,2.875 z"
           id="path7985" />
        <path
           fill-rule="evenodd"
           clip-rule="evenodd"
           fill="#ffffff"
           d="m 1592.848,551.394 c -3.059,0.525 -6.017,1.108 -8.998,1.528 -4.725,0.667 -9.473,1.173 -14.193,1.864 -1.142,0.167 -2.23,0.76 -3.32,1.211 -1.448,0.6 -2.848,1.326 -4.323,1.844 -0.529,0.186 -1.642,0.098 -1.754,-0.172 -0.38,-0.911 -0.313,-1.92 0.932,-2.284 2.347,-0.687 4.667,-1.502 7.054,-2.003 4.662,-0.978 9.371,-1.729 14.043,-2.665 2.51,-0.503 4.993,-1.148 7.466,-1.815 2.427,-0.654 2.49,-0.654 3.093,2.492 z"
           id="path7987" />
        <path
           fill-rule="evenodd"
           clip-rule="evenodd"
           fill="#ffffff"
           d="m 1540.392,525.158 c -2.708,-2.473 -6.172,-2.987 -10.026,-2.962 1.536,-2.317 3.712,-3.405 5.97,-4.097 1.649,-0.506 3.497,-0.467 5.257,-0.473 1.056,-0.004 3.104,3.338 2.769,4.315 -0.081,0.235 -0.393,0.399 -0.614,0.575 -1.057,0.837 -2.115,1.666 -3.356,2.642 z"
           id="path7989" />
        <path
           fill-rule="evenodd"
           clip-rule="evenodd"
           fill="#ffffff"
           d="m 1468.602,565.937 c -1.258,0.809 -2.103,1.312 -2.905,1.875 -1.403,0.986 -2.766,2.03 -4.178,3.003 -0.362,0.249 -0.979,0.577 -1.253,0.435 -2.141,-1.11 -4.227,-2.327 -6.835,-3.796 3.479,-1.233 6.435,-2.27 9.382,-3.332 2.273,-0.821 3.529,1.115 5.789,1.815 z"
           id="path7991" />
        <path
           fill-rule="evenodd"
           clip-rule="evenodd"
           fill="#ffffff"
           d="m 1555.423,567.506 c -2.808,-2.616 -2.678,-5.579 0.377,-7.435 0.668,-0.405 1.876,0.079 2.835,0.153 -0.071,0.682 0.041,1.457 -0.248,2.029 -0.9,1.782 -1.951,3.485 -2.964,5.253 z"
           id="path7993" />
        <path
           fill-rule="evenodd"
           clip-rule="evenodd"
           fill="#ffffff"
           d="m 1552.334,553.734 c 1.971,0.689 4.019,1.226 5.865,2.159 0.575,0.29 0.607,1.657 0.887,2.53 -0.113,0.177 -0.228,0.354 -0.342,0.53 -1.809,-0.577 -3.735,-0.939 -5.377,-1.827 -0.771,-0.417 -0.995,-1.846 -1.468,-2.816 0.146,-0.192 0.29,-0.384 0.435,-0.576 z"
           id="path7995" />
        <path
           fill-rule="evenodd"
           clip-rule="evenodd"
           fill="#ffffff"
           d="m 1584.065,548.867 c -3.813,0.735 -7.452,1.438 -11.092,2.14 -0.056,-0.12 -0.11,-0.24 -0.165,-0.36 1.117,-0.561 2.215,-1.164 3.356,-1.67 1.189,-0.528 2.43,-0.944 3.633,-1.444 2.501,-1.04 2.497,-1.05 4.268,1.334 z"
           id="path7997" />
        <path
           fill-rule="evenodd"
           clip-rule="evenodd"
           fill="#ffffff"
           d="m 1441.077,544.263 c -2.13,-0.407 -4.26,-0.813 -6.866,-1.312 1.717,-1.402 3.062,-1.359 4.409,-0.797 0.966,0.403 1.864,0.97 2.794,1.463 -0.112,0.216 -0.225,0.431 -0.337,0.646 z"
           id="path7999" />
        <path
           fill-rule="evenodd"
           clip-rule="evenodd"
           fill="#ffffff"
           d="m 1441.903,546.037 c -0.491,1.35 -0.847,1.391 -6.02,0.698 0.636,-0.572 1.05,-1.248 1.566,-1.337 0.709,-0.123 1.494,0.208 2.249,0.327 0.684,0.108 1.37,0.194 2.205,0.312 z"
           id="path8001" />
        <path
           fill-rule="evenodd"
           clip-rule="evenodd"
           fill="#ffffff"
           d="m 1586.215,546.472 c 1.542,-0.057 2.815,1.229 3.969,-0.53 0.139,-0.213 1.313,0.252 2.008,0.402 0,0.186 -0.01,0.37 -0.014,0.556 -1.554,0.354 -3.096,0.819 -4.67,0.985 -0.377,0.04 -0.859,-0.915 -1.293,-1.413 z"
           id="path8003" />
        <path
           fill-rule="evenodd"
           clip-rule="evenodd"
           fill="#ffffff"
           d="m 1441.797,537.299 c -2.219,-0.365 -4.005,-0.658 -6.283,-1.032 2.47,-1.401 4.402,-1.064 6.283,1.032 z"
           id="path8005" />
        <path
           fill-rule="evenodd"
           clip-rule="evenodd"
           fill="#ffffff"
           d="m 1563.734,553.201 c -2.828,0.866 -5.402,1.654 -7.925,0 2.512,0 5.09,0 7.925,0 z"
           id="path8007" />
        <path
           fill-rule="evenodd"
           clip-rule="evenodd"
           fill="#ffffff"
           d="m 1440.307,538.895 c -1.395,1.953 -1.635,1.973 -4.506,0.608 1.203,-1.966 2.81,-0.491 4.506,-0.608 z"
           id="path8009" />
        <path
           fill-rule="evenodd"
           clip-rule="evenodd"
           fill="#ffffff"
           d="m 1478.693,598.734 c -0.279,1.513 -0.559,3.024 -0.838,4.536 -1.109,-1.706 -0.168,-3.131 0.306,-4.62 0.177,0.028 0.355,0.056 0.532,0.084 z"
           id="path8011" />
        <path
           fill-rule="evenodd"
           clip-rule="evenodd"
           fill="#ffffff"
           d="m 1552.031,561.654 c -0.545,-2.384 -0.237,-2.732 1.924,-2.231 -0.638,0.739 -1.195,1.384 -1.924,2.231 z"
           id="path8013" />
        <path
           fill-rule="evenodd"
           clip-rule="evenodd"
           d="m 1454.85,511.417 c 0.057,1.09 0.132,2.549 0.209,4.022 -1.541,-0.269 -1.613,-0.434 -1.598,-3.284 0.01,-1.346 10e-4,-2.691 10e-4,-4.169 -1.632,0.634 -3.142,4.613 -3.223,8.006 -0.636,-0.277 -1.384,-0.358 -1.6,-0.741 -0.872,-1.55 -1.607,-3.181 -2.325,-4.812 -0.132,-0.299 0.051,-0.735 0.089,-1.108 0.401,0.146 0.969,0.173 1.172,0.459 0.499,0.701 0.83,1.521 1.378,2.584 0.362,-0.92 0.671,-1.638 0.931,-2.373 0.919,-2.596 3.618,-4.597 6.355,-4.45 0.782,0.042 1.888,0.548 2.188,1.162 0.278,0.57 -0.099,1.752 -0.584,2.336 -0.721,0.869 -1.791,1.451 -2.993,2.368 z m 2.407,-3.836 c -0.145,-0.199 -0.289,-0.398 -0.434,-0.598 -0.604,0.105 -1.21,0.211 -1.927,0.336 0.039,0.63 0.072,1.176 0.105,1.723 0.19,0.128 0.381,0.256 0.571,0.384 0.563,-0.615 1.123,-1.23 1.685,-1.845 z"
           id="path8015" />
        <path
           fill-rule="evenodd"
           clip-rule="evenodd"
           d="m 1432.86,497.923 c -0.915,0.335 -1.813,0.725 -2.748,0.989 -1.084,0.308 -2.214,0.455 -3.29,0.785 -0.281,0.086 -0.435,0.591 -0.646,0.902 0.354,0.159 0.719,0.471 1.062,0.448 1.106,-0.072 2.204,-0.268 3.523,-0.445 -0.557,1.698 -1.872,1.69 -2.938,1.975 -1.497,0.398 -1.513,0.341 -1.289,2.17 2.334,-0.267 4.676,-0.533 7.018,-0.801 0.093,0.152 0.186,0.305 0.278,0.456 -0.546,0.402 -1.038,1.008 -1.647,1.168 -2.004,0.524 -4.047,0.908 -6.083,1.306 -1.031,0.201 -1.398,-0.395 -1.41,-1.332 -0.025,-1.968 -0.104,-3.937 -0.051,-5.901 0.015,-0.51 0.364,-1.384 0.691,-1.45 2.253,-0.465 4.54,-0.768 6.821,-1.091 0.174,-0.024 0.382,0.193 0.574,0.298 0.046,0.175 0.09,0.349 0.135,0.523 z"
           id="path8017" />
        <path
           fill-rule="evenodd"
           clip-rule="evenodd"
           d="m 1442.14,497.111 c -1.635,0.406 -3.257,0.878 -4.91,1.182 -0.55,0.1 -1.18,-0.233 -1.772,-0.368 0.476,-0.366 0.904,-0.949 1.435,-1.062 2.534,-0.543 5.096,-0.958 7.995,-1.481 -0.374,3.754 -3.584,4.71 -5.354,7.189 1.843,-0.279 3.46,-0.524 5.256,-0.797 -0.035,0.695 -0.061,1.188 -0.081,1.593 -2.335,0.461 -4.522,0.948 -6.733,1.286 -0.539,0.083 -1.153,-0.33 -1.733,-0.515 0.312,-0.457 0.57,-0.965 0.944,-1.364 1.66,-1.772 3.354,-3.514 5.035,-5.266 -0.029,-0.133 -0.055,-0.265 -0.082,-0.397 z"
           id="path8019" />
        <path
           fill-rule="evenodd"
           clip-rule="evenodd"
           d="m 1405.676,510.982 c -0.046,-0.396 -0.186,-0.807 -0.123,-1.185 0.589,-3.559 1.179,-7.118 1.868,-10.659 0.088,-0.449 0.749,-0.787 1.146,-1.178 0.315,0.439 0.758,0.835 0.925,1.324 0.882,2.591 1.733,5.193 2.502,7.82 0.162,0.556 -0.068,1.226 -0.118,1.844 -0.451,-0.391 -1.192,-0.713 -1.304,-1.184 -0.489,-2.072 -1.688,-1.749 -2.913,-1.184 -0.421,1.611 -0.809,3.099 -1.197,4.586 -0.263,-0.06 -0.524,-0.123 -0.786,-0.184 z"
           id="path8021" />
        <path
           fill-rule="evenodd"
           clip-rule="evenodd"
           d="m 1416.498,498.612 c 1.403,0 2.907,-0.23 4.308,0.052 2.352,0.473 3.238,2.681 2.021,4.782 -0.615,1.062 -1.433,2.025 -2.264,2.939 -0.446,0.491 -1.111,0.782 -1.679,1.164 -0.474,-0.713 -1.085,-1.374 -1.382,-2.154 -0.287,-0.753 -0.236,-1.631 -0.354,-2.451 -0.195,-1.362 -0.407,-2.723 -0.65,-4.332 z m 2.604,6.63 c 1.577,-0.476 3.166,-2.448 3.055,-3.766 -0.11,-1.301 -1.04,-1.614 -2.163,-1.597 -0.816,0.014 -1.634,0.076 -1.488,1.229 0.169,1.341 0.383,2.676 0.596,4.134 z"
           id="path8023" />
        <path
           fill-rule="evenodd"
           clip-rule="evenodd"
           d="m 1413.776,515.723 c 0.159,-1.57 0.293,-3.144 0.526,-4.703 0.02,-0.129 0.718,-0.156 0.856,-0.184 0,2.7 0,5.296 0,7.892 -0.199,0.046 -0.398,0.093 -0.597,0.14 -1.243,-1.555 -2.485,-3.109 -3.729,-4.664 -0.322,0.183 -0.645,0.365 -0.968,0.548 -0.111,1.001 -0.171,2.012 -0.358,2.998 -0.087,0.453 -0.427,0.857 -0.651,1.285 -0.248,-0.448 -0.691,-0.889 -0.71,-1.347 -0.065,-1.598 -0.062,-3.209 0.068,-4.802 0.106,-1.301 1.037,-1.229 1.776,-0.619 0.866,0.714 1.583,1.618 2.312,2.484 0.37,0.439 0.624,0.975 0.931,1.467 0.182,-0.165 0.363,-0.33 0.544,-0.495 z"
           id="path8025" />
        <path
           fill-rule="evenodd"
           clip-rule="evenodd"
           d="m 1441.907,510.431 c 0.651,0.479 1.33,0.924 1.946,1.442 0.798,0.672 1.728,1.285 2.271,2.135 0.8,1.248 0.054,2.532 -1.03,2.953 -0.947,0.366 -2.211,-0.07 -3.329,-0.206 -0.061,-0.007 -0.159,-0.698 -0.074,-0.74 0.337,-0.169 0.735,-0.229 1.117,-0.286 0.757,-0.115 1.519,-0.201 2.277,-0.299 0.033,-0.239 0.066,-0.478 0.1,-0.717 -1.04,-0.748 -2.098,-1.474 -3.117,-2.25 -1.078,-0.821 -2.011,-1.711 -1.214,-3.267 0.803,-1.569 2.086,-1.298 3.337,-0.843 0.371,0.136 0.58,0.719 0.863,1.097 -0.435,0.149 -0.86,0.379 -1.307,0.429 -0.526,0.06 -1.069,-0.035 -1.605,-0.063 -0.078,0.205 -0.157,0.41 -0.235,0.615 z"
           id="path8027" />
        <path
           fill-rule="evenodd"
           clip-rule="evenodd"
           d="m 1420.206,517.601 c -1.263,0.019 -2.598,-1.438 -2.626,-2.867 -0.047,-2.326 1.651,-4.283 3.685,-4.244 1.143,0.021 2.579,1.904 2.575,3.373 -0.01,1.795 -1.87,3.713 -3.634,3.738 z m 1.315,-5.806 c -2.161,0.882 -2.815,1.967 -1.949,3.4 0.252,0.416 1.195,0.784 1.651,0.639 1.356,-0.431 1.43,-1.871 0.298,-4.039 z"
           id="path8029" />
        <path
           fill-rule="evenodd"
           clip-rule="evenodd"
           d="m 1436.668,509.146 c -1.611,0.542 -2.757,0.927 -3.901,1.312 -0.014,0.208 -0.027,0.417 -0.041,0.626 0.963,0.609 2.038,1.101 2.847,1.871 0.514,0.49 1.006,1.502 0.84,2.092 -0.247,0.882 -0.938,1.969 -1.712,2.271 -0.666,0.262 -1.732,-0.408 -2.577,-0.771 -0.192,-0.082 -0.2,-0.593 -0.354,-1.114 0.521,0.105 0.852,0.26 1.155,0.217 0.679,-0.098 1.344,-0.293 2.015,-0.447 -0.32,-0.668 -0.525,-1.438 -1,-1.969 -0.354,-0.395 -1.064,-0.459 -1.599,-0.708 -0.318,-0.148 -0.789,-0.314 -0.865,-0.569 -0.17,-0.572 -0.389,-1.587 -0.144,-1.749 1.245,-0.824 2.6,-1.518 3.995,-2.049 0.29,-0.111 0.916,0.659 1.341,0.987 z"
           id="path8031" />
        <path
           fill-rule="evenodd"
           clip-rule="evenodd"
           d="m 1426.834,516.161 c 2.615,-1.736 0.71,-4.687 2.324,-6.515 1.411,2.048 0.672,6.319 -1.092,7.617 -1.036,0.762 -1.824,0.121 -2.229,-0.617 -0.569,-1.037 -0.836,-2.248 -1.177,-3.4 -0.23,-0.778 -0.367,-1.585 -0.574,-2.509 1.156,-0.288 1.895,-0.245 2.009,1.237 0.1,1.318 0.45,2.615 0.739,4.187 z"
           id="path8033" />
        <path
           fill-rule="evenodd"
           clip-rule="evenodd"
           d="m 1454.013,498.159 c -0.325,0.773 -0.444,1.426 -0.634,1.447 -1.879,0.209 -3.769,0.327 -5.658,0.416 -0.113,0.005 -0.405,-0.516 -0.34,-0.685 0.112,-0.289 0.423,-0.677 0.684,-0.704 1.869,-0.195 3.747,-0.309 5.948,-0.474 z"
           id="path8035" />
        <path
           fill-rule="evenodd"
           clip-rule="evenodd"
           d="m 1415.259,505.199 c -0.067,0.1 -0.363,0.53 -0.659,0.96 -0.332,-0.367 -0.886,-0.697 -0.956,-1.109 -0.269,-1.572 -0.427,-3.169 -0.513,-4.762 -0.017,-0.3 0.481,-0.627 0.743,-0.942 0.217,0.225 0.583,0.423 0.628,0.677 0.27,1.565 0.47,3.144 0.757,5.176 z"
           id="path8037" />
        <path
           fill-rule="evenodd"
           clip-rule="evenodd"
           d="m 1434.503,521.241 c 0.527,0.561 0.844,0.896 1.16,1.232 -0.462,0.395 -0.883,0.876 -1.414,1.12 -0.13,0.061 -0.903,-0.683 -0.868,-1.001 0.045,-0.411 0.603,-0.767 1.122,-1.351 z"
           id="path8039" />
        <path
           fill-rule="evenodd"
           clip-rule="evenodd"
           d="m 1431.591,522.833 c -0.756,0.454 -1.176,0.87 -1.637,0.922 -0.281,0.031 -0.625,-0.499 -0.94,-0.776 0.443,-0.396 0.847,-0.864 1.356,-1.137 0.134,-0.072 0.593,0.467 1.221,0.991 z"
           id="path8041" />
        <path
           fill-rule="evenodd"
           clip-rule="evenodd"
           d="m 1426.909,522.451 c -0.426,0.492 -0.851,0.983 -1.276,1.476 -0.328,-0.417 -0.655,-0.834 -0.983,-1.251 0.593,-0.284 1.187,-0.569 1.779,-0.854 0.16,0.209 0.32,0.419 0.48,0.629 z"
           id="path8043" />
        <path
           fill-rule="evenodd"
           clip-rule="evenodd"
           d="m 1559.845,608.141 c -0.521,-1.647 -1.027,-2.995 -1.372,-4.384 -0.714,-2.872 -1.415,-5.751 -1.98,-8.654 -0.389,-1.998 -0.748,-4.043 -0.739,-6.065 0.01,-1.916 0.579,-3.822 0.786,-5.745 0.414,-3.866 1.471,-7.522 3.291,-10.963 0.798,-1.506 1.629,-3.006 2.281,-4.576 2.438,-5.871 7.763,-7.42 13.17,-8.484 1.568,-0.309 3.588,0.703 5.153,1.561 3.252,1.781 6.273,4.015 7.812,7.531 0.93,2.125 1.763,4.449 1.908,6.73 0.48,7.517 -1.175,14.664 -4.646,21.356 -1.64,3.163 -3.141,6.446 -5.179,9.341 -1.573,2.233 -3.642,4.323 -5.925,5.809 -4.163,2.708 -8.6,1.758 -12.646,-2.056 -0.681,-0.642 -1.519,-1.117 -1.914,-1.401 z m 9.578,3.153 c 2.174,0.047 3.888,-0.518 5.268,-1.926 1.822,-1.861 3.675,-3.696 5.415,-5.632 0.72,-0.8 1.13,-1.749 -0.097,-2.691 -0.513,-0.395 -0.681,-1.23 -1.022,-1.856 -1.518,-2.771 -2.965,-5.584 -4.592,-8.29 -1.002,-1.669 -2.303,-1.808 -3.296,-0.281 -3.151,4.847 -6.159,9.787 -9.161,14.729 -0.22,0.362 -0.158,1.201 0.117,1.509 2.043,2.284 4.17,4.497 7.368,4.438 z m 2.721,-23.456 c -1.067,-0.39 -1.823,-0.784 -2.625,-0.937 -3.714,-0.705 -7.172,0.536 -10.626,1.6 -0.446,0.138 -1.008,1.037 -0.946,1.509 0.508,3.876 1.106,7.741 1.781,11.592 0.194,1.104 0.731,2.147 1.173,3.396 4.043,-5.606 5.841,-12.25 11.243,-17.16 z m -6.732,-21.607 c -0.172,0.008 -0.344,0.017 -0.515,0.025 -1.14,1.95 -2.414,3.837 -3.379,5.87 -0.985,2.077 -1.667,4.298 -2.452,6.376 3.56,1.064 6.733,2.032 9.924,2.943 0.396,0.112 0.878,-0.077 1.807,-0.181 -0.819,-0.615 -1.194,-0.886 -1.558,-1.172 -2.321,-1.832 -4.66,-3.645 -6.934,-5.535 -0.279,-0.232 -0.204,-0.893 -0.293,-1.354 0.457,0.198 1.056,0.275 1.35,0.615 2.091,2.42 4.563,4.262 7.767,5.277 -1.222,-4.625 -4.164,-8.431 -5.717,-12.864 z m 9.56,9.69 c 0.3,0.024 0.6,0.049 0.899,0.072 0.921,-4.271 1.842,-8.54 2.83,-13.122 0.261,0.389 0.908,0.914 0.846,1.334 -0.383,2.573 -0.938,5.121 -1.412,7.682 -0.149,0.804 -0.226,1.621 -0.336,2.432 1.045,-0.932 1.687,-1.919 2.341,-2.897 0.695,-1.043 1.416,-2.069 2.104,-3.118 1.837,-2.8 1.897,-2.88 -0.613,-5.003 -2.062,-1.743 -4.401,-2.944 -7.466,-2.266 0.271,5.013 0.539,9.95 0.807,14.886 z m -9.252,-10.502 c 0.546,0.583 1.072,0.946 1.325,1.449 1.468,2.91 2.836,5.872 4.333,8.767 0.253,0.488 0.977,0.733 1.482,1.092 0.279,-0.563 0.822,-1.139 0.796,-1.688 -0.216,-4.602 -0.537,-9.199 -0.837,-13.953 -2.751,0.843 -5.474,1.747 -7.099,4.333 z m -7.542,22.056 c 4.212,-0.816 8.127,-1.575 12.126,-2.351 -0.05,-0.386 -0.153,-1.188 -0.284,-2.197 -3.353,-0.908 -6.703,-1.853 -10.082,-2.682 -0.371,-0.092 -1.267,0.431 -1.303,0.739 -0.242,2.117 -0.32,4.252 -0.457,6.491 z m 29.804,-5.194 c 0.145,-3.454 0.487,-6.828 -0.496,-10.608 -1.303,1.469 -2.354,2.644 -3.393,3.83 -1.444,1.649 -2.912,3.28 -4.288,4.985 -0.275,0.342 -0.247,0.986 -0.215,1.482 0.01,0.122 0.581,0.293 0.896,0.297 2.376,0.025 4.75,0.014 7.496,0.014 z m 0.111,0.898 c -1.931,0.152 -3.279,0.34 -4.63,0.35 -3.737,0.028 -3.738,-10e-4 -5.071,3.283 -0.042,0.104 -0.047,0.223 -0.12,0.591 2.37,1.415 4.809,2.872 7.529,4.497 0.808,-3.075 1.507,-5.733 2.292,-8.721 z m -6.71,17.461 c 0.187,-0.054 0.372,-0.107 0.559,-0.161 1.02,-2.258 2.061,-4.505 3.021,-6.786 0.091,-0.214 -0.244,-0.791 -0.523,-0.948 -2.423,-1.363 -4.879,-2.669 -7.562,-4.121 -0.334,0.36 -0.768,0.827 -1.348,1.453 1.98,3.573 3.916,7.068 5.853,10.563 z m -10.107,-18.787 c 0.75,1.92 1.339,3.766 2.187,5.483 0.672,1.364 1.763,1.013 2.574,0.06 1.405,-1.649 1.888,-3.599 1.725,-5.768 -0.236,-3.14 -1.167,-3.895 -4.212,-3.238 0.455,2.612 0.429,2.663 -2.274,3.463 z m 8.162,-3.055 c 0.072,-0.038 0.262,-0.087 0.373,-0.208 1.784,-1.923 3.597,-3.821 5.325,-5.794 2.602,-2.969 2.576,-2.991 0.053,-6.166 -0.032,-0.041 -0.107,-0.049 -0.39,-0.168 -2.361,3.499 -4.753,7.041 -6.802,10.076 0.389,0.611 0.899,1.411 1.441,2.26 z"
           id="path8045" />
        <path
           fill-rule="evenodd"
           clip-rule="evenodd"
           d="m 1566.792,513.863 c 0.655,1.688 0.781,3.603 -0.477,4.827 -0.848,0.826 -2.566,0.849 -3.922,1.002 -0.388,0.044 -0.865,-0.71 -1.302,-1.099 0.55,-0.219 1.126,-0.675 1.644,-0.615 2.675,0.305 2.958,0.039 2.813,-2.634 -0.03,-0.554 0.433,-1.135 0.669,-1.703 0.192,0.073 0.384,0.148 0.575,0.222 z"
           id="path8047" />
        <path
           fill-rule="evenodd"
           clip-rule="evenodd"
           d="m 1562.43,507.447 c 0.65,-0.336 1.277,-0.895 1.542,-0.757 1.483,0.774 3.308,1.19 4.136,3.297 -2.434,0.205 -3.895,-1.114 -5.678,-2.54 z"
           id="path8049" />
        <path
           fill-rule="evenodd"
           clip-rule="evenodd"
           d="m 1558.69,524.256 c -1.374,-0.984 -2.693,-1.903 -3.969,-2.88 -0.142,-0.108 -0.153,-0.684 -0.02,-0.795 0.288,-0.239 0.721,-0.464 1.075,-0.437 1.586,0.12 3.168,2.283 2.914,4.112 z"
           id="path8051" />
        <path
           fill-rule="evenodd"
           clip-rule="evenodd"
           d="m 1561.042,510.373 c 0.866,0.843 1.5,1.459 2.133,2.074 -0.479,0.271 -1.138,0.882 -1.401,0.743 -0.614,-0.322 -1.097,-0.968 -1.492,-1.573 -0.092,-0.139 0.381,-0.646 0.76,-1.244 z"
           id="path8053" />
        <path
           fill-rule="evenodd"
           clip-rule="evenodd"
           d="m 1570.539,519.778 c -0.73,0.481 -1.17,0.992 -1.587,0.975 -0.339,-0.015 -0.652,-0.661 -0.977,-1.027 0.413,-0.364 0.779,-0.871 1.261,-1.028 0.223,-0.075 0.669,0.532 1.303,1.08 z"
           id="path8055" />
        <path
           fill-rule="evenodd"
           clip-rule="evenodd"
           fill="#ffffff"
           d="m 1457.257,507.581 c -0.562,0.615 -1.122,1.23 -1.684,1.845 -0.19,-0.128 -0.381,-0.256 -0.571,-0.384 -0.033,-0.547 -0.066,-1.093 -0.105,-1.723 0.717,-0.125 1.322,-0.23 1.927,-0.336 0.144,0.199 0.288,0.398 0.433,0.598 z"
           id="path8057" />
        <path
           fill-rule="evenodd"
           clip-rule="evenodd"
           fill="#ffffff"
           d="m 1419.102,505.242 c -0.213,-1.458 -0.427,-2.793 -0.597,-4.133 -0.146,-1.153 0.672,-1.216 1.488,-1.229 1.123,-0.018 2.053,0.296 2.163,1.597 0.112,1.316 -1.477,3.289 -3.054,3.765 z"
           id="path8059" />
        <path
           fill-rule="evenodd"
           clip-rule="evenodd"
           fill="#ffffff"
           d="m 1421.521,511.795 c 1.132,2.168 1.058,3.607 -0.298,4.039 -0.456,0.146 -1.399,-0.223 -1.651,-0.639 -0.866,-1.433 -0.212,-2.518 1.949,-3.4 z"
           id="path8061" />
        <path
           fill-rule="evenodd"
           clip-rule="evenodd"
           fill="#ffffff"
           d="m 1569.423,611.294 c -3.198,0.059 -5.325,-2.154 -7.368,-4.439 -0.275,-0.308 -0.337,-1.146 -0.117,-1.509 3.002,-4.941 6.01,-9.882 9.161,-14.729 0.993,-1.526 2.294,-1.388 3.296,0.281 1.627,2.706 3.074,5.519 4.592,8.29 0.342,0.626 0.51,1.462 1.022,1.856 1.227,0.942 0.816,1.892 0.097,2.691 -1.74,1.936 -3.593,3.771 -5.415,5.632 -1.38,1.41 -3.094,1.974 -5.268,1.927 z m 4.383,-19.7 c -2.082,-0.276 -2.055,1.455 -2.156,2.192 -0.684,4.957 -1.142,9.945 -1.604,14.93 -0.04,0.431 0.428,0.907 0.659,1.362 0.265,-0.441 0.771,-0.89 0.757,-1.321 -0.158,-4.839 -0.01,-9.636 1.489,-14.3 0.294,-0.915 0.551,-1.841 0.855,-2.863 z"
           id="path8063" />
        <path
           fill-rule="evenodd"
           clip-rule="evenodd"
           fill="#ffffff"
           d="m 1572.144,587.838 c -5.401,4.909 -7.199,11.554 -11.243,17.16 -0.441,-1.249 -0.979,-2.293 -1.173,-3.396 -0.675,-3.851 -1.273,-7.716 -1.781,-11.592 -0.062,-0.472 0.5,-1.371 0.946,-1.509 3.454,-1.063 6.912,-2.305 10.626,-1.6 0.801,0.153 1.557,0.548 2.625,0.937 z"
           id="path8065" />
        <path
           fill-rule="evenodd"
           clip-rule="evenodd"
           fill="#ffffff"
           d="m 1565.412,566.231 c 1.553,4.433 4.495,8.239 5.717,12.865 -3.203,-1.016 -5.676,-2.857 -7.767,-5.277 -0.294,-0.34 -0.893,-0.417 -1.35,-0.615 0.089,0.462 0.014,1.122 0.293,1.354 2.273,1.891 4.612,3.703 6.934,5.535 0.363,0.286 0.738,0.557 1.558,1.172 -0.929,0.104 -1.411,0.293 -1.807,0.181 -3.19,-0.911 -6.364,-1.879 -9.924,-2.943 0.785,-2.078 1.467,-4.299 2.452,-6.376 0.965,-2.033 2.239,-3.92 3.379,-5.87 0.171,-0.009 0.343,-0.018 0.515,-0.026 z"
           id="path8067" />
        <path
           fill-rule="evenodd"
           clip-rule="evenodd"
           fill="#ffffff"
           d="m 1574.972,575.921 c -0.268,-4.937 -0.536,-9.873 -0.808,-14.887 3.064,-0.679 5.404,0.522 7.466,2.266 2.511,2.123 2.45,2.203 0.613,5.003 -0.688,1.049 -1.408,2.075 -2.104,3.118 -0.654,0.979 -1.296,1.966 -2.341,2.897 0.11,-0.811 0.187,-1.628 0.336,-2.432 0.474,-2.561 1.029,-5.108 1.412,-7.682 0.062,-0.42 -0.585,-0.945 -0.846,-1.334 -0.988,4.582 -1.909,8.852 -2.83,13.122 -0.299,-0.022 -0.599,-0.046 -0.898,-0.071 z"
           id="path8069" />
        <path
           fill-rule="evenodd"
           clip-rule="evenodd"
           fill="#ffffff"
           d="m 1565.72,565.419 c 1.625,-2.586 4.349,-3.49 7.1,-4.334 0.3,4.754 0.621,9.352 0.837,13.953 0.026,0.55 -0.517,1.125 -0.796,1.688 -0.506,-0.358 -1.229,-0.604 -1.482,-1.092 -1.497,-2.895 -2.865,-5.856 -4.333,-8.767 -0.254,-0.501 -0.78,-0.865 -1.326,-1.448 z"
           id="path8071" />
        <path
           fill-rule="evenodd"
           clip-rule="evenodd"
           fill="#ffffff"
           d="m 1558.178,587.475 c 0.138,-2.239 0.215,-4.374 0.457,-6.49 0.036,-0.309 0.932,-0.831 1.303,-0.739 3.379,0.829 6.729,1.773 10.082,2.682 0.131,1.01 0.234,1.812 0.284,2.197 -3.999,0.775 -7.914,1.534 -12.126,2.35 z"
           id="path8073" />
        <path
           fill-rule="evenodd"
           clip-rule="evenodd"
           fill="#ffffff"
           d="m 1587.982,582.281 c -2.746,0 -5.12,0.011 -7.495,-0.014 -0.315,-0.004 -0.889,-0.175 -0.896,-0.297 -0.032,-0.496 -0.061,-1.141 0.215,-1.482 1.376,-1.705 2.844,-3.336 4.288,-4.985 1.038,-1.187 2.09,-2.361 3.393,-3.83 0.983,3.78 0.64,7.154 0.495,10.608 z"
           id="path8075" />
        <path
           fill-rule="evenodd"
           clip-rule="evenodd"
           fill="#ffffff"
           d="m 1588.093,583.179 c -0.785,2.988 -1.483,5.646 -2.292,8.721 -2.721,-1.625 -5.159,-3.082 -7.529,-4.497 0.073,-0.368 0.078,-0.487 0.12,-0.591 1.333,-3.284 1.334,-3.255 5.071,-3.283 1.35,-0.01 2.699,-0.197 4.63,-0.35 z"
           id="path8077" />
        <path
           fill-rule="evenodd"
           clip-rule="evenodd"
           fill="#ffffff"
           d="m 1581.383,600.64 c -1.937,-3.495 -3.873,-6.99 -5.853,-10.563 0.58,-0.626 1.014,-1.093 1.348,-1.453 2.683,1.452 5.139,2.758 7.562,4.121 0.279,0.157 0.614,0.734 0.523,0.948 -0.961,2.281 -2.002,4.528 -3.021,6.786 -0.187,0.054 -0.373,0.107 -0.559,0.161 z"
           id="path8079" />
        <path
           fill-rule="evenodd"
           clip-rule="evenodd"
           fill="#ffffff"
           d="m 1571.276,581.853 c 2.702,-0.8 2.729,-0.851 2.273,-3.463 3.045,-0.656 3.976,0.099 4.212,3.238 0.163,2.169 -0.319,4.118 -1.725,5.768 -0.812,0.953 -1.902,1.305 -2.574,-0.06 -0.847,-1.717 -1.436,-3.563 -2.186,-5.483 z"
           id="path8081" />
        <path
           fill-rule="evenodd"
           clip-rule="evenodd"
           fill="#ffffff"
           d="m 1579.438,578.798 c -0.541,-0.85 -1.052,-1.649 -1.44,-2.26 2.049,-3.035 4.44,-6.577 6.802,-10.076 0.282,0.119 0.357,0.127 0.39,0.168 2.523,3.175 2.549,3.197 -0.053,6.166 -1.729,1.973 -3.541,3.871 -5.325,5.794 -0.113,0.121 -0.302,0.17 -0.374,0.208 z"
           id="path8083" />
        <path
           fill-rule="evenodd"
           clip-rule="evenodd"
           d="m 1573.806,591.594 c -0.304,1.021 -0.561,1.948 -0.854,2.863 -1.499,4.664 -1.647,9.461 -1.489,14.3 0.014,0.432 -0.492,0.88 -0.757,1.321 -0.231,-0.455 -0.699,-0.932 -0.659,-1.362 0.462,-4.984 0.92,-9.973 1.604,-14.93 0.1,-0.737 0.073,-2.468 2.155,-2.192 z"
           id="path8085" />
      </g>
    </g>
  </g>
</svg>
