<?xml version="1.0" encoding="UTF-8" standalone="no"?>
<svg
   xmlns:dc="http://purl.org/dc/elements/1.1/"
   xmlns:cc="http://creativecommons.org/ns#"
   xmlns:rdf="http://www.w3.org/1999/02/22-rdf-syntax-ns#"
   xmlns:svg="http://www.w3.org/2000/svg"
   xmlns="http://www.w3.org/2000/svg"
   xmlns:sodipodi="http://sodipodi.sourceforge.net/DTD/sodipodi-0.dtd"
   xmlns:inkscape="http://www.inkscape.org/namespaces/inkscape"
   sodipodi:docname="goal.svg"
   inkscape:version="1.0 (4035a4fb49, 2020-05-01)"
   id="svg5131"
   version="1.1"
   viewBox="0 0 82.016335 92.651695"
   height="92.651695mm"
   width="82.016335mm">
  <defs
     id="defs5125" />
  <sodipodi:namedview
     inkscape:window-maximized="1"
     inkscape:window-y="0"
     inkscape:window-x="0"
     inkscape:window-height="1012"
     inkscape:window-width="1920"
     showgrid="false"
     inkscape:document-rotation="0"
     inkscape:current-layer="layer1"
     inkscape:document-units="mm"
     inkscape:cy="175.76415"
     inkscape:cx="138.58805"
     inkscape:zoom="1.6593155"
     inkscape:pageshadow="2"
     inkscape:pageopacity="0.0"
     borderopacity="1.0"
     bordercolor="#666666"
     pagecolor="#ffffff"
     id="base" />
  <metadata
     id="metadata5128">
    <rdf:RDF>
      <cc:Work
         rdf:about="">
        <dc:format>image/svg+xml</dc:format>
        <dc:type
           rdf:resource="http://purl.org/dc/dcmitype/StillImage" />
        <dc:title />
      </cc:Work>
    </rdf:RDF>
  </metadata>
  <g
     transform="translate(-61.953779,-101.6624)"
     id="layer1"
     inkscape:groupmode="layer"
     inkscape:label="Calque 1">
    <g
       transform="matrix(0.26458333,0,0,0.26458333,-282.65569,93.242607)"
       id="g4838">
      <g
         id="g4836">
        <path
           fill-rule="evenodd"
           clip-rule="evenodd"
           d="m 1414.562,259.59 c -0.718,0.3 -1.435,0.6 -2.152,0.899 -0.111,-0.116 -0.224,-0.231 -0.335,-0.348 0.307,-0.873 0.614,-1.745 0.93,-2.642 -0.863,0.122 -1.686,0.239 -2.994,0.425 0.499,-0.84 0.847,-1.267 1.012,-1.756 0.123,-0.36 0.027,-1.151 0,-1.153 -1.137,-0.063 -2.378,-0.344 -3.394,0.01 -1.395,0.486 -1.968,1.784 -1.876,3.334 0.131,2.208 0.17,4.421 0.282,6.63 0.046,0.886 0.254,1.768 0.257,2.652 0,1.355 0.749,1.703 1.938,1.746 1.188,0.044 2.401,0.115 3.546,0.402 0.772,0.193 2.16,-0.141 1.999,1.396 -0.156,1.498 -1.454,1.713 -2.519,1.666 -1.589,-0.071 -3.165,-0.481 -4.742,-0.776 -2.624,-0.491 -4.963,-0.169 -7.058,1.759 -0.642,0.589 -1.972,0.756 -2.896,0.596 -0.621,-0.107 0.154,-2.42 1.412,-2.805 3.26,-0.997 4.644,-2.819 3.917,-6.331 -0.366,-1.769 -0.063,-3.675 -0.063,-5.519 -0.168,-0.116 -0.336,-0.231 -0.504,-0.347 -1.019,0.686 -2.089,1.307 -3.048,2.068 -5.218,4.136 -9.332,9.306 -13.536,14.407 -4.303,5.221 -8.703,10.365 -13.173,15.445 -3.265,3.71 -6.625,7.345 -10.094,10.865 -5.1,5.175 -10.224,10.369 -16.448,14.225 -2.042,1.265 -4.374,2.087 -6.635,2.951 -0.422,0.162 -1.138,-0.444 -1.718,-0.696 0.397,-0.515 0.687,-1.28 1.209,-1.505 5.374,-2.315 10.097,-5.658 14.258,-9.66 5.523,-5.312 10.814,-10.876 16.028,-16.497 4.486,-4.835 8.766,-9.865 13.053,-14.881 2.399,-2.807 4.47,-5.907 6.976,-8.609 2.66,-2.869 5.636,-5.45 8.524,-8.102 1.221,-1.122 2.646,-2.027 3.825,-3.188 0.472,-0.463 0.742,-1.353 0.735,-2.044 -0.052,-4.911 -0.174,-9.821 -0.33,-14.729 -0.057,-1.784 -0.269,-3.562 -0.6,-5.385 -0.095,0.571 -0.188,1.143 -0.282,1.715 -0.112,-0.025 -0.224,-0.05 -0.336,-0.075 0.263,-1.115 0.661,-2.218 0.757,-3.347 0.155,-1.839 0.147,-3.694 0.147,-5.542 0,-3.209 -0.107,-6.419 -0.055,-9.627 0.072,-4.42 0.351,-8.838 0.358,-13.258 0.01,-5.107 0.139,-10.247 -0.354,-15.316 -0.864,-8.888 -0.109,-17.762 -0.298,-26.639 -0.157,-7.362 -0.251,-14.726 -0.405,-22.088 -0.029,-1.427 0.051,-2.947 -0.418,-4.243 -0.307,-0.846 -1.416,-1.685 -2.338,-1.971 -2.529,-0.785 -3.18,-1.715 -2.628,-4.298 0.165,-0.774 0.134,-1.625 0.019,-2.415 -0.185,-1.262 1.329,-5.645 2.393,-5.798 1.249,-0.181 2.594,0.301 4.047,0.519 -0.211,-0.301 -0.421,-0.808 -0.798,-1.096 -1.26,-0.96 -2.188,-1.842 -1.856,-3.773 0.278,-1.624 -0.173,-3.385 -0.375,-5.077 -0.504,-4.208 -1.063,-8.409 -1.576,-12.616 -0.591,-4.855 -1.173,-9.712 -1.721,-14.572 -0.188,-1.665 -0.273,-3.342 -0.385,-5.015 -0.399,-6.026 -0.789,-12.053 -1.19,-18.08 -0.011,-0.168 -0.103,-0.332 -0.22,-0.688 -0.733,0.087 -1.497,0.104 -2.223,0.277 -7.248,1.724 -14.494,3.458 -21.732,5.221 -7.419,1.808 -14.865,3.52 -22.234,5.513 -9.486,2.566 -18.901,5.397 -28.363,8.058 -3.554,1 -7.141,1.889 -10.741,2.705 -0.653,0.148 -1.602,-0.125 -2.106,-0.56 -0.265,-0.228 -0.023,-1.312 0.263,-1.868 2.592,-5.054 5.269,-10.064 7.824,-15.136 0.167,-0.332 -0.313,-1.357 -0.732,-1.558 -2.629,-1.258 -5.324,-2.377 -8.002,-3.534 -0.38,-0.164 -0.853,-0.189 -1.155,-0.436 -0.45,-0.366 -0.787,-0.87 -1.172,-1.316 0.465,-0.389 0.873,-0.985 1.404,-1.132 4.133,-1.146 8.273,-2.275 12.444,-3.273 4.98,-1.192 9.974,-2.353 14.997,-3.34 6.431,-1.264 12.903,-2.312 19.348,-3.509 5.102,-0.948 10.18,-2.02 15.281,-2.967 5.918,-1.1 11.846,-2.149 17.778,-3.167 2.444,-0.419 4.913,-0.699 7.016,-0.992 -0.454,-1.409 -1.183,-2.767 -1.279,-4.168 -0.169,-2.453 2.107,-4.243 4.521,-3.686 1.363,0.315 2.741,0.792 3.953,1.479 1.237,0.7 1.344,1.975 0.164,2.788 -1.871,1.289 -1.844,3.047 -1.698,4.943 0.428,5.543 0.821,11.089 1.262,16.631 0.337,4.237 0.702,8.472 1.093,12.705 0.977,10.59 1.935,21.184 2.981,31.767 0.463,4.684 1.11,9.35 1.713,14.019 0.065,0.508 0.272,1.102 0.618,1.454 2.444,2.486 4.934,4.927 7.431,7.359 0.32,0.312 0.742,0.592 1.166,0.714 7.742,2.231 15.477,4.49 23.246,6.623 3.501,0.961 6.351,-0.443 8.908,-2.835 3.012,-2.816 6.009,-5.687 9.295,-8.158 2.025,-1.524 4.571,-2.361 6.897,-3.475 0.639,-0.305 1.331,-0.702 2.001,-0.706 4.482,-0.025 5.101,-2.932 4.985,-6.467 -0.014,-0.433 0.188,-0.872 0.61,-1.267 0.256,2.377 1.027,4.764 -0.165,7.032 -0.967,1.837 -3.004,1.626 -4.61,1.863 -5.284,0.779 -9.274,3.645 -13.019,7.198 -2.928,2.777 -6.113,5.284 -9.224,7.864 -2.116,1.756 -4.519,0.863 -6.671,0.272 -5.269,-1.445 -10.445,-3.222 -15.682,-4.79 -2.281,-0.683 -4.65,-1.078 -6.912,-1.809 -0.967,-0.313 -1.902,-1.02 -2.609,-1.774 -1.886,-2.016 -3.639,-4.154 -5.445,-6.244 -0.245,0.127 -0.491,0.255 -0.737,0.383 0.372,2.213 0.894,4.414 1.073,6.643 0.188,2.31 0.042,4.646 0.042,7.191 2.621,-0.82 5.11,-1.599 8.018,-2.507 -0.587,1.204 -1.046,2.145 -1.531,3.14 4.751,2.059 9.497,4.111 14.24,6.171 2.611,1.134 5.302,2.123 7.806,3.459 4.035,2.152 7.738,1.373 11.259,-0.978 3.664,-2.446 7.184,-5.108 10.807,-7.618 1.092,-0.757 2.317,-1.32 3.611,-1.827 -1.359,3.789 -0.233,7.532 -0.41,11.221 -0.202,4.243 -0.367,8.5 -0.244,12.742 0.157,5.418 0.753,10.825 0.899,16.243 0.095,3.477 -1.269,6.305 -4.412,8.33 -5.523,3.558 -10.866,7.396 -16.306,11.085 -2.656,1.802 -5.355,3.54 -8.041,5.299 -3.035,1.988 -4.553,4.912 -5.199,8.381 -1.329,7.137 -1.503,14.324 -1.151,21.559 0.212,4.343 0.111,8.701 0.188,13.052 0.021,1.184 0.177,2.364 0.267,3.546 0.333,4.375 -1.794,5.071 -4.69,5.937 -2.824,0.843 -5.707,1.486 -8.558,2.24 -0.317,0.084 -0.595,0.322 -0.851,0.809 0.674,0 1.348,0 2.222,0 -0.081,0.931 -0.155,1.771 -0.24,2.742 0.751,-0.113 1.461,-0.22 2.062,-0.311 0.919,1.227 -1.589,2.158 -0.025,3.294 0.06,0.092 0.13,0.175 0.209,0.253 z m 42.434,-123.522 c -0.501,0.143 -0.638,0.144 -0.719,0.211 -5.014,4.138 -10.271,7.901 -16.37,10.298 -0.841,0.33 -1.915,0.468 -2.776,0.26 -1.841,-0.445 -3.66,-1.066 -5.403,-1.812 -3.606,-1.543 -7.131,-3.281 -10.739,-4.819 -4.37,-1.863 -8.793,-3.6 -13.189,-5.4 -1.614,-0.661 -3.61,0.613 -3.52,2.39 0.143,2.8 0.562,5.59 0.646,8.391 0.222,7.362 0.348,14.727 0.472,22.091 0.143,8.568 0.251,17.136 0.359,25.705 0.062,5.023 0.131,10.047 0.13,15.07 -10e-4,3.473 -0.162,6.945 -0.169,10.417 -0.013,6.131 0.046,12.262 0.061,18.393 0.012,4.789 0,9.578 0,14.714 0.927,-0.387 1.599,-0.57 2.169,-0.921 4.33,-2.663 9.118,-4.032 14.021,-5.137 0.445,-0.101 1.054,-0.897 1.046,-1.361 -0.062,-3.753 -0.415,-7.506 -0.374,-11.256 0.097,-8.646 -0.486,-17.302 0.99,-25.926 0.873,-5.094 3.104,-9.021 7.459,-11.745 3.867,-2.419 7.824,-4.703 11.607,-7.246 4.293,-2.885 8.446,-5.978 12.638,-9.011 1.588,-1.149 2.29,-2.703 2.229,-4.727 -0.211,-6.858 -0.37,-13.718 -0.453,-20.579 -0.065,-5.456 0.013,-10.915 0.016,-16.372 0,-0.498 -0.08,-0.997 -0.133,-1.628 z M 1309.657,78.554 c 0.622,0 0.928,0.06 1.202,-0.009 5.141,-1.282 10.301,-2.499 15.412,-3.894 7.399,-2.02 14.731,-4.292 22.15,-6.231 7.43,-1.942 14.933,-3.606 22.402,-5.397 6.895,-1.652 13.793,-3.291 20.669,-5.016 0.481,-0.121 1.146,-0.919 1.132,-1.386 -0.131,-4.65 -0.387,-9.298 -0.605,-13.905 -6.062,-0.809 -79.809,13.088 -83.547,15.75 0.9,0.365 1.739,0.657 2.535,1.037 1.392,0.664 2.856,1.243 4.1,2.126 0.827,0.588 1.531,1.567 1.873,2.521 0.158,0.441 -0.684,1.239 -1.067,1.878 -0.061,0.102 -0.091,0.221 -0.145,0.328 -1.99,3.974 -3.98,7.947 -6.111,12.198 z m 91.888,46.914 c 0.075,-0.159 0.151,-0.317 0.227,-0.476 -0.9,-0.608 -1.764,-1.287 -2.713,-1.81 -1.516,-0.836 -2.469,0.184 -2.937,1.352 -0.372,0.929 -0.188,2.081 -0.245,3.135 -0.047,0.901 -0.169,1.81 -0.098,2.703 0.049,0.606 0.208,1.517 0.607,1.721 1.134,0.576 2.407,0.896 3.646,1.241 0.574,0.16 1.196,0.145 1.796,0.208 0.014,-0.151 0.027,-0.301 0.04,-0.452 -0.874,-0.353 -1.741,-0.726 -2.625,-1.054 -1.006,-0.373 -2.027,-0.705 -0.822,-1.982 1.437,0.479 2.844,0.95 4.251,1.42 0.07,-0.204 0.141,-0.408 0.211,-0.612 -0.921,-0.5 -1.857,-0.974 -2.758,-1.508 -0.832,-0.494 -2.133,-0.741 -1.426,-2.369 1.192,0.546 2.305,1.056 3.811,1.747 -1.297,-2.024 -4.236,-1.733 -4.369,-4.559 1.314,0.5 2.359,0.898 3.404,1.295 z m -5.559,-90.039 c -0.029,-0.262 -0.06,-0.524 -0.089,-0.786 -1.011,-0.136 -2.082,-0.518 -3.005,-0.292 -0.39,0.095 -0.466,1.47 -0.685,2.263 0.213,0.16 0.426,0.319 0.64,0.479 1.047,-0.555 2.092,-1.11 3.139,-1.664 z"
           id="path4788" />
        <path
           fill-rule="evenodd"
           clip-rule="evenodd"
           d="m 1414.562,259.59 c -0.078,-0.078 -0.148,-0.162 -0.212,-0.251 0.518,-0.585 0.931,-1.39 1.58,-1.7 0.854,-0.408 1.701,-0.151 1.577,1.122 -0.056,0.567 -0.158,1.13 -0.271,1.907 0.578,-0.313 0.961,-0.521 1.45,-0.786 0.248,0.4 0.478,0.726 0.659,1.076 0.16,0.311 0.267,0.648 0.521,1.282 0.473,-0.545 1.079,-0.917 1.11,-1.331 0.224,-3.031 2.558,-3.802 4.829,-4.508 3.118,-0.969 6.287,-1.78 9.448,-2.604 1.333,-0.347 1.754,-1.081 1.555,-2.433 -0.467,-3.17 -0.85,-6.353 -1.21,-9.536 -0.054,-0.473 0.199,-0.981 0.31,-1.474 0.177,0.019 0.354,0.038 0.53,0.056 0,1.045 0,2.091 0,3.055 8.394,-1.789 16.685,-2.702 25.058,-2.478 8.277,0.222 16.548,0.737 25.053,1.135 -0.589,-3.769 -1.229,-7.548 -1.758,-11.343 -0.74,-5.314 -1.396,-10.641 -2.09,-15.962 -0.633,-4.85 -1.286,-9.697 -1.898,-14.549 -0.471,-3.729 -0.864,-7.466 -1.359,-11.191 -0.13,-0.975 -0.469,-1.932 -0.811,-2.86 -0.089,-0.241 -0.58,-0.521 -0.842,-0.481 -2.729,0.413 -5.656,-0.112 -8.148,1.434 -1.666,1.034 -3.162,2.339 -4.793,3.435 -4.918,3.304 -9.854,6.578 -14.801,9.837 -3.066,2.021 -6.17,3.985 -9.248,5.988 -2.067,1.345 -2.547,3.455 -2.689,5.712 -0.424,6.745 -0.859,13.489 -1.258,20.235 -0.123,2.086 -0.135,4.179 -0.215,6.267 -0.012,0.32 -0.119,0.636 -0.587,0.979 -0.063,-0.591 -0.207,-1.186 -0.18,-1.773 0.278,-6.164 0.554,-12.327 0.894,-18.487 0.162,-2.923 0.41,-5.844 0.71,-8.755 0.35,-3.399 2.13,-6.202 5.096,-7.526 4.078,-1.821 7.615,-4.436 11.427,-6.637 3.354,-1.938 6.516,-4.156 9.587,-6.518 1.74,-1.338 3.859,-2.244 5.414,-3.751 2.696,-2.613 6.202,-1.57 9.249,-2.499 1.259,-0.384 1.43,0.911 1.581,1.678 0.646,3.267 1.306,6.542 1.703,9.844 1.029,8.545 1.835,17.117 2.903,25.657 0.644,5.146 1.673,10.242 2.416,15.377 0.957,6.615 1.71,13.26 2.766,19.858 0.212,1.326 1.132,2.798 2.172,3.671 1.549,1.3 2.77,2.621 3.475,4.564 0.983,2.711 1.974,5.369 1.91,8.325 -0.013,0.591 0.609,1.197 0.939,1.796 0.402,-0.429 0.797,-0.865 1.208,-1.286 0.42,-0.43 1.032,-1.273 1.251,-1.184 0.618,0.254 1.078,0.894 1.689,1.465 0.434,-0.655 0.856,-1.972 1.501,-2.091 0.75,-0.139 1.693,0.772 2.649,1.279 0.201,-0.443 0.41,-0.903 0.705,-1.554 0.738,0.308 1.46,0.737 2.236,0.894 0.643,0.129 1.349,-0.064 2.026,-0.114 -0.064,-0.599 0.068,-1.327 -0.226,-1.776 -1.695,-2.592 -3.79,-4.965 -5.186,-7.7 -2.346,-4.595 -5.408,-8.798 -5.868,-14.386 -0.237,-2.883 -0.174,-5.799 -0.476,-8.687 -0.305,-2.911 -0.176,-5.865 -0.334,-8.796 -0.371,-6.862 -0.836,-13.72 -1.195,-20.583 -0.316,-6.034 -0.604,-12.07 -0.783,-18.108 -0.133,-4.476 -0.735,-8.84 -1.892,-13.181 -0.62,-2.328 -0.622,-4.841 -0.74,-7.279 -0.22,-4.547 -0.325,-9.101 -0.469,-13.652 -0.173,-5.498 -0.218,-11.002 -0.543,-16.49 -0.211,-3.558 -0.951,-7.083 -1.222,-10.639 -0.301,-3.956 -0.041,-4.377 3.822,-4.405 5.437,-0.039 10.876,0.324 16.314,0.52 4.247,0.153 8.501,0.534 12.74,0.41 4.554,-0.133 6.347,-2.188 7.341,-6.969 1.05,-5.047 2.37,-10.038 3.477,-15.075 0.778,-3.544 1.378,-7.127 2.093,-10.686 0.513,-2.555 1.224,-5.078 1.598,-7.651 0.486,-3.354 2.678,-5.308 5.231,-7.059 1.336,-0.917 2.67,-1.838 4.005,-2.757 -0.099,-0.253 -0.197,-0.506 -0.296,-0.76 -1.494,0.347 -3.015,0.611 -4.473,1.071 -0.985,0.311 -1.861,0.956 -2.831,1.333 -0.45,0.174 -1.193,0.275 -1.468,0.031 -0.288,-0.257 -0.36,-1.031 -0.204,-1.463 0.566,-1.572 1.292,-3.086 1.908,-4.642 0.228,-0.575 0.32,-1.203 0.474,-1.807 -0.145,-0.078 -0.289,-0.157 -0.435,-0.235 -1.253,1.625 -2.461,3.288 -3.782,4.855 -0.479,0.568 -1.229,0.909 -1.854,1.354 -0.281,-0.728 -0.644,-1.436 -0.827,-2.188 -0.33,-1.347 -0.552,-2.719 -0.819,-4.082 -0.193,0.007 -0.389,0.015 -0.583,0.022 -0.267,2.074 -0.534,4.148 -0.801,6.222 -0.243,0.07 -0.487,0.141 -0.731,0.211 -1.366,-1.774 -2.732,-3.548 -4.1,-5.322 -0.191,0.106 -0.383,0.212 -0.573,0.318 0.825,2.733 1.598,5.483 2.503,8.189 0.319,0.955 0.741,1.781 -0.176,2.607 -0.91,0.82 -1.832,1.253 -3.08,0.614 -0.912,-0.467 -1.932,-0.726 -2.903,-1.077 -0.099,0.175 -0.197,0.35 -0.297,0.525 0.701,0.544 1.399,1.09 2.103,1.632 1.459,1.125 2.926,2.242 4.38,3.374 1.774,1.381 1.883,3.316 1.304,5.174 -2.194,7.043 -4.506,14.051 -6.844,21.049 -0.35,1.048 -1.043,1.99 -1.63,2.947 -0.843,1.373 -2.058,2.08 -3.713,1.991 -4.29,-0.23 -8.594,-0.298 -12.868,-0.691 -4.98,-0.458 -9.924,-1.325 -14.906,-1.751 -2.535,-0.217 -5.119,0.168 -7.683,0.24 -2.977,0.083 -3.963,-0.038 -5.159,-3.385 -0.259,-0.722 -0.604,-1.413 -0.873,-2.131 -0.387,-1.026 -1.073,-1.343 -2.188,-1.369 -8.406,-0.19 -11.222,-2.829 -14.14,-10.966 -2.14,-5.967 -0.322,-11.399 4.3,-15.593 2.444,-2.217 5.677,-3.285 9.024,-3.548 1.847,-0.145 3.715,-0.02 5.573,-0.005 2.487,0.02 4.41,1.352 5.801,3.147 3.394,4.38 4.529,9.265 3.188,14.822 -1.364,5.654 -4.762,9.218 -10.024,11.27 -0.37,0.145 -0.687,0.427 -1.037,0.651 0.562,1.27 1.015,2.489 1.624,3.624 0.729,1.355 2.082,1.735 3.49,1.743 1.55,0.008 3.113,-0.311 4.65,-0.204 4.403,0.307 8.794,0.778 13.193,1.146 5.471,0.458 10.942,0.902 16.417,1.303 2.496,0.183 4.374,-0.963 5.266,-3.246 1.464,-3.75 2.762,-7.568 4.036,-11.389 1.019,-3.051 1.968,-6.128 2.817,-9.23 0.965,-3.529 0.705,-3.98 -2.271,-6.162 -1.719,-1.261 -3.427,-2.561 -4.977,-4.017 -0.509,-0.478 -0.508,-1.5 -0.739,-2.272 0.756,-0.125 1.547,-0.456 2.263,-0.335 1.679,0.281 3.322,0.777 5.395,1.289 -0.819,-2.773 -1.517,-5.124 -2.205,-7.478 -0.267,-0.913 -0.569,-1.822 -0.744,-2.753 -0.088,-0.47 0.01,-1.394 0.136,-1.414 0.604,-0.099 1.442,-0.189 1.836,0.145 0.928,0.788 1.671,1.801 2.449,2.756 0.432,0.53 0.783,1.126 1.381,1.999 0.356,-2.693 0.66,-4.984 0.964,-7.275 2.158,1.613 2.62,3.656 2.866,5.795 0.049,0.415 0.196,0.818 0.298,1.228 0.415,-0.264 0.942,-0.44 1.225,-0.806 1.125,-1.455 2.143,-2.992 3.266,-4.448 0.411,-0.534 1.004,-0.928 1.665,-1.52 1.663,3.29 -0.967,5.67 -1.109,8.68 0.664,-0.245 1.27,-0.51 1.899,-0.693 1.76,-0.513 3.514,-1.078 5.31,-1.409 0.355,-0.065 1.157,0.757 1.286,1.284 0.401,1.643 -0.632,2.621 -1.899,3.482 -1.465,0.997 -2.799,2.19 -4.275,3.168 -1.726,1.143 -2.156,2.906 -2.572,4.719 -1.305,5.679 -2.66,11.348 -3.906,17.04 -0.904,4.129 -1.59,8.306 -2.516,12.429 -0.716,3.189 -1.619,6.339 -2.537,9.477 -0.121,0.411 -0.787,0.767 -1.275,0.944 -1.394,0.506 -2.799,1.091 -4.25,1.306 -1.982,0.293 -4.021,0.463 -6.017,0.352 -5.854,-0.325 -11.695,-0.905 -17.551,-1.201 -2.738,-0.139 -5.498,0.147 -8.248,0.24 -1.19,0.04 -1.534,0.786 -1.441,1.812 0.244,2.707 0.639,5.405 0.765,8.116 0.298,6.392 0.451,12.79 0.706,19.184 0.195,4.895 0.263,9.806 0.752,14.673 0.381,3.788 1.37,7.512 1.994,11.28 0.262,1.583 0.331,3.204 0.396,4.812 0.239,5.891 0.37,11.788 0.673,17.675 0.295,5.731 0.79,11.452 1.116,17.181 0.153,2.692 0.064,5.396 0.18,8.091 0.179,4.179 0.439,8.354 0.67,12.622 1.583,0.446 3.121,0.885 4.662,1.312 5.757,1.594 10.292,5.167 13.92,9.631 6.604,8.128 12.682,16.683 19.241,24.85 3.081,3.836 6.742,7.212 10.192,10.746 4.23,4.332 8.784,8.384 12.687,12.99 2.773,3.273 4.979,7.121 6.943,10.964 3.11,6.083 5.906,12.335 8.645,18.598 1.832,4.188 5.357,6.146 9.193,7.931 3.746,1.744 6.859,4.267 7.736,8.539 0.385,1.872 0.264,3.916 0.02,5.835 -0.52,4.071 -0.524,8.146 1.099,11.884 0.699,1.609 2.53,3.016 4.181,3.867 4.37,2.253 8.394,4.927 11.973,8.284 0.218,0.204 0.454,0.406 0.606,0.654 0.183,0.297 0.283,0.644 0.568,1.322 -0.488,0.375 -1.003,0.976 -1.649,1.204 -0.516,0.182 -1.479,0.143 -1.753,-0.195 -3.011,-3.714 -6.952,-6.354 -11.165,-8.169 -5.468,-2.357 -6.746,-6.71 -7.065,-11.767 -0.188,-2.959 0.01,-5.957 0.213,-8.924 0.31,-4.505 -2.047,-7.285 -5.711,-9.277 -2.147,-1.167 -4.438,-2.098 -6.485,-3.416 -2.745,-1.767 -3.675,-4.877 -4.955,-7.659 -1.891,-4.111 -3.444,-8.389 -5.526,-12.396 -1.968,-3.785 -4.505,-7.269 -6.661,-10.96 -3.666,-6.273 -8.956,-11.042 -14.299,-15.781 -6.109,-5.419 -11.256,-11.677 -16.123,-18.214 -4.871,-6.542 -9.817,-13.048 -15.087,-19.268 -3.535,-4.172 -8.201,-7 -13.551,-8.508 -0.224,-0.063 -0.475,-0.08 -0.705,-0.053 -0.227,0.025 -0.444,0.133 -0.649,0.199 0.075,3.253 1.158,6.091 2.825,8.789 1.581,2.56 2.809,5.349 4.502,7.825 1.688,2.468 3.76,4.672 5.735,7.08 -4.417,1.966 -4.417,1.966 -6.658,1.656 -0.15,0.61 -0.306,1.235 -0.558,2.253 -0.752,-0.715 -1.329,-1.108 -1.693,-1.646 -0.643,-0.95 -1.07,-0.95 -1.659,0.047 -1.354,2.294 -1.38,2.279 -3.108,-0.082 -0.337,0.564 -0.618,1.043 -0.907,1.518 -0.771,1.269 -2.31,1.36 -2.92,0.041 -0.531,-1.149 -0.931,-2.454 -0.99,-3.708 -0.181,-3.783 -1.163,-7.251 -4.139,-9.708 -2.611,-2.156 -3.754,-4.682 -3.668,-8.047 0.058,-2.246 -0.352,-4.518 -0.721,-6.75 -0.078,-0.468 -0.884,-1.145 -1.377,-1.166 -10.225,-0.428 -20.453,-1.024 -30.682,-1.035 -5.335,-0.006 -10.671,1.047 -16.006,1.624 -0.707,0.077 -1.413,0.168 -2.423,0.289 0.397,1.123 0.717,2.15 1.122,3.143 0.996,2.443 -0.596,5.594 -3.36,6.274 -3.62,0.89 -7.312,1.504 -10.897,2.506 -0.77,0.215 -1.365,1.515 -1.779,2.434 -0.563,1.247 -0.856,2.626 -2.665,2.793 -0.231,-0.682 -0.451,-1.329 -0.747,-2.203 -0.725,0.389 -1.345,0.722 -2.36,1.268 0.142,-1.437 0.253,-2.577 0.378,-3.85 -0.786,0.297 -1.372,0.518 -1.956,0.738 z m 59.427,-151.854 c 3.575,0.061 6.796,-1.004 8.771,-2.612 4.661,-3.795 6.639,-8.681 5.707,-14.569 -0.8,-5.048 -3.025,-8.947 -8.942,-9.506 -2.661,-0.251 -5.425,0.322 -8.115,0.712 -3.484,0.505 -5.904,2.659 -7.636,5.589 -2.545,4.308 -2.447,8.652 -0.34,13.181 2.181,4.689 5.474,7.391 10.555,7.205 z"
           id="path4790" />
        <path
           fill-rule="evenodd"
           clip-rule="evenodd"
           d="m 1473.407,132.411 c -2.03,2.883 -5.698,4.12 -8.418,2.971 -1.148,-0.484 -2.803,-0.726 -2.734,-3.132 3.722,3.042 7.247,1.796 11.152,0.161 z"
           id="path4792" />
        <path
           fill-rule="evenodd"
           clip-rule="evenodd"
           d="m 1488.713,129.607 c -0.269,0.538 -0.442,1.158 -0.822,1.601 -2.618,3.047 -5.851,4.713 -9.01,3.18 -0.336,-0.163 -0.535,-0.609 -0.799,-0.924 0.321,-0.173 0.648,-0.509 0.963,-0.496 5.344,0.213 5.496,0.163 9.668,-3.361 z"
           id="path4794" />
        <path
           fill-rule="evenodd"
           clip-rule="evenodd"
           fill="#ffffff"
           d="m 1456.996,136.068 c 0.053,0.631 0.131,1.13 0.13,1.628 0,5.458 -0.081,10.916 -0.016,16.372 0.083,6.861 0.242,13.721 0.453,20.579 0.062,2.023 -0.641,3.577 -2.229,4.727 -4.191,3.034 -8.345,6.126 -12.638,9.011 -3.783,2.543 -7.74,4.827 -11.607,7.246 -4.354,2.724 -6.586,6.651 -7.459,11.745 -1.477,8.624 -0.894,17.279 -0.99,25.926 -0.041,3.75 0.312,7.502 0.374,11.256 0.01,0.464 -0.601,1.261 -1.046,1.361 -4.902,1.105 -9.69,2.475 -14.021,5.137 -0.57,0.351 -1.242,0.534 -2.169,0.921 0,-5.136 0.01,-9.925 0,-14.714 -0.015,-6.131 -0.073,-12.262 -0.061,-18.393 0.01,-3.473 0.168,-6.945 0.169,-10.417 10e-4,-5.023 -0.067,-10.047 -0.13,-15.07 -0.108,-8.569 -0.217,-17.137 -0.359,-25.705 -0.124,-7.365 -0.25,-14.729 -0.472,-22.091 -0.084,-2.801 -0.503,-5.59 -0.646,-8.391 -0.091,-1.776 1.905,-3.05 3.52,-2.39 4.396,1.8 8.819,3.537 13.189,5.4 3.608,1.539 7.133,3.276 10.739,4.819 1.743,0.746 3.562,1.367 5.403,1.812 0.861,0.208 1.936,0.07 2.776,-0.26 6.099,-2.397 11.356,-6.16 16.37,-10.298 0.084,-0.067 0.221,-0.068 0.722,-0.211 z"
           id="path4796" />
        <path
           fill-rule="evenodd"
           clip-rule="evenodd"
           fill="#ffffff"
           d="m 1309.657,78.554 c 2.131,-4.251 4.121,-8.225 6.111,-12.198 0.054,-0.107 0.084,-0.227 0.145,-0.328 0.384,-0.639 1.226,-1.437 1.067,-1.878 -0.342,-0.954 -1.046,-1.934 -1.873,-2.521 -1.243,-0.883 -2.708,-1.462 -4.1,-2.126 -0.796,-0.38 -1.635,-0.672 -2.535,-1.037 3.738,-2.662 77.484,-16.559 83.547,-15.75 0.219,4.607 0.475,9.255 0.605,13.905 0.014,0.467 -0.65,1.265 -1.132,1.386 -6.876,1.725 -13.774,3.363 -20.669,5.016 -7.47,1.791 -14.973,3.455 -22.402,5.397 -7.419,1.939 -14.751,4.212 -22.15,6.231 -5.111,1.395 -10.271,2.611 -15.412,3.894 -0.274,0.069 -0.58,0.009 -1.202,0.009 z m 17.823,-15.386 c 0.021,-1.952 -1.296,-3.869 -2.65,-3.859 -2.356,0.017 -4.34,2.051 -4.396,4.509 -0.045,1.894 1.724,4.125 3.269,4.125 1.652,0 3.754,-2.656 3.777,-4.775 z m 31.352,-10.436 c -0.261,2.604 -1.246,5.058 -0.655,7.611 0.821,-1 1.495,-2.461 2.136,-2.447 0.882,0.02 1.738,1.155 2.732,1.907 -0.279,-3.109 -2.558,-4.867 -4.213,-7.071 z m 24.159,-2.844 c -0.114,-2.966 2.859,-1.476 3.676,-3.13 -1.653,-0.294 -3.128,0.651 -4.733,0.987 0.285,2.114 0.554,4.097 0.843,6.24 1.87,-0.474 3.684,-0.934 5.497,-1.394 -0.066,-0.246 -0.132,-0.493 -0.198,-0.739 -1.47,0.311 -2.939,0.621 -4.59,0.97 -0.044,-0.495 -0.243,-1.259 -0.097,-1.333 1.261,-0.634 2.585,-1.143 4.219,-1.828 -1.701,-1.126 -2.885,0.293 -4.617,0.227 z m -13.089,6.645 c -1.963,-1.876 -3.503,-3.348 -5.044,-4.82 -0.14,0.098 -0.28,0.196 -0.421,0.294 0.459,2.065 -0.227,4.262 0.49,6.298 0.197,-0.013 0.395,-0.026 0.593,-0.039 0,-1.485 0,-2.97 0,-4.76 1.59,1.5 3.034,2.862 4.467,4.213 1.162,-1.011 0.518,-6.121 -1.111,-7.488 0.345,2.116 0.645,3.958 1.026,6.302 z m -19.911,-1.902 c 2.46,2.009 1.197,5.089 3.004,7.307 0.116,-0.572 0.242,-0.805 0.188,-0.985 -0.594,-1.991 -0.743,-3.753 1.324,-5.175 0.547,-0.375 0.448,-1.689 0.646,-2.573 -0.853,-0.068 -1.77,-0.365 -2.539,-0.144 -0.893,0.258 -1.659,0.968 -2.623,1.57 z m -8.915,7.678 c -0.929,0.771 -1.55,1.335 -2.222,1.832 -1.302,0.963 -2.36,0.585 -2.782,-0.958 -0.896,-3.277 -10e-4,-4.832 3.445,-5.99 -0.066,-0.09 -0.115,-0.224 -0.203,-0.259 -0.158,-0.064 -0.341,-0.092 -0.515,-0.097 -1.812,-0.051 -2.937,1.03 -3.556,2.52 -0.914,2.198 -0.499,4.767 0.908,5.605 0.658,0.392 1.893,0.633 2.403,0.278 0.91,-0.633 2.572,-0.778 2.522,-2.931 z m -7.676,-3.131 c -0.837,-1.321 -1.841,-1.062 -2.751,-0.656 -1.237,0.55 -2.08,2.677 -1.523,4.589 0.305,1.049 1.164,2.338 2.093,2.7 1.119,0.436 2.637,0.138 3.297,-1.436 -1.062,0.116 -2.329,0.944 -2.987,0.602 -0.823,-0.429 -1.501,-1.778 -1.615,-2.8 -0.25,-2.248 1.424,-2.901 3.486,-2.999 z m 42.215,-2.042 c 0.224,-0.057 0.448,-0.113 0.673,-0.169 -0.16,-0.72 -0.392,-1.431 -0.467,-2.159 -0.22,-2.116 -2.129,-4.549 1.321,-6.19 -2.532,-0.816 -3.98,1.266 -5.975,1.359 0.035,0.17 0.07,0.341 0.105,0.511 0.947,-0.117 1.895,-0.233 2.891,-0.355 0.564,2.385 0.127,4.919 1.452,7.003 z m -33.404,-0.115 c -0.096,2.065 1.227,4.546 2.763,5.061 0.503,0.168 1.365,0.053 1.724,-0.289 0.911,-0.871 0.362,-5.556 -0.757,-6.69 -0.984,2.161 1.443,4.507 -0.616,6.874 -1.098,-1.747 -2.071,-3.296 -3.114,-4.956 z"
           id="path4798" />
        <path
           fill-rule="evenodd"
           clip-rule="evenodd"
           fill="#ffffff"
           d="m 1401.545,125.468 c -1.045,-0.397 -2.09,-0.795 -3.404,-1.295 0.133,2.826 3.072,2.534 4.369,4.559 -1.506,-0.69 -2.618,-1.2 -3.811,-1.747 -0.707,1.627 0.594,1.875 1.426,2.369 0.9,0.535 1.837,1.008 2.758,1.508 -0.07,0.204 -0.141,0.408 -0.211,0.612 -1.407,-0.47 -2.814,-0.941 -4.251,-1.42 -1.205,1.277 -0.184,1.609 0.822,1.982 0.884,0.328 1.751,0.701 2.625,1.054 -0.013,0.151 -0.026,0.301 -0.04,0.452 -0.6,-0.064 -1.222,-0.048 -1.796,-0.208 -1.238,-0.345 -2.512,-0.665 -3.646,-1.241 -0.399,-0.204 -0.559,-1.115 -0.607,-1.721 -0.071,-0.893 0.051,-1.801 0.098,-2.703 0.057,-1.054 -0.127,-2.206 0.245,-3.135 0.468,-1.167 1.421,-2.188 2.937,-1.352 0.949,0.523 1.812,1.201 2.713,1.81 -0.076,0.159 -0.152,0.317 -0.227,0.476 z"
           id="path4800" />
        <path
           fill-rule="evenodd"
           clip-rule="evenodd"
           fill="#ffffff"
           d="m 1395.986,35.429 c -1.047,0.555 -2.093,1.109 -3.139,1.664 -0.214,-0.159 -0.427,-0.319 -0.64,-0.479 0.219,-0.793 0.295,-2.168 0.685,-2.263 0.923,-0.226 1.994,0.156 3.005,0.292 0.03,0.262 0.06,0.524 0.089,0.786 z"
           id="path4802" />
        <path
           fill-rule="evenodd"
           clip-rule="evenodd"
           fill="#ffffff"
           d="m 1473.989,107.736 c -5.081,0.186 -8.374,-2.517 -10.556,-7.205 -2.107,-4.529 -2.205,-8.874 0.34,-13.181 1.731,-2.93 4.151,-5.084 7.636,-5.589 2.69,-0.39 5.454,-0.963 8.115,-0.712 5.917,0.559 8.143,4.458 8.942,9.506 0.932,5.889 -1.046,10.774 -5.707,14.569 -1.974,1.608 -5.195,2.673 -8.77,2.612 z m -6.159,-9.621 c -0.195,0.099 -0.39,0.198 -0.585,0.297 0.04,0.431 -0.032,0.914 0.139,1.287 2.463,5.398 8.386,5.35 12.231,3.759 3.69,-1.526 5.333,-4.61 5.48,-8.507 0.023,-0.617 -0.329,-1.248 -0.508,-1.872 -0.275,0.56 -0.596,1.102 -0.815,1.682 -0.595,1.573 -0.85,3.368 -1.772,4.707 -2.645,3.839 -11.266,4.708 -13.907,-0.681 -0.106,-0.215 -0.176,-0.448 -0.263,-0.672 z m 4.987,-2.638 c 0.567,0.625 0.747,0.986 1.033,1.114 2.283,1.024 4.558,-0.262 5.267,-2.93 0.356,-1.343 0.146,-2.646 -1.064,-3.303 -0.818,-0.444 -1.954,-0.398 -2.941,-0.373 -0.327,0.008 -0.64,0.635 -0.958,0.979 0.402,0.067 0.811,0.108 1.204,0.208 0.717,0.183 1.771,0.193 2.048,0.656 0.339,0.565 0.154,1.558 -0.043,2.302 -0.354,1.335 -1.521,1.486 -2.684,1.497 -0.445,0.003 -0.889,-0.069 -1.862,-0.15 z m -1.775,-5.506 c -0.813,-0.551 -1.207,-1.025 -1.511,-0.973 -0.431,0.073 -0.797,0.534 -1.189,0.828 0.296,0.329 0.57,0.898 0.893,0.928 0.42,0.038 0.88,-0.353 1.807,-0.783 z m 11.346,-2.457 c -0.686,-0.51 -1.064,-1.008 -1.415,-0.988 -0.322,0.018 -0.614,0.591 -0.92,0.92 0.352,0.3 0.666,0.738 1.069,0.849 0.245,0.068 0.63,-0.367 1.266,-0.781 z"
           id="path4804" />
        <path
           fill-rule="evenodd"
           clip-rule="evenodd"
           d="m 1327.48,63.168 c -0.023,2.118 -2.125,4.775 -3.778,4.775 -1.545,0 -3.313,-2.231 -3.269,-4.125 0.057,-2.458 2.04,-4.492 4.396,-4.509 1.356,-0.01 2.672,1.907 2.651,3.859 z m -2.496,-2.954 c -0.559,0.412 -0.966,0.958 -1.422,1.002 -1.444,0.139 -1.752,1.083 -1.786,2.229 -0.039,1.345 0.118,2.669 1.505,3.375 0.272,0.139 0.877,0.154 0.99,-0.009 0.755,-1.085 1.753,-2.164 2.013,-3.384 0.244,-1.145 -0.04,-2.603 -1.3,-3.213 z"
           id="path4806" />
        <path
           fill-rule="evenodd"
           clip-rule="evenodd"
           d="m 1358.832,52.732 c 1.655,2.204 3.934,3.962 4.213,7.071 -0.994,-0.752 -1.851,-1.887 -2.732,-1.907 -0.641,-0.014 -1.314,1.446 -2.136,2.447 -0.591,-2.553 0.394,-5.008 0.655,-7.611 z"
           id="path4808" />
        <path
           fill-rule="evenodd"
           clip-rule="evenodd"
           d="m 1382.991,49.888 c 1.731,0.065 2.916,-1.354 4.616,-0.227 -1.634,0.685 -2.958,1.194 -4.219,1.828 -0.146,0.074 0.053,0.838 0.097,1.333 1.65,-0.349 3.12,-0.659 4.59,-0.97 0.066,0.246 0.132,0.493 0.198,0.739 -1.813,0.46 -3.627,0.919 -5.497,1.394 -0.289,-2.143 -0.558,-4.126 -0.843,-6.24 1.605,-0.336 3.08,-1.281 4.733,-0.987 -0.815,1.655 -3.789,0.164 -3.675,3.13 z"
           id="path4810" />
        <path
           fill-rule="evenodd"
           clip-rule="evenodd"
           d="m 1369.902,56.533 c -0.382,-2.344 -0.682,-4.187 -1.026,-6.301 1.629,1.367 2.273,6.477 1.111,7.488 -1.433,-1.351 -2.877,-2.713 -4.467,-4.213 0,1.79 0,3.275 0,4.76 -0.198,0.013 -0.396,0.026 -0.593,0.039 -0.717,-2.036 -0.031,-4.232 -0.49,-6.298 0.141,-0.098 0.281,-0.196 0.421,-0.294 1.541,1.471 3.081,2.943 5.044,4.819 z"
           id="path4812" />
        <path
           fill-rule="evenodd"
           clip-rule="evenodd"
           d="m 1349.991,54.631 c 0.964,-0.603 1.729,-1.312 2.624,-1.57 0.77,-0.221 1.687,0.076 2.539,0.144 -0.198,0.883 -0.1,2.197 -0.646,2.573 -2.067,1.422 -1.918,3.185 -1.324,5.175 0.054,0.18 -0.072,0.413 -0.188,0.985 -1.808,-2.217 -0.545,-5.297 -3.005,-7.307 z m 4.72,-0.596 c -0.154,-0.246 -0.31,-0.491 -0.465,-0.737 -0.688,0.308 -1.62,0.445 -1.988,0.976 -0.311,0.446 0.034,1.349 0.089,2.049 0.157,0.031 0.313,0.062 0.471,0.094 0.63,-0.793 1.262,-1.587 1.893,-2.382 z"
           id="path4814" />
        <path
           fill-rule="evenodd"
           clip-rule="evenodd"
           d="m 1341.076,62.309 c 0.05,2.153 -1.612,2.298 -2.521,2.931 -0.511,0.355 -1.745,0.114 -2.403,-0.278 -1.407,-0.838 -1.822,-3.407 -0.908,-5.605 0.619,-1.49 1.743,-2.57 3.556,-2.52 0.174,0.005 0.356,0.033 0.515,0.097 0.088,0.035 0.137,0.169 0.201,0.26 -3.444,1.157 -4.339,2.712 -3.443,5.989 0.422,1.543 1.48,1.921 2.782,0.958 0.671,-0.497 1.292,-1.061 2.221,-1.832 z"
           id="path4816" />
        <path
           fill-rule="evenodd"
           clip-rule="evenodd"
           d="m 1333.4,59.178 c -2.062,0.098 -3.736,0.75 -3.487,2.998 0.114,1.022 0.792,2.372 1.615,2.8 0.658,0.342 1.925,-0.485 2.987,-0.602 -0.66,1.574 -2.178,1.872 -3.297,1.436 -0.929,-0.362 -1.788,-1.651 -2.093,-2.7 -0.557,-1.912 0.286,-4.039 1.523,-4.589 0.912,-0.404 1.915,-0.664 2.752,0.657 z"
           id="path4818" />
        <path
           fill-rule="evenodd"
           clip-rule="evenodd"
           d="m 1375.615,57.136 c -1.325,-2.084 -0.889,-4.618 -1.451,-7.003 -0.996,0.123 -1.943,0.239 -2.891,0.355 -0.035,-0.17 -0.07,-0.341 -0.105,-0.511 1.994,-0.093 3.442,-2.176 5.975,-1.359 -3.45,1.642 -1.541,4.075 -1.321,6.19 0.075,0.728 0.307,1.439 0.467,2.159 -0.226,0.056 -0.45,0.113 -0.674,0.169 z"
           id="path4820" />
        <path
           fill-rule="evenodd"
           clip-rule="evenodd"
           d="m 1342.211,57.021 c 1.043,1.66 2.016,3.209 3.113,4.956 2.06,-2.367 -0.368,-4.713 0.616,-6.874 1.119,1.134 1.668,5.819 0.757,6.69 -0.358,0.342 -1.221,0.458 -1.724,0.289 -1.535,-0.515 -2.858,-2.996 -2.762,-5.061 z"
           id="path4822" />
        <path
           fill-rule="evenodd"
           clip-rule="evenodd"
           d="m 1467.83,98.115 c 0.087,0.224 0.157,0.457 0.263,0.672 2.642,5.389 11.263,4.52 13.907,0.681 0.923,-1.339 1.178,-3.134 1.772,-4.707 0.22,-0.58 0.54,-1.122 0.815,-1.682 0.179,0.624 0.531,1.255 0.508,1.872 -0.147,3.897 -1.79,6.981 -5.48,8.507 -3.846,1.59 -9.769,1.639 -12.231,-3.759 -0.171,-0.373 -0.099,-0.856 -0.139,-1.287 0.195,-0.099 0.39,-0.198 0.585,-0.297 z"
           id="path4824" />
        <path
           fill-rule="evenodd"
           clip-rule="evenodd"
           d="m 1472.817,95.477 c 0.973,0.081 1.417,0.153 1.861,0.149 1.162,-0.011 2.329,-0.161 2.684,-1.497 0.197,-0.744 0.382,-1.737 0.043,-2.302 -0.276,-0.462 -1.331,-0.473 -2.048,-0.656 -0.394,-0.1 -0.802,-0.141 -1.204,-0.208 0.318,-0.344 0.631,-0.971 0.958,-0.979 0.987,-0.025 2.123,-0.071 2.941,0.373 1.211,0.658 1.421,1.96 1.064,3.303 -0.709,2.668 -2.983,3.954 -5.267,2.93 -0.285,-0.127 -0.464,-0.488 -1.032,-1.113 z"
           id="path4826" />
        <path
           fill-rule="evenodd"
           clip-rule="evenodd"
           d="m 1471.042,89.971 c -0.927,0.431 -1.387,0.821 -1.808,0.783 -0.322,-0.029 -0.597,-0.599 -0.893,-0.928 0.393,-0.294 0.759,-0.755 1.189,-0.828 0.305,-0.052 0.699,0.422 1.512,0.973 z"
           id="path4828" />
        <path
           fill-rule="evenodd"
           clip-rule="evenodd"
           d="m 1482.388,87.514 c -0.636,0.414 -1.021,0.849 -1.266,0.781 -0.403,-0.111 -0.718,-0.549 -1.069,-0.849 0.306,-0.329 0.598,-0.903 0.92,-0.92 0.35,-0.02 0.729,0.478 1.415,0.988 z"
           id="path4830" />
        <path
           fill-rule="evenodd"
           clip-rule="evenodd"
           fill="#ffffff"
           d="m 1324.984,60.214 c 1.26,0.61 1.544,2.068 1.3,3.213 -0.26,1.22 -1.258,2.298 -2.013,3.384 -0.113,0.163 -0.718,0.147 -0.99,0.009 -1.387,-0.706 -1.544,-2.03 -1.505,-3.375 0.034,-1.146 0.342,-2.09 1.786,-2.229 0.457,-0.044 0.864,-0.591 1.422,-1.002 z"
           id="path4832" />
        <path
           fill-rule="evenodd"
           clip-rule="evenodd"
           fill="#ffffff"
           d="m 1354.711,54.035 c -0.631,0.794 -1.263,1.588 -1.894,2.382 -0.157,-0.032 -0.313,-0.063 -0.471,-0.094 -0.055,-0.7 -0.399,-1.603 -0.089,-2.049 0.368,-0.53 1.301,-0.668 1.988,-0.976 0.156,0.246 0.312,0.492 0.466,0.737 z"
           id="path4834" />
      </g>
    </g>
  </g>
</svg>
