<?xml version="1.0" encoding="UTF-8" standalone="no"?>
<svg
   xmlns:dc="http://purl.org/dc/elements/1.1/"
   xmlns:cc="http://creativecommons.org/ns#"
   xmlns:rdf="http://www.w3.org/1999/02/22-rdf-syntax-ns#"
   xmlns:svg="http://www.w3.org/2000/svg"
   xmlns="http://www.w3.org/2000/svg"
   xmlns:sodipodi="http://sodipodi.sourceforge.net/DTD/sodipodi-0.dtd"
   xmlns:inkscape="http://www.inkscape.org/namespaces/inkscape"
   sodipodi:docname="new-start.svg"
   inkscape:version="1.0 (4035a4fb49, 2020-05-01)"
   id="svg2716"
   version="1.1"
   viewBox="0 0 49.756485 55.628113"
   height="55.628113mm"
   width="49.756485mm">
  <defs
     id="defs2710" />
  <sodipodi:namedview
     inkscape:window-maximized="1"
     inkscape:window-y="0"
     inkscape:window-x="0"
     inkscape:window-height="1012"
     inkscape:window-width="1920"
     showgrid="false"
     inkscape:document-rotation="0"
     inkscape:current-layer="g675"
     inkscape:document-units="mm"
     inkscape:cy="93.777992"
     inkscape:cx="67.258008"
     inkscape:zoom="1.979899"
     inkscape:pageshadow="2"
     inkscape:pageopacity="0.0"
     borderopacity="1.0"
     bordercolor="#666666"
     pagecolor="#ffffff"
     id="base" />
  <metadata
     id="metadata2713">
    <rdf:RDF>
      <cc:Work
         rdf:about="">
        <dc:format>image/svg+xml</dc:format>
        <dc:type
           rdf:resource="http://purl.org/dc/dcmitype/StillImage" />
        <dc:title></dc:title>
      </cc:Work>
    </rdf:RDF>
  </metadata>
  <g
     transform="translate(-88.037985,-123.35457)"
     id="layer1"
     inkscape:groupmode="layer"
     inkscape:label="Calque 1">
    <g
       transform="matrix(0.26458333,0,0,0.26458333,-50.434873,59.22698)"
       id="g677">
      <g
         id="g675">
        <path
           fill-rule="evenodd"
           clip-rule="evenodd"
           d="m 661.615,417.264 c 16.584,0.152 33.015,0.302 49.803,0.456 -1.075,1.723 -2.284,1.552 -3.513,1.536 -9.817,-0.136 -19.637,-0.244 -29.454,-0.341 -5.147,-0.051 -10.295,-0.038 -15.44,-0.114 -1.078,-0.016 -1.363,0.33 -1.523,1.403 -0.438,2.948 -0.759,5.987 -1.779,8.75 -0.729,1.976 -2.427,3.637 -3.847,5.307 -2.417,2.842 -5.275,5.364 -7.334,8.433 -1.441,2.148 -1.828,4.994 -2.758,7.501 -0.262,0.708 -0.774,1.322 -1.44,2.425 -0.516,-1.22 -0.803,-1.898 -1.112,-2.631 -0.908,0.518 -1.824,1.038 -2.982,1.697 -0.187,-1.234 -0.298,-1.973 -0.415,-2.751 -1.062,0.685 -2.028,1.307 -3.405,2.194 0,-1.47 0,-2.298 0,-3.233 -1.154,0.66 -2.137,1.222 -3.447,1.972 0,-1.165 0,-1.937 0,-2.931 -0.733,0.203 -1.334,0.49 -1.94,0.506 -0.702,0.018 -1.86,-0.007 -2.019,-0.365 -0.305,-0.689 -0.377,-1.906 0.044,-2.415 1.442,-1.737 3.114,-3.293 4.749,-4.863 2.19,-2.104 4.404,-4.185 6.656,-6.223 1.507,-1.363 2.539,-2.836 2.631,-5.016 0.158,-3.744 0.574,-7.478 0.908,-11.529 -1.588,0.272 -2.976,0.454 -4.323,0.791 -0.264,0.066 -0.493,0.721 -0.541,1.128 -0.283,2.392 -0.219,4.873 -0.86,7.158 -0.391,1.393 -1.604,2.888 -2.864,3.631 -2.429,1.432 -4.94,2.695 -6.694,4.964 -1.401,1.814 -2.633,3.762 -3.942,5.647 -0.61,0.879 -1.136,1.844 -1.875,2.597 -0.496,0.504 -1.301,0.704 -2.188,1.152 -0.114,-1.15 -0.182,-1.839 -0.289,-2.917 -0.932,1.039 -1.598,1.88 -2.373,2.604 -0.345,0.322 -0.907,0.412 -1.371,0.607 -0.16,-0.54 -0.479,-1.092 -0.443,-1.619 0.052,-0.737 0.368,-1.456 0.264,-2.438 -0.642,0.529 -1.23,1.151 -1.943,1.558 -0.603,0.345 -1.35,0.438 -2.032,0.642 -0.054,-0.741 -0.124,-1.482 -0.153,-2.225 -0.011,-0.269 0.074,-0.541 0.125,-0.871 -1.364,0.033 -2,2.484 -3.375,1.027 -0.477,-0.504 0.028,-1.935 0.088,-3.001 -0.196,0.103 -0.646,0.456 -1.15,0.568 -0.401,0.089 -1.003,0.023 -1.268,-0.231 -0.244,-0.234 -0.369,-1.004 -0.184,-1.209 1.377,-1.521 2.665,-3.216 4.321,-4.368 2.837,-1.973 5.938,-3.562 8.893,-5.372 1.059,-0.648 2.05,-1.425 2.992,-2.235 0.374,-0.322 0.703,-0.875 0.76,-1.357 0.241,-2.071 0.448,-4.152 0.533,-6.235 0.513,-12.555 0.968,-25.113 1.484,-37.668 0.232,-5.653 0.562,-11.302 0.848,-16.954 -0.169,-0.034 -0.339,-0.069 -0.509,-0.104 -0.218,0.618 -0.436,1.235 -0.653,1.853 -1.465,0.63 -1.95,-0.136 -1.958,-1.43 -0.205,-0.027 -0.33,-0.084 -0.413,-0.048 -0.677,0.297 -1.346,0.612 -2.018,0.921 -0.222,-0.991 -0.773,-2.042 -0.604,-2.961 0.565,-3.069 1.389,-6.092 2.133,-9.213 -0.773,0.737 -1.356,1.625 -2.169,1.97 -0.762,0.322 -1.797,0.188 -2.641,-0.026 -0.188,-0.048 -0.218,-1.302 -0.08,-1.949 0.605,-2.839 2.562,-4.921 4.625,-6.632 2.134,-1.77 2.802,-3.87 3.008,-6.374 0.945,-11.501 2.128,-22.989 1.993,-34.553 -0.006,-0.539 -0.146,-1.1 -0.037,-1.611 0.101,-0.474 0.449,-0.895 0.689,-1.339 0.241,0.469 0.676,0.932 0.688,1.407 0.054,1.975 0.052,3.957 -0.059,5.929 -0.453,8.067 -0.935,16.132 -1.444,24.196 -0.196,3.105 -0.503,6.203 -0.742,9.306 -0.104,1.343 0.187,2.396 2.114,2.308 0.17,-1.59 0.357,-3.167 0.503,-4.748 0.155,-1.687 0.245,-3.38 0.411,-5.066 0.204,-2.082 0.475,-4.157 0.686,-6.237 0.356,-3.501 0.86,-6.999 0.99,-10.509 0.171,-4.645 0.042,-9.3 0.042,-13.951 0.149,-0.102 0.299,-0.203 0.447,-0.305 0.355,0.436 0.992,0.854 1.021,1.31 0.305,4.812 0.231,9.597 -0.474,14.404 -0.707,4.821 -0.956,9.71 -1.403,14.569 -0.153,1.673 1.27,2.295 2.31,2.504 4.669,0.934 9.385,1.644 14.094,2.363 3.435,0.525 6.895,0.749 10.306,-0.137 1.557,-0.404 3.033,-1.116 4.589,-1.526 1.068,-0.282 1.217,-0.861 1.183,-1.822 -0.165,-4.552 -0.301,-9.105 -0.377,-13.66 -0.04,-2.395 0.125,-4.794 0.088,-7.189 -0.09,-5.69 -0.371,-11.363 -2.005,-16.875 -0.099,-0.333 0.027,-0.733 0.049,-1.102 0.199,-0.038 0.397,-0.075 0.597,-0.113 0.516,2.018 1.144,4.014 1.527,6.056 1.294,6.875 0.838,13.824 0.858,20.762 0.013,4.293 0.569,8.584 0.867,12.877 0.359,5.175 0.751,10.349 1.013,15.529 0.053,1.051 0.371,1.597 1.327,1.739 2.156,0.321 4.315,0.632 6.484,0.818 0.282,0.025 0.918,-0.718 0.903,-1.086 -0.19,-4.663 -0.582,-9.32 -0.703,-13.984 -0.242,-9.268 -0.376,-18.54 -0.486,-27.81 -0.024,-2.028 0.39,-4.064 0.336,-6.089 -0.181,-6.85 -1.315,-13.558 -4.139,-19.823 -1.391,-3.085 -4.479,-4.376 -7.463,-5.774 -3.5,-1.64 -4.939,0.957 -6.873,2.709 -1.547,1.401 -3.096,2.804 -4.56,4.289 -2.87,2.911 -6.315,3.625 -10.185,2.807 -2.399,-0.507 -4.942,-3.386 -5.327,-5.946 -0.042,-0.278 -0.113,-0.552 -0.172,-0.831 -2.595,0.637 -3.472,1.559 -5.36,5.767 -0.29,-0.599 -0.667,-0.998 -0.606,-1.312 0.565,-2.926 1.946,-5.18 5,-6.159 1.405,-0.45 2.69,-1.259 4.064,-1.818 3.754,-1.526 4.107,-5.059 4.872,-8.296 0.443,-1.878 0.189,-3.491 -1.377,-5.141 -2.541,-2.676 -2.489,-6.166 -1.721,-9.63 0.085,-0.384 0.08,-0.896 -0.107,-1.217 -2.576,-4.387 -1.073,-7.554 3.93,-8.31 0.49,-0.074 0.988,-0.442 1.377,-0.792 4.051,-3.652 9.773,-3.888 14.222,-0.713 2.599,1.855 4.78,3.956 5.298,7.244 0.854,5.411 -0.871,9.931 -5.271,13.174 -2.264,1.667 -4.884,2.852 -7.431,4.305 0.607,3.866 3.108,6.213 7.238,7.145 3.206,0.722 6.397,1.666 8.866,4.033 1.674,1.606 3.221,3.33 3.786,5.705 0.938,3.93 2.056,7.822 2.838,11.782 1.121,5.676 0.021,11.387 -0.054,17.083 -0.048,3.696 -0.037,7.396 0.083,11.09 0.168,5.146 0.431,10.29 0.713,15.431 0.191,3.468 0.402,6.939 0.787,10.389 0.119,1.067 0.788,2.093 1.296,3.091 0.761,1.493 1.601,2.945 2.576,4.724 0.324,0 1.082,0.038 1.835,-0.009 1.349,-0.083 2.437,-0.14 3.162,1.539 0.336,0.775 1.978,1.105 3.09,1.401 3.455,0.918 6.954,1.673 10.408,2.592 1.686,0.448 2.742,1.475 2.776,3.445 0.125,7.065 0.339,14.13 0.527,21.194 0.058,2.157 0.141,4.312 0.223,6.468 0.012,0.294 0.035,0.612 0.15,0.875 1.065,2.437 0.7,3.052 -1.877,3.666 -6.256,1.493 -12.489,3.082 -18.741,4.593 -5.643,1.365 -11.287,2.722 -16.952,3.985 -1.477,0.329 -2.247,0.822 -2.217,2.516 0.025,1.646 -0.37,3.298 -0.613,5.215 z m -31.308,-80.137 c -0.368,3.063 -0.827,6.288 -1.128,9.526 -0.552,5.94 -1.065,11.884 -1.491,17.834 -0.49,6.853 -1.022,13.708 -1.26,20.572 -0.424,12.215 -0.641,24.437 -0.939,36.655 -0.062,2.487 -1.192,4.266 -3.399,5.434 -2.954,1.563 -5.913,3.126 -8.79,4.822 -1.859,1.097 -3.576,2.432 -5.357,3.66 0.109,0.21 0.219,0.421 0.328,0.631 1.246,-0.433 2.492,-0.865 3.828,-1.329 0.149,0.816 0.245,1.335 0.369,2.008 2.81,-0.255 1.283,2.101 1.806,3.276 1.359,-0.669 1.893,-2.621 3.94,-1.973 0,0.912 0,1.814 0,2.837 0.873,-0.633 1.551,-1.475 2.307,-1.553 0.538,-0.055 1.182,0.92 1.922,1.56 0.277,-0.404 0.718,-1.006 1.117,-1.634 2.629,-4.134 5.243,-8.363 9.739,-10.693 3.709,-1.922 4.786,-4.882 4.513,-8.72 -0.09,-1.252 -0.178,-2.523 -0.063,-3.768 0.441,-4.809 0.991,-9.608 1.449,-14.416 0.571,-6 1.057,-12.009 1.646,-18.007 0.612,-6.238 1.262,-12.472 1.979,-18.698 0.429,-3.727 0.962,-7.445 1.58,-11.145 0.124,-0.741 0.845,-1.381 1.29,-2.068 0.721,0.722 1.85,1.334 2.078,2.188 0.501,1.873 0.657,3.862 0.748,5.813 0.116,2.474 0.028,4.957 0.028,7.413 3.489,-0.916 6.997,-1.82 10.491,-2.774 0.396,-0.108 0.779,-0.441 1.055,-0.766 0.521,-0.614 0.958,-1.299 1.431,-1.954 0.209,-1.727 0.469,-3.56 1.275,-5.108 0.715,-1.371 1.252,-2.35 0.982,-4.141 -0.488,-3.254 -0.066,-6.642 -0.092,-9.973 -0.01,-1.288 -0.201,-2.574 -0.327,-4.054 -11.466,4.39 -22.317,1.644 -33.055,-1.455 z m 26.961,39.983 c 0.142,10.638 -0.542,20.987 -0.222,31.447 3.554,-0.764 6.705,-1.348 9.808,-2.125 10.108,-2.532 20.201,-5.128 30.296,-7.72 1.062,-0.272 1.909,-0.775 1.473,-2.158 -0.141,-0.443 -0.123,-0.946 -0.125,-1.421 -0.029,-6.643 -0.05,-13.285 -0.07,-19.928 -0.005,-1.828 -10e-4,-3.656 -10e-4,-5.694 -13.958,2.576 -27.527,5.082 -41.159,7.599 z m -12.9,72.709 c 0.156,0.022 0.312,0.045 0.468,0.067 0.696,-7.178 5.006,-12.119 10.004,-16.652 0.914,-0.829 1.789,-1.742 2.502,-2.744 2.064,-2.904 2.852,-6.194 2.806,-9.743 -0.017,-1.292 0.319,-2.584 0.409,-3.882 0.145,-2.119 0.22,-4.243 0.339,-6.637 -1.509,0.636 -2.642,1.129 -3.788,1.593 -1.144,0.462 -2.128,0.531 -2.939,-0.732 -0.427,-0.663 -1.182,-1.183 -1.892,-1.583 -2.32,-1.309 -4.689,-2.533 -7.232,-3.893 -0.03,0.614 -0.086,1.179 -0.081,1.743 0.024,2.873 0.17,5.749 0.075,8.618 -0.138,4.176 -0.493,8.346 -0.657,12.522 -0.074,1.882 -0.287,3.528 -2.227,4.511 -0.703,0.356 -1.154,1.194 -1.75,1.783 -2.025,2.005 -4.055,4.006 -6.1,5.99 -1.41,1.37 -2.868,2.69 -4.254,4.083 -0.235,0.238 -0.213,0.731 -0.311,1.106 0.373,0.076 0.784,0.294 1.109,0.202 1.064,-0.301 2.098,-0.714 3.373,-1.165 0,1.074 0,1.867 0,2.895 1.02,-0.705 1.912,-1.321 3.014,-2.084 0.265,1.095 0.478,1.977 0.717,2.964 0.786,-0.705 1.465,-1.313 2.238,-2.007 0.398,1.111 0.671,1.872 1.032,2.88 0.812,-0.719 1.433,-1.268 2.111,-1.867 0.354,0.695 0.694,1.364 1.034,2.032 z M 641.08,261.037 c 0.961,3.99 3.51,5.739 7.445,6.114 4.231,0.403 7.396,-1.391 10.541,-3.83 2.146,-1.663 3.23,-3.953 3.831,-6.289 1.413,-5.491 -1.067,-9.805 -5.793,-11.609 -3.798,-1.45 -7.631,-2.065 -11.09,0.945 0.256,0.625 0.481,1.171 0.94,2.291 -2.956,-1.244 -5.796,-2.033 -6.69,1.278 -0.944,3.495 2.28,3.554 4.699,3.97 -0.674,2.098 -2.165,1.488 -3.812,1.334 0,1.232 -0.398,2.574 0.076,3.435 1.268,2.3 4.613,3.287 7.221,2.738 2.448,-0.515 3.903,-2.147 5.192,-4.042 0.582,-0.855 1.05,-1.788 1.664,-2.849 0.941,1.049 1.335,1.735 0.438,2.705 -0.68,0.736 -1.075,1.734 -1.754,2.472 -2.713,2.954 -6.575,5.394 -11.43,2.228 -0.479,-0.316 -0.984,-0.595 -1.478,-0.891 z m 12.566,146.152 c 0.172,-0.329 0.271,-0.431 0.274,-0.537 0.229,-8.606 0.341,-17.218 0.738,-25.817 0.119,-2.578 -0.853,-4.164 -2.809,-5.476 -1.68,-1.126 -3.333,-2.289 -4.999,-3.435 -0.155,0.116 -0.311,0.233 -0.466,0.349 0.205,2.664 0.548,5.325 0.589,7.991 0.111,7.123 0.141,14.248 0.083,21.371 -0.012,1.44 0.436,2.348 1.643,2.978 1.617,0.843 3.236,1.684 4.947,2.576 z m -3.812,-138.218 c -1.136,-0.152 -2.256,-0.121 -3.236,-0.477 -1.488,-0.541 -1.806,0.031 -2.112,1.374 -0.857,3.765 -1.521,7.689 -5.263,9.951 -0.66,0.399 -1.352,0.759 -1.962,1.225 -0.389,0.297 -0.987,0.841 -0.914,1.127 0.259,1.014 0.563,2.134 1.216,2.907 2.043,2.427 4.813,2.887 7.662,1.933 4.803,-1.608 7.674,-5.566 11.156,-9.465 -4.454,-1.416 -5.194,-5.247 -6.547,-8.575 z m 13.936,96.194 c -0.251,0.049 -0.502,0.099 -0.753,0.148 0,1.372 -0.139,2.763 0.037,4.112 0.192,1.486 -0.741,1.817 -1.756,1.926 -1.108,0.12 -1.779,-0.542 -1.806,-1.708 -0.02,-0.821 -0.004,-1.644 -0.004,-2.779 -3.699,0.926 -7.174,1.796 -10.649,2.667 -0.041,0.162 -0.082,0.323 -0.123,0.484 2.157,1.452 4.304,2.918 6.482,4.336 0.312,0.204 0.793,0.289 1.169,0.236 2.515,-0.352 5.028,-0.721 7.532,-1.151 3.745,-0.643 7.485,-1.321 11.22,-2.023 2.76,-0.519 5.508,-1.102 8.261,-1.656 -1.618,-0.624 -1.586,-1.898 -1.635,-3.18 -0.065,-1.704 0.1,-3.587 -2.302,-3.953 -1.197,3.951 -3.448,5.584 -7.591,5.522 -0.3,-0.005 -0.631,0.096 -0.894,-0.001 -2.432,-0.899 -5.762,0.475 -7.188,-2.98 z M 646.448,354.61 c -0.231,-0.006 -0.463,-0.013 -0.694,-0.02 -0.277,1.669 -0.614,3.332 -0.817,5.01 -0.31,2.551 -0.477,5.121 -0.797,7.671 -0.392,3.119 -1.032,6.213 -1.288,9.341 -0.352,4.277 -0.238,8.597 -0.69,12.859 -0.802,7.551 -1.908,15.07 -2.817,22.611 -0.175,1.447 -0.025,2.934 -0.025,4.364 1.581,-0.106 3.091,-0.208 4.729,-0.319 0,-0.56 -0.068,-1.041 0.011,-1.495 0.813,-4.66 -0.496,-9.323 0.147,-14.024 0.469,-3.418 0.221,-6.946 0.147,-10.422 -0.116,-5.447 -0.416,-10.892 -0.513,-16.339 -0.044,-2.46 -0.336,-5.182 3.037,-6.104 0,-2.298 0.056,-4.498 -0.016,-6.695 -0.071,-2.148 -0.271,-4.292 -0.414,-6.438 z m 26.086,5.432 c 1.591,2.125 1.317,3.586 -1.012,6.369 1.642,0.025 2.446,-1.082 2.995,-2.188 0.571,-1.152 0.762,-2.494 1.118,-3.753 0.169,-0.026 0.338,-0.053 0.507,-0.079 0.185,0.778 0.52,1.556 0.512,2.332 -0.007,0.866 -0.325,1.73 -0.546,2.779 2.411,-2.076 2.993,-5.902 -0.562,-10.743 -3.275,2.522 -6.574,0.296 -9.791,-0.146 -0.339,0.791 -0.553,1.415 -0.864,1.985 -0.312,0.57 -0.74,1.075 -1.088,1.627 -0.997,1.579 -0.94,2.061 0.551,3.83 0.058,-1.062 -0.062,-1.998 0.206,-2.806 0.226,-0.68 0.799,-1.562 1.397,-1.735 1.238,-0.36 3.526,1.057 3.985,2.159 0.888,2.131 0.647,3.434 -0.873,4.862 -0.27,0.253 -0.479,0.57 -0.882,1.056 3.307,-0.502 3.164,-3.415 4.347,-5.549 z m -44.487,-13.914 c -1.806,-0.808 -3.505,-1.797 -5.12,0.158 -0.526,0.638 -1.259,1.111 -1.75,1.769 -0.887,1.188 -1.662,2.458 -2.484,3.694 0.26,0.206 0.519,0.413 0.778,0.619 1.07,-1.531 2.142,-3.061 3.212,-4.591 0.349,0.178 0.697,0.357 1.046,0.536 0.137,0.761 0.507,1.569 0.365,2.275 -0.385,1.911 -1.004,3.773 -1.496,5.664 -0.348,1.341 -0.639,2.698 -0.956,4.047 0.186,0.054 0.37,0.107 0.556,0.161 0.639,-1.956 1.277,-3.911 1.92,-5.879 0.735,0.188 1.247,0.318 1.895,0.484 2.065,-2.685 1.153,-6.034 2.034,-8.937 z m 56.984,23.453 c 3.225,-0.678 6.657,-1.399 10.09,-2.121 -0.002,-0.151 -0.004,-0.303 -0.007,-0.453 -3.203,-0.756 -6.406,-1.511 -9.641,-2.274 -0.154,1.69 -0.297,3.265 -0.442,4.848 z m -16.373,-8.886 c 0.043,-0.179 0.087,-0.359 0.13,-0.539 -0.782,-0.272 -1.579,-0.769 -2.34,-0.719 -0.362,0.024 -0.656,1.089 -1.224,2.125 1.555,-0.393 2.495,-0.629 3.434,-0.867 z"
           id="path581" />
        <path
           fill-rule="evenodd"
           clip-rule="evenodd"
           d="m 585.402,321.513 c -0.305,-2.333 -0.568,-4.365 -0.84,-6.396 -0.015,-0.111 -0.127,-0.208 -0.149,-0.321 -0.191,-0.959 1.391,-2.091 3.348,-2.337 1.124,-0.142 2.13,0.165 2.251,1.453 0.332,3.524 0.804,7.061 0.767,10.587 -0.036,3.496 -0.7,6.979 -0.954,10.479 -0.381,5.24 -0.645,10.489 -0.967,15.9 1.304,0 2.269,0 3.232,0 0.055,0.137 0.109,0.273 0.164,0.41 -0.754,0.444 -1.584,0.799 -2.235,1.361 -0.455,0.393 -0.898,1.052 -0.942,1.623 -0.183,2.383 -0.203,4.778 -0.3,7.168 -0.258,6.376 -0.588,12.75 -0.771,19.128 -0.187,6.508 -0.224,13.02 -0.343,19.53 -0.094,5.148 -0.253,10.296 -0.298,15.445 -0.015,1.604 0.235,3.212 0.389,4.816 0.21,2.188 -1.885,2.111 -2.992,2.664 -0.796,0.396 -2.184,-0.355 -3.286,-0.667 -0.122,-0.035 -0.166,-0.54 -0.157,-0.823 0.333,-10.499 0.742,-20.996 0.994,-31.497 0.154,-6.468 -0.029,-12.944 0.123,-19.412 0.126,-5.318 0.49,-10.632 0.826,-15.944 0.077,-1.223 -0.142,-1.504 -1.446,-1.362 -8.715,0.949 -17.441,1.788 -26.165,2.66 -3.785,0.379 -7.575,0.714 -11.355,1.145 -2.169,0.247 -4.314,0.694 -6.482,0.958 -1.468,0.18 -2.361,-0.527 -3.074,-1.891 -1.541,-2.949 -3.255,-5.812 -4.99,-8.654 -2.073,-3.396 -4.304,-6.699 -6.3,-10.139 -0.28,-0.484 0.155,-1.724 0.646,-2.257 2.584,-2.805 5.299,-5.487 7.948,-8.232 0.365,-0.379 0.546,-0.954 0.941,-1.282 0.657,-0.544 1.405,-1.346 2.141,-1.373 8.485,-0.318 16.984,-0.338 25.462,-0.785 8.152,-0.43 16.285,-1.266 24.814,-1.955 z m 1.57,29.665 c 0.512,-8.231 0.937,-15.923 1.51,-23.603 0.121,-1.625 -0.397,-2.007 -1.849,-1.899 -3.518,0.263 -7.039,0.494 -10.562,0.683 -4.779,0.256 -9.562,0.455 -14.343,0.688 -7.949,0.388 -15.9,0.769 -23.848,1.206 -0.711,0.039 -1.579,0.281 -2.069,0.749 -2.753,2.629 -5.381,5.391 -8.122,8.033 -0.993,0.957 -0.886,1.752 -0.238,2.827 2.729,4.532 5.434,9.081 8.066,13.67 1.099,1.917 2.438,2.815 4.79,2.514 5.081,-0.651 10.197,-1.025 15.295,-1.548 3.505,-0.359 7.003,-0.783 10.504,-1.169 4.028,-0.444 8.056,-0.896 12.086,-1.314 3.001,-0.312 6.008,-0.575 8.78,-0.837 z m -1.708,1.631 c -0.271,3.002 -0.677,5.825 -0.754,8.657 -0.305,11.06 -0.475,22.122 -0.756,33.182 -0.155,6.098 -0.475,12.192 -0.637,18.29 -0.062,2.331 0.133,4.667 0.166,7.002 0.015,1.072 0.504,1.534 1.549,1.464 0.962,-0.065 1.538,-0.367 1.417,-1.543 -0.183,-1.784 -0.267,-3.584 -0.272,-5.378 -0.03,-7.777 -0.183,-15.559 0.023,-23.331 0.265,-10.012 0.854,-20.015 1.251,-30.024 0.105,-2.661 0.016,-5.33 0.016,-8.029 -0.691,-0.1 -1.314,-0.19 -2.003,-0.29 z m -0.167,-29.943 c -3.306,0.287 -6.561,0.569 -9.814,0.852 -4.574,0.397 -9.143,0.978 -13.726,1.15 -7.831,0.294 -15.672,0.316 -23.507,0.5 -0.749,0.018 -1.489,0.373 -2.233,0.571 0.029,0.184 0.058,0.367 0.087,0.55 1.579,0 3.162,0.061 4.738,-0.01 7.229,-0.324 14.458,-0.686 21.688,-1.031 7.112,-0.34 14.224,-0.697 21.337,-0.991 1.08,-0.044 1.513,-0.424 1.43,-1.591 z m -49.701,4.508 c -0.144,-0.248 -0.287,-0.496 -0.432,-0.744 -0.686,0.272 -1.539,0.371 -2.029,0.845 -2.56,2.476 -5.053,5.021 -7.493,7.614 -0.317,0.337 -0.196,1.088 -0.277,1.647 0.5,-0.121 1.147,-0.083 1.477,-0.388 2,-1.857 3.954,-3.766 5.87,-5.711 1.016,-1.034 1.926,-2.173 2.884,-3.263 z m 53.709,-4.852 c -0.243,-2.287 -0.465,-4.377 -0.702,-6.615 -0.85,0.265 -1.388,0.432 -1.952,0.608 0.062,1.307 0.252,2.503 0.144,3.672 -0.174,1.857 0.945,2.102 2.51,2.335 z"
           id="path583" />
        <path
           fill-rule="evenodd"
           clip-rule="evenodd"
           d="m 580.781,417.661 c -1.999,1.558 -4.336,0.74 -6.538,0.806 -2.435,0.074 -4.871,0.114 -7.306,0.083 -2.871,-0.037 -5.74,-0.154 -8.61,-0.257 -5.666,-0.201 -11.331,-0.426 -16.997,-0.616 -0.835,-0.028 -1.675,0.139 -2.51,0.12 -4.187,-0.096 -8.373,-0.208 -12.559,-0.356 -0.617,-0.021 -1.227,-0.27 -1.84,-0.413 -0.025,-0.17 -0.05,-0.341 -0.075,-0.511 0.525,-0.196 1.057,-0.574 1.575,-0.559 2.69,0.076 5.377,0.333 8.066,0.369 2.266,0.031 4.539,-0.286 6.802,-0.213 4.541,0.146 9.074,0.596 13.614,0.661 8.148,0.116 16.301,0.034 24.451,0.057 0.648,0.001 1.296,0.167 1.944,0.256 -0.005,0.193 -0.011,0.383 -0.017,0.573 z"
           id="path585" />
        <path
           fill-rule="evenodd"
           clip-rule="evenodd"
           d="m 588.855,417.097 c 0.627,-0.187 1.253,-0.529 1.882,-0.537 5.384,-0.062 10.773,0.069 16.152,-0.126 4.472,-0.162 8.931,-0.692 13.397,-1.046 0.565,-0.045 1.139,-0.006 2.016,-0.006 -0.852,1.211 -1.509,1.533 -2.877,1.471 -2.903,-0.131 -5.829,0.313 -8.75,0.428 -7.201,0.282 -14.403,0.511 -21.605,0.761 -0.072,-0.316 -0.143,-0.63 -0.215,-0.945 z"
           id="path587" />
        <path
           fill-rule="evenodd"
           clip-rule="evenodd"
           d="m 638.468,302.012 c -1.871,1.401 -5.239,1.122 -6.457,-0.499 -2.997,-3.988 -3.853,-9.804 0.021,-13.983 0.649,0.581 1.106,0.895 0.281,1.937 -2.159,2.728 -2.2,6.844 -0.573,9.601 0.964,1.634 2.521,1.83 4.073,2.21 0.817,0.2 1.623,0.447 2.655,0.734 z"
           id="path589" />
        <path
           fill-rule="evenodd"
           clip-rule="evenodd"
           d="m 643.845,300.083 c 3.696,1.484 6.926,0.829 9.895,-1.539 0.163,2.035 -2.23,3.934 -4.93,4.122 -2.826,0.197 -4.853,-0.715 -4.965,-2.583 z"
           id="path591" />
        <path
           fill-rule="evenodd"
           clip-rule="evenodd"
           fill="#ffffff"
           d="m 630.307,337.127 c 10.738,3.099 21.59,5.845 33.054,1.457 0.126,1.48 0.317,2.767 0.327,4.054 0.025,3.332 -0.396,6.719 0.092,9.973 0.27,1.791 -0.268,2.77 -0.982,4.141 -0.807,1.548 -1.066,3.381 -1.275,5.108 -0.473,0.655 -0.91,1.34 -1.431,1.954 -0.275,0.325 -0.659,0.658 -1.055,0.766 -3.494,0.954 -7.002,1.858 -10.491,2.774 0,-2.456 0.088,-4.939 -0.028,-7.413 -0.091,-1.951 -0.247,-3.94 -0.748,-5.813 -0.229,-0.854 -1.357,-1.466 -2.078,-2.188 -0.445,0.687 -1.166,1.327 -1.29,2.068 -0.618,3.7 -1.151,7.418 -1.58,11.145 -0.717,6.226 -1.366,12.46 -1.979,18.698 -0.589,5.998 -1.074,12.007 -1.646,18.007 -0.458,4.808 -1.008,9.607 -1.449,14.416 -0.114,1.245 -0.026,2.516 0.063,3.768 0.273,3.838 -0.804,6.798 -4.513,8.72 -4.496,2.33 -7.11,6.56 -9.739,10.693 -0.399,0.628 -0.84,1.229 -1.117,1.634 -0.74,-0.64 -1.384,-1.614 -1.922,-1.56 -0.756,0.078 -1.434,0.92 -2.307,1.553 0,-1.022 0,-1.925 0,-2.837 -2.048,-0.648 -2.581,1.304 -3.94,1.973 -0.522,-1.176 1.004,-3.531 -1.806,-3.276 -0.124,-0.673 -0.22,-1.191 -0.369,-2.008 -1.336,0.464 -2.582,0.896 -3.828,1.329 -0.109,-0.21 -0.219,-0.421 -0.328,-0.631 1.781,-1.229 3.498,-2.563 5.357,-3.66 2.877,-1.696 5.836,-3.259 8.79,-4.822 2.207,-1.168 3.338,-2.947 3.399,-5.434 0.299,-12.219 0.516,-24.44 0.939,-36.655 0.237,-6.864 0.77,-13.719 1.26,-20.572 0.426,-5.95 0.939,-11.895 1.491,-17.834 0.301,-3.24 0.76,-6.465 1.129,-9.528 z"
           id="path593" />
        <path
           fill-rule="evenodd"
           clip-rule="evenodd"
           fill="#ffffff"
           d="m 657.268,377.11 c 13.633,-2.518 27.201,-5.023 41.158,-7.6 0,2.038 -0.004,3.866 10e-4,5.694 0.021,6.643 0.041,13.285 0.07,19.928 0.002,0.475 -0.016,0.978 0.125,1.421 0.437,1.383 -0.411,1.886 -1.473,2.158 -10.095,2.592 -20.188,5.188 -30.296,7.72 -3.103,0.777 -6.254,1.361 -9.808,2.125 -0.319,-10.459 0.364,-20.808 0.223,-31.446 z m 13.564,14.542 c -0.537,-0.491 -0.799,-0.725 -1.056,-0.966 -2.119,-1.996 -2.113,-1.994 -0.517,-4.465 0.191,-0.297 0.353,-0.635 0.436,-0.977 0.142,-0.592 0.441,-1.635 0.27,-1.726 -0.621,-0.33 -1.433,-0.518 -2.132,-0.432 -0.922,0.114 -2.056,1.038 -2.662,0.736 -2.123,-1.054 -3.939,0.493 -5.913,0.37 -0.318,-0.02 -0.684,0.708 -1.027,1.091 0.388,0.236 0.797,0.702 1.16,0.668 1.351,-0.124 1.486,0.505 1.334,1.621 -0.257,1.889 -0.391,3.795 -0.589,5.693 -0.116,1.113 0.363,1.413 1.396,1.051 0.261,-2.436 0.551,-4.865 0.771,-7.3 0.113,-1.255 0.583,-1.891 1.966,-1.474 0,2.29 -0.015,4.553 0.01,6.814 0.007,0.559 0.142,1.115 0.219,1.673 0.434,-0.52 1.112,-0.983 1.247,-1.571 0.211,-0.922 0.056,-1.928 0.056,-2.898 0.126,-0.072 0.251,-0.144 0.376,-0.216 1.137,1.317 2.272,2.633 3.409,3.95 0.768,-0.629 1.299,-0.735 1.784,-0.947 0.377,-0.166 0.742,-0.418 1.034,-0.71 0.662,-0.662 1.276,-1.372 2.013,-2.175 0.575,0.745 0.882,1.142 1.218,1.578 0.42,-0.489 0.798,-0.929 1.164,-1.355 -0.851,-2.233 -1.668,-4.435 -2.543,-6.614 -0.133,-0.331 -0.532,-0.555 -0.808,-0.828 -0.251,0.288 -0.609,0.536 -0.729,0.871 -0.197,0.556 -0.224,1.171 -0.354,1.755 -0.486,2.185 -0.985,4.367 -1.533,6.783 z m 22.588,0.458 c -0.05,-0.378 -0.101,-0.757 -0.15,-1.135 -0.603,0 -1.236,-0.124 -1.802,0.021 -2.529,0.647 -5.041,1.361 -7.554,2.067 -6.361,1.788 -12.721,3.583 -19.081,5.378 -1.08,0.305 -1.499,0.863 -0.742,1.965 0.629,-0.191 1.188,-0.371 1.753,-0.53 4.865,-1.365 9.724,-2.753 14.6,-4.079 3.153,-0.857 6.34,-1.591 9.494,-2.445 1.186,-0.32 2.323,-0.823 3.482,-1.242 z m -10.435,-2.279 c 0.161,-0.015 0.321,-0.029 0.481,-0.043 0.499,-0.784 0.999,-1.567 1.678,-2.632 0.469,1.023 0.751,1.64 1.225,2.673 0.38,-1.063 0.988,-1.87 0.801,-2.394 -0.916,-2.576 -1.673,-5.137 -1.046,-7.984 -1.436,-0.174 -2.309,0.004 -2.479,1.596 -0.247,2.298 -0.728,4.57 -1.007,6.866 -0.075,0.616 0.221,1.277 0.347,1.918 z m 10.109,-3.009 c 0,-2.47 0,-4.869 0,-7.267 -0.22,-0.055 -0.44,-0.109 -0.66,-0.164 -0.374,0.667 -1.05,1.328 -1.064,2.003 -0.05,2.238 0.07,4.49 0.308,6.716 0.038,0.357 1.048,0.915 1.548,0.856 1.259,-0.146 2.483,-0.591 3.886,-0.959 0.067,-0.355 0.185,-0.965 0.364,-1.906 -1.482,0.245 -2.691,0.443 -4.382,0.721 z m -10.693,-5.072 c -0.372,-0.111 -0.743,-0.223 -1.114,-0.334 -0.538,1.701 -1.075,3.401 -1.609,5.091 -0.854,-1.199 -1.648,-2.316 -2.444,-3.433 -0.226,0.14 -0.453,0.279 -0.679,0.419 0.2,2.769 2.283,4.801 3.173,7.384 2.036,-2.824 0.893,-6.319 2.673,-9.127 z m 6.182,-2.084 c -0.655,3.172 -0.334,5.903 -0.34,8.824 1.643,-1.464 1.984,-6.755 0.34,-8.824 z"
           id="path595" />
        <path
           fill-rule="evenodd"
           clip-rule="evenodd"
           fill="#ffffff"
           d="m 644.368,449.819 c -0.34,-0.668 -0.681,-1.337 -1.033,-2.03 -0.679,0.6 -1.299,1.148 -2.111,1.867 -0.361,-1.008 -0.634,-1.769 -1.032,-2.88 -0.773,0.693 -1.452,1.302 -2.238,2.007 -0.239,-0.987 -0.452,-1.869 -0.717,-2.964 -1.102,0.763 -1.994,1.379 -3.014,2.084 0,-1.027 0,-1.82 0,-2.895 -1.275,0.451 -2.309,0.864 -3.373,1.165 -0.325,0.092 -0.736,-0.126 -1.109,-0.202 0.098,-0.375 0.075,-0.868 0.311,-1.106 1.386,-1.393 2.844,-2.713 4.254,-4.083 2.045,-1.984 4.074,-3.985 6.1,-5.99 0.596,-0.589 1.047,-1.427 1.75,-1.783 1.939,-0.982 2.152,-2.629 2.227,-4.511 0.164,-4.177 0.52,-8.346 0.657,-12.522 0.095,-2.869 -0.051,-5.745 -0.075,-8.618 -0.005,-0.564 0.051,-1.129 0.081,-1.743 2.543,1.36 4.912,2.584 7.232,3.893 0.71,0.4 1.465,0.92 1.892,1.583 0.812,1.263 1.796,1.194 2.939,0.732 1.146,-0.464 2.279,-0.957 3.788,-1.593 -0.119,2.394 -0.194,4.518 -0.339,6.637 -0.09,1.298 -0.426,2.591 -0.409,3.882 0.046,3.548 -0.741,6.838 -2.806,9.743 -0.713,1.002 -1.588,1.915 -2.502,2.744 -4.998,4.533 -9.308,9.475 -10.004,16.652 -0.157,-0.024 -0.313,-0.047 -0.469,-0.069 z"
           id="path597" />
        <path
           fill-rule="evenodd"
           clip-rule="evenodd"
           fill="#ffffff"
           d="m 641.08,261.037 c 0.494,0.296 0.999,0.575 1.48,0.89 4.854,3.166 8.717,0.727 11.43,-2.228 0.679,-0.738 1.074,-1.736 1.754,-2.472 0.896,-0.97 0.503,-1.656 -0.438,-2.705 -0.614,1.062 -1.082,1.994 -1.664,2.849 -1.289,1.895 -2.744,3.527 -5.192,4.042 -2.607,0.548 -5.953,-0.438 -7.221,-2.738 -0.475,-0.861 -0.076,-2.203 -0.076,-3.435 1.646,0.154 3.138,0.764 3.812,-1.334 -2.419,-0.416 -5.644,-0.475 -4.699,-3.97 0.895,-3.312 3.734,-2.522 6.69,-1.278 -0.459,-1.12 -0.685,-1.666 -0.94,-2.291 3.459,-3.01 7.292,-2.395 11.09,-0.945 4.726,1.805 7.206,6.118 5.793,11.609 -0.601,2.336 -1.686,4.626 -3.831,6.289 -3.146,2.439 -6.31,4.233 -10.541,3.83 -3.937,-0.374 -6.486,-2.123 -7.447,-6.113 z m 10.18,-11.014 c 0.221,0.226 0.44,0.451 0.66,0.677 0.569,-0.376 1.138,-0.752 1.706,-1.128 -0.371,-0.442 -0.742,-0.884 -1.113,-1.327 -0.418,0.593 -0.835,1.186 -1.253,1.778 z"
           id="path599" />
        <path
           fill-rule="evenodd"
           clip-rule="evenodd"
           fill="#ffffff"
           d="m 653.646,407.189 c -1.712,-0.892 -3.33,-1.733 -4.946,-2.576 -1.207,-0.63 -1.654,-1.538 -1.643,-2.978 0.058,-7.123 0.028,-14.248 -0.083,-21.371 -0.041,-2.666 -0.384,-5.328 -0.589,-7.991 0.155,-0.116 0.311,-0.233 0.466,-0.349 1.666,1.146 3.319,2.309 4.999,3.435 1.956,1.312 2.928,2.898 2.809,5.476 -0.397,8.599 -0.51,17.21 -0.738,25.817 -0.003,0.106 -0.103,0.208 -0.275,0.537 z"
           id="path601" />
        <path
           fill-rule="evenodd"
           clip-rule="evenodd"
           fill="#ffffff"
           d="m 649.834,268.971 c 1.353,3.328 2.093,7.159 6.547,8.574 -3.482,3.899 -6.354,7.857 -11.156,9.465 -2.849,0.954 -5.619,0.495 -7.662,-1.933 -0.652,-0.773 -0.957,-1.893 -1.216,-2.907 -0.073,-0.286 0.525,-0.83 0.914,-1.127 0.61,-0.466 1.302,-0.826 1.962,-1.225 3.742,-2.262 4.405,-6.186 5.263,-9.951 0.307,-1.343 0.624,-1.915 2.112,-1.374 0.98,0.358 2.1,0.326 3.236,0.478 z"
           id="path603" />
        <path
           fill-rule="evenodd"
           clip-rule="evenodd"
           fill="#ffffff"
           d="m 663.77,365.165 c 1.427,3.455 4.757,2.081 7.189,2.981 0.263,0.097 0.594,-0.003 0.894,10e-4 4.143,0.062 6.394,-1.571 7.591,-5.522 2.401,0.366 2.236,2.25 2.302,3.953 0.049,1.282 0.017,2.557 1.635,3.18 -2.753,0.554 -5.501,1.137 -8.261,1.656 -3.734,0.703 -7.475,1.38 -11.22,2.023 -2.504,0.43 -5.018,0.799 -7.532,1.151 -0.376,0.052 -0.856,-0.032 -1.169,-0.236 -2.179,-1.418 -4.325,-2.884 -6.482,-4.336 0.041,-0.161 0.082,-0.323 0.123,-0.484 3.476,-0.871 6.95,-1.741 10.649,-2.667 0,1.135 -0.016,1.958 0.004,2.779 0.026,1.167 0.697,1.828 1.806,1.708 1.015,-0.109 1.948,-0.44 1.756,-1.926 -0.176,-1.35 -0.037,-2.74 -0.037,-4.112 0.25,-0.051 0.501,-0.1 0.752,-0.149 z"
           id="path605" />
        <path
           fill-rule="evenodd"
           clip-rule="evenodd"
           fill="#ffffff"
           d="m 646.448,354.61 c 0.143,2.146 0.343,4.29 0.413,6.439 0.071,2.197 0.016,4.397 0.016,6.695 -3.373,0.922 -3.081,3.644 -3.037,6.104 0.097,5.447 0.396,10.892 0.513,16.339 0.073,3.476 0.321,7.004 -0.147,10.422 -0.644,4.702 0.666,9.364 -0.147,14.024 -0.079,0.455 -0.011,0.935 -0.011,1.495 -1.638,0.11 -3.147,0.212 -4.729,0.319 0,-1.43 -0.149,-2.917 0.025,-4.364 0.909,-7.541 2.016,-15.06 2.817,-22.611 0.452,-4.263 0.339,-8.583 0.69,-12.859 0.256,-3.127 0.896,-6.222 1.288,-9.341 0.32,-2.55 0.487,-5.12 0.797,-7.671 0.203,-1.679 0.54,-3.341 0.817,-5.01 0.232,0.006 0.464,0.013 0.695,0.019 z"
           id="path607" />
        <path
           fill-rule="evenodd"
           clip-rule="evenodd"
           fill="#ffffff"
           d="m 672.534,360.042 c -1.184,2.134 -1.04,5.047 -4.347,5.55 0.402,-0.486 0.612,-0.802 0.882,-1.056 1.521,-1.429 1.761,-2.731 0.873,-4.862 -0.459,-1.103 -2.747,-2.519 -3.985,-2.159 -0.599,0.174 -1.172,1.055 -1.397,1.735 -0.268,0.808 -0.148,1.744 -0.206,2.806 -1.491,-1.769 -1.548,-2.251 -0.551,-3.83 0.348,-0.552 0.775,-1.057 1.088,-1.627 0.312,-0.57 0.525,-1.194 0.864,-1.985 3.217,0.442 6.516,2.668 9.791,0.146 3.556,4.84 2.974,8.667 0.562,10.743 0.221,-1.049 0.539,-1.913 0.546,-2.779 0.008,-0.776 -0.327,-1.554 -0.512,-2.332 -0.169,0.026 -0.338,0.053 -0.507,0.079 -0.356,1.259 -0.547,2.601 -1.118,3.753 -0.549,1.105 -1.354,2.212 -2.995,2.188 2.33,-2.784 2.603,-4.245 1.012,-6.37 z"
           id="path609" />
        <path
           fill-rule="evenodd"
           clip-rule="evenodd"
           fill="#ffffff"
           d="m 628.047,346.128 c -0.881,2.903 0.031,6.252 -2.035,8.937 -0.647,-0.166 -1.159,-0.296 -1.895,-0.484 -0.643,1.969 -1.281,3.924 -1.92,5.879 -0.186,-0.054 -0.37,-0.107 -0.556,-0.161 0.317,-1.35 0.608,-2.706 0.956,-4.047 0.492,-1.891 1.111,-3.753 1.496,-5.664 0.142,-0.706 -0.229,-1.514 -0.365,-2.275 -0.349,-0.179 -0.697,-0.358 -1.046,-0.536 -1.07,1.53 -2.142,3.061 -3.212,4.591 -0.26,-0.206 -0.519,-0.413 -0.778,-0.619 0.822,-1.236 1.598,-2.506 2.484,-3.694 0.491,-0.658 1.224,-1.131 1.75,-1.769 1.616,-1.954 3.315,-0.965 5.121,-0.158 z"
           id="path611" />
        <path
           fill-rule="evenodd"
           clip-rule="evenodd"
           fill="#ffffff"
           d="m 685.031,369.581 c 0.145,-1.583 0.288,-3.158 0.442,-4.849 3.234,0.763 6.438,1.519 9.641,2.274 0.003,0.15 0.005,0.302 0.007,0.453 -3.433,0.722 -6.865,1.444 -10.09,2.122 z"
           id="path613" />
        <path
           fill-rule="evenodd"
           clip-rule="evenodd"
           fill="#ffffff"
           d="m 668.658,360.695 c -0.939,0.237 -1.879,0.474 -3.434,0.867 0.567,-1.036 0.861,-2.101 1.224,-2.125 0.761,-0.05 1.558,0.447 2.34,0.719 -0.043,0.18 -0.087,0.36 -0.13,0.539 z"
           id="path615" />
        <path
           fill-rule="evenodd"
           clip-rule="evenodd"
           fill="#ffffff"
           d="m 586.972,351.178 c -2.771,0.262 -5.778,0.525 -8.779,0.836 -4.03,0.418 -8.058,0.87 -12.086,1.314 -3.501,0.387 -6.999,0.81 -10.504,1.169 -5.098,0.523 -10.214,0.897 -15.295,1.548 -2.353,0.301 -3.691,-0.597 -4.79,-2.514 -2.633,-4.589 -5.337,-9.138 -8.066,-13.67 -0.647,-1.074 -0.755,-1.87 0.238,-2.827 2.741,-2.642 5.369,-5.404 8.122,-8.033 0.49,-0.468 1.358,-0.71 2.069,-0.749 7.947,-0.437 15.898,-0.817 23.848,-1.206 4.781,-0.233 9.563,-0.433 14.343,-0.688 3.522,-0.189 7.044,-0.42 10.562,-0.683 1.451,-0.108 1.97,0.274 1.849,1.899 -0.575,7.681 -1,15.373 -1.511,23.604 z m -5.071,-4.001 c 0.221,0.08 0.441,0.159 0.661,0.239 0.284,-0.532 0.731,-1.042 0.809,-1.603 0.085,-0.619 -0.2,-1.28 -0.271,-1.928 -0.291,-2.663 -0.109,-2.836 2.424,-2.416 0.303,-0.526 0.596,-1.036 0.89,-1.546 -0.048,-0.189 -0.096,-0.378 -0.144,-0.567 -2.627,0.47 -5.25,0.962 -7.883,1.391 -0.512,0.083 -1.062,-0.103 -1.597,-0.131 -0.964,-0.053 -2.135,-0.439 -2.843,-0.032 -0.965,0.555 -2.121,1.67 -2.216,2.641 -0.148,1.523 0.521,3.126 0.939,5.152 0.683,-1.027 1.14,-1.715 1.697,-2.555 0.713,0.582 1.471,1.333 2.358,1.871 0.479,0.291 1.182,0.215 1.783,0.304 -0.182,-0.55 -0.227,-1.216 -0.573,-1.626 -0.642,-0.758 -1.459,-1.367 -2.168,-2.005 0.666,-0.695 1.144,-1.5 1.847,-1.85 0.839,-0.418 1.876,-0.588 2.817,-0.558 0.293,0.01 0.665,0.992 0.806,1.575 0.292,1.196 0.451,2.426 0.664,3.644 z m -25.717,-0.009 c -1.663,0.348 -2.917,0.662 -4.188,0.845 -0.382,0.055 -0.815,-0.255 -1.226,-0.397 0.348,-0.319 0.649,-0.726 1.054,-0.938 0.857,-0.451 1.769,-0.801 2.657,-1.193 -0.074,-0.256 -0.148,-0.513 -0.223,-0.77 -1.06,0 -2.119,0 -3.179,0 0.003,-0.155 0.007,-0.31 0.01,-0.465 1.899,-0.501 3.8,-1.002 5.977,-1.576 -1.959,-1.411 -7.96,-0.331 -8.849,1.31 0.435,0.254 0.87,0.508 1.229,0.717 -0.079,1.258 -0.228,2.433 -0.187,3.601 0.015,0.425 0.394,1.069 0.761,1.209 1.505,0.574 4.869,-0.609 6.164,-2.343 z m -14.254,-4.916 c -0.772,1.573 -0.624,4.961 0.573,9.194 0.472,-0.114 0.963,-0.369 1.419,-0.318 2.141,0.238 4.552,-1.418 4.846,-3.408 0.254,-1.722 -1.637,-4.345 -3.408,-4.727 -1.054,-0.227 -2.108,-0.455 -3.43,-0.741 z m 21.556,6.499 c 0.186,0.111 0.371,0.221 0.556,0.332 0.491,-0.375 0.931,-0.877 1.483,-1.098 1.065,-0.427 2.16,-1.131 3.343,-0.187 0.427,0.341 0.939,0.573 1.413,0.855 0.146,-0.585 0.585,-1.31 0.386,-1.731 -0.782,-1.656 -1.678,-3.278 -2.74,-4.764 -0.238,-0.333 -1.827,-0.284 -1.936,-0.035 -0.946,2.161 -1.696,4.407 -2.505,6.628 z m 1.668,-6.863 c -0.119,-0.334 -0.238,-0.667 -0.357,-1.001 -2.116,0 -4.235,-0.059 -6.347,0.049 -0.419,0.021 -1.182,0.723 -1.146,1.038 0.228,1.989 0.575,3.971 1.031,5.921 0.1,0.425 0.797,0.71 1.581,1.359 0,-1.216 0.072,-1.758 -0.014,-2.272 -0.228,-1.356 0.197,-2.058 1.583,-2.602 1.343,-0.527 2.456,-1.638 3.669,-2.492 z m -2.269,-5.335 c -0.027,-0.164 -0.056,-0.328 -0.083,-0.492 1.381,-0.614 2.763,-1.229 4.144,-1.843 -0.054,-0.191 -0.107,-0.382 -0.161,-0.574 -1.077,0 -2.154,0 -3.232,0 0.005,-0.083 0.011,-0.165 0.016,-0.247 1.024,-0.433 2.05,-0.865 3.074,-1.298 -4.451,-1.09 -5.302,0.257 -5.186,3.195 0.03,0.773 -0.132,1.561 -0.038,2.321 0.043,0.359 0.429,0.884 0.752,0.964 1.15,0.288 3.412,-1.003 4.159,-2.38 -1.224,0.126 -2.334,0.24 -3.445,0.354 z m -22.182,2.193 c 0.578,-2.535 1.058,-4.637 1.632,-7.158 -2.514,0.863 -1.041,2.879 -2.632,4.317 -0.792,-1.004 -1.495,-2.098 -2.401,-2.985 -0.3,-0.293 -1.607,-0.152 -1.63,-0.042 -0.352,1.732 -0.568,3.492 -0.815,5.246 0.194,0.062 0.389,0.123 0.583,0.185 0.484,-0.978 0.968,-1.956 1.543,-3.118 1.086,1.039 2.13,2.036 3.72,3.555 z m 27.245,-1.587 c 0.133,0.091 0.266,0.183 0.398,0.273 0.357,-0.184 0.785,-0.295 1.061,-0.563 1.205,-1.172 2.346,-1.836 3.636,-0.07 0.163,0.223 0.825,0.081 1.257,0.108 0.004,-0.448 0.184,-1.006 -0.018,-1.323 -0.915,-1.443 -1.896,-2.85 -2.948,-4.195 -0.257,-0.329 -0.897,-0.547 -1.316,-0.488 -0.249,0.035 -0.466,0.691 -0.595,1.1 -0.228,0.72 -0.355,1.47 -0.563,2.197 -0.285,0.991 -0.606,1.973 -0.912,2.961 z m -7.577,-5.966 c -1.964,0.407 -1.34,2.324 -2.149,3.466 -0.476,-0.656 -0.837,-1.312 -1.353,-1.809 -0.35,-0.337 -0.917,-0.448 -1.387,-0.661 -0.027,0.567 -0.252,1.222 -0.045,1.684 0.504,1.125 1.175,2.182 1.847,3.223 0.248,0.384 0.686,0.646 1.036,0.964 0.328,-0.393 0.846,-0.741 0.949,-1.187 0.423,-1.805 0.719,-3.64 1.102,-5.68 z m 19.533,4.167 c -0.233,0.021 -0.467,0.043 -0.7,0.064 -0.46,-0.943 -0.877,-1.91 -1.399,-2.817 -0.194,-0.337 -0.634,-0.532 -0.962,-0.792 -0.199,0.426 -0.642,0.914 -0.551,1.265 0.216,0.838 0.585,1.682 1.082,2.39 0.395,0.561 1.305,1.414 1.576,1.284 0.773,-0.372 1.745,-1.094 1.899,-1.833 0.297,-1.425 0.087,-2.956 0.087,-4.442 -0.233,-0.024 -0.468,-0.047 -0.701,-0.071 -0.11,1.651 -0.22,3.302 -0.331,4.952 z m -33.894,-3.971 c -0.884,1.491 -1.748,2.61 -2.198,3.877 -0.177,0.497 0.739,1.939 0.872,1.903 1.101,-0.301 2.294,-0.663 3.131,-1.386 0.525,-0.454 0.846,-1.702 0.601,-2.34 -0.278,-0.72 -1.293,-1.156 -2.406,-2.054 z m 4.232,0.659 c -1.223,1.117 -1.376,4.433 -0.415,5.208 0.278,0.224 0.801,0.351 1.141,0.259 1.826,-0.49 3.496,-3.576 2.931,-5.576 -1.748,0.771 -0.452,3.812 -3.103,3.905 -0.174,-1.191 -0.351,-2.408 -0.554,-3.796 z"
           id="path617" />
        <path
           fill-rule="evenodd"
           clip-rule="evenodd"
           fill="#ffffff"
           d="m 585.264,352.809 c 0.689,0.1 1.312,0.19 2.003,0.29 0,2.699 0.09,5.368 -0.016,8.029 -0.396,10.009 -0.986,20.012 -1.251,30.024 -0.206,7.771 -0.054,15.553 -0.023,23.331 0.006,1.794 0.09,3.594 0.272,5.378 0.121,1.176 -0.455,1.478 -1.417,1.543 -1.045,0.07 -1.534,-0.392 -1.549,-1.464 -0.033,-2.335 -0.228,-4.671 -0.166,-7.002 0.162,-6.098 0.481,-12.192 0.637,-18.29 0.281,-11.06 0.451,-22.122 0.756,-33.182 0.077,-2.832 0.483,-5.655 0.754,-8.657 z"
           id="path619" />
        <path
           fill-rule="evenodd"
           clip-rule="evenodd"
           fill="#ffffff"
           d="m 585.097,322.866 c 0.083,1.167 -0.35,1.546 -1.431,1.591 -7.113,0.294 -14.225,0.651 -21.337,0.991 -7.229,0.345 -14.458,0.707 -21.688,1.031 -1.576,0.071 -3.159,0.01 -4.738,0.01 -0.029,-0.184 -0.058,-0.367 -0.087,-0.55 0.744,-0.198 1.484,-0.554 2.233,-0.571 7.835,-0.184 15.676,-0.207 23.507,-0.5 4.583,-0.172 9.151,-0.753 13.726,-1.15 3.254,-0.282 6.509,-0.565 9.815,-0.852 z"
           id="path621" />
        <path
           fill-rule="evenodd"
           clip-rule="evenodd"
           fill="#ffffff"
           d="m 535.396,327.374 c -0.958,1.091 -1.868,2.229 -2.885,3.262 -1.916,1.945 -3.87,3.854 -5.87,5.711 -0.329,0.305 -0.977,0.267 -1.477,0.388 0.081,-0.559 -0.04,-1.31 0.277,-1.647 2.44,-2.593 4.934,-5.138 7.493,-7.614 0.49,-0.474 1.344,-0.573 2.029,-0.845 0.146,0.248 0.29,0.496 0.433,0.745 z"
           id="path623" />
        <path
           fill-rule="evenodd"
           clip-rule="evenodd"
           fill="#ffffff"
           d="m 589.105,322.522 c -1.565,-0.233 -2.685,-0.478 -2.511,-2.335 0.108,-1.168 -0.081,-2.365 -0.144,-3.672 0.564,-0.176 1.103,-0.343 1.952,-0.608 0.239,2.238 0.46,4.328 0.703,6.615 z"
           id="path625" />
        <path
           fill-rule="evenodd"
           clip-rule="evenodd"
           d="m 670.832,391.652 c 0.548,-2.416 1.047,-4.598 1.533,-6.783 0.13,-0.583 0.156,-1.199 0.354,-1.755 0.119,-0.334 0.478,-0.583 0.729,-0.871 0.275,0.273 0.675,0.497 0.808,0.828 0.875,2.179 1.692,4.381 2.543,6.614 -0.366,0.426 -0.744,0.867 -1.164,1.355 -0.336,-0.436 -0.643,-0.833 -1.218,-1.578 -0.736,0.803 -1.351,1.513 -2.013,2.175 -0.292,0.292 -0.657,0.544 -1.034,0.71 -0.485,0.212 -1.017,0.318 -1.784,0.947 -1.137,-1.316 -2.272,-2.633 -3.409,-3.95 -0.125,0.072 -0.25,0.144 -0.376,0.216 0,0.97 0.155,1.977 -0.056,2.898 -0.135,0.588 -0.813,1.051 -1.247,1.571 -0.077,-0.558 -0.212,-1.115 -0.219,-1.673 -0.024,-2.262 -0.01,-4.524 -0.01,-6.814 -1.383,-0.417 -1.853,0.219 -1.966,1.474 -0.221,2.435 -0.511,4.864 -0.771,7.3 -1.032,0.362 -1.512,0.062 -1.396,-1.051 0.198,-1.897 0.332,-3.804 0.589,-5.693 0.152,-1.116 0.017,-1.745 -1.334,-1.621 -0.363,0.033 -0.772,-0.432 -1.16,-0.668 0.344,-0.383 0.709,-1.111 1.027,-1.091 1.974,0.123 3.79,-1.423 5.913,-0.37 0.606,0.302 1.74,-0.622 2.662,-0.736 0.699,-0.086 1.511,0.102 2.132,0.432 0.172,0.091 -0.128,1.134 -0.27,1.726 -0.083,0.341 -0.244,0.68 -0.436,0.977 -1.597,2.472 -1.603,2.469 0.517,4.465 0.257,0.241 0.519,0.475 1.056,0.966 z m -5.2,-4.173 c 1.289,-0.872 2.183,-1.477 3.433,-2.322 -2.323,-0.531 -2.961,-0.104 -3.433,2.322 z"
           id="path627" />
        <path
           fill-rule="evenodd"
           clip-rule="evenodd"
           d="m 693.42,392.11 c -1.159,0.419 -2.296,0.922 -3.482,1.242 -3.154,0.854 -6.341,1.587 -9.494,2.445 -4.876,1.326 -9.734,2.714 -14.6,4.079 -0.565,0.159 -1.124,0.339 -1.753,0.53 -0.757,-1.102 -0.338,-1.66 0.742,-1.965 6.36,-1.794 12.72,-3.59 19.081,-5.378 2.513,-0.706 5.024,-1.42 7.554,-2.067 0.565,-0.145 1.199,-0.021 1.802,-0.021 0.049,0.378 0.1,0.756 0.15,1.135 z"
           id="path629" />
        <path
           fill-rule="evenodd"
           clip-rule="evenodd"
           d="m 682.985,389.831 c -0.126,-0.641 -0.422,-1.302 -0.348,-1.918 0.279,-2.296 0.76,-4.568 1.007,-6.866 0.171,-1.591 1.044,-1.77 2.479,-1.596 -0.627,2.847 0.13,5.408 1.046,7.984 0.188,0.524 -0.421,1.331 -0.801,2.394 -0.474,-1.033 -0.756,-1.65 -1.225,-2.673 -0.679,1.064 -1.179,1.848 -1.678,2.632 -0.158,0.014 -0.319,0.028 -0.48,0.043 z"
           id="path631" />
        <path
           fill-rule="evenodd"
           clip-rule="evenodd"
           d="m 693.094,386.822 c 1.691,-0.278 2.9,-0.477 4.381,-0.72 -0.18,0.94 -0.297,1.551 -0.364,1.906 -1.402,0.368 -2.627,0.813 -3.886,0.959 -0.5,0.058 -1.51,-0.5 -1.548,-0.856 -0.237,-2.227 -0.357,-4.478 -0.308,-6.716 0.015,-0.675 0.69,-1.336 1.064,-2.003 0.22,0.055 0.44,0.109 0.66,0.164 0.001,2.398 0.001,4.796 0.001,7.266 z"
           id="path633" />
        <path
           fill-rule="evenodd"
           clip-rule="evenodd"
           d="m 682.401,381.75 c -1.78,2.808 -0.638,6.302 -2.674,9.127 -0.89,-2.583 -2.973,-4.615 -3.173,-7.384 0.226,-0.14 0.453,-0.28 0.679,-0.419 0.796,1.116 1.591,2.233 2.444,3.433 0.534,-1.69 1.071,-3.391 1.609,-5.091 0.372,0.111 0.743,0.223 1.115,0.334 z"
           id="path635" />
        <path
           fill-rule="evenodd"
           clip-rule="evenodd"
           d="m 688.583,379.666 c 1.644,2.069 1.303,7.36 -0.34,8.824 0.006,-2.921 -0.315,-5.652 0.34,-8.824 z"
           id="path637" />
        <path
           fill-rule="evenodd"
           clip-rule="evenodd"
           d="m 651.26,250.023 c 0.418,-0.592 0.835,-1.185 1.253,-1.778 0.371,0.442 0.742,0.884 1.113,1.327 -0.568,0.376 -1.137,0.752 -1.706,1.128 -0.22,-0.225 -0.44,-0.451 -0.66,-0.677 z"
           id="path639" />
        <path
           fill-rule="evenodd"
           clip-rule="evenodd"
           d="m 581.901,347.177 c -0.213,-1.217 -0.372,-2.448 -0.663,-3.646 -0.141,-0.583 -0.513,-1.565 -0.806,-1.575 -0.941,-0.03 -1.979,0.14 -2.817,0.558 -0.703,0.35 -1.181,1.154 -1.847,1.85 0.709,0.639 1.526,1.247 2.168,2.005 0.347,0.41 0.392,1.076 0.573,1.626 -0.602,-0.089 -1.304,-0.014 -1.783,-0.304 -0.888,-0.537 -1.646,-1.289 -2.358,-1.871 -0.558,0.84 -1.015,1.528 -1.697,2.555 -0.418,-2.026 -1.088,-3.629 -0.939,-5.152 0.095,-0.971 1.251,-2.086 2.216,-2.641 0.708,-0.407 1.879,-0.021 2.843,0.032 0.534,0.029 1.085,0.215 1.597,0.131 2.633,-0.428 5.256,-0.921 7.883,-1.391 0.048,0.189 0.096,0.378 0.144,0.567 -0.294,0.51 -0.587,1.021 -0.89,1.546 -2.533,-0.42 -2.715,-0.247 -2.424,2.416 0.071,0.648 0.356,1.31 0.271,1.928 -0.077,0.561 -0.524,1.071 -0.809,1.603 -0.22,-0.078 -0.441,-0.158 -0.662,-0.237 z m -5.405,-4.651 c -0.083,-0.323 -0.166,-0.646 -0.25,-0.97 -0.853,0.152 -1.705,0.304 -2.558,0.456 0.106,0.465 0.213,0.93 0.319,1.395 0.831,-0.293 1.66,-0.587 2.489,-0.881 z"
           id="path641" />
        <path
           fill-rule="evenodd"
           clip-rule="evenodd"
           d="m 556.184,347.168 c -1.295,1.734 -4.658,2.917 -6.163,2.342 -0.367,-0.14 -0.746,-0.784 -0.761,-1.209 -0.041,-1.168 0.107,-2.343 0.187,-3.601 -0.359,-0.209 -0.795,-0.463 -1.229,-0.717 0.889,-1.641 6.89,-2.721 8.849,-1.31 -2.177,0.574 -4.077,1.075 -5.977,1.576 -0.003,0.155 -0.007,0.311 -0.01,0.465 1.06,0 2.119,0 3.179,0 0.074,0.257 0.148,0.514 0.223,0.77 -0.889,0.392 -1.8,0.742 -2.657,1.193 -0.404,0.213 -0.706,0.62 -1.054,0.938 0.41,0.143 0.844,0.452 1.226,0.397 1.27,-0.182 2.524,-0.496 4.187,-0.844 z"
           id="path643" />
        <path
           fill-rule="evenodd"
           clip-rule="evenodd"
           d="m 541.93,342.252 c 1.322,0.285 2.376,0.513 3.43,0.741 1.771,0.382 3.662,3.005 3.408,4.727 -0.294,1.99 -2.705,3.646 -4.846,3.408 -0.456,-0.051 -0.947,0.205 -1.419,0.318 -1.197,-4.233 -1.346,-7.621 -0.573,-9.194 z m 1.968,8.004 c 2.394,-0.233 3.921,-1.374 3.902,-2.728 -0.021,-1.465 -1.683,-2.682 -4.491,-3.008 0.203,1.974 0.396,3.854 0.589,5.736 z"
           id="path645" />
        <path
           fill-rule="evenodd"
           clip-rule="evenodd"
           d="m 563.486,348.751 c 0.809,-2.221 1.559,-4.467 2.505,-6.628 0.108,-0.249 1.697,-0.298 1.936,0.035 1.062,1.485 1.958,3.108 2.74,4.764 0.199,0.422 -0.239,1.146 -0.386,1.731 -0.474,-0.282 -0.986,-0.514 -1.413,-0.855 -1.183,-0.944 -2.277,-0.24 -3.343,0.187 -0.553,0.221 -0.992,0.723 -1.483,1.098 -0.185,-0.111 -0.37,-0.221 -0.556,-0.332 z"
           id="path647" />
        <path
           fill-rule="evenodd"
           clip-rule="evenodd"
           d="m 565.154,341.888 c -1.213,0.854 -2.326,1.965 -3.668,2.492 -1.386,0.544 -1.811,1.246 -1.583,2.602 0.086,0.515 0.014,1.056 0.014,2.272 -0.784,-0.649 -1.481,-0.934 -1.581,-1.359 -0.456,-1.95 -0.804,-3.932 -1.031,-5.921 -0.036,-0.315 0.727,-1.017 1.146,-1.038 2.111,-0.108 4.23,-0.049 6.347,-0.049 0.118,0.334 0.237,0.667 0.356,1.001 z m -2.161,0.921 c -0.054,-0.208 -0.108,-0.415 -0.163,-0.622 -1.164,0 -2.329,0 -3.671,0 0.148,0.803 0.247,1.342 0.4,2.171 1.293,-0.583 2.363,-1.066 3.434,-1.549 z"
           id="path649" />
        <path
           fill-rule="evenodd"
           clip-rule="evenodd"
           d="m 562.885,336.553 c 1.111,-0.114 2.222,-0.228 3.444,-0.354 -0.747,1.377 -3.009,2.668 -4.159,2.38 -0.323,-0.08 -0.709,-0.604 -0.752,-0.964 -0.094,-0.76 0.068,-1.548 0.038,-2.321 -0.116,-2.938 0.734,-4.285 5.186,-3.195 -1.024,0.433 -2.05,0.866 -3.074,1.298 -0.005,0.083 -0.011,0.165 -0.016,0.247 1.078,0 2.155,0 3.232,0 0.054,0.191 0.107,0.382 0.161,0.574 -1.381,0.614 -2.763,1.229 -4.144,1.843 0.028,0.164 0.056,0.329 0.084,0.492 z"
           id="path651" />
        <path
           fill-rule="evenodd"
           clip-rule="evenodd"
           d="m 540.703,338.746 c -1.59,-1.519 -2.634,-2.516 -3.721,-3.555 -0.575,1.162 -1.059,2.14 -1.543,3.118 -0.194,-0.062 -0.389,-0.123 -0.583,-0.185 0.247,-1.753 0.464,-3.513 0.815,-5.246 0.022,-0.11 1.33,-0.251 1.63,0.042 0.906,0.887 1.609,1.98 2.401,2.985 1.591,-1.438 0.118,-3.455 2.632,-4.317 -0.573,2.521 -1.053,4.623 -1.631,7.158 z"
           id="path653" />
        <path
           fill-rule="evenodd"
           clip-rule="evenodd"
           d="m 567.948,337.159 c 0.306,-0.987 0.627,-1.97 0.911,-2.962 0.208,-0.727 0.336,-1.477 0.563,-2.197 0.129,-0.409 0.346,-1.065 0.595,-1.1 0.419,-0.059 1.06,0.16 1.316,0.488 1.053,1.346 2.033,2.752 2.948,4.195 0.201,0.317 0.021,0.875 0.018,1.323 -0.432,-0.027 -1.094,0.114 -1.257,-0.108 -1.29,-1.766 -2.431,-1.102 -3.636,0.07 -0.275,0.268 -0.703,0.38 -1.061,0.563 -0.131,-0.09 -0.264,-0.181 -0.397,-0.272 z"
           id="path655" />
        <path
           fill-rule="evenodd"
           clip-rule="evenodd"
           d="m 560.371,331.193 c -0.383,2.04 -0.679,3.875 -1.102,5.681 -0.104,0.445 -0.621,0.793 -0.949,1.187 -0.351,-0.318 -0.788,-0.58 -1.036,-0.964 -0.672,-1.041 -1.343,-2.097 -1.847,-3.223 -0.207,-0.462 0.018,-1.117 0.045,-1.684 0.47,0.212 1.037,0.324 1.387,0.661 0.516,0.496 0.877,1.152 1.353,1.809 0.809,-1.143 0.185,-3.06 2.149,-3.467 z"
           id="path657" />
        <path
           fill-rule="evenodd"
           clip-rule="evenodd"
           d="m 579.904,335.36 c 0.11,-1.65 0.221,-3.301 0.331,-4.952 0.233,0.023 0.468,0.047 0.701,0.071 0,1.486 0.21,3.017 -0.087,4.442 -0.154,0.739 -1.126,1.461 -1.899,1.833 -0.271,0.13 -1.182,-0.723 -1.576,-1.284 -0.497,-0.708 -0.866,-1.551 -1.082,-2.39 -0.091,-0.351 0.352,-0.839 0.551,-1.265 0.328,0.26 0.768,0.455 0.962,0.792 0.522,0.907 0.939,1.874 1.399,2.817 0.234,-0.021 0.467,-0.042 0.7,-0.064 z"
           id="path659" />
        <path
           fill-rule="evenodd"
           clip-rule="evenodd"
           d="m 546.01,331.389 c 1.113,0.897 2.128,1.333 2.405,2.054 0.245,0.639 -0.075,1.887 -0.601,2.34 -0.837,0.723 -2.03,1.085 -3.131,1.386 -0.133,0.036 -1.049,-1.406 -0.872,-1.903 0.451,-1.266 1.315,-2.386 2.199,-3.877 z m -0.262,4.893 c 0.712,-0.8 1.233,-1.384 1.755,-1.969 -0.405,-0.23 -0.876,-0.725 -1.202,-0.643 -1.039,0.26 -1.416,0.984 -0.553,2.612 z"
           id="path661" />
        <path
           fill-rule="evenodd"
           clip-rule="evenodd"
           d="m 550.242,332.048 c 0.203,1.388 0.38,2.605 0.554,3.796 2.65,-0.093 1.354,-3.133 3.103,-3.905 0.565,2 -1.104,5.086 -2.931,5.576 -0.34,0.091 -0.862,-0.035 -1.141,-0.259 -0.961,-0.775 -0.807,-4.091 0.415,-5.208 z"
           id="path663" />
        <path
           fill-rule="evenodd"
           clip-rule="evenodd"
           fill="#ffffff"
           d="m 665.632,387.479 c 0.473,-2.427 1.11,-2.854 3.433,-2.322 -1.251,0.846 -2.144,1.45 -3.433,2.322 z"
           id="path665" />
        <path
           fill-rule="evenodd"
           clip-rule="evenodd"
           fill="#ffffff"
           d="m 576.496,342.526 c -0.829,0.293 -1.658,0.587 -2.488,0.881 -0.106,-0.465 -0.213,-0.93 -0.319,-1.395 0.853,-0.152 1.705,-0.304 2.558,-0.456 0.083,0.324 0.166,0.647 0.249,0.97 z"
           id="path667" />
        <path
           fill-rule="evenodd"
           clip-rule="evenodd"
           fill="#ffffff"
           d="m 543.898,350.256 c -0.193,-1.883 -0.387,-3.763 -0.589,-5.736 2.809,0.326 4.471,1.543 4.491,3.008 0.019,1.354 -1.508,2.495 -3.902,2.728 z"
           id="path669" />
        <path
           fill-rule="evenodd"
           clip-rule="evenodd"
           fill="#ffffff"
           d="m 562.993,342.809 c -1.071,0.483 -2.142,0.967 -3.434,1.549 -0.153,-0.83 -0.252,-1.369 -0.4,-2.171 1.342,0 2.507,0 3.671,0 0.055,0.207 0.109,0.414 0.163,0.622 z"
           id="path671" />
        <path
           fill-rule="evenodd"
           clip-rule="evenodd"
           fill="#ffffff"
           d="m 545.748,336.282 c -0.863,-1.627 -0.486,-2.352 0.553,-2.612 0.326,-0.082 0.797,0.413 1.202,0.643 -0.522,0.585 -1.043,1.169 -1.755,1.969 z"
           id="path673" />
      </g>
    </g>
  </g>
</svg>
