<?xml version="1.0" encoding="UTF-8"?>
<svg xmlns="http://www.w3.org/2000/svg" xmlns:xlink="http://www.w3.org/1999/xlink" viewBox="0 0 500 500">
  <defs>
    <pattern id="uuid-00e35416-f8e2-459e-9218-41eb26293cca" data-name="Lac asséché sableux USGS 17" x="0" y="0" width="72" height="72" patternTransform="translate(14550.45 8437.1) scale(2.42)" patternUnits="userSpaceOnUse" viewBox="0 0 72 72">
      <g>
        <rect width="72" height="72" style="fill: none;"/>
        <path d="M21,3c-.06,0-.12-.02-.17-.07-.05-.05-.08-.11-.08-.18s.03-.13,.08-.18c.09-.09,.25-.09,.35,0,.05,.05,.07,.11,.07,.18,0,.06-.02,.12-.07,.17-.05,.06-.11,.08-.18,.08Z" style="fill: #1d1d1b;"/>
        <path d="M20,8.25c-.06,0-.13-.03-.18-.07-.04-.05-.07-.11-.07-.18s.03-.13,.07-.18c.1-.09,.26-.09,.36,0,.04,.05,.07,.11,.07,.18s-.03,.13-.07,.18c-.05,.05-.11,.07-.18,.07Z" style="fill: #1d1d1b;"/>
        <path d="M20.25,10.5c-.06,0-.13-.03-.17-.07-.05-.05-.08-.11-.08-.18s.03-.13,.07-.18c.1-.09,.27-.09,.36,0,.04,.05,.07,.11,.07,.18s-.03,.14-.08,.18c-.04,.04-.1,.07-.17,.07Z" style="fill: #1d1d1b;"/>
        <path d="M18,12.75c-.06,0-.12-.03-.17-.07-.05-.05-.08-.11-.08-.18s.03-.13,.07-.18c.11-.09,.26-.09,.36,0,.05,.05,.07,.11,.07,.18s-.02,.13-.07,.18c-.05,.04-.11,.07-.18,.07Z" style="fill: #1d1d1b;"/>
        <path d="M15.25,10.5c-.06,0-.12-.02-.17-.07-.05-.05-.08-.12-.08-.18,0-.07,.03-.13,.07-.18,.12-.1,.26-.09,.36,0,.05,.05,.07,.11,.07,.18,0,.06-.02,.13-.07,.17-.05,.06-.11,.08-.18,.08Z" style="fill: #1d1d1b;"/>
        <path d="M22.75,20c-.06,0-.12-.02-.17-.07-.05-.05-.08-.11-.08-.18,0-.06,.03-.13,.07-.17,.11-.11,.27-.1,.36,0,.05,.06,.07,.12,.07,.18s-.02,.13-.07,.18c-.05,.04-.11,.07-.18,.07Z" style="fill: #1d1d1b;"/>
        <path d="M15.25,23c-.06,0-.12-.02-.17-.07-.05-.05-.08-.11-.08-.18,0-.06,.03-.12,.07-.17,.12-.11,.26-.1,.36,0,.05,.05,.07,.12,.07,.18,0,.07-.02,.13-.07,.18-.05,.05-.11,.07-.18,.07Z" style="fill: #1d1d1b;"/>
        <path d="M14,24c-.07,0-.13-.03-.18-.08-.04-.04-.07-.1-.07-.17s.03-.13,.07-.18c.11-.1,.26-.09,.36,0,.05,.05,.07,.12,.07,.18,0,.07-.02,.13-.07,.18-.05,.04-.11,.07-.18,.07Z" style="fill: #1d1d1b;"/>
        <path d="M24,27c-.06,0-.12-.02-.17-.07-.05-.05-.08-.11-.08-.18s.03-.13,.07-.17c.11-.11,.26-.1,.36,0,.05,.06,.07,.12,.07,.18,0,.07-.02,.13-.07,.18-.05,.05-.11,.07-.18,.07Z" style="fill: #1d1d1b;"/>
        <path d="M30.75,25.75c-.06,0-.12-.02-.17-.07-.05-.05-.08-.11-.08-.18s.03-.13,.08-.18c.1-.09,.25-.09,.35,0,.05,.05,.07,.12,.07,.18s-.02,.13-.07,.18c-.05,.05-.11,.07-.18,.07Z" style="fill: #1d1d1b;"/>
        <path d="M31.25,23.25c-.06,0-.12-.03-.17-.07-.05-.05-.08-.11-.08-.18,0-.06,.03-.13,.07-.17,.11-.11,.26-.1,.36,0,.05,.06,.07,.12,.07,.18,0,.07-.02,.13-.07,.18-.05,.04-.11,.07-.18,.07Z" style="fill: #1d1d1b;"/>
        <path d="M29.25,18.25c-.06,0-.12-.02-.17-.07-.05-.05-.08-.11-.08-.18s.03-.13,.08-.18c.1-.09,.25-.09,.35,0,.05,.05,.07,.11,.07,.18s-.03,.13-.07,.18c-.05,.05-.12,.07-.18,.07Z" style="fill: #1d1d1b;"/>
        <path d="M32.25,18.25c-.06,0-.12-.02-.17-.07-.05-.05-.08-.11-.08-.18s.03-.13,.07-.18c.11-.09,.26-.09,.36,0,.04,.05,.07,.11,.07,.18s-.03,.13-.07,.18c-.05,.05-.11,.07-.18,.07Z" style="fill: #1d1d1b;"/>
        <path d="M32.5,13.75c-.06,0-.13-.03-.17-.07-.05-.05-.08-.11-.08-.18s.03-.13,.08-.18c.09-.09,.26-.09,.35,0,.05,.05,.07,.12,.07,.18s-.02,.12-.07,.17c-.05,.05-.11,.08-.18,.08Z" style="fill: #1d1d1b;"/>
        <path d="M31.75,11.75c-.06,0-.12-.02-.17-.07-.05-.05-.08-.11-.08-.18s.03-.13,.08-.18c.1-.09,.25-.09,.35,0,.05,.05,.07,.11,.07,.18s-.03,.13-.07,.18c-.05,.05-.11,.07-.18,.07Z" style="fill: #1d1d1b;"/>
        <path d="M29.25,10.75c-.07,0-.13-.03-.18-.07-.04-.05-.07-.11-.07-.18s.03-.13,.08-.18c.1-.09,.25-.09,.35,0,.05,.05,.07,.11,.07,.18s-.02,.13-.07,.18c-.05,.04-.11,.07-.18,.07Z" style="fill: #1d1d1b;"/>
        <path d="M32.25,7c-.06,0-.12-.02-.17-.07-.05-.05-.08-.11-.08-.18s.03-.13,.07-.18c.11-.09,.26-.09,.36,0,.05,.05,.07,.11,.07,.18s-.03,.13-.07,.18c-.05,.05-.11,.07-.18,.07Z" style="fill: #1d1d1b;"/>
        <path d="M32,3c-.06,0-.12-.03-.17-.07-.05-.05-.08-.11-.08-.18s.03-.13,.08-.18c.1-.09,.25-.09,.35,0,.05,.05,.07,.12,.07,.18s-.02,.13-.07,.18c-.05,.04-.11,.07-.18,.07Z" style="fill: #1d1d1b;"/>
        <path d="M29.25,3.25c-.06,0-.12-.02-.17-.07-.05-.05-.08-.11-.08-.18s.03-.13,.08-.18c.09-.09,.25-.09,.35,0,.05,.05,.07,.11,.07,.18,0,.06-.02,.13-.07,.17-.05,.06-.11,.08-.18,.08Z" style="fill: #1d1d1b;"/>
        <path d="M34,1.25c-.06,0-.13-.03-.17-.07-.05-.05-.08-.11-.08-.18s.03-.14,.08-.18c.09-.09,.26-.09,.35,0,.05,.05,.07,.11,.07,.18,0,.06-.02,.12-.07,.17-.05,.05-.11,.08-.18,.08Z" style="fill: #1d1d1b;"/>
        <path d="M41.5,7c-.06,0-.13-.03-.17-.07-.05-.05-.08-.11-.08-.18s.03-.13,.08-.18c.09-.09,.24-.09,.34,0,.06,.06,.08,.12,.08,.18s-.02,.12-.07,.17c-.05,.06-.11,.08-.18,.08Z" style="fill: #1d1d1b;"/>
        <path d="M45.5,6.75c-.06,0-.12-.02-.17-.07-.05-.05-.08-.11-.08-.18s.03-.13,.08-.18c.09-.09,.25-.09,.35,0,.05,.05,.07,.12,.07,.18s-.02,.13-.07,.18c-.05,.05-.12,.07-.18,.07Z" style="fill: #1d1d1b;"/>
        <path d="M40.25,10.25c-.06,0-.12-.02-.17-.07-.05-.05-.08-.12-.08-.18,0-.07,.03-.13,.07-.18,.11-.09,.26-.09,.36,0,.05,.05,.07,.11,.07,.18,0,.06-.02,.13-.07,.17-.05,.06-.11,.08-.18,.08Z" style="fill: #1d1d1b;"/>
        <path d="M45,11.75c-.06,0-.12-.02-.17-.07-.05-.05-.08-.11-.08-.18s.03-.13,.08-.18c.1-.09,.25-.09,.35,0,.04,.05,.07,.11,.07,.18s-.02,.13-.07,.18c-.05,.05-.11,.07-.18,.07Z" style="fill: #1d1d1b;"/>
        <path d="M45,13.5c-.06,0-.12-.02-.17-.07-.05-.05-.08-.11-.08-.18s.03-.13,.08-.18c.08-.09,.26-.09,.35,0,.05,.04,.07,.1,.07,.17s-.02,.13-.07,.18c-.05,.05-.11,.07-.18,.07Z" style="fill: #1d1d1b;"/>
        <path d="M47,14.25c-.06,0-.12-.02-.17-.07-.05-.05-.08-.11-.08-.18s.03-.13,.08-.18c.09-.09,.25-.09,.35,0,.05,.05,.07,.12,.07,.18s-.02,.13-.07,.18c-.05,.05-.11,.07-.18,.07Z" style="fill: #1d1d1b;"/>
        <path d="M47,16.25c-.06,0-.13-.03-.17-.07-.05-.05-.08-.11-.08-.18s.03-.13,.08-.18c.08-.08,.26-.09,.35,0,.05,.04,.07,.11,.07,.17s-.02,.13-.07,.18c-.05,.04-.11,.07-.18,.07Z" style="fill: #1d1d1b;"/>
        <path d="M47.25,22.75c-.06,0-.13-.03-.17-.07-.05-.04-.08-.11-.08-.18s.03-.13,.08-.18c.08-.08,.25-.09,.35,0,.05,.05,.07,.11,.07,.18s-.03,.13-.07,.18c-.05,.05-.11,.07-.18,.07Z" style="fill: #1d1d1b;"/>
        <path d="M39,20.75c-.06,0-.12-.02-.17-.07-.05-.05-.08-.11-.08-.18s.03-.13,.08-.18c.1-.09,.25-.09,.35,0,.04,.05,.07,.11,.07,.18s-.03,.13-.07,.18c-.05,.05-.11,.07-.18,.07Z" style="fill: #1d1d1b;"/>
        <path d="M50.25,13.5c-.06,0-.13-.03-.17-.07-.05-.05-.08-.11-.08-.18s.03-.13,.08-.18c.1-.09,.26-.09,.35,0,.05,.05,.07,.12,.07,.18s-.02,.13-.07,.18c-.05,.04-.11,.07-.18,.07Z" style="fill: #1d1d1b;"/>
        <path d="M52.25,12c-.06,0-.12-.02-.17-.07-.05-.05-.08-.11-.08-.18s.03-.13,.08-.18c.09-.09,.25-.09,.35,0,.05,.05,.07,.12,.07,.18s-.02,.13-.07,.18c-.05,.05-.11,.07-.18,.07Z" style="fill: #1d1d1b;"/>
        <path d="M54.75,11c-.06,0-.13-.03-.17-.07-.05-.05-.08-.12-.08-.18,0-.07,.03-.13,.08-.18,.09-.09,.25-.09,.35,0,.05,.05,.07,.11,.07,.18,0,.06-.02,.13-.07,.18-.05,.04-.11,.07-.18,.07Z" style="fill: #1d1d1b;"/>
        <path d="M54.75,6.75c-.07,0-.13-.03-.17-.07-.05-.06-.08-.12-.08-.18s.03-.12,.07-.17c.1-.1,.26-.1,.36,0,.05,.06,.07,.12,.07,.18s-.02,.12-.07,.17c-.05,.05-.11,.08-.18,.08Z" style="fill: #1d1d1b;"/>
        <path d="M56.5,.75c-.06,0-.13-.03-.17-.07-.05-.05-.08-.12-.08-.18s.03-.13,.07-.18c.1-.09,.26-.09,.36,0,.05,.06,.07,.12,.07,.18s-.02,.12-.07,.17c-.05,.05-.11,.08-.18,.08Z" style="fill: #1d1d1b;"/>
        <path d="M64,6.5c-.06,0-.13-.03-.17-.07-.05-.05-.08-.12-.08-.18s.03-.13,.07-.17c.1-.1,.26-.1,.36,0,.05,.06,.07,.12,.07,.18s-.02,.12-.07,.17c-.05,.05-.11,.08-.18,.08Z" style="fill: #1d1d1b;"/>
        <path d="M65,2.5c-.06,0-.13-.03-.17-.07-.05-.05-.08-.11-.08-.18s.03-.13,.08-.18c.09-.09,.25-.09,.35,0,.05,.05,.07,.11,.07,.18s-.02,.13-.07,.17c-.05,.06-.11,.08-.18,.08Z" style="fill: #1d1d1b;"/>
        <path d="M68,3c-.06,0-.13-.03-.17-.07-.05-.05-.08-.11-.08-.18s.03-.13,.07-.18c.1-.09,.27-.09,.36,0,.05,.05,.07,.12,.07,.18s-.02,.13-.07,.18c-.05,.04-.11,.07-.18,.07Z" style="fill: #1d1d1b;"/>
        <path d="M68,10.25c-.06,0-.13-.03-.17-.07-.05-.05-.08-.11-.08-.18s.03-.13,.07-.18c.1-.09,.26-.09,.36,0,.05,.05,.07,.12,.07,.18s-.02,.13-.07,.18c-.05,.04-.11,.07-.18,.07Z" style="fill: #1d1d1b;"/>
        <path d="M64.25,12.25c-.06,0-.13-.03-.17-.07-.05-.05-.08-.12-.08-.18s.03-.13,.07-.17c.09-.1,.25-.1,.35,0,.06,.05,.08,.12,.08,.18s-.02,.13-.07,.17c-.05,.06-.11,.08-.18,.08Z" style="fill: #1d1d1b;"/>
        <path d="M65.25,15.75c-.07,0-.13-.03-.17-.07-.05-.05-.08-.11-.08-.18s.03-.13,.08-.18c.07-.08,.26-.09,.35,0,.05,.04,.07,.11,.07,.17s-.02,.12-.07,.17c-.04,.05-.11,.08-.18,.08Z" style="fill: #1d1d1b;"/>
        <path d="M64,19.75c-.06,0-.13-.03-.17-.07-.05-.05-.08-.11-.08-.18s.03-.13,.08-.18c.08-.09,.25-.09,.35,0,.05,.05,.07,.12,.07,.18s-.02,.13-.07,.18c-.05,.04-.11,.07-.18,.07Z" style="fill: #1d1d1b;"/>
        <path d="M66.25,19.75c-.07,0-.13-.03-.18-.08-.04-.04-.07-.1-.07-.17,0-.06,.03-.13,.07-.17,.09-.1,.26-.1,.36,0,.05,.05,.07,.12,.07,.18,0,.07-.02,.13-.07,.18-.05,.04-.11,.07-.18,.07Z" style="fill: #1d1d1b;"/>
        <path d="M68,21.25c-.06,0-.13-.03-.17-.07-.05-.05-.08-.12-.08-.18s.03-.12,.07-.17c.1-.1,.27-.1,.36,0,.05,.06,.07,.12,.07,.18s-.02,.12-.07,.17c-.05,.05-.11,.08-.18,.08Z" style="fill: #1d1d1b;"/>
        <path d="M69.25,20.25c-.06,0-.12-.02-.17-.07-.05-.05-.08-.11-.08-.18s.03-.13,.08-.18c.09-.09,.25-.09,.35,0,.05,.05,.07,.11,.07,.18s-.02,.13-.07,.18c-.05,.05-.11,.07-.18,.07Z" style="fill: #1d1d1b;"/>
        <path d="M69.5,18c-.06,0-.12-.02-.17-.07-.05-.05-.08-.11-.08-.18s.03-.13,.08-.18c.09-.09,.25-.09,.35,0,.05,.05,.07,.11,.07,.18s-.02,.13-.07,.18c-.05,.05-.11,.07-.18,.07Z" style="fill: #1d1d1b;"/>
        <path d="M71.25,17.5c-.06,0-.13-.03-.17-.07-.05-.05-.08-.12-.08-.18s.03-.12,.07-.17c.11-.1,.26-.1,.36,0,.05,.06,.07,.12,.07,.18s-.02,.12-.07,.17c-.05,.05-.11,.08-.18,.08Z" style="fill: #1d1d1b;"/>
        <path d="M8,47c-.06,0-.13-.03-.18-.07-.04-.06-.07-.12-.07-.18,0-.07,.03-.13,.07-.18,.09-.09,.26-.09,.36,0,.05,.05,.07,.11,.07,.18,0,.06-.02,.13-.07,.17-.05,.06-.11,.08-.18,.08Z" style="fill: #1d1d1b;"/>
        <path d="M7,52.25c-.06,0-.12-.02-.17-.07-.05-.05-.08-.11-.08-.18s.03-.13,.07-.18c.11-.09,.26-.09,.36,0,.05,.05,.07,.12,.07,.18,0,.07-.02,.13-.07,.18-.05,.05-.11,.07-.18,.07Z" style="fill: #1d1d1b;"/>
        <path d="M7.25,54.5c-.06,0-.13-.03-.17-.07-.05-.05-.08-.11-.08-.18,0-.06,.03-.13,.07-.18,.1-.09,.26-.09,.36,0,.04,.05,.07,.11,.07,.18s-.03,.13-.07,.18c-.05,.04-.11,.07-.18,.07Z" style="fill: #1d1d1b;"/>
        <path d="M5,56.75c-.06,0-.13-.03-.17-.07-.05-.05-.08-.11-.08-.18s.03-.13,.07-.17c.1-.1,.26-.1,.36,0,.05,.05,.07,.11,.07,.18s-.03,.13-.07,.18c-.05,.05-.12,.07-.18,.07Z" style="fill: #1d1d1b;"/>
        <path d="M2.25,54.5c-.06,0-.12-.02-.17-.07-.05-.05-.08-.11-.08-.18,0-.06,.03-.13,.07-.17,.11-.11,.26-.1,.35,0,.06,.06,.08,.12,.08,.18s-.02,.13-.07,.18c-.06,.05-.12,.07-.18,.07Z" style="fill: #1d1d1b;"/>
        <path d="M9.75,64c-.06,0-.12-.02-.17-.07-.05-.05-.08-.11-.08-.18s.03-.13,.07-.18c.11-.09,.26-.09,.36,0,.05,.05,.07,.11,.07,.18s-.02,.13-.07,.18-.11,.07-.18,.07Z" style="fill: #1d1d1b;"/>
        <path d="M2.25,67c-.06,0-.12-.03-.17-.07-.05-.05-.08-.11-.08-.18s.03-.13,.07-.18c.1-.09,.26-.09,.36,0,.05,.05,.07,.11,.07,.18,0,.06-.02,.13-.07,.18-.06,.05-.12,.07-.18,.07Z" style="fill: #1d1d1b;"/>
        <path d="M1,68c-.06,0-.13-.03-.18-.07-.04-.05-.07-.11-.07-.18,0-.06,.03-.13,.07-.18,.1-.09,.27-.09,.36,0,.05,.05,.07,.12,.07,.18s-.02,.13-.07,.18c-.05,.04-.11,.07-.18,.07Z" style="fill: #1d1d1b;"/>
        <path d="M11,71c-.06,0-.12-.02-.17-.07-.05-.05-.08-.11-.08-.18s.03-.13,.07-.18c.11-.09,.26-.09,.36,0,.05,.05,.07,.12,.07,.18s-.02,.13-.07,.18c-.05,.05-.12,.07-.18,.07Z" style="fill: #1d1d1b;"/>
        <path d="M17.75,69.75c-.06,0-.12-.02-.17-.07-.05-.05-.08-.11-.08-.18s.03-.13,.07-.18c.11-.09,.26-.09,.36,0,.05,.05,.07,.11,.07,.18s-.03,.13-.07,.18c-.05,.05-.12,.07-.18,.07Z" style="fill: #1d1d1b;"/>
        <path d="M18.25,67.25c-.06,0-.12-.03-.17-.07-.05-.06-.08-.12-.08-.18,0-.07,.03-.13,.07-.18,.11-.09,.26-.09,.36,0,.05,.05,.07,.11,.07,.18,0,.06-.02,.13-.07,.17-.05,.05-.11,.08-.18,.08Z" style="fill: #1d1d1b;"/>
        <path d="M16.25,62.25c-.07,0-.13-.03-.18-.08-.04-.04-.07-.1-.07-.17s.03-.13,.07-.18c.1-.09,.26-.09,.36,0,.05,.05,.07,.11,.07,.18s-.02,.13-.07,.18c-.05,.04-.11,.07-.18,.07Z" style="fill: #1d1d1b;"/>
        <path d="M19.25,62.25c-.06,0-.13-.03-.17-.07-.05-.05-.08-.11-.08-.18s.03-.13,.07-.18c.1-.09,.27-.09,.36,0,.04,.04,.07,.11,.07,.18s-.03,.14-.08,.18c-.04,.04-.1,.07-.17,.07Z" style="fill: #1d1d1b;"/>
        <path d="M19.5,57.75c-.06,0-.12-.02-.17-.07-.05-.05-.08-.11-.08-.18,0-.06,.03-.13,.07-.17,.11-.11,.26-.1,.36,0,.05,.06,.07,.12,.07,.18s-.02,.13-.07,.18c-.05,.05-.11,.07-.18,.07Z" style="fill: #1d1d1b;"/>
        <path d="M18.75,55.75c-.06,0-.12-.02-.17-.07-.05-.05-.08-.11-.08-.18s.03-.13,.08-.18c.1-.09,.26-.09,.35,0,.05,.05,.07,.12,.07,.18s-.02,.12-.07,.17c-.05,.05-.11,.08-.18,.08Z" style="fill: #1d1d1b;"/>
        <path d="M16.25,54.75c-.06,0-.13-.03-.18-.07-.04-.05-.07-.11-.07-.18,0-.06,.03-.12,.07-.17,.1-.1,.26-.1,.36,0,.05,.05,.07,.12,.07,.18,0,.07-.02,.13-.07,.18-.05,.05-.11,.07-.18,.07Z" style="fill: #1d1d1b;"/>
        <path d="M19.25,51c-.06,0-.13-.03-.17-.07-.05-.05-.08-.12-.08-.18,0-.07,.03-.13,.07-.18,.1-.09,.27-.09,.36,0,.04,.04,.07,.11,.07,.18s-.02,.13-.07,.18c-.05,.04-.11,.07-.18,.07Z" style="fill: #1d1d1b;"/>
        <path d="M19,47c-.06,0-.13-.03-.17-.07-.05-.05-.08-.12-.08-.18,0-.07,.03-.13,.07-.18,.1-.09,.26-.09,.36,0,.04,.05,.07,.11,.07,.18,0,.06-.02,.13-.07,.17-.05,.06-.11,.08-.18,.08Z" style="fill: #1d1d1b;"/>
        <path d="M16.25,47.25c-.07,0-.13-.03-.18-.07-.04-.05-.07-.12-.07-.18,0-.07,.03-.13,.07-.18,.09-.09,.26-.09,.36,0,.05,.05,.07,.11,.07,.18,0,.06-.02,.13-.07,.18-.05,.05-.11,.07-.18,.07Z" style="fill: #1d1d1b;"/>
        <path d="M21,45.25c-.06,0-.12-.02-.17-.07-.05-.05-.08-.11-.08-.18s.03-.13,.08-.18c.1-.09,.25-.09,.35,0,.05,.05,.07,.12,.07,.18s-.02,.12-.07,.17c-.05,.06-.11,.08-.18,.08Z" style="fill: #1d1d1b;"/>
        <path d="M28.5,51c-.06,0-.13-.03-.17-.07-.05-.05-.08-.11-.08-.18s.03-.13,.08-.18c.09-.09,.26-.09,.35,0,.05,.06,.07,.12,.07,.18s-.02,.13-.07,.18c-.05,.04-.11,.07-.18,.07Z" style="fill: #1d1d1b;"/>
        <path d="M32.5,50.75c-.06,0-.13-.03-.17-.07-.05-.05-.08-.11-.08-.18s.03-.13,.08-.18c.09-.09,.25-.09,.35,0,.05,.05,.07,.12,.07,.18s-.02,.13-.07,.18c-.05,.04-.11,.07-.18,.07Z" style="fill: #1d1d1b;"/>
        <path d="M27.25,54.25c-.07,0-.13-.03-.18-.08-.04-.04-.07-.1-.07-.17s.03-.14,.08-.18c.09-.09,.26-.09,.35,0,.05,.05,.07,.11,.07,.18,0,.06-.02,.13-.07,.18-.04,.04-.11,.07-.18,.07Z" style="fill: #1d1d1b;"/>
        <path d="M32,55.75c-.06,0-.12-.03-.17-.07-.05-.05-.08-.11-.08-.18,0-.06,.03-.13,.07-.17,.11-.11,.26-.1,.36,0,.05,.06,.07,.12,.07,.18,0,.07-.02,.13-.07,.18-.05,.04-.11,.07-.18,.07Z" style="fill: #1d1d1b;"/>
        <path d="M32,57.5c-.06,0-.12-.02-.17-.07-.05-.05-.08-.11-.08-.18,0-.06,.03-.13,.07-.17,.11-.11,.26-.1,.36,0,.05,.06,.07,.12,.07,.18s-.02,.13-.07,.18c-.05,.05-.11,.07-.18,.07Z" style="fill: #1d1d1b;"/>
        <path d="M34,58.25c-.07,0-.13-.03-.18-.08-.04-.04-.07-.1-.07-.17s.03-.14,.08-.18c.09-.09,.26-.09,.35,0,.05,.05,.07,.11,.07,.18,0,.06-.02,.13-.07,.18-.04,.04-.11,.07-.18,.07Z" style="fill: #1d1d1b;"/>
        <path d="M34,60.25c-.06,0-.12-.02-.17-.07-.05-.05-.08-.11-.08-.18s.03-.13,.08-.18c.09-.09,.26-.09,.35,0,.05,.06,.07,.12,.07,.18s-.02,.13-.07,.18c-.05,.04-.11,.07-.18,.07Z" style="fill: #1d1d1b;"/>
        <path d="M34.25,66.75c-.06,0-.13-.03-.17-.07-.05-.05-.08-.11-.08-.18s.03-.13,.08-.18c.09-.09,.25-.09,.35,0,.05,.05,.07,.12,.07,.18s-.02,.13-.07,.18c-.05,.04-.11,.07-.18,.07Z" style="fill: #1d1d1b;"/>
        <path d="M26,64.75c-.06,0-.12-.02-.17-.07-.05-.05-.08-.11-.08-.18s.03-.13,.08-.18c.09-.09,.26-.09,.35,0,.05,.04,.07,.11,.07,.17,0,.07-.02,.13-.07,.18-.05,.05-.11,.07-.18,.07Z" style="fill: #1d1d1b;"/>
        <path d="M37.25,57.5c-.06,0-.13-.03-.17-.07-.05-.05-.08-.11-.08-.18s.03-.13,.08-.18c.09-.09,.25-.09,.34,0,.06,.05,.08,.12,.08,.18s-.02,.12-.07,.17c-.05,.06-.11,.08-.18,.08Z" style="fill: #1d1d1b;"/>
        <path d="M39.25,56c-.06,0-.13-.03-.17-.07-.05-.05-.08-.11-.08-.18s.03-.13,.08-.18c.09-.09,.25-.09,.35,0,.05,.05,.07,.12,.07,.18s-.02,.12-.07,.17c-.05,.06-.11,.08-.18,.08Z" style="fill: #1d1d1b;"/>
        <path d="M41.75,55c-.06,0-.13-.03-.17-.07-.05-.05-.08-.11-.08-.18s.03-.14,.08-.18c.09-.09,.26-.09,.35,0,.05,.05,.07,.11,.07,.18,0,.06-.02,.12-.07,.17-.05,.05-.11,.08-.18,.08Z" style="fill: #1d1d1b;"/>
        <path d="M41.75,50.75c-.06,0-.12-.02-.17-.07-.05-.05-.08-.11-.08-.18s.03-.13,.08-.18c.09-.09,.26-.09,.35,0,.05,.05,.07,.11,.07,.18,0,.06-.02,.13-.07,.18-.05,.04-.11,.07-.18,.07Z" style="fill: #1d1d1b;"/>
        <path d="M43.5,44.75c-.06,0-.12-.03-.17-.07-.05-.05-.08-.11-.08-.18s.03-.13,.08-.18c.09-.09,.25-.09,.35,0,.05,.05,.07,.12,.07,.18s-.02,.13-.07,.18c-.05,.05-.12,.07-.18,.07Z" style="fill: #1d1d1b;"/>
        <path d="M51,50.5c-.06,0-.12-.03-.17-.07-.05-.05-.08-.11-.08-.18s.03-.13,.08-.18c.09-.09,.25-.09,.35,0,.05,.05,.07,.11,.07,.18s-.02,.13-.07,.18c-.05,.05-.11,.07-.18,.07Z" style="fill: #1d1d1b;"/>
        <path d="M52,46.5c-.06,0-.13-.03-.17-.07-.05-.05-.08-.11-.08-.18s.03-.13,.08-.18c.09-.09,.25-.09,.35,0,.05,.06,.07,.12,.07,.18s-.02,.12-.07,.17c-.05,.06-.11,.08-.18,.08Z" style="fill: #1d1d1b;"/>
        <path d="M55,47c-.06,0-.12-.02-.17-.07-.05-.05-.08-.11-.08-.18s.03-.13,.08-.18c.09-.09,.25-.09,.35,0,.05,.05,.07,.12,.07,.18s-.02,.13-.07,.18c-.05,.05-.11,.07-.18,.07Z" style="fill: #1d1d1b;"/>
        <path d="M55,54.25c-.06,0-.12-.03-.17-.07-.05-.05-.08-.11-.08-.18s.03-.13,.08-.18c.09-.09,.25-.09,.35,0,.05,.05,.07,.12,.07,.18s-.02,.13-.07,.18c-.05,.05-.11,.07-.18,.07Z" style="fill: #1d1d1b;"/>
        <path d="M51.25,56.25c-.06,0-.13-.03-.17-.07-.05-.05-.08-.11-.08-.18s.03-.13,.08-.18c.09-.09,.25-.09,.35,0,.05,.05,.07,.11,.07,.18s-.02,.13-.07,.18c-.05,.04-.11,.07-.18,.07Z" style="fill: #1d1d1b;"/>
        <path d="M52.25,59.75c-.06,0-.12-.02-.17-.07-.05-.05-.08-.11-.08-.18s.03-.13,.08-.18c.09-.09,.25-.09,.35,0,.05,.06,.07,.12,.07,.18s-.02,.12-.07,.17c-.05,.06-.11,.08-.18,.08Z" style="fill: #1d1d1b;"/>
        <path d="M51,63.75c-.06,0-.13-.03-.17-.07-.05-.05-.08-.11-.08-.18s.03-.13,.08-.18c.09-.09,.25-.09,.35,0,.05,.05,.07,.12,.07,.18s-.02,.13-.07,.17c-.05,.06-.11,.08-.18,.08Z" style="fill: #1d1d1b;"/>
        <path d="M53.25,63.75c-.06,0-.13-.03-.17-.07-.05-.05-.08-.12-.08-.18s.03-.13,.07-.17c.1-.1,.26-.1,.36,0,.05,.06,.07,.12,.07,.18s-.02,.12-.07,.17c-.05,.05-.11,.08-.18,.08Z" style="fill: #1d1d1b;"/>
        <path d="M55,65.25c-.06,0-.12-.03-.17-.07-.05-.05-.08-.11-.08-.18s.03-.13,.08-.18c.09-.09,.25-.09,.35,0,.05,.05,.07,.12,.07,.18s-.02,.13-.07,.18c-.05,.05-.11,.07-.18,.07Z" style="fill: #1d1d1b;"/>
        <path d="M56.25,64.25c-.06,0-.12-.03-.17-.07-.05-.05-.08-.11-.08-.18s.03-.13,.08-.18c.09-.09,.25-.09,.35,0,.05,.05,.07,.12,.07,.18,0,.07-.02,.13-.07,.18-.05,.05-.11,.07-.18,.07Z" style="fill: #1d1d1b;"/>
        <path d="M56.5,62c-.06,0-.13-.03-.17-.07-.05-.06-.08-.12-.08-.18,0-.07,.03-.13,.08-.18,.07-.08,.26-.09,.35,0,.05,.04,.07,.11,.07,.17s-.02,.12-.07,.17c-.05,.05-.11,.08-.18,.08Z" style="fill: #1d1d1b;"/>
        <path d="M58.25,61.5c-.06,0-.13-.03-.17-.07-.05-.05-.08-.12-.08-.18s.03-.13,.07-.17c.1-.1,.27-.1,.36,0,.05,.06,.07,.12,.07,.18s-.02,.12-.07,.17c-.04,.05-.11,.08-.18,.08Z" style="fill: #1d1d1b;"/>
        <path d="M21,27c-.06,0-.12-.02-.17-.07-.05-.05-.08-.11-.08-.18s.03-.13,.08-.18c.1-.09,.25-.09,.35,0,.05,.05,.07,.12,.07,.18s-.02,.13-.07,.18c-.05,.05-.12,.07-.18,.07Z" style="fill: #1d1d1b;"/>
        <path d="M22.75,24c-.07,0-.13-.03-.18-.07-.04-.05-.07-.11-.07-.18s.03-.13,.08-.18c.1-.09,.26-.09,.35,0,.05,.05,.07,.12,.07,.18s-.02,.13-.07,.18c-.04,.04-.11,.07-.18,.07Z" style="fill: #1d1d1b;"/>
        <path d="M25.25,24.5c-.06,0-.12-.03-.17-.07-.05-.05-.08-.11-.08-.18s.03-.13,.08-.18c.1-.09,.25-.09,.35,0,.05,.05,.07,.12,.07,.18s-.02,.13-.07,.18c-.05,.04-.11,.07-.18,.07Z" style="fill: #1d1d1b;"/>
        <path d="M35.25,23.25c-.06,0-.12-.02-.17-.07-.05-.05-.08-.11-.08-.18s.03-.13,.08-.18c.1-.09,.25-.09,.35,0,.05,.05,.07,.11,.07,.18s-.03,.13-.07,.18c-.05,.05-.11,.07-.18,.07Z" style="fill: #1d1d1b;"/>
        <path d="M39,24.75c-.06,0-.12-.02-.17-.07-.05-.05-.08-.11-.08-.18s.03-.13,.08-.18c.1-.09,.25-.09,.35,0,.05,.05,.07,.11,.07,.18s-.03,.13-.07,.18c-.05,.05-.12,.07-.18,.07Z" style="fill: #1d1d1b;"/>
        <path d="M45,29.5c-.06,0-.12-.02-.17-.07-.05-.05-.08-.11-.08-.18s.03-.13,.08-.18c.1-.09,.25-.09,.35,0,.05,.05,.07,.11,.07,.18s-.02,.13-.07,.18c-.05,.05-.12,.07-.18,.07Z" style="fill: #1d1d1b;"/>
        <path d="M46.25,29c-.06,0-.13-.03-.17-.07-.05-.05-.08-.11-.08-.18s.03-.13,.08-.18c.09-.09,.25-.09,.34,0,.06,.06,.08,.12,.08,.18s-.02,.12-.07,.17c-.05,.06-.11,.08-.18,.08Z" style="fill: #1d1d1b;"/>
        <path d="M55.25,28c-.06,0-.13-.03-.17-.07-.05-.05-.08-.11-.08-.18s.03-.13,.08-.18c.09-.09,.25-.09,.35,0,.05,.05,.07,.12,.07,.18s-.02,.13-.07,.18c-.05,.04-.11,.07-.18,.07Z" style="fill: #1d1d1b;"/>
        <path d="M51.25,25.25c-.06,0-.12-.02-.17-.07-.05-.05-.08-.11-.08-.18s.03-.13,.08-.18c.09-.09,.25-.09,.35,0,.05,.05,.07,.11,.07,.18s-.03,.13-.07,.18c-.05,.05-.11,.07-.18,.07Z" style="fill: #1d1d1b;"/>
        <path d="M52,29.5c-.06,0-.13-.03-.17-.07-.05-.05-.08-.11-.08-.18s.03-.13,.08-.18c.09-.09,.25-.09,.35,0,.05,.06,.07,.12,.07,.18s-.02,.12-.07,.17c-.05,.06-.11,.08-.18,.08Z" style="fill: #1d1d1b;"/>
        <path d="M62.5,35.5c-.06,0-.13-.03-.17-.07-.05-.05-.08-.11-.08-.18s.03-.13,.08-.18c.08-.08,.24-.09,.34,0,.06,.05,.08,.12,.08,.18s-.02,.13-.07,.18c-.05,.05-.12,.07-.18,.07Z" style="fill: #1d1d1b;"/>
        <path d="M58.25,38.25c-.07,0-.13-.03-.17-.07-.05-.05-.08-.12-.08-.18s.03-.13,.07-.17c.1-.1,.27-.1,.36,0,.05,.06,.07,.12,.07,.18s-.02,.12-.07,.17c-.04,.05-.11,.08-.18,.08Z" style="fill: #1d1d1b;"/>
        <path d="M49,39c-.07,0-.13-.03-.17-.07-.05-.05-.08-.12-.08-.18s.03-.13,.07-.17c.1-.1,.26-.1,.36,0,.05,.06,.07,.12,.07,.18s-.02,.12-.07,.17c-.05,.05-.11,.08-.18,.08Z" style="fill: #1d1d1b;"/>
        <path d="M48,41.25c-.06,0-.12-.02-.17-.07-.05-.05-.08-.11-.08-.18s.03-.13,.08-.18c.09-.09,.24-.09,.34,0,.06,.05,.08,.12,.08,.18s-.02,.12-.07,.17c-.06,.06-.11,.08-.18,.08Z" style="fill: #1d1d1b;"/>
        <path d="M52,43c-.07,0-.13-.03-.18-.08-.04-.04-.07-.1-.07-.17s.03-.13,.08-.18c.09-.09,.25-.09,.35,0,.05,.05,.07,.12,.07,.18s-.02,.13-.07,.18c-.05,.04-.11,.07-.18,.07Z" style="fill: #1d1d1b;"/>
        <path d="M53.5,45c-.06,0-.13-.03-.17-.07-.05-.05-.08-.11-.08-.18s.03-.13,.08-.18c.08-.09,.25-.09,.35,0,.05,.05,.07,.12,.07,.18s-.02,.13-.07,.18c-.05,.04-.11,.07-.18,.07Z" style="fill: #1d1d1b;"/>
        <path d="M62.25,48c-.06,0-.13-.03-.17-.07-.05-.05-.08-.12-.08-.18s.03-.13,.07-.17c.1-.1,.26-.1,.36,0,.05,.06,.07,.12,.07,.18s-.02,.12-.07,.17c-.05,.05-.11,.08-.18,.08Z" style="fill: #1d1d1b;"/>
        <path d="M65,51.75c-.06,0-.12-.03-.17-.07-.05-.05-.08-.11-.08-.18s.03-.14,.08-.18c.09-.08,.25-.09,.35,0,.04,.05,.07,.11,.07,.18s-.02,.13-.07,.18c-.05,.05-.11,.07-.18,.07Z" style="fill: #1d1d1b;"/>
        <path d="M67,51.75c-.06,0-.13-.03-.17-.07-.05-.05-.08-.11-.08-.18s.03-.13,.08-.18c.08-.08,.25-.09,.35,0,.05,.05,.07,.11,.07,.18s-.02,.13-.07,.18c-.05,.05-.11,.07-.18,.07Z" style="fill: #1d1d1b;"/>
        <path d="M69.5,45c-.06,0-.12-.03-.17-.07-.05-.05-.08-.11-.08-.18s.03-.13,.08-.18c.09-.09,.25-.09,.35,0,.05,.05,.07,.11,.07,.18s-.02,.13-.07,.18c-.05,.05-.11,.07-.18,.07Z" style="fill: #1d1d1b;"/>
        <path d="M60,39c-.06,0-.12-.02-.17-.07-.05-.05-.08-.11-.08-.18s.03-.13,.08-.18c.09-.09,.25-.09,.35,0,.04,.05,.07,.11,.07,.18s-.03,.13-.07,.18c-.05,.05-.11,.07-.18,.07Z" style="fill: #1d1d1b;"/>
        <path d="M47.25,47.75c-.06,0-.13-.03-.17-.07-.05-.05-.08-.11-.08-.18s.03-.14,.08-.18c.08-.08,.25-.09,.35,0,.04,.05,.07,.11,.07,.18s-.02,.13-.07,.18c-.05,.05-.11,.07-.18,.07Z" style="fill: #1d1d1b;"/>
        <path d="M32.5,47c-.06,0-.12-.03-.17-.07-.05-.05-.08-.11-.08-.18s.03-.13,.08-.18c.09-.09,.26-.09,.35,0,.05,.05,.07,.12,.07,.18s-.02,.13-.07,.18c-.05,.04-.11,.07-.18,.07Z" style="fill: #1d1d1b;"/>
        <path d="M37,44.5c-.06,0-.12-.03-.17-.07-.05-.05-.08-.12-.08-.18,0-.07,.03-.13,.07-.17,.11-.11,.26-.1,.36,0,.05,.05,.07,.12,.07,.18s-.02,.13-.07,.17c-.05,.05-.11,.08-.18,.08Z" style="fill: #1d1d1b;"/>
        <path d="M26.25,37.75c-.06,0-.12-.03-.17-.07-.05-.05-.08-.11-.08-.18s.03-.13,.08-.18c.1-.09,.25-.09,.35,0,.05,.05,.07,.12,.07,.18s-.02,.13-.07,.18c-.05,.04-.11,.07-.18,.07Z" style="fill: #1d1d1b;"/>
        <path d="M29.75,35.5c-.06,0-.12-.02-.17-.07-.05-.05-.08-.11-.08-.18s.03-.13,.08-.18c.1-.09,.25-.09,.35,0,.05,.05,.07,.12,.07,.18s-.02,.12-.07,.17c-.05,.06-.11,.08-.18,.08Z" style="fill: #1d1d1b;"/>
        <path d="M17,28.5c-.06,0-.12-.02-.17-.07-.05-.05-.08-.11-.08-.18,0-.06,.03-.12,.07-.17,.11-.11,.26-.1,.36,0,.05,.05,.07,.12,.07,.18,0,.07-.02,.13-.07,.18-.05,.05-.11,.07-.18,.07Z" style="fill: #1d1d1b;"/>
        <path d="M10.5,29.5c-.06,0-.12-.02-.17-.07-.05-.05-.08-.11-.08-.18,0-.06,.03-.12,.07-.17,.11-.11,.26-.1,.36,0,.05,.06,.07,.12,.07,.18s-.02,.13-.07,.18c-.05,.05-.11,.07-.18,.07Z" style="fill: #1d1d1b;"/>
        <path d="M6,31.5c-.06,0-.12-.02-.17-.07-.05-.05-.08-.11-.08-.18,0-.06,.03-.12,.07-.17,.12-.11,.26-.1,.36,0,.05,.06,.07,.12,.07,.18,0,.07-.02,.13-.07,.18-.05,.05-.11,.07-.18,.07Z" style="fill: #1d1d1b;"/>
        <path d="M2.5,35.25c-.07,0-.13-.03-.17-.07-.05-.05-.08-.12-.08-.18,0-.07,.03-.13,.08-.18,.08-.09,.24-.09,.34,0,.06,.05,.08,.11,.08,.18,0,.06-.02,.13-.07,.17-.05,.06-.11,.08-.18,.08Z" style="fill: #1d1d1b;"/>
        <path d="M11.25,36.75c-.07,0-.13-.03-.18-.07-.04-.05-.07-.12-.07-.18,0-.07,.03-.13,.07-.18,.1-.09,.25-.09,.36,0,.05,.05,.07,.11,.07,.18s-.02,.13-.07,.18c-.05,.05-.11,.07-.18,.07Z" style="fill: #1d1d1b;"/>
        <path d="M17,42c-.06,0-.12-.02-.17-.07-.05-.05-.08-.11-.08-.18,0-.06,.03-.13,.07-.18,.11-.09,.26-.09,.36,0,.05,.05,.07,.11,.07,.18s-.03,.13-.07,.18c-.05,.05-.11,.07-.18,.07Z" style="fill: #1d1d1b;"/>
        <path d="M12.75,36c-.06,0-.13-.03-.17-.07-.05-.05-.08-.11-.08-.18,0-.06,.03-.13,.07-.17,.1-.1,.26-.1,.36,0,.05,.05,.07,.11,.07,.18s-.02,.13-.07,.18c-.05,.05-.12,.07-.18,.07Z" style="fill: #1d1d1b;"/>
        <path d="M26.5,30.25c-.06,0-.12-.02-.17-.07-.05-.05-.08-.11-.08-.18s.03-.13,.08-.18c.1-.09,.25-.09,.35,0,.05,.05,.07,.12,.07,.18s-.02,.13-.07,.18c-.05,.05-.11,.07-.18,.07Z" style="fill: #1d1d1b;"/>
        <path d="M37.75,31c-.06,0-.12-.02-.17-.07-.05-.05-.08-.11-.08-.18s.03-.13,.08-.18c.1-.09,.25-.09,.35,0,.05,.05,.07,.11,.07,.18s-.02,.13-.07,.18c-.05,.05-.12,.07-.18,.07Z" style="fill: #1d1d1b;"/>
        <path d="M39.5,32.5c-.06,0-.12-.02-.17-.07-.05-.05-.08-.11-.08-.18s.03-.13,.08-.18c.08-.09,.26-.09,.35,0,.05,.04,.07,.11,.07,.17s-.02,.13-.07,.18c-.05,.04-.11,.07-.18,.07Z" style="fill: #1d1d1b;"/>
        <path d="M28,42c-.06,0-.12-.03-.17-.07-.05-.05-.08-.12-.08-.18s.03-.12,.07-.17c.11-.1,.26-.1,.35,0,.06,.06,.08,.12,.08,.18s-.02,.13-.07,.17c-.05,.06-.11,.08-.18,.08Z" style="fill: #1d1d1b;"/>
        <path d="M6.5,20.5c-.06,0-.13-.03-.17-.07-.05-.05-.08-.12-.08-.18,0-.07,.03-.13,.07-.18,.1-.09,.26-.09,.36,0,.05,.05,.07,.11,.07,.18,0,.06-.02,.13-.07,.17-.05,.06-.11,.08-.18,.08Z" style="fill: #1d1d1b;"/>
        <path d="M10.25,20.25c-.06,0-.13-.03-.17-.07-.05-.05-.08-.11-.08-.18s.03-.13,.07-.18c.1-.09,.26-.09,.36,0,.05,.05,.07,.11,.07,.18s-.02,.13-.07,.18c-.05,.05-.11,.07-.18,.07Z" style="fill: #1d1d1b;"/>
        <path d="M11.75,23.5c-.06,0-.12-.02-.17-.07-.05-.05-.08-.11-.08-.18,0-.06,.03-.12,.07-.17,.11-.11,.26-.1,.36,0,.05,.06,.07,.12,.07,.18s-.02,.13-.07,.18c-.05,.05-.12,.07-.18,.07Z" style="fill: #1d1d1b;"/>
        <path d="M3,25.75c-.06,0-.13-.03-.17-.07-.05-.05-.08-.11-.08-.18s.03-.13,.07-.18c.1-.09,.26-.09,.36,0,.05,.05,.07,.11,.07,.18s-.02,.13-.07,.18c-.05,.05-.12,.07-.18,.07Z" style="fill: #1d1d1b;"/>
        <path d="M64.25,29.5c-.06,0-.13-.03-.17-.07-.05-.05-.08-.12-.08-.18s.03-.13,.07-.17c.1-.1,.25-.1,.35,0,.06,.05,.08,.12,.08,.18s-.02,.13-.07,.17c-.05,.06-.11,.08-.18,.08Z" style="fill: #1d1d1b;"/>
        <path d="M67.5,30.75c-.06,0-.13-.03-.17-.07-.05-.05-.08-.11-.08-.18,0-.06,.03-.13,.07-.17,.1-.1,.26-.1,.36,0,.05,.06,.07,.12,.07,.18s-.02,.13-.07,.18c-.05,.04-.11,.07-.18,.07Z" style="fill: #1d1d1b;"/>
        <path d="M69.5,29.75c-.06,0-.13-.03-.17-.07-.05-.05-.08-.11-.08-.18s.03-.13,.08-.18c.09-.09,.25-.09,.35,0,.05,.05,.07,.11,.07,.18s-.02,.13-.07,.18c-.05,.04-.11,.07-.18,.07Z" style="fill: #1d1d1b;"/>
        <path d="M7.25,15.75c-.07,0-.13-.03-.18-.08-.04-.04-.07-.1-.07-.17s.03-.13,.07-.18c.1-.09,.26-.09,.36,0,.04,.05,.07,.11,.07,.18s-.03,.13-.07,.18c-.05,.04-.11,.07-.18,.07Z" style="fill: #1d1d1b;"/>
        <path d="M1.5,9c-.06,0-.13-.03-.18-.07-.04-.05-.07-.11-.07-.18s.03-.13,.07-.18c.09-.09,.26-.09,.36,0,.05,.05,.07,.12,.07,.18s-.02,.13-.07,.18c-.05,.04-.11,.07-.18,.07Z" style="fill: #1d1d1b;"/>
        <path d="M14.5,6.5c-.06,0-.12-.02-.17-.07-.05-.05-.08-.11-.08-.18,0-.06,.03-.13,.07-.17,.11-.11,.26-.1,.36,0,.05,.05,.07,.11,.07,.18s-.02,.13-.07,.18c-.05,.05-.11,.07-.18,.07Z" style="fill: #1d1d1b;"/>
        <path d="M8.5,5.25c-.06,0-.12-.02-.17-.07-.05-.05-.08-.11-.08-.18s.03-.13,.07-.18c.1-.09,.27-.09,.36,0,.05,.04,.07,.1,.07,.17,0,.06-.02,.13-.07,.18-.05,.05-.11,.07-.18,.07Z" style="fill: #1d1d1b;"/>
        <path d="M3.5,2.5c-.07,0-.13-.03-.18-.08-.04-.04-.07-.1-.07-.17s.03-.13,.08-.18c.08-.09,.25-.09,.35,0,.04,.05,.07,.11,.07,.18s-.03,.13-.07,.18c-.05,.04-.11,.07-.18,.07Z" style="fill: #1d1d1b;"/>
        <path d="M3.75,6c-.06,0-.13-.03-.17-.07-.05-.05-.08-.11-.08-.18,0-.06,.03-.13,.07-.18,.09-.09,.26-.09,.36,0,.05,.05,.07,.11,.07,.18s-.02,.13-.07,.18c-.05,.05-.12,.07-.18,.07Z" style="fill: #1d1d1b;"/>
        <path d="M12.75,14.25c-.06,0-.13-.03-.17-.07-.05-.05-.08-.12-.08-.18,0-.07,.03-.13,.07-.18,.1-.09,.26-.09,.36,0,.05,.05,.07,.11,.07,.18,0,.06-.02,.13-.07,.17-.05,.06-.11,.08-.18,.08Z" style="fill: #1d1d1b;"/>
        <path d="M18.5,19.25c-.06,0-.12-.02-.17-.07-.05-.05-.08-.11-.08-.18,0-.06,.03-.13,.07-.17,.11-.11,.27-.1,.36,0,.05,.06,.07,.12,.07,.18,0,.07-.02,.13-.07,.18-.05,.04-.11,.07-.18,.07Z" style="fill: #1d1d1b;"/>
        <path d="M21.25,37c-.06,0-.12-.02-.17-.07-.05-.05-.08-.12-.08-.18,0-.07,.03-.13,.07-.18,.11-.09,.26-.09,.36,0,.05,.05,.07,.11,.07,.18,0,.06-.02,.13-.07,.17-.05,.06-.11,.08-.18,.08Z" style="fill: #1d1d1b;"/>
        <path d="M.75,44.25c-.06,0-.13-.03-.17-.07-.05-.05-.08-.11-.08-.18s.03-.13,.08-.18c.07-.08,.25-.09,.35,0,.04,.04,.07,.1,.07,.17s-.03,.13-.07,.18c-.05,.04-.11,.07-.18,.07Z" style="fill: #1d1d1b;"/>
        <path d="M66.5,37.25c-.06,0-.13-.03-.17-.07-.05-.05-.08-.11-.08-.18s.03-.13,.08-.18c.09-.09,.25-.09,.35,0,.05,.05,.07,.12,.07,.18s-.02,.13-.07,.18c-.05,.04-.11,.07-.18,.07Z" style="fill: #1d1d1b;"/>
        <path d="M68,66c-.06,0-.13-.03-.17-.07-.05-.05-.08-.12-.08-.18,0-.07,.03-.13,.07-.18,.1-.09,.26-.09,.36,0,.05,.05,.07,.12,.07,.18s-.02,.12-.07,.17c-.05,.05-.11,.08-.18,.08Z" style="fill: #1d1d1b;"/>
        <path d="M59.75,69.75c-.07,0-.13-.03-.18-.08-.04-.04-.07-.1-.07-.17s.03-.13,.08-.18c.09-.09,.25-.09,.35,0,.05,.05,.07,.12,.07,.18,0,.07-.02,.13-.07,.18-.05,.04-.11,.07-.18,.07Z" style="fill: #1d1d1b;"/>
        <path d="M40.5,68c-.06,0-.12-.02-.17-.07-.05-.05-.08-.11-.08-.18s.03-.13,.08-.18c.09-.09,.25-.09,.35,0,.05,.05,.07,.12,.07,.18s-.02,.13-.07,.18c-.05,.05-.12,.07-.18,.07Z" style="fill: #1d1d1b;"/>
        <path d="M44,63c-.06,0-.12-.02-.17-.07-.05-.04-.08-.11-.08-.18s.03-.13,.08-.18c.09-.09,.25-.09,.35,0,.05,.05,.07,.12,.07,.18,0,.07-.02,.13-.07,.18-.05,.05-.11,.07-.18,.07Z" style="fill: #1d1d1b;"/>
        <path d="M25.75,70c-.06,0-.12-.02-.17-.07-.05-.05-.08-.11-.08-.18s.03-.13,.08-.18c.09-.09,.25-.09,.35,0,.05,.05,.07,.11,.07,.18,0,.06-.02,.12-.07,.17-.05,.06-.11,.08-.18,.08Z" style="fill: #1d1d1b;"/>
        <path d="M4.5,60c-.06,0-.12-.02-.17-.07-.05-.05-.08-.11-.08-.18,0-.06,.03-.13,.07-.17,.11-.11,.26-.1,.36,0,.05,.06,.07,.12,.07,.18s-.02,.13-.07,.18c-.05,.05-.12,.07-.18,.07Z" style="fill: #1d1d1b;"/>
        <path d="M26.5,59.5c-.06,0-.12-.02-.17-.07-.05-.05-.08-.11-.08-.18s.03-.13,.08-.18c.1-.09,.25-.09,.35,0,.05,.05,.07,.11,.07,.18,0,.06-.02,.13-.07,.18-.05,.05-.11,.07-.18,.07Z" style="fill: #1d1d1b;"/>
        <path d="M37.25,48.5c-.06,0-.12-.03-.17-.07-.05-.05-.08-.11-.08-.18s.03-.13,.08-.18c.09-.09,.24-.09,.34,0,.06,.05,.08,.12,.08,.18s-.02,.13-.07,.18c-.06,.05-.12,.07-.18,.07Z" style="fill: #1d1d1b;"/>
        <path d="M22,41.75c-.06,0-.12-.02-.17-.07-.05-.05-.08-.11-.08-.18s.03-.13,.08-.18c.1-.09,.25-.09,.35,0,.05,.05,.07,.12,.07,.18s-.02,.13-.07,.18c-.05,.05-.12,.07-.18,.07Z" style="fill: #1d1d1b;"/>
        <path d="M8.75,40.25c-.06,0-.13-.03-.17-.07-.05-.05-.08-.12-.08-.18,0-.07,.03-.13,.08-.18,.09-.09,.25-.09,.35,0,.04,.05,.07,.11,.07,.18s-.02,.13-.07,.18c-.05,.05-.11,.07-.18,.07Z" style="fill: #1d1d1b;"/>
        <path d="M24,29c-.06,0-.12-.02-.17-.07-.05-.05-.08-.11-.08-.18s.03-.13,.08-.18c.1-.09,.25-.09,.35,0,.05,.05,.07,.12,.07,.18s-.02,.12-.07,.17c-.05,.06-.11,.08-.18,.08Z" style="fill: #1d1d1b;"/>
        <path d="M41.5,34.5c-.06,0-.13-.03-.17-.07-.05-.05-.08-.11-.08-.18s.03-.13,.08-.18c.09-.09,.25-.09,.34,0,.06,.06,.08,.12,.08,.18s-.02,.12-.07,.17c-.05,.06-.11,.08-.18,.08Z" style="fill: #1d1d1b;"/>
        <path d="M51.5,37.5c-.06,0-.13-.03-.17-.07-.05-.05-.08-.11-.08-.18s.03-.13,.08-.18c.09-.09,.25-.09,.35,0,.05,.05,.07,.12,.07,.18s-.02,.13-.07,.17c-.05,.06-.11,.08-.18,.08Z" style="fill: #1d1d1b;"/>
        <path d="M60.75,46c-.06,0-.12-.03-.17-.07-.05-.05-.08-.11-.08-.18s.03-.14,.08-.18c.09-.09,.25-.09,.35,0,.05,.05,.07,.11,.07,.18s-.02,.13-.07,.18c-.05,.04-.11,.07-.18,.07Z" style="fill: #1d1d1b;"/>
        <path d="M67.5,43.75c-.06,0-.13-.03-.17-.07-.05-.05-.08-.11-.08-.18s.03-.13,.08-.18c.08-.08,.25-.09,.35,0,.05,.05,.07,.12,.07,.18s-.02,.13-.07,.18c-.05,.04-.11,.07-.18,.07Z" style="fill: #1d1d1b;"/>
        <path d="M51.25,66.25c-.06,0-.12-.02-.17-.07-.05-.05-.08-.11-.08-.18s.03-.13,.08-.18c.09-.09,.25-.09,.35,0,.05,.05,.07,.11,.07,.18s-.03,.13-.07,.18c-.05,.05-.11,.07-.18,.07Z" style="fill: #1d1d1b;"/>
        <path d="M40,37.75c-.06,0-.13-.03-.17-.07-.05-.05-.08-.11-.08-.18s.03-.13,.08-.18c.09-.09,.26-.09,.35,0,.05,.05,.07,.12,.07,.18s-.02,.12-.07,.17c-.05,.05-.11,.08-.18,.08Z" style="fill: #1d1d1b;"/>
        <path d="M53.25,15c-.06,0-.13-.03-.17-.07-.05-.05-.08-.11-.08-.18s.03-.13,.08-.18c.07-.08,.26-.09,.35,0,.05,.04,.07,.11,.07,.17s-.02,.13-.07,.18c-.05,.04-.11,.07-.18,.07Z" style="fill: #1d1d1b;"/>
        <path d="M34,16c-.07,0-.13-.03-.18-.08-.04-.04-.07-.1-.07-.17s.03-.14,.08-.18c.09-.09,.26-.09,.35,0,.05,.05,.07,.11,.07,.18,0,.06-.02,.13-.07,.18-.05,.04-.11,.07-.18,.07Z" style="fill: #1d1d1b;"/>
        <path d="M27.5,13.5c-.06,0-.12-.02-.17-.07-.05-.05-.08-.11-.08-.18s.03-.13,.07-.17c.11-.11,.26-.1,.36,0,.05,.05,.07,.12,.07,.18,0,.07-.02,.13-.07,.18-.05,.05-.11,.07-.18,.07Z" style="fill: #1d1d1b;"/>
        <path d="M12.75,19.25c-.06,0-.13-.03-.17-.07-.05-.05-.08-.11-.08-.18,0-.06,.03-.12,.07-.17,.1-.1,.26-.1,.36,0,.05,.05,.07,.12,.07,.18,0,.07-.02,.13-.07,.18-.05,.05-.11,.07-.18,.07Z" style="fill: #1d1d1b;"/>
        <path d="M19.75,26.5c-.06,0-.12-.02-.17-.07-.05-.05-.08-.11-.08-.18,0-.06,.03-.12,.07-.17,.11-.11,.26-.1,.36,0,.05,.05,.07,.12,.07,.18,0,.07-.02,.13-.07,.18-.05,.05-.12,.07-.18,.07Z" style="fill: #1d1d1b;"/>
        <path d="M49.5,4.5c-.06,0-.13-.03-.17-.07-.05-.04-.08-.11-.08-.18s.03-.14,.08-.18c.08-.08,.25-.09,.35,0,.05,.05,.07,.12,.07,.18s-.02,.13-.07,.18c-.05,.04-.11,.07-.18,.07Z" style="fill: #1d1d1b;"/>
        <path d="M11.75,1.75c-.06,0-.12-.02-.17-.07-.05-.05-.08-.11-.08-.18,0-.06,.03-.13,.07-.18,.1-.09,.27-.09,.36,0,.05,.05,.07,.12,.07,.18s-.02,.13-.07,.18c-.05,.05-.11,.07-.18,.07Z" style="fill: #1d1d1b;"/>
        <path d="M55.25,3.75c-.06,0-.13-.03-.17-.07-.05-.05-.08-.11-.08-.18s.03-.13,.08-.18c.08-.09,.25-.09,.35,0,.05,.05,.07,.12,.07,.18s-.02,.13-.07,.18c-.05,.04-.11,.07-.18,.07Z" style="fill: #1d1d1b;"/>
        <path d="M59,20.75c-.06,0-.13-.03-.17-.07-.05-.05-.08-.11-.08-.18s.03-.13,.08-.18c.08-.09,.25-.09,.35,0,.05,.06,.07,.12,.07,.18s-.02,.12-.07,.17c-.05,.06-.11,.08-.18,.08Z" style="fill: #1d1d1b;"/>
        <path d="M67.5,57.25c-.06,0-.13-.03-.17-.07-.05-.05-.08-.12-.08-.18,0-.07,.03-.13,.08-.18,.09-.09,.25-.09,.35,0,.05,.05,.07,.12,.07,.18s-.02,.12-.07,.17c-.05,.05-.11,.08-.18,.08Z" style="fill: #1d1d1b;"/>
        <path d="M47.25,69.75c-.06,0-.13-.03-.17-.07-.05-.04-.08-.11-.08-.18s.03-.14,.08-.18c.08-.08,.25-.09,.35,0,.04,.05,.07,.11,.07,.18s-.03,.13-.07,.18c-.05,.05-.11,.07-.18,.07Z" style="fill: #1d1d1b;"/>
        <path d="M5.25,69.75c-.06,0-.13-.03-.17-.07-.05-.05-.08-.11-.08-.18,0-.06,.03-.12,.07-.17,.1-.1,.26-.1,.36,0,.05,.05,.07,.12,.07,.18,0,.07-.02,.13-.07,.18s-.12,.07-.18,.07Z" style="fill: #1d1d1b;"/>
        <path d="M4.75,40.25c-.06,0-.13-.03-.18-.07-.04-.05-.07-.11-.07-.18s.03-.13,.07-.18c.09-.09,.26-.09,.36,0,.05,.05,.07,.12,.07,.18s-.02,.13-.07,.18c-.05,.04-.11,.07-.18,.07Z" style="fill: #1d1d1b;"/>
        <path d="M69.75,12.75c-.07,0-.13-.03-.17-.07-.05-.05-.08-.11-.08-.18s.03-.13,.08-.18c.09-.09,.25-.09,.35,0,.05,.05,.07,.12,.07,.18s-.02,.13-.07,.18c-.05,.04-.11,.07-.18,.07Z" style="fill: #1d1d1b;"/>
        <path d="M23.25,14c-.06,0-.12-.02-.17-.07-.05-.05-.08-.11-.08-.18s.03-.13,.07-.17c.11-.11,.26-.1,.36,0,.05,.06,.07,.12,.07,.18s-.02,.13-.07,.18c-.05,.05-.11,.07-.18,.07Z" style="fill: #1d1d1b;"/>
        <path d="M20.5,17.25c-.06,0-.13-.03-.17-.07-.05-.04-.08-.11-.08-.18s.03-.14,.08-.18c.07-.08,.26-.09,.35,0,.05,.04,.07,.11,.07,.17s-.02,.13-.07,.18c-.05,.04-.11,.07-.18,.07Z" style="fill: #1d1d1b;"/>
        <path d="M14.75,17.25c-.06,0-.12-.02-.17-.07-.05-.05-.08-.11-.08-.18,0-.06,.03-.13,.07-.18,.11-.09,.26-.09,.36,0,.05,.05,.07,.12,.07,.18s-.02,.13-.07,.18c-.05,.05-.11,.07-.18,.07Z" style="fill: #1d1d1b;"/>
        <path d="M2.75,13.25c-.07,0-.13-.03-.17-.07-.05-.05-.08-.12-.08-.18,0-.07,.03-.13,.08-.18,.09-.09,.25-.09,.35,0,.04,.05,.07,.11,.07,.18s-.02,.13-.07,.18c-.05,.04-.11,.07-.18,.07Z" style="fill: #1d1d1b;"/>
        <path d="M6,11.75c-.06,0-.12-.02-.17-.07-.05-.05-.08-.12-.08-.18,0-.07,.03-.13,.07-.18,.12-.1,.26-.09,.36,0,.05,.05,.07,.11,.07,.18,0,.06-.02,.12-.07,.17-.05,.06-.11,.08-.18,.08Z" style="fill: #1d1d1b;"/>
        <path d="M7,2.75c-.06,0-.12-.02-.17-.07-.05-.05-.08-.12-.08-.18,0-.07,.03-.13,.07-.18,.11-.09,.26-.09,.36,0,.05,.05,.07,.12,.07,.18s-.02,.12-.07,.17c-.05,.06-.11,.08-.18,.08Z" style="fill: #1d1d1b;"/>
        <path d="M10,8.25c-.07,0-.13-.03-.18-.07-.04-.05-.07-.12-.07-.18,0-.07,.03-.13,.07-.18,.09-.09,.26-.09,.36,0,.05,.05,.07,.11,.07,.18,0,.06-.02,.13-.07,.17-.05,.06-.11,.08-.18,.08Z" style="fill: #1d1d1b;"/>
        <path d="M16,8.25c-.06,0-.13-.03-.18-.07-.04-.05-.07-.11-.07-.18s.03-.13,.08-.18c.1-.09,.25-.09,.35,0,.05,.05,.07,.12,.07,.18s-.02,.13-.07,.18c-.05,.04-.11,.07-.18,.07Z" style="fill: #1d1d1b;"/>
        <path d="M16.5,3.25c-.06,0-.12-.02-.17-.07-.05-.05-.08-.11-.08-.18s.03-.13,.07-.18c.11-.1,.26-.09,.36,0,.05,.05,.07,.11,.07,.18s-.02,.13-.07,.18c-.05,.05-.12,.07-.18,.07Z" style="fill: #1d1d1b;"/>
        <path d="M25.75,7c-.06,0-.12-.02-.17-.07-.05-.05-.08-.11-.08-.18s.03-.13,.08-.18c.1-.09,.25-.09,.35,0,.05,.05,.07,.12,.07,.18s-.02,.13-.07,.18c-.05,.05-.11,.07-.18,.07Z" style="fill: #1d1d1b;"/>
        <path d="M37,7.5c-.06,0-.12-.02-.17-.07-.05-.05-.08-.11-.08-.18s.03-.13,.08-.18c.09-.09,.26-.09,.35,0,.05,.05,.07,.11,.07,.18s-.02,.13-.07,.18c-.05,.05-.12,.07-.18,.07Z" style="fill: #1d1d1b;"/>
        <path d="M40.5,4.5c-.06,0-.13-.03-.17-.07-.05-.04-.08-.11-.08-.18s.03-.13,.08-.18c.09-.09,.25-.09,.35,0,.05,.06,.07,.12,.07,.18,0,.07-.02,.13-.07,.18-.05,.04-.11,.07-.18,.07Z" style="fill: #1d1d1b;"/>
        <path d="M37.5,4.25c-.06,0-.13-.03-.17-.07-.05-.04-.08-.11-.08-.18s.03-.13,.08-.18c.08-.09,.25-.09,.35,0,.05,.06,.07,.12,.07,.18s-.02,.13-.07,.18c-.05,.05-.11,.07-.18,.07Z" style="fill: #1d1d1b;"/>
        <path d="M43.25,2.25c-.07,0-.13-.03-.18-.08-.04-.04-.07-.1-.07-.17s.03-.13,.08-.18c.09-.09,.25-.09,.35,0,.05,.05,.07,.12,.07,.18s-.02,.13-.07,.18c-.05,.04-.11,.07-.18,.07Z" style="fill: #1d1d1b;"/>
        <path d="M49.5,8.25c-.06,0-.13-.03-.17-.07-.05-.04-.08-.11-.08-.18s.03-.14,.08-.18c.08-.09,.25-.09,.35,0,.05,.05,.07,.12,.07,.18s-.02,.13-.07,.18c-.05,.04-.11,.07-.18,.07Z" style="fill: #1d1d1b;"/>
        <path d="M46,9.25c-.06,0-.13-.03-.17-.07-.05-.05-.08-.11-.08-.18s.03-.13,.08-.18c.08-.08,.25-.09,.35,0,.05,.05,.07,.12,.07,.18s-.02,.13-.07,.18c-.05,.04-.11,.07-.18,.07Z" style="fill: #1d1d1b;"/>
        <path d="M35.75,11c-.06,0-.13-.03-.17-.07-.05-.05-.08-.11-.08-.18s.03-.13,.08-.18c.09-.09,.25-.09,.35,0,.05,.05,.07,.12,.07,.18s-.02,.13-.07,.18c-.05,.04-.11,.07-.18,.07Z" style="fill: #1d1d1b;"/>
        <path d="M39.25,15c-.06,0-.12-.02-.17-.07-.05-.05-.08-.11-.08-.18s.03-.13,.08-.18c.09-.09,.25-.09,.35,0,.05,.06,.07,.12,.07,.18s-.02,.13-.07,.18c-.05,.05-.11,.07-.18,.07Z" style="fill: #1d1d1b;"/>
        <path d="M24.75,18c-.06,0-.12-.02-.17-.07-.05-.05-.08-.11-.08-.18s.03-.13,.07-.18c.1-.09,.27-.09,.36,0,.05,.05,.07,.11,.07,.18s-.02,.13-.07,.18c-.05,.05-.11,.07-.18,.07Z" style="fill: #1d1d1b;"/>
        <path d="M8.25,27.25c-.06,0-.12-.02-.17-.07-.05-.05-.08-.11-.08-.18s.03-.13,.07-.18c.12-.1,.26-.09,.36,0,.05,.05,.07,.12,.07,.18,0,.07-.02,.13-.07,.18-.05,.04-.11,.07-.18,.07Z" style="fill: #1d1d1b;"/>
        <path d="M16,31.75c-.06,0-.13-.03-.18-.07-.04-.05-.07-.11-.07-.18s.03-.13,.08-.18c.1-.09,.25-.09,.35,0,.05,.05,.07,.12,.07,.18s-.02,.13-.07,.18c-.05,.04-.11,.07-.18,.07Z" style="fill: #1d1d1b;"/>
        <path d="M10.5,33.5c-.06,0-.12-.02-.17-.07-.05-.05-.08-.12-.08-.18,0-.07,.03-.13,.07-.18,.11-.1,.26-.09,.36,0,.05,.05,.07,.12,.07,.18s-.02,.12-.07,.17c-.05,.06-.11,.08-.18,.08Z" style="fill: #1d1d1b;"/>
        <path d="M5.25,37c-.06,0-.13-.03-.17-.07-.05-.05-.08-.11-.08-.18,0-.06,.03-.12,.07-.17,.1-.1,.26-.1,.36,0,.05,.05,.07,.12,.07,.18,0,.07-.02,.13-.07,.18-.05,.05-.12,.07-.18,.07Z" style="fill: #1d1d1b;"/>
        <path d="M2.75,32c-.06,0-.13-.03-.17-.07-.05-.05-.08-.12-.08-.18,0-.07,.03-.13,.08-.18,.09-.09,.25-.09,.35,0,.04,.05,.07,.11,.07,.18s-.02,.13-.07,.18c-.05,.04-.11,.07-.18,.07Z" style="fill: #1d1d1b;"/>
        <path d="M7.5,25c-.07,0-.13-.03-.18-.07-.04-.05-.07-.11-.07-.18s.03-.13,.07-.18c.11-.09,.25-.09,.35,0,.06,.05,.08,.12,.08,.18s-.02,.13-.07,.18c-.05,.04-.11,.07-.18,.07Z" style="fill: #1d1d1b;"/>
        <path d="M3.25,20.5c-.06,0-.13-.03-.17-.07-.05-.05-.08-.11-.08-.18,0-.06,.03-.13,.07-.17,.1-.1,.26-.1,.36,0,.05,.05,.07,.12,.07,.18,0,.07-.02,.13-.07,.18-.05,.05-.12,.07-.18,.07Z" style="fill: #1d1d1b;"/>
        <path d="M20.5,30.75c-.06,0-.13-.03-.17-.07-.05-.05-.08-.11-.08-.18s.03-.13,.08-.18c.09-.09,.25-.09,.35,0,.05,.06,.07,.12,.07,.18s-.02,.12-.07,.17c-.05,.05-.11,.08-.18,.08Z" style="fill: #1d1d1b;"/>
        <path d="M17.5,35.5c-.06,0-.12-.03-.17-.07-.05-.06-.08-.12-.08-.18,0-.07,.03-.13,.07-.18,.11-.09,.26-.09,.36,0,.05,.05,.07,.11,.07,.18,0,.06-.02,.13-.07,.17-.05,.05-.11,.08-.18,.08Z" style="fill: #1d1d1b;"/>
        <path d="M16,39c-.06,0-.12-.02-.17-.07-.05-.05-.08-.11-.08-.18s.03-.13,.08-.18c.09-.09,.25-.09,.35,0,.05,.05,.07,.12,.07,.18s-.02,.13-.07,.18c-.05,.05-.12,.07-.18,.07Z" style="fill: #1d1d1b;"/>
        <path d="M12.75,41.25c-.06,0-.13-.03-.17-.07-.05-.05-.08-.11-.08-.18,0-.06,.03-.13,.07-.18,.1-.09,.26-.09,.36,0,.05,.05,.07,.11,.07,.18s-.02,.13-.07,.18c-.05,.04-.11,.07-.18,.07Z" style="fill: #1d1d1b;"/>
        <path d="M12.75,46.5c-.07,0-.13-.03-.17-.07-.05-.05-.08-.12-.08-.18,0-.07,.03-.13,.07-.18,.1-.09,.26-.09,.36,0,.05,.05,.07,.11,.07,.18s-.02,.13-.07,.18c-.05,.05-.11,.07-.18,.07Z" style="fill: #1d1d1b;"/>
        <path d="M4,46.75c-.06,0-.13-.03-.17-.07-.05-.05-.08-.11-.08-.18,0-.06,.03-.13,.07-.18,.1-.09,.26-.09,.35,0,.06,.05,.08,.12,.08,.18,0,.07-.02,.13-.07,.18-.05,.05-.12,.07-.18,.07Z" style="fill: #1d1d1b;"/>
        <path d="M5.75,48.5c-.07,0-.13-.03-.18-.08-.04-.04-.07-.1-.07-.17s.03-.13,.07-.18c.1-.09,.26-.09,.36,0,.05,.05,.07,.11,.07,.18s-.02,.13-.07,.18c-.05,.04-.11,.07-.18,.07Z" style="fill: #1d1d1b;"/>
        <path d="M11,50.5c-.06,0-.12-.02-.17-.07-.05-.05-.08-.11-.08-.18,0-.06,.03-.13,.07-.17,.11-.11,.26-.1,.36,0,.05,.06,.07,.12,.07,.18s-.02,.13-.07,.18c-.05,.05-.12,.07-.18,.07Z" style="fill: #1d1d1b;"/>
        <path d="M11,54.5c-.06,0-.13-.03-.18-.07-.04-.05-.07-.11-.07-.18s.03-.13,.07-.18c.11-.09,.26-.09,.36,0,.05,.05,.07,.12,.07,.18s-.02,.13-.07,.18c-.05,.04-.11,.07-.18,.07Z" style="fill: #1d1d1b;"/>
        <path d="M15.5,58.5c-.06,0-.12-.03-.17-.07-.05-.05-.08-.11-.08-.18s.03-.13,.07-.18c.11-.09,.26-.09,.36,0,.05,.05,.07,.12,.07,.18s-.02,.13-.07,.18c-.05,.04-.11,.07-.18,.07Z" style="fill: #1d1d1b;"/>
        <path d="M10,59.75c-.07,0-.13-.03-.18-.07-.04-.05-.07-.12-.07-.18,0-.07,.03-.13,.07-.18,.1-.09,.25-.09,.36,0,.05,.05,.07,.11,.07,.18,0,.06-.02,.13-.07,.18-.05,.05-.11,.07-.18,.07Z" style="fill: #1d1d1b;"/>
        <path d="M6,63.5c-.06,0-.12-.02-.17-.07-.05-.05-.08-.12-.08-.18,0-.07,.03-.13,.07-.18,.12-.1,.26-.09,.36,0,.05,.05,.07,.11,.07,.18,0,.06-.02,.12-.07,.17-.05,.06-.11,.08-.18,.08Z" style="fill: #1d1d1b;"/>
        <path d="M2.25,62c-.06,0-.12-.02-.17-.07-.05-.05-.08-.11-.08-.18s.03-.13,.07-.18c.11-.09,.25-.09,.35,0,.06,.05,.08,.12,.08,.18s-.02,.13-.07,.18c-.06,.05-.12,.07-.18,.07Z" style="fill: #1d1d1b;"/>
        <path d="M7.25,67.75c-.06,0-.13-.03-.17-.07-.05-.05-.08-.12-.08-.18,0-.07,.03-.13,.07-.18,.1-.09,.26-.09,.36,0,.04,.05,.07,.11,.07,.18s-.02,.13-.07,.17c-.05,.06-.11,.08-.18,.08Z" style="fill: #1d1d1b;"/>
        <path d="M13.5,69.5c-.06,0-.12-.02-.17-.07-.05-.05-.08-.12-.08-.18,0-.07,.03-.13,.07-.18,.11-.09,.26-.09,.36,0,.05,.05,.07,.12,.07,.18s-.02,.12-.07,.17c-.05,.06-.11,.08-.18,.08Z" style="fill: #1d1d1b;"/>
        <path d="M13.5,65.75c-.06,0-.12-.02-.17-.07-.05-.05-.08-.11-.08-.18,0-.06,.03-.13,.07-.17,.11-.11,.26-.1,.36,0,.05,.06,.07,.12,.07,.18s-.02,.13-.07,.18c-.05,.05-.11,.07-.18,.07Z" style="fill: #1d1d1b;"/>
        <path d="M21.5,68.5c-.06,0-.12-.02-.17-.07-.05-.05-.08-.11-.08-.18s.03-.13,.08-.18c.09-.09,.25-.09,.35,0,.05,.05,.07,.12,.07,.18s-.02,.12-.07,.17c-.05,.06-.11,.08-.18,.08Z" style="fill: #1d1d1b;"/>
        <path d="M23,65.75c-.06,0-.12-.02-.17-.07-.05-.05-.08-.11-.08-.18,0-.06,.03-.12,.07-.17,.11-.11,.26-.1,.36,0,.05,.05,.07,.12,.07,.18,0,.07-.02,.13-.07,.18-.05,.05-.11,.07-.18,.07Z" style="fill: #1d1d1b;"/>
        <path d="M22.25,60c-.06,0-.12-.02-.17-.07-.05-.05-.08-.11-.08-.18,0-.06,.03-.12,.07-.17,.11-.11,.26-.1,.36,0,.05,.05,.07,.12,.07,.18,0,.07-.02,.13-.07,.18-.05,.05-.12,.07-.18,.07Z" style="fill: #1d1d1b;"/>
        <path d="M24.25,57.5c-.06,0-.12-.02-.17-.07-.05-.05-.08-.11-.08-.18s.03-.13,.08-.18c.1-.09,.25-.09,.35,0,.05,.05,.07,.12,.07,.18s-.02,.13-.07,.18c-.05,.05-.11,.07-.18,.07Z" style="fill: #1d1d1b;"/>
        <path d="M22,53.25c-.06,0-.12-.02-.17-.07-.05-.05-.08-.11-.08-.18s.03-.13,.07-.17c.11-.11,.26-.1,.36,0,.05,.06,.07,.12,.07,.18s-.02,.13-.07,.18c-.05,.05-.11,.07-.18,.07Z" style="fill: #1d1d1b;"/>
        <path d="M26.25,47.75c-.06,0-.12-.02-.17-.07-.05-.05-.08-.11-.08-.18s.03-.13,.08-.18c.09-.09,.25-.09,.35,0,.05,.05,.07,.12,.07,.18s-.02,.13-.07,.18c-.05,.05-.11,.07-.18,.07Z" style="fill: #1d1d1b;"/>
        <path d="M25.75,43.5c-.06,0-.12-.02-.17-.07-.05-.05-.08-.11-.08-.18s.03-.13,.07-.18c.11-.09,.26-.09,.36,0,.05,.06,.07,.12,.07,.18,0,.07-.02,.13-.07,.18-.05,.05-.11,.07-.18,.07Z" style="fill: #1d1d1b;"/>
        <path d="M31.25,37.5c-.06,0-.12-.03-.17-.07-.05-.05-.08-.12-.08-.18s.03-.13,.07-.17c.11-.11,.26-.1,.36,0,.05,.06,.07,.12,.07,.18s-.02,.12-.07,.17c-.05,.05-.11,.08-.18,.08Z" style="fill: #1d1d1b;"/>
        <path d="M32.25,31c-.06,0-.12-.02-.17-.07-.05-.05-.08-.11-.08-.18,0-.06,.03-.12,.07-.17,.11-.11,.26-.1,.36,0,.05,.05,.07,.12,.07,.18,0,.07-.03,.13-.07,.18-.05,.05-.11,.07-.18,.07Z" style="fill: #1d1d1b;"/>
        <path d="M26,34c-.06,0-.12-.02-.17-.07-.05-.05-.08-.11-.08-.18s.03-.13,.08-.18c.1-.09,.25-.09,.35,0,.05,.05,.07,.12,.07,.18s-.02,.13-.07,.18c-.05,.05-.11,.07-.18,.07Z" style="fill: #1d1d1b;"/>
        <path d="M34.25,27.75c-.06,0-.13-.03-.17-.07-.05-.05-.08-.11-.08-.18s.03-.13,.08-.18c.09-.09,.25-.09,.35,0,.05,.06,.07,.12,.07,.18s-.02,.13-.07,.18c-.05,.04-.11,.07-.18,.07Z" style="fill: #1d1d1b;"/>
        <path d="M37.25,28.5c-.06,0-.13-.03-.17-.07-.05-.05-.08-.11-.08-.18s.03-.13,.08-.18c.09-.09,.25-.09,.34,0,.06,.05,.08,.12,.08,.18s-.02,.12-.07,.17c-.05,.06-.11,.08-.18,.08Z" style="fill: #1d1d1b;"/>
        <path d="M41.75,25.75c-.06,0-.12-.03-.17-.07-.05-.05-.08-.11-.08-.18s.03-.13,.08-.18c.09-.09,.26-.09,.35,0,.05,.06,.07,.12,.07,.18s-.02,.12-.07,.17c-.05,.05-.11,.08-.18,.08Z" style="fill: #1d1d1b;"/>
        <path d="M43,20.75c-.06,0-.12-.02-.17-.07-.05-.05-.08-.11-.08-.18s.03-.13,.08-.18c.09-.09,.25-.09,.35,0,.05,.05,.07,.12,.07,.18s-.02,.13-.07,.18c-.05,.05-.12,.07-.18,.07Z" style="fill: #1d1d1b;"/>
        <path d="M36.5,19.25c-.06,0-.13-.03-.17-.07-.05-.04-.08-.11-.08-.18s.03-.14,.08-.18c.08-.08,.25-.09,.35,0,.05,.05,.07,.12,.07,.18s-.02,.13-.07,.18c-.05,.05-.11,.07-.18,.07Z" style="fill: #1d1d1b;"/>
        <path d="M27.75,22.25c-.06,0-.12-.03-.17-.07-.05-.05-.08-.12-.08-.18s.03-.13,.07-.17c.11-.11,.26-.1,.36,0,.05,.05,.07,.11,.07,.18s-.02,.13-.07,.18c-.05,.04-.11,.07-.18,.07Z" style="fill: #1d1d1b;"/>
        <path d="M52,22c-.06,0-.13-.03-.17-.07-.05-.05-.08-.11-.08-.18s.03-.13,.08-.18c.09-.09,.25-.09,.35,0,.05,.06,.07,.12,.07,.18s-.02,.12-.07,.17c-.05,.05-.11,.08-.18,.08Z" style="fill: #1d1d1b;"/>
        <path d="M43.25,17.75c-.06,0-.13-.03-.17-.07-.05-.05-.08-.11-.08-.18,0-.06,.03-.13,.07-.18,.11-.09,.26-.09,.36,0,.05,.06,.07,.12,.07,.18s-.02,.12-.07,.17c-.05,.06-.11,.08-.18,.08Z" style="fill: #1d1d1b;"/>
        <path d="M50.5,18c-.06,0-.13-.03-.17-.07-.05-.05-.08-.11-.08-.18s.03-.13,.08-.18c.08-.09,.25-.09,.35,0,.05,.06,.07,.12,.07,.18s-.02,.12-.07,.17c-.05,.05-.11,.08-.18,.08Z" style="fill: #1d1d1b;"/>
        <path d="M59.5,17.25c-.06,0-.13-.03-.17-.07-.05-.05-.08-.11-.08-.18s.03-.13,.08-.18c.08-.09,.25-.09,.35,0,.05,.05,.07,.12,.07,.18s-.02,.13-.07,.18c-.05,.04-.11,.07-.18,.07Z" style="fill: #1d1d1b;"/>
        <path d="M58.25,14c-.06,0-.13-.03-.17-.07-.05-.05-.08-.11-.08-.18s.03-.13,.08-.18c.08-.09,.26-.09,.35,0,.05,.05,.07,.11,.07,.18,0,.06-.02,.13-.07,.18-.05,.04-.11,.07-.18,.07Z" style="fill: #1d1d1b;"/>
        <path d="M61.5,11c-.06,0-.12-.02-.17-.07-.05-.05-.08-.11-.08-.18s.03-.14,.08-.18c.09-.09,.25-.09,.35,0,.04,.05,.07,.11,.07,.18s-.03,.13-.07,.18c-.05,.05-.11,.07-.18,.07Z" style="fill: #1d1d1b;"/>
        <path d="M58.75,7.5c-.06,0-.12-.02-.17-.07-.05-.05-.08-.11-.08-.18s.03-.13,.08-.18c.09-.09,.25-.09,.35,0,.05,.05,.07,.11,.07,.18s-.02,.13-.07,.18c-.05,.05-.11,.07-.18,.07Z" style="fill: #1d1d1b;"/>
        <path d="M60,4.75c-.06,0-.13-.03-.17-.07-.05-.05-.08-.11-.08-.18s.03-.13,.07-.18c.11-.09,.26-.09,.36,0,.05,.05,.07,.11,.07,.18s-.02,.13-.07,.17c-.05,.06-.11,.08-.18,.08Z" style="fill: #1d1d1b;"/>
        <path d="M67.5,6c-.06,0-.13-.03-.17-.07-.05-.05-.08-.12-.08-.18s.03-.13,.07-.17c.1-.1,.26-.1,.36,0,.05,.06,.07,.12,.07,.18s-.02,.12-.07,.17c-.05,.05-.11,.08-.18,.08Z" style="fill: #1d1d1b;"/>
        <path d="M69.5,8c-.06,0-.12-.03-.17-.07-.05-.05-.08-.11-.08-.18,0-.06,.03-.13,.07-.18,.11-.09,.26-.09,.36,0,.05,.05,.07,.12,.07,.18,0,.07-.02,.13-.07,.18-.05,.05-.11,.07-.18,.07Z" style="fill: #1d1d1b;"/>
        <path d="M65.75,9.75c-.06,0-.13-.03-.17-.07-.05-.05-.08-.11-.08-.18s.03-.13,.08-.18c.08-.09,.26-.09,.35,0,.05,.05,.07,.12,.07,.18s-.02,.13-.07,.18c-.05,.04-.11,.07-.18,.07Z" style="fill: #1d1d1b;"/>
        <path d="M61.75,16.5c-.06,0-.13-.03-.17-.07-.05-.05-.08-.11-.08-.18s.03-.13,.08-.18c.09-.09,.25-.09,.35,0,.05,.05,.07,.12,.07,.18s-.02,.13-.07,.17c-.05,.06-.11,.08-.18,.08Z" style="fill: #1d1d1b;"/>
        <path d="M60.25,23.75c-.06,0-.12-.03-.17-.07-.05-.05-.08-.11-.08-.18s.03-.13,.08-.18c.09-.09,.25-.09,.35,0,.04,.05,.07,.11,.07,.18s-.02,.13-.07,.18c-.05,.05-.11,.07-.18,.07Z" style="fill: #1d1d1b;"/>
        <path d="M55.5,23.75c-.06,0-.13-.03-.17-.07-.05-.05-.08-.12-.08-.18s.03-.13,.08-.18c.09-.09,.25-.09,.35,0,.05,.05,.07,.12,.07,.18s-.02,.13-.07,.18c-.05,.04-.11,.07-.18,.07Z" style="fill: #1d1d1b;"/>
        <path d="M55.5,18.75c-.06,0-.13-.03-.17-.07-.05-.05-.08-.12-.08-.18s.03-.13,.08-.18c.09-.09,.25-.09,.35,0,.05,.05,.07,.12,.07,.18s-.02,.13-.07,.18c-.05,.04-.11,.07-.18,.07Z" style="fill: #1d1d1b;"/>
        <path d="M65,25.75c-.06,0-.12-.03-.17-.07-.05-.05-.08-.11-.08-.18s.03-.13,.08-.18c.09-.09,.25-.09,.35,0,.05,.05,.07,.12,.07,.18,0,.07-.02,.13-.07,.18-.05,.05-.11,.07-.18,.07Z" style="fill: #1d1d1b;"/>
        <path d="M61.25,27c-.06,0-.13-.03-.17-.07-.05-.05-.08-.11-.08-.18s.03-.13,.08-.18c.09-.09,.25-.09,.35,0,.05,.05,.07,.11,.07,.18s-.03,.13-.07,.18c-.05,.04-.11,.07-.18,.07Z" style="fill: #1d1d1b;"/>
        <path d="M57.75,30.75c-.06,0-.12-.02-.17-.07-.05-.05-.08-.11-.08-.18s.03-.13,.08-.18c.09-.09,.25-.09,.35,0,.05,.05,.07,.11,.07,.18s-.02,.13-.07,.17c-.05,.06-.11,.08-.18,.08Z" style="fill: #1d1d1b;"/>
        <path d="M52.75,32.75c-.06,0-.13-.03-.17-.07-.05-.05-.08-.11-.08-.18s.03-.13,.08-.18c.09-.09,.25-.09,.35,0,.05,.05,.07,.12,.07,.18s-.02,.13-.07,.17c-.05,.06-.11,.08-.18,.08Z" style="fill: #1d1d1b;"/>
        <path d="M47.5,33.75c-.06,0-.12-.03-.17-.07-.05-.05-.08-.11-.08-.18s.03-.13,.08-.18c.09-.09,.25-.09,.34,0,.06,.06,.08,.12,.08,.18s-.02,.12-.07,.17c-.06,.06-.11,.08-.18,.08Z" style="fill: #1d1d1b;"/>
        <path d="M44.25,39.25c-.06,0-.12-.03-.17-.07-.05-.05-.08-.11-.08-.18s.03-.13,.08-.18c.09-.09,.25-.09,.35,0,.05,.05,.07,.11,.07,.18s-.02,.13-.07,.18c-.05,.05-.12,.07-.18,.07Z" style="fill: #1d1d1b;"/>
        <path d="M34,41.5c-.06,0-.12-.02-.17-.07-.05-.05-.08-.11-.08-.18s.03-.13,.08-.18c.09-.09,.25-.09,.35,0,.05,.05,.07,.12,.07,.18s-.02,.13-.07,.18c-.05,.04-.11,.07-.18,.07Z" style="fill: #1d1d1b;"/>
        <path d="M40.75,48c-.06,0-.12-.02-.17-.07-.05-.05-.08-.11-.08-.18s.03-.13,.08-.18c.1-.09,.25-.09,.35,0,.04,.05,.07,.11,.07,.18s-.03,.13-.07,.18c-.05,.05-.11,.07-.18,.07Z" style="fill: #1d1d1b;"/>
        <path d="M45.75,52.25c-.06,0-.12-.02-.17-.07-.05-.05-.08-.11-.08-.18s.03-.13,.08-.18c.09-.09,.25-.09,.35,0,.05,.05,.07,.11,.07,.18s-.03,.13-.07,.18c-.05,.05-.11,.07-.18,.07Z" style="fill: #1d1d1b;"/>
        <path d="M46.5,56.75c-.06,0-.12-.03-.17-.07-.05-.05-.08-.11-.08-.18s.03-.13,.08-.18c.09-.09,.25-.09,.35,0,.05,.05,.07,.12,.07,.18s-.02,.13-.07,.17c-.05,.06-.11,.08-.18,.08Z" style="fill: #1d1d1b;"/>
        <path d="M42,59.5c-.06,0-.12-.02-.17-.07-.05-.05-.08-.11-.08-.18s.03-.13,.08-.18c.1-.09,.25-.09,.35,0,.04,.05,.07,.11,.07,.18s-.02,.13-.07,.18c-.05,.05-.12,.07-.18,.07Z" style="fill: #1d1d1b;"/>
        <path d="M40,62.75c-.06,0-.12-.03-.17-.07-.05-.05-.08-.11-.08-.18s.03-.14,.08-.18c.09-.09,.26-.09,.35,0,.05,.05,.07,.11,.07,.18,0,.06-.02,.13-.07,.18-.05,.04-.11,.07-.18,.07Z" style="fill: #1d1d1b;"/>
        <path d="M36,62.75c-.06,0-.12-.02-.17-.07-.05-.05-.08-.11-.08-.18s.03-.13,.08-.18c.1-.09,.26-.09,.35,0,.05,.06,.07,.12,.07,.18s-.02,.13-.07,.18c-.05,.04-.11,.07-.18,.07Z" style="fill: #1d1d1b;"/>
        <path d="M36.5,52.75c-.07,0-.13-.03-.17-.07-.05-.05-.08-.11-.08-.18s.03-.13,.08-.18c.09-.09,.25-.09,.35,0,.05,.06,.07,.12,.07,.18s-.02,.12-.07,.17c-.05,.05-.11,.08-.18,.08Z" style="fill: #1d1d1b;"/>
        <path d="M30,63.5c-.06,0-.13-.03-.17-.07-.05-.05-.08-.11-.08-.18s.03-.13,.08-.18c.09-.09,.25-.09,.35,0,.05,.05,.07,.12,.07,.18s-.02,.13-.07,.17c-.05,.05-.11,.08-.18,.08Z" style="fill: #1d1d1b;"/>
        <path d="M31.5,68.5c-.07,0-.13-.03-.18-.08-.04-.04-.07-.1-.07-.17s.03-.14,.08-.18c.09-.08,.25-.09,.34,0,.06,.05,.08,.11,.08,.18,0,.06-.02,.13-.07,.18-.05,.04-.11,.07-.18,.07Z" style="fill: #1d1d1b;"/>
        <path d="M37,71c-.06,0-.12-.02-.17-.07-.05-.05-.08-.11-.08-.18s.03-.13,.08-.18c.1-.09,.25-.09,.35,0,.05,.05,.07,.11,.07,.18s-.02,.13-.07,.18c-.05,.05-.11,.07-.18,.07Z" style="fill: #1d1d1b;"/>
        <path d="M58.75,57c-.06,0-.12-.02-.17-.07-.05-.05-.08-.11-.08-.18s.03-.13,.08-.18c.09-.09,.25-.09,.35,0,.05,.05,.07,.11,.07,.18s-.02,.13-.07,.18c-.05,.05-.11,.07-.18,.07Z" style="fill: #1d1d1b;"/>
        <path d="M63,57c-.06,0-.12-.03-.17-.07-.05-.05-.08-.11-.08-.18s.03-.13,.08-.18c.09-.09,.25-.09,.35,0,.05,.05,.07,.11,.07,.18s-.02,.13-.07,.17c-.05,.06-.11,.08-.18,.08Z" style="fill: #1d1d1b;"/>
        <path d="M60,50.75c-.06,0-.12-.03-.17-.07-.05-.05-.08-.11-.08-.18s.03-.14,.08-.18c.09-.09,.25-.09,.35,0,.04,.05,.07,.11,.07,.18s-.02,.13-.07,.18c-.05,.04-.11,.07-.18,.07Z" style="fill: #1d1d1b;"/>
        <path d="M54.5,50.5c-.07,0-.13-.03-.17-.07-.05-.05-.08-.12-.08-.18s.03-.13,.07-.17c.1-.1,.26-.1,.36,0,.05,.06,.07,.12,.07,.18s-.02,.12-.07,.17c-.05,.05-.11,.08-.18,.08Z" style="fill: #1d1d1b;"/>
        <path d="M59.25,44.25c-.06,0-.13-.03-.17-.07-.05-.05-.08-.12-.08-.18s.03-.13,.07-.17c.1-.1,.27-.1,.36,0,.05,.06,.07,.12,.07,.18s-.02,.12-.07,.17c-.04,.05-.11,.08-.18,.08Z" style="fill: #1d1d1b;"/>
        <path d="M54.75,41.75c-.06,0-.13-.03-.17-.07-.05-.05-.08-.12-.08-.18s.03-.13,.08-.18c.08-.09,.25-.09,.35,0,.05,.05,.07,.12,.07,.18s-.02,.13-.07,.18c-.05,.04-.11,.07-.18,.07Z" style="fill: #1d1d1b;"/>
        <path d="M55.75,35.5c-.06,0-.12-.02-.17-.07-.05-.05-.08-.11-.08-.18s.03-.13,.08-.18c.09-.09,.25-.09,.35,0,.05,.05,.07,.11,.07,.18s-.02,.13-.07,.18c-.05,.05-.11,.07-.18,.07Z" style="fill: #1d1d1b;"/>
        <path d="M62.5,42.25c-.06,0-.13-.03-.17-.07-.05-.05-.08-.11-.08-.18s.03-.13,.08-.18c.08-.08,.24-.09,.34,0,.06,.05,.08,.12,.08,.18s-.02,.13-.07,.18c-.05,.05-.12,.07-.18,.07Z" style="fill: #1d1d1b;"/>
        <path d="M67,47.5c-.06,0-.13-.03-.17-.07-.05-.05-.08-.11-.08-.18s.03-.13,.08-.18c.08-.08,.25-.09,.35,0,.05,.05,.07,.11,.07,.18s-.03,.13-.07,.18c-.05,.05-.11,.07-.18,.07Z" style="fill: #1d1d1b;"/>
        <path d="M69.5,54.25c-.06,0-.13-.03-.17-.07-.05-.05-.08-.11-.08-.18s.03-.13,.08-.18c.09-.09,.25-.09,.35,0,.05,.05,.07,.11,.07,.18s-.02,.13-.07,.18c-.05,.04-.11,.07-.18,.07Z" style="fill: #1d1d1b;"/>
        <path d="M63.5,61.75c-.06,0-.13-.03-.17-.07-.05-.05-.08-.12-.08-.18,0-.07,.03-.13,.08-.18,.07-.08,.25-.1,.35,0,.05,.05,.07,.12,.07,.18s-.02,.12-.07,.17c-.05,.06-.11,.08-.18,.08Z" style="fill: #1d1d1b;"/>
        <path d="M69.25,63.5c-.06,0-.12-.02-.17-.07-.05-.05-.08-.11-.08-.18s.03-.13,.08-.18c.09-.09,.25-.09,.35,0,.05,.05,.07,.12,.07,.18s-.02,.13-.07,.17c-.05,.06-.11,.08-.18,.08Z" style="fill: #1d1d1b;"/>
        <path d="M64.75,65.5c-.07,0-.13-.03-.17-.07-.05-.05-.08-.12-.08-.18s.03-.12,.07-.17c.1-.1,.27-.1,.36,0,.05,.06,.07,.12,.07,.18s-.02,.12-.07,.17c-.04,.05-.11,.08-.18,.08Z" style="fill: #1d1d1b;"/>
        <path d="M65.75,68.25c-.06,0-.13-.03-.17-.07-.05-.05-.08-.11-.08-.18s.03-.13,.08-.18c.08-.09,.26-.09,.35,0,.05,.05,.07,.12,.07,.18,0,.07-.02,.13-.07,.18-.05,.04-.11,.07-.18,.07Z" style="fill: #1d1d1b;"/>
        <path d="M69.25,70.5c-.06,0-.13-.03-.17-.07-.05-.05-.08-.12-.08-.18,0-.07,.03-.13,.08-.18,.09-.09,.25-.09,.35,0,.05,.05,.07,.11,.07,.18,0,.06-.02,.13-.07,.17-.05,.06-.11,.08-.18,.08Z" style="fill: #1d1d1b;"/>
        <path d="M62.5,70.25c-.06,0-.13-.03-.17-.07-.05-.05-.08-.11-.08-.18s.03-.13,.08-.18c.08-.08,.24-.1,.34,0,.06,.05,.08,.12,.08,.18s-.02,.13-.07,.18c-.06,.05-.12,.07-.18,.07Z" style="fill: #1d1d1b;"/>
        <path d="M60.75,65.75c-.06,0-.13-.03-.17-.07-.05-.05-.08-.11-.08-.18s.03-.13,.08-.18c.09-.09,.25-.09,.35,0,.05,.05,.07,.12,.07,.18s-.02,.13-.07,.17c-.05,.06-.11,.08-.18,.08Z" style="fill: #1d1d1b;"/>
        <path d="M52.75,69.75c-.06,0-.13-.03-.17-.07-.05-.05-.08-.11-.08-.18s.03-.13,.08-.18c.09-.09,.25-.09,.35,0,.05,.05,.07,.12,.07,.18s-.02,.13-.07,.17c-.05,.06-.11,.08-.18,.08Z" style="fill: #1d1d1b;"/>
        <path d="M44.75,66.5c-.07,0-.13-.03-.17-.07-.05-.05-.08-.11-.08-.18s.03-.13,.08-.18c.09-.09,.25-.09,.35,0,.05,.05,.07,.11,.07,.18,0,.06-.02,.13-.07,.17-.05,.05-.11,.08-.18,.08Z" style="fill: #1d1d1b;"/>
        <path d="M44.5,71.25c-.06,0-.12-.03-.17-.07-.05-.05-.08-.11-.08-.18s.03-.13,.08-.18c.09-.09,.25-.09,.35,0,.05,.05,.07,.11,.07,.18s-.02,.13-.07,.18c-.05,.05-.12,.07-.18,.07Z" style="fill: #1d1d1b;"/>
        <path d="M28.5,71.25c-.07,0-.13-.03-.18-.08-.04-.04-.07-.1-.07-.17s.03-.13,.08-.18c.09-.09,.25-.09,.35,0,.05,.05,.07,.12,.07,.18s-.02,.13-.07,.18c-.04,.04-.11,.07-.18,.07Z" style="fill: #1d1d1b;"/>
        <path d="M.75,29.5c-.06,0-.13-.03-.17-.07-.05-.05-.08-.12-.08-.18,0-.07,.03-.13,.08-.18,.08-.09,.24-.09,.35,0,.04,.05,.07,.11,.07,.18s-.02,.13-.07,.18c-.05,.05-.11,.07-.18,.07Z" style="fill: #1d1d1b;"/>
        <path d="M24.5,1c-.06,0-.12-.02-.17-.07-.05-.05-.08-.12-.08-.18,0-.07,.03-.13,.07-.18,.11-.09,.26-.09,.36,0,.04,.05,.07,.11,.07,.18s-.02,.13-.07,.17c-.05,.06-.11,.08-.18,.08Z" style="fill: #1d1d1b;"/>
        <path d="M13.25,5c-.07,0-.13-.03-.18-.07-.04-.05-.07-.12-.07-.18,0-.07,.03-.13,.07-.18,.09-.09,.26-.09,.36,0,.05,.05,.07,.11,.07,.18,0,.06-.02,.13-.07,.17-.05,.06-.11,.08-.18,.08Z" style="fill: #1d1d1b;"/>
        <path d="M71,35.25c-.06,0-.13-.03-.17-.07-.05-.05-.08-.11-.08-.18s.03-.13,.08-.18c.08-.08,.25-.09,.35,0,.05,.05,.07,.11,.07,.18s-.02,.13-.07,.18c-.05,.05-.11,.07-.18,.07Z" style="fill: #1d1d1b;"/>
      </g>
    </pattern>
  </defs>
  <g style="isolation: isolate;">
    <g id="uuid-b9a4083c-bf2f-402e-a4c4-ad50449049e3" data-name="FIL et SILHOUETTES">
      <g>
        <path d="M496.23,14.7c-.55-5.99-3.59-10.89-9.91-11.79-3.66-.52-7.48-.2-11.16-.17-4.01,.03-8.02,.05-12.03,.08-15.84,.1-31.68,.21-47.52,.31-63.47,.42-126.94,.82-190.41,1.28-63.57,.46-127.14,1-190.71,1.76-7.85,.09-15.69,.19-23.54,.29-.96,.01-1.71,.34-2.27,.83-.01-.75-.02-1.51-.03-2.26C8.59,.35,1.33,.34,1.39,5.02c.89,62.81,1.33,125.62,1.31,188.44s-.47,125.63-1.38,188.44c-.08,5.66-.19,11.31-.28,16.97,.39,10.98,.9,21.96,1.43,32.93,.62,12.89,1.39,25.8,1.47,38.71,.04,7.04-.6,14.23-.32,21.31,62.57,.21,125.15,.41,187.72,.62,62.58,.21,125.17,.41,187.75,.62l105.99,.35c1.93,0,3.68-1.67,3.63-3.63-1.45-63.54-1.9-127.11-1.35-190.67,.55-63.56,2.1-127.11,4.65-190.61,.65-16.08,1.36-32.15,2.13-48.23,.39-8.04,.79-16.07,1.21-24.11,.37-7.02,1.52-14.44,.87-21.45Z" style="fill: #faf7f5;"/>
        <path d="M470.73,290.18c.21-15.31,.55-30.61,1-45.91,.07-2.22-1.54-3.37-3.26-3.49-.51-1.12-1.54-1.99-3.15-2-44.48-.3-88.96-.59-133.45-.89-.27-.26-.59-.49-1.01-.68-1.69-.75-3.35-.94-4.85-.56-.53-.13-1.12-.15-1.74,.02-1.56,.41-2.99,2.28-2.66,3.98-.34,1.38,.31,2.81,1.42,3.67,9.6,23.32,17.52,47.3,23.67,71.76,.72,2.86,3.78,3.15,5.65,1.83,1.44,.47,3.13,.15,4.15-1.52,3.3-5.45,10.19-7.39,16.24-6.66,7.85,.94,14.71,6.07,20.57,11,.22,.19,.46,.34,.7,.48-.59,4.06,5.84,5.62,7.12,1.34,5.14-17.17,10.29-34.35,15.43-51.52,.15-.5,.18-.95,.14-1.38,12.43,.92,24.87,1.84,37.3,2.77,.59,.04,1.11-.04,1.55-.21,1.64,1.07,3.33,2.08,5.03,3.05-4.17,13.13-12.04,24.86-16.31,38-1.14,3.51-2.1,7.09-2.87,10.7-.76,3.56-1.75,7.49-1.78,11.15-.01,1.37,.37,2.5,1.04,3.38-.63,1.47-1.13,3-1.46,4.56-46.94,2.23-93.97,2.54-140.93,.83-14.41-.53-28.81-1.24-43.2-2.13-1.39-.09-2.35,.5-2.91,1.37-.38,.19-.74,.4-1.07,.65-3.66,2.81-.05,9.12,3.67,6.28,.46-.35,.75-.54,1.05-.56,12.54,34.85,26.7,69.11,42.42,102.64,.56,1.18,1.93,1.72,3.14,1.8l2.03,.13c1.25,2.6,1.72,5.4,1.18,8.34-.85,4.57,6.15,6.53,7.01,1.93,.58-3.13,.59-6.25-.14-9.29,.34-.07,.68-.16,1.02-.31,.4-.17,.73-.51,1.02-.89,.54,0,1.09,0,1.63,0h4.84c3.23,0,6.45,0,9.68,0,6.45,0,12.9,0,19.36,.01,12.7,0,25.4,.01,38.11,.02,25.61,.01,51.21,.03,76.82,.04,.84,0,1.53-.24,2.07-.63,1.29,3.4,7.18,3.02,7.01-1.21-2.23-53.93-3-107.92-2.25-161.9Zm-8.38,12.52c.36-.9,.72-1.79,1.09-2.69-.02,1.84-.04,3.68-.06,5.52-.17-.26-.39-.46-.63-.65,0-.19,.02-.38,.02-.57,0-.61-.16-1.15-.42-1.62Zm-15.31,39.29c.06-.18,.13-.35,.2-.53,.02-.04,.08-.19,.12-.29v-.02c.09-.17,.17-.34,.25-.51,.78,.02,1.56,.02,2.35,.02-.2,.14-.4,.29-.6,.42-.77,.53-1.54,1.05-2.31,1.58-.08,0-.15,0-.23,.01,.07-.23,.14-.46,.22-.69Z" style="fill: #c2c0c6;"/>
        <path d="M101.93,458.94c-11.03-55.82-22.87-111.48-35.53-166.95-3.6-15.77-7.26-31.52-10.99-47.25-.14-.6-.39-1.08-.7-1.46-7.76-28.96-14.15-58.27-19.1-87.84-.77-4.6-7.78-2.65-7.01,1.93,5.28,31.5,12.16,62.72,20.63,93.52,.09,.33,.22,.62,.37,.88,1.34,5.7,2.65,11.41,3.97,17.11-.57-.52-1.35-.87-2.35-.87-3.27,0-4.25,3.55-2.94,5.69,3.15,26.81,2.59,53.83,1.97,80.77-.09,4.08,6.15,4.96,7.14,.97,.19-.75,.37-1.5,.56-2.25,.26-1.03,.08-1.92-.34-2.64,.04-1.72,.07-3.44,.11-5.16,1.47,7.58,2.94,15.17,4.41,22.75-.17-.19-.32-.4-.5-.59-.9-1.71-2-3.32-3.42-4.73-3.89-3.87-9.54-5.78-14.86-3.95-5.49,1.88-9.26,6.84-10.97,12.21-1.32,4.15-1.57,8.62-1.6,13.04-.59,2.93-.92,5.94-1.22,8.86-.14,1.38,.4,2.33,1.24,2.89-.01,5.85-.02,11.69,.07,17.54,.26,16.88,.95,33.76,2.05,50.61,.17,2.61,3.02,4.03,5.09,3.38,.58,.58,1.38,.98,2.44,1.02,7.15,.23,14.31,.46,21.46,.7,2.53,.08,5.21,.39,7.26-1.39,.75-.65,1.2-1.41,1.5-2.23,.38-.56,.64-1.23,.7-2.03l.67-9.09c.23,2.78,.54,5.56,.95,8.34,.18,1.17,1.43,2.29,2.54,2.54,3.92,.89,7.66,.95,11.62,.32,2.05-.32,2.87-2.72,2.54-4.47-.12-.63-.24-1.26-.36-1.89,0-.31-.03-.63-.1-.97-.16-.69-.32-1.38-.47-2.08-6.55-34.61-13.1-69.22-19.65-103.83-.32-1.68-1.69-2.49-3.15-2.57-2.7-13.94-5.4-27.89-8.11-41.83,0-.04-.02-.07-.03-.1-.23-9.12-.7-18.24-1.56-27.33,10.2,44.17,19.93,88.44,29.09,132.84,3.27,15.84,6.46,31.69,9.6,47.55,.91,4.58,7.91,2.64,7.01-1.93Zm-44.55-40.92c.11-2.39,.19-4.78,.21-7.17,.09,.15,.15,.31,.25,.45,.17,2.29,.3,4.58,.42,6.87-.29-.08-.58-.14-.88-.15Zm16.8,6.94c.32,1.41,.64,2.82,.96,4.23-.47,.1-.91,.31-1.32,.59,.12-1.6,.24-3.21,.36-4.81Zm5.55,33.65c-.29-2.28-.52-4.57-.66-6.87,.87,2.34,1.74,4.68,2.61,7.01-.65-.02-1.3-.07-1.95-.15Z" style="fill: #c2c0c6;"/>
        <path d="M469.31,345.51c-54.54,2.34-109.14,3.45-163.73,3.3-15.51-.04-31.02-.18-46.53-.42-4.68-.07-4.68,7.2,0,7.27,54.59,.84,109.19,.46,163.76-1.18,15.5-.47,31.01-1.03,46.5-1.7,4.66-.2,4.68-7.47,0-7.27Z" style="fill: #8f8c95;"/>
        <path d="M471.03,255.33c.35-2.73,.71-5.47,1.06-8.2,.25-1.96-1.87-3.62-3.63-3.63-22.87-.14-45.74-.28-68.6-.42-11.23-.07-22.47-.14-33.7-.2-5.62-.03-11.23-.07-16.85-.1-2.81-.02-5.62-.03-8.43-.05-1.78-.01-5.21,.7-6.45-.88-.64-.81-1.4-1.17-2.15-1.23-.91-.56-2.16-.61-3.2-.23-2.18-2.58-7.4-.62-6.29,3.33,2.66,9.4,5.82,18.65,9.47,27.71,.54,1.35,1.83,2.87,3.5,2.67,3.42-.42,6.85-.78,10.29-1.07,1.83-.16,3.4-1.39,3.6-3.25,.17-.08,.29-.21,.44-.31,.47,1.22,1.54,2.18,3.24,2.18l82.87,.08c-.43,.53-.7,1.19-.79,1.9-4.68-.64-9.4-1-14.13-1.02-1.86-.88-4.41-.4-5.09,2.17-4.91,18.46-10.61,36.7-16.99,54.7-.1-.67-.41-1.35-1.01-1.97-8.54-8.74-20.67-14.51-33.07-12.7-10.9,1.6-20.9,9.59-23.52,20.49-.34,1.41,.19,3.47,1.67,4.1,9.26,3.98,19.41,3.08,29.25,2.92,5.29-.09,10.59-.18,15.88-.27,2.93-.05,7.43-.21,8.95-2.97,.32,.45,.72,.86,1.15,1.17,4.56,3.36,10.19,1.66,15.24,.7,6.62-1.26,13.4-1.32,20.08-.53,1.55,.18,3.13-1.26,3.5-2.67,4.55-16.91,9.42-33.73,14.52-50.48,1.42-3.52,2.83-7.04,4.25-10.55,.87-2.16-1.34-4.7-3.5-4.6-2.61,.12-5.14-.05-7.66-.4,6.79,0,13.58,.01,20.37,.02,2.92,0,4.01-2.82,3.3-4.95,.71-.7,1.16-1.72,1.29-2.73,.15-1.17,.3-2.35,.46-3.52,1.05-.89,1.59-2.35,1.21-3.77-.14-.53-.32-1.02-.53-1.47Zm-89.58,79.59l-11.91,.2c-3.18,.05-6.52,.24-9.85,.21,6.99-.28,13.96-.92,20.9-1.87,.76,.21,1.51,.45,2.25,.7,.63,.22,1.25,.46,1.87,.71l-3.25,.06Zm26.94-9.69c.25-.73,.53-1.46,.78-2.2,.12,.05,.24,.1,.37,.14,.51,.63,1.19,1.1,2,1.28-1.06,.2-2.13,.45-3.14,.78Zm16.15-37.83c-.82,1.13-1.63,2.28-2.43,3.42,.83-1.72,1.65-3.44,2.4-5.19,.01,.02,.05,.04,.06,.06,.17,.29,.1,.97-.03,1.71Z" style="fill: #8f8c95;"/>
        <path d="M314.41,459.54c-.58-1.02-1.67-1.8-2.8-2.08-.64-.16-1.28-.16-1.92-.05-.46-.71-1.27-1.37-2.09-1.56-.93-.21-1.97-.17-2.8,.37-.06,.04-.12,.09-.18,.14-.47,.08-.92,.2-1.3,.42-.55,.32-.98,.76-1.3,1.3-.33,.57-.49,1.18-.5,1.83,.18,1.72,.37,3.43,.55,5.15-.02,.5,.09,.97,.31,1.4,.15,.45,.4,.84,.75,1.17,.68,.63,1.61,1.13,2.57,1.06,.75-.05,1.53-.15,2.26-.33,.7-.18,1.37-.47,2.02-.76,1.06-.47,2.04-1.2,2.87-1.99,.53-.5,.97-1.1,1.4-1.69,.96-1.33,.94-3,.15-4.38Z" style="fill: #8f8c95;"/>
        <path d="M415.05,455.64c-.78-.25-1.57-.25-2.34-.11-.57-.62-1.41-.99-2.21-1.1-1.16-.16-2.2,.2-3.05,1-1.72,1.61-2.59,3.91-2.7,6.23-.02,.52,.04,1.01,.11,1.53,.07,.51,.14,1.01,.3,1.5,.43,1.29,1.04,2.33,1.94,3.35,1.61,1.82,4.68,1.15,5.76-.84,1.28-.56,2.22-1.79,2.2-3.26,0-.43-.06-.86-.09-1.28,.34-.09,.67-.2,.95-.36,.75-.44,1.47-1.31,1.67-2.17,.45-1.98-.6-3.85-2.54-4.47Z" style="fill: #8f8c95;"/>
        <path d="M40.6,141.11c-.2-1.95-1.53-3.63-3.63-3.63-1.81,0-3.83,1.67-3.63,3.63,1.03,10.21,2.06,20.42,3.09,30.63,.2,1.95,1.53,3.63,3.63,3.63,1.81,0,3.83-1.67,3.63-3.63-1.03-10.21-2.06-20.42-3.09-30.63Z" style="fill: #8f8c95;"/>
        <path d="M90.93,460.81c-3.62-24.98-8.92-49.68-15.88-73.93-.89-4.34-1.79-8.67-2.68-13.01,0-.02,0-.03,0-.05-4.05-20.94-8.09-41.89-12.14-62.83-.47-2.43-2.66-3.02-4.48-2.36-.84-12.05-1.51-24.12-1.93-36.2-.16-4.66-7.43-4.69-7.27,0,.97,28.02,3.07,55.99,6.32,83.85,.53,4.59,7.81,4.64,7.27,0-.65-5.58-1.22-11.16-1.78-16.74,1.92,9.93,3.84,19.86,5.75,29.79,0,.27,.02,.56,.08,.85,.32,1.57,.65,3.13,.97,4.7-.15,.23-.28,.48-.36,.77-2.2-1.09-5.42-.1-5.27,3.05,1.44,29.67,2.31,59.37,2.62,89.08,.03,2.48,2.29,3.97,4.6,3.5l18.58-3.78c.62,.1,1.25,.19,1.93,.22,1.13,.05,2.04-.45,2.66-1.21,2.54-.91,2.55-3.97,1.01-5.71Zm-21.7-4.74c.59,2.4,1.48,4.67,2.86,6.73l-2.74,.56c-.03-2.43-.08-4.86-.12-7.29Z" style="fill: #8f8c95;"/>
        <path d="M186.17,145.14c-5.69,30.28-11.38,60.57-17.08,90.85-.86,4.57,6.14,6.53,7.01,1.93,5.69-30.28,11.38-60.57,17.08-90.85,.86-4.57-6.14-6.53-7.01-1.93Z" style="fill: #fff;"/>
        <path d="M201.73,165.19c-13.2,48.24-23.78,97.18-31.68,146.57-.73,4.58,6.27,6.55,7.01,1.93,7.91-49.39,18.48-98.32,31.68-146.57,1.24-4.52-5.77-6.45-7.01-1.93Z" style="fill: #fff;"/>
        <path d="M455.53,72.72c.19-1.96-1.82-3.62-3.63-3.63-43.97-.24-87.95-.48-131.92-.73-12.51-.07-25.01-.14-37.52-.21-4.68-.03-4.68,7.24,0,7.27,2,.01,4.01,.02,6.01,.03,0,5.18,0,10.37,0,15.55,0,2.93,0,5.87,0,8.8,0,1.47,0,2.93,0,4.4,0,.86,0,1.71,0,2.57v.02c-.93,1.13-1.14,2.38-.9,3.52-1.35,2.11-.39,5.73,2.91,5.79,41.61,.71,83.23,.89,124.84,.51,11.86-.11,23.72-.26,35.58-.45,1.89-.03,3.73-1.64,3.63-3.63-.64-13.28-.31-26.57,1-39.8Z" style="fill: #fff;"/>
        <path d="M276.02,413.05c-2.37-12.42-5.2-24.8-8.67-36.97-2.13-7.44-4.86-12.12-9.81-15.71-1.46-4.68-1.13-11.93-1.56-15.67-.3-2.61-.61-5.23-.91-7.84,2.03-.54,4.07-1.56,6.3-3.7,5.73-5.5,5.99-12.08,4.95-19.42-2.84-20.03-6.31-39.96-8.92-60.04-5.26-40.34-9.12-80.84-11.77-121.43-.12-1.85-.53-3.51-1.14-4.99,4.52-9.3-3.25-24.18-16.89-21.38-57.38,11.78-115.43,19.02-173.95,21.77-9.75,.46-14.41,8.64-13.97,16.21-.19,.27-.39,.52-.57,.81-6.06,9.59-2.64,20.33-.75,30.73,2.51,13.86,5.1,27.72,7.76,41.55,5.18,26.9,10.64,53.75,16.39,80.54,11.5,53.58,24.17,106.9,37.9,159.95,1.16,4.48,5.36,9.37,10.15,10.15,24.58,4,48.74-4.14,73.15-6.5,13.06-1.26,26.18-1.85,39.29-1.76,12.33,.08,25.12,2.49,37.37,1.9,26.18-1.25,18.84-31.5,15.65-48.22Z" style="fill: url(#uuid-00e35416-f8e2-459e-9218-41eb26293cca); opacity: .25;"/>
        <path d="M495.07,298.5c-.6-.76-.97-1.75-.98-2.99-.04-3.95-.02-7.89,.05-11.84,.11-19.91,.42-39.83,.66-59.74-.86-.79-1.47-1.91-1.59-3.36-1.75-21.31-2.45-42.48-1.71-63.85,.35-10.33,1.4-20.75,1.23-31.08-.09-5.33-.26-10.99,1.16-16.19-.31-13.05,.15-26.13,1.18-39.14-.11-5.36-.16-10.72-.14-16.07-1.04-16.42-.46-32.83,1.39-49.15-.33-.76-.76-1.44-1.25-2.04-5.21-.41-10.42-.63-15.64-.73-.54,0-1.09-.01-1.63-.03-.16,0-.33,0-.49,0-.2,.16-.41,.32-.6,.49-3.3-.18-6.61-.33-9.91-.5-8.02,.08-16.04,.32-24.06,.51-20.2,.46-40.41,.14-60.61,.4-2.69,.03-5.39,.09-8.09,.17-.01,.01-.02,.03-.04,.04-.52,0-1.05,0-1.57,0-28.61,.86-57.75,3.47-86.18-.04-11,1.07-22.12,1.39-33.01,1.42-8.28,.03-16.54-.41-24.81-.74-2.52-.1-5.01-.25-7.46-.53-34.42,1.78-68.84,4.32-103.32,3.38-20.11-.55-40.08-1.41-60.21-1.04-8.71,.16-17.42,.43-26.13,.48-7.07,.04-14.38-.15-21.23-2.09-.39,.92-.77,1.82-1.13,2.68-1.98,4.77-4.26,9.41-6.38,14.12-.03,7.07-.15,14.14-.33,21.21-.16,14.27-.48,28.55-.88,42.82,.15,3.25,.3,6.49,.43,9.74,.89,22.46,1.51,44.93,1.65,67.41,.8,.59,1.41,1.42,1.63,2.49,4.66,22.16,2.54,44.47,.37,66.79-3.48,35.77-3.31,71.42-3.57,107.24,.63,.74,1.06,1.7,1.17,2.88,4.48,49.19,1.45,98.64,4.23,147.9,.51-.02,1.02-.07,1.52-.15,.37,1.17,.91,2.27,1.61,3.25,4.88-.24,9.76,.15,13.21,.3,13.23,.57,26.46,1.3,39.7,1.83,1.09,.04,2.18,.07,3.27,.1,128.05-5.08,256.23-6.49,384.36-4.26,.8-.78,1.9-1.34,3.35-1.44,1.52-.1,2.96,.04,4.39,.34,9.99,.86,20.31,2.29,30.39,1.88,1.68-1.9,2.75-4.48,2.73-7.77-.31-61.52,.87-123.02,3.48-184.48-.08-.2-.16-.4-.21-.63Zm-21.46-51.76c-4.07,73.25-6.1,146.57-6.05,219.93-148.34-2.95-296.75-1.02-444.97,5.84,.35-1.06,.58-2.21,.64-3.48,5.69-116.47,6.19-233.14,1.5-349.65-.02-.59-.09-1.15-.18-1.7,1.17-31.02,1.95-62.04,2.05-93.07,1.89-.07,3.78-.14,5.67-.2,1.93,2.62,5.02,4.42,9.29,4.41l429.96-1.53c-2.04,34.13,.1,68.27,2.07,102.41,2.26,39.18,2.2,77.87,.02,117.05Z" style="fill: url(#uuid-00e35416-f8e2-459e-9218-41eb26293cca); opacity: .25;"/>
        <line x1="495.83" y1="495.83" x2="21.59" y2="495.83" style="fill: none; stroke: #262631; stroke-miterlimit: 10; stroke-width: .75px;"/>
        <line x1="488.49" y1="468.22" x2="7.62" y2="468.22" style="fill: none; stroke: #262631; stroke-miterlimit: 10; stroke-width: .75px;"/>
        <line x1="488.49" y1="1" x2="7.62" y2="1" style="fill: none; stroke: #262631; stroke-miterlimit: 10; stroke-width: .75px;"/>
        <line x1="488.49" y1="29.42" x2="7.62" y2="29.42" style="fill: none; stroke: #262631; stroke-miterlimit: 10; stroke-width: .75px;"/>
        <line x1="23.56" y1="1" x2="23.56" y2="481.87" style="fill: none; stroke: #262631; stroke-miterlimit: 10; stroke-width: .75px;"/>
        <line x1="1" y1="14.96" x2="1" y2="495.83" style="fill: none; stroke: #262631; stroke-miterlimit: 10; stroke-width: .75px;"/>
        <line x1="495.83" y1="481.87" x2="495.83" y2="1" style="fill: none; stroke: #262631; stroke-miterlimit: 10; stroke-width: .75px;"/>
        <line x1="474.17" y1="488.85" x2="474.17" y2="7.98" style="fill: none; stroke: #262631; stroke-miterlimit: 10; stroke-width: .75px;"/>
        <line x1="474.16" y1="341.74" x2="250.8" y2="341.74" style="fill: none; stroke: #262631; stroke-miterlimit: 10; stroke-width: .75px;"/>
        <line x1="474.16" y1="347.38" x2="245.16" y2="347.38" style="fill: none; stroke: #262631; stroke-miterlimit: 10; stroke-width: .75px;"/>
        <line x1="396.03" y1="348.99" x2="420.73" y2="459.63" style="fill: none; stroke: #262631; stroke-miterlimit: 10; stroke-width: .75px;"/>
        <line x1="253.16" y1="350.6" x2="298.77" y2="459.22" style="fill: none; stroke: #262631; stroke-miterlimit: 10; stroke-width: .75px;"/>
        <line x1="294.92" y1="454.53" x2="474.17" y2="454.53" style="fill: none; stroke: #262631; stroke-miterlimit: 10; stroke-width: .75px;"/>
        <line x1="302.57" y1="456.54" x2="302.57" y2="468.22" style="fill: none; stroke: #262631; stroke-miterlimit: 10; stroke-width: .75px;"/>
        <line x1="313.76" y1="456.54" x2="313.76" y2="468.22" style="fill: none; stroke: #262631; stroke-miterlimit: 10; stroke-width: .75px;"/>
        <line x1="405.58" y1="456.54" x2="405.58" y2="468.22" style="fill: none; stroke: #262631; stroke-miterlimit: 10; stroke-width: .75px;"/>
        <line x1="416.77" y1="456.54" x2="416.77" y2="468.22" style="fill: none; stroke: #262631; stroke-miterlimit: 10; stroke-width: .75px;"/>
        <line x1="416.44" y1="342.68" x2="416.44" y2="350.6" style="fill: none; stroke: #262631; stroke-miterlimit: 10; stroke-width: .75px;"/>
        <line x1="248.06" y1="338.65" x2="248.06" y2="352.61" style="fill: none; stroke: #262631; stroke-miterlimit: 10; stroke-width: .75px;"/>
        <line x1="348.25" y1="322.82" x2="319.63" y2="235.8" style="fill: none; stroke: #262631; stroke-miterlimit: 10; stroke-width: .75px;"/>
        <line x1="321.49" y1="241.44" x2="474.16" y2="241.44" style="fill: none; stroke: #262631; stroke-miterlimit: 10; stroke-width: .75px;"/>
        <line x1="325.03" y1="237.89" x2="477.71" y2="237.89" style="fill: none; stroke: #262631; stroke-miterlimit: 10; stroke-width: .75px;"/>
        <path d="M332.52,243.65c14.01,9.65,26.97,38.91,34.67,63.34" style="fill: none; stroke: #262631; stroke-miterlimit: 10; stroke-width: .75px;"/>
        <line x1="396.43" y1="340.53" x2="415.56" y2="271.25" style="fill: none; stroke: #262631; stroke-miterlimit: 10; stroke-width: .75px;"/>
        <line x1="432.72" y1="340.53" x2="451.85" y2="271.25" style="fill: none; stroke: #262631; stroke-miterlimit: 10; stroke-width: .75px;"/>
        <line x1="437.88" y1="343.16" x2="457.01" y2="273.87" style="fill: none; stroke: #262631; stroke-miterlimit: 10; stroke-width: .75px;"/>
        <line x1="413.63" y1="271.25" x2="453.78" y2="271.25" style="fill: none; stroke: #262631; stroke-miterlimit: 10; stroke-width: .75px;"/>
        <line x1="459.81" y1="274.97" x2="449.24" y2="270.33" style="fill: none; stroke: #262631; stroke-miterlimit: 10; stroke-width: .75px;"/>
        <path d="M341.99,341.74c0-17.64,14.3-31.93,31.93-31.93" style="fill: none; stroke: #262631; stroke-miterlimit: 10; stroke-width: .75px;"/>
        <path d="M361.1,315.66c13.96-6.91,30.87-1.19,37.78,12.77" style="fill: none; stroke: #262631; stroke-miterlimit: 10; stroke-width: .75px;"/>
        <line x1="25.84" y1="154.03" x2="94.32" y2="465" style="fill: none; stroke: #262631; stroke-miterlimit: 10; stroke-width: .75px;"/>
        <line x1="34.48" y1="153.03" x2="102.95" y2="464" style="fill: none; stroke: #262631; stroke-miterlimit: 10; stroke-width: .75px;"/>
        <line x1="94.32" y1="465" x2="105.19" y2="462.38" style="fill: none; stroke: #262631; stroke-miterlimit: 10; stroke-width: .75px;"/>
        <line x1="26.04" y1="152.21" x2="34.9" y2="150" style="fill: none; stroke: #262631; stroke-miterlimit: 10; stroke-width: .75px;"/>
        <path d="M30.47,468.22v-90.85c0-10.56,8.56-19.12,19.12-19.12h0c10.56,0,19.12,8.56,19.12,19.12v24.23" style="fill: none; stroke: #262631; stroke-miterlimit: 10; stroke-width: .75px;"/>
        <line x1="60.67" y1="379.2" x2="60.67" y2="468.22" style="fill: none; stroke: #262631; stroke-miterlimit: 10; stroke-width: .75px;"/>
        <line x1="74.98" y1="468.22" x2="74.98" y2="396.52" style="fill: none; stroke: #262631; stroke-miterlimit: 10; stroke-width: .75px;"/>
        <g>
          <text transform="translate(302.27 101.48)" style="fill: #c9514a; font-family: Renner-it-Black, Renner*; font-size: 21.8px;"><tspan x="0" y="0">RECYCLAGE</tspan></text>
          <line x1="283.69" y1="67.86" x2="462.36" y2="67.86" style="fill: none; stroke: #262631; stroke-miterlimit: 10; stroke-width: .75px;"/>
          <line x1="292.77" y1="117.77" x2="462.36" y2="117.77" style="fill: none; stroke: #262631; stroke-miterlimit: 10; stroke-width: .75px;"/>
          <line x1="451.02" y1="75.23" x2="451.02" y2="122.88" style="fill: none; stroke: #262631; stroke-miterlimit: 10; stroke-width: .75px;"/>
          <line x1="283.69" y1="67.86" x2="283.69" y2="115.25" style="fill: none; stroke: #262631; stroke-miterlimit: 10; stroke-width: .75px;"/>
          <g>
            <line x1="430.78" y1="37.48" x2="430.78" y2="37.48" style="fill: none; stroke: #262631; stroke-linecap: round; stroke-miterlimit: 10;"/>
            <line x1="430.78" y1="39.47" x2="430.78" y2="62.32" style="fill: none; stroke: #262631; stroke-dasharray: 0 0 0 1.99; stroke-linecap: round; stroke-miterlimit: 10;"/>
            <line x1="430.78" y1="63.32" x2="430.78" y2="63.32" style="fill: none; stroke: #262631; stroke-linecap: round; stroke-miterlimit: 10;"/>
          </g>
          <g>
            <line x1="300.14" y1="37.48" x2="300.14" y2="37.48" style="fill: none; stroke: #262631; stroke-linecap: round; stroke-miterlimit: 10;"/>
            <line x1="300.14" y1="39.55" x2="300.14" y2="57.18" style="fill: none; stroke: #262631; stroke-dasharray: 0 0 0 2.07; stroke-linecap: round; stroke-miterlimit: 10;"/>
            <line x1="300.14" y1="58.21" x2="300.14" y2="58.21" style="fill: none; stroke: #262631; stroke-linecap: round; stroke-miterlimit: 10;"/>
          </g>
        </g>
        <line x1="34" y1="137.82" x2="247.53" y2="112.73" style="fill: none; stroke: #262631; stroke-miterlimit: 10; stroke-width: .75px;"/>
        <line x1="240.01" y1="107.72" x2="264.17" y2="336.1" style="fill: none; stroke: #262631; stroke-miterlimit: 10; stroke-width: .75px;"/>
        <line x1="46.63" y1="248.42" x2="52.41" y2="354.36" style="fill: none; stroke: #262631; stroke-miterlimit: 10; stroke-width: .75px;"/>
        <line x1="271.39" y1="404.31" x2="277.67" y2="463.69" style="fill: none; stroke: #262631; stroke-miterlimit: 10; stroke-width: .75px;"/>
        <line x1="40.74" y1="142.75" x2="47.84" y2="213.74" style="fill: none; stroke: #262631; stroke-miterlimit: 10; stroke-width: .75px;"/>
        <line x1="55.15" y1="301.68" x2="59.2" y2="354.36" style="fill: none; stroke: #262631; stroke-miterlimit: 10; stroke-width: .75px;"/>
        <line x1="34.15" y1="142.75" x2="34.9" y2="150" style="fill: none; stroke: #262631; stroke-miterlimit: 10; stroke-width: .75px;"/>
        <line x1="193.28" y1="146.37" x2="183.61" y2="199.14" style="fill: none; stroke: #262631; stroke-miterlimit: 10; stroke-width: .75px;"/>
        <line x1="203.48" y1="167.45" x2="177.16" y2="275.32" style="fill: none; stroke: #262631; stroke-miterlimit: 10; stroke-width: .75px;"/>
        <path d="M355.97,415.45c1.03-1.02,0-2.99-1.46-2.51-.17,.06-.33,.11-.5,.17-.39-.14-.83-.14-1.21,.08-.39,.22-.78,.44-1.17,.66-.23-.37-.43-.76-.6-1.15,0-.04-.02-.07-.02-.11-.03-.23-.05-.47-.07-.71,.12-.62,.1-1.26-.16-1.91-.57-1.46-3.03-1.43-2.95,.4,0,.04,0,.08,0,.12-.06,.04-.11,.08-.17,.13-.42-.24-.93-.27-1.41,.05-1.82,1.21-3.74,2.19-5.75,2.96-1.31-.22-2.59-.61-3.82-1.1-1.01-.4-3.21-1.07-3.57-2.23-.22-.7-.76-1.02-1.45-1.1-.67-.08-1.3-.36-1.82-.79-.66-.55-1.93-.65-2.36,.3-.63,1.4-.95,2.87-.91,4.34-.27,.33-.54,.67-.81,1-.49,.6-.66,1.54,0,2.12,3.41,3.05,7.7,5.02,12.22,5.56,2.69,1.03,5.85,.5,8.65-.7,.69-.21,1.36-.47,2.01-.76,2.71-1.11,5.21-2.73,7.32-4.81Z" style="fill: #4eb570;"/>
        <path d="M359.94,401.51c-.08-2-.28-3.99-.6-5.96-.64-3.92-1.88-7.78-3.84-11.24-3.47-6.14-9.55-11.07-16.66-12.05-1.7-.23-2.55,1.68-1.16,2.74,.57,.43,1.14,.87,1.71,1.3,.26,.2,.63,.62,.95,.72l.09,.07c-.29,.35-.51,1.41-.65,1.75-.28,.7-.55,1.4-.83,2.09-.39,.98,.58,1.83,1.45,1.9,4.14,.31,7.23,4.18,9.25,7.44,1.35,2.18,2.4,4.54,3.11,7,.15,1.85-.02,3.63-.57,5.42-.34,1.09,.54,1.81,1.42,1.84,.02,.49,.05,.99,.06,1.49,.03,1.24,1.23,1.74,2.26,1.3,.39-.17,.75-.39,1.08-.63,.55,.39,1.29,.44,1.82-.19,1.23-1.46,1.18-3.17,1.11-4.99Z" style="fill: #4eb570;"/>
        <path d="M332.58,376.73c-1.45-.79-3.24-1.25-4.62-.11-1.23,1.01-2.24,2.43-3.17,3.71-3.72,5.17-5.68,11.62-5.68,17.97,0,3.66,.67,7.31,2,10.71,.69,1.75,3.47,1.09,2.89-.8-.43-1.39-.62-2.81-.53-4.23,.77,.16,1.53,.33,2.3,.49,1.16,.25,2.08-.7,1.85-1.85-.67-3.27-.66-6.66,.06-9.92,.29-1.32,.68-2.62,1.19-3.87,1.29-1.71,2.74-3.28,4.37-4.7,0,0,0-.01,.02-.02,.05-.03,.11-.05,.16-.08,2.89-1.91,1.91-5.81-.84-7.31Z" style="fill: #4eb570;"/>
        <g>
          <path d="M328.49,403.96c-.42-1.02-.77-2.1-1.01-3.23-1.46-6.84,1.12-13.41,5.94-16.32l2.44-5.52-5.27-3.6c-8.56,4.3-13.28,15.45-10.81,27.07,.58,2.71,1.51,5.22,2.71,7.51l.55-7,5.45,1.08Z" style="fill: none; stroke: #262631; stroke-miterlimit: 10; stroke-width: .75px;"/>
          <path d="M338.66,382.88c6.21-.18,12.12,5.04,13.72,12.55,.49,2.31,.51,4.59,.15,6.71l2.02,6.15,5.47-2.09c.89-3.86,.97-8.1,.06-12.41-2.77-12.99-13.5-21.76-24.3-20.12l5.34,3.64-2.46,5.57Z" style="fill: none; stroke: #262631; stroke-miterlimit: 10; stroke-width: .75px;"/>
          <path d="M350.33,407.93c-1.7,2.62-4.19,4.5-7.21,5.15-4.02,.86-8.08-.69-11.11-3.77l-5.42-1.08-.54,6.89c5,5.73,12.06,8.71,19.05,7.22,5.64-1.2,10.14-5.08,12.84-10.36l-5.57,2.12-2.03-6.18Z" style="fill: none; stroke: #262631; stroke-miterlimit: 10; stroke-width: .75px;"/>
        </g>
      </g>
      <g>
        <line x1="-500" y1="464" x2="0" y2="464" style="fill: none; stroke: #262631; stroke-miterlimit: 10; stroke-width: 10px;"/>
        <line x1="-500" y1="492.02" x2="0" y2="492.02" style="fill: none; stroke: #262631; stroke-miterlimit: 10; stroke-width: 2px;"/>
      </g>
      <g>
        <g>
          <g>
            <polyline points="323.23 203.38 323.23 211.36 54.2 414.32 30.68 407.56 30.68 402.34 299.54 195.91 323.23 203.38" style="fill: #c2c0c6; stroke: #262631; stroke-miterlimit: 10; stroke-width: .75px;"/>
            <polyline points="321.67 204.37 54.31 408.22 31.81 402.57" style="fill: none; stroke: #262631; stroke-miterlimit: 10; stroke-width: .75px;"/>
          </g>
          <path d="M176.96,245.91c-.24-1.53-.48-3.15-.75-4.87l-4.18-1.23c-4.18-1.23-13.3-1.34-16.46-3.21-1.23,.46-2.19,.82-3.12,1.17l-2.12,4.47c2.93,1.46,13.5,3.52,15.56,3.52s8.28-1.03,11.06,.15Z" style="fill: #dedede;"/>
          <path d="M176.21,241.04c2.57-.66,4.95,2.71,7.53,.01,1.12-2.52,2.31-5.2,3.62-8.16,.52-.37,1.34-.94,2.11-1.48-.54-2.23-1.02-4.24-1.51-6.24,1.06-1.96,1.69-3.92,1.8-5.91,.11-1.93,.45-3.66,1.33-5.33-.01,.02-.04,.03-.05,.05-.44,.95-6.93,1.64-9.11-.18-2.19-1.82-6.32,2.79-6.32,5.47s-.49,4.01-.49,4.01c0,0-1.58-7.29-3.77-6.56-2.19,.73-4.13,4.01-2.79,6.44,1.31,2.39-4.62,10.02-10.66,7.88-.02,.46-.02,.92-.07,1.37-.11,1.1-1.91,3.24-2.27,4.18,3.16,1.87,12.28,1.97,16.46,3.21l4.18,1.23Z" style="fill: #fbd4c1;"/>
          <path d="M204.14,269.64c3.95-1.88,6.42-4.09,9.07-6.25,.63-.52,1.44-.72,2.26-.7,1.36,.03,3.92,1.57,4.3,.18,.67-1.97-3.69-5.05-6.34-5.95-1.89-.64-3.98-.41-5.63,.71-3.64,2.46-7.26,4.91-10.88,7.36-.58,.39-1.09,.83-1.59,1.28,1.97,.03,7.59,.91,8.82,3.37Z" style="fill: #fbd4c1;"/>
          <path d="M168.57,223.16c-1.34-2.43,.61-5.71,2.79-6.44,2.19-.73,3.77,6.56,3.77,6.56,0,0,.49-1.34,.49-4.01s4.13-7.29,6.32-5.47c2.19,1.82,8.67,1.13,9.11,.18,0-.02,.04-.03,.05-.05,.22-.41,.43-.81,.72-1.21,2.25-3.11,1.86-5.68-.69-8.76-.88-.19-1.81-.2-2.56-.57-2.92-1.46-5.76-3.1-8.7-4.51-1.04-.5-2.19-.72-3.34-.7-1.79,.04-3.58,.34-5.36,.64-6.4,1.08-11.8,6.07-13.11,12.25-1.15,5.39-1.41,10.81-.34,16.28,.23,1.2,.25,2.45,.19,3.69,6.03,2.14,11.97-5.49,10.66-7.88Z" style="fill: #fbda6e;"/>
          <path d="M198.12,286.16c.94-2.46,1.44-5.32,2.98-7.4,2.07-2.79,2.8-5.77,3.03-9.12-1.23-2.46-6.85-3.35-8.82-3.37-1.92,1.72-3.26,3.84-3.92,6.49-.19,.76-.94,1.38-1.91,2.73-.66-1.67-1.18-2.65-1.43-3.69-1.05-4.3-2.08-8.61-2.98-12.94-1.05-5.03-3.06-9.4-7.6-12.24-.2-.13-.31-.41-.52-.7-2.79-1.18-9-.15-11.06-.15s-12.63-2.07-15.56-3.52c-3.97,1.4-5.46,4.82-6.56,8.57-1.43,4.86-1.51,9.84-.71,14.74,1.09,6.68,2.65,13.28,4.01,19.91,1.58,7.68,2.81,15.41,1.92,23.27-.44,3.85-1.35,7.64-2.03,11.39,.41,.39,.72,.63,.96,.93,.22,.28,.36,.61,.69,1.18,3.8,1.94,35.37,1.29,38.09,.24,1.96-1.7,1.62-3.83,1.23-6.08-.77-4.44,.34-8.75,.83-13.19,1.68-5.96,9.36-17.01,9.36-17.01Z" style="fill: #f78248;"/>
          <path d="M148.6,322.21c-3.89,6.28-3.66,13.1-1.77,19.93,1.6,5.79,1.58,11.52,.79,17.41-1.04,7.74-1.75,15.53-2.49,23.32-.57,5.95,.35,10.85-1.8,16.53-.55,1.46-.84,3-1.03,4.54-.82,6.74-1.6,13.49-2.33,20.24-.54,5.04-1.04,10.08-1.46,15.13-.32,3.75-.85,7.54-.58,11.26,.18,2.44,.07,4.77-.83,6.84-1.21,2.8-1.19,5.25,.43,7.54,1.92,.67,21.21-2.04,24.04-5.54-.98-3.65-.45-6.95,.88-10.34,.88-2.25,.99-4.82,1.31-7.26,.62-4.75,1.14-9.5,1.78-14.89,1.57,3.18,1.82,4.16,1.95,6.96,.2,4.16,.32,8.33,.65,12.47,.24,2.96,.77,5.89,1.34,10.09,2.36,1.73,19.01,4.48,23.72,4-.39-2.77-1.44-5.46-.95-7.83,.66-3.2,.35-5.87-1.33-8.28,.06-.66,.07-1.05,.13-1.43,1.02-7,1.34-13.95-.65-20.9-.76-2.66-1.11-5.43-1.25-8.19-.28-5.43-.27-10.88-.17-16.32,.09-4.81,.45-9.62,.61-14.44,.09-2.6,.1-5.21,0-7.82-.1-2.86-.48-5.72-.52-8.58-.12-8.22-.13-16.43-.2-24.65-.01-1.29-.15-3.39-.31-4.68-.6-4.91-1.24-9.82-1.88-14.88-2.72,1.05-34.29,1.7-38.09-.24Z" style="fill: #7d97a8;"/>
          <path d="M169.48,456.45c-.32,1.62-.81,4.15-1.39,7.12-2.7-1.02-4.56-2.79-6.53-4.16-2.83,3.5-22.12,6.22-24.04,5.54-.3,1.55-.58,2.96-.87,4.4h77.74c-.42-.75-.86-1.53-1.33-2.37-1.46-.48-3.06-1-4.84-1.58l-7.35-1.87c-2.79-1.13-5.17-2.09-7.68-3.1-4.72,.48-21.36-2.26-23.72-4Z" style="fill: #8b4324;"/>
        </g>
        <g style="mix-blend-mode: color-burn; opacity: .19;">
          <path d="M184.99,205.89c1.36,3.82,1.87,12.14,1.36,13.5-.51,1.36-2.97,.42-3.14,2.63-.17,2.21,2.97,3.48,2.55,6.11-.42,2.63-3.06,5.52-3.4,7.47-.34,1.95,2.29,4.08,.76,4.42-1.53,.34-7.7-3.23-9.79-2.8-2.09,.42-3.28,4.5-2.94,6.03,.34,1.53,8.91,6.45,9.59,12.01,.68,5.56,2.97,29.42,7.22,32.9,4.24,3.48,7.44-.02,11.96-1.5h0c-.22,.01-.45-.21-1.04-.5,.94-2.46,1.44-5.32,2.98-7.4,2.07-2.79,2.8-5.77,3.03-9.12,3.95-1.88,6.42-4.09,9.07-6.25,.63-.52,1.44-.72,2.26-.7,1.36,.03,3.92,1.57,4.3,.18,.67-1.97-3.69-5.05-6.34-5.95-1.89-.64-3.98-.41-5.63,.71-3.64,2.46-7.26,4.91-10.88,7.36-.58,.39-1.09,.83-1.59,1.28-1.92,1.72-3.26,3.84-3.92,6.49-.19,.76-.94,1.38-1.91,2.73-.66-1.67-1.18-2.65-1.43-3.69-1.05-4.3-2.08-8.61-2.98-12.94-1.05-5.03-3.06-9.4-7.6-12.24-.2-.13-.31-.41-.52-.7-.24-1.53-.48-3.15-.75-4.87,2.57-.66,4.95,2.71,7.53,.01,1.12-2.52,2.31-5.2,3.62-8.16,.52-.37,1.34-.94,2.11-1.48-.54-2.23-1.02-4.24-1.5-6.24,1.06-1.96,1.69-3.92,1.8-5.91,.11-1.93,.45-3.66,1.33-5.33,.21-.41,.43-.81,.72-1.21,2.25-3.11,1.86-5.68-.69-8.76-.88-.19-1.81-.2-2.56-.57-2.92-1.46-5.76-3.1-8.7-4.51-.95-.46-2-.66-3.06-.67,3.13,2.13,7.35,5.34,8.18,7.7Z" style="fill: #c40000;"/>
          <path d="M163.01,369.39c-.05-2.12-.39-3.54-.39-3.54,0,0,.15,1.36,.39,3.54Z" style="fill: #c40000;"/>
          <path d="M213.08,466.99c-1.46-.48-3.06-1-4.84-1.58l-7.35-1.87c-2.79-1.13-5.17-2.09-7.68-3.1-.39-2.77-1.44-5.46-.95-7.83,.66-3.2,.35-5.87-1.33-8.28,.06-.66,.07-1.05,.13-1.43,1.02-7,1.34-13.95-.65-20.9-.76-2.66-1.11-5.43-1.25-8.19-.28-5.43-.27-10.88-.17-16.32,.09-4.81,.45-9.62,.61-14.44,.09-2.6,.1-5.21,0-7.82-.1-2.86-.48-5.72-.52-8.58-.12-8.22-.13-16.43-.2-24.65-.01-1.29-.15-3.39-.31-4.68-.6-4.91-1.24-9.82-1.88-14.88,1.96-1.7,1.62-3.83,1.23-6.08-.77-4.44,.34-8.75,.83-13.19h0s-6.74-1.34-9.71-3.71c-2.97-2.38-8.41-32.31-8.41-32.31,0,0-1.61,13.04,.68,21.7,2.29,8.66,4.24,19.1,4.16,22.92-.09,3.82,1.84,8.66,1.47,9.76-.37,1.1-2.07,1.92-2.07,1.92,0,0,8.07,9.63,9,23.3,.93,13.67-1.4,16.68-1.53,26.49-.13,9.81,1.66,19.61,2.04,26.23,.38,6.62-1.99,11.08-1.51,18.98,.49,7.9,.74,19.74,1.38,23.43,.64,3.69-2.17,14.31-1.27,17.79,.72,2.79,2.31,7.79,2.92,9.68h28.48c-.42-.75-.86-1.53-1.33-2.37Z" style="fill: #c40000;"/>
          <path d="M163.01,369.39c-.05-2.12-.39-3.54-.39-3.54,0,0,.15,1.36,.39,3.54Z" style="fill: none;"/>
          <path d="M162.45,449.08c-1.33,3.39-1.86,6.69-.88,10.34,1.97,1.36,3.83,3.13,6.53,4.16l-2.82-4.92,2.82,4.92c.58-2.98,1.07-5.5,1.39-7.12-.57-4.19-1.11-7.13-1.34-10.09-.33-4.15-.45-8.32-.65-12.47-.14-2.81-.38-3.79-1.95-6.96h0c-.64,5.39-1.16,10.15-1.78,14.89-.32,2.44-.43,5.02-1.31,7.26Z" style="fill: none;"/>
          <path d="M161.57,459.41c-.98-3.65-.45-6.95,.88-10.34,.88-2.25,.99-4.82,1.31-7.26,.62-4.75,1.14-9.5,1.78-14.89-1.95-6.96-.62-19.68-.05-25.16,.46-4.32-1.6-24.19-2.48-32.37,.03,1.29-.05,2.84-.39,4.48-.89,4.33-2.8,41.1-2.8,41.1l-4.46,34.55v12.79s1.15,1.73,1.15,3.89c0,.82-.16,1.99-.37,3.15h10.84l1.12-5.79c-2.7-1.02-4.56-2.79-6.53-4.16Z" style="fill: #c40000;"/>
        </g>
      </g>
    </g>
  </g>
</svg>
