<?xml version="1.0" encoding="UTF-8"?>
<svg xmlns="http://www.w3.org/2000/svg" xmlns:xlink="http://www.w3.org/1999/xlink" viewBox="0 0 500 500">
  <defs>
    <pattern id="uuid-0d68637a-9eaf-42c0-ba68-e5f45cabdef2" data-name="Lac asséché sableux USGS 17" x="0" y="0" width="72" height="72" patternTransform="translate(14260.68 7567.96) scale(2.42)" patternUnits="userSpaceOnUse" viewBox="0 0 72 72">
      <g>
        <rect width="72" height="72" style="fill: none;"/>
        <path d="M21,3c-.06,0-.12-.02-.17-.07-.05-.05-.08-.11-.08-.18s.03-.13,.08-.18c.09-.09,.25-.09,.35,0,.05,.05,.07,.11,.07,.18,0,.06-.02,.12-.07,.17-.05,.06-.11,.08-.18,.08Z" style="fill: #1d1d1b;"/>
        <path d="M20,8.25c-.06,0-.13-.03-.18-.07-.04-.05-.07-.11-.07-.18s.03-.13,.07-.18c.1-.09,.26-.09,.36,0,.04,.05,.07,.11,.07,.18s-.03,.13-.07,.18c-.05,.05-.11,.07-.18,.07Z" style="fill: #1d1d1b;"/>
        <path d="M20.25,10.5c-.06,0-.13-.03-.17-.07-.05-.05-.08-.11-.08-.18s.03-.13,.07-.18c.1-.09,.27-.09,.36,0,.04,.05,.07,.11,.07,.18s-.03,.14-.08,.18c-.04,.04-.1,.07-.17,.07Z" style="fill: #1d1d1b;"/>
        <path d="M18,12.75c-.06,0-.12-.03-.17-.07-.05-.05-.08-.11-.08-.18s.03-.13,.07-.18c.11-.09,.26-.09,.36,0,.05,.05,.07,.11,.07,.18s-.02,.13-.07,.18c-.05,.04-.11,.07-.18,.07Z" style="fill: #1d1d1b;"/>
        <path d="M15.25,10.5c-.06,0-.12-.02-.17-.07-.05-.05-.08-.12-.08-.18,0-.07,.03-.13,.07-.18,.12-.1,.26-.09,.36,0,.05,.05,.07,.11,.07,.18,0,.06-.02,.13-.07,.17-.05,.06-.11,.08-.18,.08Z" style="fill: #1d1d1b;"/>
        <path d="M22.75,20c-.06,0-.12-.02-.17-.07-.05-.05-.08-.11-.08-.18,0-.06,.03-.13,.07-.17,.11-.11,.27-.1,.36,0,.05,.06,.07,.12,.07,.18s-.02,.13-.07,.18c-.05,.04-.11,.07-.18,.07Z" style="fill: #1d1d1b;"/>
        <path d="M15.25,23c-.06,0-.12-.02-.17-.07-.05-.05-.08-.11-.08-.18,0-.06,.03-.12,.07-.17,.12-.11,.26-.1,.36,0,.05,.05,.07,.12,.07,.18,0,.07-.02,.13-.07,.18-.05,.05-.11,.07-.18,.07Z" style="fill: #1d1d1b;"/>
        <path d="M14,24c-.07,0-.13-.03-.18-.08-.04-.04-.07-.1-.07-.17s.03-.13,.07-.18c.11-.1,.26-.09,.36,0,.05,.05,.07,.12,.07,.18,0,.07-.02,.13-.07,.18-.05,.04-.11,.07-.18,.07Z" style="fill: #1d1d1b;"/>
        <path d="M24,27c-.06,0-.12-.02-.17-.07-.05-.05-.08-.11-.08-.18s.03-.13,.07-.17c.11-.11,.26-.1,.36,0,.05,.06,.07,.12,.07,.18,0,.07-.02,.13-.07,.18-.05,.05-.11,.07-.18,.07Z" style="fill: #1d1d1b;"/>
        <path d="M30.75,25.75c-.06,0-.12-.02-.17-.07-.05-.05-.08-.11-.08-.18s.03-.13,.08-.18c.1-.09,.25-.09,.35,0,.05,.05,.07,.12,.07,.18s-.02,.13-.07,.18c-.05,.05-.11,.07-.18,.07Z" style="fill: #1d1d1b;"/>
        <path d="M31.25,23.25c-.06,0-.12-.03-.17-.07-.05-.05-.08-.11-.08-.18,0-.06,.03-.13,.07-.17,.11-.11,.26-.1,.36,0,.05,.06,.07,.12,.07,.18,0,.07-.02,.13-.07,.18-.05,.04-.11,.07-.18,.07Z" style="fill: #1d1d1b;"/>
        <path d="M29.25,18.25c-.06,0-.12-.02-.17-.07-.05-.05-.08-.11-.08-.18s.03-.13,.08-.18c.1-.09,.25-.09,.35,0,.05,.05,.07,.11,.07,.18s-.03,.13-.07,.18c-.05,.05-.12,.07-.18,.07Z" style="fill: #1d1d1b;"/>
        <path d="M32.25,18.25c-.06,0-.12-.02-.17-.07-.05-.05-.08-.11-.08-.18s.03-.13,.07-.18c.11-.09,.26-.09,.36,0,.04,.05,.07,.11,.07,.18s-.03,.13-.07,.18c-.05,.05-.11,.07-.18,.07Z" style="fill: #1d1d1b;"/>
        <path d="M32.5,13.75c-.06,0-.13-.03-.17-.07-.05-.05-.08-.11-.08-.18s.03-.13,.08-.18c.09-.09,.26-.09,.35,0,.05,.05,.07,.12,.07,.18s-.02,.12-.07,.17c-.05,.05-.11,.08-.18,.08Z" style="fill: #1d1d1b;"/>
        <path d="M31.75,11.75c-.06,0-.12-.02-.17-.07-.05-.05-.08-.11-.08-.18s.03-.13,.08-.18c.1-.09,.25-.09,.35,0,.05,.05,.07,.11,.07,.18s-.03,.13-.07,.18c-.05,.05-.11,.07-.18,.07Z" style="fill: #1d1d1b;"/>
        <path d="M29.25,10.75c-.07,0-.13-.03-.18-.07-.04-.05-.07-.11-.07-.18s.03-.13,.08-.18c.1-.09,.25-.09,.35,0,.05,.05,.07,.11,.07,.18s-.02,.13-.07,.18c-.05,.04-.11,.07-.18,.07Z" style="fill: #1d1d1b;"/>
        <path d="M32.25,7c-.06,0-.12-.02-.17-.07-.05-.05-.08-.11-.08-.18s.03-.13,.07-.18c.11-.09,.26-.09,.36,0,.05,.05,.07,.11,.07,.18s-.03,.13-.07,.18c-.05,.05-.11,.07-.18,.07Z" style="fill: #1d1d1b;"/>
        <path d="M32,3c-.06,0-.12-.03-.17-.07-.05-.05-.08-.11-.08-.18s.03-.13,.08-.18c.1-.09,.25-.09,.35,0,.05,.05,.07,.12,.07,.18s-.02,.13-.07,.18c-.05,.04-.11,.07-.18,.07Z" style="fill: #1d1d1b;"/>
        <path d="M29.25,3.25c-.06,0-.12-.02-.17-.07-.05-.05-.08-.11-.08-.18s.03-.13,.08-.18c.09-.09,.25-.09,.35,0,.05,.05,.07,.11,.07,.18,0,.06-.02,.13-.07,.17-.05,.06-.11,.08-.18,.08Z" style="fill: #1d1d1b;"/>
        <path d="M34,1.25c-.06,0-.13-.03-.17-.07-.05-.05-.08-.11-.08-.18s.03-.14,.08-.18c.09-.09,.26-.09,.35,0,.05,.05,.07,.11,.07,.18,0,.06-.02,.12-.07,.17-.05,.05-.11,.08-.18,.08Z" style="fill: #1d1d1b;"/>
        <path d="M41.5,7c-.06,0-.13-.03-.17-.07-.05-.05-.08-.11-.08-.18s.03-.13,.08-.18c.09-.09,.24-.09,.34,0,.06,.06,.08,.12,.08,.18s-.02,.12-.07,.17c-.05,.06-.11,.08-.18,.08Z" style="fill: #1d1d1b;"/>
        <path d="M45.5,6.75c-.06,0-.12-.02-.17-.07-.05-.05-.08-.11-.08-.18s.03-.13,.08-.18c.09-.09,.25-.09,.35,0,.05,.05,.07,.12,.07,.18s-.02,.13-.07,.18c-.05,.05-.12,.07-.18,.07Z" style="fill: #1d1d1b;"/>
        <path d="M40.25,10.25c-.06,0-.12-.02-.17-.07-.05-.05-.08-.12-.08-.18,0-.07,.03-.13,.07-.18,.11-.09,.26-.09,.36,0,.05,.05,.07,.11,.07,.18,0,.06-.02,.13-.07,.17-.05,.06-.11,.08-.18,.08Z" style="fill: #1d1d1b;"/>
        <path d="M45,11.75c-.06,0-.12-.02-.17-.07-.05-.05-.08-.11-.08-.18s.03-.13,.08-.18c.1-.09,.25-.09,.35,0,.04,.05,.07,.11,.07,.18s-.02,.13-.07,.18c-.05,.05-.11,.07-.18,.07Z" style="fill: #1d1d1b;"/>
        <path d="M45,13.5c-.06,0-.12-.02-.17-.07-.05-.05-.08-.11-.08-.18s.03-.13,.08-.18c.08-.09,.26-.09,.35,0,.05,.04,.07,.1,.07,.17s-.02,.13-.07,.18c-.05,.05-.11,.07-.18,.07Z" style="fill: #1d1d1b;"/>
        <path d="M47,14.25c-.06,0-.12-.02-.17-.07-.05-.05-.08-.11-.08-.18s.03-.13,.08-.18c.09-.09,.25-.09,.35,0,.05,.05,.07,.12,.07,.18s-.02,.13-.07,.18c-.05,.05-.11,.07-.18,.07Z" style="fill: #1d1d1b;"/>
        <path d="M47,16.25c-.06,0-.13-.03-.17-.07-.05-.05-.08-.11-.08-.18s.03-.13,.08-.18c.08-.08,.26-.09,.35,0,.05,.04,.07,.11,.07,.17s-.02,.13-.07,.18c-.05,.04-.11,.07-.18,.07Z" style="fill: #1d1d1b;"/>
        <path d="M47.25,22.75c-.06,0-.13-.03-.17-.07-.05-.04-.08-.11-.08-.18s.03-.13,.08-.18c.08-.08,.25-.09,.35,0,.05,.05,.07,.11,.07,.18s-.03,.13-.07,.18c-.05,.05-.11,.07-.18,.07Z" style="fill: #1d1d1b;"/>
        <path d="M39,20.75c-.06,0-.12-.02-.17-.07-.05-.05-.08-.11-.08-.18s.03-.13,.08-.18c.1-.09,.25-.09,.35,0,.04,.05,.07,.11,.07,.18s-.03,.13-.07,.18c-.05,.05-.11,.07-.18,.07Z" style="fill: #1d1d1b;"/>
        <path d="M50.25,13.5c-.06,0-.13-.03-.17-.07-.05-.05-.08-.11-.08-.18s.03-.13,.08-.18c.1-.09,.26-.09,.35,0,.05,.05,.07,.12,.07,.18s-.02,.13-.07,.18c-.05,.04-.11,.07-.18,.07Z" style="fill: #1d1d1b;"/>
        <path d="M52.25,12c-.06,0-.12-.02-.17-.07-.05-.05-.08-.11-.08-.18s.03-.13,.08-.18c.09-.09,.25-.09,.35,0,.05,.05,.07,.12,.07,.18s-.02,.13-.07,.18c-.05,.05-.11,.07-.18,.07Z" style="fill: #1d1d1b;"/>
        <path d="M54.75,11c-.06,0-.13-.03-.17-.07-.05-.05-.08-.12-.08-.18,0-.07,.03-.13,.08-.18,.09-.09,.25-.09,.35,0,.05,.05,.07,.11,.07,.18,0,.06-.02,.13-.07,.18-.05,.04-.11,.07-.18,.07Z" style="fill: #1d1d1b;"/>
        <path d="M54.75,6.75c-.07,0-.13-.03-.17-.07-.05-.06-.08-.12-.08-.18s.03-.12,.07-.17c.1-.1,.26-.1,.36,0,.05,.06,.07,.12,.07,.18s-.02,.12-.07,.17c-.05,.05-.11,.08-.18,.08Z" style="fill: #1d1d1b;"/>
        <path d="M56.5,.75c-.06,0-.13-.03-.17-.07-.05-.05-.08-.12-.08-.18s.03-.13,.07-.18c.1-.09,.26-.09,.36,0,.05,.06,.07,.12,.07,.18s-.02,.12-.07,.17c-.05,.05-.11,.08-.18,.08Z" style="fill: #1d1d1b;"/>
        <path d="M64,6.5c-.06,0-.13-.03-.17-.07-.05-.05-.08-.12-.08-.18s.03-.13,.07-.17c.1-.1,.26-.1,.36,0,.05,.06,.07,.12,.07,.18s-.02,.12-.07,.17c-.05,.05-.11,.08-.18,.08Z" style="fill: #1d1d1b;"/>
        <path d="M65,2.5c-.06,0-.13-.03-.17-.07-.05-.05-.08-.11-.08-.18s.03-.13,.08-.18c.09-.09,.25-.09,.35,0,.05,.05,.07,.11,.07,.18s-.02,.13-.07,.17c-.05,.06-.11,.08-.18,.08Z" style="fill: #1d1d1b;"/>
        <path d="M68,3c-.06,0-.13-.03-.17-.07-.05-.05-.08-.11-.08-.18s.03-.13,.07-.18c.1-.09,.27-.09,.36,0,.05,.05,.07,.12,.07,.18s-.02,.13-.07,.18c-.05,.04-.11,.07-.18,.07Z" style="fill: #1d1d1b;"/>
        <path d="M68,10.25c-.06,0-.13-.03-.17-.07-.05-.05-.08-.11-.08-.18s.03-.13,.07-.18c.1-.09,.26-.09,.36,0,.05,.05,.07,.12,.07,.18s-.02,.13-.07,.18c-.05,.04-.11,.07-.18,.07Z" style="fill: #1d1d1b;"/>
        <path d="M64.25,12.25c-.06,0-.13-.03-.17-.07-.05-.05-.08-.12-.08-.18s.03-.13,.07-.17c.09-.1,.25-.1,.35,0,.06,.05,.08,.12,.08,.18s-.02,.13-.07,.17c-.05,.06-.11,.08-.18,.08Z" style="fill: #1d1d1b;"/>
        <path d="M65.25,15.75c-.07,0-.13-.03-.17-.07-.05-.05-.08-.11-.08-.18s.03-.13,.08-.18c.07-.08,.26-.09,.35,0,.05,.04,.07,.11,.07,.17s-.02,.12-.07,.17c-.04,.05-.11,.08-.18,.08Z" style="fill: #1d1d1b;"/>
        <path d="M64,19.75c-.06,0-.13-.03-.17-.07-.05-.05-.08-.11-.08-.18s.03-.13,.08-.18c.08-.09,.25-.09,.35,0,.05,.05,.07,.12,.07,.18s-.02,.13-.07,.18c-.05,.04-.11,.07-.18,.07Z" style="fill: #1d1d1b;"/>
        <path d="M66.25,19.75c-.07,0-.13-.03-.18-.08-.04-.04-.07-.1-.07-.17,0-.06,.03-.13,.07-.17,.09-.1,.26-.1,.36,0,.05,.05,.07,.12,.07,.18,0,.07-.02,.13-.07,.18-.05,.04-.11,.07-.18,.07Z" style="fill: #1d1d1b;"/>
        <path d="M68,21.25c-.06,0-.13-.03-.17-.07-.05-.05-.08-.12-.08-.18s.03-.12,.07-.17c.1-.1,.27-.1,.36,0,.05,.06,.07,.12,.07,.18s-.02,.12-.07,.17c-.05,.05-.11,.08-.18,.08Z" style="fill: #1d1d1b;"/>
        <path d="M69.25,20.25c-.06,0-.12-.02-.17-.07-.05-.05-.08-.11-.08-.18s.03-.13,.08-.18c.09-.09,.25-.09,.35,0,.05,.05,.07,.11,.07,.18s-.02,.13-.07,.18c-.05,.05-.11,.07-.18,.07Z" style="fill: #1d1d1b;"/>
        <path d="M69.5,18c-.06,0-.12-.02-.17-.07-.05-.05-.08-.11-.08-.18s.03-.13,.08-.18c.09-.09,.25-.09,.35,0,.05,.05,.07,.11,.07,.18s-.02,.13-.07,.18c-.05,.05-.11,.07-.18,.07Z" style="fill: #1d1d1b;"/>
        <path d="M71.25,17.5c-.06,0-.13-.03-.17-.07-.05-.05-.08-.12-.08-.18s.03-.12,.07-.17c.11-.1,.26-.1,.36,0,.05,.06,.07,.12,.07,.18s-.02,.12-.07,.17c-.05,.05-.11,.08-.18,.08Z" style="fill: #1d1d1b;"/>
        <path d="M8,47c-.06,0-.13-.03-.18-.07-.04-.06-.07-.12-.07-.18,0-.07,.03-.13,.07-.18,.09-.09,.26-.09,.36,0,.05,.05,.07,.11,.07,.18,0,.06-.02,.13-.07,.17-.05,.06-.11,.08-.18,.08Z" style="fill: #1d1d1b;"/>
        <path d="M7,52.25c-.06,0-.12-.02-.17-.07-.05-.05-.08-.11-.08-.18s.03-.13,.07-.18c.11-.09,.26-.09,.36,0,.05,.05,.07,.12,.07,.18,0,.07-.02,.13-.07,.18-.05,.05-.11,.07-.18,.07Z" style="fill: #1d1d1b;"/>
        <path d="M7.25,54.5c-.06,0-.13-.03-.17-.07-.05-.05-.08-.11-.08-.18,0-.06,.03-.13,.07-.18,.1-.09,.26-.09,.36,0,.04,.05,.07,.11,.07,.18s-.03,.13-.07,.18c-.05,.04-.11,.07-.18,.07Z" style="fill: #1d1d1b;"/>
        <path d="M5,56.75c-.06,0-.13-.03-.17-.07-.05-.05-.08-.11-.08-.18s.03-.13,.07-.17c.1-.1,.26-.1,.36,0,.05,.05,.07,.11,.07,.18s-.03,.13-.07,.18c-.05,.05-.12,.07-.18,.07Z" style="fill: #1d1d1b;"/>
        <path d="M2.25,54.5c-.06,0-.12-.02-.17-.07-.05-.05-.08-.11-.08-.18,0-.06,.03-.13,.07-.17,.11-.11,.26-.1,.35,0,.06,.06,.08,.12,.08,.18s-.02,.13-.07,.18c-.06,.05-.12,.07-.18,.07Z" style="fill: #1d1d1b;"/>
        <path d="M9.75,64c-.06,0-.12-.02-.17-.07-.05-.05-.08-.11-.08-.18s.03-.13,.07-.18c.11-.09,.26-.09,.36,0,.05,.05,.07,.11,.07,.18s-.02,.13-.07,.18-.11,.07-.18,.07Z" style="fill: #1d1d1b;"/>
        <path d="M2.25,67c-.06,0-.12-.03-.17-.07-.05-.05-.08-.11-.08-.18s.03-.13,.07-.18c.1-.09,.26-.09,.36,0,.05,.05,.07,.11,.07,.18,0,.06-.02,.13-.07,.18-.06,.05-.12,.07-.18,.07Z" style="fill: #1d1d1b;"/>
        <path d="M1,68c-.06,0-.13-.03-.18-.07-.04-.05-.07-.11-.07-.18,0-.06,.03-.13,.07-.18,.1-.09,.27-.09,.36,0,.05,.05,.07,.12,.07,.18s-.02,.13-.07,.18c-.05,.04-.11,.07-.18,.07Z" style="fill: #1d1d1b;"/>
        <path d="M11,71c-.06,0-.12-.02-.17-.07-.05-.05-.08-.11-.08-.18s.03-.13,.07-.18c.11-.09,.26-.09,.36,0,.05,.05,.07,.12,.07,.18s-.02,.13-.07,.18c-.05,.05-.12,.07-.18,.07Z" style="fill: #1d1d1b;"/>
        <path d="M17.75,69.75c-.06,0-.12-.02-.17-.07-.05-.05-.08-.11-.08-.18s.03-.13,.07-.18c.11-.09,.26-.09,.36,0,.05,.05,.07,.11,.07,.18s-.03,.13-.07,.18c-.05,.05-.12,.07-.18,.07Z" style="fill: #1d1d1b;"/>
        <path d="M18.25,67.25c-.06,0-.12-.03-.17-.07-.05-.06-.08-.12-.08-.18,0-.07,.03-.13,.07-.18,.11-.09,.26-.09,.36,0,.05,.05,.07,.11,.07,.18,0,.06-.02,.13-.07,.17-.05,.05-.11,.08-.18,.08Z" style="fill: #1d1d1b;"/>
        <path d="M16.25,62.25c-.07,0-.13-.03-.18-.08-.04-.04-.07-.1-.07-.17s.03-.13,.07-.18c.1-.09,.26-.09,.36,0,.05,.05,.07,.11,.07,.18s-.02,.13-.07,.18c-.05,.04-.11,.07-.18,.07Z" style="fill: #1d1d1b;"/>
        <path d="M19.25,62.25c-.06,0-.13-.03-.17-.07-.05-.05-.08-.11-.08-.18s.03-.13,.07-.18c.1-.09,.27-.09,.36,0,.04,.04,.07,.11,.07,.18s-.03,.14-.08,.18c-.04,.04-.1,.07-.17,.07Z" style="fill: #1d1d1b;"/>
        <path d="M19.5,57.75c-.06,0-.12-.02-.17-.07-.05-.05-.08-.11-.08-.18,0-.06,.03-.13,.07-.17,.11-.11,.26-.1,.36,0,.05,.06,.07,.12,.07,.18s-.02,.13-.07,.18c-.05,.05-.11,.07-.18,.07Z" style="fill: #1d1d1b;"/>
        <path d="M18.75,55.75c-.06,0-.12-.02-.17-.07-.05-.05-.08-.11-.08-.18s.03-.13,.08-.18c.1-.09,.26-.09,.35,0,.05,.05,.07,.12,.07,.18s-.02,.12-.07,.17c-.05,.05-.11,.08-.18,.08Z" style="fill: #1d1d1b;"/>
        <path d="M16.25,54.75c-.06,0-.13-.03-.18-.07-.04-.05-.07-.11-.07-.18,0-.06,.03-.12,.07-.17,.1-.1,.26-.1,.36,0,.05,.05,.07,.12,.07,.18,0,.07-.02,.13-.07,.18-.05,.05-.11,.07-.18,.07Z" style="fill: #1d1d1b;"/>
        <path d="M19.25,51c-.06,0-.13-.03-.17-.07-.05-.05-.08-.12-.08-.18,0-.07,.03-.13,.07-.18,.1-.09,.27-.09,.36,0,.04,.04,.07,.11,.07,.18s-.02,.13-.07,.18c-.05,.04-.11,.07-.18,.07Z" style="fill: #1d1d1b;"/>
        <path d="M19,47c-.06,0-.13-.03-.17-.07-.05-.05-.08-.12-.08-.18,0-.07,.03-.13,.07-.18,.1-.09,.26-.09,.36,0,.04,.05,.07,.11,.07,.18,0,.06-.02,.13-.07,.17-.05,.06-.11,.08-.18,.08Z" style="fill: #1d1d1b;"/>
        <path d="M16.25,47.25c-.07,0-.13-.03-.18-.07-.04-.05-.07-.12-.07-.18,0-.07,.03-.13,.07-.18,.09-.09,.26-.09,.36,0,.05,.05,.07,.11,.07,.18,0,.06-.02,.13-.07,.18-.05,.05-.11,.07-.18,.07Z" style="fill: #1d1d1b;"/>
        <path d="M21,45.25c-.06,0-.12-.02-.17-.07-.05-.05-.08-.11-.08-.18s.03-.13,.08-.18c.1-.09,.25-.09,.35,0,.05,.05,.07,.12,.07,.18s-.02,.12-.07,.17c-.05,.06-.11,.08-.18,.08Z" style="fill: #1d1d1b;"/>
        <path d="M28.5,51c-.06,0-.13-.03-.17-.07-.05-.05-.08-.11-.08-.18s.03-.13,.08-.18c.09-.09,.26-.09,.35,0,.05,.06,.07,.12,.07,.18s-.02,.13-.07,.18c-.05,.04-.11,.07-.18,.07Z" style="fill: #1d1d1b;"/>
        <path d="M32.5,50.75c-.06,0-.13-.03-.17-.07-.05-.05-.08-.11-.08-.18s.03-.13,.08-.18c.09-.09,.25-.09,.35,0,.05,.05,.07,.12,.07,.18s-.02,.13-.07,.18c-.05,.04-.11,.07-.18,.07Z" style="fill: #1d1d1b;"/>
        <path d="M27.25,54.25c-.07,0-.13-.03-.18-.08-.04-.04-.07-.1-.07-.17s.03-.14,.08-.18c.09-.09,.26-.09,.35,0,.05,.05,.07,.11,.07,.18,0,.06-.02,.13-.07,.18-.04,.04-.11,.07-.18,.07Z" style="fill: #1d1d1b;"/>
        <path d="M32,55.75c-.06,0-.12-.03-.17-.07-.05-.05-.08-.11-.08-.18,0-.06,.03-.13,.07-.17,.11-.11,.26-.1,.36,0,.05,.06,.07,.12,.07,.18,0,.07-.02,.13-.07,.18-.05,.04-.11,.07-.18,.07Z" style="fill: #1d1d1b;"/>
        <path d="M32,57.5c-.06,0-.12-.02-.17-.07-.05-.05-.08-.11-.08-.18,0-.06,.03-.13,.07-.17,.11-.11,.26-.1,.36,0,.05,.06,.07,.12,.07,.18s-.02,.13-.07,.18c-.05,.05-.11,.07-.18,.07Z" style="fill: #1d1d1b;"/>
        <path d="M34,58.25c-.07,0-.13-.03-.18-.08-.04-.04-.07-.1-.07-.17s.03-.14,.08-.18c.09-.09,.26-.09,.35,0,.05,.05,.07,.11,.07,.18,0,.06-.02,.13-.07,.18-.04,.04-.11,.07-.18,.07Z" style="fill: #1d1d1b;"/>
        <path d="M34,60.25c-.06,0-.12-.02-.17-.07-.05-.05-.08-.11-.08-.18s.03-.13,.08-.18c.09-.09,.26-.09,.35,0,.05,.06,.07,.12,.07,.18s-.02,.13-.07,.18c-.05,.04-.11,.07-.18,.07Z" style="fill: #1d1d1b;"/>
        <path d="M34.25,66.75c-.06,0-.13-.03-.17-.07-.05-.05-.08-.11-.08-.18s.03-.13,.08-.18c.09-.09,.25-.09,.35,0,.05,.05,.07,.12,.07,.18s-.02,.13-.07,.18c-.05,.04-.11,.07-.18,.07Z" style="fill: #1d1d1b;"/>
        <path d="M26,64.75c-.06,0-.12-.02-.17-.07-.05-.05-.08-.11-.08-.18s.03-.13,.08-.18c.09-.09,.26-.09,.35,0,.05,.04,.07,.11,.07,.17,0,.07-.02,.13-.07,.18-.05,.05-.11,.07-.18,.07Z" style="fill: #1d1d1b;"/>
        <path d="M37.25,57.5c-.06,0-.13-.03-.17-.07-.05-.05-.08-.11-.08-.18s.03-.13,.08-.18c.09-.09,.25-.09,.34,0,.06,.05,.08,.12,.08,.18s-.02,.12-.07,.17c-.05,.06-.11,.08-.18,.08Z" style="fill: #1d1d1b;"/>
        <path d="M39.25,56c-.06,0-.13-.03-.17-.07-.05-.05-.08-.11-.08-.18s.03-.13,.08-.18c.09-.09,.25-.09,.35,0,.05,.05,.07,.12,.07,.18s-.02,.12-.07,.17c-.05,.06-.11,.08-.18,.08Z" style="fill: #1d1d1b;"/>
        <path d="M41.75,55c-.06,0-.13-.03-.17-.07-.05-.05-.08-.11-.08-.18s.03-.14,.08-.18c.09-.09,.26-.09,.35,0,.05,.05,.07,.11,.07,.18,0,.06-.02,.12-.07,.17-.05,.05-.11,.08-.18,.08Z" style="fill: #1d1d1b;"/>
        <path d="M41.75,50.75c-.06,0-.12-.02-.17-.07-.05-.05-.08-.11-.08-.18s.03-.13,.08-.18c.09-.09,.26-.09,.35,0,.05,.05,.07,.11,.07,.18,0,.06-.02,.13-.07,.18-.05,.04-.11,.07-.18,.07Z" style="fill: #1d1d1b;"/>
        <path d="M43.5,44.75c-.06,0-.12-.03-.17-.07-.05-.05-.08-.11-.08-.18s.03-.13,.08-.18c.09-.09,.25-.09,.35,0,.05,.05,.07,.12,.07,.18s-.02,.13-.07,.18c-.05,.05-.12,.07-.18,.07Z" style="fill: #1d1d1b;"/>
        <path d="M51,50.5c-.06,0-.12-.03-.17-.07-.05-.05-.08-.11-.08-.18s.03-.13,.08-.18c.09-.09,.25-.09,.35,0,.05,.05,.07,.11,.07,.18s-.02,.13-.07,.18c-.05,.05-.11,.07-.18,.07Z" style="fill: #1d1d1b;"/>
        <path d="M52,46.5c-.06,0-.13-.03-.17-.07-.05-.05-.08-.11-.08-.18s.03-.13,.08-.18c.09-.09,.25-.09,.35,0,.05,.06,.07,.12,.07,.18s-.02,.12-.07,.17c-.05,.06-.11,.08-.18,.08Z" style="fill: #1d1d1b;"/>
        <path d="M55,47c-.06,0-.12-.02-.17-.07-.05-.05-.08-.11-.08-.18s.03-.13,.08-.18c.09-.09,.25-.09,.35,0,.05,.05,.07,.12,.07,.18s-.02,.13-.07,.18c-.05,.05-.11,.07-.18,.07Z" style="fill: #1d1d1b;"/>
        <path d="M55,54.25c-.06,0-.12-.03-.17-.07-.05-.05-.08-.11-.08-.18s.03-.13,.08-.18c.09-.09,.25-.09,.35,0,.05,.05,.07,.12,.07,.18s-.02,.13-.07,.18c-.05,.05-.11,.07-.18,.07Z" style="fill: #1d1d1b;"/>
        <path d="M51.25,56.25c-.06,0-.13-.03-.17-.07-.05-.05-.08-.11-.08-.18s.03-.13,.08-.18c.09-.09,.25-.09,.35,0,.05,.05,.07,.11,.07,.18s-.02,.13-.07,.18c-.05,.04-.11,.07-.18,.07Z" style="fill: #1d1d1b;"/>
        <path d="M52.25,59.75c-.06,0-.12-.02-.17-.07-.05-.05-.08-.11-.08-.18s.03-.13,.08-.18c.09-.09,.25-.09,.35,0,.05,.06,.07,.12,.07,.18s-.02,.12-.07,.17c-.05,.06-.11,.08-.18,.08Z" style="fill: #1d1d1b;"/>
        <path d="M51,63.75c-.06,0-.13-.03-.17-.07-.05-.05-.08-.11-.08-.18s.03-.13,.08-.18c.09-.09,.25-.09,.35,0,.05,.05,.07,.12,.07,.18s-.02,.13-.07,.17c-.05,.06-.11,.08-.18,.08Z" style="fill: #1d1d1b;"/>
        <path d="M53.25,63.75c-.06,0-.13-.03-.17-.07-.05-.05-.08-.12-.08-.18s.03-.13,.07-.17c.1-.1,.26-.1,.36,0,.05,.06,.07,.12,.07,.18s-.02,.12-.07,.17c-.05,.05-.11,.08-.18,.08Z" style="fill: #1d1d1b;"/>
        <path d="M55,65.25c-.06,0-.12-.03-.17-.07-.05-.05-.08-.11-.08-.18s.03-.13,.08-.18c.09-.09,.25-.09,.35,0,.05,.05,.07,.12,.07,.18s-.02,.13-.07,.18c-.05,.05-.11,.07-.18,.07Z" style="fill: #1d1d1b;"/>
        <path d="M56.25,64.25c-.06,0-.12-.03-.17-.07-.05-.05-.08-.11-.08-.18s.03-.13,.08-.18c.09-.09,.25-.09,.35,0,.05,.05,.07,.12,.07,.18,0,.07-.02,.13-.07,.18-.05,.05-.11,.07-.18,.07Z" style="fill: #1d1d1b;"/>
        <path d="M56.5,62c-.06,0-.13-.03-.17-.07-.05-.06-.08-.12-.08-.18,0-.07,.03-.13,.08-.18,.07-.08,.26-.09,.35,0,.05,.04,.07,.11,.07,.17s-.02,.12-.07,.17c-.05,.05-.11,.08-.18,.08Z" style="fill: #1d1d1b;"/>
        <path d="M58.25,61.5c-.06,0-.13-.03-.17-.07-.05-.05-.08-.12-.08-.18s.03-.13,.07-.17c.1-.1,.27-.1,.36,0,.05,.06,.07,.12,.07,.18s-.02,.12-.07,.17c-.04,.05-.11,.08-.18,.08Z" style="fill: #1d1d1b;"/>
        <path d="M21,27c-.06,0-.12-.02-.17-.07-.05-.05-.08-.11-.08-.18s.03-.13,.08-.18c.1-.09,.25-.09,.35,0,.05,.05,.07,.12,.07,.18s-.02,.13-.07,.18c-.05,.05-.12,.07-.18,.07Z" style="fill: #1d1d1b;"/>
        <path d="M22.75,24c-.07,0-.13-.03-.18-.07-.04-.05-.07-.11-.07-.18s.03-.13,.08-.18c.1-.09,.26-.09,.35,0,.05,.05,.07,.12,.07,.18s-.02,.13-.07,.18c-.04,.04-.11,.07-.18,.07Z" style="fill: #1d1d1b;"/>
        <path d="M25.25,24.5c-.06,0-.12-.03-.17-.07-.05-.05-.08-.11-.08-.18s.03-.13,.08-.18c.1-.09,.25-.09,.35,0,.05,.05,.07,.12,.07,.18s-.02,.13-.07,.18c-.05,.04-.11,.07-.18,.07Z" style="fill: #1d1d1b;"/>
        <path d="M35.25,23.25c-.06,0-.12-.02-.17-.07-.05-.05-.08-.11-.08-.18s.03-.13,.08-.18c.1-.09,.25-.09,.35,0,.05,.05,.07,.11,.07,.18s-.03,.13-.07,.18c-.05,.05-.11,.07-.18,.07Z" style="fill: #1d1d1b;"/>
        <path d="M39,24.75c-.06,0-.12-.02-.17-.07-.05-.05-.08-.11-.08-.18s.03-.13,.08-.18c.1-.09,.25-.09,.35,0,.05,.05,.07,.11,.07,.18s-.03,.13-.07,.18c-.05,.05-.12,.07-.18,.07Z" style="fill: #1d1d1b;"/>
        <path d="M45,29.5c-.06,0-.12-.02-.17-.07-.05-.05-.08-.11-.08-.18s.03-.13,.08-.18c.1-.09,.25-.09,.35,0,.05,.05,.07,.11,.07,.18s-.02,.13-.07,.18c-.05,.05-.12,.07-.18,.07Z" style="fill: #1d1d1b;"/>
        <path d="M46.25,29c-.06,0-.13-.03-.17-.07-.05-.05-.08-.11-.08-.18s.03-.13,.08-.18c.09-.09,.25-.09,.34,0,.06,.06,.08,.12,.08,.18s-.02,.12-.07,.17c-.05,.06-.11,.08-.18,.08Z" style="fill: #1d1d1b;"/>
        <path d="M55.25,28c-.06,0-.13-.03-.17-.07-.05-.05-.08-.11-.08-.18s.03-.13,.08-.18c.09-.09,.25-.09,.35,0,.05,.05,.07,.12,.07,.18s-.02,.13-.07,.18c-.05,.04-.11,.07-.18,.07Z" style="fill: #1d1d1b;"/>
        <path d="M51.25,25.25c-.06,0-.12-.02-.17-.07-.05-.05-.08-.11-.08-.18s.03-.13,.08-.18c.09-.09,.25-.09,.35,0,.05,.05,.07,.11,.07,.18s-.03,.13-.07,.18c-.05,.05-.11,.07-.18,.07Z" style="fill: #1d1d1b;"/>
        <path d="M52,29.5c-.06,0-.13-.03-.17-.07-.05-.05-.08-.11-.08-.18s.03-.13,.08-.18c.09-.09,.25-.09,.35,0,.05,.06,.07,.12,.07,.18s-.02,.12-.07,.17c-.05,.06-.11,.08-.18,.08Z" style="fill: #1d1d1b;"/>
        <path d="M62.5,35.5c-.06,0-.13-.03-.17-.07-.05-.05-.08-.11-.08-.18s.03-.13,.08-.18c.08-.08,.24-.09,.34,0,.06,.05,.08,.12,.08,.18s-.02,.13-.07,.18c-.05,.05-.12,.07-.18,.07Z" style="fill: #1d1d1b;"/>
        <path d="M58.25,38.25c-.07,0-.13-.03-.17-.07-.05-.05-.08-.12-.08-.18s.03-.13,.07-.17c.1-.1,.27-.1,.36,0,.05,.06,.07,.12,.07,.18s-.02,.12-.07,.17c-.04,.05-.11,.08-.18,.08Z" style="fill: #1d1d1b;"/>
        <path d="M49,39c-.07,0-.13-.03-.17-.07-.05-.05-.08-.12-.08-.18s.03-.13,.07-.17c.1-.1,.26-.1,.36,0,.05,.06,.07,.12,.07,.18s-.02,.12-.07,.17c-.05,.05-.11,.08-.18,.08Z" style="fill: #1d1d1b;"/>
        <path d="M48,41.25c-.06,0-.12-.02-.17-.07-.05-.05-.08-.11-.08-.18s.03-.13,.08-.18c.09-.09,.24-.09,.34,0,.06,.05,.08,.12,.08,.18s-.02,.12-.07,.17c-.06,.06-.11,.08-.18,.08Z" style="fill: #1d1d1b;"/>
        <path d="M52,43c-.07,0-.13-.03-.18-.08-.04-.04-.07-.1-.07-.17s.03-.13,.08-.18c.09-.09,.25-.09,.35,0,.05,.05,.07,.12,.07,.18s-.02,.13-.07,.18c-.05,.04-.11,.07-.18,.07Z" style="fill: #1d1d1b;"/>
        <path d="M53.5,45c-.06,0-.13-.03-.17-.07-.05-.05-.08-.11-.08-.18s.03-.13,.08-.18c.08-.09,.25-.09,.35,0,.05,.05,.07,.12,.07,.18s-.02,.13-.07,.18c-.05,.04-.11,.07-.18,.07Z" style="fill: #1d1d1b;"/>
        <path d="M62.25,48c-.06,0-.13-.03-.17-.07-.05-.05-.08-.12-.08-.18s.03-.13,.07-.17c.1-.1,.26-.1,.36,0,.05,.06,.07,.12,.07,.18s-.02,.12-.07,.17c-.05,.05-.11,.08-.18,.08Z" style="fill: #1d1d1b;"/>
        <path d="M65,51.75c-.06,0-.12-.03-.17-.07-.05-.05-.08-.11-.08-.18s.03-.14,.08-.18c.09-.08,.25-.09,.35,0,.04,.05,.07,.11,.07,.18s-.02,.13-.07,.18c-.05,.05-.11,.07-.18,.07Z" style="fill: #1d1d1b;"/>
        <path d="M67,51.75c-.06,0-.13-.03-.17-.07-.05-.05-.08-.11-.08-.18s.03-.13,.08-.18c.08-.08,.25-.09,.35,0,.05,.05,.07,.11,.07,.18s-.02,.13-.07,.18c-.05,.05-.11,.07-.18,.07Z" style="fill: #1d1d1b;"/>
        <path d="M69.5,45c-.06,0-.12-.03-.17-.07-.05-.05-.08-.11-.08-.18s.03-.13,.08-.18c.09-.09,.25-.09,.35,0,.05,.05,.07,.11,.07,.18s-.02,.13-.07,.18c-.05,.05-.11,.07-.18,.07Z" style="fill: #1d1d1b;"/>
        <path d="M60,39c-.06,0-.12-.02-.17-.07-.05-.05-.08-.11-.08-.18s.03-.13,.08-.18c.09-.09,.25-.09,.35,0,.04,.05,.07,.11,.07,.18s-.03,.13-.07,.18c-.05,.05-.11,.07-.18,.07Z" style="fill: #1d1d1b;"/>
        <path d="M47.25,47.75c-.06,0-.13-.03-.17-.07-.05-.05-.08-.11-.08-.18s.03-.14,.08-.18c.08-.08,.25-.09,.35,0,.04,.05,.07,.11,.07,.18s-.02,.13-.07,.18c-.05,.05-.11,.07-.18,.07Z" style="fill: #1d1d1b;"/>
        <path d="M32.5,47c-.06,0-.12-.03-.17-.07-.05-.05-.08-.11-.08-.18s.03-.13,.08-.18c.09-.09,.26-.09,.35,0,.05,.05,.07,.12,.07,.18s-.02,.13-.07,.18c-.05,.04-.11,.07-.18,.07Z" style="fill: #1d1d1b;"/>
        <path d="M37,44.5c-.06,0-.12-.03-.17-.07-.05-.05-.08-.12-.08-.18,0-.07,.03-.13,.07-.17,.11-.11,.26-.1,.36,0,.05,.05,.07,.12,.07,.18s-.02,.13-.07,.17c-.05,.05-.11,.08-.18,.08Z" style="fill: #1d1d1b;"/>
        <path d="M26.25,37.75c-.06,0-.12-.03-.17-.07-.05-.05-.08-.11-.08-.18s.03-.13,.08-.18c.1-.09,.25-.09,.35,0,.05,.05,.07,.12,.07,.18s-.02,.13-.07,.18c-.05,.04-.11,.07-.18,.07Z" style="fill: #1d1d1b;"/>
        <path d="M29.75,35.5c-.06,0-.12-.02-.17-.07-.05-.05-.08-.11-.08-.18s.03-.13,.08-.18c.1-.09,.25-.09,.35,0,.05,.05,.07,.12,.07,.18s-.02,.12-.07,.17c-.05,.06-.11,.08-.18,.08Z" style="fill: #1d1d1b;"/>
        <path d="M17,28.5c-.06,0-.12-.02-.17-.07-.05-.05-.08-.11-.08-.18,0-.06,.03-.12,.07-.17,.11-.11,.26-.1,.36,0,.05,.05,.07,.12,.07,.18,0,.07-.02,.13-.07,.18-.05,.05-.11,.07-.18,.07Z" style="fill: #1d1d1b;"/>
        <path d="M10.5,29.5c-.06,0-.12-.02-.17-.07-.05-.05-.08-.11-.08-.18,0-.06,.03-.12,.07-.17,.11-.11,.26-.1,.36,0,.05,.06,.07,.12,.07,.18s-.02,.13-.07,.18c-.05,.05-.11,.07-.18,.07Z" style="fill: #1d1d1b;"/>
        <path d="M6,31.5c-.06,0-.12-.02-.17-.07-.05-.05-.08-.11-.08-.18,0-.06,.03-.12,.07-.17,.12-.11,.26-.1,.36,0,.05,.06,.07,.12,.07,.18,0,.07-.02,.13-.07,.18-.05,.05-.11,.07-.18,.07Z" style="fill: #1d1d1b;"/>
        <path d="M2.5,35.25c-.07,0-.13-.03-.17-.07-.05-.05-.08-.12-.08-.18,0-.07,.03-.13,.08-.18,.08-.09,.24-.09,.34,0,.06,.05,.08,.11,.08,.18,0,.06-.02,.13-.07,.17-.05,.06-.11,.08-.18,.08Z" style="fill: #1d1d1b;"/>
        <path d="M11.25,36.75c-.07,0-.13-.03-.18-.07-.04-.05-.07-.12-.07-.18,0-.07,.03-.13,.07-.18,.1-.09,.25-.09,.36,0,.05,.05,.07,.11,.07,.18s-.02,.13-.07,.18c-.05,.05-.11,.07-.18,.07Z" style="fill: #1d1d1b;"/>
        <path d="M17,42c-.06,0-.12-.02-.17-.07-.05-.05-.08-.11-.08-.18,0-.06,.03-.13,.07-.18,.11-.09,.26-.09,.36,0,.05,.05,.07,.11,.07,.18s-.03,.13-.07,.18c-.05,.05-.11,.07-.18,.07Z" style="fill: #1d1d1b;"/>
        <path d="M12.75,36c-.06,0-.13-.03-.17-.07-.05-.05-.08-.11-.08-.18,0-.06,.03-.13,.07-.17,.1-.1,.26-.1,.36,0,.05,.05,.07,.11,.07,.18s-.02,.13-.07,.18c-.05,.05-.12,.07-.18,.07Z" style="fill: #1d1d1b;"/>
        <path d="M26.5,30.25c-.06,0-.12-.02-.17-.07-.05-.05-.08-.11-.08-.18s.03-.13,.08-.18c.1-.09,.25-.09,.35,0,.05,.05,.07,.12,.07,.18s-.02,.13-.07,.18c-.05,.05-.11,.07-.18,.07Z" style="fill: #1d1d1b;"/>
        <path d="M37.75,31c-.06,0-.12-.02-.17-.07-.05-.05-.08-.11-.08-.18s.03-.13,.08-.18c.1-.09,.25-.09,.35,0,.05,.05,.07,.11,.07,.18s-.02,.13-.07,.18c-.05,.05-.12,.07-.18,.07Z" style="fill: #1d1d1b;"/>
        <path d="M39.5,32.5c-.06,0-.12-.02-.17-.07-.05-.05-.08-.11-.08-.18s.03-.13,.08-.18c.08-.09,.26-.09,.35,0,.05,.04,.07,.11,.07,.17s-.02,.13-.07,.18c-.05,.04-.11,.07-.18,.07Z" style="fill: #1d1d1b;"/>
        <path d="M28,42c-.06,0-.12-.03-.17-.07-.05-.05-.08-.12-.08-.18s.03-.12,.07-.17c.11-.1,.26-.1,.35,0,.06,.06,.08,.12,.08,.18s-.02,.13-.07,.17c-.05,.06-.11,.08-.18,.08Z" style="fill: #1d1d1b;"/>
        <path d="M6.5,20.5c-.06,0-.13-.03-.17-.07-.05-.05-.08-.12-.08-.18,0-.07,.03-.13,.07-.18,.1-.09,.26-.09,.36,0,.05,.05,.07,.11,.07,.18,0,.06-.02,.13-.07,.17-.05,.06-.11,.08-.18,.08Z" style="fill: #1d1d1b;"/>
        <path d="M10.25,20.25c-.06,0-.13-.03-.17-.07-.05-.05-.08-.11-.08-.18s.03-.13,.07-.18c.1-.09,.26-.09,.36,0,.05,.05,.07,.11,.07,.18s-.02,.13-.07,.18c-.05,.05-.11,.07-.18,.07Z" style="fill: #1d1d1b;"/>
        <path d="M11.75,23.5c-.06,0-.12-.02-.17-.07-.05-.05-.08-.11-.08-.18,0-.06,.03-.12,.07-.17,.11-.11,.26-.1,.36,0,.05,.06,.07,.12,.07,.18s-.02,.13-.07,.18c-.05,.05-.12,.07-.18,.07Z" style="fill: #1d1d1b;"/>
        <path d="M3,25.75c-.06,0-.13-.03-.17-.07-.05-.05-.08-.11-.08-.18s.03-.13,.07-.18c.1-.09,.26-.09,.36,0,.05,.05,.07,.11,.07,.18s-.02,.13-.07,.18c-.05,.05-.12,.07-.18,.07Z" style="fill: #1d1d1b;"/>
        <path d="M64.25,29.5c-.06,0-.13-.03-.17-.07-.05-.05-.08-.12-.08-.18s.03-.13,.07-.17c.1-.1,.25-.1,.35,0,.06,.05,.08,.12,.08,.18s-.02,.13-.07,.17c-.05,.06-.11,.08-.18,.08Z" style="fill: #1d1d1b;"/>
        <path d="M67.5,30.75c-.06,0-.13-.03-.17-.07-.05-.05-.08-.11-.08-.18,0-.06,.03-.13,.07-.17,.1-.1,.26-.1,.36,0,.05,.06,.07,.12,.07,.18s-.02,.13-.07,.18c-.05,.04-.11,.07-.18,.07Z" style="fill: #1d1d1b;"/>
        <path d="M69.5,29.75c-.06,0-.13-.03-.17-.07-.05-.05-.08-.11-.08-.18s.03-.13,.08-.18c.09-.09,.25-.09,.35,0,.05,.05,.07,.11,.07,.18s-.02,.13-.07,.18c-.05,.04-.11,.07-.18,.07Z" style="fill: #1d1d1b;"/>
        <path d="M7.25,15.75c-.07,0-.13-.03-.18-.08-.04-.04-.07-.1-.07-.17s.03-.13,.07-.18c.1-.09,.26-.09,.36,0,.04,.05,.07,.11,.07,.18s-.03,.13-.07,.18c-.05,.04-.11,.07-.18,.07Z" style="fill: #1d1d1b;"/>
        <path d="M1.5,9c-.06,0-.13-.03-.18-.07-.04-.05-.07-.11-.07-.18s.03-.13,.07-.18c.09-.09,.26-.09,.36,0,.05,.05,.07,.12,.07,.18s-.02,.13-.07,.18c-.05,.04-.11,.07-.18,.07Z" style="fill: #1d1d1b;"/>
        <path d="M14.5,6.5c-.06,0-.12-.02-.17-.07-.05-.05-.08-.11-.08-.18,0-.06,.03-.13,.07-.17,.11-.11,.26-.1,.36,0,.05,.05,.07,.11,.07,.18s-.02,.13-.07,.18c-.05,.05-.11,.07-.18,.07Z" style="fill: #1d1d1b;"/>
        <path d="M8.5,5.25c-.06,0-.12-.02-.17-.07-.05-.05-.08-.11-.08-.18s.03-.13,.07-.18c.1-.09,.27-.09,.36,0,.05,.04,.07,.1,.07,.17,0,.06-.02,.13-.07,.18-.05,.05-.11,.07-.18,.07Z" style="fill: #1d1d1b;"/>
        <path d="M3.5,2.5c-.07,0-.13-.03-.18-.08-.04-.04-.07-.1-.07-.17s.03-.13,.08-.18c.08-.09,.25-.09,.35,0,.04,.05,.07,.11,.07,.18s-.03,.13-.07,.18c-.05,.04-.11,.07-.18,.07Z" style="fill: #1d1d1b;"/>
        <path d="M3.75,6c-.06,0-.13-.03-.17-.07-.05-.05-.08-.11-.08-.18,0-.06,.03-.13,.07-.18,.09-.09,.26-.09,.36,0,.05,.05,.07,.11,.07,.18s-.02,.13-.07,.18c-.05,.05-.12,.07-.18,.07Z" style="fill: #1d1d1b;"/>
        <path d="M12.75,14.25c-.06,0-.13-.03-.17-.07-.05-.05-.08-.12-.08-.18,0-.07,.03-.13,.07-.18,.1-.09,.26-.09,.36,0,.05,.05,.07,.11,.07,.18,0,.06-.02,.13-.07,.17-.05,.06-.11,.08-.18,.08Z" style="fill: #1d1d1b;"/>
        <path d="M18.5,19.25c-.06,0-.12-.02-.17-.07-.05-.05-.08-.11-.08-.18,0-.06,.03-.13,.07-.17,.11-.11,.27-.1,.36,0,.05,.06,.07,.12,.07,.18,0,.07-.02,.13-.07,.18-.05,.04-.11,.07-.18,.07Z" style="fill: #1d1d1b;"/>
        <path d="M21.25,37c-.06,0-.12-.02-.17-.07-.05-.05-.08-.12-.08-.18,0-.07,.03-.13,.07-.18,.11-.09,.26-.09,.36,0,.05,.05,.07,.11,.07,.18,0,.06-.02,.13-.07,.17-.05,.06-.11,.08-.18,.08Z" style="fill: #1d1d1b;"/>
        <path d="M.75,44.25c-.06,0-.13-.03-.17-.07-.05-.05-.08-.11-.08-.18s.03-.13,.08-.18c.07-.08,.25-.09,.35,0,.04,.04,.07,.1,.07,.17s-.03,.13-.07,.18c-.05,.04-.11,.07-.18,.07Z" style="fill: #1d1d1b;"/>
        <path d="M66.5,37.25c-.06,0-.13-.03-.17-.07-.05-.05-.08-.11-.08-.18s.03-.13,.08-.18c.09-.09,.25-.09,.35,0,.05,.05,.07,.12,.07,.18s-.02,.13-.07,.18c-.05,.04-.11,.07-.18,.07Z" style="fill: #1d1d1b;"/>
        <path d="M68,66c-.06,0-.13-.03-.17-.07-.05-.05-.08-.12-.08-.18,0-.07,.03-.13,.07-.18,.1-.09,.26-.09,.36,0,.05,.05,.07,.12,.07,.18s-.02,.12-.07,.17c-.05,.05-.11,.08-.18,.08Z" style="fill: #1d1d1b;"/>
        <path d="M59.75,69.75c-.07,0-.13-.03-.18-.08-.04-.04-.07-.1-.07-.17s.03-.13,.08-.18c.09-.09,.25-.09,.35,0,.05,.05,.07,.12,.07,.18,0,.07-.02,.13-.07,.18-.05,.04-.11,.07-.18,.07Z" style="fill: #1d1d1b;"/>
        <path d="M40.5,68c-.06,0-.12-.02-.17-.07-.05-.05-.08-.11-.08-.18s.03-.13,.08-.18c.09-.09,.25-.09,.35,0,.05,.05,.07,.12,.07,.18s-.02,.13-.07,.18c-.05,.05-.12,.07-.18,.07Z" style="fill: #1d1d1b;"/>
        <path d="M44,63c-.06,0-.12-.02-.17-.07-.05-.04-.08-.11-.08-.18s.03-.13,.08-.18c.09-.09,.25-.09,.35,0,.05,.05,.07,.12,.07,.18,0,.07-.02,.13-.07,.18-.05,.05-.11,.07-.18,.07Z" style="fill: #1d1d1b;"/>
        <path d="M25.75,70c-.06,0-.12-.02-.17-.07-.05-.05-.08-.11-.08-.18s.03-.13,.08-.18c.09-.09,.25-.09,.35,0,.05,.05,.07,.11,.07,.18,0,.06-.02,.12-.07,.17-.05,.06-.11,.08-.18,.08Z" style="fill: #1d1d1b;"/>
        <path d="M4.5,60c-.06,0-.12-.02-.17-.07-.05-.05-.08-.11-.08-.18,0-.06,.03-.13,.07-.17,.11-.11,.26-.1,.36,0,.05,.06,.07,.12,.07,.18s-.02,.13-.07,.18c-.05,.05-.12,.07-.18,.07Z" style="fill: #1d1d1b;"/>
        <path d="M26.5,59.5c-.06,0-.12-.02-.17-.07-.05-.05-.08-.11-.08-.18s.03-.13,.08-.18c.1-.09,.25-.09,.35,0,.05,.05,.07,.11,.07,.18,0,.06-.02,.13-.07,.18-.05,.05-.11,.07-.18,.07Z" style="fill: #1d1d1b;"/>
        <path d="M37.25,48.5c-.06,0-.12-.03-.17-.07-.05-.05-.08-.11-.08-.18s.03-.13,.08-.18c.09-.09,.24-.09,.34,0,.06,.05,.08,.12,.08,.18s-.02,.13-.07,.18c-.06,.05-.12,.07-.18,.07Z" style="fill: #1d1d1b;"/>
        <path d="M22,41.75c-.06,0-.12-.02-.17-.07-.05-.05-.08-.11-.08-.18s.03-.13,.08-.18c.1-.09,.25-.09,.35,0,.05,.05,.07,.12,.07,.18s-.02,.13-.07,.18c-.05,.05-.12,.07-.18,.07Z" style="fill: #1d1d1b;"/>
        <path d="M8.75,40.25c-.06,0-.13-.03-.17-.07-.05-.05-.08-.12-.08-.18,0-.07,.03-.13,.08-.18,.09-.09,.25-.09,.35,0,.04,.05,.07,.11,.07,.18s-.02,.13-.07,.18c-.05,.05-.11,.07-.18,.07Z" style="fill: #1d1d1b;"/>
        <path d="M24,29c-.06,0-.12-.02-.17-.07-.05-.05-.08-.11-.08-.18s.03-.13,.08-.18c.1-.09,.25-.09,.35,0,.05,.05,.07,.12,.07,.18s-.02,.12-.07,.17c-.05,.06-.11,.08-.18,.08Z" style="fill: #1d1d1b;"/>
        <path d="M41.5,34.5c-.06,0-.13-.03-.17-.07-.05-.05-.08-.11-.08-.18s.03-.13,.08-.18c.09-.09,.25-.09,.34,0,.06,.06,.08,.12,.08,.18s-.02,.12-.07,.17c-.05,.06-.11,.08-.18,.08Z" style="fill: #1d1d1b;"/>
        <path d="M51.5,37.5c-.06,0-.13-.03-.17-.07-.05-.05-.08-.11-.08-.18s.03-.13,.08-.18c.09-.09,.25-.09,.35,0,.05,.05,.07,.12,.07,.18s-.02,.13-.07,.17c-.05,.06-.11,.08-.18,.08Z" style="fill: #1d1d1b;"/>
        <path d="M60.75,46c-.06,0-.12-.03-.17-.07-.05-.05-.08-.11-.08-.18s.03-.14,.08-.18c.09-.09,.25-.09,.35,0,.05,.05,.07,.11,.07,.18s-.02,.13-.07,.18c-.05,.04-.11,.07-.18,.07Z" style="fill: #1d1d1b;"/>
        <path d="M67.5,43.75c-.06,0-.13-.03-.17-.07-.05-.05-.08-.11-.08-.18s.03-.13,.08-.18c.08-.08,.25-.09,.35,0,.05,.05,.07,.12,.07,.18s-.02,.13-.07,.18c-.05,.04-.11,.07-.18,.07Z" style="fill: #1d1d1b;"/>
        <path d="M51.25,66.25c-.06,0-.12-.02-.17-.07-.05-.05-.08-.11-.08-.18s.03-.13,.08-.18c.09-.09,.25-.09,.35,0,.05,.05,.07,.11,.07,.18s-.03,.13-.07,.18c-.05,.05-.11,.07-.18,.07Z" style="fill: #1d1d1b;"/>
        <path d="M40,37.75c-.06,0-.13-.03-.17-.07-.05-.05-.08-.11-.08-.18s.03-.13,.08-.18c.09-.09,.26-.09,.35,0,.05,.05,.07,.12,.07,.18s-.02,.12-.07,.17c-.05,.05-.11,.08-.18,.08Z" style="fill: #1d1d1b;"/>
        <path d="M53.25,15c-.06,0-.13-.03-.17-.07-.05-.05-.08-.11-.08-.18s.03-.13,.08-.18c.07-.08,.26-.09,.35,0,.05,.04,.07,.11,.07,.17s-.02,.13-.07,.18c-.05,.04-.11,.07-.18,.07Z" style="fill: #1d1d1b;"/>
        <path d="M34,16c-.07,0-.13-.03-.18-.08-.04-.04-.07-.1-.07-.17s.03-.14,.08-.18c.09-.09,.26-.09,.35,0,.05,.05,.07,.11,.07,.18,0,.06-.02,.13-.07,.18-.05,.04-.11,.07-.18,.07Z" style="fill: #1d1d1b;"/>
        <path d="M27.5,13.5c-.06,0-.12-.02-.17-.07-.05-.05-.08-.11-.08-.18s.03-.13,.07-.17c.11-.11,.26-.1,.36,0,.05,.05,.07,.12,.07,.18,0,.07-.02,.13-.07,.18-.05,.05-.11,.07-.18,.07Z" style="fill: #1d1d1b;"/>
        <path d="M12.75,19.25c-.06,0-.13-.03-.17-.07-.05-.05-.08-.11-.08-.18,0-.06,.03-.12,.07-.17,.1-.1,.26-.1,.36,0,.05,.05,.07,.12,.07,.18,0,.07-.02,.13-.07,.18-.05,.05-.11,.07-.18,.07Z" style="fill: #1d1d1b;"/>
        <path d="M19.75,26.5c-.06,0-.12-.02-.17-.07-.05-.05-.08-.11-.08-.18,0-.06,.03-.12,.07-.17,.11-.11,.26-.1,.36,0,.05,.05,.07,.12,.07,.18,0,.07-.02,.13-.07,.18-.05,.05-.12,.07-.18,.07Z" style="fill: #1d1d1b;"/>
        <path d="M49.5,4.5c-.06,0-.13-.03-.17-.07-.05-.04-.08-.11-.08-.18s.03-.14,.08-.18c.08-.08,.25-.09,.35,0,.05,.05,.07,.12,.07,.18s-.02,.13-.07,.18c-.05,.04-.11,.07-.18,.07Z" style="fill: #1d1d1b;"/>
        <path d="M11.75,1.75c-.06,0-.12-.02-.17-.07-.05-.05-.08-.11-.08-.18,0-.06,.03-.13,.07-.18,.1-.09,.27-.09,.36,0,.05,.05,.07,.12,.07,.18s-.02,.13-.07,.18c-.05,.05-.11,.07-.18,.07Z" style="fill: #1d1d1b;"/>
        <path d="M55.25,3.75c-.06,0-.13-.03-.17-.07-.05-.05-.08-.11-.08-.18s.03-.13,.08-.18c.08-.09,.25-.09,.35,0,.05,.05,.07,.12,.07,.18s-.02,.13-.07,.18c-.05,.04-.11,.07-.18,.07Z" style="fill: #1d1d1b;"/>
        <path d="M59,20.75c-.06,0-.13-.03-.17-.07-.05-.05-.08-.11-.08-.18s.03-.13,.08-.18c.08-.09,.25-.09,.35,0,.05,.06,.07,.12,.07,.18s-.02,.12-.07,.17c-.05,.06-.11,.08-.18,.08Z" style="fill: #1d1d1b;"/>
        <path d="M67.5,57.25c-.06,0-.13-.03-.17-.07-.05-.05-.08-.12-.08-.18,0-.07,.03-.13,.08-.18,.09-.09,.25-.09,.35,0,.05,.05,.07,.12,.07,.18s-.02,.12-.07,.17c-.05,.05-.11,.08-.18,.08Z" style="fill: #1d1d1b;"/>
        <path d="M47.25,69.75c-.06,0-.13-.03-.17-.07-.05-.04-.08-.11-.08-.18s.03-.14,.08-.18c.08-.08,.25-.09,.35,0,.04,.05,.07,.11,.07,.18s-.03,.13-.07,.18c-.05,.05-.11,.07-.18,.07Z" style="fill: #1d1d1b;"/>
        <path d="M5.25,69.75c-.06,0-.13-.03-.17-.07-.05-.05-.08-.11-.08-.18,0-.06,.03-.12,.07-.17,.1-.1,.26-.1,.36,0,.05,.05,.07,.12,.07,.18,0,.07-.02,.13-.07,.18s-.12,.07-.18,.07Z" style="fill: #1d1d1b;"/>
        <path d="M4.75,40.25c-.06,0-.13-.03-.18-.07-.04-.05-.07-.11-.07-.18s.03-.13,.07-.18c.09-.09,.26-.09,.36,0,.05,.05,.07,.12,.07,.18s-.02,.13-.07,.18c-.05,.04-.11,.07-.18,.07Z" style="fill: #1d1d1b;"/>
        <path d="M69.75,12.75c-.07,0-.13-.03-.17-.07-.05-.05-.08-.11-.08-.18s.03-.13,.08-.18c.09-.09,.25-.09,.35,0,.05,.05,.07,.12,.07,.18s-.02,.13-.07,.18c-.05,.04-.11,.07-.18,.07Z" style="fill: #1d1d1b;"/>
        <path d="M23.25,14c-.06,0-.12-.02-.17-.07-.05-.05-.08-.11-.08-.18s.03-.13,.07-.17c.11-.11,.26-.1,.36,0,.05,.06,.07,.12,.07,.18s-.02,.13-.07,.18c-.05,.05-.11,.07-.18,.07Z" style="fill: #1d1d1b;"/>
        <path d="M20.5,17.25c-.06,0-.13-.03-.17-.07-.05-.04-.08-.11-.08-.18s.03-.14,.08-.18c.07-.08,.26-.09,.35,0,.05,.04,.07,.11,.07,.17s-.02,.13-.07,.18c-.05,.04-.11,.07-.18,.07Z" style="fill: #1d1d1b;"/>
        <path d="M14.75,17.25c-.06,0-.12-.02-.17-.07-.05-.05-.08-.11-.08-.18,0-.06,.03-.13,.07-.18,.11-.09,.26-.09,.36,0,.05,.05,.07,.12,.07,.18s-.02,.13-.07,.18c-.05,.05-.11,.07-.18,.07Z" style="fill: #1d1d1b;"/>
        <path d="M2.75,13.25c-.07,0-.13-.03-.17-.07-.05-.05-.08-.12-.08-.18,0-.07,.03-.13,.08-.18,.09-.09,.25-.09,.35,0,.04,.05,.07,.11,.07,.18s-.02,.13-.07,.18c-.05,.04-.11,.07-.18,.07Z" style="fill: #1d1d1b;"/>
        <path d="M6,11.75c-.06,0-.12-.02-.17-.07-.05-.05-.08-.12-.08-.18,0-.07,.03-.13,.07-.18,.12-.1,.26-.09,.36,0,.05,.05,.07,.11,.07,.18,0,.06-.02,.12-.07,.17-.05,.06-.11,.08-.18,.08Z" style="fill: #1d1d1b;"/>
        <path d="M7,2.75c-.06,0-.12-.02-.17-.07-.05-.05-.08-.12-.08-.18,0-.07,.03-.13,.07-.18,.11-.09,.26-.09,.36,0,.05,.05,.07,.12,.07,.18s-.02,.12-.07,.17c-.05,.06-.11,.08-.18,.08Z" style="fill: #1d1d1b;"/>
        <path d="M10,8.25c-.07,0-.13-.03-.18-.07-.04-.05-.07-.12-.07-.18,0-.07,.03-.13,.07-.18,.09-.09,.26-.09,.36,0,.05,.05,.07,.11,.07,.18,0,.06-.02,.13-.07,.17-.05,.06-.11,.08-.18,.08Z" style="fill: #1d1d1b;"/>
        <path d="M16,8.25c-.06,0-.13-.03-.18-.07-.04-.05-.07-.11-.07-.18s.03-.13,.08-.18c.1-.09,.25-.09,.35,0,.05,.05,.07,.12,.07,.18s-.02,.13-.07,.18c-.05,.04-.11,.07-.18,.07Z" style="fill: #1d1d1b;"/>
        <path d="M16.5,3.25c-.06,0-.12-.02-.17-.07-.05-.05-.08-.11-.08-.18s.03-.13,.07-.18c.11-.1,.26-.09,.36,0,.05,.05,.07,.11,.07,.18s-.02,.13-.07,.18c-.05,.05-.12,.07-.18,.07Z" style="fill: #1d1d1b;"/>
        <path d="M25.75,7c-.06,0-.12-.02-.17-.07-.05-.05-.08-.11-.08-.18s.03-.13,.08-.18c.1-.09,.25-.09,.35,0,.05,.05,.07,.12,.07,.18s-.02,.13-.07,.18c-.05,.05-.11,.07-.18,.07Z" style="fill: #1d1d1b;"/>
        <path d="M37,7.5c-.06,0-.12-.02-.17-.07-.05-.05-.08-.11-.08-.18s.03-.13,.08-.18c.09-.09,.26-.09,.35,0,.05,.05,.07,.11,.07,.18s-.02,.13-.07,.18c-.05,.05-.12,.07-.18,.07Z" style="fill: #1d1d1b;"/>
        <path d="M40.5,4.5c-.06,0-.13-.03-.17-.07-.05-.04-.08-.11-.08-.18s.03-.13,.08-.18c.09-.09,.25-.09,.35,0,.05,.06,.07,.12,.07,.18,0,.07-.02,.13-.07,.18-.05,.04-.11,.07-.18,.07Z" style="fill: #1d1d1b;"/>
        <path d="M37.5,4.25c-.06,0-.13-.03-.17-.07-.05-.04-.08-.11-.08-.18s.03-.13,.08-.18c.08-.09,.25-.09,.35,0,.05,.06,.07,.12,.07,.18s-.02,.13-.07,.18c-.05,.05-.11,.07-.18,.07Z" style="fill: #1d1d1b;"/>
        <path d="M43.25,2.25c-.07,0-.13-.03-.18-.08-.04-.04-.07-.1-.07-.17s.03-.13,.08-.18c.09-.09,.25-.09,.35,0,.05,.05,.07,.12,.07,.18s-.02,.13-.07,.18c-.05,.04-.11,.07-.18,.07Z" style="fill: #1d1d1b;"/>
        <path d="M49.5,8.25c-.06,0-.13-.03-.17-.07-.05-.04-.08-.11-.08-.18s.03-.14,.08-.18c.08-.09,.25-.09,.35,0,.05,.05,.07,.12,.07,.18s-.02,.13-.07,.18c-.05,.04-.11,.07-.18,.07Z" style="fill: #1d1d1b;"/>
        <path d="M46,9.25c-.06,0-.13-.03-.17-.07-.05-.05-.08-.11-.08-.18s.03-.13,.08-.18c.08-.08,.25-.09,.35,0,.05,.05,.07,.12,.07,.18s-.02,.13-.07,.18c-.05,.04-.11,.07-.18,.07Z" style="fill: #1d1d1b;"/>
        <path d="M35.75,11c-.06,0-.13-.03-.17-.07-.05-.05-.08-.11-.08-.18s.03-.13,.08-.18c.09-.09,.25-.09,.35,0,.05,.05,.07,.12,.07,.18s-.02,.13-.07,.18c-.05,.04-.11,.07-.18,.07Z" style="fill: #1d1d1b;"/>
        <path d="M39.25,15c-.06,0-.12-.02-.17-.07-.05-.05-.08-.11-.08-.18s.03-.13,.08-.18c.09-.09,.25-.09,.35,0,.05,.06,.07,.12,.07,.18s-.02,.13-.07,.18c-.05,.05-.11,.07-.18,.07Z" style="fill: #1d1d1b;"/>
        <path d="M24.75,18c-.06,0-.12-.02-.17-.07-.05-.05-.08-.11-.08-.18s.03-.13,.07-.18c.1-.09,.27-.09,.36,0,.05,.05,.07,.11,.07,.18s-.02,.13-.07,.18c-.05,.05-.11,.07-.18,.07Z" style="fill: #1d1d1b;"/>
        <path d="M8.25,27.25c-.06,0-.12-.02-.17-.07-.05-.05-.08-.11-.08-.18s.03-.13,.07-.18c.12-.1,.26-.09,.36,0,.05,.05,.07,.12,.07,.18,0,.07-.02,.13-.07,.18-.05,.04-.11,.07-.18,.07Z" style="fill: #1d1d1b;"/>
        <path d="M16,31.75c-.06,0-.13-.03-.18-.07-.04-.05-.07-.11-.07-.18s.03-.13,.08-.18c.1-.09,.25-.09,.35,0,.05,.05,.07,.12,.07,.18s-.02,.13-.07,.18c-.05,.04-.11,.07-.18,.07Z" style="fill: #1d1d1b;"/>
        <path d="M10.5,33.5c-.06,0-.12-.02-.17-.07-.05-.05-.08-.12-.08-.18,0-.07,.03-.13,.07-.18,.11-.1,.26-.09,.36,0,.05,.05,.07,.12,.07,.18s-.02,.12-.07,.17c-.05,.06-.11,.08-.18,.08Z" style="fill: #1d1d1b;"/>
        <path d="M5.25,37c-.06,0-.13-.03-.17-.07-.05-.05-.08-.11-.08-.18,0-.06,.03-.12,.07-.17,.1-.1,.26-.1,.36,0,.05,.05,.07,.12,.07,.18,0,.07-.02,.13-.07,.18-.05,.05-.12,.07-.18,.07Z" style="fill: #1d1d1b;"/>
        <path d="M2.75,32c-.06,0-.13-.03-.17-.07-.05-.05-.08-.12-.08-.18,0-.07,.03-.13,.08-.18,.09-.09,.25-.09,.35,0,.04,.05,.07,.11,.07,.18s-.02,.13-.07,.18c-.05,.04-.11,.07-.18,.07Z" style="fill: #1d1d1b;"/>
        <path d="M7.5,25c-.07,0-.13-.03-.18-.07-.04-.05-.07-.11-.07-.18s.03-.13,.07-.18c.11-.09,.25-.09,.35,0,.06,.05,.08,.12,.08,.18s-.02,.13-.07,.18c-.05,.04-.11,.07-.18,.07Z" style="fill: #1d1d1b;"/>
        <path d="M3.25,20.5c-.06,0-.13-.03-.17-.07-.05-.05-.08-.11-.08-.18,0-.06,.03-.13,.07-.17,.1-.1,.26-.1,.36,0,.05,.05,.07,.12,.07,.18,0,.07-.02,.13-.07,.18-.05,.05-.12,.07-.18,.07Z" style="fill: #1d1d1b;"/>
        <path d="M20.5,30.75c-.06,0-.13-.03-.17-.07-.05-.05-.08-.11-.08-.18s.03-.13,.08-.18c.09-.09,.25-.09,.35,0,.05,.06,.07,.12,.07,.18s-.02,.12-.07,.17c-.05,.05-.11,.08-.18,.08Z" style="fill: #1d1d1b;"/>
        <path d="M17.5,35.5c-.06,0-.12-.03-.17-.07-.05-.06-.08-.12-.08-.18,0-.07,.03-.13,.07-.18,.11-.09,.26-.09,.36,0,.05,.05,.07,.11,.07,.18,0,.06-.02,.13-.07,.17-.05,.05-.11,.08-.18,.08Z" style="fill: #1d1d1b;"/>
        <path d="M16,39c-.06,0-.12-.02-.17-.07-.05-.05-.08-.11-.08-.18s.03-.13,.08-.18c.09-.09,.25-.09,.35,0,.05,.05,.07,.12,.07,.18s-.02,.13-.07,.18c-.05,.05-.12,.07-.18,.07Z" style="fill: #1d1d1b;"/>
        <path d="M12.75,41.25c-.06,0-.13-.03-.17-.07-.05-.05-.08-.11-.08-.18,0-.06,.03-.13,.07-.18,.1-.09,.26-.09,.36,0,.05,.05,.07,.11,.07,.18s-.02,.13-.07,.18c-.05,.04-.11,.07-.18,.07Z" style="fill: #1d1d1b;"/>
        <path d="M12.75,46.5c-.07,0-.13-.03-.17-.07-.05-.05-.08-.12-.08-.18,0-.07,.03-.13,.07-.18,.1-.09,.26-.09,.36,0,.05,.05,.07,.11,.07,.18s-.02,.13-.07,.18c-.05,.05-.11,.07-.18,.07Z" style="fill: #1d1d1b;"/>
        <path d="M4,46.75c-.06,0-.13-.03-.17-.07-.05-.05-.08-.11-.08-.18,0-.06,.03-.13,.07-.18,.1-.09,.26-.09,.35,0,.06,.05,.08,.12,.08,.18,0,.07-.02,.13-.07,.18-.05,.05-.12,.07-.18,.07Z" style="fill: #1d1d1b;"/>
        <path d="M5.75,48.5c-.07,0-.13-.03-.18-.08-.04-.04-.07-.1-.07-.17s.03-.13,.07-.18c.1-.09,.26-.09,.36,0,.05,.05,.07,.11,.07,.18s-.02,.13-.07,.18c-.05,.04-.11,.07-.18,.07Z" style="fill: #1d1d1b;"/>
        <path d="M11,50.5c-.06,0-.12-.02-.17-.07-.05-.05-.08-.11-.08-.18,0-.06,.03-.13,.07-.17,.11-.11,.26-.1,.36,0,.05,.06,.07,.12,.07,.18s-.02,.13-.07,.18c-.05,.05-.12,.07-.18,.07Z" style="fill: #1d1d1b;"/>
        <path d="M11,54.5c-.06,0-.13-.03-.18-.07-.04-.05-.07-.11-.07-.18s.03-.13,.07-.18c.11-.09,.26-.09,.36,0,.05,.05,.07,.12,.07,.18s-.02,.13-.07,.18c-.05,.04-.11,.07-.18,.07Z" style="fill: #1d1d1b;"/>
        <path d="M15.5,58.5c-.06,0-.12-.03-.17-.07-.05-.05-.08-.11-.08-.18s.03-.13,.07-.18c.11-.09,.26-.09,.36,0,.05,.05,.07,.12,.07,.18s-.02,.13-.07,.18c-.05,.04-.11,.07-.18,.07Z" style="fill: #1d1d1b;"/>
        <path d="M10,59.75c-.07,0-.13-.03-.18-.07-.04-.05-.07-.12-.07-.18,0-.07,.03-.13,.07-.18,.1-.09,.25-.09,.36,0,.05,.05,.07,.11,.07,.18,0,.06-.02,.13-.07,.18-.05,.05-.11,.07-.18,.07Z" style="fill: #1d1d1b;"/>
        <path d="M6,63.5c-.06,0-.12-.02-.17-.07-.05-.05-.08-.12-.08-.18,0-.07,.03-.13,.07-.18,.12-.1,.26-.09,.36,0,.05,.05,.07,.11,.07,.18,0,.06-.02,.12-.07,.17-.05,.06-.11,.08-.18,.08Z" style="fill: #1d1d1b;"/>
        <path d="M2.25,62c-.06,0-.12-.02-.17-.07-.05-.05-.08-.11-.08-.18s.03-.13,.07-.18c.11-.09,.25-.09,.35,0,.06,.05,.08,.12,.08,.18s-.02,.13-.07,.18c-.06,.05-.12,.07-.18,.07Z" style="fill: #1d1d1b;"/>
        <path d="M7.25,67.75c-.06,0-.13-.03-.17-.07-.05-.05-.08-.12-.08-.18,0-.07,.03-.13,.07-.18,.1-.09,.26-.09,.36,0,.04,.05,.07,.11,.07,.18s-.02,.13-.07,.17c-.05,.06-.11,.08-.18,.08Z" style="fill: #1d1d1b;"/>
        <path d="M13.5,69.5c-.06,0-.12-.02-.17-.07-.05-.05-.08-.12-.08-.18,0-.07,.03-.13,.07-.18,.11-.09,.26-.09,.36,0,.05,.05,.07,.12,.07,.18s-.02,.12-.07,.17c-.05,.06-.11,.08-.18,.08Z" style="fill: #1d1d1b;"/>
        <path d="M13.5,65.75c-.06,0-.12-.02-.17-.07-.05-.05-.08-.11-.08-.18,0-.06,.03-.13,.07-.17,.11-.11,.26-.1,.36,0,.05,.06,.07,.12,.07,.18s-.02,.13-.07,.18c-.05,.05-.11,.07-.18,.07Z" style="fill: #1d1d1b;"/>
        <path d="M21.5,68.5c-.06,0-.12-.02-.17-.07-.05-.05-.08-.11-.08-.18s.03-.13,.08-.18c.09-.09,.25-.09,.35,0,.05,.05,.07,.12,.07,.18s-.02,.12-.07,.17c-.05,.06-.11,.08-.18,.08Z" style="fill: #1d1d1b;"/>
        <path d="M23,65.75c-.06,0-.12-.02-.17-.07-.05-.05-.08-.11-.08-.18,0-.06,.03-.12,.07-.17,.11-.11,.26-.1,.36,0,.05,.05,.07,.12,.07,.18,0,.07-.02,.13-.07,.18-.05,.05-.11,.07-.18,.07Z" style="fill: #1d1d1b;"/>
        <path d="M22.25,60c-.06,0-.12-.02-.17-.07-.05-.05-.08-.11-.08-.18,0-.06,.03-.12,.07-.17,.11-.11,.26-.1,.36,0,.05,.05,.07,.12,.07,.18,0,.07-.02,.13-.07,.18-.05,.05-.12,.07-.18,.07Z" style="fill: #1d1d1b;"/>
        <path d="M24.25,57.5c-.06,0-.12-.02-.17-.07-.05-.05-.08-.11-.08-.18s.03-.13,.08-.18c.1-.09,.25-.09,.35,0,.05,.05,.07,.12,.07,.18s-.02,.13-.07,.18c-.05,.05-.11,.07-.18,.07Z" style="fill: #1d1d1b;"/>
        <path d="M22,53.25c-.06,0-.12-.02-.17-.07-.05-.05-.08-.11-.08-.18s.03-.13,.07-.17c.11-.11,.26-.1,.36,0,.05,.06,.07,.12,.07,.18s-.02,.13-.07,.18c-.05,.05-.11,.07-.18,.07Z" style="fill: #1d1d1b;"/>
        <path d="M26.25,47.75c-.06,0-.12-.02-.17-.07-.05-.05-.08-.11-.08-.18s.03-.13,.08-.18c.09-.09,.25-.09,.35,0,.05,.05,.07,.12,.07,.18s-.02,.13-.07,.18c-.05,.05-.11,.07-.18,.07Z" style="fill: #1d1d1b;"/>
        <path d="M25.75,43.5c-.06,0-.12-.02-.17-.07-.05-.05-.08-.11-.08-.18s.03-.13,.07-.18c.11-.09,.26-.09,.36,0,.05,.06,.07,.12,.07,.18,0,.07-.02,.13-.07,.18-.05,.05-.11,.07-.18,.07Z" style="fill: #1d1d1b;"/>
        <path d="M31.25,37.5c-.06,0-.12-.03-.17-.07-.05-.05-.08-.12-.08-.18s.03-.13,.07-.17c.11-.11,.26-.1,.36,0,.05,.06,.07,.12,.07,.18s-.02,.12-.07,.17c-.05,.05-.11,.08-.18,.08Z" style="fill: #1d1d1b;"/>
        <path d="M32.25,31c-.06,0-.12-.02-.17-.07-.05-.05-.08-.11-.08-.18,0-.06,.03-.12,.07-.17,.11-.11,.26-.1,.36,0,.05,.05,.07,.12,.07,.18,0,.07-.03,.13-.07,.18-.05,.05-.11,.07-.18,.07Z" style="fill: #1d1d1b;"/>
        <path d="M26,34c-.06,0-.12-.02-.17-.07-.05-.05-.08-.11-.08-.18s.03-.13,.08-.18c.1-.09,.25-.09,.35,0,.05,.05,.07,.12,.07,.18s-.02,.13-.07,.18c-.05,.05-.11,.07-.18,.07Z" style="fill: #1d1d1b;"/>
        <path d="M34.25,27.75c-.06,0-.13-.03-.17-.07-.05-.05-.08-.11-.08-.18s.03-.13,.08-.18c.09-.09,.25-.09,.35,0,.05,.06,.07,.12,.07,.18s-.02,.13-.07,.18c-.05,.04-.11,.07-.18,.07Z" style="fill: #1d1d1b;"/>
        <path d="M37.25,28.5c-.06,0-.13-.03-.17-.07-.05-.05-.08-.11-.08-.18s.03-.13,.08-.18c.09-.09,.25-.09,.34,0,.06,.05,.08,.12,.08,.18s-.02,.12-.07,.17c-.05,.06-.11,.08-.18,.08Z" style="fill: #1d1d1b;"/>
        <path d="M41.75,25.75c-.06,0-.12-.03-.17-.07-.05-.05-.08-.11-.08-.18s.03-.13,.08-.18c.09-.09,.26-.09,.35,0,.05,.06,.07,.12,.07,.18s-.02,.12-.07,.17c-.05,.05-.11,.08-.18,.08Z" style="fill: #1d1d1b;"/>
        <path d="M43,20.75c-.06,0-.12-.02-.17-.07-.05-.05-.08-.11-.08-.18s.03-.13,.08-.18c.09-.09,.25-.09,.35,0,.05,.05,.07,.12,.07,.18s-.02,.13-.07,.18c-.05,.05-.12,.07-.18,.07Z" style="fill: #1d1d1b;"/>
        <path d="M36.5,19.25c-.06,0-.13-.03-.17-.07-.05-.04-.08-.11-.08-.18s.03-.14,.08-.18c.08-.08,.25-.09,.35,0,.05,.05,.07,.12,.07,.18s-.02,.13-.07,.18c-.05,.05-.11,.07-.18,.07Z" style="fill: #1d1d1b;"/>
        <path d="M27.75,22.25c-.06,0-.12-.03-.17-.07-.05-.05-.08-.12-.08-.18s.03-.13,.07-.17c.11-.11,.26-.1,.36,0,.05,.05,.07,.11,.07,.18s-.02,.13-.07,.18c-.05,.04-.11,.07-.18,.07Z" style="fill: #1d1d1b;"/>
        <path d="M52,22c-.06,0-.13-.03-.17-.07-.05-.05-.08-.11-.08-.18s.03-.13,.08-.18c.09-.09,.25-.09,.35,0,.05,.06,.07,.12,.07,.18s-.02,.12-.07,.17c-.05,.05-.11,.08-.18,.08Z" style="fill: #1d1d1b;"/>
        <path d="M43.25,17.75c-.06,0-.13-.03-.17-.07-.05-.05-.08-.11-.08-.18,0-.06,.03-.13,.07-.18,.11-.09,.26-.09,.36,0,.05,.06,.07,.12,.07,.18s-.02,.12-.07,.17c-.05,.06-.11,.08-.18,.08Z" style="fill: #1d1d1b;"/>
        <path d="M50.5,18c-.06,0-.13-.03-.17-.07-.05-.05-.08-.11-.08-.18s.03-.13,.08-.18c.08-.09,.25-.09,.35,0,.05,.06,.07,.12,.07,.18s-.02,.12-.07,.17c-.05,.05-.11,.08-.18,.08Z" style="fill: #1d1d1b;"/>
        <path d="M59.5,17.25c-.06,0-.13-.03-.17-.07-.05-.05-.08-.11-.08-.18s.03-.13,.08-.18c.08-.09,.25-.09,.35,0,.05,.05,.07,.12,.07,.18s-.02,.13-.07,.18c-.05,.04-.11,.07-.18,.07Z" style="fill: #1d1d1b;"/>
        <path d="M58.25,14c-.06,0-.13-.03-.17-.07-.05-.05-.08-.11-.08-.18s.03-.13,.08-.18c.08-.09,.26-.09,.35,0,.05,.05,.07,.11,.07,.18,0,.06-.02,.13-.07,.18-.05,.04-.11,.07-.18,.07Z" style="fill: #1d1d1b;"/>
        <path d="M61.5,11c-.06,0-.12-.02-.17-.07-.05-.05-.08-.11-.08-.18s.03-.14,.08-.18c.09-.09,.25-.09,.35,0,.04,.05,.07,.11,.07,.18s-.03,.13-.07,.18c-.05,.05-.11,.07-.18,.07Z" style="fill: #1d1d1b;"/>
        <path d="M58.75,7.5c-.06,0-.12-.02-.17-.07-.05-.05-.08-.11-.08-.18s.03-.13,.08-.18c.09-.09,.25-.09,.35,0,.05,.05,.07,.11,.07,.18s-.02,.13-.07,.18c-.05,.05-.11,.07-.18,.07Z" style="fill: #1d1d1b;"/>
        <path d="M60,4.75c-.06,0-.13-.03-.17-.07-.05-.05-.08-.11-.08-.18s.03-.13,.07-.18c.11-.09,.26-.09,.36,0,.05,.05,.07,.11,.07,.18s-.02,.13-.07,.17c-.05,.06-.11,.08-.18,.08Z" style="fill: #1d1d1b;"/>
        <path d="M67.5,6c-.06,0-.13-.03-.17-.07-.05-.05-.08-.12-.08-.18s.03-.13,.07-.17c.1-.1,.26-.1,.36,0,.05,.06,.07,.12,.07,.18s-.02,.12-.07,.17c-.05,.05-.11,.08-.18,.08Z" style="fill: #1d1d1b;"/>
        <path d="M69.5,8c-.06,0-.12-.03-.17-.07-.05-.05-.08-.11-.08-.18,0-.06,.03-.13,.07-.18,.11-.09,.26-.09,.36,0,.05,.05,.07,.12,.07,.18,0,.07-.02,.13-.07,.18-.05,.05-.11,.07-.18,.07Z" style="fill: #1d1d1b;"/>
        <path d="M65.75,9.75c-.06,0-.13-.03-.17-.07-.05-.05-.08-.11-.08-.18s.03-.13,.08-.18c.08-.09,.26-.09,.35,0,.05,.05,.07,.12,.07,.18s-.02,.13-.07,.18c-.05,.04-.11,.07-.18,.07Z" style="fill: #1d1d1b;"/>
        <path d="M61.75,16.5c-.06,0-.13-.03-.17-.07-.05-.05-.08-.11-.08-.18s.03-.13,.08-.18c.09-.09,.25-.09,.35,0,.05,.05,.07,.12,.07,.18s-.02,.13-.07,.17c-.05,.06-.11,.08-.18,.08Z" style="fill: #1d1d1b;"/>
        <path d="M60.25,23.75c-.06,0-.12-.03-.17-.07-.05-.05-.08-.11-.08-.18s.03-.13,.08-.18c.09-.09,.25-.09,.35,0,.04,.05,.07,.11,.07,.18s-.02,.13-.07,.18c-.05,.05-.11,.07-.18,.07Z" style="fill: #1d1d1b;"/>
        <path d="M55.5,23.75c-.06,0-.13-.03-.17-.07-.05-.05-.08-.12-.08-.18s.03-.13,.08-.18c.09-.09,.25-.09,.35,0,.05,.05,.07,.12,.07,.18s-.02,.13-.07,.18c-.05,.04-.11,.07-.18,.07Z" style="fill: #1d1d1b;"/>
        <path d="M55.5,18.75c-.06,0-.13-.03-.17-.07-.05-.05-.08-.12-.08-.18s.03-.13,.08-.18c.09-.09,.25-.09,.35,0,.05,.05,.07,.12,.07,.18s-.02,.13-.07,.18c-.05,.04-.11,.07-.18,.07Z" style="fill: #1d1d1b;"/>
        <path d="M65,25.75c-.06,0-.12-.03-.17-.07-.05-.05-.08-.11-.08-.18s.03-.13,.08-.18c.09-.09,.25-.09,.35,0,.05,.05,.07,.12,.07,.18,0,.07-.02,.13-.07,.18-.05,.05-.11,.07-.18,.07Z" style="fill: #1d1d1b;"/>
        <path d="M61.25,27c-.06,0-.13-.03-.17-.07-.05-.05-.08-.11-.08-.18s.03-.13,.08-.18c.09-.09,.25-.09,.35,0,.05,.05,.07,.11,.07,.18s-.03,.13-.07,.18c-.05,.04-.11,.07-.18,.07Z" style="fill: #1d1d1b;"/>
        <path d="M57.75,30.75c-.06,0-.12-.02-.17-.07-.05-.05-.08-.11-.08-.18s.03-.13,.08-.18c.09-.09,.25-.09,.35,0,.05,.05,.07,.11,.07,.18s-.02,.13-.07,.17c-.05,.06-.11,.08-.18,.08Z" style="fill: #1d1d1b;"/>
        <path d="M52.75,32.75c-.06,0-.13-.03-.17-.07-.05-.05-.08-.11-.08-.18s.03-.13,.08-.18c.09-.09,.25-.09,.35,0,.05,.05,.07,.12,.07,.18s-.02,.13-.07,.17c-.05,.06-.11,.08-.18,.08Z" style="fill: #1d1d1b;"/>
        <path d="M47.5,33.75c-.06,0-.12-.03-.17-.07-.05-.05-.08-.11-.08-.18s.03-.13,.08-.18c.09-.09,.25-.09,.34,0,.06,.06,.08,.12,.08,.18s-.02,.12-.07,.17c-.06,.06-.11,.08-.18,.08Z" style="fill: #1d1d1b;"/>
        <path d="M44.25,39.25c-.06,0-.12-.03-.17-.07-.05-.05-.08-.11-.08-.18s.03-.13,.08-.18c.09-.09,.25-.09,.35,0,.05,.05,.07,.11,.07,.18s-.02,.13-.07,.18c-.05,.05-.12,.07-.18,.07Z" style="fill: #1d1d1b;"/>
        <path d="M34,41.5c-.06,0-.12-.02-.17-.07-.05-.05-.08-.11-.08-.18s.03-.13,.08-.18c.09-.09,.25-.09,.35,0,.05,.05,.07,.12,.07,.18s-.02,.13-.07,.18c-.05,.04-.11,.07-.18,.07Z" style="fill: #1d1d1b;"/>
        <path d="M40.75,48c-.06,0-.12-.02-.17-.07-.05-.05-.08-.11-.08-.18s.03-.13,.08-.18c.1-.09,.25-.09,.35,0,.04,.05,.07,.11,.07,.18s-.03,.13-.07,.18c-.05,.05-.11,.07-.18,.07Z" style="fill: #1d1d1b;"/>
        <path d="M45.75,52.25c-.06,0-.12-.02-.17-.07-.05-.05-.08-.11-.08-.18s.03-.13,.08-.18c.09-.09,.25-.09,.35,0,.05,.05,.07,.11,.07,.18s-.03,.13-.07,.18c-.05,.05-.11,.07-.18,.07Z" style="fill: #1d1d1b;"/>
        <path d="M46.5,56.75c-.06,0-.12-.03-.17-.07-.05-.05-.08-.11-.08-.18s.03-.13,.08-.18c.09-.09,.25-.09,.35,0,.05,.05,.07,.12,.07,.18s-.02,.13-.07,.17c-.05,.06-.11,.08-.18,.08Z" style="fill: #1d1d1b;"/>
        <path d="M42,59.5c-.06,0-.12-.02-.17-.07-.05-.05-.08-.11-.08-.18s.03-.13,.08-.18c.1-.09,.25-.09,.35,0,.04,.05,.07,.11,.07,.18s-.02,.13-.07,.18c-.05,.05-.12,.07-.18,.07Z" style="fill: #1d1d1b;"/>
        <path d="M40,62.75c-.06,0-.12-.03-.17-.07-.05-.05-.08-.11-.08-.18s.03-.14,.08-.18c.09-.09,.26-.09,.35,0,.05,.05,.07,.11,.07,.18,0,.06-.02,.13-.07,.18-.05,.04-.11,.07-.18,.07Z" style="fill: #1d1d1b;"/>
        <path d="M36,62.75c-.06,0-.12-.02-.17-.07-.05-.05-.08-.11-.08-.18s.03-.13,.08-.18c.1-.09,.26-.09,.35,0,.05,.06,.07,.12,.07,.18s-.02,.13-.07,.18c-.05,.04-.11,.07-.18,.07Z" style="fill: #1d1d1b;"/>
        <path d="M36.5,52.75c-.07,0-.13-.03-.17-.07-.05-.05-.08-.11-.08-.18s.03-.13,.08-.18c.09-.09,.25-.09,.35,0,.05,.06,.07,.12,.07,.18s-.02,.12-.07,.17c-.05,.05-.11,.08-.18,.08Z" style="fill: #1d1d1b;"/>
        <path d="M30,63.5c-.06,0-.13-.03-.17-.07-.05-.05-.08-.11-.08-.18s.03-.13,.08-.18c.09-.09,.25-.09,.35,0,.05,.05,.07,.12,.07,.18s-.02,.13-.07,.17c-.05,.05-.11,.08-.18,.08Z" style="fill: #1d1d1b;"/>
        <path d="M31.5,68.5c-.07,0-.13-.03-.18-.08-.04-.04-.07-.1-.07-.17s.03-.14,.08-.18c.09-.08,.25-.09,.34,0,.06,.05,.08,.11,.08,.18,0,.06-.02,.13-.07,.18-.05,.04-.11,.07-.18,.07Z" style="fill: #1d1d1b;"/>
        <path d="M37,71c-.06,0-.12-.02-.17-.07-.05-.05-.08-.11-.08-.18s.03-.13,.08-.18c.1-.09,.25-.09,.35,0,.05,.05,.07,.11,.07,.18s-.02,.13-.07,.18c-.05,.05-.11,.07-.18,.07Z" style="fill: #1d1d1b;"/>
        <path d="M58.75,57c-.06,0-.12-.02-.17-.07-.05-.05-.08-.11-.08-.18s.03-.13,.08-.18c.09-.09,.25-.09,.35,0,.05,.05,.07,.11,.07,.18s-.02,.13-.07,.18c-.05,.05-.11,.07-.18,.07Z" style="fill: #1d1d1b;"/>
        <path d="M63,57c-.06,0-.12-.03-.17-.07-.05-.05-.08-.11-.08-.18s.03-.13,.08-.18c.09-.09,.25-.09,.35,0,.05,.05,.07,.11,.07,.18s-.02,.13-.07,.17c-.05,.06-.11,.08-.18,.08Z" style="fill: #1d1d1b;"/>
        <path d="M60,50.75c-.06,0-.12-.03-.17-.07-.05-.05-.08-.11-.08-.18s.03-.14,.08-.18c.09-.09,.25-.09,.35,0,.04,.05,.07,.11,.07,.18s-.02,.13-.07,.18c-.05,.04-.11,.07-.18,.07Z" style="fill: #1d1d1b;"/>
        <path d="M54.5,50.5c-.07,0-.13-.03-.17-.07-.05-.05-.08-.12-.08-.18s.03-.13,.07-.17c.1-.1,.26-.1,.36,0,.05,.06,.07,.12,.07,.18s-.02,.12-.07,.17c-.05,.05-.11,.08-.18,.08Z" style="fill: #1d1d1b;"/>
        <path d="M59.25,44.25c-.06,0-.13-.03-.17-.07-.05-.05-.08-.12-.08-.18s.03-.13,.07-.17c.1-.1,.27-.1,.36,0,.05,.06,.07,.12,.07,.18s-.02,.12-.07,.17c-.04,.05-.11,.08-.18,.08Z" style="fill: #1d1d1b;"/>
        <path d="M54.75,41.75c-.06,0-.13-.03-.17-.07-.05-.05-.08-.12-.08-.18s.03-.13,.08-.18c.08-.09,.25-.09,.35,0,.05,.05,.07,.12,.07,.18s-.02,.13-.07,.18c-.05,.04-.11,.07-.18,.07Z" style="fill: #1d1d1b;"/>
        <path d="M55.75,35.5c-.06,0-.12-.02-.17-.07-.05-.05-.08-.11-.08-.18s.03-.13,.08-.18c.09-.09,.25-.09,.35,0,.05,.05,.07,.11,.07,.18s-.02,.13-.07,.18c-.05,.05-.11,.07-.18,.07Z" style="fill: #1d1d1b;"/>
        <path d="M62.5,42.25c-.06,0-.13-.03-.17-.07-.05-.05-.08-.11-.08-.18s.03-.13,.08-.18c.08-.08,.24-.09,.34,0,.06,.05,.08,.12,.08,.18s-.02,.13-.07,.18c-.05,.05-.12,.07-.18,.07Z" style="fill: #1d1d1b;"/>
        <path d="M67,47.5c-.06,0-.13-.03-.17-.07-.05-.05-.08-.11-.08-.18s.03-.13,.08-.18c.08-.08,.25-.09,.35,0,.05,.05,.07,.11,.07,.18s-.03,.13-.07,.18c-.05,.05-.11,.07-.18,.07Z" style="fill: #1d1d1b;"/>
        <path d="M69.5,54.25c-.06,0-.13-.03-.17-.07-.05-.05-.08-.11-.08-.18s.03-.13,.08-.18c.09-.09,.25-.09,.35,0,.05,.05,.07,.11,.07,.18s-.02,.13-.07,.18c-.05,.04-.11,.07-.18,.07Z" style="fill: #1d1d1b;"/>
        <path d="M63.5,61.75c-.06,0-.13-.03-.17-.07-.05-.05-.08-.12-.08-.18,0-.07,.03-.13,.08-.18,.07-.08,.25-.1,.35,0,.05,.05,.07,.12,.07,.18s-.02,.12-.07,.17c-.05,.06-.11,.08-.18,.08Z" style="fill: #1d1d1b;"/>
        <path d="M69.25,63.5c-.06,0-.12-.02-.17-.07-.05-.05-.08-.11-.08-.18s.03-.13,.08-.18c.09-.09,.25-.09,.35,0,.05,.05,.07,.12,.07,.18s-.02,.13-.07,.17c-.05,.06-.11,.08-.18,.08Z" style="fill: #1d1d1b;"/>
        <path d="M64.75,65.5c-.07,0-.13-.03-.17-.07-.05-.05-.08-.12-.08-.18s.03-.12,.07-.17c.1-.1,.27-.1,.36,0,.05,.06,.07,.12,.07,.18s-.02,.12-.07,.17c-.04,.05-.11,.08-.18,.08Z" style="fill: #1d1d1b;"/>
        <path d="M65.75,68.25c-.06,0-.13-.03-.17-.07-.05-.05-.08-.11-.08-.18s.03-.13,.08-.18c.08-.09,.26-.09,.35,0,.05,.05,.07,.12,.07,.18,0,.07-.02,.13-.07,.18-.05,.04-.11,.07-.18,.07Z" style="fill: #1d1d1b;"/>
        <path d="M69.25,70.5c-.06,0-.13-.03-.17-.07-.05-.05-.08-.12-.08-.18,0-.07,.03-.13,.08-.18,.09-.09,.25-.09,.35,0,.05,.05,.07,.11,.07,.18,0,.06-.02,.13-.07,.17-.05,.06-.11,.08-.18,.08Z" style="fill: #1d1d1b;"/>
        <path d="M62.5,70.25c-.06,0-.13-.03-.17-.07-.05-.05-.08-.11-.08-.18s.03-.13,.08-.18c.08-.08,.24-.1,.34,0,.06,.05,.08,.12,.08,.18s-.02,.13-.07,.18c-.06,.05-.12,.07-.18,.07Z" style="fill: #1d1d1b;"/>
        <path d="M60.75,65.75c-.06,0-.13-.03-.17-.07-.05-.05-.08-.11-.08-.18s.03-.13,.08-.18c.09-.09,.25-.09,.35,0,.05,.05,.07,.12,.07,.18s-.02,.13-.07,.17c-.05,.06-.11,.08-.18,.08Z" style="fill: #1d1d1b;"/>
        <path d="M52.75,69.75c-.06,0-.13-.03-.17-.07-.05-.05-.08-.11-.08-.18s.03-.13,.08-.18c.09-.09,.25-.09,.35,0,.05,.05,.07,.12,.07,.18s-.02,.13-.07,.17c-.05,.06-.11,.08-.18,.08Z" style="fill: #1d1d1b;"/>
        <path d="M44.75,66.5c-.07,0-.13-.03-.17-.07-.05-.05-.08-.11-.08-.18s.03-.13,.08-.18c.09-.09,.25-.09,.35,0,.05,.05,.07,.11,.07,.18,0,.06-.02,.13-.07,.17-.05,.05-.11,.08-.18,.08Z" style="fill: #1d1d1b;"/>
        <path d="M44.5,71.25c-.06,0-.12-.03-.17-.07-.05-.05-.08-.11-.08-.18s.03-.13,.08-.18c.09-.09,.25-.09,.35,0,.05,.05,.07,.11,.07,.18s-.02,.13-.07,.18c-.05,.05-.12,.07-.18,.07Z" style="fill: #1d1d1b;"/>
        <path d="M28.5,71.25c-.07,0-.13-.03-.18-.08-.04-.04-.07-.1-.07-.17s.03-.13,.08-.18c.09-.09,.25-.09,.35,0,.05,.05,.07,.12,.07,.18s-.02,.13-.07,.18c-.04,.04-.11,.07-.18,.07Z" style="fill: #1d1d1b;"/>
        <path d="M.75,29.5c-.06,0-.13-.03-.17-.07-.05-.05-.08-.12-.08-.18,0-.07,.03-.13,.08-.18,.08-.09,.24-.09,.35,0,.04,.05,.07,.11,.07,.18s-.02,.13-.07,.18c-.05,.05-.11,.07-.18,.07Z" style="fill: #1d1d1b;"/>
        <path d="M24.5,1c-.06,0-.12-.02-.17-.07-.05-.05-.08-.12-.08-.18,0-.07,.03-.13,.07-.18,.11-.09,.26-.09,.36,0,.04,.05,.07,.11,.07,.18s-.02,.13-.07,.17c-.05,.06-.11,.08-.18,.08Z" style="fill: #1d1d1b;"/>
        <path d="M13.25,5c-.07,0-.13-.03-.18-.07-.04-.05-.07-.12-.07-.18,0-.07,.03-.13,.07-.18,.09-.09,.26-.09,.36,0,.05,.05,.07,.11,.07,.18,0,.06-.02,.13-.07,.17-.05,.06-.11,.08-.18,.08Z" style="fill: #1d1d1b;"/>
        <path d="M71,35.25c-.06,0-.13-.03-.17-.07-.05-.05-.08-.11-.08-.18s.03-.13,.08-.18c.08-.08,.25-.09,.35,0,.05,.05,.07,.11,.07,.18s-.02,.13-.07,.18c-.05,.05-.11,.07-.18,.07Z" style="fill: #1d1d1b;"/>
      </g>
    </pattern>
  </defs>
  <g style="isolation: isolate;">
    <g id="uuid-904e6c01-72cd-4b7a-82e1-67ea929791c8" data-name="FIL et SILHOUETTES">
      <g>
        <path d="M493.84,467.62c0-.23,0-.45,.03-.66-.09-.01-.17-.04-.26-.05-.07-30.25-.15-60.5-.19-90.75-.03-19.97,.56-39.85,1.48-59.7-.27-4.49-.54-8.97-.76-13.46-2.2-19.8-.83-39.89,.48-59.91,.03-.82,.07-1.63,.1-2.45,.21-5.36,.49-10.73,.45-16.09-.02-2.52-.04-4.99,.16-7.45-.83-13.18-1.76-26.33-2.92-39.49-1.21-13.72-1.81-27.38,.28-41.05,.17-1.13,.81-2.01,1.68-2.62-1.26-17.79-1.87-35.62-1.94-53.46-.03-9.33,.08-18.66,.32-27.99-.48-16.18-.64-32.38-.28-48.58-3.99-2.06-9.02-2.03-12.72,.09C348.4,1.22,216.99,3.24,85.8,10.05c-22.91-1.68-45.79-4.16-68.62-7.72C7.09,.75,.8,10.44,2.16,17.87c2.49,26.02,1.13,52.23-.46,78.38,.28,4.37,.57,8.75,.85,13.12,.36,.64,.63,1.36,.73,2.19,2.24,17.33,.96,34.79-.25,52.15-1.21,17.33-1.74,34.64-1.51,52.01,.23,17.71,.92,35.43,2.23,53.09,1.36,18.36,3.04,36.7,3.1,55.13,0,2.57-1.56,4.1-3.46,4.64,1.33,19.7,2.53,39.41,2.57,59.17,0,1.92-.96,3.3-2.28,4.1-.24,8.55-1.1,17.07-1.81,25.6-.9,10.79-.85,21.48-.46,32.3,.39,11.1,.84,22.23,1.68,33.31,.37,4.92,.96,9.82,1.47,14.73,10.53-.61,21.05-1.25,31.61-1.29,1.6,0,2.8,.58,3.61,1.46,3.3-.11,6.58-.24,9.81-.28,20.82-.31,41.64-.63,62.46-.94,42.44-.64,84.88-1.28,127.32-1.92,76.68-1.15,153.36-2.31,230.04-3.46v.89c3.58-.76,7.42-.75,10.93-.78,3.83-.04,7.56-.36,11.26-.87,1.15-2.09,2.39-4.14,3.36-6.32,.16-.37,.39-.69,.65-.97-.69-5.26-1.69-10.53-1.78-15.67Z" style="fill: #faf7f5;"/>
        <path d="M273.44,288.57s-.03-.05-.04-.08c-.3-1.32-.81-2.62-1.58-3.89-.47-.78-1-1.51-1.56-2.22-2.37-4.45-4.87-8.83-7.5-13.13,.02-2.26,.24-4.33,.93-6.56,.79-2.54,2.45-4.71,3.17-7.26,1.82-6.45-2.05-9.89-4.34-15.27-1.07-2.52-1.53-4.98-3.46-7.08-2.18-2.36-4.7-3.24-7.78-3.84-6.08-1.17-12.27-1.96-18.39-2.94-1.75-.28-3.51-.22-5.14,.18-1.37-.5-2.9-.67-4.59-.42-4.26,.64-8.04,4.01-8.6,8.39-11.66,7.53-14.75,25.2-10.48,37.94,2.68,8,7.49,14.8,14.29,19.81,3.74,2.75,8.34,4.93,13.1,4.77,.64-.02,1.27-.12,1.91-.27,5.15,1.33,10.73,.28,14.73-3.42,.27,1.14,.34,2.32,.28,3.73-.22,4.74,.07,8.13,2.06,12.54,2.97,6.61,14.25,6.48,17.27,0,1.42-3.06,3.17-6.41,4.42-9.85,2.4-2.85,3.41-6.89,1.31-11.12Z" style="fill: #8f8c95;"/>
        <g>
          <path d="M359.61,221.42c1,4.34-2.99,12.4,4.66,14.69,7.65,2.29,12.3-9.68,15.3-6.69,2.99,2.99-2.13,8.78,2,8.44,4.13-.33,3.99-5.28,7.65-6.7,.13-.26,.26-.5,.39-.75-.42-1.72,2-5.74,.61-11.31-1.66-6.65-4.32-14.63-21.03-15.96-16.71-1.33-20.87,20.62-20.87,20.62,3.33-2.66,10.31-6.69,11.31-2.35Z" style="fill: #736357;"/>
          <path d="M389.86,230.93c-.13-.14-.21-.31-.26-.51-.13,.25-.26,.49-.39,.75,.21-.08,.43-.16,.65-.24Z" style="fill: #be7265;"/>
          <path d="M399.85,313.67c0-.65-.02-.28-.05,.75,.03,.06,.05-.16,.05-.75Z" style="fill: #be7265;"/>
          <path d="M352.96,240.93c3.66,2.79,2.99,6.12,4.99,6.78,2,.67,7.82-1,11.22-1.33s12.05,.17,20.03-15.21c-3.66,1.41-3.52,6.37-7.65,6.7-4.13,.33,1-5.45-2-8.44-2.99-2.99-7.65,8.98-15.3,6.69-7.65-2.29-3.66-10.35-4.66-14.69-1-4.34-7.98-.31-11.31,2.35-.33,7.32,1,14.37,4.66,17.16Z" style="fill: #aa7455;"/>
          <path d="M339.66,277.14c1.16-.91,2.99,0,2.99,0,0,0,.87,2.15,1.94,4.71,1.2-1.58,2.27-3.04,3.05-3.94,2.66-3.05-2.66-14.57-7.98-17.32-1.62-.84-3.24-.25-4.76,1.04h0c-1.1,.94-2.15,2.25-3.09,3.68l.2,.45-.2-.45c-2.02,3.07-3.55,6.63-4.12,8.02-1.26,3.05,5.32,13.63,8.31,15.46,1.31,.8,3.19-.6,5.12-2.68-1.43-3.28-2.91-6.63-2.91-6.63,0,0,.28-1.41,1.45-2.33Z" style="fill: #aa7455;"/>
          <path d="M378.73,305.83c-2.49-.41-7.32-.75-13.3,0-5.99,.75-10.81,7.06-12.8,10.05h30.76c1.16-5.15-2.16-9.64-4.66-10.05Z" style="fill: none;"/>
          <path d="M344.59,281.85c1.2-1.58,2.27-3.04,3.05-3.94,2.66-3.05-2.66-14.57-7.98-17.32-1.62-.84-3.24-.25-4.76,1.04-1.1,.94-2.15,2.25-3.09,3.68-2.02,3.07-3.55,6.63-4.12,8.02-1.26,3.05,5.32,13.63,8.31,15.46,1.31,.8,3.19-.6,5.12-2.68,1.21,2.77,2.38,5.48,2.61,6.09,.5,1.33,5.49-.83,4.62-2-.5-.67-2.31-4.88-3.75-8.34Z" style="fill: none;"/>
          <path d="M334.9,261.63l-3.47-8.14c-1.19,.68-2.53,1.43-3.86,2.11l4.24,9.71c.94-1.43,1.98-2.74,3.09-3.68Z" style="fill: #be7265;"/>
          <path d="M390.2,231.17c-.14-.06-.25-.14-.34-.24-.23,.08-.45,.16-.65,.24-7.98,15.38-16.63,14.88-20.03,15.21s-9.23,2-11.22,1.33c-2-.67-1.33-3.99-4.99-6.78-3.66-2.79-4.99-9.84-4.66-17.16-4.32-1-15.63,2.33-22.61,7.4-6.98,5.07-10.64,13.55-17.29,25.33-6.65,11.78-11.31,25.8-9.64,35.07,1.66,9.27,14.3,7.36,22.28,6.06-2.66,5.69-3.33,28.35-4.32,37.88l82.47,4.66s.46-20.76,.61-25.74c-.15-.33-.37-8.76,2.71-11.84,3.66-3.66,6.65-8.31,8.31-21.95,1.66-13.63-9.64-44.52-20.62-49.46Zm-46.47,61.02c-.23-.61-1.4-3.32-2.61-6.09-1.93,2.08-3.81,3.47-5.12,2.68-2.99-1.82-9.58-12.41-8.31-15.46,.57-1.39,2.1-4.95,4.12-8.02l-4.24-9.71c-2.88,1.48-5.66,2.59-6.53,1.67-1.66-1.75-5.21-4.37-4.32-7.21,1.66-5.3,11.31-9.33,14.96-10.05s5.32-.27,6.26,2.49c.94,2.77-.61,7.88-3.6,9.38-.71,.35-1.74,.94-2.91,1.61l3.47,8.14c1.52-1.29,3.14-1.87,4.76-1.04,5.32,2.75,10.64,14.27,7.98,17.32-.78,.9-1.85,2.36-3.05,3.94,1.45,3.46,3.25,7.67,3.75,8.34,.87,1.16-4.12,3.33-4.62,2Zm39.66,23.69h-30.76c2-2.99,6.82-9.3,12.8-10.05,5.99-.75,10.81-.41,13.3,0,2.49,.41,5.82,4.9,4.66,10.05Z" style="fill: #be4c58;"/>
          <path d="M331.23,253.04l.19,.45c1.17-.67,2.2-1.26,2.91-1.61,2.99-1.5,4.54-6.61,3.6-9.38-.94-2.77-2.6-3.22-6.26-2.49s-13.3,4.75-14.96,10.05c-.89,2.84,2.66,5.45,4.32,7.21,.87,.92,3.65-.19,6.53-1.67l-.17-.4,.17,.4c1.33-.68,2.67-1.43,3.86-2.11l-.19-.45Zm-1.22-10.54c-.67,3.89,.4,4.6,3.33,6.15-2.92-1.55-3.99-2.27-3.33-6.15Z" style="fill: #442f34;"/>
          <path d="M344.59,281.85c-1.09,1.44-2.29,2.97-3.47,4.25,1.21,2.77,2.38,5.48,2.61,6.09,.5,1.33,5.49-.83,4.62-2-.5-.67-2.31-4.88-3.75-8.34Z" style="fill: #be7265;"/>
          <path d="M342.65,277.14s-1.83-.91-2.99,0-1.45,2.33-1.45,2.33c0,0,1.48,3.35,2.91,6.63,1.18-1.28,2.38-2.81,3.47-4.25-1.07-2.56-1.94-4.71-1.94-4.71Z" style="fill: #be7265;"/>
          <path d="M378.73,305.83c-2.49-.41-7.32-.75-13.3,0-5.99,.75-10.81,7.06-12.8,10.05h30.76c1.16-5.15-2.16-9.64-4.66-10.05Z" style="fill: #aa7455;"/>
          <g style="mix-blend-mode: color-burn; opacity: .19;">
            <path d="M385.44,219.51c0,7.15-3.79,13.55-5.12,18.14,.26,.18,.65,.27,1.24,.22,4.13-.33,3.99-5.28,7.65-6.7,.13-.26,.26-.5,.39-.75-.42-1.72,2-5.74,.61-11.31-1.66-6.65-4.32-14.63-21.03-15.96-.35-.03-.68-.03-1.01-.04,6.45,2.27,17.28,6.16,17.28,16.39Z" style="fill: #c40000;"/>
            <path d="M389.86,230.93c-.13-.14-.21-.31-.26-.51-.13,.25-.26,.49-.39,.75,.21-.08,.43-.16,.65-.24Z" style="fill: #c40000;"/>
            <path d="M399.85,313.67c0-.65-.02-.28-.05,.75,.03,.06,.05-.16,.05-.75Z" style="fill: #c40000;"/>
            <path d="M381.56,237.87c-.6,.05-.98-.04-1.24-.22-.58,1.99-.7,3.63,.14,4.85,2.81-2.19,5.83-5.69,8.75-11.33-3.66,1.41-3.52,6.37-7.65,6.7Z" style="fill: #c40000;"/>
            <path d="M343.6,275.71c1.2,.93,2.44,1.91,3.56,2.79,.17-.21,.33-.41,.48-.58,2.66-3.05-2.66-14.57-7.98-17.32-.28-.14-.55-.23-.83-.29,.26,1.49,.63,3.26,1.16,5.28,1.55,5.91,5.07,7.09,3.61,10.14Z" style="fill: #c40000;"/>
            <path d="M342.65,277.14s.87,2.15,1.94,4.71c.97-1.28,1.85-2.47,2.57-3.36-1.11-.88-2.36-1.85-3.56-2.79-.21,.43-.52,.91-.95,1.44Z" style="fill: #c40000;"/>
            <path d="M390.2,231.17c-.14-.06-.25-.14-.34-.24-.23,.08-.45,.16-.65,.24-2.92,5.64-5.94,9.13-8.75,11.33h0c2.54,3.66,18.62,3.73,19.34,14s3.82,30.05-1.28,36.68c-5.1,6.63-12.88,15.02-17.84,13.67,1.93,1.68,3.59,5.17,2.71,9.03h-11.16c-.73,3.03-1.23,6.87-1.42,11.59-.17,4.22-.35,7.9-.51,11.05l28.88,1.63s.46-20.76,.61-25.74c-.15-.33-.37-8.76,2.71-11.84,3.66-3.66,6.65-8.31,8.31-21.95,1.66-13.63-9.64-44.52-20.62-49.46Z" style="fill: #c40000;"/>
            <path d="M331.58,303.14c6.58,.45,11.46-5.23,14.67-10.89-1.12,.42-2.29,.55-2.52-.06-.23-.61-1.4-3.32-2.61-6.09-1.93,2.08-3.81,3.47-5.12,2.68,0,0-11.75,7.71-14.96,8.85-.67,1.43-1.21,3.92-1.66,7,2.16-1.03,5.89-1.93,12.21-1.49Z" style="fill: #c40000;"/>
            <path d="M347.82,289.23c2.02-4.24,3.04-7.81,3.04-7.81,0,0-1.62-1.29-3.69-2.92-.72,.89-1.6,2.08-2.57,3.36,1.12,2.67,2.45,5.79,3.23,7.38Z" style="fill: #c40000;"/>
            <path d="M327.56,255.6c-.16,.08-.32,.16-.48,.24-.55,3.7-1.72,8.83-4.17,12.22-4.21,5.82-8.2,13.83-8.2,13.83l12.97-8.56c.57-1.39,2.1-4.95,4.12-8.02l-4.24-9.71Z" style="fill: #c40000;"/>
            <path d="M346.47,292.16c1.23-.52,2.32-1.37,1.87-1.96-.11-.15-.3-.5-.53-.97-.43,.89-.9,1.82-1.41,2.74l.07,.19Z" style="fill: #c40000;"/>
            <path d="M346.25,292.25c.08-.03,.15-.06,.23-.09l-.07-.19c-.05,.09-.1,.18-.16,.28Z" style="fill: #c40000;"/>
            <path d="M343.17,283.68l3.23,8.29c.52-.93,.99-1.85,1.41-2.74-.78-1.59-2.11-4.7-3.23-7.38-.46,.6-.93,1.22-1.42,1.83Z" style="fill: #c40000;"/>
            <path d="M343.17,283.68c.48-.61,.96-1.22,1.42-1.83-1.07-2.56-1.94-4.71-1.94-4.71l-1.57,1.16,2.09,5.38Z" style="fill: #c40000;"/>
            <path d="M372.23,315.89h11.16c.87-3.87-.78-7.36-2.71-9.03-3.51-.96-6.67,1.66-8.44,9.03Z" style="fill: #c40000;"/>
          </g>
        </g>
        <g>
          <path d="M96.85,217.69c-.8-3.4-2.41-4.42-1.09-6.78,1.32-2.36,5.29-1.13,5.29-1.13,0,0-.07-4.03-.2-7.59-.13-3.56,10.73-4.83,13.66-4.94,.55-.3,1.59-1.05,2.12-2.62,.33-.98,.81-2.57-1.19-4.3-2.01-1.72-6.38-3.67-10.57-3.4s-13.02,1.34-17.23,4.54c-4.21,3.2-8.18,2.32-9.05,13.4-.11,1.42,1.09,4.72,1.65,6.86,.66,2.55,1.49,4.66,2.2,6.31,1.44,3.35,2.17,3.32,2.65,4.61,1.29,2.84,1.62,1.32,2.92,1.12,1.5-.86,9.67-2.68,8.86-6.08Z" style="fill: #442f34;"/>
          <path d="M89.44,229.15c.29,2.27,18.62,4.17,21.06,4.09,.58-.02,1.12-.05,1.69-.13-.21-.11-.39-.19-.52-.26,.52-1.38,.99-2.65,1.53-4.1l6.13-2.27c1.05-.39,1.61-1.54,1.26-2.6-.32-.97-.48-1.75-.27-2.09,.63-1.01,2.23-1.63,1.95-2.74-.05-.19-1.09-.53-1.09-.53,0,0,1.12,.07,1.01-.47-.2-1-.82-2.28-1.08-3.04-.11-.31-.05-.65,.13-.93l1.69-.83c.42-.21,.54-.76,.23-1.12-1.75-2.03-3.76-4.79-4.96-6.5-.6-.86-.13-2.41-.61-3.43-.4-.86-1.61-3.04-3.08-4.97-2.93,.1-13.79,1.38-13.66,4.94,.13,3.56,.2,7.59,.2,7.59,0,0-3.97-1.23-5.29,1.13-1.32,2.36,.29,3.38,1.09,6.78,.8,3.4-7.37,5.22-8.86,6.08-.31,.42-.62,.8-.96,1.12-.1,.09-.2,.17-.3,.26l1.17-.18s1.25,1.91,1.54,4.18Z" style="fill: #fbf6c1;"/>
          <path d="M125.98,251.64c.24-.52,.46-1.01,.67-1.47-.08-.17-.15-.34-.19-.49-.61-2.51-2.35-4.05-4.31-5.55-1.12-.86-2.23-2.07-2.7-3.37-1.24-3.38-3.88-5.32-6.6-7.25-.21-.15-.44-.28-.65-.38-.56,.07-1.1,.11-1.69,.13-2.44,.08-20.77-1.82-21.06-4.09-.29-2.27-1.54-4.18-1.54-4.18l-1.17,.18c-.84,.77-1.73,1.49-2.69,2.1-1.27,.8-2.75,1.27-3.96,2.13-6.45,4.62-11.02,10.99-14.45,17.87-2.86,5.73-7.3,10.8-8.24,17.45-5.04,9.51-7.89,19.83-11,30.04-1.27,4.19-1.79,8.61-2.59,12.93-.11,.59-.54,1.29-.3,1.84,.22-.07-.3,5.23-.07,5.17,3.63-.93,35.62,4.83,43.93,4.71,3.99-.06-1.23-3.56,0-15.36,.26-2.47,2.49-8.1,3.1-8.23-.04,0-.08-.01-.12-.02,.93-.65,1.62-.88,1.86-1.35,.88-1.73,2.25-3.54,2.25-5.32,0-2.25,2.24-2.79,2.46-4.7,.21-1.84,1.26-3.48,1.75-5.31,.84-3.17,3.15-5.96,4.94-8.85,.77-1.24,1.78-2.33,2.94-3.83,.53,.21,1.34,.32,1.85,.77,.58,.52,1.17,1.04,1.75,1.56,.13-.23,.26-.44,.39-.6,2.87-3.62,11.64-8.05,15.46-16.49Z" style="fill: #e85158;"/>
          <path d="M189.11,296.72c-1.47-3.82-4.79-3.19-7.54-3.83-1.35-.32-2.89,.16-4.35,.28-2.1,.18-7.93-4.18-9.72-5.54-3.05-2.33-7.52-4.56-9.81-7.52-3.67-4.74-7.37-8.79-12.2-11.75-7.53-4.62-11.5-11.84-18.18-17.26-.26-.21-.5-.57-.67-.93-.21,.46-.43,.95-.67,1.47-3.82,8.45-12.6,12.88-15.46,16.49-.13,.16-.26,.37-.39,.6,4.02,3.57,8.03,7.14,11.99,10.78,1.86,1.72,4.7,4.73,6.44,6.58,3.98,4.23,8.92,7.22,13.73,10.31,4.01,2.58,8.39,4.61,12.97,7.09,3.13,1.09,7.58,2.33,11.97,.91l7.43-.09c1.66,.41,3.28,.81,5,1.23,1.82,.45,11.26-.71,11.26-.71,.16-.18,.52-.17,.92-.29,.26,.71,.25-.82,.34-2.94,.12-2.8-2.44-3.25-3.08-4.9Z" style="fill: #fbf6c1;"/>
          <path d="M92.18,294.43c.88-1.73,2.25-3.54,2.25-5.32,0-2.25,2.24-2.79,2.46-4.7,.21-1.84,1.26-3.48,1.75-5.31,.84-3.17,3.15-5.96,4.94-8.85,.77-1.24,1.78-2.33,2.94-3.83,.53,.21,1.34,.32,1.85,.77,.58,.52,1.17,1.04,1.75,1.56,4.02,3.57,8.03,7.14,11.99,10.78,1.86,1.72,4.7,4.73,6.44,6.58,3.98,4.23,8.92,7.22,13.73,10.31,4.01,2.58,8.39,4.61,12.97,7.09,3.13,1.09,7.58,2.33,11.97,.91l7.43-.09c.58,.14,1.15,.28,1.73,.43-1.84-.45-2.15-3.11-3.4-5.01-1.25-1.9-6.7-.59-12.06-3.46-5.06-2.71-13.19-8.14-19.21-11.81-6.02-3.67-4.8-4.47-12.07-8.56-7.27-4.09-13.15-8.71-17.56-12.49-4.41-3.78-3.66-3.03-6.69-1.98-3.04,1.05-4.73,6.68-7.68,8.52-2.95,1.84-.73,6.92-2.81,9.46-2.07,2.55,.85,3.04-3.64,6.28-4.49,3.24-1.23,2.99-1.12,4.39,.11,1.4-2.46,5.77,.29,5.7-.04,0-.08-.01-.12-.02,.93-.65,1.62-.88,1.86-1.35Z" style="fill: #c40000; mix-blend-mode: color-burn; opacity: .19;"/>
          <path d="M53.24,315.35c3.62,0,2.47-13.34,5.21-14.08,2.74-.74-2.71-5.85-.07-8.84,2.64-2.99,5.08-13.94,8.02-16.12,2.94-2.18,.54-6.69,2.92-9.39,2.38-2.71,3.75-9.88,6.2-12.98,2.45-3.1,6.85-14.77,8.07-18.14,1.22-3.37,4.83-3.98,11.83-4.37,3.21-4.2-.88-10.39-6.46-20s1.7-12.14-.57-14.32c-1.74-1.67,.6-5.1,2.83-7.54-1.37,.53-2.6,1.16-3.59,1.9-4.21,3.2-8.18,2.32-9.05,13.4-.11,1.42,1.09,4.72,1.65,6.86,.66,2.55,1.49,4.66,2.2,6.31,1.44,3.35,2.17,3.32,2.65,4.61,1.29,2.84,1.62,1.32,2.92,1.12-.31,.42-.62,.8-.96,1.12-.1,.09-.2,.17-.3,.26-.84,.77-1.73,1.49-2.69,2.1-1.27,.8-2.75,1.27-3.96,2.13-6.45,4.62-11.02,10.99-14.45,17.87-2.86,5.73-7.3,10.8-8.24,17.45-5.04,9.51-7.89,19.83-11,30.04-1.27,4.19-1.79,8.61-2.59,12.93-.11,.59-.54,1.29-.3,1.84,.13,.29-.73,5.01-.07,5.17" style="fill: #c40000; mix-blend-mode: color-burn; opacity: .19;"/>
        </g>
        <path d="M479.37,393.18c2.11-18.79,1.39-37.55-2.13-56.24-.57-3.03-2.32-5.03-4.55-6.13,1.92-2.58,2.7-6.21,1.91-9.09-1.58-5.75-6.93-7.75-12.3-6.98-2.77,.4-5.54,.77-8.32,1.14-1.6-2.1-4.12-3.52-7.59-3.49-81.58,.87-163.17,1.74-244.75,2.61-27.86-1.54-55.73-2.09-83.69-1.62-19.27,.32-38.53,.98-57.78,1.76-9.63,.39-19.25,.81-28.88,1.24-4.51,.2-9,.35-12.73,3.2-3.83,2.93-5.28,7.3-5.6,11.97-.72,10.6-.2,21.43-.29,32.06-.09,10.96-.18,21.92-.27,32.87-.18,21.92-.36,43.83-.54,65.75-.05,5.49,4.62,9.89,10,10,78.12,1.59,156.22-.99,234.31-2.55,38.7-.78,77.42-1.29,116.13-.91,19.51,.19,39.02,.61,58.52,1.35,9.58,.36,19.36,1.5,28.94,1.29,6.52-.14,12.05-3.53,14.24-8.75,4.08-.85,7.53-3.97,7.35-9.41-.66-20.03-1.33-40.06-1.99-60.1Z" style="fill: #f9f7f4;"/>
        <line x1="230.17" y1="264.77" x2="250.65" y2="299.99" style="fill: none; stroke: #262631; stroke-miterlimit: 10; stroke-width: .75px;"/>
        <line x1="210.63" y1="231.17" x2="225.36" y2="256.5" style="fill: none; stroke: #262631; stroke-miterlimit: 10; stroke-width: .75px;"/>
        <line x1="256.92" y1="290.59" x2="260.01" y2="295.78" style="fill: none; stroke: #262631; stroke-miterlimit: 10; stroke-width: .75px;"/>
        <line x1="267.67" y1="310.49" x2="287.86" y2="310.49" style="fill: none; stroke: #262631; stroke-miterlimit: 10; stroke-width: .75px;"/>
        <line x1="84.6" y1="310.49" x2="250.38" y2="310.49" style="fill: none; stroke: #262631; stroke-miterlimit: 10; stroke-width: .75px;"/>
        <line x1="206.64" y1="305.96" x2="206.64" y2="315.89" style="fill: none; stroke: #262631; stroke-miterlimit: 10; stroke-width: .75px;"/>
        <line x1="126.12" y1="305.96" x2="126.12" y2="315.89" style="fill: none; stroke: #262631; stroke-miterlimit: 10; stroke-width: .75px;"/>
        <line x1="300.8" y1="315.89" x2="300.8" y2="300.79" style="fill: none; stroke: #262631; stroke-miterlimit: 10; stroke-width: .75px;"/>
        <line x1="258.12" y1="228.75" x2="269.11" y2="249.38" style="fill: none; stroke: #262631; stroke-miterlimit: 10; stroke-width: .75px;"/>
        <polyline points="228.97 254.84 214.08 229.88 220.77 226.21 253.93 228.87" style="fill: none; stroke: #262631; stroke-miterlimit: 10; stroke-width: .75px;"/>
        <polyline points="266.9 251.87 258.52 287.69 250.86 291.57 234.44 264.01" style="fill: none; stroke: #262631; stroke-miterlimit: 10; stroke-width: .75px;"/>
        <g>
          <path d="M245.9,296.83c-.15,.08-.29,.16-.44,.24" style="fill: none; stroke: #262631; stroke-miterlimit: 10; stroke-width: .75px;"/>
          <path d="M243.64,297.95c-13.68,5.92-31.14-1.42-40.05-17.29-9.11-16.23-5.95-35.45,6.93-43.76" style="fill: none; stroke: #262631; stroke-dasharray: 0 0 1.01 2.03; stroke-miterlimit: 10; stroke-width: .75px;"/>
          <path d="M211.38,236.36c.14-.08,.29-.17,.43-.25" style="fill: none; stroke: #262631; stroke-miterlimit: 10; stroke-width: .75px;"/>
        </g>
        <path d="M245.17,294.65c-13.11,7.36-30.88,.62-39.68-15.06s-5.31-34.36,7.8-41.72" style="fill: none; stroke: #262631; stroke-miterlimit: 10; stroke-width: .75px;"/>
        <line x1="252.59" y1="229.99" x2="264.99" y2="251.88" style="fill: none; stroke: #262631; stroke-miterlimit: 10; stroke-width: .75px;"/>
        <polyline points="220.45 251.23 214.08 261.05 222.91 277.01 236.19 278.3" style="fill: none; stroke: #262631; stroke-miterlimit: 10; stroke-width: .75px;"/>
        <path d="M463.14,327.39c-.13-6.16-6.65-6.18-6.52,0,.93,43.71,.49,87.47-1.31,131.13-.25,6.16,6.27,6.14,6.52,0,1.8-43.66,2.24-87.41,1.31-131.13Z" style="fill: #8f8c95;"/>
        <path d="M39.97,332.35c-.12-6.16-6.64-6.18-6.52,0,.85,43.7,.78,87.43-.22,131.12-.14,6.17,6.38,6.16,6.52,0,1-43.69,1.08-87.42,.22-131.12Z" style="fill: #8f8c95;"/>
        <path d="M217.07,72.23c-.12-1.84-1.57-3.8-3.63-3.63-21.42,1.73-42.81-1.31-64.24-1.11-21.53,.19-43.01,3.11-64.57,2.01-8.45-.43-17.6-2.7-26.17-1.57-.59-.51-1.34-.83-2.24-.83-1.32,0-2.75,.89-3.35,2.14-.39,.14-.78,.26-1.16,.42-4.07,1.66-2.56,8.11,1.34,7.19,.75,10.67,.66,21.38-.37,32.04-.1,1.08,.47,2.07,1.3,2.74,.21,1.63,1.36,3.16,3.46,3.24,20.84,.81,41.67,1.61,62.51,2.42,20.8,.81,41.62,1.81,62.44,1.1,11.58-.4,23.13-1.39,34.58-3.15,1.47-.22,2.76-2.06,2.67-3.51-.86-13.16-1.72-26.32-2.59-39.49Z" style="fill: #fff;"/>
        <path d="M493.84,467.62c0-.23,0-.45,.03-.66-.09-.01-.17-.04-.26-.05-.07-30.25-.15-60.5-.19-90.75-.03-19.97,.56-39.85,1.48-59.7-.27-4.49-.54-8.97-.76-13.46-2.2-19.8-.83-39.89,.48-59.91,.03-.82,.07-1.63,.1-2.45,.21-5.36,.49-10.73,.45-16.09-.02-2.52-.04-4.99,.16-7.45-.83-13.18-1.76-26.33-2.92-39.49-1.21-13.72-1.81-27.38,.28-41.05,.17-1.13,.81-2.01,1.68-2.62-1.26-17.79-1.87-35.62-1.94-53.46-.03-9.33,.08-18.66,.32-27.99-.48-16.18-.64-32.38-.28-48.58-3.99-2.06-9.02-2.03-12.72,.09C348.4,1.22,216.99,3.24,85.8,10.05c-22.91-1.68-45.79-4.16-68.62-7.72C7.09,.75,.8,10.44,2.16,17.87c2.49,26.02,1.13,52.23-.46,78.38,.28,4.37,.57,8.75,.85,13.12,.36,.64,.63,1.36,.73,2.19,2.24,17.33,.96,34.79-.25,52.15-1.21,17.33-1.74,34.64-1.51,52.01,.23,17.71,.92,35.43,2.23,53.09,1.36,18.36,3.04,36.7,3.1,55.13,0,2.57-1.56,4.1-3.46,4.64,1.33,19.7,2.53,39.41,2.57,59.17,0,1.92-.96,3.3-2.28,4.1-.24,8.55-1.1,17.07-1.81,25.6-.9,10.79-.85,21.48-.46,32.3,.39,11.1,.84,22.23,1.68,33.31,.37,4.92,.96,9.82,1.47,14.73,10.53-.61,21.05-1.25,31.61-1.29,1.6,0,2.8,.58,3.61,1.46,3.3-.11,6.58-.24,9.81-.28,20.82-.31,41.64-.63,62.46-.94,42.44-.64,84.88-1.28,127.32-1.92,76.68-1.15,153.36-2.31,230.04-3.46v.89c3.58-.76,7.42-.75,10.93-.78,3.83-.04,7.56-.36,11.26-.87,1.15-2.09,2.39-4.14,3.36-6.32,.16-.37,.39-.69,.65-.97-.69-5.26-1.69-10.53-1.78-15.67Zm-19.73-210.99c-2.5,39.1-4.98,77.93-4.93,117.14,.04,31.12,.12,62.24,.19,93.35-73.46,1.11-146.92,2.21-220.38,3.32-40.04,.6-80.08,1.21-120.12,1.81-20.02,.3-40.04,.6-60.06,.9l-28.83,.43c-5.57,.08-11.59,.66-17.33,.12,1.28-74.02-.29-148.05-.46-222.07-.09-39.1,.25-78.22,1.67-117.3,1.29-35.3,5.39-70.93,3.3-106.27,2.33,.31,4.65,.6,6.98,.89,1.32,4.43,5.01,7.92,11.1,7.56,14.35-.85,28.71-1.63,43.07-2.37,128.71,8.6,258.02-7.11,387.07-5.94,3.88,76.1,3.56,152.38-1.29,228.43Z" style="fill: url(#uuid-0d68637a-9eaf-42c0-ba68-e5f45cabdef2); opacity: .25;"/>
        <line x1="488.62" y1="469.35" x2="7.63" y2="469.35" style="fill: none; stroke: #262631; stroke-miterlimit: 10; stroke-width: .75px;"/>
        <line x1="488.62" y1="2" x2="7.63" y2="2" style="fill: none; stroke: #262631; stroke-miterlimit: 10; stroke-width: .75px;"/>
        <line x1="488.62" y1="30.43" x2="7.63" y2="30.43" style="fill: none; stroke: #262631; stroke-miterlimit: 10; stroke-width: .75px;"/>
        <line x1="23.56" y1="2" x2="23.56" y2="483" style="fill: none; stroke: #262631; stroke-miterlimit: 10; stroke-width: .75px;"/>
        <line x1="1" y1="15.97" x2="1" y2="496.97" style="fill: none; stroke: #262631; stroke-miterlimit: 10; stroke-width: .75px;"/>
        <line x1="495.97" y1="483" x2="495.97" y2="2" style="fill: none; stroke: #262631; stroke-miterlimit: 10; stroke-width: .75px;"/>
        <line x1="474.3" y1="489.98" x2="474.3" y2="8.98" style="fill: none; stroke: #262631; stroke-miterlimit: 10; stroke-width: .75px;"/>
        <g>
          <text transform="translate(71.48 102.58)" style="fill: #c9514a; font-family: Renner-it-Black, Renner*; font-size: 21.81px;"><tspan x="0" y="0">ARTISANAT</tspan></text>
          <line x1="46.59" y1="68.87" x2="225.31" y2="68.87" style="fill: none; stroke: #262631; stroke-miterlimit: 10; stroke-width: .75px;"/>
          <line x1="43.55" y1="116.38" x2="213.2" y2="116.38" style="fill: none; stroke: #262631; stroke-miterlimit: 10; stroke-width: .75px;"/>
          <line x1="218.81" y1="71.4" x2="218.81" y2="119.06" style="fill: none; stroke: #262631; stroke-miterlimit: 10; stroke-width: .75px;"/>
          <line x1="51.44" y1="61.6" x2="51.44" y2="109.01" style="fill: none; stroke: #262631; stroke-miterlimit: 10; stroke-width: .75px;"/>
          <g>
            <line x1="198.57" y1="38.49" x2="198.57" y2="38.49" style="fill: none; stroke: #262631; stroke-linecap: round; stroke-miterlimit: 10;"/>
            <line x1="198.57" y1="40.48" x2="198.57" y2="63.34" style="fill: none; stroke: #262631; stroke-dasharray: 0 0 0 1.99; stroke-linecap: round; stroke-miterlimit: 10;"/>
            <line x1="198.57" y1="64.33" x2="198.57" y2="64.33" style="fill: none; stroke: #262631; stroke-linecap: round; stroke-miterlimit: 10;"/>
          </g>
          <g>
            <line x1="67.89" y1="38.49" x2="67.89" y2="38.49" style="fill: none; stroke: #262631; stroke-linecap: round; stroke-miterlimit: 10;"/>
            <line x1="67.89" y1="40.56" x2="67.89" y2="58.19" style="fill: none; stroke: #262631; stroke-dasharray: 0 0 0 2.07; stroke-linecap: round; stroke-miterlimit: 10;"/>
            <line x1="67.89" y1="59.23" x2="67.89" y2="59.23" style="fill: none; stroke: #262631; stroke-linecap: round; stroke-miterlimit: 10;"/>
          </g>
        </g>
        <line x1="21.05" y1="315.89" x2="466.79" y2="315.89" style="fill: none; stroke: #262631; stroke-miterlimit: 10; stroke-width: .75px;"/>
        <line x1="23.94" y1="325.98" x2="469.68" y2="325.98" style="fill: none; stroke: #262631; stroke-miterlimit: 10; stroke-width: .75px;"/>
        <line x1="22.11" y1="319.07" x2="22.11" y2="465.57" style="fill: none; stroke: #262631; stroke-miterlimit: 10; stroke-width: .75px;"/>
        <line x1="144.41" y1="319.07" x2="144.41" y2="466.63" style="fill: none; stroke: #262631; stroke-miterlimit: 10; stroke-width: .75px;"/>
        <line x1="32.14" y1="328.82" x2="32.14" y2="465.57" style="fill: none; stroke: #262631; stroke-miterlimit: 10; stroke-width: .75px;"/>
        <line x1="132.36" y1="328.82" x2="132.36" y2="465.57" style="fill: none; stroke: #262631; stroke-miterlimit: 10; stroke-width: .75px;"/>
        <line x1="151.88" y1="328.82" x2="151.88" y2="465.57" style="fill: none; stroke: #262631; stroke-miterlimit: 10; stroke-width: .75px;"/>
        <line x1="41.77" y1="328.82" x2="41.77" y2="465.57" style="fill: none; stroke: #262631; stroke-miterlimit: 10; stroke-width: .75px;"/>
        <line x1="472.93" y1="315.89" x2="472.93" y2="462.74" style="fill: none; stroke: #262631; stroke-miterlimit: 10; stroke-width: .75px;"/>
        <line x1="463.77" y1="325.98" x2="463.77" y2="472.3" style="fill: none; stroke: #262631; stroke-miterlimit: 10; stroke-width: .75px;"/>
        <line x1="455.1" y1="328.82" x2="455.1" y2="465.57" style="fill: none; stroke: #262631; stroke-miterlimit: 10; stroke-width: .75px;"/>
        <line x1="495.97" y1="496.97" x2="21.59" y2="496.97" style="fill: none; stroke: #262631; stroke-miterlimit: 10; stroke-width: .75px;"/>
        <circle cx="258.79" cy="305.83" r="3.72" style="fill: none; stroke: #262631; stroke-miterlimit: 10; stroke-width: .75px;"/>
        <g>
          <path d="M222.43,260.22c1.22-.59,2.77,.08,3.46,1.5s.25,3.05-.97,3.64" style="fill: none; stroke: #262631; stroke-miterlimit: 10; stroke-width: .75px;"/>
          <path d="M224.91,265.36c-1.22,.59-2.77-.08-3.46-1.5s-.25-3.05,.97-3.64" style="fill: none; stroke: #262631; stroke-miterlimit: 10; stroke-width: .75px;"/>
          <path d="M225.76,267.35c-2.15,1.04-4.88-.14-6.08-2.63s-.44-5.36,1.71-6.4l14.13-6.84c2.15-1.04,4.88,.14,6.08,2.63s.44,5.36-1.71,6.4l-14.13,6.84Z" style="fill: none; stroke: #262631; stroke-miterlimit: 10; stroke-width: .75px;"/>
        </g>
        <path d="M248.74,310.49v-4.65c0-5.55,4.5-10.05,10.05-10.05s10.05,4.5,10.05,10.05v6.51" style="fill: none; stroke: #262631; stroke-miterlimit: 10; stroke-width: .75px;"/>
        <line x1="247.61" y1="313.67" x2="271.22" y2="313.67" style="fill: none; stroke: #262631; stroke-miterlimit: 10; stroke-width: .75px;"/>
        <polyline points="266.9 271.72 275.86 291.57 268.84 305.83" style="fill: none; stroke: #262631; stroke-miterlimit: 10; stroke-width: .75px;"/>
        <line x1="119.51" y1="305.66" x2="210.63" y2="305.66" style="fill: none; stroke: #262631; stroke-miterlimit: 10; stroke-width: 2px;"/>
      </g>
      <line x1="17.3" y1="0" x2="498.17" y2="0" style="fill: none; stroke: #262631; stroke-miterlimit: 10; stroke-width: .75px;"/>
    </g>
  </g>
</svg>
